<svg width="80" height="80" viewBox="0 0 80 80" fill="none" xmlns="http://www.w3.org/2000/svg">
<rect width="80" height="80" transform="translate(80) rotate(90)" fill="#4531FA"/>
<path d="M24.0759 59.999L24.5012 17.3315L25.0017 17.3054C17.5559 17.227 10.8505 23.6704 10.7673 31.8512C10.7097 37.5206 10.4731 53.9377 10.4891 59.8487" fill="#6FFFBA"/>
<path d="M72.2836 39.5473C72.252 37.7511 72.4061 36.3527 72.1216 34.978C71.1178 30.1172 68.8851 25.9418 64.9649 22.7945C58.4918 17.6028 51.2126 16.2792 43.4947 19.2532C36.5198 21.9397 32.1254 27.1668 30.5289 34.5092C29.3552 39.9176 30.0981 45.1211 33.0541 49.8322C37.1363 56.3356 43.0877 59.7941 50.8648 59.991C56.9071 60.1447 62.1235 58.1003 66.3243 53.8185C70.2879 49.7731 72.5326 44.9241 72.2876 39.5434" fill="white"/>
</svg>
