<svg xmlns="http://www.w3.org/2000/svg" xmlns:xlink="http://www.w3.org/1999/xlink"><defs><style>
    .sprite-symbol-usage {display: none;}
    .sprite-symbol-usage:target {display: inline;}
  </style><symbol fill="none" viewBox="0 0 17 16" id="amazon"><path d="M9.042 5.438c-.238.02-.524.064-.86.13a7.33 7.33 0 0 0-.934.24 4.979 4.979 0 0 0-.88.397c-.3.168-.555.362-.766.578a2.51 2.51 0 0 0-.517.812 2.783 2.783 0 0 0-.201 1.074c0 .423.073.8.223 1.133.149.332.347.593.597.787.248.194.531.345.844.456.312.111.644.161.987.147.344-.014.68-.067 1.007-.16.325-.093.63-.241.915-.443.285-.202.517-.44.7-.714.067.103.127.18.18.23l.136.139a22.57 22.57 0 0 0 .984.934l1.631-1.56-.093-.077a1.943 1.943 0 0 1-.238-.224 4.04 4.04 0 0 1-.269-.32 1.799 1.799 0 0 1-.23-.405 1.152 1.152 0 0 1-.096-.445V4.04c0-.158-.03-.329-.09-.513a2.259 2.259 0 0 0-.323-.598 2.616 2.616 0 0 0-.58-.578c-.234-.17-.543-.313-.932-.429a4.544 4.544 0 0 0-1.3-.173c-.49 0-.944.058-1.369.17a3.98 3.98 0 0 0-1.089.457c-.302.19-.56.41-.777.662a2.694 2.694 0 0 0-.48.788c-.105.273-.159.55-.159.83l2.113.185c.086-.256.201-.478.344-.669.143-.19.28-.328.403-.414.125-.086.26-.154.401-.206.144-.051.24-.078.291-.084.05-.005.089-.006.119-.006.417 0 .706.123.868.368.102.149.152.374.152.677v.884c-.237.01-.475.025-.712.045Zm.714 2.373c0 .26-.035.495-.102.703-.144.455-.417.74-.819.856-.35.103-.683.052-.998-.153a1.044 1.044 0 0 1-.503-.926c0-.311.078-.577.234-.799.156-.22.364-.386.625-.495.261-.11.516-.188.766-.233.248-.047.515-.075.797-.084v1.13Z" fill="#000" /><path d="M13.928 12.301a.31.31 0 0 0-.186.02c-.963.441-1.899.755-2.808.941-1.964.4-3.878.19-5.74-.627-.518-.228-1.237-.612-2.157-1.156a.146.146 0 0 0-.083-.031.161.161 0 0 0-.083.014.148.148 0 0 0-.057.048c-.014.02-.018.049-.007.085.01.034.033.073.072.115.163.191.364.394.603.61.24.215.557.46.952.731.395.272.81.514 1.239.725.431.211.931.39 1.502.533.57.144 1.14.216 1.709.216.566 0 1.116-.058 1.648-.17a7.487 7.487 0 0 0 1.352-.405 7.869 7.869 0 0 0 1.012-.516c.31-.188.538-.347.686-.474a2.79 2.79 0 0 0 .316-.303c.072-.089.108-.165.108-.232.001-.07-.027-.112-.078-.124Zm1.301-.781c-.067-.085-.248-.14-.545-.167a3.257 3.257 0 0 0-.777.006c-.239.028-.486.097-.739.21-.254.11-.365.204-.337.277l.01.02.015.012.022.003h.072l.05-.003.06-.007.08-.006a.863.863 0 0 0 .094-.01l.16-.015.224-.02a4.48 4.48 0 0 1 .478-.014c.063.004.133.01.213.017.08.006.144.02.194.042.05.02.087.047.11.08.082.103.066.331-.046.686a6.828 6.828 0 0 1-.319.847c-.044.089-.044.143 0 .167.044.023.105.001.186-.063.244-.19.447-.478.61-.864.096-.228.165-.465.205-.714.038-.248.032-.41-.02-.484Z" fill="#F7972C" /></symbol><symbol viewBox="0 0 24 24" fill="none" id="appstore"><path d="M10.875 3.375H3.75a.376.376 0 0 0-.375.375v7.125c0 .206.169.375.375.375h7.125a.376.376 0 0 0 .375-.375V3.75a.376.376 0 0 0-.375-.375ZM9.656 9.656H4.97V4.97h4.687v4.687ZM20.25 3.375h-7.125a.376.376 0 0 0-.375.375v7.125c0 .206.169.375.375.375h7.125a.376.376 0 0 0 .375-.375V3.75a.376.376 0 0 0-.375-.375Zm-1.219 6.281h-4.687V4.97h4.687v4.687Zm-8.156 3.094H3.75a.376.376 0 0 0-.375.375v7.125c0 .206.169.375.375.375h7.125a.376.376 0 0 0 .375-.375v-7.125a.376.376 0 0 0-.375-.375Zm-1.219 6.281H4.97v-4.687h4.687v4.687ZM20.25 12.75h-7.125a.376.376 0 0 0-.375.375v7.125c0 .206.169.375.375.375h7.125a.376.376 0 0 0 .375-.375v-7.125a.376.376 0 0 0-.375-.375Zm-1.219 6.281h-4.687v-4.687h4.687v4.687Z" fill="currentColor" /></symbol><symbol viewBox="0 0 24 24" fill="none" id="appstore-2"><path d="M20.25 3.375h-7.125a.376.376 0 0 0-.375.375v7.125c0 .206.169.375.375.375h7.125a.376.376 0 0 0 .375-.375V3.75a.376.376 0 0 0-.375-.375Zm0 9.375h-7.125a.376.376 0 0 0-.375.375v7.125c0 .206.169.375.375.375h7.125a.376.376 0 0 0 .375-.375v-7.125a.376.376 0 0 0-.375-.375Zm-9.375-9.375H3.75a.376.376 0 0 0-.375.375v7.125c0 .206.169.375.375.375h7.125a.376.376 0 0 0 .375-.375V3.75a.376.376 0 0 0-.375-.375ZM8.063 15.938h3c.103 0 .187.084.187.187v1.125a.188.188 0 0 1-.188.188h-3v3a.188.188 0 0 1-.187.187H6.75a.188.188 0 0 1-.188-.188v-3h-3a.188.188 0 0 1-.187-.187v-1.125c0-.103.084-.188.188-.188h3v-3c0-.103.084-.187.187-.187h1.125c.103 0 .188.084.188.188v3Z" fill="#7CB305" /></symbol><symbol viewBox="0 0 27 31" fill="none" id="arrow"><path d="M26.03 27.532c-.285-1.906-.566-3.733-.84-5.56a7.26 7.26 0 0 1-.108-1.093c-.01-.35-.022-1.092.275-1.027.242.085.404.185.55.806.37 1.606.55 3.27.735 4.918.163 1.456.27 2.57.354 3.869.039.607-.197.85-.634.778-.393-.064-.797-.121-1.173-.278-1.358-.557-2.699-1.157-4.05-1.742-.17-.071-.304-.114-.495-.236-.23-.15-.404-.242-.336-.55.061-.292.398-.278.567-.228 1.413.379 4.32 1.22 4.482 1.22-.47-.934-.892-1.812-1.352-2.662C20.78 19.852 17.25 14.298 12.728 9.88 9.148 6.382 5.305 3.485 1.113 1.343A7.164 7.164 0 0 1 .395.901C.081.694-.054.515.02.3.2-.077.44-.006.637.03c.392.064.78.235 1.155.4 5.01 2.262 9.398 5.86 13.433 10.207 4.14 4.46 7.327 9.914 10.16 15.732.14.314.545 1.049.646 1.163Z" fill="#000" fill-opacity=".45" /></symbol><symbol viewBox="0 0 33 36" id="arrow_2"><path d="M31.82 32.78c-.35-2.27-.7-4.44-1-6.62a7.81 7.81 0 0 1-.13-1.3c0-.42 0-1.3.33-1.22s.5.22.67 1a47.75 47.75 0 0 1 .9 5.85c.2 1.74.33 3.06.43 4.61 0 .72-.24 1-.77.93a6.47 6.47 0 0 1-1.43-.34c-1.66-.66-3.3-1.37-4.95-2.07a3.57 3.57 0 0 1-.61-.28c-.28-.18-.49-.29-.41-.65s.49-.34.69-.28c1.73.45 5.28 1.46 5.48 1.46-.57-1.12-1.09-2.16-1.65-3.17-3.94-7-8.26-13.64-13.78-18.9A58.72 58.72 0 0 0 1.36 1.6a7.9 7.9 0 0 1-.88-.53C.1.83-.07.61 0 .36A.56.56 0 0 1 .78 0a6.15 6.15 0 0 1 1.41.51c6.12 2.7 11.49 7 16.42 12.15C23.67 18 27.56 24.47 31 31.4a9.87 9.87 0 0 0 .82 1.38Z" fill-opacity=".45" /></symbol><symbol viewBox="0 0 9 14" id="arrow_right"><path d="m1.84.28 6.84 6.05a.86.86 0 0 1 0 1.34l-6.84 6.05a1.18 1.18 0 0 1-1.52 0 .86.86 0 0 1 0-1.34L6.4 7 .32 1.62a.86.86 0 0 1 0-1.34 1.18 1.18 0 0 1 1.52 0Z" fill="currentColor" fill-rule="evenodd" /></symbol><symbol viewBox="0 0 18 20" fill="none" id="bag"><path d="M16.5 5.313h-3.188v-.375a4.313 4.313 0 0 0-8.624 0v.375H1.5a.75.75 0 0 0-.75.75v12.562c0 .415.335.75.75.75h15a.75.75 0 0 0 .75-.75V6.062a.75.75 0 0 0-.75-.75Zm-4.875 0h-5.25v-.375A2.624 2.624 0 0 1 9 2.313a2.624 2.624 0 0 1 2.625 2.624v.375Z" fill="#1677FF" /></symbol><symbol viewBox="0 0 18 20" fill="none" id="bag-2"><path d="M16.5 5.313h-3.188v-.375a4.313 4.313 0 0 0-8.624 0v.375H1.5a.75.75 0 0 0-.75.75v12.562c0 .415.335.75.75.75h15a.75.75 0 0 0 .75-.75V6.062a.75.75 0 0 0-.75-.75Zm-4.875 0h-5.25v-.375A2.624 2.624 0 0 1 9 2.313a2.624 2.624 0 0 1 2.625 2.624v.375Z" fill="#7CB305" /></symbol><symbol fill="none" viewBox="0 0 14 14" id="banner_close"><path d="m7.708 7 3.59-4.278a.109.109 0 0 0-.084-.179h-1.091a.223.223 0 0 0-.168.078L6.995 6.15l-2.96-3.53a.218.218 0 0 0-.168-.077H2.776a.109.109 0 0 0-.084.18L6.281 7l-3.589 4.278a.11.11 0 0 0 .025.162.109.109 0 0 0 .058.017h1.092a.223.223 0 0 0 .168-.078l2.96-3.529 2.96 3.53c.04.048.102.077.168.077h1.09a.109.109 0 0 0 .084-.18L7.708 7Z" fill="#fff" /></symbol><symbol viewBox="0 0 16 22" fill="none" id="bell"><path d="M15.125 17h-.563V9.031a6.564 6.564 0 0 0-5.624-6.497v-.909a.937.937 0 1 0-1.876 0v.91A6.564 6.564 0 0 0 1.438 9.03V17H.875a.75.75 0 0 0-.75.75v.75c0 .103.084.188.188.188h5.062A2.627 2.627 0 0 0 8 21.313a2.627 2.627 0 0 0 2.625-2.625h5.063a.188.188 0 0 0 .187-.188v-.75a.75.75 0 0 0-.75-.75ZM8 19.813a1.125 1.125 0 0 1-1.125-1.125h2.25c0 .62-.504 1.125-1.125 1.125Z" fill="#13C2C2" /></symbol><symbol viewBox="0 0 16 22" fill="none" id="bell-2"><path d="M15.125 17h-.563V9.031a6.564 6.564 0 0 0-5.624-6.497v-.909a.937.937 0 1 0-1.876 0v.91A6.564 6.564 0 0 0 1.438 9.03V17H.875a.75.75 0 0 0-.75.75v.75c0 .103.084.188.188.188h5.062A2.627 2.627 0 0 0 8 21.313a2.627 2.627 0 0 0 2.625-2.625h5.063a.188.188 0 0 0 .187-.188v-.75a.75.75 0 0 0-.75-.75ZM8 19.813a1.125 1.125 0 0 1-1.125-1.125h2.25c0 .62-.504 1.125-1.125 1.125Z" fill="#1677FF" /></symbol><symbol viewBox="0 0 24 24" fill="none" id="book"><path d="M21.75 3.773h-5.363c-1.15 0-2.275.33-3.243.954L12 5.461l-1.144-.734a5.982 5.982 0 0 0-3.244-.954H2.25a.75.75 0 0 0-.75.75v13.313c0 .415.335.75.75.75h5.362c1.151 0 2.276.33 3.244.954l1.04.67c.031.019.066.03.102.03.035 0 .07-.009.1-.03l1.041-.67a6.009 6.009 0 0 1 3.248-.954h5.363a.75.75 0 0 0 .75-.75V4.523a.75.75 0 0 0-.75-.75Zm-12.281 9.2c0 .096-.075.175-.167.175H4.948c-.092 0-.167-.08-.167-.175v-1.055c0-.096.075-.176.167-.176H9.3c.091 0 .166.08.166.176v1.055h.003Zm0-3.282c0 .096-.075.176-.167.176H4.948c-.092 0-.167-.08-.167-.176V8.637c0-.096.075-.176.167-.176H9.3c.091 0 .166.08.166.176V9.69h.003Zm9.75 3.282c0 .096-.075.175-.167.175h-4.354c-.092 0-.167-.08-.167-.175v-1.055c0-.096.075-.176.167-.176h4.352c.091 0 .166.08.166.176v1.055h.003Zm0-3.282c0 .096-.075.176-.167.176h-4.354c-.092 0-.167-.08-.167-.176V8.637c0-.096.075-.176.167-.176h4.352c.091 0 .166.08.166.176V9.69h.003Z" fill="#1677FF" /></symbol><symbol viewBox="0 0 25 24" fill="none" id="book_2"><path d="M22.25 3.773h-5.363c-1.15 0-2.275.33-3.243.954l-1.144.734-1.144-.734a5.982 5.982 0 0 0-3.243-.954H2.75a.75.75 0 0 0-.75.75v13.313c0 .415.335.75.75.75h5.363c1.15 0 2.275.33 3.243.954l1.04.67c.031.019.066.03.102.03.035 0 .07-.009.1-.03l1.041-.67a6.009 6.009 0 0 1 3.248-.954h5.363a.75.75 0 0 0 .75-.75V4.523a.75.75 0 0 0-.75-.75Zm-12.281 9.2c0 .096-.075.175-.167.175H5.448c-.092 0-.167-.08-.167-.175v-1.055c0-.096.075-.176.167-.176H9.8c.091 0 .166.08.166.176v1.055h.003Zm0-3.282c0 .096-.075.176-.167.176H5.448c-.092 0-.167-.08-.167-.176V8.637c0-.096.075-.176.167-.176H9.8c.091 0 .166.08.166.176V9.69h.003Zm9.75 3.282c0 .096-.075.175-.167.175h-4.354c-.092 0-.167-.08-.167-.175v-1.055c0-.096.075-.176.167-.176h4.352c.091 0 .166.08.166.176v1.055h.003Zm0-3.282c0 .096-.075.176-.167.176h-4.354c-.092 0-.167-.08-.167-.176V8.637c0-.096.075-.176.167-.176h4.352c.091 0 .166.08.166.176V9.69h.003Z" fill="#C41D7F" /></symbol><symbol viewBox="0 0 24 24" fill="none" id="build"><path d="M21.469 4.922H8.812a.75.75 0 0 0-.75.75v5.531h-5.53a.75.75 0 0 0-.75.75v6.375c0 .415.334.75.75.75h12.655a.75.75 0 0 0 .75-.75v-5.531h5.532a.75.75 0 0 0 .75-.75V5.672a.75.75 0 0 0-.75-.75Zm-7.125 12.562H9.656v-4.687h4.688v4.687Zm6.281-6.28h-4.688V6.515h4.688v4.687Z" fill="#722ED1" /></symbol><symbol viewBox="0 0 16 22" fill="none" id="bulb"><path d="M4.156 14.846A7.689 7.689 0 0 1 8 .5a7.689 7.689 0 0 1 3.844 14.346v2.716a.75.75 0 0 1-.75.75H4.906a.75.75 0 0 1-.75-.75v-2.716Zm1.032 4.966h5.625c.103 0 .187.085.187.188v.75a.75.75 0 0 1-.75.75h-4.5a.75.75 0 0 1-.75-.75V20c0-.103.084-.188.188-.188Z" fill="#FFA940" /></symbol><symbol viewBox="0 0 24 24" fill="none" id="camera"><path d="m21.375 7.085-3 1.728V5.25c0-.827-.673-1.5-1.5-1.5H3c-.827 0-1.5.673-1.5 1.5v13.5c0 .827.673 1.5 1.5 1.5h13.875c.827 0 1.5-.673 1.5-1.5v-3.563l3 1.728a.75.75 0 0 0 1.125-.647V7.734a.75.75 0 0 0-1.125-.649ZM7.687 8.25a.188.188 0 0 1-.187.188H4.875a.188.188 0 0 1-.188-.188V7.125c0-.103.085-.188.188-.188H7.5c.103 0 .188.085.188.188V8.25Zm13.125 6.398-2.437-1.401v-2.492l2.438-1.403v5.296Z" fill="#36CFC9" /></symbol><symbol viewBox="0 0 20 20" fill="none" id="caret"><path d="M13.98 9.638 6.543 3.224c-.277-.238-.684-.023-.684.361v12.829c0 .384.407.6.684.36l7.437-6.413a.489.489 0 0 0 0-.723Z" fill="currentColor" /></symbol><symbol viewBox="0 0 25 24" fill="none" id="cart"><path d="M22.132 16.45H8.175l.7-1.427 11.644-.02a.814.814 0 0 0 .802-.671l1.612-9.026a.814.814 0 0 0-.799-.958l-14.813-.05-.126-.595a.833.833 0 0 0-.811-.656H2.763a.827.827 0 1 0 0 1.655h2.95l.554 2.63 1.362 6.592-1.754 2.862a.82.82 0 0 0-.07.862c.14.28.424.455.738.455h1.472a2.407 2.407 0 0 0 1.922 3.85 2.407 2.407 0 0 0 1.922-3.85h3.776a2.407 2.407 0 0 0 1.922 3.85 2.407 2.407 0 0 0 1.922-3.85h2.655c.455 0 .827-.37.827-.827a.83.83 0 0 0-.83-.825ZM7.666 5.93l13.495.044-1.322 7.402-10.6.019L7.666 5.93Zm2.271 14.36a.742.742 0 0 1-.74-.74c0-.409.332-.741.74-.741a.742.742 0 0 1 .524 1.264.74.74 0 0 1-.524.217Zm7.62 0a.742.742 0 0 1-.741-.74c0-.409.333-.741.74-.741a.742.742 0 0 1 .524 1.264.74.74 0 0 1-.523.217Z" fill="currentColor" /></symbol><symbol fill="none" viewBox="0 0 22 22" id="case"><path d="M19.636 7.464h-3.67v-.277c0-1.76-2.224-3.902-4.966-3.902S6.034 5.427 6.034 7.187v.277h-3.67c-.478 0-.864.247-.864.554v9.284c0 .307.386.555.864.555h17.272c.478 0 .864-.248.864-.555V8.018c0-.307-.386-.554-.864-.554Zm-5.613 0H7.977v-.277c0-1.073 1.352-2.655 3.023-2.655 1.67 0 3.023 1.582 3.023 2.655v.277Z" fill="#FA8C16" /></symbol><symbol viewBox="0 0 12 8" fill="none" id="chevron"><path d="M11.813 0H10.64a.25.25 0 0 0-.202.103L6 6.222 1.561.103A.25.25 0 0 0 1.36 0H.188C.086 0 .027.116.086.198l5.51 7.596c.2.275.609.275.807 0l5.51-7.596a.124.124 0 0 0-.1-.198Z" fill="currentColor" /></symbol><symbol viewBox="0 0 14 14" fill="none" id="chevron_2"><path d="M9.899 2.984V1.927a.11.11 0 0 0-.176-.086L3.559 6.655a.436.436 0 0 0 0 .688l6.164 4.814a.109.109 0 0 0 .176-.086v-1.057a.221.221 0 0 0-.083-.172L4.894 7l4.922-3.843a.221.221 0 0 0 .083-.173Z" fill="currentColor" /></symbol><symbol viewBox="0 0 18 18" fill="none" id="clock"><path d="M9 1.125a7.876 7.876 0 1 0 .001 15.751A7.876 7.876 0 0 0 9 1.125Zm0 14.414A6.54 6.54 0 0 1 9 2.461a6.54 6.54 0 0 1 0 13.078Z" fill="currentColor" /><path d="M12.07 11.225 9.565 9.413v-4.35a.141.141 0 0 0-.14-.141h-.846a.141.141 0 0 0-.14.14v4.841a.14.14 0 0 0 .058.115l2.907 2.12a.142.142 0 0 0 .197-.03l.502-.686a.14.14 0 0 0-.031-.197Z" fill="currentColor" /></symbol><symbol fill="none" viewBox="0 0 22 22" id="clock-colored"><path d="M11 .5C5.202.5.5 5.202.5 11S5.202 21.5 11 21.5 21.5 16.798 21.5 11 16.798.5 11 .5Zm4.137 13.727-.67.914a.188.188 0 0 1-.263.04l-3.877-2.826a.186.186 0 0 1-.077-.153V5.75c0-.103.084-.188.188-.188h1.127c.103 0 .187.085.187.188v5.8l3.342 2.417a.184.184 0 0 1 .043.26Z" fill="#EB2F96" /></symbol><symbol viewBox="0 0 22 22" fill="none" id="clock-colored-2"><path d="M11 .5C5.202.5.5 5.202.5 11S5.202 21.5 11 21.5 21.5 16.798 21.5 11 16.798.5 11 .5Zm4.137 13.727-.67.914a.188.188 0 0 1-.263.04l-3.877-2.826a.186.186 0 0 1-.077-.153V5.75c0-.103.084-.188.188-.188h1.127c.103 0 .187.085.187.188v5.8l3.342 2.417a.184.184 0 0 1 .043.26Z" fill="#2F54EB" /></symbol><symbol viewBox="0 0 22 22" fill="none" id="clock-colored-3"><path d="M11 .5C5.202.5.5 5.202.5 11S5.202 21.5 11 21.5 21.5 16.798 21.5 11 16.798.5 11 .5Zm4.137 13.727-.67.914a.188.188 0 0 1-.263.04l-3.877-2.826a.186.186 0 0 1-.077-.153V5.75c0-.103.084-.188.188-.188h1.127c.103 0 .187.085.187.188v5.8l3.342 2.417a.184.184 0 0 1 .043.26Z" fill="#389E0D" /></symbol><symbol viewBox="0 0 12 12" fill="none" id="close"><path d="m6.607 6 3.076-3.667a.093.093 0 0 0-.071-.153h-.935a.19.19 0 0 0-.144.066L5.995 5.271 3.458 2.246a.187.187 0 0 0-.144-.066H2.38a.093.093 0 0 0-.071.153L5.384 6 2.308 9.667a.093.093 0 0 0 .071.153h.935a.19.19 0 0 0 .144-.066l2.537-3.025 2.538 3.025a.187.187 0 0 0 .144.066h.935c.08 0 .123-.092.071-.153L6.607 6Z" fill="currentColor" /></symbol><symbol viewBox="0 0 22 18" fill="none" id="community"><path d="M15.174 5.845c.139 0 .277.004.413.011C15.015 2.84 11.877.534 8.089.534 3.9.534.5 3.36.5 6.848c0 1.9 1.022 3.614 2.623 4.772a.505.505 0 0 1 .187.574l-.342 1.272c-.016.061-.04.122-.04.186 0 .138.113.253.253.253a.296.296 0 0 0 .146-.047l1.661-.959a.791.791 0 0 1 .403-.117.8.8 0 0 1 .223.033 8.997 8.997 0 0 0 2.895.337 4.81 4.81 0 0 1-.256-1.546c0-3.183 3.099-5.761 6.921-5.761ZM10.62 3.817a1.01 1.01 0 1 1 0 2.02 1.012 1.012 0 0 1-1.012-1.01c0-.557.454-1.01 1.012-1.01Zm-5.06 2.02a1.01 1.01 0 1 1 0-2.02 1.01 1.01 0 1 1 0 2.02Zm13.753 9.741c1.334-.965 2.185-2.39 2.185-3.977 0-2.906-2.832-5.262-6.326-5.262-3.492 0-6.326 2.356-6.326 5.262 0 2.906 2.831 5.262 6.326 5.262.722 0 1.42-.104 2.065-.289a.625.625 0 0 1 .52.068l1.385.797c.04.024.078.04.122.04a.21.21 0 0 0 .195-.13.21.21 0 0 0 .016-.08c0-.052-.021-.104-.033-.156l-.286-1.061a.526.526 0 0 1-.02-.134.433.433 0 0 1 .177-.34Zm-6.246-4.816a.843.843 0 0 1-.844-.842.843.843 0 0 1 1.688 0c0 .464-.38.842-.844.842Zm4.217 0a.843.843 0 0 1-.844-.842.843.843 0 1 1 1.439.595.846.846 0 0 1-.595.247Z" fill="#1677FF" /></symbol><symbol viewBox="0 0 24 24" fill="none" id="compass"><path d="M12 1.5C6.202 1.5 1.5 6.202 1.5 12S6.202 22.5 12 22.5 22.5 17.798 22.5 12 17.798 1.5 12 1.5ZM7.671 16.462a.094.094 0 0 1-.124-.049.103.103 0 0 1 0-.075l2.313-5.285 3.096 3.096-5.285 2.313Zm8.791-8.79-2.313 5.284-3.096-3.096 5.285-2.313a.093.093 0 0 1 .124.05c.01.023.01.048 0 .074Z" fill="#7CB305" /></symbol><symbol viewBox="0 0 22 22" fill="none" id="compass-2"><path d="M11 .5C5.202.5.5 5.202.5 11S5.202 21.5 11 21.5 21.5 16.798 21.5 11 16.798.5 11 .5ZM6.671 15.463a.094.094 0 0 1-.124-.05.103.103 0 0 1 0-.075l2.313-5.285 3.096 3.096-5.285 2.314Zm8.791-8.792-2.313 5.285-3.096-3.096 5.285-2.313a.093.093 0 0 1 .125.05c.009.023.009.048 0 .074Z" fill="#FA541C" /></symbol><symbol viewBox="0 0 24 24" fill="none" id="contacts"><path d="M21.75 5.25H18V3.937a.188.188 0 0 0-.188-.187H16.5a.188.188 0 0 0-.188.188V5.25h-3.468V3.937a.188.188 0 0 0-.188-.187h-1.312a.188.188 0 0 0-.188.188V5.25H7.687V3.937A.188.188 0 0 0 7.5 3.75H6.187A.188.188 0 0 0 6 3.938V5.25H2.25A.75.75 0 0 0 1.5 6v13.5c0 .415.335.75.75.75h19.5a.75.75 0 0 0 .75-.75V6a.75.75 0 0 0-.75-.75Zm-6.258 12h-1.029a.187.187 0 0 1-.185-.176A2.292 2.292 0 0 0 12 14.954c-1.2 0-2.19.937-2.278 2.12a.187.187 0 0 1-.185.176h-1.03a.188.188 0 0 1-.187-.197 3.707 3.707 0 0 1 1.749-2.955 2.62 2.62 0 0 1-.682-1.77c0-1.45 1.17-2.625 2.61-2.625a2.618 2.618 0 0 1 2.612 2.625c0 .682-.258 1.3-.682 1.77a3.705 3.705 0 0 1 1.748 2.955.181.181 0 0 1-.183.197ZM12 11.11c-.668 0-1.212.546-1.212 1.218 0 .673.544 1.219 1.212 1.219.668 0 1.212-.546 1.212-1.219 0-.672-.544-1.219-1.212-1.219Z" fill="#1677FF" /></symbol><symbol viewBox="0 0 24 24" fill="none" id="control"><path d="M20.625 2.625H3.375a.75.75 0 0 0-.75.75v17.25c0 .415.335.75.75.75h17.25a.75.75 0 0 0 .75-.75V3.375a.75.75 0 0 0-.75-.75ZM9.469 16.008v1.805A.188.188 0 0 1 9.28 18H8.156a.188.188 0 0 1-.187-.188v-1.804a2.445 2.445 0 0 1-1.688-2.32c0-1.083.71-2.004 1.688-2.32v-5.18c0-.104.084-.188.187-.188h1.125c.103 0 .188.084.188.188v5.18a2.445 2.445 0 0 1 1.687 2.32c0 1.082-.71 2.003-1.687 2.32Zm6.553-3.373.01-.002v5.18a.188.188 0 0 1-.188.187h-1.125a.188.188 0 0 1-.188-.188v-5.18c.005 0 .007.003.01.003a2.439 2.439 0 0 1 0-4.645l-.01.002V6.188c0-.104.085-.188.188-.188h1.125c.103 0 .187.084.187.188v1.804l-.01-.002a2.439 2.439 0 0 1 0 4.645Zm-1.584-2.322a.844.844 0 1 0 1.687 0 .844.844 0 0 0-1.688 0Zm-4.983 2.964-.035-.056c0-.002-.003-.002-.003-.005l-.02-.028a.643.643 0 0 0-.08-.091l-.005-.005-.028-.026a.406.406 0 0 0-.061-.049H9.22l-.028-.02c-.002-.003-.007-.006-.01-.008a.575.575 0 0 0-.09-.052c-.005-.002-.012-.004-.017-.009l-.026-.012-.023-.009a.21.21 0 0 0-.035-.012c-.01-.002-.021-.007-.03-.01l-.022-.006-.033-.007c-.004-.002-.011-.002-.016-.005-.017-.002-.033-.007-.05-.01-.004 0-.009 0-.013-.002l-.04-.004c-.005 0-.01 0-.017-.003l-.054-.002c-.018 0-.035 0-.053.002-.005 0-.01 0-.017.003a.202.202 0 0 0-.04.004c-.004 0-.01 0-.014.003-.016.002-.033.005-.049.01l-.016.004-.033.007-.021.007c-.01.002-.021.007-.03.01a.201.201 0 0 1-.036.011l-.023.01c-.01.004-.017.006-.026.011-.005.002-.012.005-.017.01-.03.016-.06.032-.091.051l-.01.007-.027.021H8.21a1.385 1.385 0 0 0-.06.05l-.029.025-.005.005a1.257 1.257 0 0 0-.08.091l-.02.028c0 .003-.003.003-.003.005l-.035.056-.007.012a.844.844 0 0 0 0 .797l.007.012.035.056c0 .002.003.002.003.005l.02.028a.642.642 0 0 0 .08.091l.005.005.028.026c.019.018.04.035.061.049h.002l.029.02.009.008a.575.575 0 0 0 .091.052c.005.002.012.004.017.009l.026.012.023.009a.21.21 0 0 0 .035.012c.01.002.021.007.03.01l.022.006.033.007c.004.002.011.002.016.005.016.002.033.007.05.01.004 0 .009 0 .013.002l.04.004c.005 0 .01 0 .016.003l.054.002c.02 0 .036 0 .054-.002.005 0 .01 0 .017-.003a.202.202 0 0 0 .04-.004c.004 0 .009 0 .014-.003.016-.002.032-.005.049-.01l.016-.004.033-.007.021-.007c.01-.002.021-.007.03-.01a.201.201 0 0 1 .036-.011l.023-.01c.01-.004.017-.006.026-.011.005-.002.012-.005.016-.01.03-.016.061-.032.092-.051l.01-.007.027-.021h.003a1.39 1.39 0 0 0 .06-.05l.029-.025.004-.005a1.272 1.272 0 0 0 .08-.091l.021-.028c0-.003.003-.003.003-.005l.035-.056.007-.012a.844.844 0 0 0-.007-.809Z" fill="#13C2C2" /></symbol><symbol viewBox="0 0 24 24" fill="none" id="credit-card"><path d="M21.75 3.75H2.25a.75.75 0 0 0-.75.75v3.75h21V4.5a.75.75 0 0 0-.75-.75ZM1.5 19.5c0 .415.335.75.75.75h19.5a.75.75 0 0 0 .75-.75v-9.188h-21V19.5Zm13.57-4.313c0-.103.085-.187.188-.187h3.867c.103 0 .188.084.188.188v1.687a.188.188 0 0 1-.188.188h-3.867a.188.188 0 0 1-.188-.188v-1.688Z" fill="#722ED1" /></symbol><symbol viewBox="0 0 24 24" fill="none" id="crown"><path d="m21.084 6.48-4.56 2.81-4.374-5.833a.189.189 0 0 0-.303 0l-4.37 5.834-4.564-2.81a.19.19 0 0 0-.286.185l1.79 13.607a.381.381 0 0 0 .376.329h14.416c.188 0 .35-.141.373-.329l1.79-13.607a.19.19 0 0 0-.288-.186ZM12 17.208a2.642 2.642 0 0 1-2.64-2.64A2.642 2.642 0 0 1 12 11.93a2.642 2.642 0 0 1 2.639 2.639 2.642 2.642 0 0 1-2.64 2.639Zm0-3.771a1.132 1.132 0 0 0 0 2.264 1.13 1.13 0 0 0 0-2.264Z" fill="#FAAD14" /></symbol><symbol viewBox="0 0 24 25" fill="none" id="currency"><path d="M12.025 21.5a.968.968 0 0 1-.713-.288.968.968 0 0 1-.287-.712v-1.15a5.19 5.19 0 0 1-1.975-.875c-.567-.417-1.025-1-1.375-1.75a.847.847 0 0 1-.013-.738c.109-.258.304-.445.588-.562a.881.881 0 0 1 .725.012c.25.109.441.288.575.538.283.5.641.88 1.075 1.138.433.258.966.387 1.6.387.683 0 1.262-.154 1.737-.462.475-.309.713-.788.713-1.438 0-.583-.184-1.046-.55-1.387-.367-.342-1.217-.73-2.55-1.163-1.434-.45-2.417-.988-2.95-1.613-.534-.624-.8-1.387-.8-2.287 0-1.083.35-1.925 1.05-2.525.7-.6 1.416-.942 2.15-1.025V4.5c0-.283.096-.52.287-.712a.968.968 0 0 1 .713-.288c.283 0 .52.096.712.288.192.191.288.429.288.712v1.1c.633.1 1.183.304 1.65.613.466.308.85.687 1.15 1.137.15.217.179.458.087.725a.936.936 0 0 1-.562.575.949.949 0 0 1-.725.012 1.814 1.814 0 0 1-.7-.487 2.226 2.226 0 0 0-.763-.538c-.291-.124-.654-.187-1.087-.187-.734 0-1.292.162-1.675.487-.384.325-.575.73-.575 1.213 0 .55.25.983.75 1.3.5.317 1.366.65 2.6 1 1.15.333 2.02.863 2.612 1.588.592.724.888 1.562.888 2.512 0 1.183-.35 2.083-1.05 2.7-.7.617-1.567 1-2.6 1.15v1.1c0 .283-.096.52-.288.712a.967.967 0 0 1-.712.288Z" fill="currentColor" /></symbol><symbol viewBox="0 0 24 24" fill="none" id="dashboard"><path d="M21.675 9.037a10.47 10.47 0 0 0-2.25-3.337A10.469 10.469 0 0 0 12 2.625 10.47 10.47 0 0 0 4.575 5.7 10.47 10.47 0 0 0 1.5 13.125c0 3.11 1.366 6.04 3.748 8.041l.04.033a.76.76 0 0 0 .482.176h12.462a.76.76 0 0 0 .483-.176l.04-.033a10.486 10.486 0 0 0 3.745-8.041c0-1.418-.279-2.791-.825-4.088Zm-10.378-3.6c0-.103.084-.187.187-.187h1.032c.103 0 .187.084.187.188v1.875a.188.188 0 0 1-.187.187h-1.032a.188.188 0 0 1-.187-.188V5.438Zm-4.969 8.204a.188.188 0 0 1-.187.187H4.266a.188.188 0 0 1-.188-.187v-1.032c0-.103.084-.187.188-.187H6.14c.103 0 .187.084.187.187v1.032Zm2.126-4.793-.729.729a.188.188 0 0 1-.265 0L6.134 8.25a.188.188 0 0 1 0-.265l.728-.729a.188.188 0 0 1 .265 0l1.327 1.327a.188.188 0 0 1 0 .265Zm6.823 1.959-1.98 1.98a1.31 1.31 0 0 1-.767 1.553 1.312 1.312 0 1 1-.162-2.48l1.98-1.981a.188.188 0 0 1 .265 0l.664.663a.188.188 0 0 1 0 .265Zm1.007-1.228-.728-.729a.188.188 0 0 1 0-.265l1.326-1.326a.188.188 0 0 1 .265 0l.729.728a.188.188 0 0 1 0 .265L16.549 9.58a.188.188 0 0 1-.265 0Zm3.544 4.062a.188.188 0 0 1-.187.187h-1.875a.188.188 0 0 1-.188-.187v-1.032c0-.103.085-.187.188-.187h1.875c.103 0 .187.084.187.187v1.032Z" fill="#7CB305" /></symbol><symbol viewBox="0 0 24 24" fill="none" id="dashboard_2"><path d="M21.675 9.037a10.47 10.47 0 0 0-2.25-3.337A10.469 10.469 0 0 0 12 2.625 10.47 10.47 0 0 0 4.575 5.7 10.47 10.47 0 0 0 1.5 13.125c0 3.11 1.366 6.04 3.748 8.041l.04.033a.76.76 0 0 0 .482.176h12.462a.76.76 0 0 0 .483-.176l.04-.033a10.486 10.486 0 0 0 3.745-8.041c0-1.418-.279-2.791-.825-4.088Zm-10.378-3.6c0-.103.084-.187.187-.187h1.032c.103 0 .187.084.187.188v1.875a.188.188 0 0 1-.187.187h-1.032a.188.188 0 0 1-.187-.188V5.438Zm-4.969 8.204a.188.188 0 0 1-.187.187H4.266a.188.188 0 0 1-.188-.187v-1.032c0-.103.084-.187.188-.187H6.14c.103 0 .187.084.187.187v1.032Zm2.126-4.793-.729.729a.188.188 0 0 1-.265 0L6.134 8.25a.188.188 0 0 1 0-.265l.728-.729a.188.188 0 0 1 .265 0l1.327 1.327a.188.188 0 0 1 0 .265Zm6.823 1.959-1.98 1.98a1.31 1.31 0 0 1-.767 1.553 1.312 1.312 0 1 1-.162-2.48l1.98-1.981a.188.188 0 0 1 .265 0l.664.663a.188.188 0 0 1 0 .265Zm1.007-1.228-.728-.729a.188.188 0 0 1 0-.265l1.326-1.326a.188.188 0 0 1 .265 0l.729.728a.188.188 0 0 1 0 .265L16.549 9.58a.188.188 0 0 1-.265 0Zm3.544 4.062a.188.188 0 0 1-.187.187h-1.875a.188.188 0 0 1-.188-.187v-1.032c0-.103.085-.187.188-.187h1.875c.103 0 .187.084.187.187v1.032Z" fill="#531DAB" /></symbol><symbol viewBox="0 0 24 24" fill="none" id="discord"><path d="m9.469 5.218-.137-.775h-.001a.79.79 0 0 0-.017.003l.155.772Zm0 0Zm12.182 11.41a.846.846 0 0 1-.296.555l-.01.008.306-.564Zm0 0v-.003l-.776-.084-.006-.007c.027-.24.047-.498.06-.766l.722.86Zm-5.838-4.024a.988.988 0 0 1-.003.105v.005a.992.992 0 0 1 .003.095.915.915 0 0 1-.816.912.93.93 0 0 1-.819-1.012v-.004a.782.782 0 0 0-.003-.092.92.92 0 0 1 .82-.915c.461.046.818.435.818.906Zm-5.928 0a.9.9 0 0 1-.001.04.798.798 0 0 0-.003.065v.005a.793.793 0 0 0 .003.091.92.92 0 0 1-.815.916.93.93 0 0 1-.82-1.012v-.004a.797.797 0 0 0-.002-.092.92.92 0 0 1 .818-.915c.462.046.82.435.82.906Zm4.895-8.15-.077-.012a.843.843 0 0 0-.87.414v.001a8.78 8.78 0 0 0-.243.462 14.498 14.498 0 0 0-3.13 0 9.418 9.418 0 0 0-.274-.51.788.788 0 0 0-.956-.348c-1.39.254-2.643.66-3.817 1.21a.786.786 0 0 0-.425.506 15.779 15.779 0 0 0-2.676 8.829c0 .568.03 1.129.088 1.681a.787.787 0 0 0 .507.655 15.444 15.444 0 0 0 4.437 2.227l.096.026a.844.844 0 0 0 .912-.308 11.186 11.186 0 0 0 .96-1.552 11.411 11.411 0 0 0 5.418-.003c.31.59.627 1.097.977 1.58.21.29.58.394.9.28.004 0 .007-.002.011-.003a15.534 15.534 0 0 0 4.738-2.405.787.787 0 0 0 .312-.712c.045-.46.07-.974.07-1.49 0-3.395-1.073-6.542-2.896-9.116a.785.785 0 0 0-.485-.317 15.094 15.094 0 0 0-3.577-1.095Z" stroke="currentColor" stroke-width="1.575" stroke-linejoin="round" /></symbol><symbol viewBox="0 0 16 16" fill="none" id="discord_2"><path d="M10.496 10.97a1.442 1.442 0 0 1-1.347-1.515v.004a1.434 1.434 0 0 1 1.343-1.511h.004a1.426 1.426 0 0 1 1.348 1.515v-.004l.002.084a1.43 1.43 0 0 1-1.347 1.427h-.004.001Zm-4.983 0a1.442 1.442 0 0 1-1.347-1.515v.004a1.434 1.434 0 0 1 1.343-1.511h.004a1.426 1.426 0 0 1 1.348 1.515v-.004l.002.08c0 .763-.595 1.386-1.346 1.431h-.004Zm7.684-6.849a11.969 11.969 0 0 0-2.978-.935l-.074-.011a.046.046 0 0 0-.049.022 7.857 7.857 0 0 0-.359.725l-.021.056a11.52 11.52 0 0 0-3.492.008l.064-.009a7.624 7.624 0 0 0-.407-.819l.02.039a.048.048 0 0 0-.041-.024l-.008.001c-1.146.201-2.17.53-3.127.978L2.8 4.12a.042.042 0 0 0-.02.017 12.552 12.552 0 0 0-2.281 7.248c0 .454.024.901.07 1.342l-.004-.055a.052.052 0 0 0 .02.035c1.07.8 2.314 1.446 3.656 1.87l.088.023a.041.041 0 0 0 .014.002c.016 0 .03-.007.039-.019.267-.36.522-.768.742-1.196l.024-.05a.048.048 0 0 0-.026-.066H5.12a8.133 8.133 0 0 1-1.208-.578l.038.02a.048.048 0 0 1-.024-.04c0-.016.008-.03.019-.039a6.43 6.43 0 0 0 .233-.182.047.047 0 0 1 .048-.006c1.104.53 2.4.84 3.768.84 1.368 0 2.664-.31 3.821-.863l-.054.023a.047.047 0 0 1 .05.006c.075.062.154.124.233.182a.05.05 0 0 1 .019.039c0 .017-.01.032-.023.04-.33.198-.716.385-1.117.54l-.053.018a.048.048 0 0 0-.031.044c0 .008.002.016.005.022.251.48.505.887.786 1.274l-.02-.029a.048.048 0 0 0 .053.018 12.403 12.403 0 0 0 3.783-1.916l-.033.024a.049.049 0 0 0 .02-.035A12.518 12.518 0 0 0 13.19 4.1l.026.039a.04.04 0 0 0-.019-.018v.001Z" fill="currentColor" /></symbol><symbol viewBox="0 0 25 24" fill="none" id="dollar"><path d="M12.5 1.5C6.702 1.5 2 6.202 2 12s4.702 10.5 10.5 10.5S23 17.798 23 12 18.298 1.5 12.5 1.5Zm0 19.219A8.72 8.72 0 0 1 3.781 12 8.72 8.72 0 0 1 12.5 3.281 8.72 8.72 0 0 1 21.219 12a8.72 8.72 0 0 1-8.719 8.719Zm1.118-9.263-.595-.138V8.17c.89.122 1.441.68 1.535 1.364a.185.185 0 0 0 .185.162h1.052a.19.19 0 0 0 .188-.206c-.143-1.46-1.346-2.398-2.951-2.56v-.766a.188.188 0 0 0-.188-.187h-.658a.188.188 0 0 0-.188.187v.774c-1.659.161-2.957 1.078-2.957 2.789 0 1.584 1.167 2.348 2.393 2.641l.579.148v3.344c-1.036-.138-1.618-.691-1.737-1.437a.187.187 0 0 0-.185-.154H9.008a.188.188 0 0 0-.188.204c.106 1.289 1.083 2.475 3.17 2.627v.736c0 .103.083.187.187.187h.665a.189.189 0 0 0 .188-.19l-.005-.742c1.835-.162 3.148-1.144 3.148-2.907-.003-1.626-1.036-2.353-2.555-2.728Zm-1.608-.38a3.437 3.437 0 0 1-.351-.117c-.793-.286-1.16-.747-1.16-1.343 0-.85.644-1.336 1.511-1.446v2.907Zm1.013 4.791v-3.133c.072.02.138.037.206.051 1.109.338 1.481.806 1.481 1.526 0 .916-.689 1.467-1.687 1.556Z" fill="currentColor" /></symbol><symbol viewBox="0 0 24 24" fill="none" id="dollar_2"><path d="M12 1.5C6.202 1.5 1.5 6.202 1.5 12S6.202 22.5 12 22.5 22.5 17.798 22.5 12 17.798 1.5 12 1.5Zm.523 15.59.004.744a.19.19 0 0 1-.187.19h-.666a.188.188 0 0 1-.187-.188V17.1c-2.082-.155-3.061-1.34-3.167-2.63a.188.188 0 0 1 .188-.204H9.59c.091 0 .17.066.185.155.12.743.698 1.299 1.736 1.437v-3.345l-.578-.147c-1.226-.293-2.393-1.057-2.393-2.642 0-1.708 1.298-2.627 2.957-2.789v-.773c0-.103.085-.188.188-.188h.659c.103 0 .187.085.187.188v.766c1.605.162 2.81 1.1 2.95 2.56a.187.187 0 0 1-.187.206h-1.052a.187.187 0 0 1-.185-.162c-.094-.684-.642-1.242-1.535-1.364v3.148l.595.138c1.519.375 2.552 1.101 2.552 2.728 0 1.765-1.312 2.75-3.147 2.909ZM9.998 9.617c0 .596.368 1.057 1.16 1.343.11.045.22.08.352.118V8.17c-.865.11-1.512.596-1.512 1.446Zm2.73 3.17a3.336 3.336 0 0 1-.205-.052v3.133c.998-.089 1.687-.637 1.687-1.556 0-.72-.373-1.188-1.481-1.526Z" fill="#389E0D" /></symbol><symbol viewBox="0 0 16 16" fill="none" id="download"><path d="M7.902 10.328a.126.126 0 0 0 .153.036.126.126 0 0 0 .043-.036l1.75-2.214a.125.125 0 0 0-.098-.202H8.592V2.625a.125.125 0 0 0-.125-.125H7.53a.125.125 0 0 0-.125.125v5.286H6.25a.125.125 0 0 0-.098.202l1.75 2.215Zm5.817-.547h-.938a.125.125 0 0 0-.125.125v2.406H3.344V9.906a.125.125 0 0 0-.125-.125H2.28a.125.125 0 0 0-.125.125V13a.5.5 0 0 0 .5.5h10.688a.5.5 0 0 0 .5-.5V9.906a.125.125 0 0 0-.125-.125Z" fill="currentColor" /></symbol><symbol viewBox="0 0 25 24" fill="none" id="edit"><path d="M21.125 19.594H3.875a.75.75 0 0 0-.75.75v.843c0 .104.084.188.188.188h18.375a.188.188 0 0 0 .187-.188v-.843a.75.75 0 0 0-.75-.75ZM6.54 17.625a.953.953 0 0 0 .14-.012l3.943-.691a.23.23 0 0 0 .124-.066l9.935-9.935a.233.233 0 0 0 0-.33l-3.895-3.898a.232.232 0 0 0-.167-.068.232.232 0 0 0-.166.068l-9.935 9.935a.238.238 0 0 0-.066.124l-.691 3.943a.785.785 0 0 0 .22.698c.155.15.35.232.558.232Z" fill="#389E0D" /></symbol><symbol fill="none" viewBox="0 0 20 20" id="external"><path d="M16.667 9.159a.833.833 0 0 0-.834.833v5a.833.833 0 0 1-.833.833H5a.833.833 0 0 1-.833-.833v-10A.833.833 0 0 1 5 4.16h5a.833.833 0 0 0 0-1.667H5a2.5 2.5 0 0 0-2.5 2.5v10a2.5 2.5 0 0 0 2.5 2.5h10a2.5 2.5 0 0 0 2.5-2.5v-5a.833.833 0 0 0-.833-.833Z" fill="currentColor" fill-opacity=".88" /><path d="M13.333 4.159h1.317L9.408 9.392a.833.833 0 0 0 .272 1.366.833.833 0 0 0 .912-.182l5.241-5.234V6.66a.833.833 0 1 0 1.667 0V3.326a.833.833 0 0 0-.833-.834h-3.334a.833.833 0 0 0 0 1.667Z" fill="currentColor" fill-opacity=".88" /></symbol><symbol viewBox="0 0 16 16" fill="none" id="facebook"><path fill-rule="evenodd" clip-rule="evenodd" d="M9.295 15.111v-6.4h1.943l.317-2.844h-2.26V4.48c0-.732.019-1.459 1.042-1.459h1.037V.99c0-.031-.89-.1-1.791-.1-1.882 0-3.06 1.178-3.06 3.342v1.636H4.444V8.71h2.08v6.4h2.771Z" fill="currentColor" /></symbol><symbol viewBox="0 0 14 14" fill="none" id="facebook_2"><path d="M12.031 1.531H1.97a.437.437 0 0 0-.438.438V12.03c0 .242.196.438.438.438H12.03a.437.437 0 0 0 .438-.438V1.97a.437.437 0 0 0-.438-.438Zm-1.263 3.193h-.874c-.685 0-.817.325-.817.804v1.054h1.635l-.213 1.65H9.077v4.237H7.372V8.233H5.946V6.582h1.426V5.365c0-1.412.863-2.182 2.123-2.182.604 0 1.123.045 1.274.065v1.476h-.001Z" fill="currentColor" /></symbol><symbol viewBox="0 0 17 16" fill="none" id="filter"><path d="M14.252 2.406H2.748a.5.5 0 0 0-.43.75l3.635 6.178v3.76c0 .276.222.5.497.5h4.1a.498.498 0 0 0 .497-.5v-3.76l3.636-6.178a.5.5 0 0 0-.431-.75ZM9.928 12.47H7.072V10.03H9.93v2.438h-.002Zm.15-3.697-.148.26H7.07l-.148-.26-3.098-5.24h9.353l-3.099 5.24Z" fill="currentColor" /></symbol><symbol viewBox="0 0 24 25" fill="none" id="finance"><path d="M8 14.15V7.5c0-.283.096-.52.287-.713A.968.968 0 0 1 9 6.5h1c.283 0 .52.096.713.287.191.192.287.43.287.713v6.65l-.125-.125a1.92 1.92 0 0 0-1.375-.55 1.92 1.92 0 0 0-1.375.55L8 14.15Zm5 1.5V3.5c0-.283.096-.52.287-.712A.968.968 0 0 1 14 2.5h1c.283 0 .52.096.713.288.191.191.287.429.287.712v9.15l-3 3ZM3 19.1v-7.6c0-.283.096-.52.288-.713A.967.967 0 0 1 4 10.5h1c.283 0 .52.096.713.287.191.192.287.43.287.713v4.6l-3 3Zm2.4 2.45c-.433 0-.738-.204-.913-.613-.175-.408-.104-.77.213-1.087l4.1-4.1a1 1 0 0 1 .662-.3.897.897 0 0 1 .688.25L13 18.15l5.6-5.6H18a.968.968 0 0 1-.712-.288.968.968 0 0 1-.288-.712c0-.283.096-.52.288-.713A.968.968 0 0 1 18 10.55h3c.283 0 .52.096.712.287.192.192.288.43.288.713v3c0 .283-.096.52-.288.712a.968.968 0 0 1-.712.288.968.968 0 0 1-.712-.288.968.968 0 0 1-.288-.712v-.6l-6.25 6.25a1 1 0 0 1-.662.3.897.897 0 0 1-.688-.25L9.55 17.8 6.1 21.25a1.086 1.086 0 0 1-.313.212.907.907 0 0 1-.387.088Z" fill="currentColor" /></symbol><symbol viewBox="0 0 8.25 10.48" id="fire"><path d="M7.9 4.74a4.19 4.19 0 0 0-1-1.35l-.34-.31-.15.44a2.59 2.59 0 0 1-.51.83A4.4 4.4 0 0 0 5 2 4.15 4.15 0 0 0 3.44.3L3 0a.1.1 0 0 0-.19.1v.56a2.61 2.61 0 0 1-.13 1 3.62 3.62 0 0 1-.55 1 4.07 4.07 0 0 1-.56.54A4.2 4.2 0 0 0 .42 4.59 4.11 4.11 0 0 0 .32 8a4.12 4.12 0 0 0 2.2 2.17 4 4 0 0 0 1.6.32 4 4 0 0 0 1.61-.32A4.12 4.12 0 0 0 7.93 8a4.11 4.11 0 0 0 0-3.25Zm-1.42 4a3.34 3.34 0 0 1-4.71 0 3.28 3.28 0 0 1-.63-3.78 3.35 3.35 0 0 1 .94-1.16 4 4 0 0 0 .69-.67A4.36 4.36 0 0 0 3.45 2a2.64 2.64 0 0 0 .15-.6 3.75 3.75 0 0 1 .71.94 3.85 3.85 0 0 1 .54 2 .82.82 0 0 0 .06.38.9.9 0 0 0 .23.28.92.92 0 0 0 .29.17.91.91 0 0 0 .33 0 .93.93 0 0 0 .6-.29 3.88 3.88 0 0 0 .4-.53 2.93 2.93 0 0 1 .41.68 3.27 3.27 0 0 1-.69 3.65Z" fill="currentColor" /></symbol><symbol viewBox="0 0 18 22" fill="none" id="fire-fill"><path d="M16.55 9.998a8.144 8.144 0 0 0-1.944-2.7l-.682-.626a.189.189 0 0 0-.304.077l-.305.874c-.19.549-.54 1.109-1.034 1.66a.146.146 0 0 1-.096.047.13.13 0 0 1-.1-.036.138.138 0 0 1-.048-.112c.087-1.41-.335-3.002-1.258-4.734-.764-1.44-1.826-2.562-3.152-3.345l-.968-.57a.188.188 0 0 0-.282.172L6.43 1.83c.035.768-.054 1.448-.265 2.013a6.684 6.684 0 0 1-1.101 1.91c-.33.4-.703.763-1.114 1.08A8.264 8.264 0 0 0 1.6 9.682a8.15 8.15 0 0 0-.2 6.804 8.234 8.234 0 0 0 4.392 4.35A8.246 8.246 0 0 0 9 21.477a8.288 8.288 0 0 0 3.209-.64 8.17 8.17 0 0 0 2.622-1.75A8.115 8.115 0 0 0 17.25 13.3a8.067 8.067 0 0 0-.7-3.302Z" fill="#F5222D" /></symbol><symbol viewBox="0 0 20 20" fill="none" id="flag"><path d="M18.625 5.148h-6V2.5a.75.75 0 0 0-.75-.75H2.312V.812a.188.188 0 0 0-.187-.187H.812a.188.188 0 0 0-.187.188v18.375c0 .103.084.187.188.187h1.312a.188.188 0 0 0 .188-.188V13h5.812v2.648c0 .415.335.75.75.75h9.75a.75.75 0 0 0 .75-.75v-9.75a.75.75 0 0 0-.75-.75Z" fill="#08979C" /></symbol><symbol viewBox="0 0 25 24" fill="none" id="folder"><path d="M22.25 10.406h-2.531V7.744a.75.75 0 0 0-.75-.75h-7.383l-2.75-2.63a.191.191 0 0 0-.128-.051H2.75a.75.75 0 0 0-.75.75v13.875c0 .414.335.75.75.75h16.36a.752.752 0 0 0 .695-.47l3.141-7.78a.75.75 0 0 0-.696-1.031Zm-4.219 0H6.078a.752.752 0 0 0-.696.469l-1.694 4.2V6h4.417l2.804 2.681h7.122v1.725Z" fill="#0958D9" /></symbol><symbol viewBox="0 0 24 24" fill="none" id="fund-view"><path d="m22.406 16.09-.004-.005c-1.034-2.187-2.635-3.312-4.765-3.312s-3.732 1.128-4.768 3.312v.002c-.126.27-.126.584 0 .854 1.037 2.184 2.637 3.309 4.768 3.309 2.13 0 3.731-1.127 4.767-3.312.127-.27.127-.581.002-.848Zm-4.77 2.66c-1.455 0-2.516-.703-3.306-2.238.787-1.535 1.851-2.239 3.307-2.239 1.455 0 2.517.704 3.307 2.239-.788 1.535-1.852 2.238-3.307 2.238Z" fill="currentColor" /><path d="M16.336 16.523a1.312 1.312 0 1 0 2.625 0 1.312 1.312 0 0 0-2.625 0ZM3.188 5.438h16.5v5.93h1.687V4.5a.75.75 0 0 0-.75-.75H2.25a.75.75 0 0 0-.75.75v12.188c0 .414.335.75.75.75h8.25V15.75H3.187V5.437Z" fill="currentColor" /><path d="m16.989 7.923-.863-.862a.188.188 0 0 0-.264 0l-4.308 4.312-2.018-2.02a.188.188 0 0 0-.265 0l-3.382 3.382a.188.188 0 0 0 0 .265l.862.862a.188.188 0 0 0 .265 0l2.386-2.386 2.018 2.02a.188.188 0 0 0 .265 0l5.304-5.308a.184.184 0 0 0 0-.265Z" fill="currentColor" /></symbol><symbol viewBox="0 0 24 24" fill="none" id="funnel"><path d="M3.287 10.224c0-.367.297-.664.664-.664h16.098c.366 0 .663.297.663.664v2.182a.664.664 0 0 1-.663.663H3.95a.664.664 0 0 1-.664-.663v-2.182ZM5.776 15.195c0-.366.298-.663.664-.663h11.12c.366 0 .663.297.663.663v2.182a.664.664 0 0 1-.664.664H6.44a.664.664 0 0 1-.664-.664v-2.181ZM7.436 20.167c0-.367.297-.664.664-.664h7.8c.366 0 .664.297.664.664v2.182a.664.664 0 0 1-.664.664H8.1a.664.664 0 0 1-.664-.664v-2.182ZM6.236 6.752a5.763 5.763 0 1 1 11.32 1.539.225.225 0 0 1-.219.163H14.11c.037-.138.056-.286.056-.446-.001-.936-.61-1.354-1.504-1.57l-.351-.079V4.55c.524.07.849.39.904.784a.108.108 0 0 0 .11.093h.619a.11.11 0 0 0 .11-.118c-.084-.84-.792-1.38-1.738-1.472v-.441a.11.11 0 0 0-.11-.108h-.388a.11.11 0 0 0-.11.108v.445c-.978.093-1.742.62-1.742 1.604 0 .911.687 1.35 1.409 1.52l.34.084v1.406h-.913a.9.9 0 0 1-.109-.309.11.11 0 0 0-.109-.088h-.638a.11.11 0 0 0-.11.117c.008.095.024.188.049.28H6.662a.225.225 0 0 1-.218-.163 5.769 5.769 0 0 1-.208-1.54Z" fill="#13C2C2" /><path d="M13.223 8.454h-.913v-1.28c.043.012.081.021.121.03.653.193.873.463.873.877 0 .14-.029.264-.081.373ZM11.507 6.153c.064.026.13.046.207.067V4.55c-.511.063-.89.342-.89.832 0 .342.216.608.683.772Z" fill="#13C2C2" /></symbol><symbol viewBox="0 0 18 18" fill="none" id="guidance"><path d="M17.813 15.563H1.688V.937A.188.188 0 0 0 1.5.75H.187A.188.188 0 0 0 0 .938v16.125c0 .103.084.187.188.187h17.625a.188.188 0 0 0 .187-.188V15.75a.188.188 0 0 0-.188-.188Zm-14.438-1.5h12.563a.188.188 0 0 0 .187-.188V3.656a.188.188 0 0 0-.321-.133l-4.929 4.929-2.94-2.907a.188.188 0 0 0-.264 0L3.241 9.99a.185.185 0 0 0-.054.131v3.755c0 .103.085.188.188.188Z" fill="#389E0D" /></symbol><symbol viewBox="0 0 18 18" fill="none" id="guidance-2"><path d="M17.813 15.563H1.688V.937A.188.188 0 0 0 1.5.75H.187A.188.188 0 0 0 0 .938v16.125c0 .103.084.187.188.187h17.625a.188.188 0 0 0 .187-.188V15.75a.188.188 0 0 0-.188-.188Zm-14.438-1.5h12.563a.188.188 0 0 0 .187-.188V3.656a.188.188 0 0 0-.321-.133l-4.929 4.929-2.94-2.907a.188.188 0 0 0-.264 0L3.241 9.99a.185.185 0 0 0-.054.131v3.755c0 .103.085.188.188.188Z" fill="#7CB305" /></symbol><symbol viewBox="0 0 24 24" fill="none" id="heart"><path d="M21.633 6.646a6.093 6.093 0 0 0-1.334-1.94 6.22 6.22 0 0 0-4.369-1.777A6.26 6.26 0 0 0 12 4.314 6.26 6.26 0 0 0 8.07 2.93 6.219 6.219 0 0 0 3.7 4.706a6.057 6.057 0 0 0-1.825 4.328c0 .78.16 1.594.476 2.421.265.692.644 1.41 1.13 2.133.768 1.146 1.825 2.342 3.138 3.554a35.071 35.071 0 0 0 4.42 3.452l.556.356a.753.753 0 0 0 .808 0l.556-.356a35.528 35.528 0 0 0 4.42-3.453c1.312-1.211 2.37-2.407 3.138-3.553.485-.724.867-1.441 1.13-2.132.316-.828.476-1.641.476-2.422a5.968 5.968 0 0 0-.49-2.388Z" fill="#F5222D" /></symbol><symbol viewBox="0 0 38 38" fill="none" id="hot"><path d="M7.971 12.327c.789-.394 1.314-1.806 1.479-2.463v3.448c0 .394-1.643 2.134-2.464 2.954 0-1.149.197-3.545.985-3.94Z" fill="#EB0000" /><path d="M7.97 12.82c.496-.496.855-.973.986-1.478v1.477c0 .303-.82 1.831-1.478 2.463 0-.884 0-1.97.493-2.463Z" fill="#FF6C3E" /><path d="M27.55 10.357C26.365 7.205 20.813 2.806 18.185 1c.164 1.806.788 5.319 0 6.895-.789 1.575-2.464 1.477-2.957.985-.821 2.298-1.971 5.712-1.971 6.894 0 1.97 0 4.925-2.464 4.925-1.971 0-2.136-3.448-1.971-4.925-1.807 1.806-3.609 7.768-2.464 10.342 1.97 4.432 3.45 4.432 3.45 5.417 0 .493-1.808 0-2.465-.492 3.45 3.447 6.308 4.924 11.828 4.924 5.519 0 9.856-2.626 11.334-3.94 0 0-1.122.12-1.479 0-1.478-.492 3.45-2.462 3.943-7.879.252-2.774-1.15-6.73-1.971-8.372.164 1.15 0 3.349-1.971 2.955-2.464-.492 0-4.432-1.479-8.372Z" fill="url(#paint0_radial_2003_5837)" /><path d="M26.787 9.865c-1.08-2.93-5.486-6.201-7.885-7.88.15 1.679.506 5.437-.214 6.902-.72 1.465-2.248 1.373-2.698.915-.75 2.137-1.799 5.31-1.799 6.41 0 1.83-.432 4.98-2.681 4.98-1.799 0-3.107-2.567-2.957-3.94-1.649 1.678-2.03 6.472-.986 8.864 1.799 4.12 2.464 4.502 2.464 5.418 0 .457-.878.457-1.478 0 3.148 3.204 5.805 4.432 10.842 4.432 5.037 0 8.506-2.72 9.856-3.94 0 0-.168.11-.493 0-1.35-.458 3-2.844 3.45-7.88.23-2.579-.236-5.368-.986-6.894.15 1.068-.84 2.073-2.64 1.706-2.248-.457-.446-5.43-1.795-9.093Z" fill="#FF491A" /><path d="M26.054 11.378c-1.016-2.76-4.314-5.842-6.574-7.423.142 1.581-.377 5.122-1.055 6.502-.678 1.38-2.118 1.293-2.542.862-.706 2.013-1.694 5.003-1.694 6.038 0 1.725-.408 4.691-2.526 4.691-1.695 0-3.856-2.025-3.714-3.319-1.554 1.582-.984 5.704 0 7.958 1.694 3.881 2.321 4.24 2.321 5.103 0 .432-.828.432-1.393 0 2.966 3.02 5.468 4.176 10.213 4.176 4.745 0 8.014-2.562 9.285-3.712 0 0-.158.104-.464 0-1.271-.43 2.826-2.679 3.25-7.422.217-2.43.36-4.665-.346-6.103.141 1.006-1.375 1.56-3.07 1.215-2.117-.431-.42-5.116-1.69-8.566Z" fill="#FF6F36" /><path d="M24.726 14.296c0-2.396-2.792-5.91-4.435-7.387.165.493-.098 2.167-.493 2.955-.492.985 0 0-2.464 3.447-2.464 3.448-2.464 6.402-2.464 7.387 0 .985-.492 2.955-2.464 3.448-1.577.394-2.956-1.15-3.45-1.97 0 .492.1 1.97.494 3.94.492 2.462 1.97 4.924 3.942 6.402 1.577 1.182 2.972 2.827 3.465 3.32 1.605.316 3.759.1 4.909-.065-.164 0 .694-.793 3.453-2.763 3.45-2.462 5.421-7.387 4.928-6.402-.394.788-1.478.985-1.97.492-.494-.492-.79-1.674 0-2.462.788-.788.656-2.626.492-3.447-.493.328-1.38 1.379-2.957.985-1.478-.37-.986-4.432-.986-7.88Z" fill="#FFBB46" /><path d="M28.669 21.19c-.493.33-2.132 2.43-3.45 1.478-8.87-6.402-6.899-3.94-10.349.986-4.435 1.97-5.175 1.716-5.913-1.478 0 .492.098 1.97.493 3.94.492 2.462 1.97 4.924 3.942 6.402 1.577 1.182 2.972 2.827 3.465 3.32 1.605.316 3.759.1 4.909-.065-.164 0 .694-.793 3.453-2.763 3.45-2.462 5.421-7.387 4.928-6.402-.394.788-1.478.985-1.97.492-.494-.492-.79-1.674 0-2.462.788-.788.656-2.626.492-3.447Z" fill="url(#paint1_linear_2003_5837)" /><path d="M15.856 26.609c0 .787-1.971 1.313-2.957 1.477 0 .985 2.464 4.432 2.957 4.925.394.394 1.357 2.261 1.85 2.918l3.399-.09c.493-.822 1.453-3.025 2.636-3.813 1.478-.985 1.478-2.955 1.478-3.448 0-.492-.493-.492-1.478-.985-.789-.393-.329-1.477 0-1.97-1.479.493-1.971-.492-2.957-1.97-.788-1.181-.328-4.431 0-5.909-.493.328-1.774 1.379-2.957 2.955-1.478 1.97-1.971 4.925-1.971 5.91Z" fill="#FFDA55" /><path d="M16.25 29.071c0 .57-1.577.948-2.365 1.067 0 .711 1.971 3.201 2.365 3.557.316.284 1.062 1.76 1.456 2.234l2.496-.01c.395-.593 1.41-2.366 2.356-2.936 1.183-.71 1.183-2.134 1.183-2.49 0-.355-.394-.355-1.183-.71-.63-.285-.263-1.068 0-1.423-1.183.355-1.577-.356-2.365-1.423-.631-.854-.263-3.201 0-4.268-.395.237-1.42.996-2.366 2.134-1.183 1.423-1.577 3.557-1.577 4.268Z" fill="#FEFEE3" /></symbol><symbol viewBox="0 0 22 22" fill="none" id="id_card"><path d="M8.208 8.971c-.573 0-1.039.468-1.039 1.045 0 .576.466 1.044 1.039 1.044.572 0 1.038-.468 1.038-1.044 0-.577-.466-1.045-1.038-1.045Zm11.15-5.042H2.642A.642.642 0 0 0 2 4.572v12.857c0 .355.287.643.643.643h16.714a.642.642 0 0 0 .643-.643V4.572a.642.642 0 0 0-.643-.643Zm-6.43 5.223c0-.088.02-.16.047-.16h2.479c.026 0 .046.072.046.16v.964c0 .089-.02.16-.046.16h-2.48c-.025 0-.045-.071-.045-.16v-.964Zm-1.727 5.083h-.882a.16.16 0 0 1-.159-.151 1.966 1.966 0 0 0-1.952-1.818 1.966 1.966 0 0 0-1.953 1.818.16.16 0 0 1-.159.15h-.882a.162.162 0 0 1-.116-.05.16.16 0 0 1-.044-.118 3.178 3.178 0 0 1 1.498-2.534 2.246 2.246 0 0 1-.584-1.516 2.244 2.244 0 0 1 2.238-2.25 2.244 2.244 0 0 1 2.238 2.25 2.25 2.25 0 0 1-.585 1.517 3.176 3.176 0 0 1 1.499 2.533.155.155 0 0 1-.157.168Zm5.603-1.065H13.07c-.078 0-.142-.072-.142-.16v-.965c0-.089.064-.16.142-.16h3.73c.08 0 .143.071.143.16v.964h.002c0 .088-.064.16-.142.16Z" fill="#08979C" /></symbol><symbol viewBox="0 0 18 20" fill="none" id="import"><path d="M9.43 13.457a.93.93 0 0 1-.68.293.93.93 0 0 1-.68-.293L2.758 7.832a.937.937 0 0 1 .68-1.582H6.25v-5C6.25.559 6.809 0 7.5 0H10c.691 0 1.25.559 1.25 1.25v5h2.813a.937.937 0 0 1 .68 1.582L9.43 13.457Zm-6.93.293c0-.691-.559-1.25-1.25-1.25S0 13.059 0 13.75v2.5C0 18.32 1.68 20 3.75 20h10c2.07 0 3.75-1.68 3.75-3.75v-2.5c0-.691-.559-1.25-1.25-1.25S15 13.059 15 13.75v2.5c0 .691-.559 1.25-1.25 1.25h-10c-.691 0-1.25-.559-1.25-1.25v-2.5Z" fill="#13C2C2" /></symbol><symbol viewBox="0 0 25 24" fill="none" id="inbox"><path d="m21.247 10.46-.004-.018-2.63-6.682a.905.905 0 0 0-.862-.637H7.09a.904.904 0 0 0-.865.646l-2.458 6.614-.007.017-.005.019a.87.87 0 0 0-.023.346 1.8 1.8 0 0 0-.005.113v8.576a1.428 1.428 0 0 0 1.425 1.425h14.7a1.43 1.43 0 0 0 1.427-1.425v-8.576c0-.03 0-.06-.002-.087a.912.912 0 0 0-.03-.33Zm-6.932-1.007-.007.368c-.02 1.052-.746 1.76-1.807 1.76-.518 0-.964-.166-1.285-.483-.32-.316-.497-.757-.506-1.277l-.007-.368H5.879l1.864-4.53h9.356l1.915 4.53h-4.7Zm-8.79 1.8h3.687c.57 1.338 1.781 2.128 3.29 2.128.79 0 1.524-.22 2.117-.637.52-.366.926-.877 1.189-1.491h3.668v7.826H5.526v-7.826Z" fill="currentColor" /></symbol><symbol fill="none" viewBox="0 0 16 16" id="info"><path d="M8 1a7 7 0 1 0 .001 14.001A7 7 0 0 0 8 1Zm.5 10.375a.125.125 0 0 1-.125.125h-.75a.125.125 0 0 1-.125-.125v-4.25c0-.069.056-.125.125-.125h.75c.069 0 .125.056.125.125v4.25ZM8 6a.75.75 0 0 1 0-1.5A.75.75 0 0 1 8 6Z" fill="#1677FF" /></symbol><symbol viewBox="0 0 16 16" fill="none" id="instagram"><path fill-rule="evenodd" clip-rule="evenodd" d="M8 12a4 4 0 1 0 0-8 4 4 0 0 0 0 8Zm0-1.33A2.67 2.67 0 1 0 5.33 8 2.68 2.68 0 0 0 8 10.67Z" fill="currentColor" /><path d="M12 3.33a.67.67 0 1 0 0 1.34.67.67 0 0 0 0-1.34Z" fill="currentColor" /><path fill-rule="evenodd" clip-rule="evenodd" d="M1.1 2.85c-.43.86-.43 2-.43 4.22v1.86c0 2.24 0 3.36.43 4.22.39.75 1 1.36 1.75 1.75.86.43 2 .43 4.22.43h1.86c2.24 0 3.36 0 4.22-.43.75-.39 1.36-1 1.75-1.75.43-.86.43-2 .43-4.22V7.07c0-2.24 0-3.36-.43-4.22-.39-.75-1-1.36-1.75-1.75-.86-.43-2-.43-4.22-.43H7.07c-2.24 0-3.36 0-4.22.43-.75.39-1.36 1-1.75 1.75ZM8.93 2H4.55a2.77 2.77 0 0 0-1.09.24 2.65 2.65 0 0 0-1.17 1.22 2.77 2.77 0 0 0-.24 1.09v6.9c.005.376.087.747.24 1.09a2.65 2.65 0 0 0 1.17 1.17c.34.17.71.27 1.09.29.6.05 1.37.05 2.52.05h1.86c1.15 0 1.92 0 2.52-.05a2.77 2.77 0 0 0 1.09-.24 2.65 2.65 0 0 0 1.17-1.17c.177-.355.276-.744.29-1.14.05-.6.05-1.37.05-2.52V7.07c0-1.15 0-1.92-.05-2.52a2.769 2.769 0 0 0-.24-1.09 2.65 2.65 0 0 0-1.17-1.17 2.77 2.77 0 0 0-1.09-.24C10.85 2 10.08 2 8.93 2Z" fill="currentColor" /></symbol><symbol viewBox="0 0 18 22" fill="none" id="instant"><path d="M16.5.5h-15a.75.75 0 0 0-.75.75v12.398c0-.014.01-.023.023-.023h5.14l.122.579A3.033 3.033 0 0 0 9 16.625a3.029 3.029 0 0 0 2.963-2.421l.121-.579h5.143c.014 0 .023.01.023.023V1.25A.75.75 0 0 0 16.5.5Zm-2.813 10.055a.188.188 0 0 1-.187.187h-9a.188.188 0 0 1-.188-.187V9.43c0-.103.085-.188.188-.188h9c.103 0 .188.085.188.188v1.125Zm0-3.75a.188.188 0 0 1-.187.187h-9a.188.188 0 0 1-.188-.187V5.68c0-.103.085-.188.188-.188h9c.103 0 .188.085.188.188v1.125Zm3.54 8.297h-3.959a4.526 4.526 0 0 1-7.15 1.985 4.547 4.547 0 0 1-1.386-1.985H.773c-.014 0-.023-.01-.023-.024v5.672c0 .415.335.75.75.75h15a.75.75 0 0 0 .75-.75v-5.672c0 .014-.01.024-.023.024Z" fill="#EB2F96" /></symbol><symbol viewBox="0 0 14 14" fill="none" id="link"><path d="M7.848 9.098a.11.11 0 0 0-.154 0l-1.589 1.588a1.964 1.964 0 0 1-2.789 0 1.964 1.964 0 0 1 0-2.789L4.905 6.31a.11.11 0 0 0 0-.155L4.36 5.61a.11.11 0 0 0-.155 0L2.617 7.199a2.956 2.956 0 0 0 0 4.183 2.957 2.957 0 0 0 4.184 0L8.39 9.794a.11.11 0 0 0 0-.155l-.542-.541Zm3.536-6.48a2.956 2.956 0 0 0-4.184 0L5.61 4.205a.11.11 0 0 0 0 .154l.543.543a.11.11 0 0 0 .155 0l1.588-1.588a1.964 1.964 0 0 1 2.79 0 1.964 1.964 0 0 1 0 2.789l-1.59 1.588a.11.11 0 0 0 0 .155l.545.544a.11.11 0 0 0 .154 0l1.589-1.589a2.96 2.96 0 0 0 0-4.185ZM8.342 5.09a.11.11 0 0 0-.155 0L5.091 8.186a.11.11 0 0 0 0 .154l.541.542a.11.11 0 0 0 .155 0l3.095-3.096a.11.11 0 0 0 0-.154l-.54-.542Z" fill="currentColor" /></symbol><symbol viewBox="0 0 16 16" fill="none" id="linkedin"><path fill-rule="evenodd" clip-rule="evenodd" d="M15.11 15.11h-2.84v-5c0-1.36-.61-2.12-1.69-2.12s-1.87.79-1.87 2.12v5H5.87V5.87h2.84v1a3.42 3.42 0 0 1 2.9-1.57c2 0 3.5 1.23 3.5 3.77v6.04ZM2.63 4.39a1.75 1.75 0 1 1-.04-3.5 1.75 1.75 0 0 1 .04 3.5ZM.89 15.11h3.55V5.87H.89v9.24Z" fill="currentColor" /></symbol><symbol viewBox="0 0 14 14" fill="none" id="linkedin_2"><path d="M12.031 1.531H1.97a.437.437 0 0 0-.438.438V12.03c0 .242.196.438.438.438H12.03a.437.437 0 0 0 .438-.438V1.97a.437.437 0 0 0-.438-.438Zm-7.255 9.32H3.153v-5.22h1.623v5.22Zm-.811-5.933a.94.94 0 1 1 0-1.881.94.94 0 0 1 0 1.88Zm6.886 5.933H9.23V8.312c0-.605-.011-1.383-.844-1.383-.843 0-.973.659-.973 1.34v2.582h-1.62v-5.22h1.556v.714h.022c.216-.41.745-.843 1.535-.843 1.643 0 1.945 1.081 1.945 2.486v2.863Z" fill="currentColor" /></symbol><symbol viewBox="0 0 24 24" fill="none" id="linkedin_3"><path d="M20.625 2.625H3.375a.75.75 0 0 0-.75.75v17.25c0 .415.335.75.75.75h17.25a.75.75 0 0 0 .75-.75V3.375a.75.75 0 0 0-.75-.75ZM8.187 18.602H5.405V9.654h2.782v8.948ZM6.797 8.43a1.612 1.612 0 1 1 0-3.224 1.612 1.612 0 0 1 0 3.224Zm11.805 10.172h-2.78V14.25c0-1.038-.018-2.372-1.445-2.372-1.447 0-1.67 1.13-1.67 2.297v4.427H9.93V9.654h2.668v1.223h.037c.37-.703 1.277-1.446 2.632-1.446 2.817 0 3.335 1.854 3.335 4.264v4.907Z" fill="currentColor" /></symbol><symbol viewBox="0 0 18 20" fill="none" id="lock"><path d="M16.5 8.875h-1.594v-5.25a3 3 0 0 0-3-3H6.094a3 3 0 0 0-3 3v5.25H1.5a.75.75 0 0 0-.75.75v9c0 .415.335.75.75.75h15a.75.75 0 0 0 .75-.75v-9a.75.75 0 0 0-.75-.75ZM9.656 14.43v1.242a.188.188 0 0 1-.187.187H8.53a.188.188 0 0 1-.187-.187V14.43a1.125 1.125 0 1 1 1.312 0Zm3.563-5.555H4.78v-5.25c0-.724.589-1.313 1.313-1.313h5.812c.724 0 1.313.589 1.313 1.313v5.25Z" fill="#0958D9" /></symbol><symbol viewBox="0 0 22 22" fill="none" id="micro"><path d="M11 13.25c1.886 0 3.415-1.51 3.415-3.375v-4.5C14.415 3.511 12.886 2 11 2 9.113 2 7.584 3.51 7.584 5.375v4.5c0 1.864 1.53 3.375 3.416 3.375Zm6.629-3.415a.161.161 0 0 0-.16-.16h-1.206a.161.161 0 0 0-.16.16 5.102 5.102 0 1 1-10.206 0 .161.161 0 0 0-.16-.16H4.53a.161.161 0 0 0-.16.16 6.63 6.63 0 0 0 5.825 6.581v2.057H7.277c-.275 0-.496.288-.496.643v.723c0 .089.056.161.124.161h8.189c.068 0 .124-.072.124-.16v-.724c0-.355-.22-.643-.496-.643h-3v-2.047a6.632 6.632 0 0 0 5.907-6.591Z" fill="#531DAB" /></symbol><symbol viewBox="0 0 22 22" fill="none" id="money"><path d="M11 .5C5.202.5.5 5.202.5 11S5.202 21.5 11 21.5 21.5 16.798 21.5 11 16.798.5 11 .5Zm.523 15.59.004.744a.19.19 0 0 1-.187.19h-.666a.188.188 0 0 1-.187-.188V16.1c-2.082-.155-3.061-1.34-3.167-2.63a.188.188 0 0 1 .188-.204H8.59c.091 0 .17.066.185.155.12.743.698 1.299 1.736 1.437v-3.345l-.578-.147c-1.226-.293-2.393-1.057-2.393-2.642 0-1.708 1.298-2.627 2.957-2.789v-.773c0-.103.085-.188.188-.188h.659c.103 0 .187.085.187.188v.766c1.605.162 2.81 1.1 2.95 2.56a.187.187 0 0 1-.187.206h-1.052a.187.187 0 0 1-.185-.162c-.094-.684-.642-1.242-1.535-1.364v3.148l.595.138c1.519.375 2.552 1.101 2.552 2.728 0 1.765-1.312 2.75-3.147 2.909ZM8.998 8.617c0 .596.368 1.057 1.16 1.343.11.045.22.08.352.118V7.17c-.865.11-1.512.596-1.512 1.446Zm2.73 3.17a3.336 3.336 0 0 1-.205-.052v3.133c.998-.089 1.687-.637 1.687-1.556 0-.72-.373-1.188-1.481-1.526Z" fill="#389E0D" /></symbol><symbol viewBox="0 0 16 16" fill="none" id="pinterest"><path fill-rule="evenodd" clip-rule="evenodd" d="M7.9 0C3.52 0 0 3.548 0 7.967c0 3.28 1.926 6.025 4.714 7.297 0-1.494-.01-1.302 1.128-6.16-.625-1.262-.139-3.347 1.262-3.347 1.944 0 .623 2.883.398 4.017-.199.87.465 1.54 1.262 1.54 1.527 0 2.522-1.942 2.522-4.218 0-1.74-1.194-3.012-3.252-3.012-3.66 0-4.588 4.076-3.32 5.355.32.483 0 .506 0 1.138-.221.67-1.992-.303-1.992-2.811 0-2.276 1.86-4.954 5.644-4.954 2.987 0 4.979 2.209 4.979 4.552 0 3.147-1.727 5.423-4.249 5.423-.863 0-1.66-.469-1.926-1.005-.482 1.877-.58 2.828-1.328 3.883.73.201 1.461.335 2.258.335 4.382 0 7.9-3.548 7.9-7.966C15.802 3.548 12.282 0 7.9 0Z" fill="currentColor" /></symbol><symbol viewBox="0 0 25 24" fill="none" id="play"><path d="M12.5 1.5C6.702 1.5 2 6.202 2 12s4.702 10.5 10.5 10.5S23 17.798 23 12 18.298 1.5 12.5 1.5Zm3.377 10.662-5.118 3.724a.188.188 0 0 1-.298-.152V8.29a.188.188 0 0 1 .298-.152l5.118 3.721a.185.185 0 0 1 0 .303Z" fill="#531DAB" /></symbol><symbol viewBox="0 0 24 24" fill="none" id="price_tag"><path d="M12.575 21.4c-.4.4-.875.6-1.425.6s-1.025-.2-1.425-.6l-7.15-7.15A1.92 1.92 0 0 1 2 12.838c0-.559.192-1.03.575-1.413l8.8-8.825c.183-.183.4-.33.65-.438a1.99 1.99 0 0 1 .8-.162h7.15c.55 0 1.02.196 1.412.587.392.392.588.863.588 1.413v7.15c0 .283-.054.55-.163.8-.108.25-.254.467-.437.65l-8.8 8.8Zm4.9-13.4c.417 0 .77-.146 1.063-.438.291-.291.437-.645.437-1.062 0-.417-.146-.77-.438-1.063A1.447 1.447 0 0 0 17.476 5c-.417 0-.77.146-1.063.438a1.446 1.446 0 0 0-.437 1.062c0 .417.146.77.438 1.063.291.291.645.437 1.062.437ZM11.15 20l8.825-8.85V4h-7.15L4 12.85 11.15 20Z" fill="currentColor" /></symbol><symbol viewBox="0 0 25 24" fill="none" id="question"><path d="M12.5 1.5C6.702 1.5 2 6.202 2 12s4.702 10.5 10.5 10.5S23 17.798 23 12 18.298 1.5 12.5 1.5Zm0 19.219A8.72 8.72 0 0 1 3.781 12 8.72 8.72 0 0 1 12.5 3.281 8.72 8.72 0 0 1 21.219 12a8.72 8.72 0 0 1-8.719 8.719Z" fill="currentColor" /><path d="M15.116 7.423c-.704-.617-1.632-.954-2.616-.954-.984 0-1.912.34-2.616.954-.73.64-1.134 1.5-1.134 2.42v.179c0 .103.084.187.188.187h1.124a.188.188 0 0 0 .188-.187v-.178c0-1.034 1.01-1.875 2.25-1.875s2.25.841 2.25 1.875c0 .729-.516 1.397-1.315 1.704a2.62 2.62 0 0 0-1.22.958c-.308.446-.467.98-.467 1.521v.504c0 .103.084.188.187.188h1.125a.188.188 0 0 0 .188-.188V14a1.132 1.132 0 0 1 .724-1.05c1.383-.532 2.276-1.75 2.276-3.105.002-.921-.401-1.781-1.132-2.421Zm-3.553 9.733a.938.938 0 1 0 1.875 0 .938.938 0 0 0-1.876 0Z" fill="currentColor" /></symbol><symbol viewBox="0 0 71.61 68" id="quote"><path d="M40.79 14.93a14.18 14.18 0 0 1 4.45-10.64A15.37 15.37 0 0 1 56.36 0a14 14 0 0 1 10.8 4.93 17.76 17.76 0 0 1 4.45 12.39 34.89 34.89 0 0 1-2.38 11.91 89.48 89.48 0 0 1-6.52 13.19 148.31 148.31 0 0 1-9.21 13.19Q48.25 62.29 43 68l-4.29-3.5a105.43 105.43 0 0 0 11.92-17 45.46 45.46 0 0 0 5.72-16.84 17.49 17.49 0 0 1-11-4.76 14.3 14.3 0 0 1-4.56-10.97Zm-38.88 0A14.18 14.18 0 0 1 6.36 4.29 15.37 15.37 0 0 1 17.48 0a14 14 0 0 1 10.8 4.93 17.76 17.76 0 0 1 4.45 12.39 35.14 35.14 0 0 1-2.38 11.91 89.48 89.48 0 0 1-6.52 13.19 148.31 148.31 0 0 1-9.21 13.19Q9.37 62.29 4.13 68L0 64.5a105.43 105.43 0 0 0 11.92-17 47.11 47.11 0 0 0 5.56-16.84 17.54 17.54 0 0 1-11-4.76 14.33 14.33 0 0 1-4.57-10.97Z" /><path d="M40.79 14.93a14.18 14.18 0 0 1 4.45-10.64A15.37 15.37 0 0 1 56.36 0a14 14 0 0 1 10.8 4.93 17.76 17.76 0 0 1 4.45 12.39 34.89 34.89 0 0 1-2.38 11.91 89.48 89.48 0 0 1-6.52 13.19 148.31 148.31 0 0 1-9.21 13.19Q48.25 62.29 43 68l-4.29-3.5a105.43 105.43 0 0 0 11.92-17 45.46 45.46 0 0 0 5.72-16.84 17.49 17.49 0 0 1-11-4.76 14.3 14.3 0 0 1-4.56-10.97Zm-38.88 0A14.18 14.18 0 0 1 6.36 4.29 15.37 15.37 0 0 1 17.48 0a14 14 0 0 1 10.8 4.93 17.76 17.76 0 0 1 4.45 12.39 35.14 35.14 0 0 1-2.38 11.91 89.48 89.48 0 0 1-6.52 13.19 148.31 148.31 0 0 1-9.21 13.19Q9.37 62.29 4.13 68L0 64.5a105.43 105.43 0 0 0 11.92-17 47.11 47.11 0 0 0 5.56-16.84 17.54 17.54 0 0 1-11-4.76 14.33 14.33 0 0 1-4.57-10.97Z" fill="currentColor" /></symbol><symbol viewBox="0 0 24 24" fill="none" id="read"><path d="M21.75 3.773h-5.363c-1.15 0-2.275.33-3.243.954L12 5.461l-1.144-.734a5.982 5.982 0 0 0-3.244-.954H2.25a.75.75 0 0 0-.75.75v13.313c0 .415.335.75.75.75h5.362c1.151 0 2.276.33 3.244.954l1.04.67c.031.019.066.03.102.03.035 0 .07-.009.1-.03l1.041-.67a6.009 6.009 0 0 1 3.248-.954h5.363a.75.75 0 0 0 .75-.75V4.523a.75.75 0 0 0-.75-.75ZM7.613 16.898H3.187V5.461h4.425c.83 0 1.636.237 2.333.684l1.143.734.162.105v10.829a7.67 7.67 0 0 0-3.638-.915Zm13.2 0h-4.425a7.67 7.67 0 0 0-3.638.915V6.983l.162-.105 1.143-.734a4.302 4.302 0 0 1 2.332-.684h4.425v11.437ZM9.303 8.461H4.947c-.092 0-.167.08-.167.176V9.69c0 .096.075.176.167.176H9.3c.091 0 .166-.08.166-.176V8.637a.169.169 0 0 0-.164-.176Zm5.228.176V9.69c0 .096.075.176.167.176h4.352c.091 0 .166-.08.166-.176V8.637c0-.096-.075-.176-.166-.176h-4.352c-.092 0-.167.08-.167.176Zm-5.229 3.105H4.948c-.092 0-.167.08-.167.176v1.055c0 .096.075.175.167.175H9.3c.091 0 .166-.08.166-.175v-1.055a.169.169 0 0 0-.164-.176Zm9.75 0h-4.354c-.092 0-.167.08-.167.176v1.055c0 .096.075.175.167.175h4.352c.091 0 .166-.08.166-.175v-1.055a.169.169 0 0 0-.164-.176Z" fill="currentColor" /></symbol><symbol viewBox="0 0 24 24" fill="none" id="rocket"><path d="M20.25 17.25a6.56 6.56 0 0 0-3.75-5.927V7.437c0-.354-.124-.696-.354-.966l-3.572-4.235a.749.749 0 0 0-1.148 0L7.854 6.47a1.5 1.5 0 0 0-.354.966v3.886a6.56 6.56 0 0 0-3.75 5.927h3.668a1.81 1.81 0 0 0-.082.558 2.276 2.276 0 0 0 1.512 2.142A3.417 3.417 0 0 0 12 22.031c.682 0 1.343-.201 1.908-.581.553-.37.982-.888 1.242-1.5.396-.14.746-.388 1.01-.715.324-.404.5-.907.502-1.425 0-.197-.026-.384-.073-.558l3.661-.002Zm-8.25-9a1.125 1.125 0 0 1 0 2.25 1.125 1.125 0 0 1 0-2.25Zm2.721 10.13a.632.632 0 0 1-.4.08l-.458-.057-.065.455A1.825 1.825 0 0 1 12 20.416c-.898 0-1.671-.67-1.798-1.558l-.065-.457-.457.058a.66.66 0 0 1-.731-.654c0-.248.138-.454.342-.557h5.42a.619.619 0 0 1 .343.557.665.665 0 0 1-.333.575Z" fill="#13C2C2" /></symbol><symbol viewBox="0 0 18 22" fill="none" id="rocket-2"><path d="M17.25 16.25a6.56 6.56 0 0 0-3.75-5.927V6.437c0-.354-.124-.696-.354-.966L9.574 1.236a.749.749 0 0 0-1.148 0L4.854 5.47a1.5 1.5 0 0 0-.354.966v3.886A6.56 6.56 0 0 0 .75 16.25h3.668a1.81 1.81 0 0 0-.082.558 2.276 2.276 0 0 0 1.512 2.142A3.417 3.417 0 0 0 9 21.031a3.41 3.41 0 0 0 1.908-.581c.553-.37.982-.888 1.242-1.5.396-.14.746-.388 1.01-.715.324-.404.5-.907.502-1.425 0-.197-.026-.384-.073-.558l3.661-.002ZM9 7.25A1.125 1.125 0 0 1 9 9.5a1.125 1.125 0 0 1 0-2.25Zm2.721 10.13a.632.632 0 0 1-.4.08l-.458-.057-.065.455A1.825 1.825 0 0 1 9 19.416c-.898 0-1.671-.67-1.798-1.558l-.065-.457-.457.058a.66.66 0 0 1-.731-.654c0-.248.138-.454.342-.557h5.42a.619.619 0 0 1 .343.557.665.665 0 0 1-.333.575Z" fill="#D46B08" /></symbol><symbol viewBox="0 0 18 22" fill="none" id="rocket-3"><path d="M17.25 16.25a6.56 6.56 0 0 0-3.75-5.927V6.437c0-.354-.124-.696-.354-.966L9.574 1.236a.749.749 0 0 0-1.148 0L4.854 5.47a1.5 1.5 0 0 0-.354.966v3.886A6.56 6.56 0 0 0 .75 16.25h3.668a1.81 1.81 0 0 0-.082.558 2.276 2.276 0 0 0 1.512 2.142A3.417 3.417 0 0 0 9 21.031a3.41 3.41 0 0 0 1.908-.581c.553-.37.982-.888 1.242-1.5.396-.14.746-.388 1.01-.715.324-.404.5-.907.502-1.425 0-.197-.026-.384-.073-.558l3.661-.002ZM9 7.25A1.125 1.125 0 0 1 9 9.5a1.125 1.125 0 0 1 0-2.25Zm2.721 10.13a.632.632 0 0 1-.4.08l-.458-.057-.065.455A1.825 1.825 0 0 1 9 19.416c-.898 0-1.671-.67-1.798-1.558l-.065-.457-.457.058a.66.66 0 0 1-.731-.654c0-.248.138-.454.342-.557h5.42a.619.619 0 0 1 .343.557.665.665 0 0 1-.333.575Z" fill="#722ED1" /></symbol><symbol viewBox="0 0 25 24" fill="none" id="scan"><path d="m20.818 3.982-7.964-2.714a1.153 1.153 0 0 0-.354-.05c-.129 0-.258.017-.354.05L4.182 3.982a.562.562 0 0 0-.354.497v11.306c0 .206.134.478.295.607l8.08 6.296a.485.485 0 0 0 .295.096.48.48 0 0 0 .295-.096l8.079-6.296a.872.872 0 0 0 .295-.607V4.48a.552.552 0 0 0-.349-.497Zm-1.334 11.353L12.5 20.777l-6.984-5.442V5.313L12.5 2.932l6.984 2.381v10.022Zm-9.541-2.941L8.127 14.21a.188.188 0 0 0 0 .265l.796.797a.188.188 0 0 0 .265 0l1.817-1.816a3.377 3.377 0 1 0-1.062-1.062Zm1.533-3.124a1.874 1.874 0 0 1 2.653 0 1.874 1.874 0 0 1 0 2.653 1.876 1.876 0 0 1-2.653-2.653Z" fill="currentColor" /></symbol><symbol viewBox="0 0 16 16" fill="none" id="search"><path d="m14.213 13.352-4.058-4.058c.63-.814.97-1.81.97-2.857a4.66 4.66 0 0 0-1.373-3.314A4.653 4.653 0 0 0 6.437 1.75a4.66 4.66 0 0 0-3.314 1.373A4.65 4.65 0 0 0 1.75 6.437c0 1.252.49 2.43 1.373 3.315a4.65 4.65 0 0 0 3.314 1.373c1.047 0 2.041-.34 2.855-.969l4.058 4.056a.129.129 0 0 0 .181 0l.681-.68a.129.129 0 0 0 0-.18Zm-5.3-4.44a3.481 3.481 0 0 1-2.476 1.025 3.481 3.481 0 0 1-2.475-1.024 3.481 3.481 0 0 1-1.025-2.476c0-.934.365-1.814 1.026-2.475a3.481 3.481 0 0 1 2.474-1.025c.935 0 1.815.363 2.475 1.026a3.481 3.481 0 0 1 1.025 2.474c0 .935-.364 1.815-1.024 2.475Z" fill="currentColor" /></symbol><symbol viewBox="0 0 24 24" fill="none" id="security-scan"><path d="m20.318 3.982-7.964-2.714a1.153 1.153 0 0 0-.354-.05c-.129 0-.258.017-.354.05L3.682 3.982a.562.562 0 0 0-.354.497v11.306c0 .206.134.478.295.607l8.08 6.296a.485.485 0 0 0 .295.096.48.48 0 0 0 .295-.096l8.079-6.296a.872.872 0 0 0 .295-.607V4.48a.552.552 0 0 0-.349-.497Zm-5.627 9.002a3.377 3.377 0 0 1-4.186.472l-1.817 1.816a.188.188 0 0 1-.265 0l-.796-.797a.188.188 0 0 1 0-.265l1.816-1.816a3.377 3.377 0 0 1 5.248-4.186 3.377 3.377 0 0 1 0 4.776Zm-3.716-1.06a1.88 1.88 0 0 0 3.074-.603 1.878 1.878 0 0 0-.42-2.053 1.877 1.877 0 1 0-2.654 2.655Z" fill="#0958D9" /></symbol><symbol viewBox="0 0 24 24" fill="none" id="select"><path d="M20.28 3H3.72a.72.72 0 0 0-.72.72v16.56c0 .398.322.72.72.72h8.1a.18.18 0 0 0 .18-.18v-1.26a.18.18 0 0 0-.18-.18h-7.2V4.62h14.76v7.2c0 .099.081.18.18.18h1.26a.18.18 0 0 0 .18-.18v-8.1a.72.72 0 0 0-.72-.72Zm-5.1 10.966 1.174-1.174a.181.181 0 0 0 .042-.186.18.18 0 0 0-.148-.12l-4.037-.473a.18.18 0 0 0-.2.2l.473 4.037a.18.18 0 0 0 .306.106l1.179-1.179 5.764 5.765c.07.07.185.07.255 0l.954-.954a.18.18 0 0 0 0-.255l-5.763-5.767Z" fill="currentColor" /></symbol><symbol viewBox="0 0 20 22" fill="none" id="setting"><path d="M10.011 8.154a2.6 2.6 0 0 0-1.854.768 2.61 2.61 0 0 0-.769 1.854c0 .701.275 1.357.77 1.854a2.61 2.61 0 0 0 1.853.769c.7 0 1.357-.274 1.854-.769a2.61 2.61 0 0 0 .769-1.854c0-.7-.274-1.357-.769-1.854a2.6 2.6 0 0 0-1.854-.768Zm9.663 5.519-1.532-1.31a8.428 8.428 0 0 0 0-2.705l1.532-1.31a.75.75 0 0 0 .218-.825l-.02-.06a10.372 10.372 0 0 0-1.866-3.228l-.043-.05a.753.753 0 0 0-.822-.222l-1.903.677a8.184 8.184 0 0 0-2.335-1.347l-.368-1.99A.75.75 0 0 0 11.931.7L11.867.69a10.562 10.562 0 0 0-3.722 0L8.082.7a.751.751 0 0 0-.604.603l-.37 1.999a8.284 8.284 0 0 0-2.319 1.343l-1.917-.682a.75.75 0 0 0-.823.223l-.042.049A10.451 10.451 0 0 0 .142 7.462l-.022.061a.753.753 0 0 0 .218.825L1.89 9.672a8.239 8.239 0 0 0 0 2.672L.343 13.668a.75.75 0 0 0-.218.825l.021.061a10.398 10.398 0 0 0 1.866 3.228l.042.049a.752.752 0 0 0 .823.223l1.917-.682a8.118 8.118 0 0 0 2.318 1.343l.37 1.999a.751.751 0 0 0 .605.602l.063.012c1.23.221 2.491.221 3.722 0l.063-.012a.751.751 0 0 0 .605-.602l.368-1.99a8.241 8.241 0 0 0 2.334-1.348l1.903.677a.75.75 0 0 0 .823-.222l.042-.05a10.45 10.45 0 0 0 1.866-3.227l.021-.06a.757.757 0 0 0-.223-.821Zm-9.663 1.223a4.12 4.12 0 1 1 0-8.24 4.12 4.12 0 0 1 0 8.24Z" fill="#722ED1" /></symbol><symbol viewBox="0 0 18 20" fill="none" id="sharred"><path d="M14.625 13.563a2.8 2.8 0 0 0-1.767.625l-4.856-3.513a3.766 3.766 0 0 0 0-1.35l4.856-3.513a2.8 2.8 0 0 0 1.767.625 2.815 2.815 0 0 0 2.813-2.812A2.815 2.815 0 0 0 14.624.812a2.815 2.815 0 0 0-2.702 3.593L7.31 7.745A3.749 3.749 0 0 0 .562 10a3.749 3.749 0 0 0 6.748 2.255l4.613 3.34a2.815 2.815 0 0 0 2.702 3.593 2.815 2.815 0 0 0 2.813-2.813 2.815 2.815 0 0 0-2.813-2.813Z" fill="#EB2F96" /></symbol><symbol viewBox="0 0 22 22" fill="none" id="smile"><path d="M11 .5C5.202.5.5 5.202.5 11S5.202 21.5 11 21.5 21.5 16.798 21.5 11 16.798.5 11 .5ZM5.75 8.867a1.125 1.125 0 0 1 2.25 0 1.125 1.125 0 0 1-2.25 0ZM11 15.242a3.759 3.759 0 0 1-3.75-3.553.188.188 0 0 1 .188-.197h1.127a.19.19 0 0 1 .19.174 2.252 2.252 0 0 0 4.49 0 .19.19 0 0 1 .19-.174h1.127a.188.188 0 0 1 .188.197A3.759 3.759 0 0 1 11 15.242Zm4.125-5.25a1.125 1.125 0 0 1 0-2.25 1.125 1.125 0 0 1 0 2.25Z" fill="#FAAD14" /></symbol><symbol viewBox="0 0 21 21" fill="none" id="smile-2"><path d="M10.5 21C16.3 21 21 16.3 21 10.5S16.3 0 10.5 0 0 4.7 0 10.5 4.7 21 10.5 21Zm-3.454-7.403a4.617 4.617 0 0 0 3.454 1.497c1.64 0 2.79-.771 3.454-1.497a.655.655 0 1 1 .963.89 5.938 5.938 0 0 1-4.417 1.92 5.956 5.956 0 0 1-4.421-1.92.655.655 0 1 1 .963-.89h.004ZM8.662 9.58a1.803 1.803 0 0 0-2.887 0 .655.655 0 1 1-1.05-.787 3.119 3.119 0 0 1 4.988 0 .655.655 0 1 1-1.05.788Zm3.675 0a.655.655 0 1 1-1.05-.787 3.119 3.119 0 0 1 4.988 0 .655.655 0 1 1-1.05.788 1.803 1.803 0 0 0-2.887 0Z" fill="#1677FF" /></symbol><symbol viewBox="0 0 22 22" fill="none" id="smile-3"><path d="M11 .5C5.202.5.5 5.202.5 11S5.202 21.5 11 21.5 21.5 16.798 21.5 11 16.798.5 11 .5ZM5.75 8.867a1.125 1.125 0 0 1 2.25 0 1.125 1.125 0 0 1-2.25 0ZM11 15.242a3.759 3.759 0 0 1-3.75-3.553.188.188 0 0 1 .188-.197h1.127a.19.19 0 0 1 .19.174 2.252 2.252 0 0 0 4.49 0 .19.19 0 0 1 .19-.174h1.127a.188.188 0 0 1 .188.197A3.759 3.759 0 0 1 11 15.242Zm4.125-5.25a1.125 1.125 0 0 1 0-2.25 1.125 1.125 0 0 1 0 2.25Z" fill="#FA8C16" /></symbol><symbol viewBox="0 0 25 24" fill="none" id="star"><path d="m23.536 8.198-7.291-1.063-3.26-6.623a.922.922 0 0 0-1.648 0l-3.26 6.623-7.29 1.063A.916.916 0 0 0 0 9.12a.924.924 0 0 0 .278.648l5.275 5.155-1.246 7.28a.921.921 0 0 0 .839 1.074.915.915 0 0 0 .494-.104l6.521-3.437 6.522 3.437a.92.92 0 0 0 1.332-.97l-1.246-7.28 5.276-5.155a.92.92 0 0 0 .267-.527.917.917 0 0 0-.776-1.044Z" fill="currentColor" /></symbol><symbol viewBox="0 0 25 24" fill="none" id="star_2"><path d="m21.784 8.275-5.951-.865-2.66-5.393a.753.753 0 0 0-1.345 0L9.167 7.41l-5.952.865a.749.749 0 0 0-.414 1.28l4.305 4.197-1.017 5.927a.749.749 0 0 0 1.087.79l5.323-2.798 5.323 2.798a.749.749 0 0 0 1.087-.79l-1.017-5.927 4.305-4.198a.748.748 0 0 0 .218-.429.747.747 0 0 0-.632-.85Z" fill="#FAAD14" /></symbol><symbol viewBox="0 0 24 24" fill="none" id="subnode"><path d="M16.125 5.625a6.376 6.376 0 0 0-6.319 5.531h-3.97a2.25 2.25 0 1 0 0 1.688h3.968a6.376 6.376 0 1 0 6.321-7.219Zm3 6.984a.188.188 0 0 1-.188.188h-2.015v2.015a.188.188 0 0 1-.188.188h-1.218a.188.188 0 0 1-.188-.188v-2.015h-2.015a.188.188 0 0 1-.188-.188v-1.218c0-.104.084-.188.188-.188h2.015V9.188c0-.104.085-.188.188-.188h1.218c.103 0 .188.084.188.188v2.015h2.015c.104 0 .188.085.188.188v1.218Z" fill="#389E0D" /></symbol><symbol viewBox="0 0 24 24" fill="none" id="sync"><path d="M3.937 11.817A8.045 8.045 0 0 1 6.295 6.3a8.021 8.021 0 0 1 5.702-2.362A8.004 8.004 0 0 1 17.695 6.3c.231.232.45.478.651.736l-1.411 1.101a.187.187 0 0 0 .07.331l4.118 1.008a.188.188 0 0 0 .232-.18l.02-4.24a.186.186 0 0 0-.303-.148L19.75 5.94a9.817 9.817 0 0 0-7.756-3.785c-5.37 0-9.738 4.303-9.839 9.652a.188.188 0 0 0 .188.192h1.406a.187.187 0 0 0 .188-.183ZM21.655 12H20.25a.187.187 0 0 0-.187.183 8.008 8.008 0 0 1-.63 2.953 8.02 8.02 0 0 1-1.728 2.564A8.028 8.028 0 0 1 12 20.063a8.022 8.022 0 0 1-5.7-2.363 8.075 8.075 0 0 1-.651-.736l1.41-1.101a.187.187 0 0 0-.07-.331l-4.117-1.008a.188.188 0 0 0-.233.18l-.016 4.243c0 .157.18.246.302.148l1.322-1.034a9.822 9.822 0 0 0 7.756 3.783c5.372 0 9.738-4.306 9.839-9.652a.185.185 0 0 0-.053-.135.188.188 0 0 0-.135-.057Z" fill="currentColor" /></symbol><symbol viewBox="0 0 20 20" fill="none" id="thumb-up"><path d="M18.763 10.509c.394-.52.612-1.158.612-1.821 0-1.052-.588-2.049-1.535-2.604a1.586 1.586 0 0 0-.804-.218h-5.62l.14-2.88a2.509 2.509 0 0 0-.691-1.861A2.499 2.499 0 0 0 9.039.342c-1.219 0-2.297.82-2.62 1.994l-2.014 7.29h-.007v10.03h11.07c.216 0 .427-.041.621-.126a3.014 3.014 0 0 0 1.709-3.642 3.016 3.016 0 0 0 .485-2.688c.394-.52.611-1.158.611-1.821a3.201 3.201 0 0 0-.13-.87ZM.625 10.375v8.532c0 .415.335.75.75.75h1.523V9.625H1.375a.75.75 0 0 0-.75.75Z" fill="#722ED1" /></symbol><symbol viewBox="0 0 24 24" fill="none" id="thunderbolt"><path d="M19.875 8.421H14.71l4.643-5.866a.188.188 0 0 0-.148-.305h-8.988a.186.186 0 0 0-.162.094L3.984 12.832a.187.187 0 0 0 .162.281h4.087l-2.095 8.381c-.045.183.176.312.311.181L20.003 8.742a.186.186 0 0 0-.128-.32Z" fill="#FAAD14" /></symbol><symbol viewBox="0 0 16 16" fill="none" id="tiktok"><path d="M12.982 4.008c-.101-.052-.2-.11-.295-.172a4.15 4.15 0 0 1-.759-.644 3.577 3.577 0 0 1-.855-1.764h.003c-.065-.381-.038-.628-.034-.628H8.466v9.962c0 .134 0 .266-.005.396 0 .017-.002.032-.003.05l-.001.021v.006a2.187 2.187 0 0 1-1.101 1.736 2.15 2.15 0 0 1-1.066.281 2.18 2.18 0 0 1-2.173-2.187A2.18 2.18 0 0 1 6.29 8.878c.227 0 .453.035.669.105l.003-2.623a4.786 4.786 0 0 0-3.687 1.08A5.056 5.056 0 0 0 2.172 8.8c-.11.187-.52.94-.57 2.163-.03.694.178 1.413.277 1.71v.007c.063.175.305.772.7 1.275.318.404.694.759 1.116 1.053v-.006l.006.006c1.247.848 2.63.792 2.63.792.24-.01 1.041 0 1.952-.432a4.9 4.9 0 0 0 1.585-1.19c.367-.427.66-.912.864-1.436a5.378 5.378 0 0 0 .31-1.642V5.815l.448.294s.6.385 1.535.635c.671.178 1.576.216 1.576.216V4.402c-.317.035-.96-.065-1.62-.394Z" fill="currentColor" /></symbol><symbol viewBox="0 0 10.32 9.16" id="time"><path d="M10.23 3.41h-3a.09.09 0 0 0-.09.09v.57a.09.09 0 0 0 .09.09h3a.09.09 0 0 0 .09-.09V3.5a.09.09 0 0 0-.09-.09ZM8.66 5H7.23a.1.1 0 0 0-.09.1v.56a.09.09 0 0 0 .09.09h1.43a.09.09 0 0 0 .09-.09V5.1a.1.1 0 0 0-.09-.1ZM4.75 2.36h-.51a.13.13 0 0 0-.13.13V5.4a.12.12 0 0 0 0 .1l1.8 1.28a.13.13 0 0 0 .18 0l.3-.41a.13.13 0 0 0 0-.19l-1.51-1.1V2.49a.13.13 0 0 0-.13-.13Z" fill="currentColor" /><path d="M8.59 6.48h-.68a.17.17 0 0 0-.16.09 4 4 0 0 1-.52.65A4 4 0 0 1 6 8a3.61 3.61 0 0 1-1.45.29A3.63 3.63 0 0 1 3.13 8 3.79 3.79 0 0 1 2 7.22 3.59 3.59 0 0 1 1.14 6a3.77 3.77 0 0 1 0-2.9A3.59 3.59 0 0 1 2 1.94a3.75 3.75 0 0 1 4-.8 4 4 0 0 1 1.19.8 4 4 0 0 1 .52.65.17.17 0 0 0 .16.09h.68a.1.1 0 0 0 .09-.15 4.58 4.58 0 1 0 0 4.1.1.1 0 0 0-.05-.15Z" fill="currentColor" /></symbol><symbol viewBox="0 0 25 24" fill="none" id="user"><path d="M20.62 17.897a8.764 8.764 0 0 0-1.889-2.8 8.804 8.804 0 0 0-2.8-1.89c-.01-.005-.02-.007-.029-.012A5.812 5.812 0 0 0 12.5 2.672a5.812 5.812 0 0 0-3.403 10.526l-.028.011a8.727 8.727 0 0 0-2.8 1.89 8.804 8.804 0 0 0-1.89 2.8 8.712 8.712 0 0 0-.691 3.237.187.187 0 0 0 .187.192H5.28a.187.187 0 0 0 .188-.183 6.988 6.988 0 0 1 2.058-4.788 6.985 6.985 0 0 1 4.973-2.06c1.88 0 3.645.731 4.973 2.06a6.987 6.987 0 0 1 2.058 4.788.186.186 0 0 0 .188.183h1.406a.188.188 0 0 0 .188-.192 8.736 8.736 0 0 0-.692-3.24Zm-8.12-5.381a4.005 4.005 0 0 1-2.85-1.182 4.005 4.005 0 0 1-1.182-2.85c0-1.075.42-2.088 1.181-2.85a4.005 4.005 0 0 1 2.85-1.18c1.076 0 2.088.419 2.85 1.18a4.005 4.005 0 0 1 1.181 2.85c0 1.076-.42 2.089-1.18 2.85a4.005 4.005 0 0 1-2.85 1.182Z" fill="currentColor" /></symbol><symbol viewBox="0 0 20 20" fill="none" id="users"><path d="M18.906 16.094H17.03v-1.875a.188.188 0 0 0-.188-.188h-1.125a.188.188 0 0 0-.187.188v1.875h-1.875a.188.188 0 0 0-.188.187v1.125c0 .103.085.188.188.188h1.875v1.875c0 .103.084.187.187.187h1.125a.188.188 0 0 0 .188-.187v-1.875h1.875a.188.188 0 0 0 .187-.188v-1.125a.188.188 0 0 0-.187-.187ZM6.754 9.68a5.966 5.966 0 0 1 .068-1.709.189.189 0 0 0-.106-.206 2.962 2.962 0 0 1-.865-.588 2.99 2.99 0 0 1-.907-2.236 2.985 2.985 0 0 1 .851-2.006 2.984 2.984 0 0 1 2.184-.907 2.996 2.996 0 0 1 2.494 1.378.187.187 0 0 0 .218.075 5.814 5.814 0 0 1 1.296-.29.188.188 0 0 0 .148-.272A4.696 4.696 0 0 0 8.017.344C5.42.304 3.254 2.434 3.254 5.03c0 1.472.678 2.785 1.74 3.645a7.046 7.046 0 0 0-2.028 1.415 6.97 6.97 0 0 0-2.058 4.782.188.188 0 0 0 .188.192H2.41c.1 0 .185-.08.187-.18a5.297 5.297 0 0 1 1.563-3.598 5.291 5.291 0 0 1 2.454-1.4.192.192 0 0 0 .139-.206Zm10.558-.618a4.69 4.69 0 0 0-4.615-4.688c-2.597-.04-4.76 2.09-4.76 4.688 0 1.471.68 2.784 1.74 3.644a7.053 7.053 0 0 0-2.026 1.416 6.97 6.97 0 0 0-2.058 4.779.188.188 0 0 0 .188.192h1.312c.101 0 .186-.08.188-.18a5.297 5.297 0 0 1 1.563-3.598 5.307 5.307 0 0 1 3.78-1.566 4.688 4.688 0 0 0 4.688-4.687Zm-2.566 2.12a2.979 2.979 0 0 1-2.121.88 2.979 2.979 0 0 1-2.121-.88 2.982 2.982 0 0 1-.88-2.15 3.004 3.004 0 0 1 2.97-2.97 3.017 3.017 0 0 1 2.133.857c.581.57.9 1.332.9 2.143a2.99 2.99 0 0 1-.881 2.12Z" fill="#C41D7F" /></symbol><symbol viewBox="0 0 16 16" fill="none" id="x"><path d="m9.11 7.108 4.338-4.934h-1.027L8.652 6.458 5.645 2.174h-3.47l4.549 6.478-4.55 5.174h1.028L7.18 9.3l3.177 4.525h3.47M3.573 2.933h1.58l7.267 10.172h-1.58" fill="currentColor" /></symbol><symbol viewBox="0 0 16 16" fill="none" id="youtube"><path d="M13.616 2.806s-1.791-.226-5.638-.226c-3.721 0-5.594.226-5.594.226A1.803 1.803 0 0 0 .58 4.612v6.777a1.808 1.808 0 0 0 1.804 1.807s1.741.224 5.594.224c3.851 0 5.638-.224 5.638-.224a1.8 1.8 0 0 0 1.804-1.807V4.61a1.807 1.807 0 0 0-1.804-1.805Zm-7.598 7.878V5.318L10.83 8l-4.812 2.684Z" fill="currentColor" /></symbol><symbol viewBox="0 0 25 24" fill="none" id="youtube_2"><path d="M22.562 6.94a2.631 2.631 0 0 0-1.857-1.859c-1.638-.44-8.205-.44-8.205-.44s-6.567 0-8.205.438a2.628 2.628 0 0 0-1.857 1.859C2 8.578 2 12 2 12s0 3.422.438 5.06a2.632 2.632 0 0 0 1.857 1.859c1.638.44 8.205.44 8.205.44s6.567 0 8.206-.44a2.628 2.628 0 0 0 1.856-1.859C23 15.422 23 12 23 12s0-3.422-.438-5.06Zm-12.148 8.2V8.86l5.438 3.117-5.438 3.164Z" fill="#F5222D" /></symbol></defs><use id="amazon-usage" xlink:href="#amazon" class="sprite-symbol-usage" /><use id="appstore-usage" xlink:href="#appstore" class="sprite-symbol-usage" /><use id="appstore-2-usage" xlink:href="#appstore-2" class="sprite-symbol-usage" /><use id="arrow-usage" xlink:href="#arrow" class="sprite-symbol-usage" /><use id="arrow_2-usage" xlink:href="#arrow_2" class="sprite-symbol-usage" /><use id="arrow_right-usage" xlink:href="#arrow_right" class="sprite-symbol-usage" /><use id="bag-usage" xlink:href="#bag" class="sprite-symbol-usage" /><use id="bag-2-usage" xlink:href="#bag-2" class="sprite-symbol-usage" /><use id="banner_close-usage" xlink:href="#banner_close" class="sprite-symbol-usage" /><use id="bell-usage" xlink:href="#bell" class="sprite-symbol-usage" /><use id="bell-2-usage" xlink:href="#bell-2" class="sprite-symbol-usage" /><use id="book-usage" xlink:href="#book" class="sprite-symbol-usage" /><use id="book_2-usage" xlink:href="#book_2" class="sprite-symbol-usage" /><use id="build-usage" xlink:href="#build" class="sprite-symbol-usage" /><use id="bulb-usage" xlink:href="#bulb" class="sprite-symbol-usage" /><use id="camera-usage" xlink:href="#camera" class="sprite-symbol-usage" /><use id="caret-usage" xlink:href="#caret" class="sprite-symbol-usage" /><use id="cart-usage" xlink:href="#cart" class="sprite-symbol-usage" /><use id="case-usage" xlink:href="#case" class="sprite-symbol-usage" /><use id="chevron-usage" xlink:href="#chevron" class="sprite-symbol-usage" /><use id="chevron_2-usage" xlink:href="#chevron_2" class="sprite-symbol-usage" /><use id="clock-usage" xlink:href="#clock" class="sprite-symbol-usage" /><use id="clock-colored-usage" xlink:href="#clock-colored" class="sprite-symbol-usage" /><use id="clock-colored-2-usage" xlink:href="#clock-colored-2" class="sprite-symbol-usage" /><use id="clock-colored-3-usage" xlink:href="#clock-colored-3" class="sprite-symbol-usage" /><use id="close-usage" xlink:href="#close" class="sprite-symbol-usage" /><use id="community-usage" xlink:href="#community" class="sprite-symbol-usage" /><use id="compass-usage" xlink:href="#compass" class="sprite-symbol-usage" /><use id="compass-2-usage" xlink:href="#compass-2" class="sprite-symbol-usage" /><use id="contacts-usage" xlink:href="#contacts" class="sprite-symbol-usage" /><use id="control-usage" xlink:href="#control" class="sprite-symbol-usage" /><use id="credit-card-usage" xlink:href="#credit-card" class="sprite-symbol-usage" /><use id="crown-usage" xlink:href="#crown" class="sprite-symbol-usage" /><use id="currency-usage" xlink:href="#currency" class="sprite-symbol-usage" /><use id="dashboard-usage" xlink:href="#dashboard" class="sprite-symbol-usage" /><use id="dashboard_2-usage" xlink:href="#dashboard_2" class="sprite-symbol-usage" /><use id="discord-usage" xlink:href="#discord" class="sprite-symbol-usage" /><use id="discord_2-usage" xlink:href="#discord_2" class="sprite-symbol-usage" /><use id="dollar-usage" xlink:href="#dollar" class="sprite-symbol-usage" /><use id="dollar_2-usage" xlink:href="#dollar_2" class="sprite-symbol-usage" /><use id="download-usage" xlink:href="#download" class="sprite-symbol-usage" /><use id="edit-usage" xlink:href="#edit" class="sprite-symbol-usage" /><use id="external-usage" xlink:href="#external" class="sprite-symbol-usage" /><use id="facebook-usage" xlink:href="#facebook" class="sprite-symbol-usage" /><use id="facebook_2-usage" xlink:href="#facebook_2" class="sprite-symbol-usage" /><use id="filter-usage" xlink:href="#filter" class="sprite-symbol-usage" /><use id="finance-usage" xlink:href="#finance" class="sprite-symbol-usage" /><use id="fire-usage" xlink:href="#fire" class="sprite-symbol-usage" /><use id="fire-fill-usage" xlink:href="#fire-fill" class="sprite-symbol-usage" /><use id="flag-usage" xlink:href="#flag" class="sprite-symbol-usage" /><use id="folder-usage" xlink:href="#folder" class="sprite-symbol-usage" /><use id="fund-view-usage" xlink:href="#fund-view" class="sprite-symbol-usage" /><use id="funnel-usage" xlink:href="#funnel" class="sprite-symbol-usage" /><use id="guidance-usage" xlink:href="#guidance" class="sprite-symbol-usage" /><use id="guidance-2-usage" xlink:href="#guidance-2" class="sprite-symbol-usage" /><use id="heart-usage" xlink:href="#heart" class="sprite-symbol-usage" /><use id="hot-usage" xlink:href="#hot" class="sprite-symbol-usage" /><use id="id_card-usage" xlink:href="#id_card" class="sprite-symbol-usage" /><use id="import-usage" xlink:href="#import" class="sprite-symbol-usage" /><use id="inbox-usage" xlink:href="#inbox" class="sprite-symbol-usage" /><use id="info-usage" xlink:href="#info" class="sprite-symbol-usage" /><use id="instagram-usage" xlink:href="#instagram" class="sprite-symbol-usage" /><use id="instant-usage" xlink:href="#instant" class="sprite-symbol-usage" /><use id="link-usage" xlink:href="#link" class="sprite-symbol-usage" /><use id="linkedin-usage" xlink:href="#linkedin" class="sprite-symbol-usage" /><use id="linkedin_2-usage" xlink:href="#linkedin_2" class="sprite-symbol-usage" /><use id="linkedin_3-usage" xlink:href="#linkedin_3" class="sprite-symbol-usage" /><use id="lock-usage" xlink:href="#lock" class="sprite-symbol-usage" /><use id="micro-usage" xlink:href="#micro" class="sprite-symbol-usage" /><use id="money-usage" xlink:href="#money" class="sprite-symbol-usage" /><use id="pinterest-usage" xlink:href="#pinterest" class="sprite-symbol-usage" /><use id="play-usage" xlink:href="#play" class="sprite-symbol-usage" /><use id="price_tag-usage" xlink:href="#price_tag" class="sprite-symbol-usage" /><use id="question-usage" xlink:href="#question" class="sprite-symbol-usage" /><use id="quote-usage" xlink:href="#quote" class="sprite-symbol-usage" /><use id="read-usage" xlink:href="#read" class="sprite-symbol-usage" /><use id="rocket-usage" xlink:href="#rocket" class="sprite-symbol-usage" /><use id="rocket-2-usage" xlink:href="#rocket-2" class="sprite-symbol-usage" /><use id="rocket-3-usage" xlink:href="#rocket-3" class="sprite-symbol-usage" /><use id="scan-usage" xlink:href="#scan" class="sprite-symbol-usage" /><use id="search-usage" xlink:href="#search" class="sprite-symbol-usage" /><use id="security-scan-usage" xlink:href="#security-scan" class="sprite-symbol-usage" /><use id="select-usage" xlink:href="#select" class="sprite-symbol-usage" /><use id="setting-usage" xlink:href="#setting" class="sprite-symbol-usage" /><use id="sharred-usage" xlink:href="#sharred" class="sprite-symbol-usage" /><use id="smile-usage" xlink:href="#smile" class="sprite-symbol-usage" /><use id="smile-2-usage" xlink:href="#smile-2" class="sprite-symbol-usage" /><use id="smile-3-usage" xlink:href="#smile-3" class="sprite-symbol-usage" /><use id="star-usage" xlink:href="#star" class="sprite-symbol-usage" /><use id="star_2-usage" xlink:href="#star_2" class="sprite-symbol-usage" /><use id="subnode-usage" xlink:href="#subnode" class="sprite-symbol-usage" /><use id="sync-usage" xlink:href="#sync" class="sprite-symbol-usage" /><use id="thumb-up-usage" xlink:href="#thumb-up" class="sprite-symbol-usage" /><use id="thunderbolt-usage" xlink:href="#thunderbolt" class="sprite-symbol-usage" /><use id="tiktok-usage" xlink:href="#tiktok" class="sprite-symbol-usage" /><use id="time-usage" xlink:href="#time" class="sprite-symbol-usage" /><use id="user-usage" xlink:href="#user" class="sprite-symbol-usage" /><use id="users-usage" xlink:href="#users" class="sprite-symbol-usage" /><use id="x-usage" xlink:href="#x" class="sprite-symbol-usage" /><use id="youtube-usage" xlink:href="#youtube" class="sprite-symbol-usage" /><use id="youtube_2-usage" xlink:href="#youtube_2" class="sprite-symbol-usage" /></svg>