<svg width="72" height="72" viewBox="0 0 72 72" fill="none" xmlns="http://www.w3.org/2000/svg">
<g clip-path="url(#clip0_20258_7883)">
<g clip-path="url(#clip1_20258_7883)">
<path d="M0 34.6856C0.0635156 33.8266 0.114425 32.9667 0.192971 32.1096C0.548367 28.2423 1.53746 24.5392 3.12729 20.9986C4.92125 17.0042 7.37023 13.4544 10.4815 10.3747C15.5676 5.34106 21.6215 2.08448 28.6426 0.692752C34.823 -0.532221 40.9186 -0.127937 46.9017 1.86828C46.9957 1.89979 47.0883 1.93566 47.2023 1.97686C45.2129 7.71441 43.2284 13.4374 41.2386 19.175C35.6376 17.4633 30.3503 18.0581 25.558 21.4722C20.7681 24.8844 18.4287 29.6597 18.2406 35.5533C18.1121 35.5533 17.9817 35.5533 17.8508 35.5533C11.9341 35.5529 6.01701 35.5524 0.100364 35.5519C0.0669095 35.5519 0.0334548 35.5567 0.000484852 35.5596C0.000484852 35.2683 0.000484852 34.977 0.000484852 34.6856H0Z" fill="#050416"/>
<path d="M27.2448 50.1385C27.6506 50.3673 28.0346 50.5932 28.4269 50.8041C30.2378 51.7775 32.1627 52.3926 34.202 52.6704C37.5741 53.1295 40.8032 52.6496 43.8791 51.2069C47.2367 49.632 49.8244 47.2101 51.6503 43.9831C52.8222 41.9118 53.5306 39.6887 53.758 37.3163C53.8036 36.8379 53.853 36.3589 53.8695 35.8795C53.8753 35.7486 53.8957 35.5601 53.8957 35.5601C53.8957 35.5601 54.3291 35.5601 54.3849 35.5601C60.0887 35.5601 65.7925 35.5601 71.4963 35.5601C71.7368 35.5601 72.0005 35.5596 72.0005 35.5596C72.0005 35.5596 71.9947 35.7986 71.9918 36.0545C71.9331 41.1745 70.8063 46.0511 68.6051 50.6713C65.4502 57.2925 60.6918 62.4571 54.3762 66.1776C50.8935 68.2291 47.1509 69.6009 43.179 70.3644C40.4168 70.8957 37.6289 71.0789 34.8298 70.9437C30.072 70.7144 25.5255 69.5825 21.238 67.4903C20.0525 66.912 18.9223 66.2212 17.7606 65.593C17.4726 65.4369 17.4203 65.2992 17.6142 65.0016C19.8872 61.5109 22.1471 58.0114 24.4089 54.5134C25.2846 53.1595 26.1563 51.8032 27.031 50.4483C27.0965 50.3465 27.1687 50.2495 27.2458 50.139L27.2448 50.1385Z" fill="#4531FA"/>
</g>
</g>
<defs>
<clipPath id="clip0_20258_7883">
<rect width="72" height="72" fill="white"/>
</clipPath>
<clipPath id="clip1_20258_7883">
<rect width="72" height="72" fill="white"/>
</clipPath>
</defs>
</svg>
