<svg width="40" height="40" viewBox="0 0 40 40" fill="none" xmlns="http://www.w3.org/2000/svg">
<g clip-path="url(#clip0_20261_23570)">
<g clip-path="url(#clip1_20261_23570)">
<path d="M0 19.2698C0.0352864 18.7926 0.0635695 18.3148 0.107206 17.8387C0.304649 15.6902 0.854147 13.6329 1.73739 11.6659C2.73403 9.4468 4.09457 7.47466 5.82307 5.76374C8.64868 2.96725 12.0119 1.15804 15.9126 0.384862C19.3461 -0.295678 22.7325 -0.0710758 26.0565 1.03793C26.1087 1.05544 26.1602 1.07537 26.2235 1.09826C25.1183 4.28578 24.0158 7.46523 22.9103 10.6528C19.7987 9.70183 16.8613 10.0323 14.1989 11.929C11.5379 13.8247 10.2382 16.4776 10.1337 19.7519C10.0623 19.7519 9.98983 19.7519 9.9171 19.7519C6.63008 19.7516 3.34278 19.7513 0.055758 19.751C0.037172 19.751 0.018586 19.7537 0.000269362 19.7554C0.000269362 19.5935 0.000269362 19.4316 0.000269362 19.2698H0Z" fill="#050416"/>
<path d="M15.1358 27.8548C15.3612 27.9819 15.5746 28.1074 15.7925 28.2246C16.7985 28.7653 17.8679 29.1071 19.0008 29.2614C20.8743 29.5164 22.6682 29.2498 24.377 28.4484C26.2424 27.5734 27.68 26.2279 28.6944 24.4351C29.3454 23.2844 29.739 22.0493 29.8653 20.7313C29.8906 20.4655 29.9181 20.1995 29.9273 19.9331C29.9305 19.8604 29.9418 19.7556 29.9418 19.7556C29.9418 19.7556 30.1826 19.7556 30.2136 19.7556C33.3824 19.7556 36.5511 19.7556 39.7199 19.7556C39.8535 19.7556 40 19.7554 40 19.7554C40 19.7554 39.9968 19.8881 39.9952 20.0303C39.9626 22.8748 39.3366 25.584 38.1137 28.1508C36.361 31.8292 33.7174 34.6984 30.2087 36.7654C28.2739 37.9051 26.1947 38.6672 23.9881 39.0914C22.4535 39.3866 20.9047 39.4884 19.3497 39.4132C16.7064 39.2858 14.1806 38.657 11.7986 37.4947C11.1401 37.1734 10.5122 36.7896 9.86678 36.4406C9.70678 36.3539 9.67769 36.2774 9.78543 36.112C11.0482 34.1728 12.3037 32.2286 13.5603 30.2853C14.0467 29.5331 14.5311 28.7796 15.017 28.0269C15.0533 27.9703 15.0935 27.9165 15.1363 27.8551L15.1358 27.8548Z" fill="#4531FA"/>
</g>
</g>
<defs>
<clipPath id="clip0_20261_23570">
<rect width="40" height="40" fill="white"/>
</clipPath>
<clipPath id="clip1_20261_23570">
<rect width="40" height="40" fill="white"/>
</clipPath>
</defs>
</svg>
