<svg width="226" height="45" viewBox="0 0 226 45" fill="none" xmlns="http://www.w3.org/2000/svg">
<path d="M200.887 15.7326C195.478 15.7326 192.18 18.8515 191.52 25.1572H209.528C209.264 19.1227 206.56 15.7326 200.887 15.7326ZM201.151 44.2776C191.586 44.2776 185.716 38.4466 185.716 27.9371C185.716 17.3599 191.718 11.0542 201.019 11.0542C210.254 11.0542 214.871 16.8852 214.871 25.6318C214.871 26.5811 214.805 28.0049 214.673 29.4288H191.454C191.916 35.87 195.214 39.3958 201.151 39.3958C206.692 39.3958 208.605 36.5481 209.594 33.0223L214.607 34.4462C213.09 40.4806 209.132 44.2776 201.151 44.2776Z" fill="#F0F0F4"/>
<path d="M169.32 34.1059V16.7484H164.636V11.8666H169.32V2.98438H175.059V11.8666H184.887V16.7484H175.059V33.4279C175.059 37.0214 176.378 38.8521 179.808 38.8521C181.457 38.8521 182.842 38.5131 184.491 38.0384L185.217 43.2593C183.106 43.9373 181.457 44.3441 178.621 44.3441C172.156 44.3441 169.32 40.0047 169.32 34.1059Z" fill="#F0F0F4"/>
<path d="M147.543 39.4607C153.215 39.4607 156.843 36.2062 156.843 31.7312V29.9683H147.807C143.783 29.9683 141.474 31.5956 141.474 34.7145C141.474 37.2232 142.991 39.4607 147.543 39.4607ZM157.107 43.5289V36.0028H156.514C154.996 41.2236 151.039 44.2069 145.564 44.2069C139.759 44.2069 135.999 41.4948 135.999 35.3926C135.999 29.9005 139.429 25.9002 146.949 25.9002H156.843V23.3237C156.843 18.5775 155.062 16.0009 150.049 16.0009C145.894 16.0009 143.585 18.1028 142.596 22.3066L137.187 20.9506C138.44 14.8483 142.859 11.1191 150.247 11.1191C158.822 11.1191 162.582 15.3907 162.582 23.2558V43.5289H157.107Z" fill="#F0F0F4"/>
<path d="M124.715 43.5283H118.977V11.8644H124.517V20.8144L124.979 20.8822C126.562 13.9663 129.728 11.5254 134.478 11.5254H135.665V18.0345H134.082C127.42 18.0345 124.715 20.7466 124.715 27.8659V43.5283Z" fill="#F0F0F4"/>
<path d="M101.487 39.1222C107.292 39.1222 110.062 35.3253 110.062 27.7314C110.062 20.0696 107.358 16.4083 101.487 16.4083C95.9462 16.4083 92.3842 20.3409 92.3842 26.5787V29.0196C92.3842 34.9863 95.9462 39.1222 101.487 39.1222ZM92.3842 0V20.2052H92.846C94.3631 14.781 97.8591 11.0519 103.796 11.0519C111.513 11.0519 115.735 17.0185 115.735 27.7314C115.735 38.512 111.315 44.3431 104.06 44.3431C98.057 44.3431 94.2972 40.4105 92.78 34.9863H92.3842V43.5294H86.6455V0H92.3842Z" fill="#F0F0F4"/>
<path d="M80.9375 43.5306H75.1987V11.8667H80.9375V43.5306Z" fill="#F0F0F4"/>
<path d="M68.7647 3.0166V43.5274H63.1345V3.0166H68.7647Z" fill="#F0F0F4"/>
<path d="M43.2785 39.4607C48.9513 39.4607 52.5793 36.2062 52.5793 31.7312V29.9683H43.5424C39.5187 29.9683 37.21 31.5956 37.21 34.7145C37.21 37.2232 38.7271 39.4607 43.2785 39.4607ZM52.8431 43.5289V36.0028H52.2494C50.7323 41.2236 46.7746 44.2069 41.2997 44.2069C35.495 44.2069 31.7351 41.4948 31.7351 35.3926C31.7351 29.9005 35.1652 25.9002 42.6849 25.9002H52.5793V23.3237C52.5793 18.5775 50.7983 16.0009 45.7851 16.0009C41.6295 16.0009 39.3208 18.1028 38.3314 22.3066L32.9224 20.9506C34.1757 14.8483 38.5952 11.1191 45.983 11.1191C54.5581 11.1191 58.318 15.3907 58.318 23.2558V43.5289H52.8431Z" fill="#F0F0F4"/>
<path d="M24.6811 23.2613C23.5933 18.4389 21.4175 15.4337 15.7062 15.4337C9.72287 15.4337 6.0513 19.4174 6.0513 27.245C6.0513 34.4435 9.5189 38.9863 15.9781 38.9863C21.8255 38.9863 23.7292 35.3521 24.8851 30.9491L30.3245 32.4168C28.8966 39.8949 24.5451 44.3678 16.0461 44.3678C6.0513 44.3678 0 38.1477 0 27.3148C0 16.482 6.32326 10.0522 15.8422 10.0522C24.7491 10.0522 28.8966 14.3854 30.1885 22.0732L24.6811 23.2613Z" fill="#F0F0F4"/>
<path d="M226 1.87939H213.168L226 15.0698V1.87939Z" fill="#6FFFBA"/>
</svg>
