<svg width="137" height="26" viewBox="0 0 137 26" fill="none" xmlns="http://www.w3.org/2000/svg">
<path d="M121.332 9.21813C118.065 9.21813 116.073 11.0458 115.675 14.741H126.551C126.392 11.2048 124.758 9.21813 121.332 9.21813ZM121.492 25.9457C115.715 25.9457 112.169 22.5287 112.169 16.3701C112.169 10.1717 115.794 6.47656 121.412 6.47656C126.989 6.47656 129.778 9.89359 129.778 15.0191C129.778 15.5754 129.738 16.4098 129.659 17.2442H115.635C115.914 21.0188 117.906 23.0849 121.492 23.0849C124.838 23.0849 125.993 21.4161 126.591 19.35L129.619 20.1844C128.703 23.7206 126.312 25.9457 121.492 25.9457Z" fill="#050416"/>
<path d="M102.267 19.9857V9.81408H99.4385V6.95331H102.267V1.74829H105.733V6.95331H111.669V9.81408H105.733V19.5884C105.733 21.6942 106.53 22.767 108.602 22.767C109.598 22.767 110.434 22.5683 111.43 22.2902L111.869 25.3496C110.594 25.747 109.598 25.9854 107.885 25.9854C103.98 25.9854 102.267 23.4425 102.267 19.9857Z" fill="#050416"/>
<path d="M89.1127 23.1245C92.5389 23.1245 94.7301 21.2173 94.7301 18.5949V17.5619H89.272C86.8418 17.5619 85.4474 18.5155 85.4474 20.3432C85.4474 21.8133 86.3637 23.1245 89.1127 23.1245ZM94.8895 25.5084V21.0981H94.5309C93.6146 24.1575 91.2242 25.9058 87.9175 25.9058C84.4115 25.9058 82.1406 24.3165 82.1406 20.7405C82.1406 17.5221 84.2123 15.1779 88.7541 15.1779H94.7301V13.668C94.7301 10.8867 93.6544 9.37688 90.6266 9.37688C88.1166 9.37688 86.7222 10.6086 86.1246 13.072L82.8578 12.2774C83.6147 8.70142 86.284 6.51611 90.7461 6.51611C95.9253 6.51611 98.1962 9.01929 98.1962 13.6283V25.5084H94.8895Z" fill="#050416"/>
<path d="M75.3255 25.5086H71.8594V6.9533H75.206V12.198L75.4848 12.2378C76.441 8.18502 78.3533 6.75464 81.2218 6.75464H81.9389V10.569H80.9828C76.9589 10.569 75.3255 12.1583 75.3255 16.3303V25.5086Z" fill="#050416"/>
<path d="M61.2961 22.9259C64.802 22.9259 66.4753 20.7008 66.4753 16.2508C66.4753 11.7609 64.8418 9.61537 61.2961 9.61537C57.9495 9.61537 55.7981 11.9199 55.7981 15.5753V17.0057C55.7981 20.5022 57.9495 22.9259 61.2961 22.9259ZM55.7981 0V11.8404H56.077C56.9933 8.66177 59.1049 6.47646 62.6905 6.47646C67.3518 6.47646 69.9015 9.97296 69.9015 16.2508C69.9015 22.5683 67.2323 25.9853 62.8498 25.9853C59.2244 25.9853 56.9535 23.6808 56.0372 20.5022H55.7981V25.5085H52.332V0H55.7981Z" fill="#050416"/>
<path d="M48.885 25.5086H45.4189V6.95337H48.885V25.5086Z" fill="#050416"/>
<path d="M41.5324 1.7688V25.5084H38.1318V1.7688H41.5324Z" fill="#050416"/>
<path d="M26.139 23.1245C29.5653 23.1245 31.7565 21.2173 31.7565 18.5949V17.5619H26.2984C23.8681 17.5619 22.4737 18.5155 22.4737 20.3432C22.4737 21.8133 23.39 23.1245 26.139 23.1245ZM31.9158 25.5084V21.0981H31.5573C30.641 24.1575 28.2505 25.9058 24.9438 25.9058C21.4379 25.9058 19.167 24.3165 19.167 20.7405C19.167 17.5221 21.2387 15.1779 25.7805 15.1779H31.7565V13.668C31.7565 10.8867 30.6808 9.37688 27.6529 9.37688C25.143 9.37688 23.7486 10.6086 23.151 13.072L19.8841 12.2774C20.6411 8.70142 23.3104 6.51611 27.7725 6.51611C32.9517 6.51611 35.2226 9.01929 35.2226 13.6283V25.5084H31.9158Z" fill="#050416"/>
<path d="M14.907 13.6315C14.2499 10.8055 12.9358 9.04444 9.48625 9.04444C5.87244 9.04444 3.65488 11.3789 3.65488 15.9659C3.65488 20.1843 5.74924 22.8464 9.65051 22.8464C13.1822 22.8464 14.332 20.7167 15.0302 18.1366L18.3154 18.9966C17.4531 23.3789 14.8248 26 9.69158 26C3.65488 26 0 22.355 0 16.0069C0 9.65877 3.81914 5.89087 9.56838 5.89087C14.948 5.89087 17.4531 8.43011 18.2333 12.9352L14.907 13.6315Z" fill="#050416"/>
<path d="M136.5 1.10229H128.749L136.5 8.83197V1.10229Z" fill="#4531FA"/>
</svg>
