<svg width="27" height="40" viewBox="0 0 27 40" fill="none" xmlns="http://www.w3.org/2000/svg">
<path d="M13.4199 0C17.131 0 20.4609 1.60762 22.8881 4.11423C25.3153 6.67372 26.8398 10.238 26.8398 14.1512C26.8398 22.5278 21.7447 29.963 17.0307 36.7319C16.5994 37.3347 16.1781 37.9905 15.6465 38.7943C15.3657 39.1433 15.0247 39.45 14.6436 39.651C14.2624 39.9048 13.8311 40 13.4099 40C12.9886 40 12.5573 39.9048 12.1762 39.651C11.7951 39.45 11.4641 39.1539 11.1732 38.7943C10.6517 37.9905 10.2204 37.3347 9.78912 36.7319C5.09515 29.963 0 22.5383 0 14.1512C0 10.238 1.52453 6.67372 3.95175 4.11423C6.37897 1.60762 9.70888 0 13.4199 0ZM16.5191 10.8937C15.7067 10.0899 14.6135 9.53993 13.4299 9.53993C12.2464 9.53993 11.1431 10.0899 10.3809 10.8937C9.56846 11.7504 9.09706 12.8503 9.09706 14.1512C9.09706 15.4521 9.56846 16.5627 10.3809 17.3665C11.1431 18.2232 12.2364 18.7203 13.4299 18.7203C14.6235 18.7203 15.7167 18.2232 16.5191 17.3665C17.2814 16.5627 17.7528 15.4098 17.7528 14.1512C17.7528 12.8926 17.2814 11.7398 16.5191 10.8937Z" fill="#6FFFBA"/>
</svg>
