<svg width="17" height="24" viewBox="0 0 17 24" fill="none" xmlns="http://www.w3.org/2000/svg">
<path d="M8.5 0C10.8505 0 12.9596 0.964569 14.497 2.46854C16.0344 4.00423 17 6.14278 17 8.49075C17 13.5167 13.7728 17.9778 10.787 22.0391C10.5138 22.4008 10.247 22.7943 9.91032 23.2766C9.73244 23.486 9.51644 23.67 9.27504 23.7906C9.03363 23.9429 8.76046 24 8.49365 24C8.22683 24 7.95366 23.9429 7.71226 23.7906C7.47085 23.67 7.26121 23.4923 7.07698 23.2766C6.74664 22.7943 6.47347 22.4008 6.2003 22.0391C3.22721 17.9778 0 13.523 0 8.49075C0 6.14278 0.96562 4.00423 2.50299 2.46854C4.04036 0.964569 6.14948 0 8.5 0ZM10.463 6.53622C9.94843 6.05394 9.25598 5.72396 8.50635 5.72396C7.75673 5.72396 7.05792 6.05394 6.57511 6.53622C6.06054 7.05024 5.76196 7.71021 5.76196 8.49075C5.76196 9.27129 6.06054 9.9376 6.57511 10.4199C7.05792 10.9339 7.75037 11.2322 8.50635 11.2322C9.26233 11.2322 9.95478 10.9339 10.463 10.4199C10.9458 9.9376 11.2444 9.2459 11.2444 8.49075C11.2444 7.73559 10.9458 7.04389 10.463 6.53622Z" fill="#6FFFBA"/>
</svg>
