<svg width="150" height="150" viewBox="0 0 150 150" fill="none" xmlns="http://www.w3.org/2000/svg">
<path d="M40.6973 126.809C46.9175 126.809 52.0135 132.014 52.0135 138.443C52.0135 144.795 46.9175 150 40.6973 150C34.4023 150 29.3062 144.795 29.3062 138.443C29.3062 132.014 34.4023 126.809 40.6973 126.809ZM125.007 126.809C131.227 126.809 136.323 132.014 136.323 138.443C136.323 144.795 131.227 150 125.007 150C118.712 150 113.616 144.795 113.616 138.443C113.616 132.014 118.712 126.809 125.007 126.809ZM6.60042 0.0655373L24.474 2.81326C27.022 3.28014 28.8955 5.41556 29.1204 8.01785L30.5443 25.1624C30.7691 27.6193 32.7176 29.4562 35.1157 29.4562H136.324C140.896 29.4562 143.893 31.0635 146.891 34.5843C149.889 38.105 150.413 43.1565 149.739 47.7412L142.619 97.9502C141.27 107.602 133.177 114.712 123.659 114.712H41.8979C31.9307 114.712 23.6871 106.913 22.8627 96.8098L15.9681 13.3755L4.65194 11.3855C1.65428 10.8498 -0.444088 7.86478 0.0805033 4.80325C0.605094 1.67284 3.52782 -0.401346 6.60042 0.0655373ZM111.669 57.7677H90.9097C87.7622 57.7677 85.2891 60.2934 85.2891 63.508C85.2891 66.6461 87.7622 69.2484 90.9097 69.2484H111.669C114.816 69.2484 117.289 66.6461 117.289 63.508C117.289 60.2934 114.816 57.7677 111.669 57.7677Z" fill="#EFF2F6"/>
</svg>
