<svg width="120" height="120" viewBox="0 0 120 120" fill="none" xmlns="http://www.w3.org/2000/svg">
<path d="M52.0847 43.6531L50.4552 42.1122C50.22 41.9043 49.7735 41.5326 49.5349 41.3281C43.7912 36.388 36.9795 34.5682 29.294 35.913C24.3576 36.779 20.0558 39.0287 16.4702 42.6142C16.0003 43.0842 15.5441 43.5745 15.1014 44.0921C12.3742 47.2489 10.5671 50.9718 9.72457 55.162C9.19116 57.809 9.09726 60.4596 9.44283 63.0389C10.3359 69.7207 13.4326 75.1873 18.6374 79.2889C23.7298 83.2985 29.6284 85.0224 36.1696 84.4128C41.5763 83.9083 46.2703 82.2619 50.5846 77.9476L56.4414 72.0908L52.1853 67.8347L47.9292 63.5786L41.7386 69.7691C39.5355 71.9722 36.4392 73.1186 33.1683 72.8442C30.0847 72.5869 27.0108 71.1406 24.7472 68.877C21.8802 66.0101 20.6994 62.4661 21.2388 58.3473C22.0597 52.0788 27.2631 47.4686 33.6036 47.3802C36.997 47.3344 39.9822 48.5286 42.4946 50.9251L67.9153 76.3459L69.5448 77.8868C69.78 78.0948 70.2265 78.4664 70.4651 78.6709C76.2088 83.611 83.0205 85.4308 90.706 84.086C95.6424 83.22 99.9442 80.9704 103.53 77.3848C104 76.9149 104.456 76.4245 104.899 75.9069C107.626 72.7501 109.433 69.0272 110.275 64.837C110.809 62.1901 110.903 59.5394 110.557 56.9601C109.664 50.2784 106.567 44.8117 101.363 40.7101C96.2702 36.7005 90.3716 34.9766 83.8304 35.5862C78.4237 36.0908 73.7297 37.7371 69.4154 42.0514L63.5586 47.9082L72.0708 56.4204L78.2614 50.2299C80.4645 48.0268 83.5608 46.8804 86.8317 47.1548C89.9153 47.4121 92.9892 48.8584 95.2528 51.122C98.1198 53.9889 99.3006 57.5329 98.7612 61.6517C97.9403 67.9202 92.7369 72.5304 86.3964 72.6188C83.003 72.6646 80.0178 71.4704 77.5054 69.0739L52.0847 43.6531Z" fill="#EFF2F6"/>
</svg>
