<svg width="112" height="112" viewBox="0 0 112 112" fill="none" xmlns="http://www.w3.org/2000/svg">
<path d="M57.033 69.2132C57.2604 68.988 57.5675 68.8617 57.8875 68.8617C58.2075 68.8617 58.5146 68.988 58.742 69.2132L76.3167 86.7893C84.4537 94.9269 98.1868 95.7891 107.171 86.7893C116.17 77.7895 115.308 64.0704 107.171 55.9328L89.596 38.3567C89.1272 37.8878 89.1272 37.1164 89.596 36.6475L95.6156 30.6274C95.843 30.4022 96.1501 30.2759 96.4701 30.2759C96.7902 30.2759 97.0973 30.4022 97.3247 30.6274L114.899 48.2036C127.695 60.9999 127.695 81.7071 114.899 94.4883C102.104 107.27 81.3986 107.285 68.6184 94.4883L51.0437 76.9122C50.5748 76.4433 50.5748 75.6719 51.0437 75.203L57.033 69.2132ZM17.921 -2.4828C30.7163 -15.2792 51.4218 -15.2792 64.202 -2.4828L81.7918 15.0933C82.017 15.3207 82.1433 15.6279 82.1433 15.9479C82.1433 16.268 82.017 16.5751 81.7918 16.8025L75.7874 22.8074C75.3185 23.2763 74.5472 23.2763 74.0783 22.8074L56.5036 5.23133C48.3666 -2.90632 34.6336 -3.76849 25.6496 5.23133C16.6505 14.2311 17.5126 27.9502 25.6496 36.0878L43.2243 53.6639C43.4495 53.8914 43.5758 54.1985 43.5758 54.5185C43.5758 54.8386 43.4495 55.1457 43.2243 55.3732L37.2048 61.3932C36.7359 61.8621 35.9645 61.8621 35.4957 61.3932L17.921 43.8171C5.14079 31.0207 5.14079 10.3136 17.921 -2.4828ZM51.573 24.8797C51.8004 24.6545 52.1075 24.5281 52.4276 24.5281C52.7476 24.5281 53.0547 24.6545 53.2821 24.8797L87.5391 59.1243C87.7643 59.3518 87.8906 59.6589 87.8906 59.9789C87.8906 60.299 87.7643 60.6061 87.5391 60.8335L81.5498 66.8233C81.0809 67.2922 80.3096 67.2922 79.8407 66.8233L45.5989 32.5787C45.13 32.1098 45.13 31.3384 45.5989 30.8695L51.573 24.8797Z" fill="#EFF2F6"/>
</svg>
