<svg width="112" height="112" viewBox="0 0 112 112" fill="none" xmlns="http://www.w3.org/2000/svg">
<path d="M122.768 48.5645C115.196 35.4492 101.009 28.5348 86.9024 29.6436L75.6528 10.1587C74.6283 8.38414 73.018 7.0261 71.092 6.33611L41.0138 -4.61284C39.7499 -5.07399 38.4282 -4.90632 37.3759 -4.29882C36.3237 -3.69132 35.5176 -2.63049 35.2851 -1.30534L29.728 30.2176C29.3719 32.2289 29.7368 34.3048 30.7581 36.0787L42.0077 55.5636C33.9942 67.2258 32.8888 82.9692 40.4609 96.0845L58.7579 85.5208C58.9775 86.5222 59.3664 87.5198 59.9635 88.554C61.463 91.1512 63.8171 93.1767 66.5908 94.2548C68.8566 95.138 71.3194 95.3758 73.706 94.9416C80.0706 99.7285 88.5697 100.274 95.4559 96.2987C98.8581 94.3344 101.572 91.4203 103.29 87.8897C104.977 84.4399 105.617 80.6074 105.144 76.7909C106.715 74.946 107.743 72.6981 108.114 70.2973C108.558 67.3367 107.986 64.3079 106.49 61.7075C105.92 60.7203 105.249 59.8544 104.513 59.1198L122.768 48.5645ZM55.5599 27.1967C57.0458 26.3789 58.7948 26.1792 60.4317 26.6403C62.0685 27.1014 63.4627 28.1867 64.3151 29.6631C65.1676 31.1396 65.4103 32.8896 64.9912 34.5377C64.5721 36.1858 63.5246 37.6006 62.0735 38.4786C60.5876 39.2963 58.8386 39.4961 57.2017 39.035C55.5649 38.5738 54.1707 37.4886 53.3182 36.0122C52.4658 34.5357 52.2231 32.7857 52.6422 31.1376C53.0613 29.4895 54.1087 28.0746 55.5599 27.1967ZM98.4585 70.1523C98.0541 70.8558 97.434 71.4018 96.69 71.7061L94.2473 72.7403L95.2362 75.2092C97.1764 80.0277 95.2588 85.6163 90.781 88.2015C86.3033 90.7868 80.5046 89.6532 77.3017 85.5637L75.6513 83.461L73.5411 85.0711C72.896 85.5543 72.1114 85.8149 71.3044 85.814C69.948 85.8137 68.6857 85.0852 68.0004 83.8983C67.2812 82.6525 67.3739 81.2201 68.0925 80.1158L95.1345 64.503C96.4687 64.4379 97.7439 65.0805 98.4563 66.3145C99.1367 67.52 99.1432 68.9892 98.4585 70.1523Z" fill="#EFF2F6"/>
</svg>
