<svg width="112" height="114" viewBox="0 0 112 114" fill="none" xmlns="http://www.w3.org/2000/svg">
<path d="M94.5863 42.8686C92.3849 44.1396 91.6327 46.9471 92.9036 49.1485C94.1746 51.35 96.9821 52.1022 99.1835 50.8312C101.385 49.5602 102.137 46.7528 100.866 44.5513C99.5952 42.3499 96.7878 41.5976 94.5863 42.8686ZM87.7134 -24.2021L62.8889 -9.8696C60.7998 -13.4879 56.1638 -14.7301 52.5455 -12.6411L43.1778 -7.23262C39.5595 -5.1436 38.3172 -0.507558 40.4063 3.11074L15.5817 17.4432C13.5091 18.6398 12.8014 21.2811 13.998 23.3537L27.5192 46.7731L17.2147 52.7224C15.1421 53.919 14.4343 56.5603 15.631 58.6329L45.9184 111.092C47.115 113.165 49.7563 113.873 51.8289 112.676L91.1735 89.9604C93.2461 88.7638 93.9538 86.1225 92.7572 84.0499L91.6755 82.1764L134.767 57.2974C136.84 56.1008 137.547 53.4595 136.351 51.3869L93.6239 -22.6183C92.4273 -24.691 89.786 -25.3987 87.7134 -24.2021ZM83.0996 84.6296L51.2492 103.018L35.5647 75.8519L67.415 57.4631L83.0996 84.6296ZM63.0882 49.9689L31.2379 68.3577L25.2886 58.0532L57.1389 39.6644L63.0882 49.9689ZM47.0414 16.7664L43.7963 11.1458L52.2272 6.27816L48.4413 -0.279267L55.9355 -4.60605L59.7214 1.95138L68.1524 -2.91625L71.3975 2.7044L47.0414 16.7664ZM79.4766 24.2696L83.2625 30.8271C83.56 31.3423 83.3818 32.0072 82.8666 32.3047L77.2459 35.5498C76.7307 35.8472 76.0658 35.6691 75.7683 35.1538L71.9824 28.5964C71.6849 28.0812 71.8631 27.4163 72.3783 27.1188L77.999 23.8737C78.5142 23.5763 79.1791 23.7544 79.4766 24.2696ZM103.105 57.6228C97.1562 61.0572 89.5464 59.0182 86.112 53.0697C82.6776 47.1212 84.7167 39.5114 90.6652 36.077C96.6137 32.6426 104.223 34.6817 107.658 40.6302C111.092 46.5787 109.053 54.1885 103.105 57.6228ZM97.3141 22.7144C97.6116 23.2296 97.4334 23.8945 96.9182 24.192L91.2976 27.4371C90.7823 27.7345 90.1174 27.5564 89.8199 27.0411L83.3298 15.7998C83.0323 15.2846 83.2105 14.6197 83.7257 14.3222L89.3464 11.0771C89.8616 10.7797 90.5265 10.9578 90.824 11.4731L97.3141 22.7144ZM90.6652 36.077C84.7167 39.5114 82.6776 47.1212 86.112 53.0697C89.5464 59.0182 97.1562 61.0572 103.105 57.6228C109.053 54.1885 111.092 46.5787 107.658 40.6302C104.223 34.6817 96.6137 32.6426 90.6652 36.077ZM99.1835 50.8312C96.9821 52.1022 94.1746 51.35 92.9036 49.1485C91.6327 46.9471 92.3849 44.1396 94.5863 42.8686C96.7878 41.5976 99.5952 42.3499 100.866 44.5513C102.137 46.7528 101.385 49.5602 99.1835 50.8312Z" fill="#EFF2F6"/>
</svg>
