<svg xmlns="http://www.w3.org/2000/svg" viewBox="0 0 81.51 34.56">
  <path d="m75.32,9.22c4.06,0,5.9,2.72,6.16,6.53l-5.06.92c-.03-2.72-.36-3.38-.97-3.38-.68,0-1,.75-1,3.77v2.76c0,3.02.35,3.77,1,3.77s1.03-.66,1.19-3.35l4.87.88c-.45,4.3-2.29,6.53-6.39,6.53s-6.58-3.02-6.58-8.26v-1.9c0-5.25,2.68-8.26,6.77-8.26Zm-26.58,0c4.42,0,6.74,3.18,6.74,8.69v2.13h-8.13c.1,2.46,1.06,3.05,2.94,3.05,1.13,0,2.77-.49,4.32-1.28l1.13,4.1c-2.03,1.05-4.1,1.64-6.68,1.64-4.68,0-7.32-2.82-7.32-8.17v-1.9c0-5.25,2.58-8.26,7-8.26Zm19.19.03v6.46c-2.35.26-3.87.82-5.13,1.64v9.97h-6V10.07l6-.79v5.94h.13c1.74-4.2,3.22-5.74,5-5.97Zm-19.22,3.74c-.87,0-1.35.72-1.35,4.59h2.71c0-3.93-.45-4.59-1.35-4.59Z" fill="#232323" fill-rule="evenodd"/>
  <rect width="34.56" height="34.56" rx="9.58" ry="9.58" fill="#dce161"/>
  <path d="m11.7,9.21l1.17,10.66,1.4-10.66h6.39l1.4,10.66,1.17-10.66h5.67l-3.29,17.97h-6.75l-1.47-10-1.5,10.01h-6.85l-3.29-17.97h5.94Z" fill="#121212" fill-rule="evenodd"/>
</svg>