<svg width="1600" height="957" fill="none" xmlns="http://www.w3.org/2000/svg"><g opacity=".8"><mask id="a" style="mask-type:alpha" maskUnits="userSpaceOnUse" x="216" y="-146" width="1502" height="1408"><path transform="matrix(1 0 0 -1 216 1261.41)" fill="#050416" d="M0 0h1501.21v1407.41H0z"/></mask><g mask="url(#a)"><path opacity=".8" fill="url(#b)" d="M928.816-202.119h1081.94v1591.78H928.816z"/><path fill="url(#c)" d="M544.941 190.549h1224.98v1515.78H544.941z"/><g opacity=".6"><path opacity=".8" fill="url(#d)" d="M1161.1 37.141h1081.94v1591.78H1161.1z"/><path fill="url(#e)" d="M777.221 429.809h1224.98v1515.78H777.221z"/></g></g></g><g opacity=".04"><path fill="url(#f)" d="M380.699-563.79h1224.3V724.32h-1224.3z"/><path fill="url(#g)" d="M-192.025-319.538h1386.16v1384.53h-1386.16z"/></g><g opacity=".2"><path fill="url(#h)" d="M-77.135 172.21H596v1288.11H-77.135z"/><path fill="url(#i)" d="M-392 283H631v1510H-392z"/></g><g opacity=".06"><path transform="rotate(180 201.586 1368.66)" fill="url(#j)" d="M201.586 1368.66h928.919v1288.11H201.586z"/><path transform="rotate(180 636.131 1124.41)" fill="url(#k)" d="M636.131 1124.41h1051.73v1384.53H636.131z"/></g><defs><radialGradient id="b" cx="0" cy="0" r="1" gradientUnits="userSpaceOnUse" gradientTransform="rotate(90.821 485.829 1006.675) scale(485.678 469.218)"><stop stop-color="#4E3CFF" stop-opacity=".5"/><stop offset="1" stop-color="#4E3CFF" stop-opacity="0"/></radialGradient><radialGradient id="c" cx="0" cy="0" r="1" gradientUnits="userSpaceOnUse" gradientTransform="rotate(90.976 156.606 1031.786) scale(462.509 531.227)"><stop stop-color="#72FFBB" stop-opacity=".5"/><stop offset="1" stop-color="#72FFBB" stop-opacity="0"/></radialGradient><radialGradient id="d" cx="0" cy="0" r="1" gradientUnits="userSpaceOnUse" gradientTransform="rotate(90.821 484.04 1240.793) scale(485.678 469.218)"><stop stop-color="#4E3CFF" stop-opacity=".5"/><stop offset="1" stop-color="#4E3CFF" stop-opacity="0"/></radialGradient><radialGradient id="e" cx="0" cy="0" r="1" gradientUnits="userSpaceOnUse" gradientTransform="rotate(90.976 155.135 1265.597) scale(462.509 531.227)"><stop stop-color="#72FFBB" stop-opacity=".5"/><stop offset="1" stop-color="#72FFBB" stop-opacity="0"/></radialGradient><radialGradient id="f" cx="0" cy="0" r="1" gradientUnits="userSpaceOnUse" gradientTransform="rotate(91.148 497.001 519.457) scale(393.062 530.905)"><stop stop-color="#4E3CFF" stop-opacity=".5"/><stop offset="1" stop-color="#4E3CFF" stop-opacity="0"/></radialGradient><radialGradient id="g" cx="0" cy="0" r="1" gradientUnits="userSpaceOnUse" gradientTransform="matrix(-8.91436 422.39795 -600.94519 -12.68245 538.939 321.881)"><stop stop-color="#72FFBB" stop-opacity=".5"/><stop offset="1" stop-color="#72FFBB" stop-opacity="0"/></radialGradient><radialGradient id="h" cx="0" cy="0" r="1" gradientUnits="userSpaceOnUse" gradientTransform="matrix(-4.3288 392.98316 -291.92129 -3.21558 277.83 768.962)"><stop stop-color="#4E3CFF" stop-opacity=".5"/><stop offset="1" stop-color="#4E3CFF" stop-opacity="0"/></radialGradient><radialGradient id="i" cx="0" cy="0" r="1" gradientUnits="userSpaceOnUse" gradientTransform="rotate(90.818 -410.578 563.959) scale(460.725 443.657)"><stop stop-color="#72FFBB" stop-opacity=".5"/><stop offset="1" stop-color="#72FFBB" stop-opacity="0"/></radialGradient><radialGradient id="j" cx="0" cy="0" r="1" gradientUnits="userSpaceOnUse" gradientTransform="rotate(90.871 -622.163 1323.207) scale(393.028 402.85)"><stop stop-color="#4E3CFF" stop-opacity=".5"/><stop offset="1" stop-color="#4E3CFF" stop-opacity="0"/></radialGradient><radialGradient id="k" cx="0" cy="0" r="1" gradientUnits="userSpaceOnUse" gradientTransform="matrix(-6.76386 422.39785 -456.04354 -7.30263 1190.74 1765.83)"><stop stop-color="#72FFBB" stop-opacity=".5"/><stop offset="1" stop-color="#72FFBB" stop-opacity="0"/></radialGradient></defs></svg>