<svg width="395" height="75" viewBox="0 0 395 75" fill="none" xmlns="http://www.w3.org/2000/svg">
<mask id="mask0_18444_123804" style="mask-type:alpha" maskUnits="userSpaceOnUse" x="-12" y="-9" width="433" height="99">
<rect x="-11.9423" y="-8.0769" width="432.692" height="98.0769" fill="#D9D9D9"/>
</mask>
<g mask="url(#mask0_18444_123804)">
<path d="M350.749 26.5908C341.325 26.5908 335.579 31.863 334.429 42.5221H365.804C365.344 32.3215 360.632 26.5908 350.749 26.5908ZM351.208 74.8433C334.544 74.8433 324.316 64.9865 324.316 47.2213C324.316 29.3415 334.774 18.6824 350.978 18.6824C367.068 18.6824 375.112 28.5392 375.112 43.3244C375.112 44.929 374.997 47.3359 374.768 49.7428H334.315C335.119 60.6312 340.865 66.5911 351.208 66.5911C360.862 66.5911 364.195 61.7773 365.919 55.8174L374.653 58.2243C372.009 68.4249 365.114 74.8433 351.208 74.8433Z" fill="white"/>
<path d="M295.75 57.6506V28.3094H287.59V20.0572H295.75V5.04272H305.748V20.0572H322.872V28.3094H305.748V56.5045C305.748 62.5791 308.046 65.6736 314.022 65.6736C316.896 65.6736 319.309 65.1006 322.182 64.2983L323.446 73.1236C319.769 74.2697 316.895 74.9574 311.954 74.9574C300.691 74.9574 295.75 67.6221 295.75 57.6506Z" fill="white"/>
<path d="M257.806 66.7051C267.689 66.7051 274.01 61.2036 274.01 53.6391V50.6591H258.265C251.255 50.6591 247.233 53.4099 247.233 58.6821C247.233 62.9229 249.876 66.7051 257.806 66.7051ZM274.47 73.582V60.8598H273.435C270.792 69.6851 263.897 74.7281 254.358 74.7281C244.245 74.7281 237.694 70.1435 237.694 59.8283C237.694 50.5445 243.67 43.7823 256.771 43.7823H274.01V39.4269C274.01 31.4039 270.907 27.0486 262.173 27.0486C254.933 27.0486 250.91 30.6016 249.186 37.7077L239.763 35.4154C241.946 25.1002 249.646 18.7964 262.518 18.7964C277.458 18.7964 284.008 26.0171 284.008 39.3123V73.582H274.47Z" fill="white"/>
<path d="M218.036 73.5825H208.037V20.0577H217.691V35.1868L218.496 35.3014C221.254 23.6107 226.77 19.4846 235.045 19.4846H237.113V30.4876H234.355C222.748 30.4876 218.036 35.0721 218.036 47.1066V73.5825Z" fill="white"/>
<path d="M177.566 66.1324C187.679 66.1324 192.506 59.714 192.506 46.8772C192.506 33.9258 187.794 27.7366 177.566 27.7366C167.912 27.7366 161.706 34.3843 161.706 44.9288V49.0549C161.706 59.1409 167.912 66.1324 177.566 66.1324ZM161.706 0V34.155H162.511C165.154 24.9859 171.245 18.6821 181.588 18.6821C195.034 18.6821 202.389 28.7682 202.389 46.8772C202.389 65.1009 194.689 74.9577 182.048 74.9577C171.59 74.9577 165.039 68.3101 162.396 59.1409H161.706V73.5823H151.708V0H161.706Z" fill="white"/>
<path d="M141.762 73.5822H131.764V20.0574H141.762V73.5822Z" fill="white"/>
<path d="M120.556 5.10229V73.5818H110.746V5.10229H120.556Z" fill="white"/>
<path d="M76.1503 66.7051C86.0337 66.7051 92.3545 61.2036 92.3545 53.6391V50.6591H76.61C69.5996 50.6591 65.5773 53.4099 65.5773 58.6821C65.5773 62.9229 68.2205 66.7051 76.1503 66.7051ZM92.8142 73.582V60.8598H91.7799C89.1366 69.6851 82.2412 74.7281 72.7026 74.7281C62.5893 74.7281 56.0386 70.1435 56.0386 59.8283C56.0386 50.5445 62.0147 43.7823 75.1159 43.7823H92.3545V39.4269C92.3545 31.4039 89.2516 27.0486 80.5174 27.0486C73.2772 27.0486 69.2548 30.6016 67.531 37.7077L58.1073 35.4154C60.2908 25.1002 67.9907 18.7964 80.8621 18.7964C95.8022 18.7964 102.353 26.0171 102.353 39.3123V73.582H92.8142Z" fill="white"/>
<path d="M43.7509 39.3213C41.8555 31.1696 38.0648 26.0895 28.1142 26.0895C17.6897 26.0895 11.2929 32.8235 11.2929 46.0553C11.2929 58.2238 17.3344 65.903 28.588 65.903C38.7756 65.903 42.0924 59.7596 44.1063 52.3168L53.583 54.7977C51.0954 67.4388 43.514 74.9998 28.7065 74.9998C11.2929 74.9998 0.75 64.4853 0.75 46.1734C0.75 27.8616 11.7668 16.9927 28.3511 16.9927C43.8693 16.9927 51.0954 24.3174 53.3461 37.3129L43.7509 39.3213Z" fill="white"/>
</g>
</svg>
