<svg width="795" height="1217" viewBox="0 0 795 1217" fill="none" xmlns="http://www.w3.org/2000/svg">
<path d="M119.897 1.01004C104.097 25.77 89.6067 51.5401 76.9667 78.0201C59.3867 114.86 44.6468 152.87 33.0068 191.99C22.0868 228.68 13.5568 265.97 8.49678 303.94C5.72678 324.71 2.91667 345.53 1.63667 366.43C0.186675 390.2 -0.15328 414.08 0.0567208 437.9C0.326722 469.2 3.0167 500.39 7.53671 531.36C10.3967 550.95 14.0268 570.45 18.0068 589.84C24.0268 619.19 32.3067 647.96 41.9167 676.33C51.6167 704.98 62.9967 732.96 75.9067 760.31C95.0667 800.91 117.607 839.54 143.407 876.27C161.297 901.74 180.137 926.47 201.417 949.22C217.027 965.92 232.487 982.83 248.997 998.61C272.967 1021.53 298.517 1042.66 325.307 1062.28C362.927 1089.83 402.587 1113.97 444.337 1134.67C488.797 1156.71 535.087 1174.2 582.837 1187.49C605.157 1193.7 628.057 1197.92 650.777 1202.61C664.347 1205.41 678.047 1207.66 691.767 1209.6C702.357 1211.09 713.097 1211.56 723.747 1212.73C745.347 1215.09 772.257 1216.58 793.987 1216.31L793.987 777.23C769.367 776.2 733.727 771.57 713.707 767.02C685.587 760.64 658.877 750.8 633.297 737.77C605.647 723.69 580.397 706.13 557.217 685.41C533.537 664.24 513.217 640.32 495.817 613.84C472.097 577.74 455.917 538.37 446.487 496.34C442.187 477.17 439.827 457.61 438.737 437.9C436.557 398.67 441.167 360.18 451.497 322.47C458.727 296.08 475.337 258.58 490.927 232.76C475.227 222.82 459.567 212.81 443.817 202.96C381.687 164.11 319.517 125.31 257.377 86.47C220.877 63.66 184.407 40.79 147.887 18.01C138.627 12.23 129.237 6.66003 119.907 1.00003" stroke="#4531FA" stroke-width="1.2" stroke-miterlimit="10" stroke-linecap="square"/>
</svg>
