<svg width="40" height="40" viewBox="0 0 40 40" fill="none" xmlns="http://www.w3.org/2000/svg">
<path d="M33.1175 7.85355C33.09 7.65355 32.9148 7.54287 32.77 7.53067C32.6255 7.51862 29.5668 7.29191 29.5668 7.29191C29.5668 7.29191 27.4426 5.183 27.2094 4.94958C26.9761 4.71629 26.5205 4.78725 26.3437 4.8393C26.3177 4.84698 25.8796 4.98218 25.1549 5.20643C24.4453 3.16451 23.193 1.28807 20.9898 1.28807C20.929 1.28807 20.8664 1.29054 20.8038 1.2941C20.1772 0.465469 19.4011 0.105469 18.7307 0.105469C13.5985 0.105469 11.1466 6.52122 10.3778 9.7815C8.38354 10.3994 6.96683 10.8388 6.78587 10.8956C5.67272 11.2448 5.63752 11.2799 5.49135 12.3288C5.38135 13.1229 2.46875 35.6474 2.46875 35.6474L25.1644 39.8997L37.4616 37.2394C37.4616 37.2394 33.1446 8.05355 33.1175 7.85355ZM23.9005 5.59437L21.9801 6.18876C21.9808 6.05341 21.9815 5.92026 21.9815 5.77465C21.9815 4.50561 21.8053 3.48382 21.5227 2.67383C22.6579 2.81629 23.414 4.10793 23.9005 5.59437ZM20.1145 2.92547C20.4301 3.71629 20.6353 4.85122 20.6353 6.38273C20.6353 6.46109 20.6346 6.53273 20.634 6.6052C19.3851 6.99204 18.0279 7.41204 16.6678 7.83341C17.4315 4.88602 18.863 3.46246 20.1145 2.92547ZM18.5897 1.48204C18.8112 1.48204 19.0344 1.55725 19.2479 1.70424C17.6031 2.47821 15.8401 4.42752 15.0956 8.32026L11.9605 9.29122C12.8326 6.32204 14.9034 1.48204 18.5897 1.48204Z" fill="#95BF46"/>
<path d="M32.7764 7.53243C32.6319 7.52037 29.5732 7.29366 29.5732 7.29366C29.5732 7.29366 27.449 5.18475 27.2158 4.95133C27.1286 4.86448 27.0109 4.81996 26.8879 4.80078L25.1719 39.9012L37.468 37.2412C37.468 37.2412 33.1511 8.0553 33.1239 7.8553C33.0964 7.6553 32.9212 7.54462 32.7764 7.53243Z" fill="#5E8E3E"/>
<path d="M20.9973 14.3286L19.481 18.839C19.481 18.839 18.1525 18.13 16.524 18.13C14.1366 18.13 14.0165 19.6282 14.0165 20.0057C14.0165 22.0657 19.3864 22.8551 19.3864 27.6803C19.3864 31.4766 16.9785 33.9211 13.732 33.9211C9.83608 33.9211 7.84375 31.4964 7.84375 31.4964L8.8869 28.0499C8.8869 28.0499 10.9348 29.8081 12.6629 29.8081C13.7921 29.8081 14.2514 28.919 14.2514 28.2694C14.2514 25.5823 9.84594 25.4625 9.84594 21.047C9.84594 17.3307 12.5133 13.7344 17.8977 13.7344C19.9724 13.7344 20.9973 14.3286 20.9973 14.3286Z" fill="white"/>
</svg>
