<svg width="335" height="385" viewBox="0 0 335 385" fill="none" xmlns="http://www.w3.org/2000/svg">
<circle cx="167" cy="263" r="194.543" stroke="#EFF2F6" stroke-width="1.54706" stroke-dasharray="4.64 4.64"/>
<circle cx="167" cy="263" r="262.226" stroke="#EFF2F6" stroke-width="1.54706" stroke-dasharray="4.64 4.64"/>
<circle cx="165.5" cy="255.5" r="94.5" fill="white"/>
<g filter="url(#filter0_i_1375_15493)">
<path d="M246.163 381.612C273.696 364.1 294.774 338.093 306.206 307.531C317.638 276.968 318.801 243.513 309.52 212.23C300.238 180.947 281.017 153.54 254.767 134.157C228.517 114.774 196.666 104.472 164.037 104.809C131.408 105.146 99.7774 116.104 73.9331 136.025C48.0888 155.946 29.4383 183.744 20.8051 215.212C12.1718 246.68 14.0258 280.104 26.0864 310.424C38.147 340.744 59.7576 366.31 87.6465 383.25L116.667 335.474C99.1616 324.841 85.5973 308.794 78.0273 289.763C70.4572 270.732 69.2935 249.753 74.7124 230.002C80.1312 210.25 91.8375 192.802 108.059 180.298C124.281 167.795 144.134 160.917 164.615 160.705C185.095 160.494 205.086 166.96 221.563 179.126C238.039 191.292 250.104 208.495 255.929 228.13C261.755 247.765 261.025 268.764 253.849 287.947C246.674 307.13 233.444 323.454 216.163 334.446L246.163 381.612Z" fill="url(#paint0_linear_1375_15493)" fill-opacity="0.2"/>
<path d="M246.163 381.612C273.696 364.1 294.774 338.093 306.206 307.531C317.638 276.968 318.801 243.513 309.52 212.23C300.238 180.947 281.017 153.54 254.767 134.157C228.517 114.774 196.666 104.472 164.037 104.809C131.408 105.146 99.7774 116.104 73.9331 136.025C48.0888 155.946 29.4383 183.744 20.8051 215.212C12.1718 246.68 14.0258 280.104 26.0864 310.424C38.147 340.744 59.7576 366.31 87.6465 383.25L116.667 335.474C99.1616 324.841 85.5973 308.794 78.0273 289.763C70.4572 270.732 69.2935 249.753 74.7124 230.002C80.1312 210.25 91.8375 192.802 108.059 180.298C124.281 167.795 144.134 160.917 164.615 160.705C185.095 160.494 205.086 166.96 221.563 179.126C238.039 191.292 250.104 208.495 255.929 228.13C261.755 247.765 261.025 268.764 253.849 287.947C246.674 307.13 233.444 323.454 216.163 334.446L246.163 381.612Z" fill="white" fill-opacity="0.5"/>
</g>
<path d="M87.7837 383.337C60.1723 366.608 38.6892 341.423 26.5212 311.52C14.3533 281.617 12.1488 248.588 20.2347 217.332C28.3206 186.077 46.2662 158.261 71.4093 138.01C96.5524 117.76 127.554 106.153 159.814 104.913L161.962 160.771C141.713 161.549 122.254 168.834 106.473 181.545C90.6914 194.256 79.4275 211.715 74.3523 231.333C69.277 250.951 70.6607 271.682 78.2981 290.451C85.9356 309.221 99.4198 325.028 116.751 335.529L87.7837 383.337Z" fill="url(#paint1_linear_1375_15493)"/>
<path d="M187.557 132.849C187.557 147.87 175.203 160.064 159.943 160.064C144.683 160.064 132.33 147.87 132.33 132.849C132.33 117.828 144.683 105.634 159.943 105.634C175.203 105.634 187.557 117.828 187.557 132.849Z" fill="white" stroke="url(#paint2_linear_1375_15493)" stroke-width="1.40167"/>
<path d="M103.746 263.508V255.702L126.953 222.488H138.521V254.85H144.766V263.508H138.521V273.586H128.585V263.508H103.746ZM129.224 233.133L114.675 254.85H129.224V233.133ZM158.331 246.192C153.6 243.731 151.234 239.923 151.234 234.766C151.234 232.211 151.873 229.892 153.15 227.811C154.475 225.681 156.438 224.002 159.041 222.772C161.69 221.494 164.907 220.855 168.692 220.855C172.477 220.855 175.671 221.494 178.273 222.772C180.923 224.002 182.886 225.681 184.164 227.811C185.489 229.892 186.151 232.211 186.151 234.766C186.151 237.368 185.512 239.662 184.235 241.65C182.957 243.589 181.254 245.103 179.125 246.192C181.727 247.327 183.762 248.983 185.228 251.16C186.695 253.336 187.428 255.914 187.428 258.895C187.428 262.113 186.6 264.928 184.944 267.341C183.336 269.706 181.112 271.528 178.273 272.805C175.435 274.083 172.241 274.721 168.692 274.721C165.144 274.721 161.95 274.083 159.111 272.805C156.32 271.528 154.096 269.706 152.44 267.341C150.832 264.928 150.027 262.113 150.027 258.895C150.027 255.914 150.761 253.336 152.227 251.16C153.694 248.936 155.729 247.28 158.331 246.192ZM176.499 236.185C176.499 233.867 175.789 232.069 174.37 230.791C172.998 229.514 171.105 228.875 168.692 228.875C166.327 228.875 164.434 229.514 163.015 230.791C161.643 232.069 160.957 233.89 160.957 236.256C160.957 238.385 161.666 240.088 163.086 241.366C164.553 242.643 166.421 243.282 168.692 243.282C170.963 243.282 172.832 242.643 174.299 241.366C175.766 240.041 176.499 238.314 176.499 236.185ZM168.692 250.521C165.996 250.521 163.795 251.207 162.092 252.579C160.436 253.951 159.608 255.914 159.608 258.469C159.608 260.835 160.413 262.775 162.021 264.289C163.677 265.756 165.901 266.489 168.692 266.489C171.484 266.489 173.684 265.732 175.293 264.218C176.901 262.704 177.706 260.788 177.706 258.469C177.706 255.962 176.878 254.022 175.222 252.65C173.566 251.23 171.389 250.521 168.692 250.521Z" fill="#242424"/>
<path d="M199.291 254.078L193.67 277.202H191.356L196.956 254.078H199.291ZM201.195 261.111V259.035H205.347V273.586H203.052V261.111H201.195ZM208.074 266.121C208.074 263.819 208.46 262.022 209.232 260.732C210.017 259.427 211.361 258.775 213.263 258.775C215.166 258.775 216.504 259.427 217.275 260.732C218.061 262.022 218.453 263.819 218.453 266.121C218.453 268.45 218.061 270.273 217.275 271.59C216.504 272.894 215.166 273.546 213.263 273.546C211.361 273.546 210.017 272.894 209.232 271.59C208.46 270.273 208.074 268.45 208.074 266.121ZM216.218 266.121C216.218 265.043 216.144 264.131 215.998 263.386C215.865 262.641 215.586 262.036 215.16 261.57C214.734 261.091 214.102 260.851 213.263 260.851C212.425 260.851 211.793 261.091 211.367 261.57C210.941 262.036 210.655 262.641 210.509 263.386C210.376 264.131 210.309 265.043 210.309 266.121C210.309 267.239 210.376 268.177 210.509 268.935C210.642 269.694 210.921 270.306 211.347 270.772C211.786 271.237 212.425 271.47 213.263 271.47C214.102 271.47 214.734 271.237 215.16 270.772C215.599 270.306 215.885 269.694 216.018 268.935C216.151 268.177 216.218 267.239 216.218 266.121ZM220.462 266.121C220.462 263.819 220.848 262.022 221.619 260.732C222.404 259.427 223.748 258.775 225.651 258.775C227.554 258.775 228.892 259.427 229.663 260.732C230.448 262.022 230.841 263.819 230.841 266.121C230.841 268.45 230.448 270.273 229.663 271.59C228.892 272.894 227.554 273.546 225.651 273.546C223.748 273.546 222.404 272.894 221.619 271.59C220.848 270.273 220.462 268.45 220.462 266.121ZM228.605 266.121C228.605 265.043 228.532 264.131 228.386 263.386C228.253 262.641 227.973 262.036 227.548 261.57C227.122 261.091 226.49 260.851 225.651 260.851C224.813 260.851 224.181 261.091 223.755 261.57C223.329 262.036 223.043 262.641 222.897 263.386C222.764 264.131 222.697 265.043 222.697 266.121C222.697 267.239 222.764 268.177 222.897 268.935C223.03 269.694 223.309 270.306 223.735 270.772C224.174 271.237 224.813 271.47 225.651 271.47C226.49 271.47 227.122 271.237 227.548 270.772C227.987 270.306 228.273 269.694 228.406 268.935C228.539 268.177 228.605 267.239 228.605 266.121Z" fill="#939393"/>
<defs>
<filter id="filter0_i_1375_15493" x="15.4551" y="104.801" width="300.266" height="278.449" filterUnits="userSpaceOnUse" color-interpolation-filters="sRGB">
<feFlood flood-opacity="0" result="BackgroundImageFix"/>
<feBlend mode="normal" in="SourceGraphic" in2="BackgroundImageFix" result="shape"/>
<feColorMatrix in="SourceAlpha" type="matrix" values="0 0 0 0 0 0 0 0 0 0 0 0 0 0 0 0 0 0 127 0" result="hardAlpha"/>
<feOffset/>
<feGaussianBlur stdDeviation="5.6067"/>
<feComposite in2="hardAlpha" operator="arithmetic" k2="-1" k3="1"/>
<feColorMatrix type="matrix" values="0 0 0 0 0 0 0 0 0 0 0 0 0 0 0 0 0 0 0.08 0"/>
<feBlend mode="normal" in2="shape" result="effect1_innerShadow_1375_15493"/>
</filter>
<linearGradient id="paint0_linear_1375_15493" x1="258.567" y1="380.1" x2="67.0508" y2="112.491" gradientUnits="userSpaceOnUse">
<stop stop-color="#FF0000"/>
<stop offset="1" stop-color="#FFD000"/>
</linearGradient>
<linearGradient id="paint1_linear_1375_15493" x1="152.411" y1="106.119" x2="81.2957" y2="377.412" gradientUnits="userSpaceOnUse">
<stop stop-color="#FFE100"/>
<stop offset="1" stop-color="#15B822"/>
</linearGradient>
<linearGradient id="paint2_linear_1375_15493" x1="159.943" y1="104.934" x2="159.943" y2="160.765" gradientUnits="userSpaceOnUse">
<stop stop-color="#FFE201"/>
<stop offset="1" stop-color="#D6DB07"/>
</linearGradient>
</defs>
</svg>
