<svg viewBox="0 0 16 16" fill="none" xmlns="http://www.w3.org/2000/svg">
	<path id="Vector" d="M10.496 10.9704C9.74052 10.9209 9.14652 10.2959 9.14652 9.53192C9.14652 9.50642 9.14702 9.48092 9.14852 9.45542V9.45892C9.14702 9.43492 9.14602 9.40692 9.14602 9.37842C9.14602 8.61592 9.74102 7.99292 10.492 7.94742H10.496C11.2505 7.98842 11.8465 8.60992 11.8465 9.37092C11.8465 9.40192 11.8455 9.43242 11.8435 9.46292V9.45892C11.845 9.48392 11.846 9.51342 11.846 9.54292C11.846 10.3044 11.2505 10.9269 10.4995 10.9699H10.4955L10.496 10.9704ZM5.51302 10.9704C4.75752 10.9209 4.16352 10.2959 4.16352 9.53192C4.16352 9.50642 4.16402 9.48092 4.16552 9.45542V9.45892C4.16402 9.43492 4.16302 9.40692 4.16302 9.37842C4.16302 8.61592 4.75802 7.99292 5.50902 7.94742H5.51302C6.26752 7.98842 6.86352 8.60992 6.86352 9.37092C6.86352 9.40192 6.86252 9.43242 6.86052 9.46292V9.45892C6.86202 9.48292 6.86302 9.51092 6.86302 9.53942C6.86302 10.3019 6.26802 10.9249 5.51702 10.9704H5.51302ZM13.1965 4.12142C12.315 3.70542 11.291 3.37642 10.219 3.18592L10.1445 3.17492C10.142 3.17442 10.139 3.17392 10.136 3.17392C10.1185 3.17392 10.1035 3.18342 10.0955 3.19742C9.97852 3.40292 9.85152 3.65942 9.73702 3.92242L9.71552 3.97792C9.20052 3.89542 8.60652 3.84842 8.00152 3.84842C7.39652 3.84842 6.80252 3.89542 6.22302 3.98592L6.28752 3.97742C6.15252 3.66242 6.02352 3.40642 5.88102 3.15842L5.90152 3.19692C5.89302 3.18242 5.87752 3.17342 5.86002 3.17342C5.85752 3.17342 5.85452 3.17342 5.85202 3.17392C4.70552 3.37542 3.68152 3.70392 2.72452 4.15242L2.80002 4.12042C2.79152 4.12392 2.78452 4.12992 2.78002 4.13742C1.35302 6.15792 0.499023 8.67192 0.499023 11.3854C0.499023 11.8389 0.523023 12.2864 0.569523 12.7274L0.565023 12.6724C0.566523 12.6869 0.574023 12.6989 0.584523 12.7074C1.65452 13.5079 2.89852 14.1529 4.24102 14.5764L4.32902 14.6004C4.33302 14.6019 4.33802 14.6024 4.34302 14.6024C4.35902 14.6024 4.37302 14.5949 4.38152 14.5834C4.64902 14.2234 4.90352 13.8154 5.12402 13.3874L5.14752 13.3374C5.15052 13.3314 5.15252 13.3239 5.15252 13.3159C5.15252 13.2954 5.13952 13.2784 5.12152 13.2714H5.12102C4.66502 13.0954 4.27952 12.9079 3.91252 12.6929L3.95102 12.7139C3.93652 12.7054 3.92702 12.6899 3.92702 12.6724C3.92702 12.6569 3.93452 12.6429 3.94602 12.6344C4.02452 12.5754 4.10352 12.5144 4.17852 12.4524C4.18652 12.4459 4.19702 12.4419 4.20802 12.4419C4.21502 12.4419 4.22152 12.4434 4.22702 12.4459H4.22652C5.33052 12.9764 6.62652 13.2864 7.99452 13.2864C9.36252 13.2864 10.659 12.9764 11.816 12.4229L11.7625 12.4459C11.7685 12.4429 11.775 12.4414 11.7825 12.4414C11.7935 12.4414 11.804 12.4454 11.812 12.4519C11.887 12.5139 11.9655 12.5759 12.045 12.6344C12.0565 12.6434 12.064 12.6574 12.064 12.6729C12.064 12.6904 12.0545 12.7054 12.041 12.7139C11.7105 12.9114 11.325 13.0984 10.9235 13.2529L10.871 13.2709C10.853 13.2779 10.84 13.2954 10.84 13.3154C10.84 13.3234 10.842 13.3309 10.8455 13.3374C11.096 13.8174 11.35 14.2244 11.631 14.6109L11.611 14.5824C11.6195 14.5944 11.634 14.6024 11.6495 14.6024C11.6545 14.6024 11.6595 14.6014 11.664 14.6004C13.0965 14.1544 14.3425 13.5094 15.4465 12.6844L15.414 12.7079C15.425 12.6999 15.432 12.6874 15.4335 12.6734C15.477 12.2814 15.5015 11.8264 15.5015 11.3659C15.5015 8.65842 14.6455 6.15092 13.19 4.09892L13.216 4.13792C13.212 4.12992 13.205 4.12342 13.197 4.11992L13.1965 4.12142Z" fill="#5865F2"/>
</svg>
