<svg width="72" height="72" viewBox="0 0 72 72" fill="none" xmlns="http://www.w3.org/2000/svg">
<path d="M21 48.5787C23.9777 52.1342 29.933 55.6898 35.8884 55.6898M35.8884 55.6898C43.3325 55.6898 50.7767 53.912 50.7767 45.0231C50.7767 36.1342 43.48 34.3564 35.8884 34.3564M35.8884 55.6898V34.3564M35.8884 55.6898V66.3564M35.8884 34.3564C28.4442 34.3564 21 32.5787 21 23.6898C21 14.8009 28.4442 13.0231 35.8884 13.0231M35.8884 34.3564V13.0231M35.8884 13.0231C41.8437 13.0231 47.7991 16.5787 50.7767 20.1342M35.8884 13.0231V2.35645" stroke="url(#paint0_linear_1_22937)" stroke-width="3"/>
<defs>
<linearGradient id="paint0_linear_1_22937" x1="21" y1="2.35645" x2="62.8719" y2="3.59179" gradientUnits="userSpaceOnUse">
<stop stop-color="#46D3F2"/>
<stop offset="1" stop-color="#4494F2"/>
</linearGradient>
</defs>
</svg>
