<svg viewBox="0 0 138 162" fill="none" xmlns="http://www.w3.org/2000/svg">
	<path d="M1.37822 22.0788C58.6178 -17.584 114.6 4.943 136.811 22.1065C137.234 22.4327 137.445 22.5959 137.611 22.8216C137.748 23.0086 137.859 23.2341 137.923 23.4574C138 23.7268 138 24.0123 138 24.5832V82.6882C138 92.2777 138 97.0724 136.665 103.505C135.81 107.628 133.064 115.507 131.172 119.268C128.219 125.136 126.555 127.234 123.227 131.429C119.647 135.94 115.71 140.262 111.764 143.404C97.614 154.673 69.2624 162 69.2624 162C69.2624 162 40.9774 154.59 26.7605 143.404C22.8715 140.344 18.9728 136.166 15.4014 131.782C11.9032 127.489 10.1541 125.342 7.09019 119.387C5.11906 115.556 2.2784 107.572 1.38644 103.357C0 96.8049 0 91.8841 0 82.0423V24.7083C0 24.0926 0 23.7848 0.0859742 23.5011C0.158068 23.2632 0.27859 23.0331 0.433052 22.8383C0.61725 22.6061 0.870903 22.4303 1.3782 22.0788L1.37822 22.0788Z" fill="#EFDBFF"/>
	<path d="M4.36995 24.225C59.0643 -13.8922 112.549 7.73457 133.818 24.2528C134.238 24.5787 134.447 24.7416 134.613 24.967C134.75 25.1536 134.86 25.379 134.923 25.6015C135 25.8703 135 26.1546 135 26.7232V81.7957C135 91.3075 135 96.0634 133.649 102.535C132.793 106.634 129.979 114.651 128.086 118.386C125.098 124.283 123.505 126.273 120.32 130.253C117.044 134.345 113.478 138.228 109.905 141.093C96.3699 151.945 69.251 159 69.251 159C69.251 159 42.1958 151.865 28.597 141.093C25.0844 138.31 21.5635 134.567 18.3057 130.605C14.9571 126.532 13.2828 124.496 10.1805 118.511C8.20867 114.707 5.29703 106.581 4.40438 102.391C3 95.798 3 90.9162 3 81.1525V26.8483C3 26.2349 3 25.9282 3.0855 25.6452C3.15716 25.4081 3.27715 25.1782 3.43073 24.9838C3.61397 24.7519 3.86596 24.5763 4.36993 24.2251L4.36995 24.225Z" fill="#531DAB"/>
	<path d="M86.5568 40.128L69.5328 80H60.4448L77.5968 41.152H55.7088V33.472H86.5568V40.128Z" fill="white"/>
	<path d="M36.6314 94.966C39.0514 94.966 41.1744 95.439 43.0004 96.385C44.8484 97.331 46.2674 98.684 47.2574 100.444C48.2694 102.182 48.7754 104.206 48.7754 106.516C48.7754 108.826 48.2694 110.85 47.2574 112.588C46.2674 114.304 44.8484 115.635 43.0004 116.581C41.1744 117.527 39.0514 118 36.6314 118H28.5794V94.966H36.6314ZM36.4664 114.073C38.8864 114.073 40.7564 113.413 42.0764 112.093C43.3964 110.773 44.0564 108.914 44.0564 106.516C44.0564 104.118 43.3964 102.248 42.0764 100.906C40.7564 99.542 38.8864 98.86 36.4664 98.86H33.1994V114.073H36.4664ZM65.3677 113.611H56.1937L54.6757 118H49.8247L58.1077 94.933H63.4867L71.7697 118H66.8857L65.3677 113.611ZM64.1137 109.915L60.7807 100.279L57.4477 109.915H64.1137ZM92.1908 94.966L84.4028 109.981V118H79.7828V109.981L71.9618 94.966H77.1758L82.1258 105.493L87.0428 94.966H92.1908ZM101.818 118.231C100.212 118.231 98.7602 117.956 97.4622 117.406C96.1862 116.856 95.1742 116.064 94.4262 115.03C93.6782 113.996 93.2932 112.775 93.2712 111.367H98.2212C98.2872 112.313 98.6172 113.061 99.2112 113.611C99.8272 114.161 100.663 114.436 101.719 114.436C102.797 114.436 103.644 114.183 104.26 113.677C104.876 113.149 105.184 112.467 105.184 111.631C105.184 110.949 104.975 110.388 104.557 109.948C104.139 109.508 103.611 109.167 102.973 108.925C102.357 108.661 101.499 108.375 100.399 108.067C98.9032 107.627 97.6822 107.198 96.7362 106.78C95.8122 106.34 95.0092 105.691 94.3272 104.833C93.6672 103.953 93.3372 102.787 93.3372 101.335C93.3372 99.971 93.6782 98.783 94.3602 97.771C95.0422 96.759 95.9992 95.989 97.2312 95.461C98.4632 94.911 99.8712 94.636 101.455 94.636C103.831 94.636 105.756 95.219 107.23 96.385C108.726 97.529 109.551 99.135 109.705 101.203H104.623C104.579 100.411 104.238 99.762 103.6 99.256C102.984 98.728 102.159 98.464 101.125 98.464C100.223 98.464 99.4972 98.695 98.9472 99.157C98.4192 99.619 98.1552 100.29 98.1552 101.17C98.1552 101.786 98.3532 102.303 98.7492 102.721C99.1672 103.117 99.6732 103.447 100.267 103.711C100.883 103.953 101.741 104.239 102.841 104.569C104.337 105.009 105.558 105.449 106.504 105.889C107.45 106.329 108.264 106.989 108.946 107.869C109.628 108.749 109.969 109.904 109.969 111.334C109.969 112.566 109.65 113.71 109.012 114.766C108.374 115.822 107.439 116.669 106.207 117.307C104.975 117.923 103.512 118.231 101.818 118.231Z" fill="white"/>
</svg>
