<svg xmlns="http://www.w3.org/2000/svg" viewBox="0 0 16 16" fill="none">
  <g clip-path="url(#clip)">
    <path fill-rule="evenodd" clip-rule="evenodd" d="M8 12C10.2091 12 12 10.2091 12 8C12 5.79086 10.2091 4 8 4C5.79086 4 4 5.79086 4 8C4 10.2091 5.79086 12 8 12ZM8 10.6667C9.47273 10.6667 10.6667 9.47273 10.6667 8C10.6667 6.52724 9.47273 5.33333 8 5.33333C6.52724 5.33333 5.33333 6.52724 5.33333 8C5.33333 9.47273 6.52724 10.6667 8 10.6667Z" fill="black"/>
    <path fill-rule="evenodd" clip-rule="evenodd" d="M8 12C10.2091 12 12 10.2091 12 8C12 5.79086 10.2091 4 8 4C5.79086 4 4 5.79086 4 8C4 10.2091 5.79086 12 8 12ZM8 10.6667C9.47273 10.6667 10.6667 9.47273 10.6667 8C10.6667 6.52724 9.47273 5.33333 8 5.33333C6.52724 5.33333 5.33333 6.52724 5.33333 8C5.33333 9.47273 6.52724 10.6667 8 10.6667Z" fill="url(#red)"/>
    <path d="M12.0007 3.33325C11.6325 3.33325 11.334 3.63173 11.334 3.99992C11.334 4.36811 11.6325 4.66659 12.0007 4.66659C12.3689 4.66659 12.6673 4.36811 12.6673 3.99992C12.6673 3.63173 12.3689 3.33325 12.0007 3.33325Z" fill="black"/>
    <path d="M12.0007 3.33325C11.6325 3.33325 11.334 3.63173 11.334 3.99992C11.334 4.36811 11.6325 4.66659 12.0007 4.66659C12.3689 4.66659 12.6673 4.36811 12.6673 3.99992C12.6673 3.63173 12.3689 3.33325 12.0007 3.33325Z" fill="#654C9F"/>
    <path fill-rule="evenodd" clip-rule="evenodd" d="M1.10199 2.85079C0.666016 3.70643 0.666016 4.82654 0.666016 7.06675V8.93341C0.666016 11.1736 0.666016 12.2937 1.10199 13.1493C1.48548 13.902 2.0974 14.5139 2.85006 14.8974C3.7057 15.3334 4.82581 15.3334 7.06602 15.3334H8.93268C11.1729 15.3334 12.293 15.3334 13.1486 14.8974C13.9013 14.5139 14.5132 13.902 14.8967 13.1493C15.3327 12.2937 15.3327 11.1736 15.3327 8.93341V7.06675C15.3327 4.82654 15.3327 3.70643 14.8967 2.85079C14.5132 2.09813 13.9013 1.48621 13.1486 1.10272C12.293 0.666748 11.1729 0.666748 8.93268 0.666748H7.06602C4.82581 0.666748 3.7057 0.666748 2.85006 1.10272C2.0974 1.48621 1.48548 2.09813 1.10199 2.85079ZM8.93268 2.00008H7.06602C5.92391 2.00008 5.14752 2.00112 4.5474 2.05015C3.96284 2.09791 3.66391 2.18447 3.45538 2.29073C2.95361 2.54639 2.54566 2.95434 2.29 3.45611C2.18374 3.66464 2.09718 3.96357 2.04942 4.54813C2.00039 5.14825 1.99935 5.92464 1.99935 7.06675V8.93341C1.99935 10.0755 2.00039 10.8519 2.04942 11.452C2.09718 12.0366 2.18374 12.3355 2.29 12.5441C2.54566 13.0458 2.95361 13.4537 3.45538 13.7094C3.66391 13.8157 3.96284 13.9023 4.5474 13.95C5.14752 13.999 5.92391 14.0001 7.06602 14.0001H8.93268C10.0748 14.0001 10.8511 13.999 11.4513 13.95C12.0359 13.9023 12.3348 13.8157 12.5433 13.7094C13.0451 13.4537 13.453 13.0458 13.7087 12.5441C13.8149 12.3355 13.9015 12.0366 13.9493 11.452C13.9983 10.8519 13.9993 10.0755 13.9993 8.93341V7.06675C13.9993 5.92464 13.9983 5.14825 13.9493 4.54813C13.9015 3.96357 13.8149 3.66464 13.7087 3.45611C13.453 2.95434 13.0451 2.54639 12.5433 2.29073C12.3348 2.18447 12.0359 2.09791 11.4513 2.05015C10.8511 2.00112 10.0748 2.00008 8.93268 2.00008Z" fill="black"/>
    <path fill-rule="evenodd" clip-rule="evenodd" d="M1.10199 2.85079C0.666016 3.70643 0.666016 4.82654 0.666016 7.06675V8.93341C0.666016 11.1736 0.666016 12.2937 1.10199 13.1493C1.48548 13.902 2.0974 14.5139 2.85006 14.8974C3.7057 15.3334 4.82581 15.3334 7.06602 15.3334H8.93268C11.1729 15.3334 12.293 15.3334 13.1486 14.8974C13.9013 14.5139 14.5132 13.902 14.8967 13.1493C15.3327 12.2937 15.3327 11.1736 15.3327 8.93341V7.06675C15.3327 4.82654 15.3327 3.70643 14.8967 2.85079C14.5132 2.09813 13.9013 1.48621 13.1486 1.10272C12.293 0.666748 11.1729 0.666748 8.93268 0.666748H7.06602C4.82581 0.666748 3.7057 0.666748 2.85006 1.10272C2.0974 1.48621 1.48548 2.09813 1.10199 2.85079ZM8.93268 2.00008H7.06602C5.92391 2.00008 5.14752 2.00112 4.5474 2.05015C3.96284 2.09791 3.66391 2.18447 3.45538 2.29073C2.95361 2.54639 2.54566 2.95434 2.29 3.45611C2.18374 3.66464 2.09718 3.96357 2.04942 4.54813C2.00039 5.14825 1.99935 5.92464 1.99935 7.06675V8.93341C1.99935 10.0755 2.00039 10.8519 2.04942 11.452C2.09718 12.0366 2.18374 12.3355 2.29 12.5441C2.54566 13.0458 2.95361 13.4537 3.45538 13.7094C3.66391 13.8157 3.96284 13.9023 4.5474 13.95C5.14752 13.999 5.92391 14.0001 7.06602 14.0001H8.93268C10.0748 14.0001 10.8511 13.999 11.4513 13.95C12.0359 13.9023 12.3348 13.8157 12.5433 13.7094C13.0451 13.4537 13.453 13.0458 13.7087 12.5441C13.8149 12.3355 13.9015 12.0366 13.9493 11.452C13.9983 10.8519 13.9993 10.0755 13.9993 8.93341V7.06675C13.9993 5.92464 13.9983 5.14825 13.9493 4.54813C13.9015 3.96357 13.8149 3.66464 13.7087 3.45611C13.453 2.95434 13.0451 2.54639 12.5433 2.29073C12.3348 2.18447 12.0359 2.09791 11.4513 2.05015C10.8511 2.00112 10.0748 2.00008 8.93268 2.00008Z" fill="url(#pink)"/>
  </g>
  <defs>
    <radialGradient id="red" cx="0" cy="0" r="1" gradientUnits="userSpaceOnUse" gradientTransform="translate(4.14509 11.2664) rotate(-3.00009) scale(11.5683 9.83295)">
      <stop stop-color="#FED576"/>
      <stop offset="0.2634" stop-color="#F47133"/>
      <stop offset="0.6091" stop-color="#BC3081"/>
      <stop offset="1" stop-color="#4C63D2"/>
    </radialGradient>
    <radialGradient id="pink" cx="0" cy="0" r="1" gradientUnits="userSpaceOnUse" gradientTransform="translate(0.932876 13.9906) rotate(-3.0007) scale(21.2045 18.0273)">
      <stop stop-color="#FED576"/>
      <stop offset="0.2634" stop-color="#F47133"/>
      <stop offset="0.6091" stop-color="#BC3081"/>
      <stop offset="1" stop-color="#4C63D2"/>
    </radialGradient>
    <clipPath id="clip">
      <rect width="16" height="16" fill="white"/>
    </clipPath>
  </defs>
</svg>