<svg viewBox="0 0 16 16" fill="none" xmlns="http://www.w3.org/2000/svg">
	<path fill-rule="evenodd" clip-rule="evenodd" d="M15.1109 15.1111H12.2665V10.134C12.2665 8.76869 11.6641 8.00694 10.584 8.00694C9.4085 8.00694 8.7109 8.80069 8.7109 10.134V15.1111H5.86645V5.86666H8.7109V6.90625C8.7109 6.90625 9.60333 5.34027 11.6144 5.34027C13.6261 5.34027 15.1109 6.56789 15.1109 9.10798V15.1111ZM2.62521 4.38819C1.66592 4.38819 0.888672 3.60459 0.888672 2.63819C0.888672 1.6725 1.66592 0.888885 2.62521 0.888885C3.58378 0.888885 4.36102 1.6725 4.36102 2.63819C4.36174 3.60459 3.58378 4.38819 2.62521 4.38819ZM0.888672 15.1111H4.44423V5.86666H0.888672V15.1111Z" fill="#007EBB"/>
</svg>
