<svg viewBox="0 0 75 74" fill="none" xmlns="http://www.w3.org/2000/svg">
<mask id="path-1-inside-1_4058_5753" fill="white">
<path fill-rule="evenodd" clip-rule="evenodd" d="M52.1058 32.3308C55.3429 29.9615 57.4453 26.1336 57.4453 21.8147C57.4453 14.6222 51.6146 8.7915 44.4221 8.7915C37.2296 8.7915 31.3989 14.6222 31.3989 21.8147C31.3989 26.1336 33.5013 29.9615 36.7384 32.3308C20.4564 35.8632 20.5615 51.1823 20.9942 62.7991C21.1176 66.1105 23.8526 68.7916 27.1663 68.7916H61.6777C64.9915 68.7916 67.7265 66.1105 67.8498 62.7991C68.2825 51.1823 68.3877 35.8633 52.1058 32.3308Z"/>
</mask>
<path fill-rule="evenodd" clip-rule="evenodd" d="M52.1058 32.3308C55.3429 29.9615 57.4453 26.1336 57.4453 21.8147C57.4453 14.6222 51.6146 8.7915 44.4221 8.7915C37.2296 8.7915 31.3989 14.6222 31.3989 21.8147C31.3989 26.1336 33.5013 29.9615 36.7384 32.3308C20.4564 35.8632 20.5615 51.1823 20.9942 62.7991C21.1176 66.1105 23.8526 68.7916 27.1663 68.7916H61.6777C64.9915 68.7916 67.7265 66.1105 67.8498 62.7991C68.2825 51.1823 68.3877 35.8633 52.1058 32.3308Z" fill="white"/>
<path d="M52.1058 32.3308L50.9245 30.7169L47.3369 33.3427L51.6817 34.2853L52.1058 32.3308ZM36.7384 32.3308L37.1625 34.2853L41.5073 33.3427L37.9196 30.7169L36.7384 32.3308ZM20.9942 62.7991L22.9928 62.7247L22.9928 62.7247L20.9942 62.7991ZM67.8498 62.7991L65.8512 62.7247L65.8512 62.7247L67.8498 62.7991ZM55.4453 21.8147C55.4453 25.4689 53.6692 28.7081 50.9245 30.7169L53.287 33.9447C57.0166 31.215 59.4453 26.7983 59.4453 21.8147H55.4453ZM44.4221 10.7915C50.51 10.7915 55.4453 15.7268 55.4453 21.8147H59.4453C59.4453 13.5176 52.7192 6.7915 44.4221 6.7915V10.7915ZM33.3989 21.8147C33.3989 15.7268 38.3342 10.7915 44.4221 10.7915V6.7915C36.125 6.7915 29.3989 13.5176 29.3989 21.8147H33.3989ZM37.9196 30.7169C35.175 28.708 33.3989 25.4689 33.3989 21.8147H29.3989C29.3989 26.7983 31.8276 31.215 35.5572 33.9447L37.9196 30.7169ZM36.3144 30.3762C31.939 31.3255 28.555 33.0943 25.9863 35.4837C23.4233 37.8679 21.7661 40.7822 20.7056 43.8869C18.6132 50.013 18.781 57.1121 18.9956 62.8736L22.9928 62.7247C22.7747 56.8693 22.6736 50.5005 24.4909 45.1798C25.3854 42.561 26.7277 40.2571 28.7107 38.4125C30.6882 36.573 33.3968 35.1023 37.1625 34.2853L36.3144 30.3762ZM18.9956 62.8736C19.1582 67.2401 22.7573 70.7916 27.1663 70.7916V66.7916C24.9479 66.7916 23.0769 64.981 22.9928 62.7247L18.9956 62.8736ZM27.1663 70.7916H61.6777V66.7916H27.1663V70.7916ZM61.6777 70.7916C66.0867 70.7916 69.6858 67.2401 69.8485 62.8736L65.8512 62.7247C65.7672 64.981 63.8962 66.7916 61.6777 66.7916V70.7916ZM69.8485 62.8736C70.0631 57.1122 70.2308 50.013 68.1384 43.8869C67.078 40.7822 65.4208 37.868 62.8578 35.4838C60.2892 33.0944 56.9052 31.3255 52.5298 30.3763L51.6817 34.2853C55.4473 35.1023 58.1559 36.573 60.1334 38.4125C62.1164 40.2572 63.4587 42.561 64.3531 45.1798C66.1705 50.5005 66.0693 56.8693 65.8512 62.7247L69.8485 62.8736Z" fill="url(#paint0_linear_4058_5753)" mask="url(#path-1-inside-1_4058_5753)"/>
<mask id="path-3-inside-2_4058_5753" fill="white">
<path fill-rule="evenodd" clip-rule="evenodd" d="M38.2522 29.0178C41.4894 26.6485 43.5918 22.8206 43.5918 18.5017C43.5918 11.3092 37.7611 5.47852 30.5686 5.47852C23.3761 5.47852 17.5454 11.3092 17.5454 18.5017C17.5454 22.8206 19.6477 26.6485 22.8849 29.0178C6.60284 32.5502 6.708 47.8693 7.1407 59.4861C7.26404 62.7975 9.99909 65.4786 13.3128 65.4786L47.8242 65.4786C51.1379 65.4786 53.873 62.7975 53.9963 59.4861C54.429 47.8693 54.5342 32.5503 38.2522 29.0178Z"/>
</mask>
<path fill-rule="evenodd" clip-rule="evenodd" d="M38.2522 29.0178C41.4894 26.6485 43.5918 22.8206 43.5918 18.5017C43.5918 11.3092 37.7611 5.47852 30.5686 5.47852C23.3761 5.47852 17.5454 11.3092 17.5454 18.5017C17.5454 22.8206 19.6477 26.6485 22.8849 29.0178C6.60284 32.5502 6.708 47.8693 7.1407 59.4861C7.26404 62.7975 9.99909 65.4786 13.3128 65.4786L47.8242 65.4786C51.1379 65.4786 53.873 62.7975 53.9963 59.4861C54.429 47.8693 54.5342 32.5503 38.2522 29.0178Z" fill="white"/>
<path d="M38.2522 29.0178L37.071 27.4039L33.4834 30.0297L37.8282 30.9723L38.2522 29.0178ZM22.8849 29.0178L23.3089 30.9723L27.6538 30.0297L24.0661 27.4039L22.8849 29.0178ZM7.1407 59.4861L5.14209 59.5606L5.14209 59.5606L7.1407 59.4861ZM13.3128 65.4786L13.3128 67.4786L13.3128 65.4786ZM47.8242 65.4786L47.8242 63.4786L47.8242 65.4786ZM53.9963 59.4861L51.9977 59.4117L51.9977 59.4117L53.9963 59.4861ZM41.5918 18.5017C41.5918 22.1559 39.8157 25.3951 37.071 27.4039L39.4335 30.6317C43.1631 27.902 45.5918 23.4853 45.5918 18.5017H41.5918ZM30.5686 7.47852C36.6565 7.47852 41.5918 12.4138 41.5918 18.5017H45.5918C45.5918 10.2046 38.8657 3.47852 30.5686 3.47852V7.47852ZM19.5454 18.5017C19.5454 12.4138 24.4806 7.47852 30.5686 7.47852V3.47852C22.2715 3.47852 15.5454 10.2046 15.5454 18.5017H19.5454ZM24.0661 27.4039C21.3215 25.395 19.5454 22.1559 19.5454 18.5017H15.5454C15.5454 23.4853 17.974 27.902 21.7037 30.6317L24.0661 27.4039ZM22.4609 27.0633C18.0854 28.0125 14.7015 29.7813 12.1328 32.1707C9.56976 34.5549 7.91255 37.4692 6.85212 40.5739C4.75969 46.7 4.92749 53.7992 5.14209 59.5606L9.13931 59.4117C8.92121 53.5563 8.82008 47.1875 10.6374 41.8668C11.5319 39.248 12.8742 36.9441 14.8572 35.0995C16.8347 33.26 19.5433 31.7893 23.3089 30.9723L22.4609 27.0633ZM5.14209 59.5606C5.30473 63.9271 8.90381 67.4786 13.3128 67.4786V63.4786C11.0944 63.4786 9.22336 61.668 9.13931 59.4117L5.14209 59.5606ZM13.3128 67.4786L47.8242 67.4786L47.8242 63.4786L13.3128 63.4786L13.3128 67.4786ZM47.8242 67.4786C52.2332 67.4786 55.8323 63.9271 55.9949 59.5606L51.9977 59.4117C51.9137 61.668 50.0427 63.4786 47.8242 63.4786V67.4786ZM55.9949 59.5606C56.2095 53.7992 56.3773 46.7 54.2849 40.5739C53.2245 37.4692 51.5673 34.555 49.0042 32.1708C46.4356 29.7814 43.0517 28.0126 38.6763 27.0633L37.8282 30.9723C41.5938 31.7893 44.3024 33.2601 46.2798 35.0995C48.2629 36.9442 49.6052 39.2481 50.4996 41.8668C52.3169 47.1875 52.2158 53.5563 51.9977 59.4117L55.9949 59.5606Z" fill="url(#paint1_linear_4058_5753)" mask="url(#path-3-inside-2_4058_5753)"/>
<defs>
<linearGradient id="paint0_linear_4058_5753" x1="20.8756" y1="8.7915" x2="86.9912" y2="12.0821" gradientUnits="userSpaceOnUse">
<stop stop-color="#46D3F2"/>
<stop offset="1" stop-color="#4494F2"/>
</linearGradient>
<linearGradient id="paint1_linear_4058_5753" x1="7.02209" y1="5.47852" x2="73.1377" y2="8.76912" gradientUnits="userSpaceOnUse">
<stop stop-color="#46D3F2"/>
<stop offset="1" stop-color="#4494F2"/>
</linearGradient>
</defs>
</svg>
