<svg viewBox="0 0 16 16" fill="none" xmlns="http://www.w3.org/2000/svg">
	<path fill-rule="evenodd" clip-rule="evenodd" d="M7.90081 0C3.51921 0 0 3.54772 0 7.9668C0 11.2468 1.9256 13.9915 4.7144 15.2637C4.7144 13.7697 4.704 13.9622 5.8424 9.1043C5.21679 7.84182 5.7032 5.75742 7.104 5.75742C9.048 5.75742 7.7272 8.63962 7.5024 9.77383C7.30321 10.6443 7.9672 11.3141 8.764 11.3141C10.2912 11.3141 11.2864 9.37217 11.2864 7.09648C11.2864 5.35563 10.092 4.08359 8.03361 4.08359C4.37361 4.08359 3.4456 8.15965 4.7144 9.43906C5.0336 9.92227 4.7144 9.9449 4.7144 10.5773C4.4928 11.2461 2.7224 10.274 2.7224 7.76602C2.7224 5.48952 4.5816 2.81211 8.3656 2.81211C11.3528 2.81211 13.3448 5.02101 13.3448 7.36445C13.3448 10.5106 11.6184 12.7871 9.096 12.7871C8.2328 12.7871 7.436 12.3181 7.1704 11.7824C6.688 13.6588 6.59039 14.6101 5.8424 15.6652C6.57279 15.8661 7.3032 16 8.1 16C12.4816 16 16 12.4523 16 8.03398C15.8016 3.54795 12.2824 0 7.90081 0Z" fill="#E11A2F"/>
</svg>
