<svg viewBox="0 0 16 16" fill="none" xmlns="http://www.w3.org/2000/svg">
	<path d="M12.9818 4.00813C12.8806 3.9558 12.782 3.89844 12.6865 3.83625C12.4088 3.65265 12.1541 3.4363 11.9281 3.19188C11.3625 2.54469 11.1512 1.88813 11.0734 1.42844H11.0765C11.0115 1.04688 11.0384 0.800003 11.0425 0.800003H8.46621V10.7619C8.46621 10.8956 8.46621 11.0278 8.46058 11.1584C8.46058 11.1747 8.45902 11.1897 8.45808 11.2072C8.45808 11.2144 8.45808 11.2219 8.45652 11.2294C8.45652 11.2313 8.45652 11.2331 8.45652 11.235C8.42936 11.5924 8.31479 11.9377 8.12287 12.2405C7.93095 12.5432 7.66757 12.7942 7.35589 12.9713C7.03106 13.1561 6.66367 13.253 6.28996 13.2525C5.08964 13.2525 4.11683 12.2738 4.11683 11.065C4.11683 9.85625 5.08964 8.8775 6.28996 8.8775C6.51717 8.87729 6.74299 8.91305 6.95902 8.98344L6.96214 6.36031C6.30632 6.2756 5.64006 6.32772 5.00539 6.51339C4.37071 6.69906 3.78141 7.01424 3.27464 7.43906C2.8306 7.82488 2.45729 8.28522 2.17152 8.79938C2.06277 8.98688 1.65246 9.74032 1.60277 10.9631C1.57152 11.6572 1.77996 12.3763 1.87933 12.6734V12.6797C1.94183 12.8547 2.18402 13.4519 2.57871 13.9553C2.89697 14.3591 3.27298 14.7139 3.69464 15.0081V15.0019L3.70089 15.0081C4.94808 15.8556 6.33089 15.8 6.33089 15.8C6.57027 15.7903 7.37214 15.8 8.28277 15.3684C9.29277 14.89 9.86777 14.1772 9.86777 14.1772C10.2351 13.7513 10.5272 13.2659 10.7315 12.7419C10.9646 12.1291 11.0425 11.3941 11.0425 11.1003V5.81532C11.0737 5.83407 11.49 6.10938 11.49 6.10938C11.49 6.10938 12.0896 6.49375 13.0253 6.74407C13.6965 6.92219 14.6009 6.95969 14.6009 6.95969V4.40219C14.284 4.43657 13.6406 4.33657 12.9818 4.00813Z" fill="black"/>
</svg>
