<svg viewBox="0 0 16 16" fill="none" xmlns="http://www.w3.org/2000/svg">
	<path id="Vector" d="M13.6157 2.80552C13.6157 2.80552 11.8247 2.57996 7.97849 2.57996C4.25703 2.57996 2.38381 2.80552 2.38381 2.80552C1.90537 2.8057 1.44659 2.99611 1.10834 3.33489C0.770092 3.67366 0.580078 4.13307 0.580078 4.61208V11.3885C0.57999 11.6258 0.626574 11.8607 0.717172 12.0799C0.807771 12.2991 0.940608 12.4983 1.1081 12.6661C1.27559 12.834 1.47446 12.9671 1.69335 13.058C1.91223 13.1488 2.14685 13.1957 2.38381 13.1957C2.38381 13.1957 4.12549 13.42 7.97849 13.42C11.8295 13.42 13.6157 13.1957 13.6157 13.1957C13.8527 13.1959 14.0875 13.1493 14.3066 13.0585C14.5256 12.9678 14.7246 12.8346 14.8922 12.6668C15.0598 12.4989 15.1927 12.2996 15.2833 12.0803C15.3739 11.8609 15.4203 11.6259 15.4201 11.3885V4.61073C15.4201 4.37355 15.3734 4.1387 15.2827 3.91959C15.192 3.70049 15.0591 3.50142 14.8915 3.33378C14.7239 3.16613 14.525 3.03319 14.3061 2.94255C14.0872 2.85191 13.8526 2.80534 13.6157 2.80552ZM6.01759 10.6841V5.31849L10.8298 7.99962L6.01759 10.6841Z" fill="#FA1E21"/>
</svg>
