<svg width="471" height="475" viewBox="0 0 471 475" fill="none" xmlns="http://www.w3.org/2000/svg">
<mask id="mask0_3_53" style="mask-type:alpha" maskUnits="userSpaceOnUse" x="93" y="237" width="378" height="238">
<path d="M94.6604 474.068L240.584 238.4H469.4V466.835L94.6604 474.068Z" fill="#D9D9D9" stroke="#4531FA" stroke-width="1.8"/>
</mask>
<g mask="url(#mask0_3_53)">
<mask id="path-2-inside-1_3_53" fill="white">
<path fill-rule="evenodd" clip-rule="evenodd" d="M240.081 427.311C344.912 427.311 429.893 342.329 429.893 237.499C429.893 132.669 344.912 47.687 240.081 47.687C135.251 47.687 50.2694 132.669 50.2694 237.499C50.2694 342.329 135.251 427.311 240.081 427.311ZM239.847 322.303C286.683 322.303 324.652 284.335 324.652 237.499C324.652 190.662 286.683 152.694 239.847 152.694C193.011 152.694 155.042 190.662 155.042 237.499C155.042 284.335 193.011 322.303 239.847 322.303Z"/>
</mask>
<path d="M428.093 237.499C428.093 341.335 343.918 425.511 240.081 425.511V429.111C345.906 429.111 431.693 343.323 431.693 237.499H428.093ZM240.081 49.487C343.918 49.487 428.093 133.663 428.093 237.499H431.693C431.693 131.675 345.906 45.887 240.081 45.887V49.487ZM52.0694 237.499C52.0694 133.663 136.245 49.487 240.081 49.487V45.887C134.257 45.887 48.4694 131.675 48.4694 237.499H52.0694ZM240.081 425.511C136.245 425.511 52.0694 341.335 52.0694 237.499H48.4694C48.4694 343.323 134.257 429.111 240.081 429.111V425.511ZM322.852 237.499C322.852 283.341 285.689 320.503 239.847 320.503V324.103C287.677 324.103 326.452 285.329 326.452 237.499H322.852ZM239.847 154.494C285.689 154.494 322.852 191.656 322.852 237.499H326.452C326.452 189.668 287.677 150.894 239.847 150.894V154.494ZM156.842 237.499C156.842 191.656 194.005 154.494 239.847 154.494V150.894C192.017 150.894 153.242 189.668 153.242 237.499H156.842ZM239.847 320.503C194.005 320.503 156.842 283.341 156.842 237.499H153.242C153.242 285.329 192.017 324.103 239.847 324.103V320.503Z" fill="#4531FA" mask="url(#path-2-inside-1_3_53)"/>
<path d="M195.338 310.115L139.784 399.021" stroke="#4531FA" stroke-width="1.8"/>
<line x1="429.49" y1="238.4" x2="324.654" y2="238.4" stroke="#4531FA" stroke-width="1.8"/>
</g>
<mask id="mask1_3_53" style="mask-type:alpha" maskUnits="userSpaceOnUse" x="0" y="0" width="378" height="238">
<path d="M375.639 0.931747L229.716 236.6L0.899994 236.6L0.900014 8.16516L375.639 0.931747Z" fill="#D9D9D9" stroke="#4531FA" stroke-width="1.8"/>
</mask>
<g mask="url(#mask1_3_53)">
<mask id="path-7-inside-2_3_53" fill="white">
<path fill-rule="evenodd" clip-rule="evenodd" d="M230.218 47.6882C125.388 47.6881 40.4064 132.67 40.4064 237.5C40.4063 342.33 125.388 427.312 230.218 427.312C335.049 427.312 420.03 342.331 420.03 237.5C420.03 132.67 335.049 47.6882 230.218 47.6882ZM230.453 152.696C183.617 152.696 145.648 190.664 145.648 237.501C145.648 284.337 183.617 322.305 230.453 322.305C277.289 322.305 315.258 284.337 315.258 237.501C315.258 190.664 277.289 152.696 230.453 152.696Z"/>
</mask>
<path d="M42.2064 237.5C42.2064 133.664 126.382 49.4881 230.218 49.4882L230.218 45.8882C124.394 45.8881 38.6064 131.676 38.6064 237.5L42.2064 237.5ZM230.218 425.512C126.382 425.512 42.2063 341.336 42.2064 237.5L38.6064 237.5C38.6063 343.325 124.394 429.112 230.218 429.112L230.218 425.512ZM418.23 237.5C418.23 341.336 334.055 425.512 230.218 425.512L230.218 429.112C336.043 429.112 421.83 343.325 421.83 237.5L418.23 237.5ZM230.218 49.4882C334.055 49.4882 418.23 133.664 418.23 237.5L421.83 237.5C421.83 131.676 336.043 45.8882 230.218 45.8882L230.218 49.4882ZM147.448 237.501C147.448 191.658 184.611 154.496 230.453 154.496L230.453 150.896C182.622 150.896 143.848 189.67 143.848 237.501L147.448 237.501ZM230.453 320.505C184.611 320.505 147.448 283.343 147.448 237.501L143.848 237.501C143.848 285.331 182.622 324.105 230.453 324.105L230.453 320.505ZM313.458 237.501C313.458 283.343 276.295 320.505 230.453 320.505L230.453 324.105C278.283 324.105 317.058 285.331 317.058 237.501L313.458 237.501ZM230.453 154.496C276.295 154.496 313.458 191.658 313.458 237.501L317.058 237.501C317.058 189.67 278.283 150.896 230.453 150.896L230.453 154.496Z" fill="#4531FA" mask="url(#path-7-inside-2_3_53)"/>
<line x1="274.325" y1="164.488" x2="329.88" y2="75.5821" stroke="#4531FA" stroke-width="1.8"/>
<line x1="40.8103" y1="236.6" x2="145.646" y2="236.6" stroke="#4531FA" stroke-width="1.8"/>
</g>
</svg>
