<svg width="1052" height="1063" viewBox="0 0 1052 1063" fill="none" xmlns="http://www.w3.org/2000/svg">
<mask id="mask0_3_69" style="mask-type:alpha" maskUnits="userSpaceOnUse" x="208" y="531" width="845" height="532">
<path d="M209.905 1061.47L537.592 532.255H1051V1045.24L209.905 1061.47Z" fill="#D9D9D9" stroke="#4531FA" stroke-width="2"/>
</mask>
<g mask="url(#mask0_3_69)">
<mask id="path-2-inside-1_3_69" fill="white">
<path fill-rule="evenodd" clip-rule="evenodd" d="M537.035 955.836C771.526 955.836 961.618 765.743 961.618 531.253C961.618 296.762 771.526 106.669 537.035 106.669C302.544 106.669 112.452 296.762 112.452 531.253C112.452 765.743 302.544 955.836 537.035 955.836ZM536.51 720.948C641.276 720.948 726.206 636.018 726.206 531.252C726.206 426.485 641.276 341.556 536.51 341.556C431.743 341.556 346.814 426.485 346.814 531.252C346.814 636.018 431.743 720.948 536.51 720.948Z"/>
</mask>
<path d="M959.618 531.253C959.618 764.639 770.421 953.836 537.035 953.836V957.836C772.63 957.836 963.618 766.848 963.618 531.253H959.618ZM537.035 108.669C770.421 108.669 959.618 297.866 959.618 531.253H963.618C963.618 295.657 772.63 104.669 537.035 104.669V108.669ZM114.452 531.253C114.452 297.866 303.649 108.669 537.035 108.669V104.669C301.44 104.669 110.452 295.657 110.452 531.253H114.452ZM537.035 953.836C303.649 953.836 114.452 764.639 114.452 531.253H110.452C110.452 766.848 301.44 957.836 537.035 957.836V953.836ZM724.206 531.252C724.206 634.914 640.172 718.948 536.51 718.948V722.948C642.381 722.948 728.206 637.123 728.206 531.252H724.206ZM536.51 343.556C640.172 343.556 724.206 427.59 724.206 531.252H728.206C728.206 425.381 642.381 339.556 536.51 339.556V343.556ZM348.814 531.252C348.814 427.59 432.848 343.556 536.51 343.556V339.556C430.639 339.556 344.814 425.381 344.814 531.252H348.814ZM536.51 718.948C432.848 718.948 348.814 634.914 348.814 531.252H344.814C344.814 637.123 430.639 722.948 536.51 722.948V718.948Z" fill="#4531FA" mask="url(#path-2-inside-1_3_69)"/>
<path d="M436.95 693.684L312.682 892.554" stroke="#4531FA" stroke-width="2"/>
<line x1="960.709" y1="532.255" x2="726.207" y2="532.255" stroke="#4531FA" stroke-width="2"/>
</g>
<mask id="mask1_3_69" style="mask-type:alpha" maskUnits="userSpaceOnUse" x="0" y="0" width="844" height="532">
<path d="M842.095 1.03534L514.408 530.255L0.999939 530.255L0.999984 17.2706L842.095 1.03534Z" fill="#D9D9D9" stroke="#4531FA" stroke-width="2"/>
</mask>
<g mask="url(#mask1_3_69)">
<mask id="path-7-inside-2_3_69" fill="white">
<path fill-rule="evenodd" clip-rule="evenodd" d="M514.965 106.671C280.474 106.671 90.3817 296.764 90.3817 531.254C90.3817 765.745 280.474 955.838 514.965 955.838C749.456 955.838 939.548 765.745 939.548 531.255C939.548 296.764 749.456 106.671 514.965 106.671ZM515.49 341.559C410.724 341.559 325.794 426.489 325.794 531.255C325.794 636.022 410.724 720.952 515.49 720.952C620.256 720.952 705.186 636.022 705.186 531.255C705.186 426.489 620.257 341.559 515.49 341.559Z"/>
</mask>
<path d="M92.3817 531.254C92.3817 297.868 281.579 108.671 514.965 108.671L514.965 104.671C279.37 104.671 88.3817 295.659 88.3817 531.254L92.3817 531.254ZM514.965 953.838C281.579 953.838 92.3817 764.641 92.3817 531.254L88.3817 531.254C88.3817 766.85 279.37 957.838 514.965 957.838L514.965 953.838ZM937.548 531.255C937.548 764.641 748.351 953.838 514.965 953.838L514.965 957.838C750.56 957.838 941.548 766.85 941.548 531.255L937.548 531.255ZM514.965 108.671C748.351 108.671 937.548 297.868 937.548 531.255L941.548 531.255C941.548 295.659 750.561 104.671 514.965 104.671L514.965 108.671ZM327.794 531.255C327.794 427.594 411.828 343.559 515.49 343.559L515.49 339.559C409.619 339.559 323.794 425.384 323.794 531.255L327.794 531.255ZM515.49 718.952C411.828 718.952 327.794 634.917 327.794 531.255L323.794 531.255C323.794 637.126 409.619 722.952 515.49 722.952L515.49 718.952ZM703.186 531.255C703.186 634.917 619.152 718.952 515.49 718.952L515.49 722.952C621.361 722.952 707.186 637.126 707.186 531.255L703.186 531.255ZM515.49 343.559C619.152 343.559 703.186 427.594 703.186 531.255L707.186 531.255C707.186 425.384 621.361 339.559 515.49 339.559L515.49 343.559Z" fill="#4531FA" mask="url(#path-7-inside-2_3_69)"/>
<line x1="614.488" y1="368.473" x2="738.756" y2="169.604" stroke="#4531FA" stroke-width="2"/>
<line x1="91.291" y1="530.255" x2="325.794" y2="530.255" stroke="#4531FA" stroke-width="2"/>
</g>
</svg>
