<svg width="17" height="16" viewBox="0 0 17 16" fill="none" xmlns="http://www.w3.org/2000/svg">
<path d="M13.4828 1.926H13.1628V1.161C13.1628 0.695996 12.8268 0.395996 12.3468 0.395996C11.8668 0.395996 11.5308 0.695996 11.5308 1.161V1.926H6.21882V1.161C6.21882 0.695996 5.89882 0.395996 5.40282 0.395996C4.90682 0.395996 4.58682 0.695996 4.58682 1.161V1.926H3.85082C2.29882 1.926 0.986816 3.156 0.986816 4.611V12.726C0.986816 14.181 2.29882 15.411 3.85082 15.411H13.4828C15.0348 15.411 16.3468 14.181 16.3468 12.726V4.611C16.3468 3.156 15.0348 1.926 13.4828 1.926ZM3.85082 3.456H13.4828C14.1388 3.456 14.7148 3.996 14.7148 4.611V5.676H2.61882V4.611C2.61882 3.996 3.19482 3.456 3.85082 3.456ZM13.4828 13.866H3.85082C3.19482 13.866 2.61882 13.326 2.61882 12.711V7.206H14.6988V12.711C14.7148 13.326 14.1388 13.866 13.4828 13.866Z" fill="#ABB2B1"/>
<path d="M7.11473 8.12061H6.45873C6.04273 8.12061 5.80273 8.42061 5.80273 8.73561V9.42561C5.80273 9.81561 6.12273 10.0406 6.45873 10.0406H7.11473C7.53073 10.0406 7.77073 9.74061 7.77073 9.42561V8.81061C7.85073 8.43561 7.53073 8.12061 7.11473 8.12061Z" fill="#ABB2B1"/>
<path d="M10.8755 8.12061H10.2195C9.80348 8.12061 9.56348 8.42061 9.56348 8.73561V9.42561C9.56348 9.81561 9.88348 10.0406 10.2195 10.0406H10.8755C11.2915 10.0406 11.5315 9.74061 11.5315 9.42561V8.81061C11.5315 8.43561 11.1955 8.12061 10.8755 8.12061Z" fill="#ABB2B1"/>
<path d="M7.11473 11.106H6.45873C6.04273 11.106 5.80273 11.406 5.80273 11.721V12.336C5.80273 12.726 6.12273 12.951 6.45873 12.951H7.11473C7.53073 12.951 7.77073 12.651 7.77073 12.336V11.721C7.85073 11.421 7.53073 11.106 7.11473 11.106Z" fill="#ABB2B1"/>
</svg>
