<svg width="18" height="17" viewBox="0 0 18 17" fill="none" xmlns="http://www.w3.org/2000/svg">
<path d="M9 16.9336C13.6318 16.9336 17.4668 13.0903 17.4668 8.4668C17.4668 3.83496 13.6235 0 8.9917 0C4.36816 0 0.533203 3.83496 0.533203 8.4668C0.533203 13.0903 4.37646 16.9336 9 16.9336ZM6.06982 12.0859C5.69629 12.0859 5.38916 11.7705 5.38916 11.3887C5.38916 11.2061 5.46387 11.04 5.58838 10.9072L8.02051 8.4751L5.58838 6.04297C5.46387 5.91016 5.38916 5.74414 5.38916 5.56152C5.38916 5.17969 5.69629 4.88086 6.06982 4.88086C6.26904 4.88086 6.42676 4.94727 6.55127 5.08008L8.9917 7.51221L11.457 5.07178C11.5981 4.93066 11.7476 4.86426 11.9302 4.86426C12.3037 4.86426 12.6108 5.17139 12.6108 5.54492C12.6108 5.73584 12.5527 5.88525 12.4116 6.03467L9.97119 8.4751L12.4033 10.8989C12.5361 11.04 12.6025 11.1978 12.6025 11.3887C12.6025 11.7705 12.2954 12.0859 11.9136 12.0859C11.7227 12.0859 11.5566 12.0029 11.4238 11.8784L8.9917 9.44629L6.57617 11.8784C6.44336 12.0112 6.26904 12.0859 6.06982 12.0859Z" fill-opacity="0.6"/>
</svg>
