<svg width="161" height="159" viewBox="0 0 161 159" fill="none" xmlns="http://www.w3.org/2000/svg">
<ellipse cx="80.5" cy="154" rx="80.5" ry="5" fill="#EDEDED"/>
<path d="M110.41 125.771L80 116.982L49.5896 125.771C49.3262 126.299 49.2383 126.826 49.2383 127.441V145.605H110.762V127.441C110.762 126.826 110.674 126.299 110.41 125.771Z" fill="#646D73"/>
<path d="M110.762 145.605V127.441C110.762 126.826 110.674 126.299 110.41 125.771L80 116.982V145.605H110.762Z" fill="#474F54"/>
<path d="M150.605 8.78906H128.151C128.19 7.30459 128.34 5.90625 128.34 4.39453C128.34 1.9333 126.407 0 123.945 0H36.0547C33.5935 0 31.6602 1.9333 31.6602 4.39453C31.6602 5.90625 31.8104 7.30459 31.8485 8.78906H9.39453C6.96553 8.78906 5 10.7546 5 13.1836V24.3158C5 48.8531 24.6559 68.7858 48.8788 70.069C53.9252 77.0171 59.9144 82.1733 66.7285 85.0781C65.6738 106.436 53.457 121.289 50.5569 124.366C50.1172 124.717 49.7656 125.244 49.5898 125.771H110.41C110.234 125.244 109.883 124.717 109.443 124.366C106.455 121.289 94.3262 106.523 93.2715 85.0781C100.087 82.1728 106.112 77.0153 111.163 70.0647C135.365 68.7606 155 48.8394 155 24.3158V13.1836C155 10.7546 153.034 8.78906 150.605 8.78906ZM13.7891 24.3158V17.5781H32.2256C33.3661 32.1029 36.5158 47.4861 43.1357 60.559C26.542 56.8222 13.7891 42.0243 13.7891 24.3158ZM146.211 24.3158C146.211 42.0152 133.469 56.8061 116.888 60.5514C123.455 47.4788 126.623 32.2444 127.774 17.5781H146.211V24.3158Z" fill="#FED843"/>
<path d="M150.605 8.78906H128.151C128.19 7.30459 128.34 5.90625 128.34 4.39453C128.34 1.9333 126.407 0 123.945 0H80V125.771H110.41C110.234 125.244 109.883 124.717 109.443 124.366C106.455 121.289 94.3262 106.523 93.2715 85.0781C100.087 82.1728 106.112 77.0153 111.163 70.0647C135.365 68.7606 155 48.8394 155 24.3158V13.1836C155 10.7546 153.034 8.78906 150.605 8.78906ZM146.211 24.3158C146.211 42.0152 133.469 56.8061 116.888 60.5514C123.456 47.4788 126.623 32.2444 127.774 17.5781H146.211V24.3158Z" fill="#FABE2C"/>
<path d="M87.0124 55.8973L79.9999 52.2537L72.9874 55.8973C71.5197 56.6526 69.7258 56.5281 68.3784 55.554C67.0308 54.5754 66.3529 52.919 66.6274 51.2795L67.915 43.4731L62.2932 37.9243C61.0695 36.7313 60.6953 34.9626 61.1946 33.4354C61.7096 31.856 63.0742 30.6973 64.7222 30.4486L72.5327 29.2726L76.0689 22.2044C77.5624 19.2261 82.4374 19.2261 83.931 22.2044L87.4671 29.2726L95.2777 30.4486C96.9256 30.6976 98.2903 31.8563 98.8053 33.4354C99.3203 35.0189 98.8996 36.7571 97.7067 37.9243L92.0849 43.4731L93.3725 51.2795C93.6473 52.919 92.9691 54.5754 91.6214 55.554C90.2828 56.524 88.4922 56.6672 87.0124 55.8973Z" fill="#FABE2C"/>
<path d="M87.0125 55.8972C88.4926 56.6671 90.2832 56.5239 91.6215 55.5539C92.9691 54.5753 93.6471 52.9189 93.3726 51.2794L92.085 43.473L97.7067 37.9242C98.8997 36.757 99.3204 35.0188 98.8054 33.4353C98.2903 31.8559 96.9257 30.6972 95.2777 30.4485L87.4672 29.2725L83.9311 22.2043C83.1843 20.7152 81.5923 19.9705 80 19.9705V52.2536L87.0125 55.8972Z" fill="#FF9100"/>
<path d="M115.156 150H44.8438C42.4147 150 40.4492 148.034 40.4492 145.605C40.4492 143.176 42.4147 141.211 44.8438 141.211H115.156C117.585 141.211 119.551 143.176 119.551 145.605C119.551 148.034 117.585 150 115.156 150Z" fill="#474F54"/>
<path d="M115.156 141.211H80V150H115.156C117.585 150 119.551 148.034 119.551 145.605C119.551 143.176 117.585 141.211 115.156 141.211Z" fill="#32393F"/>
</svg>
