<svg width="459" height="292" viewBox="0 0 459 292" fill="none" xmlns="http://www.w3.org/2000/svg">
<path fill-rule="evenodd" clip-rule="evenodd" d="M50.1246 291.571C52.6218 291.571 174.613 291.571 416.1 291.571C433.785 283.92 442.169 271.357 441.252 253.88C439.877 227.665 416.626 230.734 416.1 210.496C416.909 190.337 483.647 180.024 449.065 109.895C417.645 58.4912 341.69 116.691 290.973 90.2215C243.905 69.2518 297.119 2.24563 192.119 0.137988C75.8025 -2.8052 40.7945 42.0337 19.7211 67.7111C-4.54336 118.277 46.8685 115.042 43.8985 153.161C40.2974 184.925 0 178.088 0 227.095C0 276.102 46.3789 291.571 50.1246 291.571Z" fill="#E6F3F2" fill-opacity="0.3"/>
<rect x="178.736" y="283.902" width="45.6497" height="6.52139" fill="url(#paint0_linear)" fill-opacity="0.3"/>
<rect x="248.334" y="283.902" width="34.4702" height="6.52139" fill="url(#paint1_linear)" fill-opacity="0.3"/>
<rect x="36" y="282.971" width="32.6069" height="6.52139" fill="url(#paint2_linear)" fill-opacity="0.3"/>
<path fill-rule="evenodd" clip-rule="evenodd" d="M282 290.232H398.487V211.235H282V290.232Z" fill="#FF5A87"/>
<path fill-rule="evenodd" clip-rule="evenodd" d="M282 211.235L336.675 261.315C338.697 263.166 341.791 263.166 343.812 261.315L398.487 211.235H282Z" fill="white"/>
<path fill-rule="evenodd" clip-rule="evenodd" d="M398.487 290.233L340.844 229.189L398.487 285.034V290.233Z" fill="white"/>
<path fill-rule="evenodd" clip-rule="evenodd" d="M282 290.233L340.844 229.189L282 285.034V290.233Z" fill="white"/>
<path fill-rule="evenodd" clip-rule="evenodd" d="M282 211.235L335.837 257.473C338.381 259.659 342.106 259.659 344.651 257.473L398.487 211.235H282Z" fill="#FF7EA2"/>
<path fill-rule="evenodd" clip-rule="evenodd" d="M130.847 230.08V216.614L124.419 214.885V225.466H99.8023V214.885L93.3727 216.614V230.08C93.3727 230.08 70.0052 249.598 70.0052 268.251C70.0052 279.987 70.0052 283.323 70.0052 283.323H154.215C154.215 283.323 154.215 279.987 154.215 268.251C154.215 249.598 130.847 230.08 130.847 230.08Z" fill="#FBC67B"/>
<path fill-rule="evenodd" clip-rule="evenodd" d="M93.6204 253.181C93.6204 263.384 101.898 271.655 112.11 271.655C122.322 271.655 130.601 263.384 130.601 253.181C130.601 242.978 122.322 234.706 112.11 234.706C101.898 234.706 93.6204 242.978 93.6204 253.181Z" fill="white" fill-opacity="0.12961"/>
<path fill-rule="evenodd" clip-rule="evenodd" d="M98.2228 250.887C96.9545 250.887 95.9273 251.914 95.9273 253.181C95.9273 254.447 96.9545 255.474 98.2228 255.474C99.4895 255.474 100.517 254.447 100.517 253.181C100.517 251.914 99.4895 250.887 98.2228 250.887Z" fill="#FFFFFE"/>
<path fill-rule="evenodd" clip-rule="evenodd" d="M124.376 260.081C125.566 260.515 126.884 259.901 127.317 258.71C127.75 257.521 127.136 256.205 125.945 255.771C124.754 255.338 123.438 255.952 123.004 257.142C122.57 258.332 123.185 259.648 124.376 260.081Z" fill="#FFFFFE"/>
<path fill-rule="evenodd" clip-rule="evenodd" d="M125.945 250.589C127.136 250.156 127.75 248.84 127.317 247.65C126.884 246.46 125.566 245.847 124.376 246.28C123.185 246.714 122.57 248.029 123.004 249.22C123.438 250.41 124.754 251.022 125.945 250.589Z" fill="#FFFFFE"/>
<path fill-rule="evenodd" clip-rule="evenodd" d="M121.041 242.309C121.675 241.213 121.3 239.811 120.201 239.178C119.104 238.544 117.701 238.92 117.067 240.017C116.433 241.114 116.809 242.516 117.907 243.149C119.004 243.783 120.408 243.407 121.041 242.309Z" fill="#FFFFFE"/>
<path fill-rule="evenodd" clip-rule="evenodd" d="M111.959 239.117C111.739 237.87 110.549 237.037 109.3 237.257C108.052 237.477 107.218 238.666 107.438 239.913C107.659 241.16 108.848 241.994 110.097 241.773C111.345 241.553 112.179 240.364 111.959 239.117Z" fill="#FFFFFE"/>
<path fill-rule="evenodd" clip-rule="evenodd" d="M102.947 242.505C101.976 241.691 100.528 241.817 99.7136 242.787C98.899 243.757 99.0253 245.204 99.9963 246.018C100.967 246.832 102.415 246.705 103.229 245.734C104.044 244.765 103.918 243.319 102.947 242.505Z" fill="#FFFFFE"/>
<path fill-rule="evenodd" clip-rule="evenodd" d="M102.061 253.032C102.061 258.573 106.557 263.066 112.104 263.066C117.65 263.066 122.146 258.573 122.146 253.032C122.146 247.49 117.65 242.998 112.104 242.998C106.557 242.998 102.061 247.49 102.061 253.032Z" fill="#EAA85E"/>
<path fill-rule="evenodd" clip-rule="evenodd" d="M112.11 208C48.4282 208 55.8329 229.351 55.8329 229.351H82.2788C82.2788 215.822 112.11 215.822 112.11 215.822C112.11 215.822 141.941 215.822 141.941 229.351H168.387C168.387 229.351 175.793 208 112.11 208Z" fill="#FBC67B"/>
<path fill-rule="evenodd" clip-rule="evenodd" d="M55.793 236.504H82.3749C83.3655 236.504 84.1678 235.701 84.1678 234.712V229.4C84.1678 228.411 83.3655 227.609 82.3749 227.609H55.793C54.8024 227.609 54.0001 228.411 54.0001 229.4V234.712C54.0001 235.701 54.8024 236.504 55.793 236.504Z" fill="#EAA85E"/>
<path fill-rule="evenodd" clip-rule="evenodd" d="M141.845 236.504H168.427C169.418 236.504 170.22 235.701 170.22 234.712V229.4C170.22 228.411 169.418 227.609 168.427 227.609H141.845C140.855 227.609 140.052 228.411 140.052 229.4V234.712C140.052 235.701 140.855 236.504 141.845 236.504Z" fill="#EAA85E"/>
<path fill-rule="evenodd" clip-rule="evenodd" d="M69.9156 288.882H154.305C154.764 288.882 155.136 288.51 155.136 288.052V278.594C155.136 278.136 154.764 277.764 154.305 277.764H69.9156C69.4562 277.764 69.0839 278.136 69.0839 278.594V288.052C69.0839 288.51 69.4562 288.882 69.9156 288.882Z" fill="#EAA85E"/>
<path fill-rule="evenodd" clip-rule="evenodd" d="M100.492 260.028C99.4759 260.878 99.3438 262.387 100.196 263.4C101.049 264.413 102.564 264.545 103.58 263.695C104.596 262.845 104.728 261.336 103.876 260.322C103.023 259.31 101.508 259.178 100.492 260.028Z" fill="#FFFFFE"/>
<path fill-rule="evenodd" clip-rule="evenodd" d="M108.077 267.431C107.847 268.733 108.719 269.974 110.025 270.203C111.332 270.433 112.577 269.564 112.807 268.261C113.037 266.96 112.165 265.718 110.86 265.489C109.553 265.26 108.308 266.129 108.077 267.431Z" fill="#FFFFFE"/>
<path fill-rule="evenodd" clip-rule="evenodd" d="M116.769 266.649C117.432 267.794 118.901 268.186 120.049 267.525C121.198 266.865 121.591 265.4 120.928 264.255C120.265 263.111 118.796 262.719 117.648 263.379C116.499 264.04 116.106 265.504 116.769 266.649Z" fill="#FFFFFE"/>
<path d="M220.721 109.688V290.424C223.335 290.424 225.624 289.073 226.924 287.045C226.933 287.045 276.63 209.411 276.63 209.411C283.049 199.376 286.77 187.493 286.77 174.753C286.77 138.819 257.199 109.688 220.721 109.688Z" fill="#60C1B9"/>
<path d="M227.859 287.045C227.866 287.045 265.817 209.411 265.817 209.411C270.719 199.376 273.56 187.493 273.56 174.753C273.56 138.819 250.979 109.688 223.123 109.688C187.307 109.688 158.274 138.819 158.274 174.753C158.274 187.493 161.927 199.376 168.234 209.411C168.229 209.411 217.023 287.045 217.023 287.045C218.308 289.073 220.555 290.424 223.122 290.424C225.119 290.424 226.867 289.073 227.859 287.045Z" fill="#51ADA6"/>
<path d="M223.122 210.23C243.02 210.23 259.15 194.153 259.15 174.322C259.15 154.491 243.02 138.414 223.122 138.414C203.225 138.414 187.095 154.491 187.095 174.322C187.095 194.153 203.225 210.23 223.122 210.23Z" fill="white"/>
<path d="M220.721 152.777V195.867C233.322 195.867 243.538 186.221 243.538 174.322C243.538 162.423 233.322 152.777 220.721 152.777Z" fill="#60C1B9"/>
<path d="M230.328 174.322C230.328 162.423 227.102 152.777 223.123 152.777C211.184 152.777 201.506 162.423 201.506 174.322C201.506 186.221 211.184 195.867 223.123 195.867C227.102 195.867 230.328 186.221 230.328 174.322Z" fill="#51ADA6"/>
<line x1="52" y1="291" x2="413" y2="291" stroke="#305F5B" stroke-opacity="0.1" stroke-width="2"/>
<defs>
<linearGradient id="paint0_linear" x1="222.522" y1="287.629" x2="180.133" y2="287.629" gradientUnits="userSpaceOnUse">
<stop stop-color="#233E3C" stop-opacity="0.4"/>
<stop offset="1" stop-color="#C4C4C4" stop-opacity="0"/>
</linearGradient>
<linearGradient id="paint1_linear" x1="281.397" y1="287.629" x2="249.389" y2="287.629" gradientUnits="userSpaceOnUse">
<stop stop-color="#233E3C" stop-opacity="0.4"/>
<stop offset="1" stop-color="#C4C4C4" stop-opacity="0"/>
</linearGradient>
<linearGradient id="paint2_linear" x1="67.276" y1="286.697" x2="36.9982" y2="286.697" gradientUnits="userSpaceOnUse">
<stop stop-color="#233E3C" stop-opacity="0.4"/>
<stop offset="1" stop-color="#C4C4C4" stop-opacity="0"/>
</linearGradient>
</defs>
</svg>
