<svg width="183" height="173" viewBox="0 0 183 173" fill="none" xmlns="http://www.w3.org/2000/svg">
<path fill-rule="evenodd" clip-rule="evenodd" d="M7.57555 101.398L7.05106 101.095C6.38333 102.251 4.90006 102.644 3.74338 101.979C2.58875 101.31 2.1963 99.834 2.85514 98.6723C3.53228 97.52 5.00614 97.1229 6.16282 97.7883C7.31745 98.4573 7.7193 99.9374 7.05106 101.095L8.10004 101.7C9.1024 99.9643 8.50141 97.741 6.76793 96.7402C5.03445 95.7394 2.81742 96.3357 1.81505 98.0718C0.812686 99.808 1.4053 102.025 3.13827 103.027C4.87226 104.027 7.09767 103.437 8.10004 101.7L7.57555 101.398Z" fill="#FF9900" fill-opacity="0.5"/>
<path fill-rule="evenodd" clip-rule="evenodd" d="M24.3324 111.072L23.8168 110.775C23.1402 111.926 21.6658 112.324 20.5091 111.659C19.3545 110.99 18.9531 109.509 19.6209 108.352C20.2891 107.195 21.7719 106.803 22.9285 107.468C24.0832 108.137 24.4761 109.612 23.8168 110.775L24.8569 111.375C25.8592 109.639 25.2671 107.421 23.5337 106.42C21.8002 105.419 19.5743 106.01 18.5719 107.747C17.5695 109.483 18.171 111.705 19.904 112.707C21.638 113.707 23.8545 113.111 24.8569 111.375L24.3324 111.072Z" fill="#FF9900" fill-opacity="0.5"/>
<path fill-rule="evenodd" clip-rule="evenodd" d="M41.098 120.752L40.5735 120.449C39.9058 121.606 38.4314 122.004 37.2747 121.338C36.1112 120.664 35.7188 119.188 36.3865 118.032C37.0547 116.874 38.5286 116.477 39.6942 117.148C40.8488 117.817 41.2418 119.292 40.5735 120.449L41.6225 121.055C42.6249 119.319 42.0328 117.1 40.2993 116.1C38.5569 115.094 36.3399 115.69 35.3375 117.426C34.3351 119.162 34.9278 121.38 36.6701 122.385C38.4036 123.386 40.6201 122.791 41.6225 121.055L41.098 120.752Z" fill="#FF9900" fill-opacity="0.5"/>
<path fill-rule="evenodd" clip-rule="evenodd" d="M57.8646 130.432L57.3401 130.129C56.6724 131.285 55.1891 131.678 54.0324 131.013C52.8778 130.344 52.4854 128.868 53.1442 127.706C53.8213 126.554 55.2952 126.157 56.4519 126.822C57.6065 127.491 58.0084 128.971 57.3401 130.129L58.3891 130.734C59.3915 128.998 58.7994 126.78 57.057 125.774C55.3235 124.773 53.1065 125.37 52.1041 127.106C51.1017 128.842 51.6944 131.059 53.4278 132.06C55.1702 133.066 57.3867 132.471 58.3891 130.734L57.8646 130.432Z" fill="#FF9900" fill-opacity="0.5"/>
<path fill-rule="evenodd" clip-rule="evenodd" d="M74.6303 140.112L74.1058 139.809C73.4292 140.96 71.9549 141.358 70.7982 140.693C69.6435 140.024 69.2422 138.543 69.9099 137.386C70.5782 136.229 72.0609 135.837 73.2176 136.502C74.3722 137.171 74.7652 138.646 74.1058 139.809L75.1459 140.409C76.1483 138.673 75.5562 136.455 73.8227 135.454C72.0892 134.453 69.8633 135.044 68.861 136.781C67.8586 138.517 68.4601 140.739 70.1936 141.74C71.9271 142.741 74.1436 142.145 75.1459 140.409L74.6303 140.112Z" fill="#FF9900" fill-opacity="0.5"/>
<path fill-rule="evenodd" clip-rule="evenodd" d="M91.3871 149.786L90.8626 149.483C90.1949 150.64 88.7205 151.038 87.5638 150.372C86.4003 149.698 86.0078 148.222 86.6756 147.066C87.3438 145.908 88.8177 145.511 89.9832 146.182C91.1379 146.851 91.5308 148.326 90.8626 149.483L91.9116 150.089C92.9139 148.353 92.3218 146.134 90.5883 145.134C88.846 144.128 86.6289 144.724 85.6266 146.46C84.6242 148.196 85.2168 150.413 86.9592 151.419C88.6927 152.42 90.9092 151.825 91.9116 150.089L91.3871 149.786Z" fill="#FF9900" fill-opacity="0.5"/>
<path fill-rule="evenodd" clip-rule="evenodd" d="M108.153 159.466L107.628 159.163C106.96 160.32 105.477 160.713 104.321 160.047C103.166 159.378 102.773 157.902 103.441 156.746C104.109 155.588 105.583 155.191 106.74 155.857C107.895 156.526 108.296 158.006 107.628 159.163L108.677 159.769C109.68 158.033 109.087 155.815 107.345 154.809C105.612 153.808 103.395 154.404 102.392 156.14C101.39 157.876 101.982 160.094 103.716 161.094C105.458 162.1 107.675 161.505 108.677 159.769L108.153 159.466Z" fill="#FF9900" fill-opacity="0.5"/>
<path fill-rule="evenodd" clip-rule="evenodd" d="M124.919 169.146L124.395 168.843C123.727 169.999 122.244 170.392 121.087 169.727C119.933 169.058 119.54 167.582 120.199 166.42C120.876 165.268 122.35 164.871 123.507 165.536C124.661 166.205 125.063 167.685 124.395 168.843L125.444 169.449C126.446 167.712 125.845 165.489 124.112 164.488C122.378 163.487 120.161 164.084 119.15 165.815C118.157 167.556 118.749 169.773 120.483 170.774C122.216 171.775 124.442 171.185 125.444 169.449L124.919 169.146Z" fill="#FF9900" fill-opacity="0.5"/>
<path fill-rule="evenodd" clip-rule="evenodd" d="M16.7103 85.5757L16.1858 85.2728C15.5176 86.4303 14.0348 86.8223 12.8781 86.1569C11.7235 85.4879 11.3305 84.0129 11.9899 82.8503C12.6665 81.6989 14.1409 81.3008 15.2976 81.9663C16.4522 82.6353 16.8536 84.1163 16.1858 85.2728L17.2348 85.8785C18.2372 84.1423 17.6357 81.9199 15.9027 80.9182C14.1687 79.9183 11.9522 80.5137 10.9498 82.2498C9.94745 83.986 10.5395 86.2041 12.273 87.205C14.0065 88.2058 16.2324 87.6146 17.2348 85.8785L16.7103 85.5757Z" fill="#FF9900" fill-opacity="0.5"/>
<path fill-rule="evenodd" clip-rule="evenodd" d="M33.4677 95.2503L32.9521 94.9526C32.2749 96.1049 30.8011 96.5021 29.6444 95.8367C28.4898 95.1677 28.0879 93.6875 28.7561 92.5301C29.4239 91.3736 30.9066 90.9815 32.0638 91.6461C33.2179 92.316 33.6109 93.7909 32.9521 94.9526L33.9921 95.5531C34.9945 93.817 34.4019 91.5997 32.6684 90.5989C30.9349 89.598 28.7095 90.1883 27.7072 91.9245C26.7048 93.6606 27.3058 95.8839 29.0393 96.8847C30.7728 97.8856 32.9898 97.2893 33.9921 95.5531L33.4677 95.2503Z" fill="#FF9900" fill-opacity="0.5"/>
<path fill-rule="evenodd" clip-rule="evenodd" d="M50.2333 104.93L49.7088 104.627C49.0406 105.785 47.5667 106.182 46.41 105.517C45.2465 104.842 44.8535 103.367 45.5218 102.21C46.1895 101.053 47.6634 100.656 48.8294 101.326C49.9836 101.996 50.3765 103.471 49.7088 104.627L50.7578 105.233C51.7601 103.497 51.1675 101.28 49.434 100.279C47.6917 99.2728 45.4752 99.8683 44.4728 101.604C43.4704 103.341 44.0625 105.559 45.8049 106.565C47.5384 107.566 49.7554 106.969 50.7578 105.233L50.2333 104.93Z" fill="#FF9900" fill-opacity="0.5"/>
<path fill-rule="evenodd" clip-rule="evenodd" d="M66.9989 114.61L66.4744 114.307C65.8062 115.464 64.3234 115.856 63.1667 115.191C62.0121 114.522 61.6191 113.047 62.2785 111.884C62.9551 110.733 64.429 110.336 65.5862 111C66.7403 111.67 67.1422 113.15 66.4744 114.307L67.5234 114.912C68.5258 113.176 67.9332 110.959 66.1908 109.953C64.4573 108.952 62.2408 109.548 61.2384 111.284C60.236 113.02 60.8282 115.238 62.5616 116.239C64.304 117.245 66.521 116.649 67.5234 114.912L66.9989 114.61Z" fill="#FF9900" fill-opacity="0.5"/>
<path fill-rule="evenodd" clip-rule="evenodd" d="M83.7646 124.29L83.2401 123.987C82.563 125.139 81.0892 125.536 79.9325 124.871C78.7778 124.202 78.376 122.722 79.0442 121.564C79.712 120.408 81.1947 120.016 82.3519 120.68C83.506 121.35 83.899 122.825 83.2401 123.987L84.2802 124.587C85.2826 122.851 84.69 120.634 82.9565 119.633C81.223 118.632 78.9976 119.223 77.9952 120.959C76.9929 122.695 77.5939 124.918 79.3274 125.919C81.0608 126.92 83.2779 126.323 84.2802 124.587L83.7646 124.29Z" fill="#FF9900" fill-opacity="0.5"/>
<path fill-rule="evenodd" clip-rule="evenodd" d="M100.521 133.964L99.9969 133.661C99.3286 134.819 97.8548 135.216 96.6981 134.551C95.5346 133.876 95.1416 132.401 95.8099 131.244C96.4776 130.087 97.9514 129.69 99.1175 130.36C100.272 131.03 100.665 132.505 99.9969 133.661L101.046 134.267C102.048 132.531 101.456 130.314 99.7221 129.313C97.9798 128.307 95.7632 128.902 94.7609 130.638C93.7585 132.374 94.3506 134.593 96.093 135.599C97.8265 136.599 100.043 136.003 101.046 134.267L100.521 133.964Z" fill="#FF9900" fill-opacity="0.5"/>
<path fill-rule="evenodd" clip-rule="evenodd" d="M117.288 143.644L116.763 143.342C116.095 144.499 114.612 144.891 113.456 144.226C112.301 143.557 111.908 142.082 112.576 140.924C113.244 139.768 114.718 139.37 115.875 140.035C117.029 140.705 117.431 142.185 116.763 143.342L117.812 143.947C118.815 142.211 118.222 139.994 116.48 138.988C114.746 137.987 112.53 138.582 111.527 140.319C110.525 142.055 111.117 144.273 112.851 145.274C114.593 146.28 116.81 145.683 117.812 143.947L117.288 143.644Z" fill="#FF9900" fill-opacity="0.5"/>
<path fill-rule="evenodd" clip-rule="evenodd" d="M134.054 153.324L133.529 153.021C132.861 154.179 131.378 154.571 130.222 153.906C129.067 153.237 128.674 151.762 129.333 150.599C130.01 149.448 131.484 149.05 132.641 149.715C133.795 150.385 134.197 151.865 133.529 153.021L134.578 153.627C135.581 151.891 134.979 149.669 133.246 148.668C131.512 147.667 129.296 148.262 128.284 149.993C127.291 151.735 127.883 153.953 129.616 154.954C131.35 155.954 133.576 155.363 134.578 153.627L134.054 153.324Z" fill="#FF9900" fill-opacity="0.5"/>
<path fill-rule="evenodd" clip-rule="evenodd" d="M25.8441 69.7548L25.3196 69.452C24.6519 70.6086 23.1691 71.0006 22.0119 70.3361C20.8578 69.6662 20.4649 68.1912 21.1237 67.0295C21.8008 65.8772 23.2747 65.48 24.4314 66.1455C25.586 66.8145 25.9879 68.2946 25.3196 69.452L26.3686 70.0577C27.371 68.3215 26.77 66.0982 25.0365 65.0974C23.303 64.0966 21.086 64.6929 20.0836 66.429C19.0812 68.1652 19.6739 70.3824 21.4073 71.3833C23.1408 72.3841 25.3662 71.7938 26.3686 70.0577L25.8441 69.7548Z" fill="#FF9900" fill-opacity="0.5"/>
<path fill-rule="evenodd" clip-rule="evenodd" d="M42.6019 79.4297L42.0863 79.132C41.4097 80.2834 39.9358 80.6806 38.7786 80.016C37.6245 79.3461 37.2227 77.866 37.8904 76.7095C38.5586 75.552 40.0414 75.16 41.1981 75.8254C42.3527 76.4944 42.7457 77.9694 42.0863 79.132L43.1264 79.7325C44.1288 77.9963 43.5367 75.7782 41.8032 74.7773C40.0697 73.7765 37.8438 74.3677 36.8414 76.1038C35.8391 77.84 36.4406 80.0624 38.174 81.0632C39.9075 82.064 42.124 81.4686 43.1264 79.7325L42.6019 79.4297Z" fill="#FF9900" fill-opacity="0.5"/>
<path fill-rule="evenodd" clip-rule="evenodd" d="M59.3675 89.1091L58.8431 88.8063C58.1753 89.9628 56.7015 90.36 55.5443 89.6954C54.3813 89.0204 53.9883 87.5454 54.656 86.3889C55.3243 85.2315 56.7981 84.8343 57.9637 85.5049C59.1183 86.1739 59.5113 87.6488 58.8431 88.8063L59.892 89.4119C60.8944 87.6758 60.3023 85.4576 58.5688 84.4568C56.8264 83.4508 54.6094 84.0471 53.607 85.7833C52.6047 87.5194 53.1973 89.7367 54.9397 90.7427C56.6731 91.7435 58.8897 91.1481 59.892 89.4119L59.3675 89.1091Z" fill="#FF9900" fill-opacity="0.5"/>
<path fill-rule="evenodd" clip-rule="evenodd" d="M76.1332 98.789L75.6087 98.4862C74.9409 99.6428 73.4582 100.035 72.301 99.3702C71.1469 98.7004 70.7539 97.2254 71.4128 96.0637C72.0899 94.9114 73.5638 94.5142 74.7204 95.1797C75.8751 95.8487 76.2769 97.3288 75.6087 98.4862L76.6577 99.0918C77.66 97.3557 77.0679 95.1375 75.3256 94.1316C73.5921 93.1308 71.375 93.7271 70.3727 95.4632C69.3703 97.1994 69.9629 99.4166 71.6964 100.417C73.4388 101.423 75.6553 100.828 76.6577 99.0918L76.1332 98.789Z" fill="#FF9900" fill-opacity="0.5"/>
<path fill-rule="evenodd" clip-rule="evenodd" d="M92.8989 108.469L92.3744 108.166C91.6978 109.317 90.2239 109.714 89.0667 109.05C87.9126 108.38 87.5108 106.9 88.1785 105.743C88.8467 104.586 90.3295 104.194 91.4862 104.859C92.6408 105.528 93.0338 107.003 92.3744 108.166L93.4145 108.766C94.4169 107.03 93.8248 104.812 92.0913 103.811C90.3578 102.81 88.1319 103.402 87.1295 105.138C86.1271 106.874 86.7286 109.096 88.4621 110.097C90.1956 111.098 92.4121 110.503 93.4145 108.766L92.8989 108.469Z" fill="#FF9900" fill-opacity="0.5"/>
<path fill-rule="evenodd" clip-rule="evenodd" d="M109.656 118.144L109.131 117.841C108.463 118.997 106.99 119.394 105.832 118.73C104.669 118.055 104.276 116.58 104.944 115.423C105.612 114.266 107.086 113.869 108.252 114.539C109.406 115.208 109.799 116.683 109.131 117.841L110.18 118.446C111.182 116.71 110.59 114.492 108.857 113.491C107.115 112.485 104.897 113.082 103.895 114.818C102.893 116.554 103.485 118.771 105.228 119.777C106.961 120.778 109.178 120.182 110.18 118.446L109.656 118.144Z" fill="#FF9900" fill-opacity="0.5"/>
<path fill-rule="evenodd" clip-rule="evenodd" d="M126.422 127.823L125.898 127.521C125.23 128.677 123.747 129.069 122.59 128.405C121.436 127.735 121.043 126.26 121.711 125.103C122.379 123.946 123.853 123.549 125.009 124.214C126.164 124.883 126.566 126.363 125.898 127.521L126.947 128.126C127.949 126.39 127.357 124.172 125.615 123.166C123.881 122.165 121.664 122.761 120.662 124.498C119.659 126.234 120.252 128.451 121.985 129.452C123.728 130.458 125.944 129.862 126.947 128.126L126.422 127.823Z" fill="#FF9900" fill-opacity="0.5"/>
<path fill-rule="evenodd" clip-rule="evenodd" d="M143.188 137.503L142.663 137.2C141.996 138.357 140.513 138.749 139.356 138.084C138.202 137.414 137.809 135.939 138.468 134.778C139.145 133.626 140.619 133.228 141.775 133.894C142.93 134.563 143.332 136.043 142.663 137.2L143.712 137.806C144.715 136.07 144.114 133.847 142.38 132.846C140.647 131.845 138.43 132.441 137.419 134.172C136.425 135.913 137.018 138.131 138.751 139.132C140.485 140.132 142.71 139.542 143.712 137.806L143.188 137.503Z" fill="#FF9900" fill-opacity="0.5"/>
<path fill-rule="evenodd" clip-rule="evenodd" d="M34.9794 53.9329L34.4549 53.6301C33.7866 54.7875 32.3039 55.1796 31.1472 54.5141C29.9926 53.8451 29.5996 52.3702 30.259 51.2076C30.9356 50.0562 32.4095 49.659 33.5667 50.3236C34.7208 50.9934 35.1226 52.4736 34.4549 53.6301L35.5039 54.2357C36.5062 52.4996 35.9047 50.2772 34.1713 49.2764C32.4378 48.2755 30.2213 48.8709 29.2189 50.6071C28.2165 52.3432 28.8086 54.5614 30.5421 55.5622C32.2756 56.5631 34.5015 55.9719 35.5039 54.2357L34.9794 53.9329Z" fill="#FF9900" fill-opacity="0.5"/>
<path fill-rule="evenodd" clip-rule="evenodd" d="M51.7362 63.6075L51.2206 63.3098C50.5435 64.4621 49.0696 64.8593 47.9129 64.1938C46.7583 63.5248 46.3565 62.0447 47.0247 60.8873C47.6924 59.7307 49.1752 59.3387 50.3324 60.0032C51.4865 60.6731 51.8795 62.1481 51.2206 63.3098L52.2607 63.9103C53.2631 62.1741 52.6705 59.9569 50.937 58.956C49.2035 57.9552 46.9781 58.5455 45.9757 60.2817C44.9734 62.0178 45.5743 64.2411 47.3078 65.2419C49.0413 66.2427 51.2583 65.6464 52.2607 63.9103L51.7362 63.6075Z" fill="#FF9900" fill-opacity="0.5"/>
<path fill-rule="evenodd" clip-rule="evenodd" d="M68.5018 73.2874L67.9774 72.9846C67.3091 74.142 65.8352 74.5392 64.6786 73.8738C63.515 73.1996 63.1221 71.7246 63.7903 70.5672C64.4581 69.4107 65.9319 69.0135 67.098 69.6832C68.2521 70.3531 68.6451 71.8281 67.9774 72.9846L69.0263 73.5902C70.0287 71.8541 69.4361 69.6368 67.7026 68.636C65.9602 67.63 63.7437 68.2254 62.7413 69.9616C61.739 71.6977 62.3311 73.9159 64.0735 74.9219C65.8069 75.9227 68.024 75.3264 69.0263 73.5902L68.5018 73.2874Z" fill="#FF9900" fill-opacity="0.5"/>
<path fill-rule="evenodd" clip-rule="evenodd" d="M85.2675 82.9669L84.743 82.664C84.0747 83.8215 82.592 84.2135 81.4353 83.5481C80.2807 82.8791 79.8877 81.4041 80.5471 80.2415C81.2237 79.0901 82.6975 78.6929 83.8547 79.3575C85.0089 80.0274 85.4107 81.5075 84.743 82.664L85.792 83.2697C86.7943 81.5335 86.2017 79.3162 84.4593 78.3103C82.7259 77.3095 80.5093 77.9049 79.507 79.641C78.5046 81.3772 79.0967 83.5953 80.8302 84.5962C82.5726 85.6021 84.7896 85.0058 85.792 83.2697L85.2675 82.9669Z" fill="#FF9900" fill-opacity="0.5"/>
<path fill-rule="evenodd" clip-rule="evenodd" d="M102.034 92.647L101.51 92.3442C100.833 93.4965 99.3587 93.8937 98.202 93.2283C97.0474 92.5593 96.6455 91.0791 97.3138 89.9217C97.9815 88.7652 99.4642 88.3731 100.621 89.0377C101.776 89.7076 102.169 91.1825 101.51 92.3442L102.55 92.9447C103.552 91.2086 102.96 88.9913 101.226 87.9905C99.4926 86.9896 97.2671 87.5799 96.2648 89.3161C95.2624 91.0522 95.8634 93.2755 97.5969 94.2763C99.3304 95.2772 101.547 94.6809 102.55 92.9447L102.034 92.647Z" fill="#FF9900" fill-opacity="0.5"/>
<path fill-rule="evenodd" clip-rule="evenodd" d="M118.791 102.322L118.266 102.019C117.598 103.176 116.124 103.573 114.968 102.908C113.804 102.234 113.411 100.759 114.079 99.6014C114.747 98.4448 116.221 98.0477 117.387 98.7174C118.541 99.3872 118.934 100.862 118.266 102.019L119.315 102.624C120.318 100.888 119.725 98.671 117.992 97.6702C116.249 96.6642 114.033 97.2596 113.03 98.9958C112.028 100.732 112.62 102.95 114.363 103.956C116.096 104.957 118.313 104.361 119.315 102.624L118.791 102.322Z" fill="#FF9900" fill-opacity="0.5"/>
<path fill-rule="evenodd" clip-rule="evenodd" d="M135.557 112.002L135.032 111.699C134.364 112.856 132.881 113.248 131.724 112.583C130.57 111.914 130.177 110.439 130.845 109.281C131.513 108.125 132.987 107.728 134.144 108.392C135.298 109.062 135.7 110.542 135.032 111.699L136.081 112.304C137.083 110.568 136.491 108.351 134.748 107.345C133.015 106.344 130.798 106.94 129.796 108.676C128.794 110.412 129.386 112.63 131.119 113.631C132.862 114.637 135.079 114.04 136.081 112.304L135.557 112.002Z" fill="#FF9900" fill-opacity="0.5"/>
<path fill-rule="evenodd" clip-rule="evenodd" d="M152.323 121.681L151.799 121.379C151.131 122.536 149.648 122.928 148.491 122.263C147.336 121.594 146.943 120.119 147.603 118.956C148.279 117.805 149.753 117.408 150.911 118.072C152.065 118.742 152.466 120.222 151.799 121.379L152.848 121.984C153.85 120.248 153.249 118.026 151.515 117.025C149.782 116.024 147.565 116.619 146.554 118.351C145.56 120.092 146.152 122.31 147.886 123.311C149.619 124.312 151.845 123.72 152.848 121.984L152.323 121.681Z" fill="#FF9900" fill-opacity="0.5"/>
<path fill-rule="evenodd" clip-rule="evenodd" d="M44.1136 38.112L43.5891 37.8092C42.9214 38.9658 41.4387 39.3578 40.2815 38.6932C39.1274 38.0234 38.7344 36.5484 39.3932 35.3867C40.0704 34.2344 41.5442 33.8372 42.7009 34.5027C43.8555 35.1717 44.2574 36.6518 43.5891 37.8092L44.6381 38.4148C45.6405 36.6787 45.0395 34.4554 43.306 33.4546C41.5725 32.4537 39.3555 33.0501 38.3531 34.7862C37.3508 36.5224 37.9434 38.7396 39.6769 39.7404C41.4103 40.7413 43.6358 40.151 44.6381 38.4148L44.1136 38.112Z" fill="#FF9900" fill-opacity="0.5"/>
<path fill-rule="evenodd" clip-rule="evenodd" d="M60.8705 47.7868L60.3549 47.4892C59.6782 48.6406 58.2044 49.0377 57.0472 48.3732C55.8931 47.7033 55.4912 46.2232 56.159 45.0666C56.8272 43.9092 58.3099 43.5172 59.4666 44.1826C60.6213 44.8516 61.0142 46.3266 60.3549 47.4892L61.395 48.0896C62.3973 46.3535 61.8052 44.1353 60.0717 43.1345C58.3383 42.1337 56.1123 42.7249 55.11 44.461C54.1076 46.1972 54.7091 48.4196 56.4426 49.4204C58.1761 50.4212 60.3926 49.8258 61.395 48.0896L60.8705 47.7868Z" fill="#FF9900" fill-opacity="0.5"/>
<path fill-rule="evenodd" clip-rule="evenodd" d="M77.6361 57.4663L77.1116 57.1635C76.4439 58.32 74.97 58.7172 73.8128 58.0526C72.6498 57.3776 72.2568 55.9026 72.9246 54.7461C73.5928 53.5886 75.0667 53.1915 76.2323 53.862C77.3869 54.531 77.7799 56.006 77.1116 57.1635L78.1606 57.7691C79.163 56.0329 78.5709 53.8148 76.8374 52.814C75.095 51.808 72.878 52.4043 71.8756 54.1405C70.8732 55.8766 71.4658 58.0939 73.2082 59.0998C74.9417 60.1007 77.1582 59.5052 78.1606 57.7691L77.6361 57.4663Z" fill="#FF9900" fill-opacity="0.5"/>
<path fill-rule="evenodd" clip-rule="evenodd" d="M94.4017 67.1462L93.8772 66.8434C93.2095 67.9999 91.7268 68.392 90.5696 67.7274C89.4154 67.0575 89.0225 65.5826 89.6813 64.4209C90.3584 63.2686 91.8323 62.8714 92.989 63.5368C94.1436 64.2058 94.5455 65.686 93.8772 66.8434L94.9262 67.449C95.9286 65.7129 95.3365 63.4947 93.5941 62.4888C91.8606 61.4879 89.6436 62.0842 88.6412 63.8204C87.6389 65.5565 88.2315 67.7738 89.965 68.7746C91.7073 69.7806 93.9238 69.1852 94.9262 67.449L94.4017 67.1462Z" fill="#FF9900" fill-opacity="0.5"/>
<path fill-rule="evenodd" clip-rule="evenodd" d="M111.167 76.8261L110.643 76.5233C109.966 77.6747 108.492 78.0719 107.335 77.4074C106.181 76.7375 105.779 75.2574 106.447 74.1008C107.115 72.9434 108.598 72.5513 109.755 73.2168C110.909 73.8858 111.302 75.3608 110.643 76.5233L111.683 77.1238C112.685 75.3877 112.093 73.1695 110.36 72.1687C108.626 71.1679 106.4 71.759 105.398 73.4952C104.396 75.2313 104.997 77.4537 106.731 78.4546C108.464 79.4554 110.681 78.86 111.683 77.1238L111.167 76.8261Z" fill="#FF9900" fill-opacity="0.5"/>
<path fill-rule="evenodd" clip-rule="evenodd" d="M127.925 86.5007L127.401 86.1979C126.733 87.3544 125.259 87.7516 124.102 87.0871C122.939 86.412 122.546 84.937 123.214 83.7805C123.882 82.6231 125.356 82.2259 126.521 82.8965C127.676 83.5655 128.069 85.0405 127.401 86.1979L128.45 86.8035C129.452 85.0674 128.86 82.8492 127.126 81.8484C125.384 80.8424 123.167 81.4387 122.165 83.1749C121.162 84.911 121.755 87.1283 123.497 88.1343C125.231 89.1351 127.447 88.5397 128.45 86.8035L127.925 86.5007Z" fill="#FF9900" fill-opacity="0.5"/>
<path fill-rule="evenodd" clip-rule="evenodd" d="M144.691 96.1806L144.166 95.8778C143.499 97.0344 142.016 97.4264 140.859 96.7618C139.705 96.092 139.312 94.617 139.979 93.4604C140.648 92.303 142.121 91.9058 143.278 92.5713C144.433 93.2403 144.835 94.7204 144.166 95.8778L145.215 96.4834C146.218 94.7473 145.626 92.5291 143.883 91.5232C142.15 90.5224 139.933 91.1187 138.93 92.8548C137.928 94.591 138.521 96.8082 140.254 97.8091C141.996 98.815 144.213 98.2196 145.215 96.4834L144.691 96.1806Z" fill="#FF9900" fill-opacity="0.5"/>
<path fill-rule="evenodd" clip-rule="evenodd" d="M161.457 105.86L160.932 105.558C160.264 106.714 158.782 107.106 157.624 106.442C156.47 105.772 156.077 104.297 156.736 103.135C157.413 101.983 158.887 101.586 160.044 102.251C161.198 102.92 161.6 104.4 160.932 105.558L161.981 106.163C162.983 104.427 162.382 102.204 160.649 101.203C158.915 100.202 156.698 100.798 155.687 102.529C154.694 104.271 155.286 106.488 157.02 107.489C158.753 108.49 160.979 107.899 161.981 106.163L161.457 105.86Z" fill="#FF9900" fill-opacity="0.5"/>
<path fill-rule="evenodd" clip-rule="evenodd" d="M53.2479 22.2901L52.7234 21.9873C52.0552 23.1447 50.5725 23.5368 49.4158 22.8713C48.2611 22.2023 47.8682 20.7273 48.5275 19.5648C49.2041 18.4134 50.6785 18.0153 51.8352 18.6807C52.9898 19.3497 53.3912 20.8307 52.7234 21.9873L53.7724 22.5929C54.7748 20.8568 54.1733 18.6344 52.4398 17.6335C50.7063 16.6327 48.4898 17.2281 47.4874 18.9643C46.4851 20.7004 47.0772 22.9186 48.8107 23.9194C50.5447 24.9193 52.7701 24.3291 53.7724 22.5929L53.2479 22.2901Z" fill="#FF9900" fill-opacity="0.5"/>
<path fill-rule="evenodd" clip-rule="evenodd" d="M70.0048 31.9647L69.4892 31.667C68.812 32.8193 67.3382 33.2164 66.1815 32.551C65.0269 31.882 64.625 30.4019 65.2933 29.2445C65.961 28.0879 67.4442 27.695 68.6009 28.3604C69.7556 29.0294 70.148 30.5053 69.4892 31.667L70.5293 32.2675C71.5316 30.5313 70.939 28.3141 69.2055 27.3132C67.472 26.3124 65.2466 26.9027 64.2443 28.6388C63.2419 30.375 63.8434 32.5974 65.5764 33.5991C67.3099 34.5999 69.5269 34.0036 70.5293 32.2675L70.0048 31.9647Z" fill="#FF9900" fill-opacity="0.5"/>
<path fill-rule="evenodd" clip-rule="evenodd" d="M86.7704 41.6446L86.2459 41.3418C85.5777 42.4992 84.1038 42.8964 82.9471 42.2309C81.7836 41.5568 81.3906 40.0818 82.0589 38.9244C82.7266 37.7678 84.201 37.3698 85.3666 38.0404C86.5212 38.7094 86.9136 40.1852 86.2459 41.3418L87.2949 41.9474C88.2973 40.2113 87.7046 37.994 85.9712 36.9932C84.2288 35.9872 82.0123 36.5826 81.0099 38.3188C80.0075 40.0549 80.5996 42.2731 82.342 43.279C84.0755 44.2799 86.2925 43.6836 87.2949 41.9474L86.7704 41.6446Z" fill="#FF9900" fill-opacity="0.5"/>
<path fill-rule="evenodd" clip-rule="evenodd" d="M103.537 51.3245L103.013 51.0217C102.344 52.1791 100.862 52.5712 99.7048 51.9057C98.5502 51.2367 98.1572 49.7618 98.8166 48.5992C99.4932 47.4478 100.968 47.0497 102.124 47.7152C103.279 48.3842 103.68 49.8652 103.013 51.0217L104.061 51.6273C105.064 49.8912 104.471 47.6739 102.729 46.668C100.995 45.6671 98.7789 46.2625 97.7765 47.9987C96.7741 49.7348 97.3668 51.9521 99.0997 52.9538C100.843 53.9589 103.059 53.3635 104.061 51.6273L103.537 51.3245Z" fill="#FF9900" fill-opacity="0.5"/>
<path fill-rule="evenodd" clip-rule="evenodd" d="M120.303 61.0042L119.778 60.7014C119.101 61.8537 117.627 62.2509 116.471 61.5854C115.316 60.9164 114.914 59.4363 115.582 58.2789C116.25 57.1223 117.733 56.7294 118.89 57.3948C120.045 58.0638 120.437 59.5397 119.778 60.7014L120.818 61.3019C121.821 59.5657 121.228 57.3485 119.495 56.3476C117.761 55.3468 115.536 55.9371 114.533 57.6733C113.531 59.4094 114.132 61.6318 115.865 62.6335C117.599 63.6343 119.816 63.038 120.818 61.3019L120.303 61.0042Z" fill="#FF9900" fill-opacity="0.5"/>
<path fill-rule="evenodd" clip-rule="evenodd" d="M137.059 70.6788L136.535 70.376C135.867 71.5334 134.393 71.9306 133.236 71.2651C132.073 70.591 131.68 69.116 132.348 67.9586C133.016 66.802 134.49 66.404 135.656 67.0745C136.81 67.7435 137.203 69.2194 136.535 70.376L137.584 70.9816C138.586 69.2454 137.994 67.0282 136.26 66.0273C134.518 65.0214 132.301 65.6168 131.299 67.3529C130.297 69.0891 130.889 71.3072 132.631 72.3132C134.365 73.314 136.582 72.7177 137.584 70.9816L137.059 70.6788Z" fill="#FF9900" fill-opacity="0.5"/>
<path fill-rule="evenodd" clip-rule="evenodd" d="M153.826 80.3589L153.302 80.0561C152.633 81.2136 151.151 81.6056 149.994 80.9402C148.839 80.2712 148.446 78.7962 149.115 77.6387C149.782 76.4822 151.257 76.0841 152.413 76.7496C153.568 77.4186 153.969 78.8996 153.302 80.0561L154.351 80.6618C155.353 78.9256 154.76 76.7083 153.018 75.7024C151.284 74.7016 149.068 75.297 148.066 77.0331C147.063 78.7693 147.656 80.9865 149.389 81.9883C151.132 82.9933 153.348 82.3979 154.351 80.6618L153.826 80.3589Z" fill="#FF9900" fill-opacity="0.5"/>
<path fill-rule="evenodd" clip-rule="evenodd" d="M170.592 90.0386L170.067 89.7358C169.399 90.8933 167.916 91.2853 166.76 90.6199C165.605 89.9509 165.212 88.4759 165.871 87.3133C166.548 86.1619 168.022 85.7638 169.179 86.4293C170.334 87.0983 170.735 88.5793 170.067 89.7358L171.116 90.3414C172.119 88.6053 171.517 86.3829 169.784 85.3821C168.05 84.3812 165.834 84.9767 164.822 86.7077C163.829 88.449 164.422 90.6662 166.155 91.6679C167.888 92.6688 170.114 92.0776 171.116 90.3414L170.592 90.0386Z" fill="#FF9900" fill-opacity="0.5"/>
<path fill-rule="evenodd" clip-rule="evenodd" d="M62.3822 6.46945L61.8577 6.16664C61.19 7.32318 59.7072 7.71522 58.55 7.05067C57.3959 6.38079 57.0029 4.9058 57.6618 3.74412C58.3389 2.59182 59.8128 2.19465 60.9695 2.86009C62.1241 3.52908 62.5259 5.0092 61.8577 6.16664L62.9067 6.77226C63.909 5.03611 63.3081 2.81282 61.5746 1.812C59.8411 0.81117 57.6241 1.40748 56.6217 3.14363C55.6193 4.87978 56.2119 7.09705 57.9454 8.09787C59.6789 9.0987 61.9043 8.50841 62.9067 6.77226L62.3822 6.46945Z" fill="#FF9900" fill-opacity="0.5"/>
<path fill-rule="evenodd" clip-rule="evenodd" d="M79.139 16.144L78.6234 15.8463C77.9468 16.9977 76.4729 17.3949 75.3157 16.7304C74.1616 16.0605 73.7598 14.5804 74.4275 13.4238C75.0958 12.2664 76.5785 11.8743 77.7352 12.5398C78.8898 13.2088 79.2828 14.6838 78.6234 15.8463L79.6635 16.4468C80.6659 14.7107 80.0738 12.4925 78.3403 11.4917C76.6068 10.4909 74.3809 11.082 73.3785 12.8182C72.3762 14.5543 72.9777 16.7767 74.7111 17.7776C76.4446 18.7784 78.6611 18.183 79.6635 16.4468L79.139 16.144Z" fill="#FF9900" fill-opacity="0.5"/>
<path fill-rule="evenodd" clip-rule="evenodd" d="M95.9056 25.8239L95.3811 25.5211C94.7134 26.6777 93.2395 27.0748 92.0823 26.4103C90.9193 25.7353 90.5264 24.2603 91.1941 23.1037C91.8624 21.9463 93.3362 21.5491 94.5018 22.2197C95.6564 22.8887 96.0494 24.3637 95.3811 25.5211L96.4301 26.1268C97.4325 24.3906 96.8404 22.1724 95.1069 21.1716C93.3645 20.1657 91.1475 20.762 90.1451 22.4981C89.1428 24.2343 89.7354 26.4515 91.4777 27.4575C93.2112 28.4583 95.4278 27.8629 96.4301 26.1268L95.9056 25.8239Z" fill="#FF9900" fill-opacity="0.5"/>
<path fill-rule="evenodd" clip-rule="evenodd" d="M112.671 35.5034L112.147 35.2006C111.479 36.3571 109.996 36.7492 108.839 36.0846C107.685 35.4147 107.292 33.9397 107.951 32.7781C108.628 31.6258 110.102 31.2286 111.259 31.894C112.413 32.563 112.815 34.0431 112.147 35.2006L113.196 35.8062C114.198 34.0701 113.606 31.8519 111.864 30.8459C110.13 29.8451 107.913 30.4414 106.911 32.1776C105.908 33.9137 106.501 36.131 108.234 37.1318C109.977 38.1378 112.193 37.5423 113.196 35.8062L112.671 35.5034Z" fill="#FF9900" fill-opacity="0.5"/>
<path fill-rule="evenodd" clip-rule="evenodd" d="M129.437 45.1833L128.912 44.8805C128.236 46.0319 126.762 46.4291 125.605 45.7645C124.451 45.0947 124.049 43.6145 124.717 42.458C125.385 41.3006 126.868 40.9085 128.024 41.574C129.179 42.243 129.572 43.7179 128.912 44.8805L129.953 45.481C130.955 43.7449 130.363 41.5267 128.629 40.5259C126.896 39.525 124.67 40.1162 123.668 41.8524C122.665 43.5885 123.267 45.8109 125 46.8117C126.734 47.8126 128.95 47.2172 129.953 45.481L129.437 45.1833Z" fill="#FF9900" fill-opacity="0.5"/>
<path fill-rule="evenodd" clip-rule="evenodd" d="M146.194 54.8579L145.669 54.5551C145.001 55.7116 143.528 56.1088 142.37 55.4442C141.207 54.7692 140.814 53.2942 141.482 52.1377C142.15 50.9802 143.624 50.5831 144.79 51.2536C145.944 51.9226 146.337 53.3976 145.669 54.5551L146.718 55.1607C147.721 53.4245 147.128 51.2064 145.395 50.2056C143.653 49.1996 141.436 49.7959 140.433 51.5321C139.431 53.2682 140.023 55.4855 141.766 56.4914C143.499 57.4923 145.716 56.8968 146.718 55.1607L146.194 54.8579Z" fill="#FF9900" fill-opacity="0.5"/>
<path fill-rule="evenodd" clip-rule="evenodd" d="M162.959 64.5378L162.435 64.235C161.767 65.3915 160.284 65.7836 159.127 65.119C157.973 64.4491 157.58 62.9742 158.248 61.8176C158.916 60.6602 160.39 60.263 161.547 60.9284C162.701 61.5974 163.103 63.0776 162.435 64.235L163.484 64.8406C164.486 63.1045 163.894 60.8863 162.152 59.8804C160.418 58.8795 158.201 59.4758 157.199 61.212C156.196 62.9481 156.789 65.1654 158.523 66.1662C160.265 67.1722 162.481 66.5768 163.484 64.8406L162.959 64.5378Z" fill="#FF9900" fill-opacity="0.5"/>
<path fill-rule="evenodd" clip-rule="evenodd" d="M179.726 74.2175L179.202 73.9147C178.534 75.0712 177.051 75.4633 175.894 74.7987C174.74 74.1288 174.347 72.6539 175.006 71.4922C175.683 70.3399 177.157 69.9427 178.313 70.6081C179.468 71.2771 179.87 72.7573 179.202 73.9147L180.251 74.5203C181.253 72.7842 180.652 70.5609 178.918 69.5601C177.185 68.5592 174.968 69.1555 173.957 70.8865C172.963 72.6278 173.556 74.8451 175.289 75.8459C177.023 76.8468 179.248 76.2565 180.251 74.5203L179.726 74.2175Z" fill="#FF9900" fill-opacity="0.5"/>
<mask id="mask0" mask-type="alpha" maskUnits="userSpaceOnUse" x="1" y="96" width="8" height="8">
<path d="M3.13827 103.027C1.4053 102.025 0.812684 99.808 1.81505 98.0718C2.81742 96.3357 5.03445 95.7394 6.76793 96.7402C8.50141 97.741 9.1024 99.9643 8.10004 101.7C7.09767 103.437 4.87226 104.027 3.13827 103.027ZM6.16282 97.7883C5.00613 97.1229 3.53227 97.52 2.85514 98.6723C2.1963 99.834 2.58875 101.31 3.74338 101.979C4.90006 102.644 6.38333 102.251 7.05106 101.095C7.7193 99.9374 7.31744 98.4573 6.16282 97.7883Z" fill="white"/>
</mask>
<g mask="url(#mask0)">
<path fill-rule="evenodd" clip-rule="evenodd" d="M3.13827 103.027C1.4053 102.025 0.812684 99.808 1.81505 98.0718C2.81742 96.3357 5.03445 95.7394 6.76793 96.7402C8.50141 97.741 9.1024 99.9643 8.10004 101.7C7.09767 103.437 4.87226 104.027 3.13827 103.027ZM6.16282 97.7883C5.00613 97.1229 3.53227 97.52 2.85514 98.6723C2.1963 99.834 2.58875 101.31 3.74338 101.979C4.90006 102.644 6.38333 102.251 7.05106 101.095C7.7193 99.9374 7.31744 98.4573 6.16282 97.7883Z" fill="#FF9900" fill-opacity="0.5"/>
</g>
<mask id="mask1" mask-type="alpha" maskUnits="userSpaceOnUse" x="18" y="105" width="8" height="9">
<path d="M19.9046 112.707C18.1716 111.705 17.5701 109.483 18.5724 107.747C19.5497 106.054 21.6886 105.449 23.3993 106.346C23.9985 107.833 24.5659 109.314 25.1214 110.815C25.0564 111.01 24.9627 111.193 24.8574 111.375C23.8551 113.111 21.6386 113.707 19.9046 112.707ZM22.9291 107.468C21.7724 106.803 20.2897 107.195 19.6214 108.352C18.9537 109.509 19.355 110.99 20.5097 111.659C21.6664 112.324 23.1407 111.926 23.8173 110.775C24.4767 109.612 24.0837 108.137 22.9291 107.468Z" fill="white"/>
</mask>
<g mask="url(#mask1)">
<path fill-rule="evenodd" clip-rule="evenodd" d="M19.9046 112.707C18.1716 111.705 17.5701 109.483 18.5724 107.747C19.5497 106.054 21.6886 105.449 23.3993 106.346C23.9985 107.833 24.5659 109.314 25.1214 110.815C25.0564 111.01 24.9627 111.193 24.8574 111.375C23.8551 113.111 21.6386 113.707 19.9046 112.707ZM22.9291 107.468C21.7724 106.803 20.2897 107.195 19.6214 108.352C18.9537 109.509 19.355 110.99 20.5097 111.659C21.6664 112.324 23.1407 111.926 23.8173 110.775C24.4767 109.612 24.0837 108.137 22.9291 107.468Z" fill="#FF9900" fill-opacity="0.5"/>
</g>
<mask id="mask2" mask-type="alpha" maskUnits="userSpaceOnUse" x="10" y="81" width="5" height="7">
<path d="M12.273 87.2052C10.5395 86.2044 9.94739 83.9862 10.9498 82.2501C11.0411 82.0918 11.1403 81.9405 11.2464 81.7979C11.4833 82.1883 11.7117 82.5727 11.9382 82.9606C11.3515 84.0999 11.759 85.5086 12.8781 86.1571C13.2159 86.3521 13.5821 86.4569 13.9482 86.4798C14.1616 86.8697 14.3751 87.2596 14.5959 87.6574C13.8212 87.7672 13.0019 87.6261 12.273 87.2052Z" fill="white"/>
</mask>
<g mask="url(#mask2)">
<path fill-rule="evenodd" clip-rule="evenodd" d="M12.273 87.2052C10.5395 86.2044 9.94739 83.9862 10.9498 82.2501C11.0411 82.0918 11.1403 81.9405 11.2464 81.7979C11.4833 82.1883 11.7117 82.5727 11.9382 82.9606C11.3515 84.0999 11.759 85.5086 12.8781 86.1571C13.2159 86.3521 13.5821 86.4569 13.9482 86.4798C14.1616 86.8697 14.3751 87.2596 14.5959 87.6574C13.8212 87.7672 13.0019 87.6261 12.273 87.2052Z" fill="#FF9900" fill-opacity="0.5"/>
</g>
</svg>
