<svg width="94" height="118" viewBox="0 0 94 118" fill="none" xmlns="http://www.w3.org/2000/svg">
<path d="M93.6437 14.5188L7.75977 64.2202L93.6437 117.5V14.5188Z" fill="#51ADA6" fill-opacity="0.1"/>
<path fill-rule="evenodd" clip-rule="evenodd" d="M1.11602 48.0273L10.8443 57.7539C10.999 57.9137 11.2569 57.9137 11.4115 57.7539C11.5834 57.5941 11.5834 57.3345 11.4115 57.1747L1.70041 47.4498C1.52853 47.2899 1.27071 47.2899 1.11602 47.4498C0.961327 47.6096 0.961327 47.8674 1.11602 48.0273Z" fill="#51ADA6" stroke="#51ADA6" stroke-width="0.5"/>
<path fill-rule="evenodd" clip-rule="evenodd" d="M11.1365 42.2315L48.2795 79.3676C48.4342 79.5275 48.692 79.5275 48.8639 79.3676C49.0186 79.2078 49.0186 78.9482 48.8639 78.7884L11.7209 41.654C11.5662 41.4942 11.3084 41.4942 11.1365 41.654C10.9818 41.8139 10.9818 42.0717 11.1365 42.2315Z" fill="#51ADA6" stroke="#51ADA6" stroke-width="0.5"/>
<path fill-rule="evenodd" clip-rule="evenodd" d="M21.1736 36.4426L84.5968 99.8572C84.7515 100.017 85.0093 100.017 85.164 99.8572C85.3359 99.6973 85.3359 99.4395 85.164 99.2797L21.758 35.8634C21.5861 35.7035 21.3283 35.7035 21.1736 35.8634C21.0189 36.0232 21.0189 36.2827 21.1736 36.4426Z" fill="#51ADA6" stroke="#51ADA6" stroke-width="0.5"/>
<path fill-rule="evenodd" clip-rule="evenodd" d="M31.1951 30.6521L84.5978 84.041C84.7525 84.1992 85.0103 84.1992 85.165 84.041C85.3369 83.8812 85.3369 83.6217 85.165 83.4618L31.7795 30.0746C31.6248 29.9148 31.367 29.9148 31.1951 30.0746C31.0404 30.2344 31.0404 30.4923 31.1951 30.6521Z" fill="#51ADA6" stroke="#51ADA6" stroke-width="0.5"/>
<path fill-rule="evenodd" clip-rule="evenodd" d="M41.2322 24.8632L84.5972 68.2161C84.7519 68.376 85.0097 68.376 85.1644 68.2161C85.3363 68.0563 85.3363 67.7967 85.1644 67.6369L41.8166 24.2839C41.6619 24.1241 41.4041 24.1241 41.2322 24.2839C41.0775 24.4438 41.0775 24.7033 41.2322 24.8632Z" fill="#51ADA6" stroke="#51ADA6" stroke-width="0.5"/>
<path fill-rule="evenodd" clip-rule="evenodd" d="M51.2705 19.0674L84.5978 52.3929C84.7525 52.5528 85.0103 52.5528 85.165 52.3929C85.3368 52.2331 85.3368 51.9736 85.165 51.8137L51.8377 18.4882C51.683 18.3283 51.4252 18.3283 51.2705 18.4882C51.0986 18.648 51.0986 18.9076 51.2705 19.0674Z" fill="#51ADA6" stroke="#51ADA6" stroke-width="0.5"/>
<path fill-rule="evenodd" clip-rule="evenodd" d="M61.2908 13.2769L84.5976 36.5699C84.7523 36.7297 85.0101 36.7297 85.1648 36.5699C85.3366 36.41 85.3366 36.1505 85.1648 35.9906L61.8752 12.6994C61.7205 12.5395 61.4627 12.5395 61.2908 12.6994C61.1361 12.8592 61.1361 13.117 61.2908 13.2769Z" fill="#51ADA6" stroke="#51ADA6" stroke-width="0.5"/>
<path fill-rule="evenodd" clip-rule="evenodd" d="M71.3289 7.488L84.5979 20.745C84.7526 20.9048 85.0104 20.9048 85.1651 20.745C85.337 20.5851 85.337 20.3273 85.1651 20.1675L71.9133 6.90876C71.7586 6.74892 71.5008 6.74892 71.3289 6.90876C71.1742 7.06861 71.1742 7.32815 71.3289 7.488Z" fill="#51ADA6" stroke="#51ADA6" stroke-width="0.5"/>
<path fill-rule="evenodd" clip-rule="evenodd" d="M81.366 1.6974L84.5973 4.92184C84.752 5.08169 85.0098 5.08169 85.1645 4.92184C85.3364 4.76199 85.3364 4.50246 85.1645 4.34261L81.9504 1.11989C81.7785 0.960038 81.5207 0.960038 81.366 1.11989C81.2113 1.27973 81.2113 1.53755 81.366 1.6974Z" fill="#51ADA6" stroke="#51ADA6" stroke-width="0.5"/>
</svg>
