<svg xmlns="http://www.w3.org/2000/svg" width="72" height="71" viewBox="0 0 72 71"><g><g><g><path fill="#51ada6" d="M2.302 1.151A1.152 1.152 0 1 1 0 1.153a1.152 1.152 0 0 1 2.303-.002zm0 6.957a1.151 1.151 0 1 1-2.302 0 1.151 1.151 0 0 1 2.302 0zm0 6.955a1.151 1.151 0 1 1-2.302 0 1.151 1.151 0 0 1 2.302 0zm0 6.956a1.151 1.151 0 1 1-2.302 0 1.151 1.151 0 0 1 2.302 0zm0 6.955A1.152 1.152 0 1 1 0 28.976a1.152 1.152 0 0 1 2.303-.002zm0 6.957a1.151 1.151 0 1 1-2.302 0 1.151 1.151 0 0 1 2.302 0zm0 6.955a1.151 1.151 0 1 1-2.302 0 1.151 1.151 0 0 1 2.302 0zM0 49.842a1.151 1.151 0 1 1 2.303 0 1.151 1.151 0 0 1-2.303 0zm7.37 0a1.151 1.151 0 1 1 2.302 0 1.151 1.151 0 0 1-2.302 0zm9.672 0a1.152 1.152 0 1 1-2.303-.001 1.152 1.152 0 0 1 2.303 0zm5.067 0a1.151 1.151 0 1 1 2.302 0 1.151 1.151 0 0 1-2.302 0zm9.673 0a1.151 1.151 0 1 1-2.303 0 1.151 1.151 0 0 1 2.303 0zm5.068 0a1.151 1.151 0 1 1 2.302 0 1.151 1.151 0 0 1-2.302 0zm9.671 0a1.151 1.151 0 1 1-2.302 0 1.151 1.151 0 0 1 2.302 0zm5.067 0a1.151 1.151 0 1 1 2.303 0 1.151 1.151 0 0 1-2.303 0zM7.37 42.886c0-.635.515-1.152 1.15-1.152a1.152 1.152 0 0 1 0 2.303 1.151 1.151 0 0 1-1.15-1.15zm9.672 0a1.152 1.152 0 1 1-2.303 0 1.152 1.152 0 0 1 2.303 0zm5.067 0a1.152 1.152 0 1 1 2.304 0 1.152 1.152 0 0 1-2.304 0zm9.673 0a1.151 1.151 0 1 1-2.303 0 1.151 1.151 0 0 1 2.303 0zm5.068 0c0-.635.515-1.152 1.15-1.152a1.152 1.152 0 0 1 0 2.303 1.151 1.151 0 0 1-1.15-1.15zm9.671 0a1.151 1.151 0 1 1-2.302 0 1.151 1.151 0 0 1 2.302 0zm5.067 0a1.152 1.152 0 1 1 2.305 0 1.152 1.152 0 0 1-2.305 0zM7.37 35.931a1.152 1.152 0 1 1 2.303-.002 1.152 1.152 0 0 1-2.303.002zm9.672 0a1.152 1.152 0 1 1-2.303-.001 1.152 1.152 0 0 1 2.303 0zm5.067 0a1.152 1.152 0 1 1 2.303-.002 1.152 1.152 0 0 1-2.303.002zm9.673 0a1.151 1.151 0 1 1-2.303 0 1.151 1.151 0 0 1 2.303 0zm5.068 0a1.152 1.152 0 1 1 2.303-.002 1.152 1.152 0 0 1-2.303.002zm9.671 0a1.151 1.151 0 1 1-2.302 0 1.151 1.151 0 0 1 2.302 0zm5.067 0a1.152 1.152 0 1 1 2.303-.002 1.152 1.152 0 0 1-2.303.002zM7.37 28.974a1.151 1.151 0 1 1 2.302 0 1.151 1.151 0 0 1-2.302 0zm9.672 0a1.152 1.152 0 1 1-2.303.001 1.152 1.152 0 0 1 2.303 0zm5.067 0a1.151 1.151 0 1 1 2.302 0 1.151 1.151 0 0 1-2.302 0zm9.673 0a1.152 1.152 0 1 1-2.303.002 1.152 1.152 0 0 1 2.303-.002zm5.068 0a1.151 1.151 0 1 1 2.302 0 1.151 1.151 0 0 1-2.302 0zm9.671 0a1.152 1.152 0 1 1-2.303.002 1.152 1.152 0 0 1 2.303-.002zm5.067 0a1.151 1.151 0 1 1 2.303 0 1.151 1.151 0 0 1-2.303 0zM7.37 22.02a1.151 1.151 0 1 1 2.302 0 1.151 1.151 0 0 1-2.302 0zm9.672 0a1.152 1.152 0 1 1-2.303-.001 1.152 1.152 0 0 1 2.303 0zm5.067 0a1.151 1.151 0 1 1 2.302 0 1.151 1.151 0 0 1-2.302 0zm9.673 0a1.151 1.151 0 1 1-2.303 0 1.151 1.151 0 0 1 2.303 0zm5.068 0a1.151 1.151 0 1 1 2.302 0 1.151 1.151 0 0 1-2.302 0zm9.671 0a1.151 1.151 0 1 1-2.302 0 1.151 1.151 0 0 1 2.302 0zm5.067 0a1.151 1.151 0 1 1 2.303 0 1.151 1.151 0 0 1-2.303 0zM7.37 15.063c0-.635.515-1.152 1.15-1.152a1.152 1.152 0 0 1 0 2.303 1.151 1.151 0 0 1-1.15-1.15zm9.672 0a1.152 1.152 0 1 1-2.303 0 1.152 1.152 0 0 1 2.303 0zm5.067 0a1.152 1.152 0 1 1 2.304 0 1.152 1.152 0 0 1-2.304 0zm9.673 0a1.151 1.151 0 1 1-2.303 0 1.151 1.151 0 0 1 2.303 0zm5.068 0c0-.635.515-1.152 1.15-1.152a1.152 1.152 0 0 1 0 2.303 1.151 1.151 0 0 1-1.15-1.15zm9.671 0a1.151 1.151 0 1 1-2.302 0 1.151 1.151 0 0 1 2.302 0zm5.067 0a1.152 1.152 0 1 1 2.305 0 1.152 1.152 0 0 1-2.305 0zM7.37 8.108a1.152 1.152 0 1 1 2.303-.002 1.152 1.152 0 0 1-2.303.002zm9.672 0a1.152 1.152 0 1 1-2.303 0 1.152 1.152 0 0 1 2.303 0zm5.067 0a1.152 1.152 0 1 1 2.303-.002 1.152 1.152 0 0 1-2.303.002zm9.673 0a1.151 1.151 0 1 1-2.303 0 1.151 1.151 0 0 1 2.303 0zm5.068 0a1.152 1.152 0 1 1 2.303-.002 1.152 1.152 0 0 1-2.303.002zm9.671 0a1.151 1.151 0 1 1-2.302 0 1.151 1.151 0 0 1 2.302 0zm5.067 0a1.152 1.152 0 1 1 2.303-.002 1.152 1.152 0 0 1-2.303.002zM7.37 1.15a1.151 1.151 0 1 1 2.302 0 1.151 1.151 0 0 1-2.302 0zm9.672 0a1.152 1.152 0 1 1-2.303.001 1.152 1.152 0 0 1 2.303 0zm5.067 0a1.151 1.151 0 1 1 2.302 0 1.151 1.151 0 0 1-2.302 0zm9.673 0a1.152 1.152 0 1 1-2.303.002 1.152 1.152 0 0 1 2.303-.002zm5.068 0a1.151 1.151 0 1 1 2.302 0 1.151 1.151 0 0 1-2.302 0zm9.671 0a1.152 1.152 0 1 1-2.303.002 1.152 1.152 0 0 1 2.303-.002zm5.067 0a1.151 1.151 0 1 1 2.303 0 1.151 1.151 0 0 1-2.303 0z"/></g><g><path fill="#e8b260" d="M69.402 69.925v-.557H22.319a1.488 1.488 0 0 1-1.487-1.486V20.799a1.488 1.488 0 0 1 1.487-1.487h47.083c.82.002 1.485.666 1.486 1.487v47.083a1.488 1.488 0 0 1-1.486 1.486v1.112A2.599 2.599 0 0 0 72 67.882V20.799a2.599 2.599 0 0 0-2.598-2.599H22.319a2.599 2.599 0 0 0-2.599 2.599v47.083a2.599 2.599 0 0 0 2.599 2.598h47.083z"/></g></g></g></svg>