<svg xmlns="http://www.w3.org/2000/svg" width="285" height="285" viewBox="0 0 285 285"><defs><clipPath id="el7ia"><path fill="#fff" d="M285 142.5c0 78.701-63.799 142.5-142.5 142.5C63.8 285 0 221.201 0 142.5 0 63.8 63.8 0 142.5 0 221.201 0 285 63.8 285 142.5z"/></clipPath><clipPath id="el7ib"><path fill="#fff" d="M259.092 142.501c0 64.391-52.2 116.591-116.591 116.591-64.392 0-116.591-52.2-116.591-116.591 0-64.392 52.2-116.591 116.591-116.591 64.391 0 116.591 52.2 116.591 116.591z"/></clipPath><clipPath id="el7ic"><path fill="#fff" d="M233.184 142.502c0 50.082-40.6 90.682-90.682 90.682s-90.682-40.6-90.682-90.682 40.6-90.682 90.682-90.682 90.682 40.6 90.682 90.682z"/></clipPath><clipPath id="el7id"><path fill="#fff" d="M207.275 142.503c0 35.773-28.999 64.772-64.772 64.772-35.773 0-64.773-28.999-64.773-64.772 0-35.773 29-64.773 64.773-64.773 35.773 0 64.772 29 64.772 64.773z"/></clipPath><clipPath id="el7ie"><path fill="#fff" d="M181.367 142.504c0 21.463-17.4 38.863-38.863 38.863-21.464 0-38.864-17.4-38.864-38.863 0-21.464 17.4-38.864 38.864-38.864 21.463 0 38.863 17.4 38.863 38.864z"/></clipPath></defs><g><g><g><path fill="none" stroke="#fff" stroke-miterlimit="20" stroke-opacity=".09" stroke-width="2" d="M285 142.5c0 78.701-63.799 142.5-142.5 142.5C63.8 285 0 221.201 0 142.5 0 63.8 63.8 0 142.5 0 221.201 0 285 63.8 285 142.5z" clip-path="url(&quot;#el7ia&quot;)"/></g><g><path fill="none" stroke="#fff" stroke-miterlimit="20" stroke-opacity=".09" stroke-width="2" d="M259.092 142.501c0 64.391-52.2 116.591-116.591 116.591-64.392 0-116.591-52.2-116.591-116.591 0-64.392 52.2-116.591 116.591-116.591 64.391 0 116.591 52.2 116.591 116.591z" clip-path="url(&quot;#el7ib&quot;)"/></g><g><path fill="none" stroke="#fff" stroke-miterlimit="20" stroke-opacity=".09" stroke-width="2" d="M233.184 142.502c0 50.082-40.6 90.682-90.682 90.682s-90.682-40.6-90.682-90.682 40.6-90.682 90.682-90.682 90.682 40.6 90.682 90.682z" clip-path="url(&quot;#el7ic&quot;)"/></g><g><path fill="none" stroke="#fff" stroke-miterlimit="20" stroke-opacity=".09" stroke-width="2" d="M207.275 142.503c0 35.773-28.999 64.772-64.772 64.772-35.773 0-64.773-28.999-64.773-64.772 0-35.773 29-64.773 64.773-64.773 35.773 0 64.772 29 64.772 64.773z" clip-path="url(&quot;#el7id&quot;)"/></g><g><path fill="none" stroke="#fff" stroke-miterlimit="20" stroke-opacity=".09" stroke-width="2" d="M181.367 142.504c0 21.463-17.4 38.863-38.863 38.863-21.464 0-38.864-17.4-38.864-38.863 0-21.464 17.4-38.864 38.864-38.864 21.463 0 38.863 17.4 38.863 38.864z" clip-path="url(&quot;#el7ie&quot;)"/></g></g></g></svg>