<svg width="107" height="102" viewBox="0 0 107 102" fill="none" xmlns="http://www.w3.org/2000/svg">
<path d="M106.697 91L106.697 0L10.1973 -4.21815e-06L106.697 91Z" fill="#F8EEDD"/>
<path fill-rule="evenodd" clip-rule="evenodd" d="M92.7049 11.9335L93.0751 11.9335C93.0766 10.9896 93.8317 10.2374 94.7667 10.2374C95.7018 10.2374 96.4584 10.9896 96.4598 11.9335C96.4584 12.8626 95.7018 13.6148 94.7667 13.6148C93.8317 13.6148 93.0766 12.8626 93.0751 11.9335L92.3377 11.9335C92.3377 13.2756 93.4246 14.3522 94.7667 14.3522C96.1088 14.3522 97.1973 13.2756 97.1973 11.9335C97.1973 10.5914 96.1088 9.5 94.7667 9.5C93.4246 9.5 92.3377 10.5914 92.3377 11.9335L92.7049 11.9335Z" fill="#E8B260"/>
<path fill-rule="evenodd" clip-rule="evenodd" d="M79.514 11.9335L79.8842 11.9335C79.8857 10.9896 80.6408 10.2374 81.5758 10.2374C82.5109 10.2374 83.266 10.9896 83.2689 11.9335C83.266 12.8626 82.5109 13.6148 81.5758 13.6148C80.6408 13.6148 79.8857 12.8626 79.8842 11.9335L79.1468 11.9335C79.1468 13.2756 80.2337 14.3522 81.5758 14.3522C82.9179 14.3522 84.0049 13.2756 84.0049 11.9335C84.0049 10.5914 82.9179 9.5 81.5758 9.5C80.2337 9.5 79.1468 10.5914 79.1468 11.9335L79.514 11.9335Z" fill="#E8B260"/>
<path fill-rule="evenodd" clip-rule="evenodd" d="M66.3231 11.9335L66.6918 11.9335C66.6947 10.9896 67.4499 10.2374 68.3849 10.2374C69.32 10.2374 70.0751 10.9896 70.0765 11.9335C70.0751 12.8626 69.32 13.6148 68.3849 13.6148C67.4499 13.6148 66.6947 12.8626 66.6918 11.9335L65.9559 11.9335C65.9559 13.2756 67.0428 14.3522 68.3849 14.3522C69.727 14.3522 70.814 13.2756 70.814 11.9335C70.814 10.5914 69.727 9.5 68.3849 9.5C67.0428 9.5 65.9559 10.5914 65.9559 11.9335L66.3231 11.9335Z" fill="#E8B260"/>
<path fill-rule="evenodd" clip-rule="evenodd" d="M53.1322 11.9335L53.5009 11.9335C53.5024 10.9896 54.2589 10.2374 55.194 10.2374C56.1276 10.2374 56.8842 10.9896 56.8856 11.9335C56.8842 12.8626 56.1276 13.6148 55.194 13.6148C54.2589 13.6148 53.5024 12.8626 53.5009 11.9335L52.7635 11.9335C52.7635 13.2756 53.8519 14.3522 55.194 14.3522C56.5361 14.3522 57.623 13.2756 57.623 11.9335C57.623 10.5914 56.5361 9.5 55.194 9.5C53.8519 9.5 52.7635 10.5914 52.7635 11.9335L53.1322 11.9335Z" fill="#E8B260"/>
<path fill-rule="evenodd" clip-rule="evenodd" d="M39.9413 11.9335L40.31 11.9335C40.3114 10.9896 41.068 10.2374 42.0016 10.2374C42.9366 10.2374 43.6932 10.9896 43.6947 11.9335C43.6932 12.8626 42.9366 13.6148 42.0016 13.6148C41.068 13.6148 40.3114 12.8626 40.31 11.9335L39.5725 11.9335C39.5725 13.2756 40.661 14.3522 42.0016 14.3522C43.3452 14.3522 44.4321 13.2756 44.4321 11.9335C44.4321 10.5914 43.3452 9.5 42.0016 9.5C40.661 9.5 39.5725 10.5914 39.5725 11.9335L39.9413 11.9335Z" fill="#E8B260"/>
<path fill-rule="evenodd" clip-rule="evenodd" d="M26.7503 11.9335L27.119 11.9335C27.1205 10.9896 27.8771 10.2374 28.8107 10.2374C29.7457 10.2374 30.5023 10.9896 30.5038 11.9335C30.5023 12.8626 29.7457 13.6148 28.8107 13.6148C27.8771 13.6148 27.1205 12.8626 27.119 11.9335L26.3816 11.9335C26.3816 13.2756 27.4686 14.3522 28.8107 14.3522C30.1543 14.3522 31.2412 13.2756 31.2412 11.9335C31.2412 10.5914 30.1543 9.5 28.8107 9.5C27.4686 9.5 26.3816 10.5914 26.3816 11.9335L26.7503 11.9335Z" fill="#E8B260"/>
<path fill-rule="evenodd" clip-rule="evenodd" d="M13.5594 11.9335L13.9281 11.9335C13.9296 10.9896 14.6862 10.2374 15.6198 10.2374C16.5548 10.2374 17.3114 10.9896 17.3129 11.9335C17.3114 12.8626 16.5548 13.6148 15.6198 13.6148C14.6862 13.6148 13.9296 12.8626 13.9281 11.9335L13.1907 11.9335C13.1907 13.2756 14.2777 14.3522 15.6198 14.3522C16.9619 14.3522 18.0503 13.2756 18.0503 11.9335C18.0503 10.5914 16.9619 9.5 15.6198 9.5C14.2777 9.5 13.1907 10.5914 13.1907 11.9335L13.5594 11.9335Z" fill="#E8B260"/>
<path fill-rule="evenodd" clip-rule="evenodd" d="M0.368499 11.9335L0.737207 11.9335C0.738682 10.9896 1.4938 10.2374 2.42885 10.2374C3.36389 10.2374 4.12048 10.9896 4.12196 11.9335C4.12048 12.8626 3.36389 13.6148 2.42885 13.6148C1.4938 13.6148 0.738682 12.8626 0.737207 11.9335L-0.000210268 11.9335C-0.000210327 13.2756 1.08675 14.3522 2.42885 14.3522C3.77095 14.3522 4.85937 13.2756 4.85937 11.9335C4.85937 10.5914 3.77095 9.5 2.42885 9.5C1.08675 9.5 -0.00021021 10.5914 -0.000210268 11.9335L0.368499 11.9335Z" fill="#E8B260"/>
<path fill-rule="evenodd" clip-rule="evenodd" d="M92.7049 24.3808L93.0751 24.3808C93.0766 23.4369 93.8317 22.6847 94.7667 22.6847C95.7018 22.6847 96.4584 23.4369 96.4598 24.3808C96.4584 25.31 95.7018 26.0621 94.7667 26.0621C93.8317 26.0621 93.0766 25.31 93.0751 24.3808L92.3377 24.3808C92.3377 25.7229 93.4246 26.7995 94.7667 26.7995C96.1088 26.7995 97.1973 25.7229 97.1973 24.3808C97.1973 23.0387 96.1088 21.9473 94.7667 21.9473C93.4246 21.9473 92.3377 23.0387 92.3377 24.3808L92.7049 24.3808Z" fill="#E8B260"/>
<path fill-rule="evenodd" clip-rule="evenodd" d="M79.514 24.3808L79.8842 24.3808C79.8857 23.4369 80.6408 22.6847 81.5758 22.6847C82.5109 22.6847 83.266 23.4369 83.2689 24.3808C83.266 25.31 82.5109 26.0621 81.5758 26.0621C80.6408 26.0621 79.8857 25.31 79.8842 24.3808L79.1468 24.3808C79.1468 25.7229 80.2337 26.7995 81.5758 26.7995C82.9179 26.7995 84.0049 25.7229 84.0049 24.3808C84.0049 23.0387 82.9179 21.9473 81.5758 21.9473C80.2337 21.9473 79.1468 23.0387 79.1468 24.3808L79.514 24.3808Z" fill="#E8B260"/>
<path fill-rule="evenodd" clip-rule="evenodd" d="M66.3231 24.3808L66.6918 24.3808C66.6947 23.4369 67.4499 22.6847 68.3849 22.6847C69.32 22.6847 70.0751 23.4369 70.0765 24.3808C70.0751 25.31 69.32 26.0621 68.3849 26.0621C67.4499 26.0621 66.6947 25.31 66.6918 24.3808L65.9559 24.3808C65.9559 25.7229 67.0428 26.7995 68.3849 26.7995C69.727 26.7995 70.814 25.7229 70.814 24.3808C70.814 23.0387 69.727 21.9473 68.3849 21.9473C67.0428 21.9473 65.9559 23.0387 65.9559 24.3808L66.3231 24.3808Z" fill="#E8B260"/>
<path fill-rule="evenodd" clip-rule="evenodd" d="M53.1322 24.3808L53.5009 24.3808C53.5024 23.4369 54.2589 22.6847 55.194 22.6847C56.1276 22.6847 56.8842 23.4369 56.8856 24.3808C56.8842 25.31 56.129 26.0621 55.194 26.0621C54.2589 26.0621 53.5024 25.31 53.5009 24.3808L52.7635 24.3808C52.7635 25.7229 53.8519 26.7995 55.194 26.7995C56.5361 26.7995 57.623 25.7229 57.623 24.3808C57.623 23.0387 56.5361 21.9473 55.194 21.9473C53.8519 21.9473 52.7635 23.0387 52.7635 24.3808L53.1322 24.3808Z" fill="#E8B260"/>
<path fill-rule="evenodd" clip-rule="evenodd" d="M39.9413 24.3808L40.31 24.3808C40.3114 23.4369 41.068 22.6847 42.0016 22.6847C42.9366 22.6847 43.6932 23.4369 43.6947 24.3808C43.6932 25.31 42.9366 26.0621 42.0016 26.0621C41.068 26.0621 40.3114 25.31 40.31 24.3808L39.5725 24.3808C39.5725 25.7229 40.661 26.7995 42.0016 26.7995C43.3452 26.7995 44.4321 25.7229 44.4321 24.3808C44.4321 23.0387 43.3452 21.9473 42.0016 21.9473C40.661 21.9473 39.5725 23.0387 39.5725 24.3808L39.9413 24.3808Z" fill="#E8B260"/>
<path fill-rule="evenodd" clip-rule="evenodd" d="M26.7503 24.3808L27.119 24.3808C27.1205 23.4369 27.8771 22.6847 28.8107 22.6847C29.7457 22.6847 30.5023 23.4369 30.5038 24.3808C30.5023 25.31 29.7457 26.0621 28.8107 26.0621C27.8771 26.0621 27.1205 25.31 27.119 24.3808L26.3816 24.3808C26.3816 25.7229 27.4686 26.7995 28.8107 26.7995C30.1543 26.7995 31.2412 25.7229 31.2412 24.3808C31.2412 23.0387 30.1543 21.9473 28.8107 21.9473C27.4686 21.9473 26.3816 23.0387 26.3816 24.3808L26.7503 24.3808Z" fill="#E8B260"/>
<path fill-rule="evenodd" clip-rule="evenodd" d="M13.5594 24.3808L13.9281 24.3808C13.9296 23.4369 14.6862 22.6847 15.6198 22.6847C16.5548 22.6847 17.3114 23.4369 17.3129 24.3808C17.3114 25.31 16.5548 26.0621 15.6198 26.0621C14.6862 26.0621 13.9296 25.31 13.9281 24.3808L13.1907 24.3808C13.1907 25.7229 14.2777 26.7995 15.6198 26.7995C16.9619 26.7995 18.0503 25.7229 18.0503 24.3808C18.0503 23.0387 16.9619 21.9473 15.6198 21.9473C14.2777 21.9473 13.1907 23.0387 13.1907 24.3808L13.5594 24.3808Z" fill="#E8B260"/>
<path fill-rule="evenodd" clip-rule="evenodd" d="M92.7049 36.8286L93.0751 36.8286C93.0766 35.8994 93.8317 35.1325 94.7667 35.1325C95.7018 35.1325 96.4584 35.8994 96.4598 36.8286C96.4584 37.7577 95.7018 38.5246 94.7667 38.5246C93.8317 38.5246 93.0766 37.7577 93.0751 36.8286L92.3377 36.8286C92.3377 38.1707 93.4246 39.262 94.7667 39.262C96.1088 39.262 97.1973 38.1707 97.1973 36.8286C97.1973 35.4865 96.1088 34.3951 94.7667 34.3951C93.4246 34.3951 92.3377 35.4865 92.3377 36.8286L92.7049 36.8286Z" fill="#E8B260"/>
<path fill-rule="evenodd" clip-rule="evenodd" d="M79.514 36.8286L79.8842 36.8286C79.8857 35.8994 80.6408 35.1325 81.5758 35.1325C82.5109 35.1325 83.266 35.8994 83.2689 36.8286C83.266 37.7577 82.5109 38.5246 81.5758 38.5246C80.6408 38.5246 79.8857 37.7577 79.8842 36.8286L79.1468 36.8286C79.1468 38.1707 80.2337 39.262 81.5758 39.262C82.9179 39.262 84.0049 38.1707 84.0049 36.8286C84.0049 35.4865 82.9179 34.3951 81.5758 34.3951C80.2337 34.3951 79.1468 35.4865 79.1468 36.8286L79.514 36.8286Z" fill="#E8B260"/>
<path fill-rule="evenodd" clip-rule="evenodd" d="M66.3231 36.8286L66.6918 36.8286C66.6947 35.8994 67.4499 35.1325 68.3849 35.1325C69.32 35.1325 70.0751 35.8994 70.0765 36.8286C70.0751 37.7577 69.32 38.5246 68.3849 38.5246C67.4499 38.5246 66.6947 37.7577 66.6918 36.8286L65.9559 36.8286C65.9559 38.1707 67.0428 39.262 68.3849 39.262C69.727 39.262 70.814 38.1707 70.814 36.8286C70.814 35.4865 69.727 34.3951 68.3849 34.3951C67.0428 34.3951 65.9559 35.4865 65.9559 36.8286L66.3231 36.8286Z" fill="#E8B260"/>
<path fill-rule="evenodd" clip-rule="evenodd" d="M53.1322 36.8286L53.5009 36.8286C53.5024 35.8994 54.2589 35.1325 55.194 35.1325C56.1276 35.1325 56.8842 35.8994 56.8856 36.8286C56.8842 37.7577 56.1276 38.5246 55.194 38.5246C54.2589 38.5246 53.5024 37.7577 53.5009 36.8286L52.7635 36.8286C52.7635 38.1707 53.8519 39.262 55.194 39.262C56.5361 39.262 57.623 38.1707 57.623 36.8286C57.623 35.4865 56.5361 34.3951 55.194 34.3951C53.8519 34.3951 52.7635 35.4865 52.7635 36.8286L53.1322 36.8286Z" fill="#E8B260"/>
<path fill-rule="evenodd" clip-rule="evenodd" d="M39.9413 36.8286L40.31 36.8286C40.3114 35.8994 41.068 35.1325 42.0016 35.1325C42.9366 35.1325 43.6932 35.8994 43.6947 36.8286C43.6932 37.7577 42.9366 38.5246 42.0016 38.5246C41.068 38.5246 40.3114 37.7577 40.31 36.8286L39.5725 36.8286C39.5725 38.1707 40.661 39.262 42.0016 39.262C43.3452 39.262 44.4321 38.1707 44.4321 36.8286C44.4321 35.4865 43.3452 34.3951 42.0016 34.3951C40.661 34.3951 39.5725 35.4865 39.5725 36.8286L39.9413 36.8286Z" fill="#E8B260"/>
<path fill-rule="evenodd" clip-rule="evenodd" d="M26.7503 36.8286L27.119 36.8286C27.1205 35.8994 27.8771 35.1325 28.8107 35.1325C29.7457 35.1325 30.5023 35.8994 30.5038 36.8286C30.5023 37.7577 29.7457 38.5246 28.8107 38.5246C27.8771 38.5246 27.1205 37.7577 27.119 36.8286L26.3816 36.8286C26.3816 38.1707 27.4686 39.262 28.8107 39.262C30.1543 39.262 31.2412 38.1707 31.2412 36.8286C31.2412 35.4865 30.1543 34.3951 28.8107 34.3951C27.4686 34.3951 26.3816 35.4865 26.3816 36.8286L26.7503 36.8286Z" fill="#E8B260"/>
<path fill-rule="evenodd" clip-rule="evenodd" d="M92.7049 49.2767L93.0751 49.2767C93.0766 48.3475 93.8317 47.5806 94.7667 47.5806C95.7018 47.5806 96.4584 48.3475 96.4598 49.2767C96.4584 50.2058 95.7018 50.9727 94.7667 50.9727C93.8317 50.9727 93.0766 50.2058 93.0751 49.2767L92.3377 49.2767C92.3377 50.6188 93.4246 51.7102 94.7667 51.7102C96.1088 51.7102 97.1973 50.6188 97.1973 49.2767C97.1973 47.9346 96.1088 46.8432 94.7667 46.8432C93.4246 46.8432 92.3377 47.9346 92.3377 49.2767L92.7049 49.2767Z" fill="#E8B260"/>
<path fill-rule="evenodd" clip-rule="evenodd" d="M79.514 49.2767L79.8842 49.2767C79.8857 48.3475 80.6408 47.5806 81.5758 47.5806C82.5109 47.5806 83.266 48.3475 83.2689 49.2767C83.266 50.2058 82.5109 50.9727 81.5758 50.9727C80.6408 50.9727 79.8857 50.2058 79.8842 49.2767L79.1468 49.2767C79.1468 50.6188 80.2337 51.7102 81.5758 51.7102C82.9179 51.7102 84.0049 50.6188 84.0049 49.2767C84.0049 47.9346 82.9179 46.8432 81.5758 46.8432C80.2337 46.8432 79.1468 47.9346 79.1468 49.2767L79.514 49.2767Z" fill="#E8B260"/>
<path fill-rule="evenodd" clip-rule="evenodd" d="M66.3231 49.2767L66.6918 49.2767C66.6947 48.3475 67.4499 47.5806 68.3849 47.5806C69.32 47.5806 70.0751 48.3475 70.0765 49.2767C70.0751 50.2058 69.32 50.9727 68.3849 50.9727C67.4499 50.9727 66.6947 50.2058 66.6918 49.2767L65.9559 49.2767C65.9559 50.6188 67.0428 51.7102 68.3849 51.7102C69.727 51.7102 70.814 50.6188 70.814 49.2767C70.814 47.9346 69.727 46.8432 68.3849 46.8432C67.0428 46.8432 65.9559 47.9346 65.9559 49.2767L66.3231 49.2767Z" fill="#E8B260"/>
<path fill-rule="evenodd" clip-rule="evenodd" d="M53.1322 49.2767L53.5009 49.2767C53.5024 48.3475 54.2589 47.5806 55.194 47.5806C56.129 47.5806 56.8842 48.3475 56.8856 49.2767C56.8842 50.2058 56.129 50.9727 55.194 50.9727C54.2589 50.9727 53.5024 50.2058 53.5009 49.2767L52.7635 49.2767C52.7635 50.6188 53.8519 51.7102 55.194 51.7102C56.5361 51.7102 57.623 50.6188 57.623 49.2767C57.623 47.9346 56.5361 46.8432 55.194 46.8432C53.8519 46.8432 52.7635 47.9346 52.7635 49.2767L53.1322 49.2767Z" fill="#E8B260"/>
<path fill-rule="evenodd" clip-rule="evenodd" d="M39.9413 49.2767L40.31 49.2767C40.3114 48.3475 41.068 47.5806 42.0016 47.5806C42.9366 47.5806 43.6932 48.3475 43.6947 49.2767C43.6932 50.2058 42.9366 50.9727 42.0016 50.9727C41.068 50.9727 40.3114 50.2058 40.31 49.2767L39.5725 49.2767C39.5725 50.6188 40.661 51.7102 42.0016 51.7102C43.3452 51.7102 44.4321 50.6188 44.4321 49.2767C44.4321 47.9346 43.3452 46.8432 42.0016 46.8432C40.661 46.8432 39.5725 47.9346 39.5725 49.2767L39.9413 49.2767Z" fill="#E8B260"/>
<path fill-rule="evenodd" clip-rule="evenodd" d="M92.7049 61.7236L93.0751 61.7236C93.0766 60.7945 93.8317 60.0423 94.7667 60.0276C95.7018 60.0423 96.4584 60.7945 96.4598 61.7236C96.4584 62.6675 95.7018 63.4197 94.7667 63.4197C93.8317 63.4197 93.0766 62.6675 93.0751 61.7236L92.3377 61.7236C92.3377 63.0657 93.4246 64.1571 94.7667 64.1571C96.1088 64.1571 97.1973 63.0657 97.1973 61.7236C97.1973 60.3815 96.1088 59.2902 94.7667 59.2902C93.4246 59.2902 92.3377 60.3815 92.3377 61.7236L92.7049 61.7236Z" fill="#E8B260"/>
<path fill-rule="evenodd" clip-rule="evenodd" d="M79.514 61.7236L79.8842 61.7236C79.8857 60.7945 80.6408 60.0423 81.5758 60.0276C82.5109 60.0423 83.266 60.7945 83.2689 61.7236C83.266 62.6675 82.5109 63.4197 81.5758 63.4197C80.6408 63.4197 79.8857 62.6675 79.8842 61.7236L79.1468 61.7236C79.1468 63.0657 80.2337 64.1571 81.5758 64.1571C82.9179 64.1571 84.0049 63.0657 84.0049 61.7236C84.0049 60.3815 82.9179 59.2902 81.5758 59.2902C80.2337 59.2902 79.1468 60.3815 79.1468 61.7236L79.514 61.7236Z" fill="#E8B260"/>
<path fill-rule="evenodd" clip-rule="evenodd" d="M66.3231 61.7236L66.6918 61.7236C66.6947 60.7945 67.4499 60.0423 68.3849 60.0276C69.32 60.0423 70.0751 60.7945 70.0765 61.7236C70.0751 62.6675 69.32 63.4197 68.3849 63.4197C67.4499 63.4197 66.6947 62.6675 66.6918 61.7236L65.9559 61.7236C65.9559 63.0657 67.0428 64.1571 68.3849 64.1571C69.727 64.1571 70.814 63.0657 70.814 61.7236C70.814 60.3815 69.727 59.2902 68.3849 59.2902C67.0428 59.2902 65.9559 60.3815 65.9559 61.7236L66.3231 61.7236Z" fill="#E8B260"/>
<path fill-rule="evenodd" clip-rule="evenodd" d="M53.1322 61.7236L53.5009 61.7236C53.5024 60.7945 54.2589 60.0423 55.194 60.0276C56.1276 60.0423 56.8842 60.7945 56.8856 61.7236C56.8842 62.6675 56.1276 63.4197 55.194 63.4197C54.2589 63.4197 53.5024 62.6675 53.5009 61.7236L52.7635 61.7236C52.7635 63.0657 53.8519 64.1571 55.194 64.1571C56.5361 64.1571 57.623 63.0657 57.623 61.7236C57.623 60.3815 56.5361 59.2902 55.194 59.2902C53.8519 59.2902 52.7635 60.3815 52.7635 61.7236L53.1322 61.7236Z" fill="#E8B260"/>
<path fill-rule="evenodd" clip-rule="evenodd" d="M92.7064 74.1717L93.0751 74.1717C93.0766 73.2425 93.8332 72.4903 94.7667 72.4903C95.7018 72.4903 96.4584 73.2425 96.4598 74.1717C96.4584 75.1156 95.7018 75.8677 94.7667 75.8677C93.8332 75.8677 93.0766 75.1156 93.0751 74.1717L92.3377 74.1717C92.3377 75.5138 93.4246 76.6051 94.7667 76.6051C96.1088 76.6051 97.1973 75.5138 97.1973 74.1717C97.1973 72.8296 96.1088 71.7529 94.7667 71.7529C93.4246 71.7529 92.3377 72.8296 92.3377 74.1717L92.7064 74.1717Z" fill="#E8B260"/>
<path fill-rule="evenodd" clip-rule="evenodd" d="M79.514 74.1717L79.8842 74.1717C79.8857 73.2425 80.6408 72.4903 81.5758 72.4903C82.5109 72.4903 83.266 73.2425 83.2689 74.1717C83.266 75.1156 82.5109 75.8677 81.5758 75.8677C80.6408 75.8677 79.8857 75.1156 79.8842 74.1717L79.1468 74.1717C79.1468 75.5138 80.2337 76.6051 81.5758 76.6051C82.9179 76.6051 84.0049 75.5138 84.0049 74.1717C84.0049 72.8296 82.9179 71.7529 81.5758 71.7529C80.2337 71.7529 79.1468 72.8296 79.1468 74.1717L79.514 74.1717Z" fill="#E8B260"/>
<path fill-rule="evenodd" clip-rule="evenodd" d="M66.3231 74.1717L66.6918 74.1717C66.6947 73.2425 67.4499 72.4903 68.3849 72.4903C69.32 72.4903 70.0751 73.2425 70.0765 74.1717C70.0751 75.1156 69.32 75.8677 68.3849 75.8677C67.4499 75.8677 66.6947 75.1156 66.6918 74.1717L65.9559 74.1717C65.9559 75.5138 67.0428 76.6051 68.3849 76.6051C69.727 76.6051 70.814 75.5138 70.814 74.1717C70.814 72.8296 69.727 71.7529 68.3849 71.7529C67.0428 71.7529 65.9559 72.8296 65.9559 74.1717L66.3231 74.1717Z" fill="#E8B260"/>
<path fill-rule="evenodd" clip-rule="evenodd" d="M92.7064 86.6337L93.0751 86.6337C93.0766 85.6898 93.8332 84.9376 94.7667 84.9376C95.7018 84.9376 96.4584 85.6898 96.4598 86.6337C96.4584 87.5628 95.7018 88.315 94.7667 88.315C93.8332 88.315 93.0766 87.5628 93.0751 86.6337L92.3377 86.6337C92.3377 87.9758 93.4246 89.0524 94.7667 89.0524C96.1088 89.0524 97.1973 87.9758 97.1973 86.6337C97.1973 85.2916 96.1088 84.2002 94.7667 84.2002C93.4246 84.2002 92.3377 85.2916 92.3377 86.6337L92.7064 86.6337Z" fill="#E8B260"/>
<path fill-rule="evenodd" clip-rule="evenodd" d="M79.5155 86.6337L79.8842 86.6337C79.8857 85.6898 80.6408 84.9376 81.5758 84.9376C82.5109 84.9376 83.266 85.6898 83.2689 86.6337C83.266 87.5628 82.5109 88.315 81.5758 88.315C80.6408 88.315 79.8857 87.5628 79.8842 86.6337L79.1468 86.6337C79.1468 87.9758 80.2337 89.0524 81.5758 89.0524C82.9179 89.0524 84.0049 87.9758 84.0063 86.6337C84.0049 85.2916 82.9179 84.2002 81.5758 84.2002C80.2337 84.2002 79.1468 85.2916 79.1468 86.6337L79.5155 86.6337Z" fill="#E8B260"/>
<path fill-rule="evenodd" clip-rule="evenodd" d="M92.7064 99.0811L93.0751 99.0811C93.0766 98.1372 93.8332 97.385 94.7667 97.385C95.7018 97.385 96.4584 98.1372 96.4598 99.0811C96.4584 100.01 95.7018 100.762 94.7667 100.762C93.8332 100.762 93.0766 100.01 93.0751 99.0811L92.3377 99.0811C92.3377 100.423 93.4246 101.5 94.7667 101.5C96.1088 101.5 97.1973 100.423 97.1973 99.0811C97.1973 97.739 96.1088 96.6476 94.7667 96.6476C93.4246 96.6476 92.3377 97.739 92.3377 99.0811L92.7064 99.0811Z" fill="#E8B260"/>
<mask id="mask0" mask-type="alpha" maskUnits="userSpaceOnUse" x="92" y="9" width="6" height="6">
<path d="M92.3377 11.9335C92.3377 10.5914 93.4246 9.5 94.7667 9.5C96.1088 9.5 97.1973 10.5914 97.1973 11.9335C97.1973 13.2756 96.1088 14.3522 94.7667 14.3522C93.4246 14.3522 92.3377 13.2756 92.3377 11.9335L93.0751 11.9335C93.0766 12.8626 93.8317 13.6148 94.7667 13.6148C95.7018 13.6148 96.4584 12.8626 96.4598 11.9335C96.4584 10.9896 95.7018 10.2374 94.7667 10.2374C93.8317 10.2374 93.0766 10.9896 93.0751 11.9335L92.3377 11.9335Z" fill="#E8B260"/>
</mask>
<g mask="url(#mask0)">
<path fill-rule="evenodd" clip-rule="evenodd" d="M92.3377 11.9335C92.3377 10.5914 93.4246 9.5 94.7667 9.5C96.1088 9.5 97.1973 10.5914 97.1973 11.9335C97.1973 13.2756 96.1088 14.3522 94.7667 14.3522C93.4246 14.3522 92.3377 13.2756 92.3377 11.9335L93.0751 11.9335C93.0766 12.8626 93.8317 13.6148 94.7667 13.6148C95.7018 13.6148 96.4584 12.8626 96.4598 11.9335C96.4584 10.9896 95.7018 10.2374 94.7667 10.2374C93.8317 10.2374 93.0766 10.9896 93.0751 11.9335L92.3377 11.9335Z" fill="#E8B260"/>
</g>
<mask id="mask1" mask-type="alpha" maskUnits="userSpaceOnUse" x="79" y="9" width="6" height="6">
<path d="M79.1468 11.9335C79.1468 10.5914 80.2337 9.5 81.5758 9.5C82.9179 9.5 84.0049 10.5914 84.0049 11.9335C84.0049 13.2756 82.9179 14.3522 81.5758 14.3522C80.2337 14.3522 79.1468 13.2756 79.1468 11.9335L79.8842 11.9335C79.8857 12.8626 80.6408 13.6148 81.5758 13.6148C82.5109 13.6148 83.266 12.8626 83.2689 11.9335C83.266 10.9896 82.5109 10.2374 81.5758 10.2374C80.6408 10.2374 79.8857 10.9896 79.8842 11.9335L79.1468 11.9335Z" fill="#E8B260"/>
</mask>
<g mask="url(#mask1)">
<path fill-rule="evenodd" clip-rule="evenodd" d="M79.1468 11.9335C79.1468 10.5914 80.2337 9.5 81.5758 9.5C82.9179 9.5 84.0049 10.5914 84.0049 11.9335C84.0049 13.2756 82.9179 14.3522 81.5758 14.3522C80.2337 14.3522 79.1468 13.2756 79.1468 11.9335L79.8842 11.9335C79.8857 12.8626 80.6408 13.6148 81.5758 13.6148C82.5109 13.6148 83.266 12.8626 83.2689 11.9335C83.266 10.9896 82.5109 10.2374 81.5758 10.2374C80.6408 10.2374 79.8857 10.9896 79.8842 11.9335L79.1468 11.9335Z" fill="#E8B260"/>
</g>
<mask id="mask2" mask-type="alpha" maskUnits="userSpaceOnUse" x="65" y="9" width="6" height="6">
<path d="M65.9559 11.9335C65.9559 10.5914 67.0428 9.5 68.3849 9.5C69.727 9.5 70.814 10.5914 70.814 11.9335C70.814 13.2756 69.727 14.3522 68.3849 14.3522C67.0428 14.3522 65.9559 13.2756 65.9559 11.9335L66.6918 11.9335C66.6947 12.8626 67.4499 13.6148 68.3849 13.6148C69.32 13.6148 70.0751 12.8626 70.0765 11.9335C70.0751 10.9896 69.32 10.2374 68.3849 10.2374C67.4499 10.2374 66.6947 10.9896 66.6918 11.9335L65.9559 11.9335Z" fill="#E8B260"/>
</mask>
<g mask="url(#mask2)">
<path fill-rule="evenodd" clip-rule="evenodd" d="M65.9559 11.9335C65.9559 10.5914 67.0428 9.5 68.3849 9.5C69.727 9.5 70.814 10.5914 70.814 11.9335C70.814 13.2756 69.727 14.3522 68.3849 14.3522C67.0428 14.3522 65.9559 13.2756 65.9559 11.9335L66.6918 11.9335C66.6947 12.8626 67.4499 13.6148 68.3849 13.6148C69.32 13.6148 70.0751 12.8626 70.0765 11.9335C70.0751 10.9896 69.32 10.2374 68.3849 10.2374C67.4499 10.2374 66.6947 10.9896 66.6918 11.9335L65.9559 11.9335Z" fill="#E8B260"/>
</g>
<mask id="mask3" mask-type="alpha" maskUnits="userSpaceOnUse" x="52" y="9" width="6" height="6">
<path d="M52.7635 11.9335C52.7635 10.5914 53.8519 9.5 55.194 9.5C56.5361 9.5 57.623 10.5914 57.623 11.9335C57.623 13.2756 56.5361 14.3522 55.194 14.3522C53.8519 14.3522 52.7635 13.2756 52.7635 11.9335L53.5009 11.9335C53.5024 12.8626 54.2589 13.6148 55.194 13.6148C56.1276 13.6148 56.8842 12.8626 56.8856 11.9335C56.8842 10.9896 56.1276 10.2374 55.194 10.2374C54.2589 10.2374 53.5024 10.9896 53.5009 11.9335L52.7635 11.9335Z" fill="#E8B260"/>
</mask>
<g mask="url(#mask3)">
<path fill-rule="evenodd" clip-rule="evenodd" d="M52.7635 11.9335C52.7635 10.5914 53.8519 9.5 55.194 9.5C56.5361 9.5 57.623 10.5914 57.623 11.9335C57.623 13.2756 56.5361 14.3522 55.194 14.3522C53.8519 14.3522 52.7635 13.2756 52.7635 11.9335L53.5009 11.9335C53.5024 12.8626 54.2589 13.6148 55.194 13.6148C56.1276 13.6148 56.8842 12.8626 56.8856 11.9335C56.8842 10.9896 56.1276 10.2374 55.194 10.2374C54.2589 10.2374 53.5024 10.9896 53.5009 11.9335L52.7635 11.9335Z" fill="#E8B260"/>
</g>
<mask id="mask4" mask-type="alpha" maskUnits="userSpaceOnUse" x="39" y="9" width="6" height="6">
<path d="M39.5725 11.9335C39.5725 10.5914 40.661 9.5 42.0016 9.5C43.3452 9.5 44.4321 10.5914 44.4321 11.9335C44.4321 13.2756 43.3452 14.3522 42.0016 14.3522C40.661 14.3522 39.5725 13.2756 39.5725 11.9335L40.31 11.9335C40.3114 12.8626 41.068 13.6148 42.0016 13.6148C42.9366 13.6148 43.6932 12.8626 43.6947 11.9335C43.6932 10.9896 42.9366 10.2374 42.0016 10.2374C41.068 10.2374 40.3114 10.9896 40.31 11.9335L39.5725 11.9335Z" fill="#E8B260"/>
</mask>
<g mask="url(#mask4)">
<path fill-rule="evenodd" clip-rule="evenodd" d="M39.5725 11.9335C39.5725 10.5914 40.661 9.5 42.0016 9.5C43.3452 9.5 44.4321 10.5914 44.4321 11.9335C44.4321 13.2756 43.3452 14.3522 42.0016 14.3522C40.661 14.3522 39.5725 13.2756 39.5725 11.9335L40.31 11.9335C40.3114 12.8626 41.068 13.6148 42.0016 13.6148C42.9366 13.6148 43.6932 12.8626 43.6947 11.9335C43.6932 10.9896 42.9366 10.2374 42.0016 10.2374C41.068 10.2374 40.3114 10.9896 40.31 11.9335L39.5725 11.9335Z" fill="#E8B260"/>
</g>
<mask id="mask5" mask-type="alpha" maskUnits="userSpaceOnUse" x="26" y="9" width="6" height="6">
<path d="M26.3816 11.9335C26.3816 10.5914 27.4686 9.5 28.8107 9.5C30.1543 9.5 31.2412 10.5914 31.2412 11.9335C31.2412 13.2756 30.1543 14.3522 28.8107 14.3522C27.4686 14.3522 26.3816 13.2756 26.3816 11.9335L27.119 11.9335C27.1205 12.8626 27.8771 13.6148 28.8107 13.6148C29.7457 13.6148 30.5023 12.8626 30.5038 11.9335C30.5023 10.9896 29.7457 10.2374 28.8107 10.2374C27.8771 10.2374 27.1205 10.9896 27.119 11.9335L26.3816 11.9335Z" fill="#E8B260"/>
</mask>
<g mask="url(#mask5)">
<path fill-rule="evenodd" clip-rule="evenodd" d="M26.3816 11.9335C26.3816 10.5914 27.4686 9.5 28.8107 9.5C30.1543 9.5 31.2412 10.5914 31.2412 11.9335C31.2412 13.2756 30.1543 14.3522 28.8107 14.3522C27.4686 14.3522 26.3816 13.2756 26.3816 11.9335L27.119 11.9335C27.1205 12.8626 27.8771 13.6148 28.8107 13.6148C29.7457 13.6148 30.5023 12.8626 30.5038 11.9335C30.5023 10.9896 29.7457 10.2374 28.8107 10.2374C27.8771 10.2374 27.1205 10.9896 27.119 11.9335L26.3816 11.9335Z" fill="#E8B260"/>
</g>
<mask id="mask6" mask-type="alpha" maskUnits="userSpaceOnUse" x="13" y="9" width="6" height="6">
<path d="M13.1907 11.9335C13.1907 10.5914 14.2777 9.5 15.6198 9.5C16.9619 9.5 18.0503 10.5914 18.0503 11.9335C18.0503 13.2756 16.9619 14.3522 15.6198 14.3522C14.2777 14.3522 13.1907 13.2756 13.1907 11.9335L13.9281 11.9335C13.9296 12.8626 14.6862 13.6148 15.6198 13.6148C16.5548 13.6148 17.3114 12.8626 17.3129 11.9335C17.3114 10.9896 16.5548 10.2374 15.6198 10.2374C14.6862 10.2374 13.9296 10.9896 13.9281 11.9335L13.1907 11.9335Z" fill="#E8B260"/>
</mask>
<g mask="url(#mask6)">
<path fill-rule="evenodd" clip-rule="evenodd" d="M13.1907 11.9335C13.1907 10.5914 14.2777 9.5 15.6198 9.5C16.9619 9.5 18.0503 10.5914 18.0503 11.9335C18.0503 13.2756 16.9619 14.3522 15.6198 14.3522C14.2777 14.3522 13.1907 13.2756 13.1907 11.9335L13.9281 11.9335C13.9296 12.8626 14.6862 13.6148 15.6198 13.6148C16.5548 13.6148 17.3114 12.8626 17.3129 11.9335C17.3114 10.9896 16.5548 10.2374 15.6198 10.2374C14.6862 10.2374 13.9296 10.9896 13.9281 11.9335L13.1907 11.9335Z" fill="#E8B260"/>
</g>
<mask id="mask7" mask-type="alpha" maskUnits="userSpaceOnUse" x="-1" y="9" width="6" height="6">
<path d="M-0.000207848 11.9335C-0.000207789 10.5914 1.08675 9.5 2.42885 9.5C3.77095 9.5 4.85937 10.5914 4.85937 11.9335C4.85937 13.2756 3.77095 14.3522 2.42885 14.3522C1.08675 14.3522 -0.000207907 13.2756 -0.000207848 11.9335L0.73721 11.9335C0.738685 12.8626 1.4938 13.6148 2.42885 13.6148C3.36389 13.6148 4.12048 12.8626 4.12196 11.9335C4.12048 10.9896 3.36389 10.2374 2.42885 10.2374C1.4938 10.2374 0.738685 10.9896 0.73721 11.9335L-0.000207848 11.9335Z" fill="#E8B260"/>
</mask>
<g mask="url(#mask7)">
<path fill-rule="evenodd" clip-rule="evenodd" d="M-0.000207848 11.9335C-0.000207789 10.5914 1.08675 9.5 2.42885 9.5C3.77095 9.5 4.85937 10.5914 4.85937 11.9335C4.85937 13.2756 3.77095 14.3522 2.42885 14.3522C1.08675 14.3522 -0.000207907 13.2756 -0.000207848 11.9335L0.73721 11.9335C0.738685 12.8626 1.4938 13.6148 2.42885 13.6148C3.36389 13.6148 4.12048 12.8626 4.12196 11.9335C4.12048 10.9896 3.36389 10.2374 2.42885 10.2374C1.4938 10.2374 0.738685 10.9896 0.73721 11.9335L-0.000207848 11.9335Z" fill="#E8B260"/>
</g>
<mask id="mask8" mask-type="alpha" maskUnits="userSpaceOnUse" x="92" y="21" width="6" height="6">
<path d="M92.3377 24.3808C92.3377 23.0387 93.4246 21.9473 94.7667 21.9473C96.1088 21.9473 97.1973 23.0387 97.1973 24.3808C97.1973 25.7229 96.1088 26.7995 94.7667 26.7995C93.4246 26.7995 92.3377 25.7229 92.3377 24.3808L93.0751 24.3808C93.0766 25.31 93.8317 26.0621 94.7667 26.0621C95.7018 26.0621 96.4584 25.31 96.4598 24.3808C96.4584 23.4369 95.7018 22.6847 94.7667 22.6847C93.8317 22.6847 93.0766 23.4369 93.0751 24.3808L92.3377 24.3808Z" fill="#E8B260"/>
</mask>
<g mask="url(#mask8)">
<path fill-rule="evenodd" clip-rule="evenodd" d="M92.3377 24.3808C92.3377 23.0387 93.4246 21.9473 94.7667 21.9473C96.1088 21.9473 97.1973 23.0387 97.1973 24.3808C97.1973 25.7229 96.1088 26.7995 94.7667 26.7995C93.4246 26.7995 92.3377 25.7229 92.3377 24.3808L93.0751 24.3808C93.0766 25.31 93.8317 26.0621 94.7667 26.0621C95.7018 26.0621 96.4584 25.31 96.4598 24.3808C96.4584 23.4369 95.7018 22.6847 94.7667 22.6847C93.8317 22.6847 93.0766 23.4369 93.0751 24.3808L92.3377 24.3808Z" fill="#E8B260"/>
</g>
<mask id="mask9" mask-type="alpha" maskUnits="userSpaceOnUse" x="79" y="21" width="6" height="6">
<path d="M79.1468 24.3808C79.1468 23.0387 80.2337 21.9473 81.5758 21.9473C82.9179 21.9473 84.0049 23.0387 84.0049 24.3808C84.0049 25.7229 82.9179 26.7995 81.5758 26.7995C80.2337 26.7995 79.1468 25.7229 79.1468 24.3808L79.8842 24.3808C79.8857 25.31 80.6408 26.0621 81.5758 26.0621C82.5109 26.0621 83.266 25.31 83.2689 24.3808C83.266 23.4369 82.5109 22.6847 81.5758 22.6847C80.6408 22.6847 79.8857 23.4369 79.8842 24.3808L79.1468 24.3808Z" fill="#E8B260"/>
</mask>
<g mask="url(#mask9)">
<path fill-rule="evenodd" clip-rule="evenodd" d="M79.1468 24.3808C79.1468 23.0387 80.2337 21.9473 81.5758 21.9473C82.9179 21.9473 84.0049 23.0387 84.0049 24.3808C84.0049 25.7229 82.9179 26.7995 81.5758 26.7995C80.2337 26.7995 79.1468 25.7229 79.1468 24.3808L79.8842 24.3808C79.8857 25.31 80.6408 26.0621 81.5758 26.0621C82.5109 26.0621 83.266 25.31 83.2689 24.3808C83.266 23.4369 82.5109 22.6847 81.5758 22.6847C80.6408 22.6847 79.8857 23.4369 79.8842 24.3808L79.1468 24.3808Z" fill="#E8B260"/>
</g>
<mask id="mask10" mask-type="alpha" maskUnits="userSpaceOnUse" x="65" y="21" width="6" height="6">
<path d="M65.9559 24.3808C65.9559 23.0387 67.0428 21.9473 68.3849 21.9473C69.727 21.9473 70.814 23.0387 70.814 24.3808C70.814 25.7229 69.727 26.7995 68.3849 26.7995C67.0428 26.7995 65.9559 25.7229 65.9559 24.3808L66.6918 24.3808C66.6947 25.31 67.4499 26.0621 68.3849 26.0621C69.32 26.0621 70.0751 25.31 70.0765 24.3808C70.0751 23.4369 69.32 22.6847 68.3849 22.6847C67.4499 22.6847 66.6947 23.4369 66.6918 24.3808L65.9559 24.3808Z" fill="#E8B260"/>
</mask>
<g mask="url(#mask10)">
<path fill-rule="evenodd" clip-rule="evenodd" d="M65.9559 24.3808C65.9559 23.0387 67.0428 21.9473 68.3849 21.9473C69.727 21.9473 70.814 23.0387 70.814 24.3808C70.814 25.7229 69.727 26.7995 68.3849 26.7995C67.0428 26.7995 65.9559 25.7229 65.9559 24.3808L66.6918 24.3808C66.6947 25.31 67.4499 26.0621 68.3849 26.0621C69.32 26.0621 70.0751 25.31 70.0765 24.3808C70.0751 23.4369 69.32 22.6847 68.3849 22.6847C67.4499 22.6847 66.6947 23.4369 66.6918 24.3808L65.9559 24.3808Z" fill="#E8B260"/>
</g>
<mask id="mask11" mask-type="alpha" maskUnits="userSpaceOnUse" x="52" y="21" width="6" height="6">
<path d="M52.7635 24.3808C52.7635 23.0387 53.8519 21.9473 55.194 21.9473C56.5361 21.9473 57.623 23.0387 57.623 24.3808C57.623 25.7229 56.5361 26.7995 55.194 26.7995C53.8519 26.7995 52.7635 25.7229 52.7635 24.3808L53.5009 24.3808C53.5024 25.31 54.2589 26.0621 55.194 26.0621C56.129 26.0621 56.8842 25.31 56.8856 24.3808C56.8842 23.4369 56.1276 22.6847 55.194 22.6847C54.2589 22.6847 53.5024 23.4369 53.5009 24.3808L52.7635 24.3808Z" fill="#E8B260"/>
</mask>
<g mask="url(#mask11)">
<path fill-rule="evenodd" clip-rule="evenodd" d="M52.7635 24.3808C52.7635 23.0387 53.8519 21.9473 55.194 21.9473C56.5361 21.9473 57.623 23.0387 57.623 24.3808C57.623 25.7229 56.5361 26.7995 55.194 26.7995C53.8519 26.7995 52.7635 25.7229 52.7635 24.3808L53.5009 24.3808C53.5024 25.31 54.2589 26.0621 55.194 26.0621C56.129 26.0621 56.8842 25.31 56.8856 24.3808C56.8842 23.4369 56.1276 22.6847 55.194 22.6847C54.2589 22.6847 53.5024 23.4369 53.5009 24.3808L52.7635 24.3808Z" fill="#E8B260"/>
</g>
<mask id="mask12" mask-type="alpha" maskUnits="userSpaceOnUse" x="39" y="21" width="6" height="6">
<path d="M39.5725 24.3808C39.5725 23.0387 40.661 21.9473 42.0016 21.9473C43.3452 21.9473 44.4321 23.0387 44.4321 24.3808C44.4321 25.7229 43.3452 26.7995 42.0016 26.7995C40.661 26.7995 39.5725 25.7229 39.5725 24.3808L40.31 24.3808C40.3114 25.31 41.068 26.0621 42.0016 26.0621C42.9366 26.0621 43.6932 25.31 43.6947 24.3808C43.6932 23.4369 42.9366 22.6847 42.0016 22.6847C41.068 22.6847 40.3114 23.4369 40.31 24.3808L39.5725 24.3808Z" fill="#E8B260"/>
</mask>
<g mask="url(#mask12)">
<path fill-rule="evenodd" clip-rule="evenodd" d="M39.5725 24.3808C39.5725 23.0387 40.661 21.9473 42.0016 21.9473C43.3452 21.9473 44.4321 23.0387 44.4321 24.3808C44.4321 25.7229 43.3452 26.7995 42.0016 26.7995C40.661 26.7995 39.5725 25.7229 39.5725 24.3808L40.31 24.3808C40.3114 25.31 41.068 26.0621 42.0016 26.0621C42.9366 26.0621 43.6932 25.31 43.6947 24.3808C43.6932 23.4369 42.9366 22.6847 42.0016 22.6847C41.068 22.6847 40.3114 23.4369 40.31 24.3808L39.5725 24.3808Z" fill="#E8B260"/>
</g>
<mask id="mask13" mask-type="alpha" maskUnits="userSpaceOnUse" x="26" y="21" width="6" height="6">
<path d="M26.3816 24.3808C26.3816 23.0387 27.4686 21.9473 28.8107 21.9473C30.1543 21.9473 31.2412 23.0387 31.2412 24.3808C31.2412 25.7229 30.1543 26.7995 28.8107 26.7995C27.4686 26.7995 26.3816 25.7229 26.3816 24.3808L27.119 24.3808C27.1205 25.31 27.8771 26.0621 28.8107 26.0621C29.7457 26.0621 30.5023 25.31 30.5038 24.3808C30.5023 23.4369 29.7457 22.6847 28.8107 22.6847C27.8771 22.6847 27.1205 23.4369 27.119 24.3808L26.3816 24.3808Z" fill="#E8B260"/>
</mask>
<g mask="url(#mask13)">
<path fill-rule="evenodd" clip-rule="evenodd" d="M26.3816 24.3808C26.3816 23.0387 27.4686 21.9473 28.8107 21.9473C30.1543 21.9473 31.2412 23.0387 31.2412 24.3808C31.2412 25.7229 30.1543 26.7995 28.8107 26.7995C27.4686 26.7995 26.3816 25.7229 26.3816 24.3808L27.119 24.3808C27.1205 25.31 27.8771 26.0621 28.8107 26.0621C29.7457 26.0621 30.5023 25.31 30.5038 24.3808C30.5023 23.4369 29.7457 22.6847 28.8107 22.6847C27.8771 22.6847 27.1205 23.4369 27.119 24.3808L26.3816 24.3808Z" fill="#E8B260"/>
</g>
<mask id="mask14" mask-type="alpha" maskUnits="userSpaceOnUse" x="13" y="21" width="6" height="6">
<path d="M13.1907 24.3808C13.1907 23.0387 14.2777 21.9473 15.6198 21.9473C16.9619 21.9473 18.0503 23.0387 18.0503 24.3808C18.0503 25.7229 16.9619 26.7995 15.6198 26.7995C14.2777 26.7995 13.1907 25.7229 13.1907 24.3808L13.9281 24.3808C13.9296 25.31 14.6862 26.0621 15.6198 26.0621C16.5548 26.0621 17.3114 25.31 17.3129 24.3808C17.3114 23.4369 16.5548 22.6847 15.6198 22.6847C14.6862 22.6847 13.9296 23.4369 13.9281 24.3808L13.1907 24.3808Z" fill="#E8B260"/>
</mask>
<g mask="url(#mask14)">
<path fill-rule="evenodd" clip-rule="evenodd" d="M13.1907 24.3808C13.1907 23.0387 14.2777 21.9473 15.6198 21.9473C16.9619 21.9473 18.0503 23.0387 18.0503 24.3808C18.0503 25.7229 16.9619 26.7995 15.6198 26.7995C14.2777 26.7995 13.1907 25.7229 13.1907 24.3808L13.9281 24.3808C13.9296 25.31 14.6862 26.0621 15.6198 26.0621C16.5548 26.0621 17.3114 25.31 17.3129 24.3808C17.3114 23.4369 16.5548 22.6847 15.6198 22.6847C14.6862 22.6847 13.9296 23.4369 13.9281 24.3808L13.1907 24.3808Z" fill="#E8B260"/>
</g>
<mask id="mask15" mask-type="alpha" maskUnits="userSpaceOnUse" x="92" y="34" width="6" height="6">
<path d="M92.3377 36.8286C92.3377 35.4865 93.4246 34.3951 94.7667 34.3951C96.1088 34.3951 97.1973 35.4865 97.1973 36.8286C97.1973 38.1707 96.1088 39.262 94.7667 39.262C93.4246 39.262 92.3377 38.1707 92.3377 36.8286L93.0751 36.8286C93.0766 37.7577 93.8317 38.5246 94.7667 38.5246C95.7018 38.5246 96.4584 37.7577 96.4598 36.8286C96.4584 35.8994 95.7018 35.1325 94.7667 35.1325C93.8317 35.1325 93.0766 35.8994 93.0751 36.8286L92.3377 36.8286Z" fill="#E8B260"/>
</mask>
<g mask="url(#mask15)">
<path fill-rule="evenodd" clip-rule="evenodd" d="M92.3377 36.8286C92.3377 35.4865 93.4246 34.3951 94.7667 34.3951C96.1088 34.3951 97.1973 35.4865 97.1973 36.8286C97.1973 38.1707 96.1088 39.262 94.7667 39.262C93.4246 39.262 92.3377 38.1707 92.3377 36.8286L93.0751 36.8286C93.0766 37.7577 93.8317 38.5246 94.7667 38.5246C95.7018 38.5246 96.4584 37.7577 96.4598 36.8286C96.4584 35.8994 95.7018 35.1325 94.7667 35.1325C93.8317 35.1325 93.0766 35.8994 93.0751 36.8286L92.3377 36.8286Z" fill="#E8B260"/>
</g>
<mask id="mask16" mask-type="alpha" maskUnits="userSpaceOnUse" x="79" y="34" width="6" height="6">
<path d="M79.1468 36.8286C79.1468 35.4865 80.2337 34.3951 81.5758 34.3951C82.9179 34.3951 84.0049 35.4865 84.0049 36.8286C84.0049 38.1707 82.9179 39.262 81.5758 39.262C80.2337 39.262 79.1468 38.1707 79.1468 36.8286L79.8842 36.8286C79.8857 37.7577 80.6408 38.5246 81.5758 38.5246C82.5109 38.5246 83.266 37.7577 83.2689 36.8286C83.266 35.8994 82.5109 35.1325 81.5758 35.1325C80.6408 35.1325 79.8857 35.8994 79.8842 36.8286L79.1468 36.8286Z" fill="#E8B260"/>
</mask>
<g mask="url(#mask16)">
<path fill-rule="evenodd" clip-rule="evenodd" d="M79.1468 36.8286C79.1468 35.4865 80.2337 34.3951 81.5758 34.3951C82.9179 34.3951 84.0049 35.4865 84.0049 36.8286C84.0049 38.1707 82.9179 39.262 81.5758 39.262C80.2337 39.262 79.1468 38.1707 79.1468 36.8286L79.8842 36.8286C79.8857 37.7577 80.6408 38.5246 81.5758 38.5246C82.5109 38.5246 83.266 37.7577 83.2689 36.8286C83.266 35.8994 82.5109 35.1325 81.5758 35.1325C80.6408 35.1325 79.8857 35.8994 79.8842 36.8286L79.1468 36.8286Z" fill="#E8B260"/>
</g>
<mask id="mask17" mask-type="alpha" maskUnits="userSpaceOnUse" x="65" y="34" width="6" height="6">
<path d="M65.9559 36.8286C65.9559 35.4865 67.0428 34.3951 68.3849 34.3951C69.727 34.3951 70.814 35.4865 70.814 36.8286C70.814 38.1707 69.727 39.262 68.3849 39.262C67.0428 39.262 65.9559 38.1707 65.9559 36.8286L66.6918 36.8286C66.6947 37.7577 67.4499 38.5246 68.3849 38.5246C69.32 38.5246 70.0751 37.7577 70.0765 36.8286C70.0751 35.8994 69.32 35.1325 68.3849 35.1325C67.4499 35.1325 66.6947 35.8994 66.6918 36.8286L65.9559 36.8286Z" fill="#E8B260"/>
</mask>
<g mask="url(#mask17)">
<path fill-rule="evenodd" clip-rule="evenodd" d="M65.9559 36.8286C65.9559 35.4865 67.0428 34.3951 68.3849 34.3951C69.727 34.3951 70.814 35.4865 70.814 36.8286C70.814 38.1707 69.727 39.262 68.3849 39.262C67.0428 39.262 65.9559 38.1707 65.9559 36.8286L66.6918 36.8286C66.6947 37.7577 67.4499 38.5246 68.3849 38.5246C69.32 38.5246 70.0751 37.7577 70.0765 36.8286C70.0751 35.8994 69.32 35.1325 68.3849 35.1325C67.4499 35.1325 66.6947 35.8994 66.6918 36.8286L65.9559 36.8286Z" fill="#E8B260"/>
</g>
<mask id="mask18" mask-type="alpha" maskUnits="userSpaceOnUse" x="52" y="34" width="6" height="6">
<path d="M52.7635 36.8286C52.7635 35.4865 53.8519 34.3951 55.194 34.3951C56.5361 34.3951 57.623 35.4865 57.623 36.8286C57.623 38.1707 56.5361 39.262 55.194 39.262C53.8519 39.262 52.7635 38.1707 52.7635 36.8286L53.5009 36.8286C53.5024 37.7577 54.2589 38.5246 55.194 38.5246C56.1276 38.5246 56.8842 37.7577 56.8856 36.8286C56.8842 35.8994 56.1276 35.1325 55.194 35.1325C54.2589 35.1325 53.5024 35.8994 53.5009 36.8286L52.7635 36.8286Z" fill="#E8B260"/>
</mask>
<g mask="url(#mask18)">
<path fill-rule="evenodd" clip-rule="evenodd" d="M52.7635 36.8286C52.7635 35.4865 53.8519 34.3951 55.194 34.3951C56.5361 34.3951 57.623 35.4865 57.623 36.8286C57.623 38.1707 56.5361 39.262 55.194 39.262C53.8519 39.262 52.7635 38.1707 52.7635 36.8286L53.5009 36.8286C53.5024 37.7577 54.2589 38.5246 55.194 38.5246C56.1276 38.5246 56.8842 37.7577 56.8856 36.8286C56.8842 35.8994 56.1276 35.1325 55.194 35.1325C54.2589 35.1325 53.5024 35.8994 53.5009 36.8286L52.7635 36.8286Z" fill="#E8B260"/>
</g>
<mask id="mask19" mask-type="alpha" maskUnits="userSpaceOnUse" x="39" y="34" width="6" height="6">
<path d="M39.5725 36.8286C39.5725 35.4865 40.661 34.3951 42.0016 34.3951C43.3452 34.3951 44.4321 35.4865 44.4321 36.8286C44.4321 38.1707 43.3452 39.262 42.0016 39.262C40.661 39.262 39.5725 38.1707 39.5725 36.8286L40.31 36.8286C40.3114 37.7577 41.068 38.5246 42.0016 38.5246C42.9366 38.5246 43.6932 37.7577 43.6947 36.8286C43.6932 35.8994 42.9366 35.1325 42.0016 35.1325C41.068 35.1325 40.3114 35.8994 40.31 36.8286L39.5725 36.8286Z" fill="#E8B260"/>
</mask>
<g mask="url(#mask19)">
<path fill-rule="evenodd" clip-rule="evenodd" d="M39.5725 36.8286C39.5725 35.4865 40.661 34.3951 42.0016 34.3951C43.3452 34.3951 44.4321 35.4865 44.4321 36.8286C44.4321 38.1707 43.3452 39.262 42.0016 39.262C40.661 39.262 39.5725 38.1707 39.5725 36.8286L40.31 36.8286C40.3114 37.7577 41.068 38.5246 42.0016 38.5246C42.9366 38.5246 43.6932 37.7577 43.6947 36.8286C43.6932 35.8994 42.9366 35.1325 42.0016 35.1325C41.068 35.1325 40.3114 35.8994 40.31 36.8286L39.5725 36.8286Z" fill="#E8B260"/>
</g>
<mask id="mask20" mask-type="alpha" maskUnits="userSpaceOnUse" x="26" y="34" width="6" height="6">
<path d="M26.3816 36.8286C26.3816 35.4865 27.4686 34.3951 28.8107 34.3951C30.1543 34.3951 31.2412 35.4865 31.2412 36.8286C31.2412 38.1707 30.1543 39.262 28.8107 39.262C27.4686 39.262 26.3816 38.1707 26.3816 36.8286L27.119 36.8286C27.1205 37.7577 27.8771 38.5246 28.8107 38.5246C29.7457 38.5246 30.5023 37.7577 30.5038 36.8286C30.5023 35.8994 29.7457 35.1325 28.8107 35.1325C27.8771 35.1325 27.1205 35.8994 27.119 36.8286L26.3816 36.8286Z" fill="#E8B260"/>
</mask>
<g mask="url(#mask20)">
<path fill-rule="evenodd" clip-rule="evenodd" d="M26.3816 36.8286C26.3816 35.4865 27.4686 34.3951 28.8107 34.3951C30.1543 34.3951 31.2412 35.4865 31.2412 36.8286C31.2412 38.1707 30.1543 39.262 28.8107 39.262C27.4686 39.262 26.3816 38.1707 26.3816 36.8286L27.119 36.8286C27.1205 37.7577 27.8771 38.5246 28.8107 38.5246C29.7457 38.5246 30.5023 37.7577 30.5038 36.8286C30.5023 35.8994 29.7457 35.1325 28.8107 35.1325C27.8771 35.1325 27.1205 35.8994 27.119 36.8286L26.3816 36.8286Z" fill="#E8B260"/>
</g>
<mask id="mask21" mask-type="alpha" maskUnits="userSpaceOnUse" x="92" y="46" width="6" height="6">
<path d="M92.3377 49.2767C92.3377 47.9346 93.4246 46.8432 94.7667 46.8432C96.1088 46.8432 97.1973 47.9346 97.1973 49.2767C97.1973 50.6188 96.1088 51.7102 94.7667 51.7102C93.4246 51.7102 92.3377 50.6188 92.3377 49.2767L93.0751 49.2767C93.0766 50.2058 93.8317 50.9727 94.7667 50.9727C95.7018 50.9727 96.4584 50.2058 96.4598 49.2767C96.4584 48.3475 95.7018 47.5806 94.7667 47.5806C93.8317 47.5806 93.0766 48.3475 93.0751 49.2767L92.3377 49.2767Z" fill="#E8B260"/>
</mask>
<g mask="url(#mask21)">
<path fill-rule="evenodd" clip-rule="evenodd" d="M92.3377 49.2767C92.3377 47.9346 93.4246 46.8432 94.7667 46.8432C96.1088 46.8432 97.1973 47.9346 97.1973 49.2767C97.1973 50.6188 96.1088 51.7102 94.7667 51.7102C93.4246 51.7102 92.3377 50.6188 92.3377 49.2767L93.0751 49.2767C93.0766 50.2058 93.8317 50.9727 94.7667 50.9727C95.7018 50.9727 96.4584 50.2058 96.4598 49.2767C96.4584 48.3475 95.7018 47.5806 94.7667 47.5806C93.8317 47.5806 93.0766 48.3475 93.0751 49.2767L92.3377 49.2767Z" fill="#E8B260"/>
</g>
<mask id="mask22" mask-type="alpha" maskUnits="userSpaceOnUse" x="79" y="46" width="6" height="6">
<path d="M79.1468 49.2767C79.1468 47.9346 80.2337 46.8432 81.5758 46.8432C82.9179 46.8432 84.0049 47.9346 84.0049 49.2767C84.0049 50.6188 82.9179 51.7102 81.5758 51.7102C80.2337 51.7102 79.1468 50.6188 79.1468 49.2767L79.8842 49.2767C79.8857 50.2058 80.6408 50.9727 81.5758 50.9727C82.5109 50.9727 83.266 50.2058 83.2689 49.2767C83.266 48.3475 82.5109 47.5806 81.5758 47.5806C80.6408 47.5806 79.8857 48.3475 79.8842 49.2767L79.1468 49.2767Z" fill="#E8B260"/>
</mask>
<g mask="url(#mask22)">
<path fill-rule="evenodd" clip-rule="evenodd" d="M79.1468 49.2767C79.1468 47.9346 80.2337 46.8432 81.5758 46.8432C82.9179 46.8432 84.0049 47.9346 84.0049 49.2767C84.0049 50.6188 82.9179 51.7102 81.5758 51.7102C80.2337 51.7102 79.1468 50.6188 79.1468 49.2767L79.8842 49.2767C79.8857 50.2058 80.6408 50.9727 81.5758 50.9727C82.5109 50.9727 83.266 50.2058 83.2689 49.2767C83.266 48.3475 82.5109 47.5806 81.5758 47.5806C80.6408 47.5806 79.8857 48.3475 79.8842 49.2767L79.1468 49.2767Z" fill="#E8B260"/>
</g>
<mask id="mask23" mask-type="alpha" maskUnits="userSpaceOnUse" x="65" y="46" width="6" height="6">
<path d="M65.9559 49.2767C65.9559 47.9346 67.0428 46.8432 68.3849 46.8432C69.727 46.8432 70.814 47.9346 70.814 49.2767C70.814 50.6188 69.727 51.7102 68.3849 51.7102C67.0428 51.7102 65.9559 50.6188 65.9559 49.2767L66.6918 49.2767C66.6947 50.2058 67.4499 50.9727 68.3849 50.9727C69.32 50.9727 70.0751 50.2058 70.0765 49.2767C70.0751 48.3475 69.32 47.5806 68.3849 47.5806C67.4499 47.5806 66.6947 48.3475 66.6918 49.2767L65.9559 49.2767Z" fill="#E8B260"/>
</mask>
<g mask="url(#mask23)">
<path fill-rule="evenodd" clip-rule="evenodd" d="M65.9559 49.2767C65.9559 47.9346 67.0428 46.8432 68.3849 46.8432C69.727 46.8432 70.814 47.9346 70.814 49.2767C70.814 50.6188 69.727 51.7102 68.3849 51.7102C67.0428 51.7102 65.9559 50.6188 65.9559 49.2767L66.6918 49.2767C66.6947 50.2058 67.4499 50.9727 68.3849 50.9727C69.32 50.9727 70.0751 50.2058 70.0765 49.2767C70.0751 48.3475 69.32 47.5806 68.3849 47.5806C67.4499 47.5806 66.6947 48.3475 66.6918 49.2767L65.9559 49.2767Z" fill="#E8B260"/>
</g>
<mask id="mask24" mask-type="alpha" maskUnits="userSpaceOnUse" x="52" y="46" width="6" height="6">
<path d="M52.7635 49.2767C52.7635 47.9346 53.8519 46.8432 55.194 46.8432C56.5361 46.8432 57.623 47.9346 57.623 49.2767C57.623 50.6188 56.5361 51.7102 55.194 51.7102C53.8519 51.7102 52.7635 50.6188 52.7635 49.2767L53.5009 49.2767C53.5024 50.2058 54.2589 50.9727 55.194 50.9727C56.129 50.9727 56.8842 50.2058 56.8856 49.2767C56.8842 48.3475 56.129 47.5806 55.194 47.5806C54.2589 47.5806 53.5024 48.3475 53.5009 49.2767L52.7635 49.2767Z" fill="#E8B260"/>
</mask>
<g mask="url(#mask24)">
<path fill-rule="evenodd" clip-rule="evenodd" d="M52.7635 49.2767C52.7635 47.9346 53.8519 46.8432 55.194 46.8432C56.5361 46.8432 57.623 47.9346 57.623 49.2767C57.623 50.6188 56.5361 51.7102 55.194 51.7102C53.8519 51.7102 52.7635 50.6188 52.7635 49.2767L53.5009 49.2767C53.5024 50.2058 54.2589 50.9727 55.194 50.9727C56.129 50.9727 56.8842 50.2058 56.8856 49.2767C56.8842 48.3475 56.129 47.5806 55.194 47.5806C54.2589 47.5806 53.5024 48.3475 53.5009 49.2767L52.7635 49.2767Z" fill="#E8B260"/>
</g>
<mask id="mask25" mask-type="alpha" maskUnits="userSpaceOnUse" x="39" y="46" width="6" height="6">
<path d="M39.5725 49.2767C39.5725 47.9346 40.661 46.8432 42.0016 46.8432C43.3452 46.8432 44.4321 47.9346 44.4321 49.2767C44.4321 50.6188 43.3452 51.7102 42.0016 51.7102C40.661 51.7102 39.5725 50.6188 39.5725 49.2767L40.31 49.2767C40.3114 50.2058 41.068 50.9727 42.0016 50.9727C42.9366 50.9727 43.6932 50.2058 43.6947 49.2767C43.6932 48.3475 42.9366 47.5806 42.0016 47.5806C41.068 47.5806 40.3114 48.3475 40.31 49.2767L39.5725 49.2767Z" fill="#E8B260"/>
</mask>
<g mask="url(#mask25)">
<path fill-rule="evenodd" clip-rule="evenodd" d="M39.5725 49.2767C39.5725 47.9346 40.661 46.8432 42.0016 46.8432C43.3452 46.8432 44.4321 47.9346 44.4321 49.2767C44.4321 50.6188 43.3452 51.7102 42.0016 51.7102C40.661 51.7102 39.5725 50.6188 39.5725 49.2767L40.31 49.2767C40.3114 50.2058 41.068 50.9727 42.0016 50.9727C42.9366 50.9727 43.6932 50.2058 43.6947 49.2767C43.6932 48.3475 42.9366 47.5806 42.0016 47.5806C41.068 47.5806 40.3114 48.3475 40.31 49.2767L39.5725 49.2767Z" fill="#E8B260"/>
</g>
<mask id="mask26" mask-type="alpha" maskUnits="userSpaceOnUse" x="92" y="59" width="6" height="6">
<path d="M92.3377 61.7236C92.3377 60.3815 93.4246 59.2902 94.7667 59.2902C96.1088 59.2902 97.1973 60.3815 97.1973 61.7236C97.1973 63.0657 96.1088 64.1571 94.7667 64.1571C93.4246 64.1571 92.3377 63.0657 92.3377 61.7236L93.0751 61.7236C93.0766 62.6675 93.8317 63.4197 94.7667 63.4197C95.7018 63.4197 96.4584 62.6675 96.4598 61.7236C96.4584 60.7945 95.7018 60.0423 94.7667 60.0276C93.8317 60.0423 93.0766 60.7945 93.0751 61.7236L92.3377 61.7236Z" fill="#E8B260"/>
</mask>
<g mask="url(#mask26)">
<path fill-rule="evenodd" clip-rule="evenodd" d="M92.3377 61.7236C92.3377 60.3815 93.4246 59.2902 94.7667 59.2902C96.1088 59.2902 97.1973 60.3815 97.1973 61.7236C97.1973 63.0657 96.1088 64.1571 94.7667 64.1571C93.4246 64.1571 92.3377 63.0657 92.3377 61.7236L93.0751 61.7236C93.0766 62.6675 93.8317 63.4197 94.7667 63.4197C95.7018 63.4197 96.4584 62.6675 96.4598 61.7236C96.4584 60.7945 95.7018 60.0423 94.7667 60.0276C93.8317 60.0423 93.0766 60.7945 93.0751 61.7236L92.3377 61.7236Z" fill="#E8B260"/>
</g>
<mask id="mask27" mask-type="alpha" maskUnits="userSpaceOnUse" x="79" y="59" width="6" height="6">
<path d="M79.1468 61.7236C79.1468 60.3815 80.2337 59.2902 81.5758 59.2902C82.9179 59.2902 84.0049 60.3815 84.0049 61.7236C84.0049 63.0657 82.9179 64.1571 81.5758 64.1571C80.2337 64.1571 79.1468 63.0657 79.1468 61.7236L79.8842 61.7236C79.8857 62.6675 80.6408 63.4197 81.5758 63.4197C82.5109 63.4197 83.266 62.6675 83.2689 61.7236C83.266 60.7945 82.5109 60.0423 81.5758 60.0276C80.6408 60.0423 79.8857 60.7945 79.8842 61.7236L79.1468 61.7236Z" fill="#E8B260"/>
</mask>
<g mask="url(#mask27)">
<path fill-rule="evenodd" clip-rule="evenodd" d="M79.1468 61.7236C79.1468 60.3815 80.2337 59.2902 81.5758 59.2902C82.9179 59.2902 84.0049 60.3815 84.0049 61.7236C84.0049 63.0657 82.9179 64.1571 81.5758 64.1571C80.2337 64.1571 79.1468 63.0657 79.1468 61.7236L79.8842 61.7236C79.8857 62.6675 80.6408 63.4197 81.5758 63.4197C82.5109 63.4197 83.266 62.6675 83.2689 61.7236C83.266 60.7945 82.5109 60.0423 81.5758 60.0276C80.6408 60.0423 79.8857 60.7945 79.8842 61.7236L79.1468 61.7236Z" fill="#E8B260"/>
</g>
<mask id="mask28" mask-type="alpha" maskUnits="userSpaceOnUse" x="65" y="59" width="6" height="6">
<path d="M65.9559 61.7236C65.9559 60.3815 67.0428 59.2902 68.3849 59.2902C69.727 59.2902 70.814 60.3815 70.814 61.7236C70.814 63.0657 69.727 64.1571 68.3849 64.1571C67.0428 64.1571 65.9559 63.0657 65.9559 61.7236L66.6918 61.7236C66.6947 62.6675 67.4499 63.4197 68.3849 63.4197C69.32 63.4197 70.0751 62.6675 70.0765 61.7236C70.0751 60.7945 69.32 60.0423 68.3849 60.0276C67.4499 60.0423 66.6947 60.7945 66.6918 61.7236L65.9559 61.7236Z" fill="#E8B260"/>
</mask>
<g mask="url(#mask28)">
<path fill-rule="evenodd" clip-rule="evenodd" d="M65.9559 61.7236C65.9559 60.3815 67.0428 59.2902 68.3849 59.2902C69.727 59.2902 70.814 60.3815 70.814 61.7236C70.814 63.0657 69.727 64.1571 68.3849 64.1571C67.0428 64.1571 65.9559 63.0657 65.9559 61.7236L66.6918 61.7236C66.6947 62.6675 67.4499 63.4197 68.3849 63.4197C69.32 63.4197 70.0751 62.6675 70.0765 61.7236C70.0751 60.7945 69.32 60.0423 68.3849 60.0276C67.4499 60.0423 66.6947 60.7945 66.6918 61.7236L65.9559 61.7236Z" fill="#E8B260"/>
</g>
<mask id="mask29" mask-type="alpha" maskUnits="userSpaceOnUse" x="52" y="59" width="6" height="6">
<path d="M52.7635 61.7236C52.7635 60.3815 53.8519 59.2902 55.194 59.2902C56.5361 59.2902 57.623 60.3815 57.623 61.7236C57.623 63.0657 56.5361 64.1571 55.194 64.1571C53.8519 64.1571 52.7635 63.0657 52.7635 61.7236L53.5009 61.7236C53.5024 62.6675 54.2589 63.4197 55.194 63.4197C56.1276 63.4197 56.8842 62.6675 56.8856 61.7236C56.8842 60.7945 56.1276 60.0423 55.194 60.0276C54.2589 60.0423 53.5024 60.7945 53.5009 61.7236L52.7635 61.7236Z" fill="#E8B260"/>
</mask>
<g mask="url(#mask29)">
<path fill-rule="evenodd" clip-rule="evenodd" d="M52.7635 61.7236C52.7635 60.3815 53.8519 59.2902 55.194 59.2902C56.5361 59.2902 57.623 60.3815 57.623 61.7236C57.623 63.0657 56.5361 64.1571 55.194 64.1571C53.8519 64.1571 52.7635 63.0657 52.7635 61.7236L53.5009 61.7236C53.5024 62.6675 54.2589 63.4197 55.194 63.4197C56.1276 63.4197 56.8842 62.6675 56.8856 61.7236C56.8842 60.7945 56.1276 60.0423 55.194 60.0276C54.2589 60.0423 53.5024 60.7945 53.5009 61.7236L52.7635 61.7236Z" fill="#E8B260"/>
</g>
<mask id="mask30" mask-type="alpha" maskUnits="userSpaceOnUse" x="66" y="71" width="5" height="3">
<path d="M66.1521 73.213C66.5253 72.3576 67.3836 71.7529 68.385 71.7529C69.1593 71.7529 69.8481 72.1069 70.2935 72.6673C69.9837 72.7116 69.677 72.7558 69.3673 72.8001C69.09 72.6083 68.7523 72.4903 68.385 72.4903C67.86 72.4903 67.3895 72.7263 67.0798 73.095C66.7686 73.1393 66.4633 73.1835 66.1521 73.213Z" fill="#E8B260"/>
</mask>
<g mask="url(#mask30)">
<path fill-rule="evenodd" clip-rule="evenodd" d="M66.1521 73.213C66.5253 72.3576 67.3836 71.7529 68.385 71.7529C69.1593 71.7529 69.8481 72.1069 70.2935 72.6673C69.9837 72.7116 69.677 72.7558 69.3673 72.8001C69.09 72.6083 68.7523 72.4903 68.385 72.4903C67.86 72.4903 67.3895 72.7263 67.0798 73.095C66.7686 73.1393 66.4633 73.1835 66.1521 73.213Z" fill="#E8B260"/>
</g>
</svg>
