<svg width="21" height="15" viewBox="0 0 21 15" fill="none" xmlns="http://www.w3.org/2000/svg">
<path fill-rule="evenodd" clip-rule="evenodd" d="M10.6308 14.4624C14.9525 14.4624 18.728 11.9438 20.6334 8.22531C20.7009 8.09176 20.7557 7.86187 20.7557 7.71221C20.7557 7.56256 20.7009 7.33267 20.6334 7.19912C18.7269 3.47923 14.9525 0.962402 10.6308 0.962402C6.30906 0.962402 2.53362 3.48098 0.628185 7.19946C0.560654 7.33302 0.505859 7.5629 0.505859 7.71256C0.505859 7.86221 0.560654 8.0921 0.628185 8.22565C2.53469 11.9455 6.30906 14.4624 10.6308 14.4624ZM10.6308 12.7749C7.16263 12.7749 3.98313 10.8413 2.26611 7.71239C3.98313 4.58349 7.16229 2.6499 10.6308 2.6499C14.0993 2.6499 17.2785 4.58349 18.9955 7.71239C17.2788 10.8413 14.0993 12.7749 10.6308 12.7749ZM14.5699 7.70219C14.5699 9.87003 12.8105 11.6295 10.6426 11.6295C8.47477 11.6295 6.71535 9.87003 6.71535 7.70219C6.71535 7.39588 6.78422 6.90843 6.86909 6.6141C7.11275 6.75266 7.53802 6.86668 7.81831 6.86864C8.90506 6.86864 9.78705 5.98664 9.78705 4.89989C9.7851 4.6196 9.67108 4.19433 9.53251 3.95068C9.82866 3.85849 10.3207 3.77974 10.6308 3.7749L10.6426 3.77486C12.8105 3.77486 14.5699 5.53432 14.5699 7.70219Z" />
</svg>
