<svg width="152" height="148" viewBox="0 0 152 148" fill="none" xmlns="http://www.w3.org/2000/svg">
<path d="M147.906 72.4181C147.906 114.137 116.136 147.958 76.9451 147.958C37.7542 147.958 0.78125 115.494 0.78125 76.1638C0.78125 42.8682 32.204 23.8107 32.204 23.8107C32.204 23.8107 65.5773 0 83.188 0C122.379 0 147.906 33.92 147.906 72.4181Z" fill="#51ADA6" fill-opacity="0.2"/>
<path d="M106.209 27.8066C107.02 27.8066 107.677 27.1492 107.677 26.3383C107.677 25.5273 107.02 24.8699 106.209 24.8699C105.398 24.8699 104.74 25.5273 104.74 26.3383C104.74 27.1492 105.398 27.8066 106.209 27.8066Z" stroke="black" stroke-width="0.5"/>
<path d="M16.6575 140.757L0.0407311 10.131C-0.339339 7.14318 1.98892 4.5 5.00077 4.5H74.5427C78.0595 4.5 81.0303 7.10923 81.4842 10.5966L98.2252 139.226C98.6926 142.817 95.8966 146 92.2754 146H22.6095C19.5886 146 17.0387 143.754 16.6575 140.757Z" fill="#15171F"/>
<path d="M20.7103 139.601L4.2115 11.2562C3.82715 8.26626 6.1562 5.61865 9.1707 5.61865H74.5885C77.6031 5.61865 80.1496 7.85547 80.5384 10.8449L97.2292 139.191C97.6183 142.184 95.2884 144.836 92.2709 144.836H26.6613C23.6433 144.836 21.0951 142.594 20.7103 139.601Z" fill="white"/>
<path fill-rule="evenodd" clip-rule="evenodd" d="M108.197 65.9828L96.3242 111.046C98.6199 112.749 101.01 113.601 103.493 113.601C106.178 113.601 108.232 113.266 114.367 113.601C116.687 113.727 118.56 114.927 122.445 115.198C125.035 115.379 127.636 115.216 130.248 114.71L122.445 65.9828H108.197Z" fill="white"/>
<path fill-rule="evenodd" clip-rule="evenodd" d="M108.004 65.7328H122.658L130.532 114.909L130.295 114.955C127.662 115.466 125.039 115.63 122.427 115.448C120.46 115.31 119.001 114.937 117.751 114.586C117.612 114.547 117.476 114.508 117.343 114.47C116.269 114.165 115.354 113.905 114.353 113.85C110.08 113.617 107.806 113.709 105.901 113.786C105.074 113.82 104.315 113.851 103.493 113.851C100.948 113.851 98.507 112.977 96.175 111.246L96.0391 111.146L108.004 65.7328ZM108.389 66.2328L96.609 110.945C98.8262 112.554 101.119 113.351 103.493 113.351C104.29 113.351 105.036 113.321 105.856 113.287C107.769 113.21 110.083 113.117 114.38 113.351C115.441 113.409 116.412 113.685 117.478 113.989C117.613 114.027 117.748 114.066 117.886 114.104C119.123 114.452 120.544 114.815 122.462 114.949C124.951 115.123 127.451 114.977 129.962 114.51L122.231 66.2328H108.389Z" fill="black"/>
<path fill-rule="evenodd" clip-rule="evenodd" d="M100.897 108.762C98.6388 109.026 97.1147 109.787 96.3242 111.046C98.6199 112.749 101.01 113.601 103.493 113.601C106.178 113.601 108.232 113.266 114.367 113.601C116.687 113.727 118.56 114.927 122.445 115.198C119.203 114.838 116.51 114.076 114.367 112.913C111.984 111.416 109.981 110.409 108.359 109.89C105.925 109.112 104.283 108.366 100.897 108.762Z" fill="black"/>
<path fill-rule="evenodd" clip-rule="evenodd" d="M107.605 109.381C107.874 109.47 108.149 109.561 108.435 109.652C110.084 110.179 112.105 111.198 114.493 112.697C116.599 113.838 119.256 114.592 122.472 114.95L122.427 115.448C120.46 115.31 119.002 114.937 117.751 114.586C117.612 114.547 117.476 114.508 117.343 114.47C116.269 114.165 115.354 113.905 114.353 113.85C110.08 113.617 107.806 113.709 105.901 113.786C105.074 113.82 104.316 113.851 103.493 113.851C100.948 113.851 98.5071 112.977 96.175 111.246L95.9893 111.109L96.1123 110.913C96.9606 109.562 98.5748 108.782 100.867 108.514C103.91 108.158 105.587 108.713 107.605 109.381ZM107.445 109.855C105.438 109.191 103.855 108.668 100.925 109.01C98.8274 109.256 97.4321 109.93 96.666 110.986C98.8655 112.568 101.14 113.351 103.493 113.351C104.29 113.351 105.036 113.321 105.856 113.287C107.769 113.21 110.083 113.117 114.38 113.351C114.494 113.357 114.606 113.366 114.717 113.377C114.558 113.297 114.401 113.216 114.247 113.132L114.24 113.129L114.234 113.124C111.859 111.633 109.876 110.638 108.283 110.128C107.993 110.036 107.715 109.944 107.445 109.855Z" fill="black"/>
<path fill-rule="evenodd" clip-rule="evenodd" d="M112.304 131.863L103.809 137.988C103.436 138.257 103.351 138.777 103.62 139.15C103.777 139.367 104.028 139.495 104.295 139.495H117.113C117.497 138.794 117.683 138.006 117.669 137.131C117.655 136.256 117.444 135.37 117.035 134.473L112.304 131.863Z" fill="#51ADA6"/>
<path fill-rule="evenodd" clip-rule="evenodd" d="M112.287 131.568L117.228 134.294L117.263 134.369C117.684 135.294 117.905 136.214 117.919 137.127C117.933 138.041 117.739 138.872 117.333 139.615L117.262 139.745H104.295C103.947 139.745 103.621 139.578 103.417 139.296C103.068 138.811 103.177 138.135 103.662 137.785L112.287 131.568ZM112.322 132.158L103.955 138.191C103.694 138.379 103.635 138.743 103.823 139.004C103.932 139.155 104.108 139.245 104.295 139.245H116.962C117.278 138.618 117.431 137.916 117.419 137.135C117.406 136.323 117.216 135.496 116.841 134.652L112.322 132.158Z" fill="#15171F"/>
<path fill-rule="evenodd" clip-rule="evenodd" d="M113.899 112.736C114.216 117.672 114.216 121.578 113.899 124.456C113.581 127.334 113.05 129.803 112.305 131.863C112.766 132.386 113.093 132.805 113.286 133.121C113.478 133.437 113.683 133.887 113.899 134.473H116.684C116.786 133.414 116.903 132.654 117.035 132.19C117.903 129.153 118.888 126.664 119.456 124.456C120.155 121.744 120.933 118.658 121.791 115.198C119.941 114.784 118.567 114.463 117.67 114.235C116.772 114.008 115.515 113.508 113.899 112.736Z" fill="white"/>
<path fill-rule="evenodd" clip-rule="evenodd" d="M113.622 112.327L114.007 112.511C115.62 113.281 116.859 113.772 117.732 113.993C118.626 114.219 119.997 114.54 121.846 114.954L122.096 115.01L122.034 115.258C121.176 118.719 120.397 121.805 119.699 124.519C119.412 125.632 119.021 126.815 118.595 128.091C118.58 128.137 118.565 128.182 118.55 128.228C118.137 129.468 117.693 130.8 117.276 132.259C117.15 132.699 117.035 133.44 116.933 134.497L116.911 134.723H113.725L113.665 134.559C113.451 133.98 113.253 133.547 113.073 133.251C112.891 132.954 112.576 132.548 112.117 132.028L112.02 131.917L112.07 131.778C112.807 129.742 113.335 127.293 113.651 124.429C113.966 121.572 113.967 117.682 113.65 112.753L113.622 112.327ZM114.175 113.143C114.466 117.886 114.458 121.668 114.148 124.484C113.836 127.312 113.317 129.754 112.59 131.809C113.004 132.285 113.309 132.68 113.499 132.991C113.685 133.295 113.876 133.708 114.072 134.223H116.458C116.555 133.277 116.666 132.573 116.795 132.122C117.215 130.652 117.662 129.311 118.075 128.072C118.09 128.026 118.106 127.979 118.121 127.933C118.547 126.654 118.933 125.488 119.214 124.394C119.896 121.747 120.654 118.745 121.488 115.386C119.762 114.998 118.469 114.695 117.609 114.478C116.761 114.263 115.614 113.816 114.175 113.143Z" fill="black"/>
<path fill-rule="evenodd" clip-rule="evenodd" d="M120.82 128.779C121.119 130.406 120.969 132.074 120.371 133.782C119.773 135.491 118.687 137.099 117.114 138.608C119.289 139.279 121.066 139.399 122.445 138.97C124.514 138.327 125.177 137.397 126.099 135.679C126.714 134.534 127.385 132.317 128.11 129.028L124.683 126.604L120.82 128.779Z" fill="#51ADA6"/>
<path fill-rule="evenodd" clip-rule="evenodd" d="M124.698 126.308L128.389 128.92L128.353 129.082C127.628 132.369 126.952 134.618 126.319 135.797C125.857 136.657 125.446 137.35 124.876 137.906C124.301 138.468 123.58 138.879 122.519 139.209C121.071 139.66 119.237 139.525 117.04 138.847L116.634 138.722L116.94 138.428C118.491 136.941 119.552 135.364 120.134 133.7C120.72 132.028 120.864 130.405 120.573 128.825L120.541 128.649L124.698 126.308ZM121.095 128.911C121.361 130.528 121.196 132.18 120.606 133.865C120.033 135.503 119.024 137.044 117.591 138.489C119.556 139.044 121.143 139.114 122.37 138.732C123.377 138.419 124.022 138.042 124.526 137.549C125.036 137.05 125.418 136.419 125.878 135.561C126.465 134.468 127.117 132.337 127.829 129.137L124.667 126.899L121.095 128.911Z" fill="#15171F"/>
<path fill-rule="evenodd" clip-rule="evenodd" d="M106.63 137.94C106.598 137.948 106.548 137.961 106.498 137.961V137.461C106.486 137.461 106.479 137.462 106.479 137.462C106.479 137.462 106.486 137.461 106.501 137.457C106.525 137.451 106.559 137.44 106.605 137.424C106.697 137.392 106.826 137.343 106.993 137.277C107.326 137.143 107.799 136.942 108.415 136.672C109.647 136.134 111.44 135.325 113.795 134.245L114.003 134.7C111.648 135.78 109.851 136.59 108.616 137.131C107.998 137.401 107.519 137.604 107.179 137.741C107.009 137.809 106.872 137.861 106.768 137.897C106.716 137.915 106.67 137.929 106.63 137.94Z" fill="black"/>
<path fill-rule="evenodd" clip-rule="evenodd" d="M124.727 129.46L123.171 135.322L122.688 135.193L124.243 129.332L124.727 129.46Z" fill="black"/>
<path fill-rule="evenodd" clip-rule="evenodd" d="M107.895 109.814L120.768 129.061C121.364 128.442 121.924 128.132 122.445 128.132C122.966 128.132 123.56 128.536 124.225 129.344C124.169 128.672 124.169 128.169 124.225 127.834C124.281 127.498 124.434 127.088 124.683 126.604L115.801 113.617C114.353 112.661 113.187 111.962 112.305 111.52C111.423 111.078 109.953 110.509 107.895 109.814Z" fill="white"/>
<path fill-rule="evenodd" clip-rule="evenodd" d="M107.277 109.341L107.974 109.577C110.034 110.273 111.518 110.846 112.417 111.296C113.312 111.745 114.487 112.45 115.939 113.409L115.98 113.436L124.973 126.586L124.905 126.718C124.661 127.192 124.521 127.576 124.471 127.875C124.421 128.178 124.418 128.656 124.474 129.323L124.54 130.12L124.032 129.503C123.371 128.701 122.843 128.382 122.444 128.382C122.024 128.382 121.526 128.634 120.947 129.234L120.732 129.458L107.277 109.341ZM108.513 110.29L120.807 128.671C121.35 128.167 121.896 127.882 122.444 127.882C122.933 127.882 123.431 128.164 123.935 128.656C123.927 128.308 123.94 128.02 123.978 127.793C124.035 127.455 124.176 127.064 124.393 126.623L115.622 113.799C114.196 112.858 113.054 112.174 112.193 111.743C111.429 111.361 110.205 110.876 108.513 110.29Z" fill="black"/>
<path fill-rule="evenodd" clip-rule="evenodd" d="M114.7 39.7781C115.412 37.6201 113.52 37.2001 115.994 35.1123C118.468 33.0245 121.183 32.3994 124.621 33.62C128.058 34.8406 128.608 38.9567 130.869 39.7781C133.131 40.5994 135.483 38.338 137.759 38.8446C139.649 39.145 138.984 39.0348 142.317 42.3694C145.65 45.7039 150.821 42.5392 151.35 50.9206C151.291 56.6597 145.614 55.4113 144.816 58.6798C144.019 61.9483 150.062 62.8985 147.676 66.7967C140.702 72.3385 134.165 73.3256 125.36 69.1613C116.556 64.997 114.94 52.8542 114.109 50.9206C113.278 48.987 113.209 44.7871 113.463 43.2034C113.717 41.6198 113.988 41.9361 114.7 39.7781Z" fill="#15171F"/>
<path fill-rule="evenodd" clip-rule="evenodd" d="M115.989 48.2116C117.921 49.108 119.305 49.6209 120.142 49.7503C120.98 49.8797 122.419 49.6835 124.459 49.162L121.751 47.4382V41.6881L119.142 43.783V47.2663L115.989 48.2116Z" fill="white"/>
<path fill-rule="evenodd" clip-rule="evenodd" d="M118.86 67.7599L121.453 80.1332L120.964 80.2357L118.371 67.8624L118.86 67.7599Z" fill="black"/>
<path fill-rule="evenodd" clip-rule="evenodd" d="M122.917 67.7695L124.763 78.6978L124.27 78.7811L122.424 67.8528L122.917 67.7695Z" fill="black"/>
<path fill-rule="evenodd" clip-rule="evenodd" d="M117.444 38.2303C117.444 38.4068 116.986 43.7768 118.469 44.2575C119.953 44.7381 122.528 41.2624 122.865 40.7389C123.202 40.2153 121.379 40.7868 121.147 40.1321C120.915 39.4774 122.302 38.4047 121.921 38.0533C121.539 37.7018 120.875 38.7881 119.738 38.833C118.602 38.8779 117.444 38.0539 117.444 38.2303Z" fill="white"/>
<path fill-rule="evenodd" clip-rule="evenodd" d="M121.798 37.4852C121.971 37.4969 122.13 37.5664 122.259 37.6857C122.426 37.8393 122.49 38.0385 122.487 38.2243C122.485 38.3881 122.432 38.5344 122.383 38.641C122.295 38.836 122.149 39.0485 122.029 39.2225C122.02 39.2358 122.011 39.2488 122.002 39.2616C121.863 39.4649 121.749 39.6367 121.678 39.79C121.648 39.8554 121.634 39.9005 121.627 39.9295C121.64 39.9336 121.656 39.9381 121.676 39.9428C121.812 39.9748 121.997 39.9824 122.225 39.9847C122.246 39.9849 122.268 39.9851 122.29 39.9852C122.376 39.9859 122.467 39.9866 122.55 39.9898C122.65 39.9936 122.773 40.0017 122.887 40.0288C122.97 40.0485 123.218 40.1145 123.344 40.3639C123.487 40.6474 123.353 40.905 123.286 41.0093C123.1 41.2978 122.35 42.3259 121.452 43.2277C121.003 43.6781 120.496 44.1179 119.987 44.4157C119.497 44.7028 118.895 44.921 118.315 44.7331C117.99 44.6279 117.754 44.3992 117.584 44.1461C117.415 43.8944 117.294 43.591 117.203 43.2765C117.021 42.6476 116.937 41.8807 116.901 41.1547C116.864 40.4227 116.876 39.7043 116.896 39.1605C116.906 38.888 116.918 38.6581 116.928 38.4911C116.931 38.4284 116.935 38.3741 116.937 38.3305C116.938 38.3163 116.939 38.3033 116.94 38.2914C116.941 38.2664 116.942 38.2501 116.943 38.2402C116.944 38.2264 116.944 38.2253 116.944 38.2303C116.944 38.1573 116.959 38.0559 117.021 37.9546C117.086 37.8493 117.178 37.7834 117.264 37.7473C117.408 37.6868 117.54 37.7079 117.577 37.714C117.674 37.7299 117.772 37.7693 117.832 37.7937C117.896 37.8197 117.97 37.8527 118.045 37.8859C118.054 37.89 118.063 37.894 118.072 37.8981C118.16 37.9367 118.254 37.9782 118.356 38.0202C118.774 38.1931 119.264 38.3514 119.719 38.3334C120.134 38.317 120.48 38.1114 120.839 37.8763C120.854 37.8664 120.869 37.8561 120.885 37.8454C121.034 37.7476 121.22 37.6251 121.394 37.5559C121.498 37.5144 121.639 37.4744 121.798 37.4852ZM121.581 39.9099C121.581 39.9098 121.583 39.9108 121.586 39.9131C121.582 39.9111 121.581 39.9099 121.581 39.9099ZM121.01 38.9466C120.681 39.1324 120.26 39.3128 119.758 39.3326C119.076 39.3596 118.419 39.1283 117.974 38.9444C117.951 38.9351 117.929 38.9258 117.907 38.9166C117.881 39.458 117.857 40.2548 117.9 41.105C117.934 41.8036 118.014 42.4804 118.164 42.999C118.238 43.2583 118.324 43.4547 118.415 43.5894C118.504 43.7226 118.578 43.7669 118.624 43.7818C118.785 43.8343 119.062 43.7983 119.482 43.5526C119.884 43.3174 120.321 42.9457 120.743 42.5218C121.277 41.9859 121.756 41.4 122.074 40.9825C121.882 40.9781 121.654 40.9649 121.446 40.9162C121.197 40.8575 120.821 40.7092 120.676 40.2991C120.551 39.946 120.663 39.6026 120.77 39.3711C120.837 39.2254 120.923 39.0804 121.01 38.9466ZM121.778 38.4801C121.778 38.4801 121.777 38.4803 121.776 38.4805L121.778 38.4801ZM122.656 41.0016C122.668 41.0046 122.665 41.0052 122.651 41.0008C122.653 41.0011 122.654 41.0014 122.656 41.0016ZM117.944 38.2303C117.944 38.2324 117.944 38.2345 117.944 38.2366L117.944 38.2303Z" fill="black"/>
<path fill-rule="evenodd" clip-rule="evenodd" d="M124.459 49.1621C127.805 49.789 130.845 53.2451 131.06 57.6664C131.274 62.0877 130.127 66.1515 128.568 68.1297C127.01 70.1078 121.861 72.4377 119.359 72.5173C117.691 72.5704 115.501 72.2178 112.789 71.4596C113.847 70.3733 114.522 69.4748 114.812 68.7642C115.103 68.0536 115.103 67.1265 114.812 65.9829C113.637 66.095 112.687 66.095 111.961 65.9829C110.821 65.8067 109.579 64.3399 108.015 64.5486C103.429 65.1608 106.587 68.1698 100.324 67.6375C98.4519 67.1558 100.658 59.2776 104.826 53.6869C107.606 49.9598 111.198 47.9528 115.603 47.6659C119.276 48.2454 122.228 48.7441 124.459 49.1621Z" fill="#51ADA6"/>
<path fill-rule="evenodd" clip-rule="evenodd" d="M101.967 56.2147C102.434 57.2539 102.825 57.9684 103.136 58.3608C103.412 58.7096 103.679 58.8289 103.958 58.9497C104.21 59.0586 104.474 59.1702 104.767 59.5509C105.007 59.8621 105.027 59.9206 105.058 60.0618C105.103 60.2658 105.176 60.612 105.811 61.8122C106.564 63.238 109.486 64.7037 114.647 66.1528C115.001 67.3299 115.079 68.2268 114.853 68.8395C114.626 69.455 113.933 70.2331 112.794 71.1847C110.45 69.0814 108.329 67.0939 106.431 65.2223C104.526 63.3441 102.86 60.828 101.431 57.6764L101.967 56.2147Z" fill="white"/>
<path fill-rule="evenodd" clip-rule="evenodd" d="M101.942 55.5529L102.194 56.1121C102.661 57.1496 103.041 57.8394 103.331 58.2055C103.568 58.5042 103.787 58.6035 104.057 58.7202L104.063 58.7228C104.326 58.8362 104.635 58.9698 104.965 59.3983C105.084 59.5536 105.16 59.6601 105.21 59.7505C105.265 59.8522 105.284 59.9289 105.301 60.0077C105.302 60.0116 105.303 60.0155 105.304 60.0196C105.343 60.1977 105.417 60.5337 106.031 61.6954C106.369 62.3341 107.224 63.0277 108.686 63.7496C110.136 64.4657 112.14 65.1896 114.714 65.9121L114.846 65.9492L114.885 66.0807C115.242 67.2668 115.343 68.2321 115.087 68.926C114.959 69.275 114.706 69.6503 114.353 70.0514C113.997 70.4546 113.529 70.896 112.954 71.3765L112.787 71.5153L112.626 71.3707C110.28 69.2653 108.156 67.2751 106.255 65.4003C104.323 63.4952 102.641 60.9513 101.202 57.7796L101.16 57.6864L101.942 55.5529ZM101.993 56.8677L101.7 57.6661C103.111 60.754 104.747 63.2112 106.606 65.0442C108.457 66.8696 110.521 68.8059 112.798 70.8532C113.285 70.4377 113.678 70.0607 113.978 69.7208C114.312 69.341 114.52 69.0195 114.618 68.753C114.807 68.2415 114.762 67.4553 114.445 66.3559C111.921 65.6416 109.928 64.9206 108.465 64.1979C106.987 63.4682 106.005 62.7161 105.589 61.929C104.948 60.7166 104.865 60.3487 104.813 60.1157C104.799 60.0535 104.793 60.0303 104.771 59.9897C104.742 59.9377 104.689 59.8593 104.569 59.7034C104.318 59.3774 104.103 59.2849 103.867 59.1826L103.859 59.1792C103.569 59.0542 103.255 58.9149 102.939 58.516C102.669 58.1755 102.353 57.6225 101.993 56.8677Z" fill="black"/>
<path fill-rule="evenodd" clip-rule="evenodd" d="M125.95 59.6298C123.992 62.1761 122.327 63.8749 120.956 64.6903C119.583 65.5066 117.498 66.0743 114.726 66.411L114.666 65.9147C117.415 65.5807 119.417 65.0234 120.7 64.2605C121.984 63.4967 123.602 61.8634 125.554 59.325L125.95 59.6298Z" fill="black"/>
<path fill-rule="evenodd" clip-rule="evenodd" d="M100.475 50.3617L103.493 58.6817L100.959 59.4773L97.2772 50.4781C97.1902 50.2654 97.2921 50.0223 97.5048 49.9353C97.5761 49.9061 97.654 49.8973 97.73 49.9098L100.475 50.3617Z" fill="black"/>
<path fill-rule="evenodd" clip-rule="evenodd" d="M99.9647 55.5773L102.479 59.1532L101.83 65.8467C101.783 66.3296 101.547 66.7491 101.202 67.038C100.857 67.327 100.402 67.4855 99.9184 67.4463C99.4739 67.4104 99.086 67.1976 98.8183 66.8828C98.552 66.5696 98.4045 66.1553 98.4384 65.7134L99.9647 55.5773Z" fill="white"/>
<path fill-rule="evenodd" clip-rule="evenodd" d="M99.8104 54.9231L102.736 59.0852L102.079 65.8708C102.026 66.4216 101.756 66.9004 101.362 67.2298C100.969 67.5592 100.45 67.7402 99.8982 67.6955C99.385 67.654 98.9368 67.4081 98.6279 67.0447C98.3206 66.6833 98.15 66.2045 98.1891 65.6943L98.1898 65.6852L99.8104 54.9231ZM100.119 56.2315L98.687 65.7412C98.661 66.1115 98.7852 66.4579 99.0088 66.7209C99.2353 66.9873 99.5628 67.1668 99.9385 67.1972C100.354 67.2308 100.744 67.0948 101.041 66.8463C101.338 66.5978 101.541 66.2376 101.581 65.8226L102.221 59.2212L100.119 56.2315Z" fill="black"/>
<path fill-rule="evenodd" clip-rule="evenodd" d="M106.774 63.1245L110.956 53.1539L111.417 53.3473L107.236 63.3179L106.774 63.1245Z" fill="black"/>
<path fill-rule="evenodd" clip-rule="evenodd" d="M118.689 79.2012L121.242 103.252L143.911 98.1502L132.342 74.8501L118.689 79.2012Z" fill="#B5DCD9"/>
<path fill-rule="evenodd" clip-rule="evenodd" d="M117.035 101.721V79.6782L119.715 78.9207L121.242 103.252L117.035 101.721Z" fill="#51ADA6"/>
<path fill-rule="evenodd" clip-rule="evenodd" d="M126.894 78.7396L136.995 94.616L149.336 81.4538C146.433 79.7305 144.132 78.2419 142.432 76.988C140.732 75.7341 138.292 73.725 135.111 70.9607L126.894 78.7396Z" fill="#B5DCD9"/>
<path fill-rule="evenodd" clip-rule="evenodd" d="M135.104 70.6232L135.275 70.7719C138.455 73.5352 140.889 75.539 142.581 76.7867C144.271 78.0336 146.565 79.5175 149.464 81.2388L149.731 81.3977L136.957 95.0219L126.572 78.6997L135.104 70.6232ZM135.118 71.298L127.216 78.7793L137.033 94.2099L148.941 81.5096C146.16 79.8513 143.94 78.411 142.284 77.1891C140.607 75.9517 138.217 73.9869 135.118 71.298Z" fill="black"/>
<path fill-rule="evenodd" clip-rule="evenodd" d="M131.085 94.616L125.752 79.6384L126.893 78.7395L136.994 94.616H131.085Z" fill="#51ADA6"/>
<path fill-rule="evenodd" clip-rule="evenodd" d="M126.957 78.3721L137.451 94.866H130.91L125.457 79.5532L126.957 78.3721ZM126.049 79.7238L131.262 94.366H136.54L126.832 79.107L126.049 79.7238Z" fill="#15171F"/>
<path fill-rule="evenodd" clip-rule="evenodd" d="M123.428 71.384L129.488 78.5784L129.106 78.9006L123.046 71.7062L123.428 71.384Z" fill="black"/>
<path fill-rule="evenodd" clip-rule="evenodd" d="M120.778 63.8376C120.953 63.7858 121.125 63.7607 121.281 63.7881L121.36 63.8019L121.416 63.8584C121.583 64.0277 121.876 64.4106 122.284 64.9846C122.697 65.5655 123.24 66.3588 123.912 67.3636C125.256 69.3734 127.121 72.2348 129.507 75.9469L129.086 76.2172C126.701 72.5059 124.838 69.6476 123.497 67.6415C122.826 66.6384 122.286 65.8496 121.877 65.2744C121.519 64.7719 121.27 64.4445 121.123 64.2775C121.073 64.2802 121.007 64.2913 120.92 64.317C120.784 64.3574 120.615 64.4286 120.411 64.5352C120.003 64.7485 119.48 65.0907 118.838 65.5672L118.54 65.1659C119.19 64.6827 119.738 64.3229 120.179 64.0921C120.4 63.9767 120.6 63.8903 120.778 63.8376Z" fill="black"/>
<path fill-rule="evenodd" clip-rule="evenodd" d="M121.277 63.5217C121.545 63.5458 121.779 63.6582 121.969 63.851C122.257 64.1417 123.428 65.1064 125.507 66.7617C127.579 68.4104 130.535 70.7318 134.378 73.7263L134.071 74.1207C130.228 71.1259 127.269 68.8032 125.196 67.1529C123.131 65.5094 121.929 64.5204 121.614 64.2027C121.504 64.0913 121.379 64.0329 121.232 64.0197C121.079 64.0059 120.886 64.0399 120.646 64.144C120.161 64.3541 119.544 64.8228 118.793 65.5793L118.438 65.227C119.202 64.4576 119.873 63.9339 120.447 63.6853C120.736 63.56 121.015 63.4981 121.277 63.5217Z" fill="black"/>
<path fill-rule="evenodd" clip-rule="evenodd" d="M108.257 11.0451L108.479 10.5972L108.495 10.6049L108.54 10.6276C108.58 10.6475 108.639 10.6771 108.715 10.7156C108.868 10.7926 109.09 10.9054 109.369 11.0488C109.926 11.3356 110.709 11.7448 111.614 12.2348C113.421 13.2142 115.718 14.519 117.663 15.8155C119.616 17.1174 121.709 18.9496 123.309 20.4506C124.11 21.2022 124.79 21.8728 125.269 22.3556C125.509 22.5971 125.699 22.7916 125.829 22.926C125.894 22.9932 125.944 23.0453 125.978 23.0807L126.016 23.121L126.026 23.1314L126.029 23.1341L126.03 23.135C126.03 23.135 126.03 23.1351 125.848 23.307L125.667 23.4788L125.664 23.4757L125.654 23.4657L125.617 23.4264C125.583 23.3916 125.534 23.3402 125.47 23.2737C125.341 23.1408 125.153 22.9478 124.914 22.708C124.438 22.2284 123.763 21.562 122.967 20.8153C121.372 19.3197 119.303 17.5102 117.386 16.2315C115.459 14.9475 113.178 13.6511 111.375 12.6744C110.475 12.1864 109.695 11.7789 109.14 11.4934C108.862 11.3506 108.641 11.2384 108.49 11.162C108.414 11.1238 108.356 11.0945 108.316 11.0748L108.272 11.0525L108.257 11.0451Z" fill="black"/>
<path fill-rule="evenodd" clip-rule="evenodd" d="M114.256 16.8501L114.55 16.4457L114.563 16.4556L114.603 16.4845C114.637 16.5099 114.688 16.5475 114.755 16.5965C114.887 16.6946 115.079 16.8381 115.321 17.0208C115.803 17.386 116.482 17.9077 117.264 18.5336C118.828 19.7846 120.813 21.456 122.487 23.1302C123.941 24.5842 125.614 26.6232 126.919 28.2929C127.572 29.1289 128.135 29.8745 128.535 30.4111C128.735 30.6794 128.894 30.8956 129.003 31.0448C129.058 31.1193 129.1 31.1772 129.129 31.2164L129.161 31.2611L129.171 31.2755L129.172 31.2765L128.767 31.5691L128.756 31.5543L128.724 31.5103C128.696 31.4715 128.654 31.4142 128.6 31.3401C128.491 31.192 128.333 30.9769 128.134 30.7098C127.736 30.1755 127.176 29.4331 126.525 28.6009C125.222 26.934 123.565 24.9151 122.134 23.4838C120.478 21.8285 118.509 20.1703 116.952 18.9241C116.173 18.3014 115.499 17.7826 115.019 17.4195C114.779 17.238 114.588 17.0954 114.457 16.9983C114.391 16.9498 114.341 16.9126 114.307 16.8876L114.268 16.8594L114.256 16.8501Z" fill="black"/>
<path fill-rule="evenodd" clip-rule="evenodd" d="M99.9649 7.52743L99.7568 6.07074L100.747 5.92932L100.955 7.38601L99.9649 7.52743Z" fill="black"/>
<path fill-rule="evenodd" clip-rule="evenodd" d="M99.3862 9.51236L97.9295 9.72046L97.7881 8.73051L99.2448 8.52241L99.3862 9.51236Z" fill="black"/>
<path fill-rule="evenodd" clip-rule="evenodd" d="M100.589 11.6893L100.381 10.2326L101.371 10.0912L101.579 11.5479L100.589 11.6893Z" fill="black"/>
<path fill-rule="evenodd" clip-rule="evenodd" d="M103.548 8.88809L102.092 9.09619L101.95 8.10624L103.407 7.89814L103.548 8.88809Z" fill="black"/>
<path fill-rule="evenodd" clip-rule="evenodd" d="M5.52765 87.1214L6.19545 86.1256L7.02598 86.6826L6.35818 87.6784L5.52765 87.1214Z" fill="black"/>
<path fill-rule="evenodd" clip-rule="evenodd" d="M4.12143 88.1368L3.12564 87.469L3.68262 86.6384L4.6784 87.3062L4.12143 88.1368Z" fill="black"/>
<path fill-rule="evenodd" clip-rule="evenodd" d="M3.63801 89.9828L4.3058 88.987L5.13633 89.5439L4.46854 90.5397L3.63801 89.9828Z" fill="black"/>
<path fill-rule="evenodd" clip-rule="evenodd" d="M6.98276 90.0268L5.98697 89.359L6.54394 88.5285L7.53973 89.1963L6.98276 90.0268Z" fill="black"/>
<g opacity="0.4">
<path d="M44.2731 9.98873C44.2731 11.0231 43.4346 11.8616 42.4002 11.8616C41.3659 11.8616 40.5273 11.0231 40.5273 9.98873C40.5273 8.95436 41.3659 8.11584 42.4002 8.11584C43.4346 8.11584 44.2731 8.95436 44.2731 9.98873Z" fill="#CCE0DF"/>
<path d="M23.8794 140.674L9.10449 15.8154H77.1525L92.5518 140.674H23.8794Z" fill="#CCE0DF"/>
<path fill-rule="evenodd" clip-rule="evenodd" d="M54.7015 70.3937L55.3981 54.7028L48.5645 55.02L50.5163 70.9079L54.7015 70.3937Z" fill="#51ADA6" fill-opacity="0.13"/>
<path fill-rule="evenodd" clip-rule="evenodd" d="M30.3445 132.571L28.1837 118.301L28.1784 118.302L27.5581 113.253L20.8359 114.83L23.3953 136.397L30.3408 132.564L30.3445 132.571Z" fill="#BCD9D8"/>
<path fill-rule="evenodd" clip-rule="evenodd" d="M64.8059 118.547L66.0396 124.565L67.9268 132.794L68.5056 134.575L82.9314 131.845L80.4201 115.392L64.8059 118.547Z" fill="#51ADA6" fill-opacity="0.13"/>
<path fill-rule="evenodd" clip-rule="evenodd" d="M61.8394 133.744C61.8984 134.437 61.9569 135.126 62.0145 135.803L68.1362 134.645L67.6186 133.051L61.8394 133.744Z" fill="#CCE0DF"/>
<path fill-rule="evenodd" clip-rule="evenodd" d="M40.7736 72.1048L41.2412 66.9152L49.5253 65.8974L48.1911 55.0374L22.0434 56.2515L23.2961 66.4488L15.435 69.32L16.5221 78.4794L34.0301 72.9332L40.7736 72.1048Z" fill="#51ADA6" fill-opacity="0.13"/>
<path fill-rule="evenodd" clip-rule="evenodd" d="M54.3479 39.7626L54.0124 38.8594L63.4119 33.6281L55.3496 21.1693C55.2353 21.2014 55.1186 21.2279 54.9978 21.242L44.0596 22.5333L46.6351 41.0402L54.3479 39.7626Z" fill="#BCD9D8"/>
<path fill-rule="evenodd" clip-rule="evenodd" d="M73.8715 40.74L71.6375 22.6495L64.4337 23.4997C63.0883 23.6588 62.1358 24.9574 62.3076 26.4L62.5287 28.2668C62.6349 29.1575 62.8862 29.4193 62.3076 29.9661L70.4937 42.452L73.8715 40.74Z" fill="#51ADA6"/>
<path fill-rule="evenodd" clip-rule="evenodd" d="M43.5469 127.22L61.054 133.305C60.5993 127.979 60.1659 122.999 60.1108 122.686L60.4662 122.622L60.597 122.243C60.8464 122.335 60.8464 122.335 61.1676 125.964C61.3468 127.989 61.5788 130.684 61.8088 133.38L67.519 132.679L65.6763 124.645L62.8281 110.748L41.5311 115.63L43.5469 127.22Z" fill="#BCD9D8"/>
<path fill-rule="evenodd" clip-rule="evenodd" d="M80.963 97.398L80.5345 95.4469L61.0035 99.9894L63.1146 110.29L79.9838 106.422L80.963 97.398Z" fill="#BCD9D8"/>
<path fill-rule="evenodd" clip-rule="evenodd" d="M49.6649 67.0354L42.2721 67.9436L41.91 71.9649L50.1462 70.953L49.6649 67.0354Z" fill="#CCE0DF"/>
<path fill-rule="evenodd" clip-rule="evenodd" d="M56.4848 70.7526L57.1301 67.7991L73.3398 66.8663L75.2654 74.8527L58.0653 79.1217L56.4848 70.7526ZM73.9293 65.3971L55.2537 66.3575L55.0503 70.9373L57.0257 80.579L76.3157 76.2543L73.9293 65.3971Z" fill="#CCE0DF"/>
<path fill-rule="evenodd" clip-rule="evenodd" d="M31.6619 134.114L47.597 130.981L58.6686 134.674L32.3123 139.408L31.6619 134.114ZM61.0889 133.72L43.2189 127.508L41.1668 115.714L40.47 115.874L42.2383 131.256L30.8209 133.226L30.8726 133.567L30.8759 133.573L30.8739 133.575L32.0694 141.47L61.2783 135.943C61.2154 135.204 61.1521 134.46 61.0889 133.72Z" fill="#CCE0DF"/>
<path fill-rule="evenodd" clip-rule="evenodd" d="M63.6476 35.8246L70.4992 45.9314L70.1138 49.3907L60.612 50.1873L56.9946 40.276L63.6476 35.8246ZM71.7958 50.8917L71.383 45.9477L63.8262 34.2695L54.94 39.2148L59.8192 52.363L71.7958 50.8917Z" fill="#BCD9D8"/>
<path fill-rule="evenodd" clip-rule="evenodd" d="M31.4324 36.5439L17.0979 36.2003L15.787 54.6287L33.6155 53.8008C33.3458 51.0215 32.24 42.5308 31.4324 36.5439Z" fill="#51ADA6" fill-opacity="0.13"/>
<path fill-rule="evenodd" clip-rule="evenodd" d="M76.325 41.0898L76.5198 36.2874L79.885 36.1442L78.6816 26.0019L68.9145 31.438C69.5817 38.5968 74.2578 40.5683 76.325 41.0898Z" fill="#51ADA6"/>
<path fill-rule="evenodd" clip-rule="evenodd" d="M30.8735 133.575L30.8755 133.573L30.8722 133.567L30.8205 133.226L42.2378 131.256L40.4696 115.874L41.1663 115.714L43.2184 127.509L61.0884 133.72C61.1516 134.46 61.2149 135.205 61.2779 135.943L32.069 141.47L30.8735 133.575ZM40.1033 115.951L41.8263 130.939L30.7629 132.848L28.5494 118.229L40.1033 115.951ZM65.6755 124.645L67.5182 132.679L61.8081 133.38C61.5781 130.684 61.346 127.989 61.1668 125.964C60.8457 122.335 60.8457 122.335 60.5962 122.243L60.4655 122.622L60.1101 122.686C60.1652 122.999 60.5986 127.979 61.0532 133.305L43.5462 127.22L41.5304 115.63L62.8273 110.748L65.6755 124.645ZM61.0034 99.9895L80.5344 95.4471L80.9629 97.3981L79.9837 106.422L63.1145 110.29L61.0034 99.9895ZM76.4799 77.001L78.3509 85.5138L59.0391 90.4034L57.1794 81.3281L76.4799 77.001ZM55.0503 70.9373L55.2538 66.3574L73.9294 65.3971L76.3157 76.2542L57.0258 80.5789L55.0503 70.9373ZM42.2719 67.9438L49.6647 67.0356L50.146 70.9532L41.9098 71.965L42.2719 67.9438ZM55.3977 54.7026L54.701 70.3936L50.5159 70.9077L48.564 55.0199L55.3977 54.7026ZM17.0973 36.2002L31.4319 36.5438C32.2394 42.5308 33.3452 51.0215 33.6149 53.8008L15.7864 54.6286L17.0973 36.2002ZM46.319 41.4797L47.9412 53.1356L33.979 53.7838C33.8041 51.8825 33.2748 47.671 32.7609 43.7252L46.319 41.4797ZM54.4824 40.1279L59.0577 52.4567L56.9271 52.7184L48.3152 53.1181L46.6867 41.419L54.4824 40.1279ZM63.8262 34.2696L71.3829 45.9478L71.7957 50.8918L59.8191 52.3631L54.94 39.2149L63.8262 34.2696ZM68.5584 31.6357C68.7811 33.5947 69.9934 40.008 76.3087 41.4779L76.1347 45.7573L72.2527 45.2226L64.8103 33.7217L68.5584 31.6357ZM73.6796 64.2612L55.3048 65.2065L55.7718 54.6855L57.0573 54.6255L72.4047 52.7431L73.6859 52.9908L72.7062 59.8315L73.6796 64.2612ZM69.2478 96.8946L66.7116 89.643L78.5973 86.6338L80.2879 94.3267L69.2478 96.8946ZM66.3485 89.7349L68.8824 96.9798L60.7731 98.8657L59.2694 91.5272L66.3485 89.7349ZM80.3042 114.636L71.3276 116.45L70.3111 113.279L78.1857 111.415L77.9663 107.277L79.9404 106.824L79.5962 109.996L80.3042 114.636ZM68.6776 109.406L70.9595 116.524L64.6531 117.798L63.1911 110.664L68.6776 109.406ZM69.0425 109.323L77.2282 107.446L77.4074 110.814L70.0766 112.549L69.0425 109.323ZM68.5057 134.575L67.9269 132.794L66.0397 124.565L64.806 118.547L80.4201 115.392L82.9314 131.845L68.5057 134.575ZM62.0142 135.803C61.9566 135.126 61.8982 134.436 61.8391 133.744L67.6183 133.051L68.1359 134.645L62.0142 135.803ZM91.1401 131.07L91.0002 130.318L84.764 131.498L83.0044 119.973L89.6161 118.77L89.5487 118.394L82.9467 119.595L81.4766 109.965L81.8655 106.382L88.0512 104.964L88.0061 104.582L81.9091 105.98L82.8504 97.3022L82.3827 95.173C83.2924 95.2394 84.9979 95.4535 86.9563 95.7322L86.8153 94.549C84.1814 94.1744 82.8357 94.0499 82.1307 94.0279L78.2992 76.5931L84.5191 75.1984L84.4286 74.4352L78.1347 75.8463L75.8164 65.2998L83.299 64.915L83.1635 63.7733L75.5674 64.1642L74.6012 59.7695L75.5207 53.3457L82.0763 54.6131L81.8407 52.625L72.9188 50.8998L72.5449 46.419L81.2461 47.6173L81.1068 46.4424L76.8773 45.8598L77.0495 41.6268C78.3257 41.8578 79.505 42.013 80.5918 42.1005L80.5449 41.7101C79.4781 41.6238 78.3188 41.4705 77.0646 41.2424L77.2362 37.0221L79.9752 36.9055L79.8845 36.1441L76.5193 36.2874L76.3244 41.0898C74.2573 40.5682 69.5812 38.5968 68.9139 31.4379L78.681 26.0018L78.6239 25.5194L78.4769 25.2436L68.8177 30.6195L66.6024 12.6809L66.2323 12.7245L68.4663 30.815L64.3954 33.0808L56.3277 20.6137C56.0532 20.8729 55.7205 21.0653 55.3488 21.1694L63.4112 33.6282L54.0117 38.8595L54.3471 39.7627L46.6344 41.0403L44.0588 22.5334L43.6884 22.5771L46.2664 41.101L32.7114 43.3458C32.3383 40.4872 31.9798 37.8156 31.7794 36.3311L31.7577 36.1693L31.7523 36.1692L28.5693 17.17L28.1989 17.214L31.3728 36.16L17.1243 35.8184L18.3649 18.3748L17.4112 18.4872C17.3508 18.4946 17.2929 18.5095 17.2326 18.518L16.004 35.7916L11.4771 35.6831L11.473 35.9346L11.4884 36.0654L15.977 36.1734L14.6606 54.6808L13.7029 54.7252L13.9288 56.6284L20.9226 56.3033L22.0739 65.6751L15.2961 68.1511L15.4346 69.3198L23.2957 66.4487L22.043 56.2514L48.1907 55.0373L49.5249 65.8973L41.2408 66.915L40.7732 72.1046L34.0297 72.9331L16.5217 78.4793L16.659 79.6378L34.2693 74.0594L54.793 71.5381L56.6621 80.6602L35.5746 85.3883L35.738 86.1352L56.8157 81.4094L60.3982 98.8936L38.4869 98.6529L38.4819 99.7997L60.6341 100.042L62.7511 110.373L40.2286 115.537L28.4978 117.85L26.5424 101.934L36.9333 93.8465L36.2533 92.9313L26.1019 100.832L19.164 100.747L19.3004 101.896L26.1726 101.98L27.4169 112.109L20.6993 113.685L20.8353 114.83L27.5575 113.253L28.1778 118.302L28.1831 118.301L30.344 132.57L30.3403 132.564L23.3948 136.397L23.5403 137.622L30.5252 133.767L31.7024 141.539L24.1742 142.964L24.2041 143.217L24.2976 143.719L31.8166 142.296L32.1607 144.569L32.5313 144.524L32.1835 142.227L61.3432 136.709C61.469 138.197 61.5908 139.64 61.7008 140.94L62.441 140.849C62.3373 139.621 62.2128 138.144 62.0795 136.569L68.3744 135.378L69.8561 139.938L70.2334 139.892L68.7439 135.308L83.047 132.601L83.9036 138.212L85.7544 137.985L91.1401 131.07Z" fill="#FFFFFE" fill-opacity="0.5"/>
<path fill-rule="evenodd" clip-rule="evenodd" d="M47.5968 130.981L31.6617 134.114L32.3121 139.408L58.6685 134.674L47.5968 130.981Z" fill="#51ADA6"/>
<path fill-rule="evenodd" clip-rule="evenodd" d="M73.3406 66.8662L57.1309 67.799L56.4855 70.7525L58.0661 79.1216L75.2661 74.8526L73.3406 66.8662Z" fill="#51ADA6"/>
<path fill-rule="evenodd" clip-rule="evenodd" d="M30.0962 26.9291L28.4581 15.8154L19.9261 15.8153L19.5047 26.6457L30.0962 26.9291Z" fill="#51ADA6"/>
<path fill-rule="evenodd" clip-rule="evenodd" d="M70.1137 49.3908L70.4992 45.9315L63.6475 35.8247L56.9945 40.2761L60.6119 50.1873L70.1137 49.3908Z" fill="#51ADA6"/>
<path fill-rule="evenodd" clip-rule="evenodd" d="M27.7873 102.576C27.9323 103.056 29.4599 116.19 29.4599 116.19L39.7151 114.25L36.3251 96.458L27.7873 102.576Z" fill="#51ADA6"/>
<path fill-rule="evenodd" clip-rule="evenodd" d="M63.5743 108.998L62.0284 100.931L79.4713 96.416L79.6436 97.8186L78.4184 105.561L63.5743 108.998Z" fill="#51ADA6"/>
<path fill-rule="evenodd" clip-rule="evenodd" d="M68.913 128.06L69.8421 129.507L71.5273 129.55L70.4767 130.895L70.9674 132.551L69.3891 131.935L68.0065 132.915L68.0817 131.189L66.7369 130.139L68.3619 129.689L68.913 128.06Z" fill="#51ADA6"/>
<path fill-rule="evenodd" clip-rule="evenodd" d="M15.7743 56.5182L16.2627 56.4582C16.3358 56.4493 16.3978 56.3995 16.4238 56.329C16.4761 56.1859 16.3615 56.0362 16.2131 56.0544L15.7247 56.1144C15.6473 56.1239 15.5827 56.1788 15.5596 56.2552C15.5171 56.3961 15.6312 56.5358 15.7743 56.5182Z" fill="#FFFFFE"/>
</g>
<path fill-rule="evenodd" clip-rule="evenodd" d="M81.5227 122.57L66.2846 125.104C65.877 125.173 65.4608 125.135 65.0745 124.991L41.5624 116.255C41.0184 116.053 40.6172 115.565 40.5156 114.981L30.1527 55.4915C30.1029 55.2067 30.1751 54.914 30.3506 54.6888C30.526 54.4624 30.7906 54.3279 31.0705 54.3124L40.6326 53.8688L39.3274 43.2451L40.4375 43.1087L41.7607 53.8795C41.7947 54.157 41.714 54.4386 41.5388 54.6519C41.364 54.8653 41.1085 54.9942 40.8348 55.0075L31.2806 55.4509L41.617 114.786C41.648 114.965 41.7709 115.115 41.9378 115.177L65.4506 123.914C65.6552 123.99 65.877 124.012 66.091 123.973L81.3146 121.291C81.5805 121.244 81.3058 121.133 81.5227 121.291C81.7388 121.449 81.2698 121.023 81.3146 121.291L81.5227 122.57Z" fill="#15171F"/>
<path d="M50.0125 32.1425C52.4081 37.8267 50.0302 44.2553 44.7013 46.5012C39.3723 48.7471 33.1103 45.9599 30.7147 40.2757C28.319 34.5915 30.6969 28.1628 36.0258 25.9169C41.3548 23.671 47.6168 26.4583 50.0125 32.1425Z" fill="white"/>
<path d="M34.7119 34.1572L45.9639 34.0224L46.2542 40.8546C46.278 41.415 45.8363 41.8854 45.2755 41.8969L36.0886 42.0845C35.5485 42.0956 35.0972 41.6755 35.0695 41.1359L34.7119 34.1572Z" fill="#51ADA6"/>
<path d="M36.5936 40.5849L36.3877 38.7931H40.4031L40.6433 40.5849H36.5936Z" fill="white"/>
<path d="M44.6755 31.4022L45.9074 34.09L34.6554 34.2243L35.6043 31.4018L39.188 31.4022L41.0918 31.4022L44.6755 31.4022Z" fill="#B5DCD9"/>
<path d="M38.9038 33.9807L39.1878 31.4019L40.9796 31.4019L41.5727 33.8189L41.7311 36.4318L40.3816 35.6862L39.0623 36.5937L38.9038 33.9807Z" fill="white"/>
<path d="M81.5229 107.17C78.4252 107.17 75.9043 109.779 75.9043 112.987C75.9043 117.544 80.9948 122.25 81.2114 122.448C81.3007 122.529 81.4118 122.57 81.5229 122.57C81.6341 122.57 81.7452 122.529 81.8345 122.448C82.0511 122.25 87.1416 117.544 87.1416 112.987C87.1416 109.779 84.6207 107.17 81.5229 107.17ZM81.5229 116.153C79.8018 116.153 78.4015 114.714 78.4015 112.945C78.4015 111.176 79.8018 109.737 81.5229 109.737C83.2441 109.737 84.6444 111.176 84.6444 112.945C84.6444 114.714 83.2441 116.153 81.5229 116.153Z" fill="#51ADA6"/>
</svg>
