<svg width="149" height="152" viewBox="0 0 149 152" fill="none" xmlns="http://www.w3.org/2000/svg">
<path fill-rule="evenodd" clip-rule="evenodd" d="M5.00305 128.761C21.9333 153.594 73.605 149.562 73.605 149.165C73.605 148.768 142.559 139.56 147.561 78.368C150.491 24.0859 121.086 20.6054 97.4915 7.44372C73.8969 -5.71798 35.2183 4.197 20.2534 17.4605C5.28847 30.724 11.6777 41.9992 9.24308 70.0288C6.80848 98.0585 -6.92541 114.59 5.00305 128.761Z" fill="#D7ECEA"/>
<path d="M134.209 66.8066C135.02 66.8066 135.677 66.1492 135.677 65.3383C135.677 64.5273 135.02 63.8699 134.209 63.8699C133.398 63.8699 132.74 64.5273 132.74 65.3383C132.74 66.1492 133.398 66.8066 134.209 66.8066Z" stroke="black" stroke-width="0.5"/>
<path fill-rule="evenodd" clip-rule="evenodd" d="M21.7915 24.3823L21.6143 23.1414L22.6042 23L22.7815 24.2409L21.7915 24.3823Z" fill="black"/>
<path fill-rule="evenodd" clip-rule="evenodd" d="M21.3823 26.1361L20.1414 26.3134L20 25.3234L21.2409 25.1461L21.3823 26.1361Z" fill="black"/>
<path fill-rule="evenodd" clip-rule="evenodd" d="M22.3238 27.9277L22.1465 26.6868L23.1364 26.5454L23.3137 27.7863L22.3238 27.9277Z" fill="black"/>
<path fill-rule="evenodd" clip-rule="evenodd" d="M24.9272 25.6043L23.6863 25.7816L23.5449 24.7917L24.7858 24.6144L24.9272 25.6043Z" fill="black"/>
<path fill-rule="evenodd" clip-rule="evenodd" d="M137.792 80.3823L137.614 79.1414L138.604 79L138.781 80.2409L137.792 80.3823Z" fill="black"/>
<path fill-rule="evenodd" clip-rule="evenodd" d="M137.382 82.1361L136.141 82.3134L136 81.3234L137.241 81.1461L137.382 82.1361Z" fill="black"/>
<path fill-rule="evenodd" clip-rule="evenodd" d="M138.324 83.9277L138.146 82.6868L139.136 82.5454L139.314 83.7863L138.324 83.9277Z" fill="black"/>
<path fill-rule="evenodd" clip-rule="evenodd" d="M140.927 81.6043L139.686 81.7816L139.545 80.7917L140.786 80.6144L140.927 81.6043Z" fill="black"/>
<path fill-rule="evenodd" clip-rule="evenodd" d="M126.5 108.749H131.216L135.104 149.428H118.793L126.5 108.749Z" fill="#51ADA6" stroke="black" stroke-width="0.5"/>
<path fill-rule="evenodd" clip-rule="evenodd" d="M42.5779 17.2101L36.8988 138.387C36.7559 141.436 39.1047 144.023 42.145 144.167C42.2312 144.171 42.3174 144.173 42.4037 144.173H106.22C109.142 144.173 111.556 141.886 111.722 138.961L118.647 17.2101H42.5779Z" fill="white" stroke="black"/>
<path fill-rule="evenodd" clip-rule="evenodd" d="M46.1389 16L41.0054 134.176C40.8718 137.254 43.2163 139.859 46.2422 139.995C46.3229 139.998 46.4036 140 46.4843 140H103.265C106.18 140 108.585 137.681 108.742 134.721L115 16H46.1389Z" fill="#E4F4F3"/>
<path d="M97.3414 45.9283H58.3406C56.4676 45.9283 54.9492 47.4508 54.9492 49.3289V56.9802C54.9492 58.8583 56.4676 60.3808 58.3406 60.3808H97.3414C99.2144 60.3808 100.733 58.8583 100.733 56.9802V49.3289C100.733 47.4508 99.2144 45.9283 97.3414 45.9283Z" fill="#51ADA6"/>
<path d="M63.3613 55.9503C63.9731 55.9503 64.4745 55.8018 64.8654 55.5047C65.2563 55.2077 65.5003 54.7963 65.5974 54.2704H64.5704C64.5073 54.5334 64.3725 54.7391 64.1662 54.8876C63.9598 55.0361 63.6866 55.1103 63.3467 55.1103C62.8757 55.1103 62.5066 54.9509 62.2396 54.632C61.9725 54.313 61.839 53.8736 61.839 53.3137C61.839 52.7537 61.9725 52.3131 62.2396 51.9917C62.5066 51.6703 62.8757 51.5097 63.3467 51.5097C63.6866 51.5097 63.9598 51.5888 64.1662 51.747C64.3725 51.9053 64.5073 52.1232 64.5704 52.4007H65.5974C65.5003 51.8505 65.2563 51.4232 64.8654 51.1189C64.4745 50.8146 63.9731 50.6624 63.3613 50.6624C62.8466 50.6624 62.4047 50.7744 62.0356 50.9984C61.6666 51.2224 61.3825 51.534 61.1834 51.9333C60.9843 52.3325 60.8848 52.7927 60.8848 53.3137C60.8848 53.8346 60.9843 54.2936 61.1834 54.6904C61.3825 55.0872 61.6666 55.3964 62.0356 55.618C62.4047 55.8395 62.8466 55.9503 63.3613 55.9503ZM67.331 55.8626V53.9929C67.331 53.6618 67.4172 53.4037 67.5896 53.2187C67.762 53.0337 67.9793 52.9412 68.2415 52.9412C68.5086 52.9412 68.704 53.0239 68.8278 53.1895C68.9517 53.355 69.0136 53.5936 69.0136 53.9052V55.8626H69.9386V53.8176C69.9386 53.2723 69.816 52.8584 69.5708 52.576C69.3256 52.2936 68.9796 52.1524 68.5328 52.1524C68.2658 52.1524 68.029 52.2096 67.8227 52.324C67.6163 52.4384 67.4524 52.5955 67.331 52.7951V50.604H66.3987V55.8626H67.331ZM72.5827 55.9503C72.874 55.9503 73.135 55.8967 73.3657 55.7896C73.5963 55.6825 73.7906 55.5352 73.9484 55.3477C74.1062 55.1603 74.2191 54.9521 74.2871 54.7233H73.3402C73.2771 54.8596 73.1812 54.9704 73.0525 55.0556C72.9238 55.1408 72.7648 55.1834 72.5754 55.1834C72.3229 55.1834 72.108 55.103 71.9308 54.9424C71.7535 54.7817 71.6552 54.5601 71.6358 54.2777H74.3818C74.3866 54.2144 74.3903 54.1536 74.3927 54.0951C74.3951 54.0367 74.3964 53.9807 74.3964 53.9272C74.3964 53.5961 74.3199 53.2954 74.1669 53.0252C74.014 52.7549 73.8015 52.5419 73.5296 52.3861C73.2576 52.2303 72.9444 52.1524 72.59 52.1524C72.2112 52.1524 71.8822 52.2339 71.603 52.397C71.3238 52.5602 71.1053 52.7878 70.9474 53.0799C70.7896 53.3721 70.7107 53.7056 70.7107 54.0805C70.7107 54.4506 70.7908 54.7768 70.9511 55.0592C71.1113 55.3416 71.3323 55.5607 71.6139 55.7165C71.8956 55.8724 72.2185 55.9503 72.5827 55.9503ZM73.4495 53.6934H71.6503C71.6989 53.4305 71.8106 53.2345 71.9854 53.1055C72.1602 52.9765 72.3617 52.912 72.59 52.912C72.8279 52.912 73.027 52.9826 73.1872 53.1238C73.3475 53.265 73.4349 53.4549 73.4495 53.6934ZM76.953 55.9503C77.4143 55.9503 77.8028 55.8261 78.1184 55.5778C78.4341 55.3295 78.6356 55.0008 78.723 54.5918H77.7397C77.6911 54.7719 77.5952 54.9107 77.4519 55.0081C77.3087 55.1055 77.14 55.1542 76.9457 55.1542C76.6884 55.1542 76.4698 55.0568 76.2902 54.862C76.1105 54.6673 76.0207 54.397 76.0207 54.0513C76.0207 53.7056 76.1105 53.4354 76.2902 53.2406C76.4698 53.0459 76.6884 52.9485 76.9457 52.9485C77.14 52.9485 77.3087 52.9984 77.4519 53.0982C77.5952 53.198 77.6911 53.3356 77.7397 53.5109H78.723C78.6356 53.0872 78.4341 52.7549 78.1184 52.5139C77.8028 52.2729 77.4143 52.1524 76.953 52.1524C76.5839 52.1524 76.2586 52.2327 75.977 52.3934C75.6953 52.5541 75.4732 52.7781 75.3105 53.0653C75.1478 53.3526 75.0665 53.6813 75.0665 54.0513C75.0665 54.4214 75.1478 54.75 75.3105 55.0373C75.4732 55.3246 75.6953 55.5486 75.977 55.7092C76.2586 55.8699 76.5839 55.9503 76.953 55.9503ZM80.4857 55.8626V54.044L81.9497 55.8626H83.1152L81.3962 53.8906L82.8748 52.24H81.7676L80.4857 53.708V50.604H79.5533V55.8626H80.4857ZM85.4241 55.9503C85.7689 55.9503 86.0821 55.8699 86.3638 55.7092C86.6454 55.5486 86.8676 55.3258 87.0302 55.041C87.1929 54.7561 87.2743 54.4262 87.2743 54.0513C87.2743 53.6764 87.1929 53.3465 87.0302 53.0617C86.8676 52.7768 86.6466 52.5541 86.3674 52.3934C86.0882 52.2327 85.7762 52.1524 85.4314 52.1524C85.0818 52.1524 84.7674 52.2327 84.4882 52.3934C84.209 52.5541 83.9868 52.7768 83.8217 53.0617C83.6566 53.3465 83.574 53.6764 83.574 54.0513C83.574 54.4262 83.6554 54.7561 83.8181 55.041C83.9807 55.3258 84.2017 55.5486 84.4809 55.7092C84.7601 55.8699 85.0745 55.9503 85.4241 55.9503ZM85.4241 55.1396C85.1814 55.1396 84.9713 55.0483 84.7941 54.8657C84.6169 54.6831 84.5282 54.4116 84.5282 54.0513C84.5282 53.691 84.6169 53.4196 84.7941 53.237C84.9713 53.0544 85.1838 52.9631 85.4314 52.9631C85.6694 52.9631 85.8782 53.0544 86.0578 53.237C86.2375 53.4196 86.3273 53.691 86.3273 54.0513C86.3273 54.4116 86.2375 54.6831 86.0578 54.8657C85.8782 55.0483 85.6669 55.1396 85.4241 55.1396ZM89.4594 55.9503C89.7411 55.9503 89.9875 55.887 90.1987 55.7604C90.41 55.6338 90.5714 55.4634 90.6831 55.2491L90.7559 55.8626H91.579V52.24H90.6467V54.1098C90.6467 54.4409 90.5629 54.6989 90.3954 54.8839C90.2279 55.069 90.0154 55.1615 89.7581 55.1615C89.4861 55.1615 89.287 55.0787 89.1608 54.9132C89.0345 54.7476 88.9714 54.509 88.9714 54.1974V52.24H88.0463V54.285C88.0463 54.8304 88.169 55.2442 88.4142 55.5267C88.6594 55.8091 89.0078 55.9503 89.4594 55.9503ZM94.7766 55.8626V55.0665H94.325C94.1405 55.0665 94.0106 55.0337 93.9354 54.9679C93.8601 54.9022 93.8225 54.7817 93.8225 54.6064V53.0215H94.7985V52.24H93.8225V51.2686H92.9994L92.8901 52.24H92.271V53.0215H92.8901V54.5991C92.8901 55.0714 93.0042 55.4001 93.2325 55.5851C93.4607 55.7701 93.7642 55.8626 94.143 55.8626H94.7766Z" fill="white"/>
<path d="M131.066 32.1035C136.005 38.1476 139.149 42.7394 140.498 45.8788C141.848 49.0182 142.634 53.5708 142.858 59.5366" stroke="black" stroke-width="0.5"/>
<path d="M130.682 36.9514C133.912 40.7401 136.006 43.6963 136.962 45.82C137.919 47.9437 138.625 51.2033 139.081 55.5989" stroke="black" stroke-width="0.5"/>
<path d="M111.149 111.702V102.681C111.149 98.7467 114.255 95.5175 118.176 95.3743C122.148 95.2292 125.569 98.1605 126.045 102.118L127.197 111.702" stroke="black" stroke-width="0.5"/>
<path fill-rule="evenodd" clip-rule="evenodd" d="M91.084 149.368L101.919 108.749H131.216V149.368H91.084Z" fill="#B5DCD9" stroke="#15171F" stroke-width="0.5"/>
<path d="M106.667 113.089C107.37 113.089 107.939 112.519 107.939 111.814C107.939 111.11 107.37 110.539 106.667 110.539C105.965 110.539 105.396 111.11 105.396 111.814C105.396 112.519 105.965 113.089 106.667 113.089Z" fill="white"/>
<path d="M122.777 113.089C123.479 113.089 124.048 112.519 124.048 111.814C124.048 111.11 123.479 110.539 122.777 110.539C122.074 110.539 121.505 111.11 121.505 111.814C121.505 112.519 122.074 113.089 122.777 113.089Z" fill="white"/>
<path d="M106.646 111.702L107.972 102.654C108.562 98.6202 112.013 95.6309 116.079 95.6309C119.837 95.6309 122.884 98.6857 122.884 102.454C122.884 102.544 122.882 102.634 122.879 102.724L122.524 111.702" stroke="black" stroke-width="0.5"/>
<path fill-rule="evenodd" clip-rule="evenodd" d="M147.918 127.33L140.005 151.134H117.478V129.419L128.731 127.33H147.918Z" fill="#B5DCD9" stroke="black" stroke-width="0.5"/>
<path d="M139.945 129.455H117.478V151.133H139.945V129.455Z" fill="white" stroke="black" stroke-width="0.5"/>
<path d="M127 145H120V148H127V145Z" fill="#51ADA6"/>
<path d="M126.016 133.637L126.999 129.702L129.499 129.702L130.307 133.658L130.289 137.317L128.206 136.152L125.999 137.296L126.016 133.637Z" fill="#51ADA6"/>
<path fill-rule="evenodd" clip-rule="evenodd" d="M148 127.39V148.219L140.04 151.045V129.408L148 127.39Z" fill="#51ADA6" stroke="black" stroke-width="0.5"/>
<path d="M100.309 74.8331H57.0686C56.3663 74.8331 55.7969 75.4041 55.7969 76.1083V77.3836C55.7969 78.0878 56.3663 78.6588 57.0686 78.6588H100.309C101.011 78.6588 101.58 78.0878 101.58 77.3836V76.1083C101.58 75.4041 101.011 74.8331 100.309 74.8331Z" fill="#B5DCD9"/>
<path fill-rule="evenodd" clip-rule="evenodd" d="M58.3408 80.2003L60.894 96.9324C60.9573 97.3475 61.3133 97.654 61.7321 97.654H94.1214C94.5208 97.654 94.8661 97.3744 94.9502 96.9828L98.5538 80.2003H58.3408Z" fill="#B5DCD9"/>
<path d="M64.5127 82.8033L65.8326 95.0661" stroke="#51ADA6" stroke-width="2"/>
<path d="M90.8428 82.8033L89.5228 95.0661" stroke="#51ADA6" stroke-width="2"/>
<path d="M70.3613 95.0661V82.8033" stroke="#51ADA6" stroke-width="2"/>
<path d="M85.1992 95.0661V82.8033" stroke="#51ADA6" stroke-width="2"/>
<path d="M80.5361 95.0661V82.8033" stroke="#51ADA6" stroke-width="2"/>
<path d="M75.0244 95.0661V82.8033" stroke="#51ADA6" stroke-width="2"/>
<path fill-rule="evenodd" clip-rule="evenodd" d="M20.5178 73.4182C9.31089 74.2804 2.8085 71.1316 1.01057 63.9718C0.594963 46.9411 12.5601 53.9525 15.5776 50.3135C16.6636 49.0038 16.5121 47.1891 17.2301 45.423C17.6381 44.4196 18.4675 43.082 19.7185 41.4102C17.5244 37.9579 17.5244 35.5524 19.7185 34.1939C23.2289 33.2426 23.4294 37.7838 24.2599 38.4595C27.6838 38.6518 30.5286 38.7278 32.3798 42.4645C34.0696 49.2343 30.3061 49.4007 29.8308 53.0273C30.6254 61.5858 37.5911 64.786 35.4752 69.5722C34.0646 72.763 29.0788 74.045 20.5178 73.4182Z" fill="#15171F"/>
<path fill-rule="evenodd" clip-rule="evenodd" d="M18.1866 95.3406C14.6327 94.6558 12.0025 92.9062 10.2961 90.0918L12.5249 75.0363C10.4198 76.8011 8.90141 77.5091 7.96976 77.1602C6.57228 76.6369 5.43307 74.7407 5.25293 72.1122C5.5923 66.6298 6.01752 64.3206 8.98156 60.8109C10.9576 58.4711 14.1095 57.0344 18.4373 56.5009C19.0424 58.7333 20.6685 59.8495 23.3156 59.8495C25.8754 59.8495 27.6079 58.9818 28.513 57.2464C28.2295 57.0963 28.0366 56.979 27.9344 56.8946C27.8322 56.8101 27.7241 56.6789 27.6103 56.5009C31.2207 56.9009 33.7969 58.6468 35.3387 61.7386C37.6515 66.3764 36.3174 70.7488 37.0715 76.1527C37.5742 79.7553 38.371 84.4017 39.4619 90.0918C37.7986 92.3431 35.6853 93.8093 33.122 94.4903C31.1098 95.0249 30.6593 89.8941 27.9344 90.0918C25.4522 90.272 20.7278 95.8303 18.1866 95.3406Z" fill="#51ADA6"/>
<path fill-rule="evenodd" clip-rule="evenodd" d="M26.7995 62.2557L22.3564 77.3086H43.5398L47.3795 62.2557H26.7995Z" fill="black" stroke="black" stroke-width="0.5"/>
<path fill-rule="evenodd" clip-rule="evenodd" d="M27.6182 43.7119C27.8901 43.6032 28.1967 43.5747 28.5733 43.6876C29.579 43.9891 30.3788 45.0102 30.9252 46.8155L30.0103 47.3047V49.9796L28.9103 50.2863C28.6069 50.7663 28.176 51.0979 27.6165 51.2798C27.1103 51.4444 26.5791 51.4658 26.0226 51.3412C25.7584 52.9622 25.7575 54.1123 26.0466 54.7851C26.3475 55.4855 27.2149 56.2381 28.6196 57.063C28.2942 58.247 27.6331 58.9322 26.7214 59.3888C25.8304 59.8351 24.6957 60.062 23.3152 60.062C21.9225 60.062 20.8068 59.7664 19.9636 59.1877C19.1105 58.602 18.5304 57.726 18.2314 56.5535C19.637 55.7615 20.5673 54.8938 21.1428 53.6996C21.7294 52.4824 22.2886 50.3289 22.8264 47.2412C22.2947 46.6306 21.996 46.1103 21.9132 45.6871C21.8628 45.4298 21.8874 45.2028 21.9787 45.0049C22.0688 44.8096 22.2256 44.64 22.4562 44.502C22.7628 44.3185 23.0032 44.2896 23.2096 44.3344C23.4633 44.3895 23.6724 44.5725 23.8972 44.7883C24.1947 45.0738 24.5373 45.4195 25.2352 45.305C25.909 45.1943 26.3233 44.7756 26.7043 44.4032C27.0023 44.112 27.2838 43.8457 27.6182 43.7119Z" fill="white" stroke="black" stroke-width="0.5"/>
<path fill-rule="evenodd" clip-rule="evenodd" d="M46.3791 69.3072C46.9516 69.8131 46.9564 70.9162 46.7996 71.6862C46.6427 72.4563 46.0567 73.0775 45.0678 73.0775C44.0789 73.0775 41.182 70.6936 40.6711 70.2465C40.1602 69.7995 40.1311 69.2836 40.2217 68.8309C40.3122 68.3783 40.8278 68.2112 41.4274 68.2112C42.027 68.2112 43.4879 69.3647 44.3358 69.5453C45.1837 69.726 45.8065 68.8012 46.3791 69.3072Z" fill="white" stroke="black" stroke-width="0.5"/>
<path fill-rule="evenodd" clip-rule="evenodd" d="M13.4911 88.7495C13.4232 100.51 13.7146 109.362 14.3654 115.307C15.0162 121.252 16.6168 129.501 19.167 140.056C19.713 139.39 20.2299 138.997 20.7177 138.876C21.2055 138.755 22.1042 138.873 23.4137 139.232L24.5534 94.6926L26.642 93.2656L25.2623 94.6926C27.0127 103.448 27.888 111.024 27.888 117.419C27.888 123.814 27.2347 130.187 25.9283 136.539C27.0053 136.675 27.8164 136.825 28.3616 136.989C28.9069 137.153 29.5032 137.426 30.1507 137.809C35.2916 130.477 38.115 122.197 38.621 112.969C39.0513 105.055 37.1896 95.795 33.036 85.1891C28.9122 84.7718 25.7048 84.7718 23.4137 85.1891C21.1226 85.6065 17.815 86.7933 13.4911 88.7495Z" fill="#15171F"/>
<path d="M11.7373 87.7738C15.2277 84.0604 19.0835 81.9674 23.3048 81.4946C27.526 81.0217 31.7158 82.149 35.8741 84.8762" stroke="black"/>
<path fill-rule="evenodd" clip-rule="evenodd" d="M21.0995 138.291C21.5588 138.163 22.2655 138.162 23.2183 138.276L23.8989 143.286L20.1305 142.953L19.3252 139.44C20.0478 138.806 20.6373 138.419 21.0995 138.291Z" fill="white" stroke="black" stroke-width="0.5"/>
<path fill-rule="evenodd" clip-rule="evenodd" d="M26.2641 135.861L30.2722 136.894L28.8721 140.998C27.9243 141.064 27.226 141.063 26.7774 140.99C26.3816 140.927 26.0131 140.913 25.6719 140.949L26.2641 135.861Z" fill="white" stroke="black" stroke-width="0.5"/>
<path fill-rule="evenodd" clip-rule="evenodd" d="M25.8142 140.501C25.0369 141.579 24.5207 142.613 24.2656 143.602C24.0104 144.591 24.0104 146.108 24.2656 148.153H31.048C31.3585 146.454 31.3585 145.14 31.048 144.208C30.7374 143.276 30.0638 142.04 29.0272 140.501H25.8142Z" fill="white" stroke="black" stroke-width="0.5"/>
<path d="M24.5088 146.818H30.082" stroke="black"/>
<path fill-rule="evenodd" clip-rule="evenodd" d="M19.7828 141.776C19.1144 142.976 18.6377 144.055 18.3525 145.014C18.0674 145.973 18.0674 147.445 18.3525 149.428H25.9329C26.28 147.781 26.28 146.506 25.9329 145.602C25.5858 144.698 24.7515 143.423 23.4302 141.776H19.7828Z" fill="white" stroke="black" stroke-width="0.5"/>
<path d="M19.4219 147.668H24.9951" stroke="black"/>
<path fill-rule="evenodd" clip-rule="evenodd" d="M46.8866 0L30.1229 17.21C29.5549 20.6879 30.8949 23.1872 34.143 24.7079C38.8227 26.3424 42.6515 25.4175 45.6293 21.9333L57.7091 0H46.8866Z" fill="#51ADA6"/>
<path fill-rule="evenodd" clip-rule="evenodd" d="M121.167 0L127.371 17.21C126.857 21.2098 124.976 23.97 121.728 25.4908C117.049 27.1252 113.052 24.7998 109.739 18.5147L104.919 0H121.167Z" fill="#51ADA6"/>
<path fill-rule="evenodd" clip-rule="evenodd" d="M57.7095 0L47.3799 18.7897C48.022 21.7363 49.9671 23.97 53.2151 25.4908C59.9295 27.6117 64.7476 24.8514 67.6697 17.21L72.5467 0H57.7095Z" fill="#B5DCD9"/>
<path fill-rule="evenodd" clip-rule="evenodd" d="M104.919 0L109.739 18.5147C107.846 22.8079 104.892 25.1333 100.876 25.4908C95.5255 25.4908 91.7412 23.1654 89.5235 18.5147V0H104.919Z" fill="#B5DCD9"/>
<path fill-rule="evenodd" clip-rule="evenodd" d="M72.547 0L67.6699 17.21C68.5101 22.7305 71.8326 25.7072 77.6373 26.1401C84.2782 26.4552 88.2403 23.9133 89.5237 18.5147V0H72.547Z" fill="#51ADA6"/>
<path d="M29.9961 17.2101H127.37" stroke="white"/>
<path fill-rule="evenodd" clip-rule="evenodd" d="M25.9289 64.1024H23.0103L22.0039 65.9809L20.0294 66.7898L11.5678 76.3863C10.4529 77.6507 8.52701 77.7694 7.26608 76.6516C7.09904 76.5035 6.94871 76.3374 6.81779 76.1565C5.63245 74.5179 5.99629 72.226 7.63043 71.0375C7.66902 71.0094 7.70816 70.9821 7.7478 70.9556C14.9748 66.1202 18.7395 63.5966 19.0418 63.3849C19.3856 63.1442 19.7148 62.7686 20.0294 62.258C21.5852 62.2394 22.7058 62.3372 23.3913 62.5516C24.0768 62.7659 24.9227 63.2829 25.9289 64.1024Z" fill="white" stroke="black" stroke-width="0.5" stroke-linejoin="round"/>
<path opacity="0.370079" d="M98.1898 113.94H52.4062V117.34H98.1898V113.94Z" fill="#B5DCD9"/>
<path opacity="0.370079" d="M89.7114 122.441H52.4062V125.842H89.7114V122.441Z" fill="#B5DCD9"/>
</svg>
