<svg width="165" height="156" viewBox="0 0 165 156" fill="none" xmlns="http://www.w3.org/2000/svg">
<path fill-rule="evenodd" clip-rule="evenodd" d="M45.0049 51.9544C76.8426 19.6366 66.5829 -9.40662 119.033 2.8789C162.257 17.5197 165.941 52.3135 164.388 84.462C162 121.99 114.912 150.435 86.0661 155.043C57.2206 159.652 15.7023 137.304 10.6762 108.77C5.45218 82.7185 11.4284 84.3681 45.0049 51.9544Z" fill="#D7ECEA"/>
<path fill-rule="evenodd" clip-rule="evenodd" d="M139.239 27.6712L139.066 26.4614L140.032 26.3235L140.204 27.5333L139.239 27.6712Z" fill="black"/>
<path fill-rule="evenodd" clip-rule="evenodd" d="M138.84 29.381L137.63 29.5538L137.492 28.5887L138.702 28.4159L138.84 29.381Z" fill="black"/>
<path fill-rule="evenodd" clip-rule="evenodd" d="M139.758 31.1278L139.585 29.918L140.55 29.7802L140.723 30.9899L139.758 31.1278Z" fill="black"/>
<path fill-rule="evenodd" clip-rule="evenodd" d="M142.297 28.8626L141.087 29.0354L140.949 28.0703L142.159 27.8974L142.297 28.8626Z" fill="black"/>
<path fill-rule="evenodd" clip-rule="evenodd" d="M62.2187 140.765L62.0459 139.555L63.011 139.417L63.1839 140.627L62.2187 140.765Z" fill="black"/>
<path fill-rule="evenodd" clip-rule="evenodd" d="M61.8193 142.475L60.6096 142.647L60.4717 141.682L61.6815 141.509L61.8193 142.475Z" fill="black"/>
<path fill-rule="evenodd" clip-rule="evenodd" d="M62.7373 144.221L62.5645 143.012L63.5296 142.874L63.7024 144.083L62.7373 144.221Z" fill="black"/>
<path fill-rule="evenodd" clip-rule="evenodd" d="M65.2754 141.956L64.0656 142.129L63.9277 141.164L65.1375 140.991L65.2754 141.956Z" fill="black"/>
<path d="M136.091 125.382H3.93676C2.31483 125.382 1 126.697 1 128.319C1 129.941 2.31483 131.256 3.93676 131.256H136.091C137.713 131.256 139.028 129.941 139.028 128.319C139.028 126.697 137.713 125.382 136.091 125.382Z" fill="#51ADA6" stroke="black"/>
<path fill-rule="evenodd" clip-rule="evenodd" d="M31.154 37.5243H143.801C146.504 37.5243 148.695 39.7157 148.695 42.4189C148.695 42.6806 148.674 42.9418 148.633 43.2002L136.232 119.889C135.926 121.786 134.288 123.18 132.367 123.18H18.57C16.4074 123.18 14.6543 121.427 14.6543 119.264C14.6543 119.055 14.6711 118.846 14.7045 118.639L27.2885 40.8149C27.5952 38.9183 29.2326 37.5243 31.154 37.5243Z" fill="black"/>
<path fill-rule="evenodd" clip-rule="evenodd" d="M142.504 40.2163C143.518 40.2163 144.435 40.6272 145.1 41.2915C145.764 41.9558 146.175 42.8735 146.175 43.8873C146.175 44.0835 146.159 44.2795 146.128 44.4732L133.544 122.297C133.4 123.186 132.944 123.958 132.3 124.507C131.655 125.056 130.821 125.382 129.92 125.382H16.1231C15.1094 125.382 14.1917 124.971 13.5273 124.307C12.863 123.643 12.4521 122.725 12.4521 121.711C12.4521 121.515 12.4679 121.319 12.4992 121.125L25.0832 43.3013C25.227 42.4122 25.6826 41.641 26.3275 41.092C26.9724 40.543 27.8065 40.2163 28.7071 40.2163H142.504Z" fill="white" stroke="#15171F"/>
<path fill-rule="evenodd" clip-rule="evenodd" d="M32.255 43.3979H138.578C140.741 43.3979 142.494 45.1511 142.494 47.3136C142.494 47.5258 142.477 47.7377 142.442 47.9472L130.726 119.408C130.416 121.301 128.78 122.69 126.862 122.69H20.5387C18.3762 122.69 16.623 120.937 16.623 118.775C16.623 118.562 16.6403 118.351 16.6746 118.141L28.3909 46.6801C28.7013 44.7873 30.337 43.3979 32.255 43.3979Z" fill="#EBF3F2"/>
<path fill-rule="evenodd" clip-rule="evenodd" d="M33.7761 59.55H92.2846L85.695 103.601H27.1865L33.7761 59.55Z" fill="#B9DEDB"/>
<path fill-rule="evenodd" clip-rule="evenodd" d="M38.7643 65.9131H81.3916C81.9322 65.9131 82.3705 66.3514 82.3705 66.892C82.3705 66.931 82.3681 66.97 82.3635 67.0087L81.1885 76.7979C81.1294 77.2898 80.7121 77.6601 80.2166 77.6601H37.5893C37.0486 77.6601 36.6104 77.2218 36.6104 76.6812C36.6104 76.6422 36.6127 76.6032 36.6173 76.5645L37.7923 66.7753C37.8514 66.2834 38.2687 65.9131 38.7643 65.9131Z" fill="white"/>
<path fill-rule="evenodd" clip-rule="evenodd" d="M36.2571 80.5968H78.8626C79.4033 80.5968 79.8415 81.0042 79.8415 81.5068C79.8415 81.5643 79.8357 81.6218 79.824 81.6784L78.79 86.6831C78.7014 87.1116 78.2981 87.4214 77.8286 87.4214H35.2231C34.6824 87.4214 34.2441 87.014 34.2441 86.5115C34.2441 86.4539 34.25 86.3964 34.2617 86.3398L35.2957 81.3351C35.3842 80.9066 35.7876 80.5968 36.2571 80.5968Z" fill="white"/>
<path opacity="0.239631" fill-rule="evenodd" clip-rule="evenodd" d="M98.3844 48.2924H138.293L135.533 66.8918H95.0508L98.3844 48.2924Z" fill="#B5D0CE"/>
<path opacity="0.239631" fill-rule="evenodd" clip-rule="evenodd" d="M94.9586 69.3391H134.868L132.107 87.9386H91.625L94.9586 69.3391Z" fill="#B5D0CE"/>
<path opacity="0.239631" fill-rule="evenodd" clip-rule="evenodd" d="M91.5315 90.8754H131.441L130.16 103.112H89.6777L91.5315 90.8754Z" fill="#B5D0CE"/>
<path opacity="0.239631" fill-rule="evenodd" clip-rule="evenodd" d="M26.6967 106.538H121.297L120.004 116.726H24.6631L26.6967 106.538Z" fill="#B5D0CE"/>
<path opacity="0.239631" fill-rule="evenodd" clip-rule="evenodd" d="M36.9756 48.2924H93.1793L91.931 56.6132H35.2676L36.9756 48.2924Z" fill="#B5D0CE"/>
<path fill-rule="evenodd" clip-rule="evenodd" d="M34.7893 91.3649H52.9219C53.4625 91.3649 53.9008 91.8031 53.9008 92.3438C53.9008 92.4057 53.8949 92.4676 53.8832 92.5284L52.8492 97.9125C52.7607 98.3735 52.3573 98.7068 51.8879 98.7068H33.7553C33.2146 98.7068 32.7764 98.2685 32.7764 97.7278C32.7764 97.6659 32.7822 97.6041 32.7939 97.5432L33.8279 92.1592C33.9165 91.6981 34.3198 91.3649 34.7893 91.3649Z" fill="#51ADA6"/>
<path fill-rule="evenodd" clip-rule="evenodd" d="M116.866 144.374L116.322 147.989L119.281 150.069L120.515 144.374H116.866Z" fill="white" stroke="black"/>
<path fill-rule="evenodd" clip-rule="evenodd" d="M128.991 142.564V147.221H132.096V142.564H128.991Z" fill="white" stroke="black"/>
<path fill-rule="evenodd" clip-rule="evenodd" d="M124.274 63.2197C122.966 64.1469 123.247 64.5788 124.274 66.997C125.893 70.812 120.008 70.8579 122.701 79.7522C123.643 82.8656 128.411 91.1599 135.54 90.4591C142.67 89.7583 148.224 84.5175 148.991 77.6477C149.758 70.7778 144.821 68.6484 140.34 67.6136C135.859 66.5789 135.865 63.3943 131.99 62.4675C130.527 62.1176 129.192 63.172 128.019 63.2197C126.086 63.2984 125.088 62.6425 124.274 63.2197Z" fill="black"/>
<path fill-rule="evenodd" clip-rule="evenodd" d="M122.562 96.0082C120.433 96.3743 119.339 96.6263 119.281 96.7642C119.431 96.9575 119.848 97.3344 120.354 97.5246C121.087 97.8001 121.94 97.8741 121.882 98.0198C119.994 102.817 118.393 109.084 117.079 116.82C115.611 125.467 115.088 134.935 115.509 145.221H120.862C121.07 144.289 121.444 141.984 121.984 138.308C122.794 132.794 122.562 132.411 123.558 126.872C124.222 123.179 126.033 117.133 128.991 108.735L128.115 143.76H133.366C133.597 139.653 134.317 134.233 135.527 127.5C137.343 117.401 139.356 111.529 139.944 107.172C140.335 104.268 140.164 101.187 139.429 97.9304L142.018 95.4717C140.972 94.6207 138.808 94.2825 135.527 94.457C132.246 94.6316 127.925 95.1487 122.562 96.0082Z" fill="#15171F"/>
<path fill-rule="evenodd" clip-rule="evenodd" d="M125.687 66.4888C126.389 66.03 126.9 66.0335 127.381 66.2215C127.702 66.347 127.942 66.5461 128.213 66.7765C128.491 67.0127 128.806 67.2832 129.324 67.5145C129.695 67.6798 129.998 67.6149 130.263 67.5656C130.555 67.5113 130.811 67.4795 131.056 67.5863C131.245 67.6689 131.435 67.8331 131.62 68.1676C131.986 68.8289 132.305 69.8387 132.485 70.8443L132.549 71.2115C132.64 71.7499 132.71 72.3054 132.71 73.1608C132.71 73.903 132.61 74.4747 132.422 74.879C132.203 75.3517 131.866 75.6141 131.427 75.6859H128.994C128.55 74.2873 128.688 73.0563 129.393 71.9902C129.409 71.9657 129.429 71.9378 129.452 71.9063L129.467 71.8846L129.353 71.9386C128.828 72.1743 128.313 72.3136 127.809 72.3583L127.641 72.3697C127.174 72.3917 126.928 72.2932 126.785 72.1596C126.595 71.9815 126.562 71.7064 126.568 71.3588C126.571 71.1113 126.588 70.8199 126.405 70.5527C126.175 70.2172 126.085 70.1618 126.022 70.1398C125.911 70.101 125.826 70.1269 125.695 69.7174C125.589 69.3833 125.656 69.1646 125.749 68.9005C125.806 68.7418 125.872 68.5605 125.872 68.286C125.872 67.8432 125.81 67.2442 125.687 66.4888Z" fill="white" stroke="black"/>
<path fill-rule="evenodd" clip-rule="evenodd" d="M141.402 77.486C139.726 76.3106 138.53 75.5958 137.812 75.3416C137.095 75.0874 135.643 74.8636 133.456 74.6703C132.603 75.649 131.668 76.1383 130.651 76.1383C129.634 76.1383 128.678 75.7688 127.784 75.0297C125.819 75.0497 124.487 75.1536 123.789 75.3416C122.384 75.7202 120.778 76.5987 120.454 77.486C120.13 78.3733 121.996 78.8583 121.742 84.7486C121.657 86.7352 120.45 89.0167 120.033 90.9103C119.762 92.1431 119.512 94.0944 119.282 96.7642C119.541 97.2618 121.255 97.3993 124.426 97.1769C129.182 96.8434 129.685 96.142 134.324 95.6976C137.416 95.4012 139.982 95.3259 142.019 95.4716C140.913 91.1957 140.556 87.4813 140.947 84.3282C141.339 81.1752 141.491 78.8945 141.402 77.486Z" fill="#51ADA6"/>
<path fill-rule="evenodd" clip-rule="evenodd" d="M120.453 77.4861C120.944 78.2817 121.995 78.8584 121.742 84.7486C121.724 85.1648 120.987 87.9877 119.78 89.7579C118.55 91.5623 117.545 91.9353 116.714 91.9352C116.215 91.9352 115.088 92.0803 113.896 91.9352C112.817 91.8038 111.672 91.3985 111.131 91.0897C109.386 89.9215 109.42 90.1425 108.742 89.4104C108.177 88.8003 109.197 88.0571 109.374 87.6584C109.47 87.443 110.49 88.362 112.762 89.2191C113.946 89.6655 115.438 88.9469 115.816 88.9469C118.281 88.9469 118.122 84.2724 118.281 82.5857C118.598 79.228 120.532 77.2706 120.453 77.4861Z" fill="white" stroke="black" stroke-width="0.5"/>
<path fill-rule="evenodd" clip-rule="evenodd" d="M141.32 77.4772C139.574 79.4719 138.227 81.0444 137.281 82.1948C136.905 82.6522 136.979 85.149 136.729 86.6949C136.645 87.2113 124.784 83.4616 124.174 83.4616C123.871 83.4616 122.713 83.72 120.699 84.2368C121.76 84.3245 122.363 84.555 122.51 84.9282C122.687 85.3771 123.906 84.9205 124.174 85.0747C124.463 85.2413 124.582 85.7328 124.752 85.8896C126.129 87.1564 127.582 88.0853 129.318 89.2889C132.867 91.7512 137.055 92.161 138.002 92.161C139.984 92.161 141.095 85.8896 141.32 84.8191C141.888 82.1201 141.888 79.6728 141.32 77.4772Z" fill="white" stroke="black" stroke-width="0.5" stroke-linejoin="round"/>
<path fill-rule="evenodd" clip-rule="evenodd" d="M100.444 74.6703H113.899L122.562 90.5009H109.003L100.444 74.6703Z" fill="black"/>
<path fill-rule="evenodd" clip-rule="evenodd" d="M108.597 89.3934C108.855 89.5347 108.713 88.7686 108.597 87.788C108.551 87.3914 108.728 86.7173 108.597 86.4296C108.296 85.7635 107.529 85.2883 106.298 85.0039C106.489 86.2861 106.681 87.1238 106.873 87.517C107.569 88.942 108.427 89.2998 108.597 89.3934Z" fill="white" stroke="black" stroke-width="0.5"/>
<path fill-rule="evenodd" clip-rule="evenodd" d="M116.314 146.926L117.958 147.97L120.099 147.438C120.933 149.45 120.933 151.063 120.158 152.287C118.354 153.732 117.33 154.043 115.428 154.614C113.875 155.082 112.453 155.081 110.973 154.67C110.191 154.375 109.775 153.994 109.641 153.563C109.506 153.124 109.647 152.602 110.146 152C111.011 150.957 113.065 149.264 116.314 146.926Z" fill="#51ADA6" stroke="black" stroke-width="0.5"/>
<path fill-rule="evenodd" clip-rule="evenodd" d="M132.169 145.806C132.217 145.899 132.265 145.994 132.314 146.09C134.634 150.655 135.772 153.312 135.772 154.058C135.772 154.413 135.619 154.681 135.361 154.864C135.119 155.036 134.771 155.131 134.361 155.131C133.641 155.131 132.719 154.842 131.914 154.255C130.348 153.113 128.87 151.882 128.455 150.125C128.175 148.94 128.426 147.593 129.231 146.085C129.279 145.994 129.329 145.905 129.379 145.818C129.447 145.882 129.521 145.946 129.6 146.01C130.068 146.387 130.483 146.572 130.854 146.516C131.237 146.459 131.598 146.288 131.941 146.01C132.023 145.944 132.099 145.876 132.169 145.806Z" fill="#51ADA6" stroke="black" stroke-width="0.5"/>
<path d="M120.487 131.719L121.984 128.859" stroke="white" stroke-width="0.5" stroke-linecap="round" stroke-linejoin="round"/>
<path d="M131.622 124.797C132.607 125.067 133.494 125.067 134.283 124.797C135.073 124.527 135.488 124.082 135.528 123.462" stroke="white" stroke-width="0.5" stroke-linecap="round" stroke-linejoin="round"/>
<path d="M42.8375 73.729C43.0478 73.6647 43.2324 73.5393 43.3913 73.3528C43.5502 73.1662 43.657 72.9466 43.7117 72.694L43.5009 72.6325C43.4511 72.8356 43.3794 72.9985 43.2859 73.1211C43.1924 73.2436 43.057 73.332 42.8797 73.3862C42.6347 73.4611 42.4039 73.4142 42.1874 73.2455C41.9708 73.0768 41.8106 72.8224 41.7066 72.4823C41.6407 72.2665 41.6049 72.0745 41.5995 71.9063C41.594 71.738 41.6111 71.5978 41.6508 71.4857C41.6951 71.3622 41.7512 71.2696 41.8193 71.2078C41.8874 71.146 41.9653 71.1017 42.053 71.0748C42.128 71.0519 42.2009 71.0401 42.2717 71.0395C42.3424 71.0388 42.4029 71.0618 42.4532 71.1084C42.4618 71.1498 42.4685 71.2172 42.4731 71.3108C42.4777 71.4043 42.4926 71.4923 42.5177 71.5745C42.5384 71.6422 42.5868 71.6944 42.663 71.731C42.7392 71.7677 42.8313 71.7696 42.9391 71.7366C43.0397 71.7059 43.1012 71.6486 43.1235 71.5648C43.1459 71.481 43.1431 71.3933 43.1151 71.3019C43.0481 71.0825 42.9119 70.9347 42.7067 70.8585C42.5014 70.7823 42.2662 70.7847 42.0011 70.8658C41.8091 70.9245 41.6439 71.0185 41.5055 71.1477C41.3671 71.277 41.2638 71.4231 41.1956 71.5859C41.1236 71.7558 41.0832 71.9326 41.0744 72.1163C41.0656 72.2999 41.0902 72.4868 41.1483 72.677C41.2819 73.114 41.4991 73.4284 41.7997 73.6204C42.1003 73.8124 42.4462 73.8486 42.8375 73.729Z" fill="black"/>
<path d="M56.1095 72.8399C56.3294 72.8399 56.5426 72.774 56.7491 72.6421C56.9556 72.5101 57.1219 72.3314 57.2481 72.1058L57.0646 71.9853C56.9575 72.165 56.8413 72.2998 56.7161 72.3897C56.5909 72.4795 56.4355 72.5245 56.2501 72.5245C55.9939 72.5245 55.7869 72.4121 55.6292 72.1875C55.4714 71.9628 55.3926 71.6727 55.3926 71.3171C55.3926 71.0915 55.4145 70.8974 55.4585 70.7349C55.5025 70.5724 55.5598 70.4433 55.6306 70.3477C55.709 70.2426 55.7898 70.1704 55.8729 70.1312C55.9561 70.092 56.0436 70.0724 56.1353 70.0724C56.2137 70.0724 56.2869 70.0824 56.3547 70.1025C56.4226 70.1226 56.4738 70.1623 56.5082 70.2215C56.5043 70.2636 56.491 70.33 56.468 70.4208C56.4451 70.5117 56.4336 70.6001 56.4336 70.6861C56.4336 70.7569 56.4647 70.8209 56.5268 70.8783C56.589 70.9356 56.6764 70.9643 56.7892 70.9643C56.8944 70.9643 56.9699 70.9275 57.0158 70.8539C57.0617 70.7803 57.0846 70.6957 57.0846 70.6001C57.0846 70.3707 56.9976 70.1895 56.8236 70.0566C56.6497 69.9237 56.424 69.8573 56.1468 69.8573C55.9461 69.8573 55.7606 69.8989 55.5904 69.9821C55.4203 70.0652 55.2788 70.1747 55.166 70.3104C55.0474 70.4519 54.9571 70.6092 54.895 70.7822C54.8328 70.9552 54.8018 71.1412 54.8018 71.34C54.8018 71.797 54.9174 72.1612 55.1488 72.4327C55.3801 72.7042 55.7004 72.8399 56.1095 72.8399Z" fill="black"/>
<path d="M45.4344 73.3811C45.634 73.3601 45.8009 73.306 45.935 73.2189C46.069 73.1317 46.1907 73.0132 46.2999 72.8633L46.317 72.8615C46.3557 72.992 46.4229 73.0873 46.5186 73.1474C46.6143 73.2076 46.7363 73.2298 46.8846 73.2142C46.9702 73.2052 47.0457 73.1872 47.1111 73.1602C47.1765 73.1331 47.2522 73.0987 47.3382 73.057L47.319 72.8744C47.2543 72.8812 47.191 72.8869 47.129 72.8915C47.067 72.8961 47.0209 72.8914 46.9905 72.8772C46.9341 72.8524 46.8907 72.8195 46.8605 72.7784C46.8302 72.7374 46.8112 72.6798 46.8034 72.6057C46.7772 72.3566 46.7559 72.1267 46.7395 71.9159C46.7232 71.7052 46.7007 71.4639 46.6721 71.192C46.6521 71.0019 46.6106 70.8491 46.5475 70.7336C46.4844 70.6182 46.4007 70.5304 46.2963 70.4702C46.1918 70.4081 46.0789 70.3724 45.9578 70.363C45.8366 70.3537 45.6962 70.3574 45.5365 70.3742C45.4205 70.3864 45.3036 70.4174 45.1858 70.4673C45.068 70.5171 44.9691 70.5732 44.8891 70.6354C44.7969 70.7086 44.724 70.7883 44.6706 70.8747C44.6172 70.961 44.5951 71.0479 44.6043 71.1354C44.6131 71.2191 44.6434 71.2923 44.6952 71.3551C44.7469 71.4179 44.8204 71.4443 44.9154 71.4343C45.0219 71.4231 45.1022 71.3868 45.1563 71.3254C45.2104 71.2639 45.234 71.1999 45.227 71.1334C45.2204 71.0706 45.2041 71.0031 45.1783 70.9309C45.1524 70.8586 45.1375 70.8035 45.1335 70.7654C45.1605 70.7299 45.21 70.6935 45.2821 70.6561C45.3541 70.6187 45.4338 70.5955 45.5213 70.5863C45.6487 70.5729 45.7498 70.5887 45.8247 70.6337C45.8996 70.6787 45.9598 70.7344 46.0052 70.8007C46.046 70.8599 46.0754 70.9241 46.0932 70.9933C46.1111 71.0626 46.1213 71.1096 46.1239 71.1343L46.1536 71.4167C46.0675 71.4757 45.8983 71.5627 45.6461 71.6776C45.3938 71.7926 45.2266 71.8707 45.1444 71.912C45.0788 71.9458 45.0093 71.9892 44.9361 72.0421C44.8628 72.0949 44.8054 72.1524 44.7638 72.2144C44.7102 72.2893 44.6727 72.3711 44.6512 72.4599C44.6298 72.5486 44.6248 72.6472 44.6362 72.7556C44.6581 72.9647 44.7439 73.1268 44.8935 73.2418C45.043 73.3569 45.2233 73.4033 45.4344 73.3811ZM45.6895 73.0371C45.5621 73.0505 45.4531 73.0244 45.3626 72.9589C45.2721 72.8935 45.2186 72.7818 45.202 72.624C45.1892 72.5023 45.2057 72.3944 45.2516 72.3002C45.2974 72.2059 45.3645 72.1215 45.4527 72.0469C45.5501 71.9674 45.6573 71.8985 45.7742 71.8401C45.8911 71.7816 46.0278 71.7202 46.1845 71.6556L46.2708 72.6415C46.2098 72.7382 46.1314 72.8248 46.0357 72.9012C45.9399 72.9776 45.8245 73.0229 45.6895 73.0371Z" fill="black"/>
<path d="M62.4062 72.8371C62.6069 72.8371 62.7785 72.8007 62.921 72.7281C63.0634 72.6554 63.1968 72.5503 63.3211 72.4126H63.3383C63.3631 72.5465 63.42 72.6483 63.5089 72.7181C63.5978 72.7878 63.7168 72.8227 63.866 72.8227C63.952 72.8227 64.029 72.8127 64.0968 72.7926C64.1647 72.7725 64.2436 72.7463 64.3334 72.7138V72.5302C64.2684 72.5302 64.2049 72.5293 64.1427 72.5273C64.0806 72.5254 64.0352 72.5159 64.0065 72.4987C63.953 72.4681 63.9133 72.4308 63.8875 72.3868C63.8617 72.3428 63.8488 72.2836 63.8488 72.209C63.8488 71.9585 63.8516 71.7277 63.8574 71.5164C63.8631 71.3051 63.866 71.0628 63.866 70.7894C63.866 70.5982 63.8406 70.4419 63.79 70.3205C63.7393 70.1991 63.6652 70.103 63.5677 70.0322C63.4702 69.9596 63.3617 69.9123 63.2422 69.8903C63.1227 69.8683 62.9826 69.8573 62.822 69.8573C62.7054 69.8573 62.5859 69.8759 62.4635 69.9132C62.3412 69.9505 62.237 69.9959 62.1509 70.0495C62.0515 70.1125 61.9707 70.1842 61.9086 70.2645C61.8465 70.3448 61.8154 70.429 61.8154 70.5169C61.8154 70.601 61.8379 70.677 61.8828 70.7449C61.9277 70.8128 61.998 70.8467 62.0936 70.8467C62.2007 70.8467 62.2843 70.819 62.3445 70.7636C62.4048 70.7081 62.4349 70.6469 62.4349 70.58C62.4349 70.5169 62.4258 70.4481 62.4076 70.3735C62.3895 70.299 62.3804 70.2426 62.3804 70.2043C62.411 70.1718 62.464 70.1407 62.5395 70.1111C62.6151 70.0815 62.6968 70.0667 62.7848 70.0667C62.9129 70.0667 63.0118 70.0929 63.0816 70.1455C63.1514 70.1981 63.2054 70.2598 63.2436 70.3305C63.278 70.3936 63.3005 70.4605 63.311 70.5313C63.3215 70.602 63.3268 70.6498 63.3268 70.6747V70.9586C63.235 71.0083 63.0577 71.0771 62.7948 71.1651C62.5319 71.253 62.3574 71.3133 62.2714 71.3458C62.2026 71.3725 62.129 71.4084 62.0506 71.4533C61.9722 71.4982 61.9091 71.5494 61.8613 71.6067C61.8001 71.6756 61.7542 71.753 61.7236 71.839C61.693 71.9251 61.6777 72.0226 61.6777 72.1316C61.6777 72.3419 61.7461 72.512 61.8828 72.6421C62.0195 72.7721 62.194 72.8371 62.4062 72.8371ZM62.6958 72.5216C62.5677 72.5216 62.4621 72.4843 62.3789 72.4098C62.2958 72.3352 62.2542 72.2186 62.2542 72.0599C62.2542 71.9375 62.2819 71.8319 62.3374 71.743C62.3928 71.6541 62.4683 71.5771 62.5639 71.5121C62.6691 71.4433 62.7828 71.3859 62.9052 71.34C63.0276 71.2941 63.17 71.2473 63.3325 71.1995L63.3153 72.1889C63.2446 72.2788 63.1576 72.3567 63.0543 72.4227C62.9511 72.4886 62.8316 72.5216 62.6958 72.5216Z" fill="black"/>
<path d="M73.2748 72.8333V71.5284H73.857V71.1527H73.2748V68.6346H72.8991L70.8887 71.0867V71.5284H72.7241V72.8333H73.2748ZM72.7241 71.1527H71.1755L72.7241 69.2742V71.1527Z" fill="black"/>
<path d="M76.2252 72.7657C76.4007 72.8194 76.5792 72.8389 76.7606 72.8244C76.9419 72.8099 77.1198 72.7563 77.294 72.6636C77.445 72.5818 77.5802 72.4682 77.6996 72.3228C77.8191 72.1774 77.9079 72.0096 77.966 71.8194C78.0728 71.4702 78.0536 71.1455 77.9085 70.8452C77.7634 70.5449 77.5381 70.3481 77.2328 70.2547C77.0628 70.2028 76.8923 70.1816 76.7214 70.1913C76.5504 70.2011 76.3654 70.2505 76.1662 70.3395C76.3482 69.9733 76.5888 69.688 76.8882 69.4836C77.1876 69.2793 77.5553 69.1737 77.9912 69.1671L78.2514 69.1986L78.2775 68.9367C77.5974 68.8267 76.9946 68.9363 76.4691 69.2655C75.9436 69.5947 75.5811 70.0856 75.3815 70.7384C75.3049 70.9889 75.2679 71.2245 75.2704 71.4452C75.2729 71.6658 75.3114 71.8636 75.386 72.0383C75.4592 72.2106 75.5667 72.3595 75.7083 72.4847C75.8499 72.61 76.0222 72.7037 76.2252 72.7657ZM76.2969 72.5507C76.0684 72.4808 75.9212 72.3034 75.8554 72.0184C75.7896 71.7333 75.8221 71.3769 75.9529 70.9491C75.9669 70.9033 75.9878 70.8413 76.0158 70.7629C76.0438 70.6844 76.062 70.6345 76.0706 70.6132C76.2172 70.526 76.3573 70.4749 76.4908 70.4598C76.6244 70.4446 76.7598 70.458 76.8969 70.4999C77.1255 70.5698 77.2805 70.7152 77.3619 70.936C77.4433 71.1568 77.4388 71.4153 77.3482 71.7115C77.2476 72.0407 77.1016 72.2794 76.9103 72.4279C76.719 72.5763 76.5145 72.6172 76.2969 72.5507Z" fill="black"/>
<path d="M69.7385 71.7425L69.5672 71.1821L67.1324 71.9265C67.2079 71.8111 67.3111 71.6843 67.442 71.5462C67.5728 71.4081 67.7175 71.2698 67.876 71.1314C68.1422 70.8999 68.3385 70.7228 68.4648 70.5999C68.5911 70.4771 68.6938 70.3447 68.7727 70.2029C68.8444 70.0748 68.8835 69.9405 68.8902 69.8C68.8968 69.6594 68.8766 69.5121 68.8295 69.358C68.7308 69.0351 68.5247 68.8159 68.2113 68.7005C67.8979 68.5852 67.5248 68.5936 67.0921 68.7259C66.8937 68.7866 66.718 68.8726 66.5651 68.984C66.4122 69.0954 66.2922 69.2163 66.2052 69.3468C66.1167 69.48 66.0583 69.6138 66.0302 69.7482C66.002 69.8826 66.0054 70.0068 66.0402 70.1208C66.0777 70.2432 66.136 70.3321 66.2153 70.3875C66.2945 70.4429 66.3869 70.4545 66.4924 70.4222C66.6233 70.3822 66.7125 70.3209 66.7599 70.2383C66.8074 70.1557 66.8188 70.0743 66.7943 69.9941C66.7672 69.9054 66.7284 69.8181 66.6778 69.732C66.6273 69.6459 66.5843 69.5713 66.5489 69.5083C66.581 69.3946 66.6501 69.2921 66.7561 69.2008C66.862 69.1096 66.9836 69.043 67.1208 69.001C67.3425 68.9333 67.5429 68.9395 67.722 69.0198C67.9012 69.1 68.0311 69.2721 68.1118 69.5359C68.1673 69.7174 68.1953 69.8618 68.1957 69.969C68.1962 70.0762 68.1822 70.1699 68.1536 70.2502C68.1101 70.372 68.0538 70.4804 67.9847 70.5753C67.9156 70.6703 67.8113 70.7876 67.6716 70.9272C67.5463 71.0533 67.4349 71.1681 67.3373 71.2718C67.2397 71.3755 67.1575 71.4687 67.0905 71.5516C66.9802 71.6891 66.8868 71.814 66.8103 71.9263C66.7339 72.0385 66.6771 72.1361 66.6401 72.2189L66.7718 72.6495L69.7385 71.7425Z" fill="black"/>
<path d="M59.0727 72.276V72.0867C59.0191 72.0829 58.9699 72.0762 58.925 72.0666C58.88 72.0571 58.8365 72.0427 58.7945 72.0236C58.7409 72.0007 58.7013 71.9682 58.6755 71.9261C58.6497 71.884 58.6367 71.8305 58.6367 71.7655V70.1394C58.6559 70.1069 58.6826 70.0667 58.7171 70.0189C58.7515 69.9711 58.8012 69.9233 58.8662 69.8755C58.9331 69.8296 59.0091 69.7909 59.0942 69.7594C59.1793 69.7278 59.2715 69.712 59.3709 69.712C59.5067 69.712 59.6219 69.7665 59.7165 69.8755C59.8112 69.9845 59.8585 70.1394 59.8585 70.3401V71.7942C59.8585 71.863 59.8456 71.9189 59.8198 71.9619C59.794 72.005 59.7543 72.0351 59.7007 72.0523C59.6663 72.0637 59.6224 72.0714 59.5688 72.0752C59.5153 72.079 59.4665 72.0829 59.4226 72.0867V72.276H60.8106V72.0867C60.7533 72.0829 60.7069 72.0767 60.6715 72.068C60.6362 72.0594 60.5965 72.0465 60.5525 72.0293C60.4971 72.0064 60.4574 71.9744 60.4335 71.9333C60.4096 71.8922 60.3977 71.8381 60.3977 71.7712V70.3C60.3977 69.9998 60.3298 69.7699 60.194 69.6102C60.0583 69.4506 59.8642 69.3708 59.6118 69.3708C59.4895 69.3708 59.3791 69.3861 59.2806 69.4167C59.1821 69.4472 59.0966 69.4855 59.0239 69.5314C58.9398 69.5849 58.8719 69.636 58.8203 69.6848C58.7687 69.7336 58.7113 69.7895 58.6482 69.8526H58.6367V67.8794L58.5966 67.8364L57.5498 67.9024V68.0859C57.6033 68.0898 57.6736 68.0969 57.7606 68.1074C57.8476 68.118 57.9083 68.1356 57.9427 68.1605C57.9905 68.193 58.0292 68.2418 58.0589 68.3068C58.0885 68.3718 58.1033 68.4368 58.1033 68.5018V71.7942C58.1033 71.863 58.0899 71.9189 58.0632 71.9619C58.0364 72.005 57.9962 72.0351 57.9427 72.0523C57.9102 72.0618 57.8701 72.069 57.8223 72.0738C57.7745 72.0786 57.7286 72.0829 57.6846 72.0867V72.276H59.0727Z" fill="black"/>
<path d="M52.8521 71.3572C53.0127 71.3572 53.1484 71.3395 53.2593 71.3041C53.3702 71.2688 53.4878 71.2253 53.6121 71.1737V70.9643C53.5738 70.9777 53.5083 70.9887 53.4156 70.9973C53.3229 71.0059 53.2526 71.0102 53.2048 71.0102C53.1016 71.0102 53.0194 70.9958 52.9582 70.9672C52.897 70.9385 52.8511 70.8964 52.8205 70.841C52.788 70.7817 52.7675 70.7124 52.7589 70.6331C52.7503 70.5537 52.7459 70.4548 52.7459 70.3362V68.756H53.5518V68.4807H52.7402V67.6002H52.2183V68.4807H51.6963V68.756H52.2068V70.6718C52.2068 70.8897 52.2551 71.0585 52.3516 71.178C52.4482 71.2975 52.615 71.3572 52.8521 71.3572Z" fill="black"/>
<path d="M50.7059 74.9976L50.618 74.7904C50.568 74.8092 50.5016 74.8258 50.4188 74.8403C50.336 74.8547 50.2703 74.8613 50.2218 74.86C50.163 74.8582 50.1113 74.8376 50.0666 74.7982C50.0219 74.7588 49.9838 74.7019 49.9523 74.6277L49.5637 73.7124L49.5841 73.7038C49.6687 73.7336 49.768 73.7486 49.882 73.7488C49.9961 73.7491 50.1285 73.7172 50.2792 73.6532C50.4351 73.5871 50.5662 73.4864 50.6727 73.3511C50.7793 73.2159 50.8591 73.0531 50.9122 72.8627C50.9611 72.6765 50.9763 72.4699 50.9579 72.2429C50.9396 72.0159 50.8792 71.7818 50.7768 71.5406C50.6727 71.2953 50.5526 71.089 50.4166 70.9217C50.2806 70.7543 50.132 70.6197 49.9708 70.5178C49.8199 70.4213 49.6626 70.3604 49.4989 70.335C49.3352 70.3096 49.1754 70.3299 49.0196 70.3961C48.8909 70.4507 48.7788 70.547 48.6834 70.6848C48.588 70.8226 48.5225 70.9721 48.4869 71.1331L48.4639 71.1356L48.3182 70.7923L48.2669 70.7703L47.4421 71.2007L47.5274 71.4017C47.58 71.3843 47.6362 71.3707 47.6961 71.3611C47.756 71.3515 47.8064 71.3526 47.8474 71.3644C47.903 71.3822 47.9557 71.4146 48.0056 71.4615C48.0555 71.5085 48.0936 71.5629 48.1198 71.6247L49.4968 74.8685C49.5265 74.9386 49.5422 75.0038 49.5437 75.0639C49.5453 75.1241 49.525 75.1753 49.4829 75.2174C49.4501 75.2484 49.4105 75.2774 49.364 75.3044C49.3175 75.3315 49.2688 75.3582 49.2181 75.3846L49.306 75.5918L50.7059 74.9976ZM49.8771 73.182C49.7839 73.2216 49.6993 73.2414 49.6232 73.2416C49.5472 73.2417 49.4721 73.2316 49.3979 73.2113C49.3375 73.1934 49.2781 73.1668 49.2197 73.1314C49.1614 73.0961 49.1141 73.0581 49.0778 73.0175L48.4258 71.4814C48.4603 71.3735 48.512 71.2712 48.581 71.1746C48.6499 71.078 48.7506 71.0015 48.8832 70.9452C49.0211 70.8867 49.1528 70.8681 49.2782 70.8895C49.4035 70.9109 49.5183 70.9597 49.6225 71.0357C49.7259 71.11 49.8206 71.2086 49.9067 71.3317C49.9928 71.4548 50.0634 71.5813 50.1186 71.7113C50.1939 71.8887 50.2451 72.0567 50.2722 72.2152C50.2993 72.3736 50.3001 72.5225 50.2747 72.6619C50.2522 72.7833 50.2054 72.8897 50.1343 72.9811C50.0631 73.0725 49.9774 73.1394 49.8771 73.182Z" fill="black"/>
<path d="M92.2839 65.6682C96.4739 65.6682 99.8705 62.2716 99.8705 58.0816C99.8705 53.8916 96.4739 50.495 92.2839 50.495C88.0939 50.495 84.6973 53.8916 84.6973 58.0816C84.6973 62.2716 88.0939 65.6682 92.2839 65.6682Z" fill="white" stroke="black"/>
<path d="M91.7946 65.6682C95.9846 65.6682 99.3812 62.2716 99.3812 58.0816C99.3812 53.8916 95.9846 50.495 91.7946 50.495C87.6047 50.495 84.208 53.8916 84.208 58.0816C84.208 62.2716 87.6047 65.6682 91.7946 65.6682Z" fill="white" stroke="black"/>
<path d="M88.8584 57.6307L91.1376 60.529L95.0233 55.6344" stroke="#51ADA6" stroke-linecap="round" stroke-linejoin="round"/>
<path d="M93.668 14.2108C100.225 13.4926 105.154 13.2693 108.456 13.5409C111.757 13.8125 116.686 14.847 123.243 16.6444" stroke="black" stroke-width="0.5"/>
<path d="M88.3145 10.6747C92.7739 9.38253 96.6441 8.73644 99.9251 8.73644C103.206 8.73644 107.096 9.03314 111.595 9.62653" stroke="black" stroke-width="0.5"/>
<path d="M115.342 10.0962C116.218 10.2125 117.575 10.4179 119.412 10.7126" stroke="black" stroke-width="0.5"/>
<path d="M84.2076 12.8066C85.0186 12.8066 85.676 12.1492 85.676 11.3383C85.676 10.5273 85.0186 9.86987 84.2076 9.86987C83.3967 9.86987 82.7393 10.5273 82.7393 11.3383C82.7393 12.1492 83.3967 12.8066 84.2076 12.8066Z" stroke="black" stroke-width="0.5"/>
</svg>
