<svg width="156" height="151" viewBox="0 0 156 151" fill="none" xmlns="http://www.w3.org/2000/svg">
<g clip-path="url(#clip0)">
<path fill-rule="evenodd" clip-rule="evenodd" d="M45.482 6.45795C61.4247 -3.65892 97.9714 -0.860739 111.205 7.76692C124.438 16.3946 115.406 24.5584 126.389 50.8739C137.372 77.1894 165.936 86.2402 152.665 116.33C139.946 142.192 106.089 152.385 69.2517 148.541C29.56 144.519 12.1866 114.21 5.97737 81.3277C-0.709347 38.6437 29.5393 16.5748 45.482 6.45795Z" fill="#D7ECEA"/>
<path d="M12.2086 66.8066C13.0196 66.8066 13.677 66.1492 13.677 65.3383C13.677 64.5273 13.0196 63.8699 12.2086 63.8699C11.3976 63.8699 10.7402 64.5273 10.7402 65.3383C10.7402 66.1492 11.3976 66.8066 12.2086 66.8066Z" stroke="black" stroke-width="0.5"/>
<path fill-rule="evenodd" clip-rule="evenodd" d="M3.37305 132.786V137.96C3.37305 138.988 4.11021 139.867 5.11998 140.043L61.8308 149.936C64.2292 150.355 66.6976 150.046 68.9197 149.048L149.431 112.907C150.189 112.566 150.678 111.81 150.678 110.976V104.667C150.678 104.035 150.213 103.499 149.589 103.411L98.274 96.1783C97.722 96.1005 97.1594 96.1612 96.6364 96.3549L5 130C3.5 130.5 3.37305 131 3.37305 132.786Z" fill="#15171F"/>
<path fill-rule="evenodd" clip-rule="evenodd" d="M5.05255 131.186L96.8124 97.2825C97.5988 96.992 98.4447 96.9019 99.2743 97.0204L147.838 103.958C148.76 104.09 149.401 104.947 149.27 105.872C149.189 106.442 148.824 106.932 148.301 107.172L67.1533 144.4C66.2017 144.836 65.1386 144.966 64.1105 144.772L5.25503 133.624C4.5686 133.494 4.11719 132.83 4.2468 132.141C4.32931 131.703 4.63524 131.34 5.05255 131.186Z" fill="white"/>
<path fill-rule="evenodd" clip-rule="evenodd" d="M7.35547 131.895L97.5366 98.4465L146.881 105.825L66.843 142.485C66.1292 142.812 65.3319 142.909 64.5609 142.763L7.35547 131.895Z" fill="#B5DCD9"/>
<path fill-rule="evenodd" clip-rule="evenodd" d="M99.7979 101.807C98.2172 101.517 96.5863 101.701 95.1087 102.335L86.1231 106.19C86.07 106.213 86.0315 106.261 86.0213 106.319C86.0046 106.414 86.0677 106.503 86.1605 106.519L96.037 108.276C97.6411 108.561 99.2936 108.359 100.783 107.696L109.354 103.882C109.406 103.859 109.443 103.812 109.453 103.755C109.471 103.66 109.408 103.571 109.315 103.554L99.7979 101.807ZM94.9116 101.875C96.4796 101.202 98.2105 101.008 99.8881 101.316L109.406 103.062C109.771 103.129 110.012 103.48 109.945 103.845C109.905 104.063 109.76 104.248 109.557 104.339L100.986 108.153C99.4057 108.857 97.652 109.071 95.9495 108.768L86.0729 107.012C85.7071 106.947 85.4644 106.597 85.5289 106.232L85.7751 106.275L85.5289 106.232C85.5684 106.008 85.7174 105.82 85.9259 105.73L94.9116 101.875Z" fill="white"/>
<path fill-rule="evenodd" clip-rule="evenodd" d="M82.5118 109.421C80.931 109.131 79.3002 109.314 77.8226 109.948L68.8369 113.803C68.7839 113.826 68.7454 113.874 68.7352 113.932C68.7184 114.027 68.7816 114.116 68.8743 114.133L78.7509 115.889C80.355 116.174 82.0075 115.973 83.4967 115.31L92.0678 111.495C92.1195 111.472 92.157 111.425 92.1673 111.368C92.1845 111.274 92.1219 111.184 92.0292 111.167L82.5118 109.421ZM77.6255 109.489C79.1935 108.816 80.9243 108.621 82.602 108.929L92.1194 110.675C92.4849 110.742 92.7257 111.093 92.6592 111.458C92.6193 111.677 92.4742 111.862 92.2711 111.952L83.7 115.767C82.1196 116.47 80.3658 116.684 78.6634 116.381L68.7868 114.625C68.421 114.56 68.1783 114.21 68.2428 113.845C68.2823 113.622 68.4313 113.433 68.6398 113.344L77.6255 109.489Z" fill="white"/>
<path fill-rule="evenodd" clip-rule="evenodd" d="M63.1172 117.034C61.5365 116.744 59.9056 116.928 58.4281 117.562L49.4424 121.417C49.3893 121.44 49.3509 121.488 49.3407 121.546C49.3239 121.64 49.387 121.73 49.4798 121.746L59.3564 123.503C60.9605 123.788 62.613 123.586 64.1022 122.923L72.6733 119.109C72.725 119.086 72.7624 119.039 72.7727 118.982C72.79 118.887 72.7273 118.798 72.6347 118.781L63.1172 117.034ZM58.2309 117.102C59.799 116.429 61.5298 116.235 63.2075 116.543L72.7249 118.289C73.0903 118.356 73.3311 118.707 73.2646 119.072C73.2248 119.29 73.0797 119.475 72.8766 119.566L64.3055 123.38C62.7251 124.084 60.9713 124.298 59.2688 123.995L49.3923 122.239C49.0265 122.173 48.7838 121.824 48.8483 121.459L49.0945 121.502L48.8483 121.459C48.8877 121.235 49.0368 121.047 49.2453 120.957L58.2309 117.102Z" fill="white"/>
<path fill-rule="evenodd" clip-rule="evenodd" d="M120.879 105.614C119.298 105.324 117.667 105.507 116.19 106.141L107.204 109.997C107.151 110.019 107.113 110.068 107.102 110.125C107.086 110.22 107.149 110.31 107.242 110.326L117.118 112.082C118.722 112.368 120.375 112.166 121.864 111.503L130.435 107.689C130.487 107.666 130.524 107.618 130.534 107.562C130.552 107.467 130.489 107.377 130.396 107.36L120.879 105.614ZM115.993 105.682C117.561 105.009 119.292 104.815 120.969 105.122L130.487 106.869C130.852 106.936 131.093 107.287 131.026 107.651C130.987 107.87 130.841 108.055 130.638 108.146L122.067 111.96C120.487 112.663 118.733 112.877 117.031 112.575L107.154 110.818C106.788 110.753 106.545 110.404 106.61 110.038C106.649 109.815 106.799 109.627 107.007 109.537L115.993 105.682Z" fill="white"/>
<path fill-rule="evenodd" clip-rule="evenodd" d="M103.593 113.228C102.012 112.938 100.381 113.121 98.9037 113.755L89.918 117.61C89.8649 117.633 89.8264 117.681 89.8162 117.739C89.7995 117.834 89.8626 117.923 89.9554 117.939L99.832 119.696C101.436 119.981 103.089 119.779 104.578 119.117L113.149 115.302C113.201 115.279 113.238 115.232 113.248 115.175C113.266 115.08 113.203 114.991 113.11 114.974L103.593 113.228ZM98.7065 113.295C100.275 112.623 102.005 112.428 103.683 112.736L113.2 114.482C113.566 114.549 113.807 114.9 113.74 115.265C113.7 115.483 113.555 115.669 113.352 115.759L104.781 119.573C103.201 120.277 101.447 120.491 99.7444 120.188L89.8678 118.432C89.502 118.367 89.2593 118.017 89.3239 117.652L89.5701 117.695L89.3239 117.652C89.3633 117.429 89.5124 117.24 89.7208 117.151L98.7065 113.295Z" fill="white"/>
<path fill-rule="evenodd" clip-rule="evenodd" d="M84.1983 120.841C82.6176 120.551 80.9867 120.734 79.5091 121.368L70.5234 125.223C70.4704 125.246 70.4319 125.294 70.4217 125.352C70.4049 125.447 70.4681 125.536 70.5608 125.553L80.4374 127.309C82.0415 127.594 83.694 127.393 85.1832 126.73L93.7543 122.916C93.806 122.893 93.8435 122.845 93.8538 122.789C93.8711 122.694 93.8084 122.604 93.7157 122.587L84.1983 120.841ZM79.312 120.909C80.88 120.236 82.6109 120.041 84.2885 120.349L93.806 122.095C94.1714 122.162 94.4122 122.513 94.3457 122.878C94.3058 123.097 94.1607 123.282 93.9576 123.372L85.3865 127.187C83.8061 127.89 82.0523 128.104 80.3499 127.801L70.4733 126.045C70.1075 125.98 69.8648 125.63 69.9293 125.265L70.1755 125.309L69.9293 125.265C69.9688 125.042 70.1178 124.853 70.3263 124.764L79.312 120.909Z" fill="white"/>
<path fill-rule="evenodd" clip-rule="evenodd" d="M67.2754 9.31625L138.383 14.8065C140.14 14.9422 141.497 16.4122 141.497 18.1803V34.7747C141.497 36.6435 139.987 38.1585 138.124 38.1585C138.006 38.1585 137.889 38.1523 137.772 38.14L66.664 30.6423C64.9471 30.4613 63.6436 29.0089 63.6436 27.2771V12.69C63.6436 10.8212 65.1537 9.30627 67.0165 9.30627C67.1029 9.30627 67.1892 9.3096 67.2754 9.31625Z" fill="white"/>
<path fill-rule="evenodd" clip-rule="evenodd" d="M67.0165 9.55627C65.2925 9.55627 63.8936 10.9586 63.8936 12.69V27.2771C63.8936 28.8817 65.1011 30.2261 66.6902 30.3937L137.798 37.8913C137.906 37.9028 138.015 37.9085 138.124 37.9085C139.848 37.9085 141.247 36.5062 141.247 34.7747V18.1803C141.247 16.5422 139.99 15.1814 138.364 15.0558L67.2561 9.56551C67.1764 9.55936 67.0965 9.55627 67.0165 9.55627ZM63.3936 12.69C63.3936 10.6839 65.0149 9.05627 67.0165 9.05627C67.1093 9.05627 67.2021 9.05985 67.2946 9.06699L138.402 14.5573C140.29 14.703 141.747 16.2823 141.747 18.1803V34.7747C141.747 36.7809 140.126 38.4085 138.124 38.4085C137.998 38.4085 137.871 38.4018 137.745 38.3886L66.6377 30.8909C64.793 30.6964 63.3936 29.1362 63.3936 27.2771V12.69Z" fill="#15171F"/>
<path d="M75.5 28C79.6421 28 83 24.6421 83 20.5C83 16.3579 79.6421 13 75.5 13C71.3579 13 68 16.3579 68 20.5C68 24.6421 71.3579 28 75.5 28Z" fill="#B5DCD9"/>
<path fill-rule="evenodd" clip-rule="evenodd" d="M134.705 21.7645L90.208 18.2502L90.2867 17.2533L134.783 20.7676L134.705 21.7645Z" fill="#51ADA6"/>
<path fill-rule="evenodd" clip-rule="evenodd" d="M116.101 25.3597L90.208 23.3258L90.2863 22.3289L116.18 24.3628L116.101 25.3597Z" fill="#51ADA6"/>
<path fill-rule="evenodd" clip-rule="evenodd" d="M116.101 29.5895L90.208 27.5555L90.2863 26.5586L116.18 28.5925L116.101 29.5895Z" fill="#51ADA6"/>
<path fill-rule="evenodd" clip-rule="evenodd" d="M67.2754 39.193L138.383 44.6832C140.14 44.8189 141.497 46.2889 141.497 48.057V64.6514C141.497 66.5202 139.987 68.0352 138.124 68.0352C138.006 68.0352 137.889 68.029 137.772 68.0167L66.664 60.519C64.9471 60.338 63.6436 58.8856 63.6436 57.1538V42.5667C63.6436 40.6979 65.1537 39.183 67.0165 39.183C67.1029 39.183 67.1892 39.1863 67.2754 39.193Z" fill="white"/>
<path fill-rule="evenodd" clip-rule="evenodd" d="M67.0165 39.433C65.2925 39.433 63.8936 40.8353 63.8936 42.5667V57.1538C63.8936 58.7584 65.1011 60.1028 66.6902 60.2704L137.798 67.768C137.906 67.7795 138.015 67.7852 138.124 67.7852C139.848 67.7852 141.247 66.3829 141.247 64.6514V48.057C141.247 46.4189 139.99 45.0581 138.364 44.9325L67.2561 39.4422C67.1764 39.4361 67.0965 39.433 67.0165 39.433ZM63.3936 42.5667C63.3936 40.5606 65.0149 38.933 67.0165 38.933C67.1093 38.933 67.2021 38.9366 67.2946 38.9437L138.402 44.434C140.29 44.5798 141.747 46.159 141.747 48.057V64.6514C141.747 66.6576 140.126 68.2852 138.124 68.2852C137.998 68.2852 137.871 68.2786 137.745 68.2653L66.6377 60.7676C64.793 60.5731 63.3936 59.0129 63.3936 57.1538V42.5667Z" fill="#15171F"/>
<path d="M75.5 58C79.6421 58 83 54.6421 83 50.5C83 46.3579 79.6421 43 75.5 43C71.3579 43 68 46.3579 68 50.5C68 54.6421 71.3579 58 75.5 58Z" fill="#B5DCD9"/>
<path fill-rule="evenodd" clip-rule="evenodd" d="M134.705 51.6412L90.208 48.1269L90.2867 47.13L134.783 50.6443L134.705 51.6412Z" fill="#51ADA6"/>
<path fill-rule="evenodd" clip-rule="evenodd" d="M116.101 55.2364L90.208 53.2025L90.2863 52.2056L116.18 54.2395L116.101 55.2364Z" fill="#51ADA6"/>
<path fill-rule="evenodd" clip-rule="evenodd" d="M116.101 59.4662L90.208 57.4322L90.2863 56.4353L116.18 58.4692L116.101 59.4662Z" fill="#51ADA6"/>
<path fill-rule="evenodd" clip-rule="evenodd" d="M67.8353 68.0115L138.943 76.465C140.64 76.6668 141.919 78.1105 141.919 79.8253V96.2061C141.919 98.0749 140.409 99.5898 138.546 99.5898C138.387 99.5898 138.228 99.5785 138.07 99.556L66.9622 89.3828C65.3001 89.145 64.0654 87.7171 64.0654 86.0329V71.3718C64.0654 69.503 65.5756 67.988 67.4384 67.988C67.5711 67.988 67.7036 67.9959 67.8353 68.0115Z" fill="white"/>
<path fill-rule="evenodd" clip-rule="evenodd" d="M67.4384 68.238C65.7144 68.238 64.3154 69.6403 64.3154 71.3718V86.0329C64.3154 87.5933 65.4593 88.9152 66.9976 89.1353L138.105 99.3085C138.251 99.3294 138.399 99.3398 138.546 99.3398C140.27 99.3398 141.669 97.9376 141.669 96.2061V79.8253C141.669 78.2365 140.485 76.9001 138.914 76.7133L67.8058 68.2598C67.6839 68.2453 67.5612 68.238 67.4384 68.238ZM63.8154 71.3718C63.8154 69.3657 65.4367 67.738 67.4384 67.738C67.5809 67.738 67.7233 67.7465 67.8648 67.7633L138.973 76.2168C140.796 76.4336 142.169 77.9845 142.169 79.8253V96.2061C142.169 98.2122 140.548 99.8399 138.546 99.8399C138.375 99.8399 138.204 99.8277 138.035 99.8034L66.9268 89.6302C65.141 89.3748 63.8154 87.8409 63.8154 86.0329V71.3718Z" fill="#15171F"/>
<path d="M75.5 87C79.6421 87 83 83.6421 83 79.5C83 75.3579 79.6421 72 75.5 72C71.3579 72 68 75.3579 68 79.5C68 83.6421 71.3579 87 75.5 87Z" fill="#B5DCD9"/>
<path fill-rule="evenodd" clip-rule="evenodd" d="M134.679 83.6535L90.1826 77.7788L90.3135 76.7874L134.81 82.6621L134.679 83.6535Z" fill="#51ADA6"/>
<path fill-rule="evenodd" clip-rule="evenodd" d="M116.084 85.6884L90.1904 82.6993L90.3051 81.7059L116.198 84.695L116.084 85.6884Z" fill="#51ADA6"/>
<path fill-rule="evenodd" clip-rule="evenodd" d="M116.083 89.918L90.1895 86.8712L90.3063 85.8781L116.2 88.9249L116.083 89.918Z" fill="#51ADA6"/>
<path fill-rule="evenodd" clip-rule="evenodd" d="M50.1816 125.279L50.8011 120.599H53.4123V125.279H50.1816Z" fill="white"/>
<path fill-rule="evenodd" clip-rule="evenodd" d="M50.5821 120.349H53.6624V125.529H49.8965L50.5821 120.349ZM51.0203 120.849L50.467 125.029H53.1624V120.849H51.0203Z" fill="#15171F"/>
<path fill-rule="evenodd" clip-rule="evenodd" d="M42.6099 84.9229C42.5091 87.9393 41.7263 92.3736 40.2615 98.2256C39.4866 101.322 37.963 104.368 37.0962 107.379C36.5818 109.165 36.1113 111.881 35.6846 115.526C36.6052 115.576 37.2988 115.746 37.7651 116.035C38.2315 116.325 38.7313 116.931 39.2643 117.853C43.3464 114.9 45.7884 111.568 46.5902 107.857C47.3921 104.146 48.1437 99.7088 48.8452 94.5454C48.8452 100.702 48.8452 106.233 48.8452 111.138C48.8452 116.044 49.4285 119.558 50.5952 121.681H53.7375C56.2058 115.246 57.8616 110.191 58.7048 106.516C59.9697 101.004 60.3966 98.4134 60.1397 93.7825C59.9684 90.6953 59.2857 87.7421 58.0915 84.9229H42.6099Z" fill="#15171F"/>
<path fill-rule="evenodd" clip-rule="evenodd" d="M35.7969 115.02L34.6191 117.868L36.9152 119.842L39.5727 117.231L35.7969 115.02Z" fill="white"/>
<path fill-rule="evenodd" clip-rule="evenodd" d="M35.6759 114.659L39.9813 117.18L36.9269 120.181L34.3193 117.94L35.6759 114.659ZM35.9186 115.38L34.9196 117.796L36.9043 119.502L39.1648 117.281L35.9186 115.38Z" fill="#15171F"/>
<path fill-rule="evenodd" clip-rule="evenodd" d="M35.2001 81.6477C35.2001 81.8726 34.8994 82.5865 34.2978 83.7894C33.3955 85.5938 32.5503 84.8051 31.9841 86.842C31.5476 88.1677 31.9045 89.399 32.7019 89.399C33.004 89.399 33.4735 88.9914 33.8716 88.4603C34.5243 87.5895 35.1115 86.4045 35.3913 86.2703C35.6917 86.1263 35.8577 86.7217 35.8892 88.0565C36.2787 87.8555 36.5958 87.2601 36.8406 86.2703C37.0854 85.2805 37.2267 83.9197 37.2646 82.1879C37.3141 81.9602 37.2152 81.7802 36.9677 81.6477C36.7203 81.5152 36.1311 81.5152 35.2001 81.6477Z" fill="white"/>
<path fill-rule="evenodd" clip-rule="evenodd" d="M36.3402 81.2983C36.6402 81.2983 36.9036 81.3298 37.0857 81.4273C37.237 81.5083 37.3667 81.6163 37.4466 81.7617C37.5248 81.9039 37.5429 82.0595 37.5141 82.2153C37.4753 83.9443 37.3334 85.3188 37.0833 86.3303C36.9582 86.8362 36.8117 87.2541 36.6398 87.5767C36.4694 87.8967 36.2621 88.1454 36.0039 88.2786L35.6488 88.4619L35.6393 88.0624C35.6236 87.3975 35.5743 86.9416 35.5003 86.6759C35.4832 86.6145 35.4667 86.5707 35.4528 86.5404C35.4191 86.5766 35.3781 86.6274 35.3297 86.6939C35.231 86.8293 35.1153 87.0101 34.9833 87.2215C34.9472 87.2793 34.91 87.3393 34.8718 87.4009C34.6349 87.7825 34.3597 88.226 34.0716 88.6102C33.8639 88.8874 33.6336 89.1379 33.4095 89.322C33.2974 89.414 33.1823 89.4932 33.0683 89.5504C32.9564 89.6066 32.8308 89.649 32.7019 89.649C32.1424 89.649 31.7888 89.211 31.6398 88.6859C31.4895 88.156 31.5161 87.4672 31.7448 86.7695C31.8913 86.2443 32.0603 85.884 32.2546 85.6136C32.4511 85.3402 32.6637 85.1727 32.8693 85.0253C32.9053 84.9995 32.9407 84.9746 32.9756 84.95C33.1417 84.8329 33.2969 84.7234 33.4599 84.563C33.6531 84.3728 33.8595 84.1069 34.0742 83.6776C34.3741 83.078 34.5969 82.6044 34.7442 82.2547C34.8179 82.0797 34.8712 81.9393 34.9057 81.8318C34.9425 81.7169 34.9501 81.662 34.9501 81.6477V81.4307L35.1649 81.4002C35.6361 81.3331 36.0291 81.2983 36.3402 81.2983ZM35.4153 81.8707C35.4054 81.9081 35.3941 81.9461 35.3818 81.9843C35.3411 82.1115 35.2816 82.2669 35.2049 82.4489C35.0515 82.8131 34.8231 83.2979 34.5214 83.9012C34.285 84.3741 34.0474 84.6863 33.8107 84.9193C33.6159 85.111 33.4231 85.2466 33.2556 85.3644C33.2229 85.3874 33.1912 85.4098 33.1606 85.4317C32.9713 85.5673 32.8101 85.6973 32.6607 85.9053C32.5098 86.1154 32.3613 86.4187 32.225 86.909L32.2219 86.9203L32.2216 86.9202C32.0155 87.5462 32.0029 88.1336 32.1208 88.5494C32.2405 88.9713 32.4641 89.149 32.7019 89.149C32.7242 89.149 32.7705 89.1404 32.8441 89.1035C32.9155 89.0677 32.9993 89.0119 33.0921 88.9356C33.2778 88.7831 33.4812 88.5642 33.6716 88.3103C33.9452 87.9452 34.2074 87.523 34.4451 87.1401C34.4838 87.0778 34.5219 87.0165 34.5592 86.9567C34.6906 86.7462 34.815 86.5512 34.9255 86.3994C34.9809 86.3235 35.0362 86.2536 35.0903 86.196C35.1409 86.1422 35.2061 86.0819 35.2833 86.0449C35.3554 86.0103 35.4419 85.9895 35.5355 86.0038C35.6298 86.0182 35.7066 86.0645 35.7653 86.1213C35.8732 86.2257 35.9375 86.3824 35.9819 86.5417C36.0459 86.7713 36.0894 87.0879 36.1152 87.4852C36.1429 87.4417 36.1707 87.394 36.1985 87.3417C36.3438 87.0689 36.4782 86.6943 36.5979 86.2103C36.8363 85.2464 36.9769 83.9066 37.0147 82.1824L37.0152 82.1583L37.0203 82.1347C37.0341 82.0715 37.0249 82.0325 37.0084 82.0025C36.9894 81.9678 36.9459 81.9196 36.8497 81.8681C36.7844 81.8331 36.6295 81.7983 36.3402 81.7983C36.0995 81.7983 35.792 81.8219 35.4153 81.8707Z" fill="#15171F"/>
<path fill-rule="evenodd" clip-rule="evenodd" d="M65.7352 66.4873C65.3656 65.0366 65.3656 63.7542 65.7352 62.64C66.1048 61.5259 66.8561 60.7156 67.9891 60.2091C68.8527 58.9376 69.3628 58.3558 69.5196 58.4636C69.7548 58.6252 68.9893 60.0909 69.0776 60.9571C69.1286 61.4571 70.2273 61.4564 70.0827 62.122C69.8558 63.1671 68.7681 64.0159 68.1753 64.9344C67.8827 65.3878 67.6016 65.9055 67.3322 66.4873H65.7352Z" fill="white"/>
<path fill-rule="evenodd" clip-rule="evenodd" d="M69.2074 58.984C68.9628 59.2629 68.6264 59.7158 68.1959 60.3496L68.156 60.4083L68.0911 60.4373C67.0181 60.917 66.3186 61.6754 65.9725 62.7188C65.6372 63.7295 65.6176 64.8992 65.9314 66.2374H67.1733C67.4262 65.705 67.69 65.2253 67.9652 64.7989C68.1825 64.4622 68.4691 64.1276 68.7448 63.8059C68.8578 63.674 68.9689 63.5443 69.0727 63.4174C69.4442 62.9633 69.7385 62.5292 69.8384 62.069C69.8576 61.9808 69.8379 61.9335 69.8009 61.8885C69.7506 61.8275 69.6639 61.769 69.5324 61.6962C69.5087 61.6831 69.4829 61.6692 69.4558 61.6546C69.3513 61.5984 69.2269 61.5315 69.1268 61.4567C68.9949 61.3582 68.8519 61.2088 68.8289 60.9825C68.8029 60.7276 68.8403 60.4438 68.8979 60.1728C68.9561 59.8993 69.0391 59.6205 69.1145 59.3732C69.1226 59.3467 69.1306 59.3207 69.1384 59.2951C69.1781 59.1655 69.214 59.0478 69.2432 58.9436C69.2316 58.9565 69.2196 58.97 69.2074 58.984ZM69.3805 58.2138C69.4568 58.1937 69.5633 58.1903 69.6612 58.2576C69.7944 58.3491 69.8121 58.499 69.8144 58.574C69.8171 58.662 69.8017 58.7595 69.7818 58.8521C69.7461 59.0183 69.6826 59.2257 69.6172 59.4391C69.6091 59.4657 69.6009 59.4924 69.5928 59.5191C69.5173 59.7667 69.4402 60.0268 69.387 60.2768C69.3333 60.5294 69.3081 60.7536 69.3263 60.9318C69.3287 60.9555 69.3422 60.9935 69.4261 61.0562C69.4936 61.1066 69.5727 61.1493 69.6707 61.2022C69.7032 61.2197 69.7377 61.2383 69.7745 61.2587C69.906 61.3315 70.0701 61.4289 70.1868 61.5706C70.3167 61.7283 70.3802 61.9305 70.3271 62.1751C70.2 62.76 69.837 63.2728 69.4597 63.734C69.3388 63.8818 69.2175 64.0233 69.0992 64.1613C68.8339 64.4708 68.5834 64.7631 68.3853 65.07C68.1001 65.512 67.8245 66.0192 67.559 66.5924L67.4919 66.7374H65.5409L65.4929 66.5491C65.1148 65.0647 65.1096 63.7318 65.4979 62.5614C65.8838 61.3981 66.6648 60.5459 67.8218 60.0105C68.2368 59.4021 68.574 58.948 68.8314 58.6543C68.9626 58.5048 69.0834 58.3848 69.1909 58.3083C69.244 58.2706 69.3084 58.2328 69.3805 58.2138Z" fill="#15171F"/>
<path fill-rule="evenodd" clip-rule="evenodd" d="M47.9475 58.4349C43.8523 58.6459 42.9243 58.3079 40.0101 61.1094C38.0673 62.9771 36.2703 69.8993 34.6191 81.8761C35.4561 81.7469 36.0523 81.7469 36.4077 81.8761C36.763 82.0052 37.2154 82.3864 37.7649 83.0195L44.0796 65.6331C43.8 71.1961 43.4359 75.2197 42.9872 77.7041C42.5385 80.1885 41.7413 82.5948 40.5957 84.9229C44.5744 86.8805 47.7697 87.9204 50.1816 88.0428C52.5934 88.1652 56.0632 87.4633 60.5908 85.9373L57.6121 74.2223C61.1209 78.5362 63.7138 80.4759 65.3909 80.0413C67.068 79.6067 68.0316 75.0054 68.2817 66.2375C67.5081 66.3155 66.8982 66.3155 66.452 66.2375C66.0057 66.1595 65.4631 65.958 64.8241 65.6331L63.4212 70.2478C61.8072 65.4165 59.8709 62.0983 57.6121 60.2931C54.224 57.5853 52.0428 58.224 47.9475 58.4349Z" fill="#51ADA6"/>
<path fill-rule="evenodd" clip-rule="evenodd" d="M58.2594 49.2225C59.4132 48.5546 59.9001 47.8845 59.7202 47.2123C59.0218 45.3244 55.9415 40.503 51.4508 42.45C44.0171 45.4971 48.0877 50.2807 43.5692 54.4691C40.8446 56.2719 36.4488 55.247 34.1153 60.3406C33.2297 63.2754 33.9299 67.7499 38.2134 70.0736C42.7519 71.8504 45.886 74.0638 49.7357 70.0736C52.3022 67.4134 53.7276 62.6613 54.0121 55.8173L58.2594 49.2225Z" fill="#15171F"/>
<path fill-rule="evenodd" clip-rule="evenodd" d="M58.259 49.2224C58.259 50.9443 58.259 52.3542 58.259 53.4521C58.259 53.7186 57.7727 53.2735 57.7727 53.9911C57.7727 54.4694 57.4968 55.0782 56.9452 55.8173H54.0117L54.2046 51.626C55.113 51.8094 55.5672 51.8094 55.5672 51.626C55.5672 51.3509 54.7111 50.5817 54.7111 50.2394C54.7111 49.8971 55.4407 50.4927 55.8782 50.2394C56.3157 49.9861 55.8337 49.4775 56.5713 49.1624C57.063 48.9523 57.6256 48.9723 58.259 49.2224Z" fill="white"/>
<path fill-rule="evenodd" clip-rule="evenodd" d="M58.0091 49.3971C57.4888 49.2223 57.0476 49.2308 56.6695 49.3923C56.5171 49.4574 56.452 49.5218 56.42 49.5688C56.3871 49.617 56.3713 49.6723 56.3601 49.7571C56.3582 49.7713 56.3563 49.789 56.3541 49.8091C56.3462 49.8839 56.3346 49.9927 56.3058 50.0839C56.2608 50.2263 56.1715 50.3585 56.0035 50.4558C55.8295 50.5565 55.6405 50.5645 55.4829 50.5465C55.3324 50.5293 55.1848 50.485 55.0698 50.449C55.1408 50.5559 55.2342 50.6755 55.335 50.8024C55.3465 50.817 55.3582 50.8317 55.37 50.8465C55.464 50.9646 55.5625 51.0884 55.6392 51.1993C55.6826 51.2621 55.724 51.3278 55.7552 51.392C55.784 51.4511 55.8173 51.5344 55.8173 51.626C55.8173 51.7053 55.7911 51.782 55.7388 51.8454C55.6901 51.9044 55.629 51.9395 55.5757 51.961C55.4737 52.0022 55.3496 52.0136 55.2266 52.0136C55.0288 52.0136 54.7652 51.9829 54.4411 51.9255L54.2735 55.5673H56.8187C57.3109 54.8867 57.5227 54.3663 57.5227 53.9911C57.5227 53.792 57.5549 53.622 57.6458 53.4956C57.7482 53.3534 57.8891 53.3136 57.9919 53.3036C57.9977 53.3031 58.0034 53.3026 58.0091 53.3022V49.3971ZM56.4731 48.9325C57.0408 48.69 57.6738 48.7226 58.3509 48.9899L58.5091 49.0524V53.4521C58.5091 53.5209 58.4934 53.6127 58.4238 53.6899C58.3555 53.7656 58.2706 53.7874 58.2208 53.795C58.1761 53.8018 58.1303 53.8011 58.1055 53.8006C58.104 53.8006 58.1026 53.8006 58.1012 53.8006C58.0739 53.8001 58.0583 53.8 58.0456 53.8009C58.0431 53.8074 58.0401 53.8168 58.0371 53.8296C58.0293 53.863 58.0227 53.9146 58.0227 53.9911C58.0227 54.5543 57.704 55.2186 57.1456 55.9668L57.0706 56.0673H53.75L53.9683 51.3233L54.2541 51.381C54.7052 51.472 55.0256 51.5136 55.2266 51.5136C55.2341 51.5136 55.2412 51.5135 55.2481 51.5134C55.2417 51.5039 55.235 51.4939 55.2279 51.4836C55.1615 51.3875 55.0744 51.2781 54.9782 51.1571C54.9667 51.1427 54.9551 51.1281 54.9434 51.1134C54.8374 50.9798 54.7227 50.8337 54.6348 50.6972C54.5905 50.6286 54.5492 50.5566 54.5183 50.4849C54.4885 50.4157 54.4611 50.3304 54.4611 50.2394C54.4611 50.1551 54.4845 50.04 54.5853 49.9578C54.6773 49.8828 54.7836 49.8779 54.8444 49.8809C54.9098 49.8842 54.9759 49.8996 55.0307 49.9146C55.0796 49.9279 55.1327 49.9446 55.1828 49.9604C55.1904 49.9628 55.198 49.9652 55.2055 49.9675C55.3258 50.0053 55.4367 50.038 55.5398 50.0497C55.642 50.0614 55.7083 50.0489 55.753 50.0231C55.8038 49.9937 55.8182 49.9673 55.829 49.9333C55.8416 49.8934 55.8454 49.8581 55.8515 49.8011C55.8546 49.7715 55.8584 49.7361 55.8644 49.6911C55.8795 49.5777 55.9089 49.4309 56.0068 49.2872C56.1055 49.1423 56.2568 49.0249 56.4731 48.9325Z" fill="#15171F"/>
<path fill-rule="evenodd" clip-rule="evenodd" d="M50.1815 124.327C49.7144 126.079 49.4513 127.131 49.3921 127.482C49.3329 127.833 49.3329 128.301 49.3921 128.885L60.6611 129.422C61.504 128.979 61.2618 128.333 59.9346 127.482C58.6074 126.631 56.5216 125.678 53.6771 124.623C52.8358 124.992 52.209 125.159 51.7968 125.124C51.3846 125.089 50.8461 124.823 50.1815 124.327Z" fill="white"/>
<path fill-rule="evenodd" clip-rule="evenodd" d="M50.0351 123.905L50.3311 124.126C50.9892 124.618 51.4797 124.846 51.8179 124.875C52.1619 124.904 52.7376 124.762 53.5767 124.394L53.6693 124.353L53.7641 124.388C56.613 125.445 58.7192 126.406 60.0695 127.272C60.4093 127.489 60.6875 127.699 60.8991 127.901C61.1086 128.101 61.2666 128.306 61.3457 128.517C61.4287 128.739 61.4232 128.965 61.3087 129.172C61.2005 129.368 61.0099 129.521 60.7773 129.643L60.7171 129.674L49.1651 129.124L49.1433 128.91C49.0831 128.316 49.081 127.823 49.1455 127.441C49.2072 127.075 49.4744 126.009 49.9399 124.262L50.0351 123.905ZM50.3302 124.74C49.92 126.288 49.6915 127.21 49.6386 127.524C49.5916 127.802 49.584 128.174 49.6214 128.645L60.6026 129.168C60.7536 129.081 60.8335 128.999 60.8709 128.931C60.9066 128.866 60.9156 128.795 60.8775 128.693C60.8356 128.581 60.7369 128.437 60.554 128.263C60.3733 128.09 60.1235 127.9 59.7997 127.693C58.5101 126.866 56.4759 125.932 53.6843 124.892C52.8839 125.236 52.2383 125.412 51.7757 125.373C51.363 125.338 50.878 125.114 50.3302 124.74Z" fill="#15171F"/>
<path fill-rule="evenodd" clip-rule="evenodd" d="M50.1815 123.481C49.7144 125.233 49.4513 126.285 49.3921 126.636C49.3329 126.987 49.3329 127.455 49.3921 128.039L60.6611 128.576C61.4908 128.446 61.2421 127.956 59.9149 127.105C58.5877 126.255 56.5084 125.145 53.6771 123.777C52.8358 124.146 52.209 124.313 51.7968 124.278C51.3846 124.243 50.8461 123.977 50.1815 123.481Z" fill="#51ADA6"/>
<path fill-rule="evenodd" clip-rule="evenodd" d="M50.0351 123.059L50.3311 123.28C50.9892 123.772 51.4797 124 51.8179 124.029C52.1619 124.058 52.7376 123.916 53.5767 123.548L53.6822 123.502L53.7859 123.552C56.6192 124.921 58.7095 126.036 60.0498 126.895C60.3867 127.111 60.6613 127.308 60.8701 127.486C61.074 127.659 61.2346 127.83 61.3198 127.998C61.3636 128.084 61.3948 128.184 61.3892 128.291C61.3834 128.404 61.3376 128.503 61.2635 128.582C61.1301 128.724 60.9166 128.789 60.6996 128.823L60.6746 128.827L49.1651 128.278L49.1433 128.064C49.0831 127.47 49.081 126.978 49.1455 126.595C49.2072 126.229 49.4744 125.163 49.9399 123.416L50.0351 123.059ZM50.3302 123.895C49.92 125.442 49.6915 126.364 49.6386 126.678C49.5916 126.956 49.584 127.328 49.6214 127.799L60.6468 128.325C60.7901 128.3 60.8581 128.268 60.8855 128.251C60.8831 128.244 60.8795 128.235 60.8739 128.224C60.8347 128.147 60.7361 128.028 60.5461 127.866C60.3608 127.709 60.1066 127.525 59.7799 127.316C58.4818 126.484 56.4479 125.396 53.6714 124.052C52.8769 124.392 52.2358 124.566 51.7757 124.527C51.363 124.492 50.878 124.268 50.3302 123.895Z" fill="#15171F"/>
<path fill-rule="evenodd" clip-rule="evenodd" d="M37.7646 127.595C37.4359 125.47 37.2715 123.918 37.2715 122.939C37.2715 121.96 37.4359 120.775 37.7646 119.382C37.0275 119.047 36.5012 118.757 36.1857 118.514C35.8702 118.27 35.4672 117.843 34.9766 117.231C33.2104 117.907 32.3401 119.217 32.3658 121.161C32.3915 123.105 33.3043 125.009 35.1043 126.874L37.7646 127.595Z" fill="#51ADA6"/>
<path fill-rule="evenodd" clip-rule="evenodd" d="M35.0576 116.932L35.1717 117.074C35.6593 117.683 36.0473 118.091 36.3384 118.316C36.63 118.541 37.1344 118.821 37.8681 119.155L38.0551 119.24L38.0079 119.44C37.6818 120.821 37.5215 121.986 37.5215 122.939C37.5215 123.897 37.6831 125.433 38.0116 127.556L38.0704 127.937L34.9723 127.097L34.9244 127.048C33.0953 125.153 32.1426 123.191 32.1158 121.164C32.1024 120.154 32.322 119.288 32.791 118.582C33.2603 117.876 33.9656 117.35 34.8873 116.997L35.0576 116.932ZM33.2074 118.859C32.8061 119.463 32.6034 120.224 32.6158 121.158C32.6402 123.002 33.4977 124.832 35.2365 126.651L37.4596 127.253C37.169 125.319 37.0215 123.878 37.0215 122.939C37.0215 121.982 37.1743 120.843 37.475 119.524C36.8281 119.222 36.3432 118.951 36.0329 118.712C35.7203 118.471 35.3414 118.073 34.8985 117.532C34.1398 117.851 33.5814 118.296 33.2074 118.859Z" fill="#15171F"/>
<path fill-rule="evenodd" clip-rule="evenodd" d="M34.4855 119.539C35.4705 120.842 34.1155 120.966 35.0523 123.777C35.989 126.587 37.7651 125.366 37.7651 127.595C37.7651 129.823 36.5341 129.823 35.349 129.422C34.1639 129.02 33.0065 127.185 32.2736 125.279C31.5407 123.374 31.2412 122.029 31.674 120.599C32.1068 119.168 33.5005 118.237 34.4855 119.539Z" fill="white"/>
<path fill-rule="evenodd" clip-rule="evenodd" d="M32.9796 119.27C32.5345 119.481 32.1153 120.003 31.9133 120.671C31.506 122.017 31.7776 123.293 32.5069 125.189C32.8679 126.128 33.3315 127.044 33.8457 127.77C34.3658 128.504 34.913 129.01 35.4292 129.185C36.0167 129.384 36.5319 129.45 36.8894 129.271C37.2169 129.107 37.515 128.676 37.515 127.595C37.515 127.07 37.4108 126.788 37.2725 126.603C37.1274 126.408 36.9242 126.288 36.6347 126.12C36.3537 125.958 36.0152 125.762 35.6896 125.417C35.3626 125.071 35.0589 124.587 34.8151 123.856C34.3309 122.403 34.4365 121.626 34.5409 121.048C34.5446 121.028 34.5483 121.008 34.5518 120.988C34.5979 120.735 34.6291 120.564 34.6093 120.383C34.5894 120.201 34.5136 119.991 34.286 119.69C34.0657 119.399 33.838 119.252 33.6271 119.196C33.4169 119.14 33.1976 119.167 32.9796 119.27ZM33.7559 118.712C34.0969 118.803 34.4127 119.029 34.6849 119.389C34.9499 119.739 35.074 120.033 35.1063 120.329C35.1344 120.585 35.0896 120.829 35.0462 121.065C35.0417 121.089 35.0373 121.113 35.033 121.137C34.9403 121.65 34.8368 122.34 35.2894 123.698C35.514 124.371 35.7836 124.789 36.053 125.074C36.3239 125.36 36.605 125.525 36.8851 125.687C36.8932 125.692 36.9014 125.697 36.9096 125.702C37.1746 125.855 37.4626 126.021 37.6733 126.304C37.8972 126.604 38.015 127.005 38.015 127.595C38.015 128.742 37.6977 129.425 37.1134 129.718C36.5591 129.996 35.8663 129.861 35.2687 129.658C34.5998 129.432 33.9758 128.819 33.4377 128.059C32.8937 127.291 32.4122 126.336 32.0403 125.369C31.3037 123.454 30.9763 122.042 31.4347 120.526C31.6655 119.763 32.1595 119.105 32.7657 118.818C33.0734 118.672 33.4142 118.621 33.7559 118.712Z" fill="#15171F"/>
<path fill-rule="evenodd" clip-rule="evenodd" d="M28.6604 33.356C31.3218 30.3149 36.0277 26.4777 42.7597 21.8463L43.0419 22.259C36.3164 26.8858 31.6538 30.6941 29.0356 33.6859C26.4198 36.6748 23.7142 41.2838 20.9226 47.5287L20.467 47.3244C23.2667 41.0613 25.9965 36.3999 28.6604 33.356Z" fill="#15171F"/>
<path fill-rule="evenodd" clip-rule="evenodd" d="M25.178 31.5365C27.8394 28.4954 32.5453 24.6582 39.2773 20.0268L39.5595 20.4395C32.834 25.0664 28.1714 28.8747 25.5532 31.8664C22.9374 34.8553 20.2318 39.4643 17.4402 45.7092L16.9846 45.505C19.7843 39.2418 22.5141 34.5804 25.178 31.5365Z" fill="#15171F"/>
<path fill-rule="evenodd" clip-rule="evenodd" d="M17.7915 79.3823L17.6143 78.1414L18.6042 78L18.7815 79.2409L17.7915 79.3823Z" fill="black"/>
<path fill-rule="evenodd" clip-rule="evenodd" d="M17.3823 81.1361L16.1414 81.3134L16 80.3234L17.2409 80.1461L17.3823 81.1361Z" fill="black"/>
<path fill-rule="evenodd" clip-rule="evenodd" d="M18.3238 82.9277L18.1465 81.6868L19.1364 81.5454L19.3137 82.7863L18.3238 82.9277Z" fill="black"/>
<path fill-rule="evenodd" clip-rule="evenodd" d="M20.9272 80.6043L19.6863 80.7816L19.5449 79.7917L20.7858 79.6144L20.9272 80.6043Z" fill="black"/>
<path fill-rule="evenodd" clip-rule="evenodd" d="M124.792 131.382L124.614 130.141L125.604 130L125.781 131.241L124.792 131.382Z" fill="black"/>
<path fill-rule="evenodd" clip-rule="evenodd" d="M124.382 133.136L123.141 133.313L123 132.323L124.241 132.146L124.382 133.136Z" fill="black"/>
<path fill-rule="evenodd" clip-rule="evenodd" d="M125.324 134.928L125.146 133.687L126.136 133.545L126.314 134.786L125.324 134.928Z" fill="black"/>
<path fill-rule="evenodd" clip-rule="evenodd" d="M127.927 132.604L126.686 132.782L126.545 131.792L127.786 131.614L127.927 132.604Z" fill="black"/>
</g>
<defs>
<clipPath id="clip0">
<rect width="156" height="151" fill="white"/>
</clipPath>
</defs>
</svg>
