<svg width="81" height="40" viewBox="0 0 81 40" fill="none" xmlns="http://www.w3.org/2000/svg">
<path d="M57.8012 1.51245C55.8957 0.307548 53.6306 -0.128577 51.2267 0.0320029C44.1193 0.501875 35.7729 6.16449 31.7368 12.5545C26.335 21.1083 28.0689 31.9015 35.6103 36.6625C37.8207 38.0587 40.2846 38.7755 42.8001 38.8841C48.8632 39.1427 55.2219 35.8375 59.0406 29.7927C64.4406 21.2409 65.3421 6.27026 57.8012 1.51245Z" fill="url(#paint0_radial)"/>
<path d="M37.4977 0.123888C37.2017 0.124894 36.9031 0.135574 36.6023 0.155508C29.4934 0.625751 21.1477 6.28936 17.1136 12.6784C11.7105 21.2312 13.4449 32.0236 20.9862 36.7878C23.1965 38.1821 25.6607 38.9001 28.1748 39.0058C30.696 39.1145 33.2371 38.6747 35.6564 37.6103C23.6461 31.3384 26.4848 17.8655 30.1676 12.5278C33.0155 8.01699 38.1685 3.77883 43.2711 1.69435C43.2407 1.67462 43.2105 1.65461 43.1797 1.63522C41.5115 0.5819 39.5693 0.116851 37.4977 0.123888Z" fill="url(#paint1_radial)"/>
<path d="M23.5987 0.243358C16.2963 0.228926 7.36155 6.11629 3.14348 12.7982C-2.25853 21.352 -0.525624 32.1434 7.01677 36.9069C11.3561 39.6467 16.6736 39.7909 21.4357 37.7883C20.8028 37.508 20.1844 37.1791 19.5845 36.8004C12.0432 32.0366 10.3121 21.2455 15.7112 12.6917C18.6203 8.08442 23.7713 3.85534 29.0835 1.6782C27.4628 0.691263 25.5916 0.247297 23.5987 0.243358Z" fill="url(#paint2_radial)"/>
<path d="M32.6267 15.4115L32.3328 16.3116C32.6425 15.9526 32.9755 15.6807 33.3294 15.4992C33.6835 15.3192 34.0646 15.2265 34.4733 15.2239C34.979 15.2203 35.3622 15.3352 35.6221 15.5728C35.8841 15.8118 36.0112 16.1138 36.008 16.4792C36.0044 16.8439 35.8914 17.4531 35.6699 18.3071L33.899 25.1592L30.9269 25.1841L32.6793 18.4092C32.8555 17.7371 32.9386 17.3266 32.9364 17.1796C32.9303 17.0323 32.8312 16.9591 32.6315 16.9613C32.4298 16.9645 32.279 17.0489 32.1795 17.2189C32.0817 17.3879 31.9373 17.8423 31.746 18.5794L30.0352 25.1911L27.0645 25.2169L29.5944 15.4369L32.6267 15.4115Z" fill="#002D6A"/>
<path d="M40.316 18.8203L40.5021 18.1009C40.6345 17.5907 40.6909 17.2626 40.6735 17.1156C40.6568 16.9671 40.5681 16.8939 40.4068 16.8965C40.1995 16.8975 40.0564 16.9608 39.977 17.0873C39.8958 17.2148 39.783 17.5552 39.6399 18.106L39.4537 18.826L40.316 18.8203ZM42.8767 20.3768L39.0447 20.4088L38.4969 22.5244C38.3823 22.9678 38.3404 23.2531 38.369 23.3798C38.3983 23.5066 38.5025 23.5689 38.682 23.5681C38.9015 23.5667 39.0699 23.4783 39.1915 23.3107C39.308 23.1393 39.4304 22.8105 39.5568 22.3238L39.891 21.0316L42.7128 21.0076L42.5266 21.73C42.3709 22.3346 42.2118 22.7975 42.0523 23.1234C41.8925 23.4479 41.6262 23.796 41.2516 24.1672C40.8782 24.5355 40.4543 24.8162 39.9777 25.0045C39.5038 25.1918 38.9419 25.2877 38.2941 25.2925C37.6707 25.2997 37.144 25.2131 36.7094 25.0363C36.2748 24.8586 35.9661 24.6126 35.7824 24.2968C35.5984 23.9832 35.5032 23.637 35.4973 23.2574C35.4918 22.8772 35.5851 22.3238 35.7725 21.5977L36.5114 18.7478C36.7317 17.8928 37.0202 17.2196 37.3784 16.7234C37.737 16.2278 38.2125 15.8465 38.8025 15.58C39.3966 15.3137 40.0308 15.1773 40.7076 15.1708C41.5394 15.1635 42.1847 15.3178 42.6442 15.6274C43.1044 15.94 43.374 16.3565 43.456 16.8765C43.5379 17.3983 43.4593 18.1318 43.2134 19.0809L42.8767 20.3768Z" fill="#002D6A"/>
<path d="M54.7375 15.2229L51.0137 25.0114L47.8207 25.0399C47.9549 23.8453 48.16 22.2658 48.4315 20.2975C48.1033 21.1696 47.7543 22.0427 47.3834 22.9169L46.5275 25.0491L43.3359 25.0784L44.6095 15.3088L47.1465 15.2859C47.1101 15.5394 46.8461 17.4111 46.3484 20.9038C46.4908 20.531 47.2014 18.654 48.4808 15.2753L50.9014 15.254L50.0625 20.8719C50.5891 19.2183 51.3011 17.343 52.1956 15.2434L54.7375 15.2229Z" fill="#002D6A"/>
<path d="M58.4248 18.6449L58.611 17.9257C58.7408 17.416 58.7994 17.0869 58.7819 16.9399C58.7652 16.7917 58.6762 16.7182 58.5149 16.7197C58.3069 16.7219 58.1648 16.7841 58.0836 16.9116C58.0035 17.0391 57.8926 17.3781 57.7513 17.9318L57.5622 18.6507L58.4248 18.6449ZM60.9841 20.2011L57.1531 20.2341L56.6054 22.348C56.4923 22.7927 56.4481 23.0774 56.4778 23.2038C56.5067 23.3313 56.6098 23.395 56.7908 23.3924C57.0089 23.391 57.1806 23.306 57.3 23.1353C57.4179 22.9636 57.5399 22.6341 57.6657 22.148L58.0005 20.8563L60.8224 20.8331L60.634 21.5545C60.479 22.1579 60.3228 22.6225 60.1611 22.9477C59.9994 23.2726 59.7324 23.6199 59.3601 23.9912C58.9855 24.3613 58.5616 24.6416 58.0866 24.8295C57.6115 25.0164 57.0508 25.1127 56.401 25.1192C55.7769 25.1244 55.2532 25.0381 54.8171 24.8596C54.3832 24.6822 54.0747 24.4374 53.8915 24.1223C53.7075 23.8065 53.6118 23.4612 53.6067 23.0814C53.6015 22.7016 53.6931 22.1495 53.8811 21.4215L54.618 18.5725C54.8386 17.7185 55.1309 17.0435 55.4876 16.548C55.8433 16.0518 56.3206 15.6726 56.911 15.4043C57.5014 15.137 58.1381 15.0001 58.816 14.995C59.6468 14.9878 60.2909 15.1399 60.7515 15.4521C61.2121 15.7657 61.4817 16.1793 61.5648 16.7008C61.6475 17.2238 61.567 17.9571 61.3223 18.9042L60.9841 20.2011Z" fill="#002D6A"/>
<path d="M66.3874 17.6907C66.5027 17.2439 66.5491 16.9581 66.5265 16.8356C66.5046 16.7132 66.4071 16.6536 66.2354 16.6536C66.0607 16.656 65.9216 16.727 65.8159 16.8675C65.7065 17.0095 65.6008 17.2869 65.4936 17.6983L64.6433 20.99C64.5279 21.4269 64.4816 21.7099 64.5012 21.8393C64.5209 21.9708 64.6166 22.0344 64.7901 22.0319C64.9837 22.0309 65.1306 21.9526 65.2337 21.7947C65.3342 21.6355 65.4566 21.2772 65.6008 20.7227L66.3874 17.6907ZM70.0292 15.0712L68.0796 22.609C67.813 23.6279 67.6186 24.2878 67.494 24.5826C67.3691 24.881 67.1217 25.1947 66.7497 25.5322C66.3822 25.8651 65.9216 26.1225 65.3705 26.3C64.8172 26.4798 64.1586 26.5738 63.3939 26.5807C62.4441 26.5875 61.7265 26.4318 61.2381 26.116C60.7493 25.7967 60.6162 25.1647 60.842 24.2191L63.7247 24.1936C63.6097 24.6352 63.7095 24.8547 64.0314 24.852C64.2535 24.8506 64.423 24.7822 64.5331 24.6456C64.6411 24.5096 64.7534 24.2277 64.8636 23.8003L65.0568 23.0521C64.7412 23.2861 64.4304 23.4635 64.1167 23.5849C63.8029 23.7047 63.4921 23.7653 63.181 23.7696C62.647 23.7735 62.2335 23.6682 61.9438 23.4563C61.6546 23.2433 61.491 22.9637 61.4517 22.6124C61.4105 22.2648 61.4736 21.765 61.6431 21.116L62.5617 17.5694C62.8035 16.6422 63.1417 15.9752 63.583 15.5633C64.021 15.1548 64.5825 14.9466 65.2604 14.9401C65.6305 14.9375 65.9491 15.0111 66.2157 15.1603C66.4853 15.311 66.6982 15.538 66.8647 15.8404L67.2637 15.0958L70.0292 15.0712Z" fill="#002D6A"/>
<path d="M74.1977 17.6244C74.3126 17.1764 74.359 16.8929 74.3375 16.7686C74.3178 16.6447 74.2192 16.5858 74.0482 16.5872C73.8743 16.5887 73.7348 16.6592 73.6239 16.8016C73.5216 16.9429 73.4137 17.2193 73.3058 17.6309L72.4532 20.9226C72.3412 21.3588 72.2948 21.6411 72.3141 21.7736C72.3308 21.9033 72.4287 21.9667 72.6026 21.9653C72.7943 21.9634 72.9408 21.8866 73.0413 21.7266C73.1444 21.568 73.2668 21.2116 73.4107 20.6557L74.1977 17.6244ZM77.8394 15.0053L75.8873 22.5429C75.6251 23.5628 75.4296 24.2191 75.3043 24.5171C75.1797 24.8129 74.9349 25.1295 74.5626 25.4634C74.1925 25.7987 73.7319 26.0552 73.1811 26.2352C72.6301 26.4137 71.971 26.5071 71.2045 26.5115C70.2566 26.5213 69.5394 26.3659 69.0513 26.0486C68.5592 25.7292 68.4268 25.099 68.6526 24.1516L71.5349 24.1285C71.4225 24.5695 71.5205 24.7887 71.8412 24.7861C72.0664 24.7837 72.2355 24.7151 72.3434 24.5794C72.4532 24.4428 72.5611 24.161 72.6742 23.7344L72.8678 22.9847C72.5563 23.2194 72.2403 23.3961 71.9273 23.5171C71.6161 23.6378 71.3054 23.7001 70.9938 23.7025C70.4572 23.7047 70.0463 23.6033 69.7567 23.3911C69.4656 23.1781 69.3039 22.8949 69.2649 22.5462C69.2249 22.1964 69.2894 21.6991 69.4552 21.0501L70.3716 17.5027C70.6115 16.5763 70.9545 15.9092 71.3929 15.4978C71.8361 15.0871 72.3923 14.8778 73.0732 14.8734C73.4433 14.8706 73.7615 14.944 74.0285 15.0944C74.2952 15.2439 74.511 15.4703 74.6749 15.7731L75.077 15.0285L77.8394 15.0053Z" fill="#002D6A"/>
<path d="M79.1091 15.7378H79.2912C79.3714 15.7378 79.4388 15.6903 79.4367 15.6313C79.434 15.5557 79.3817 15.5014 79.3182 15.5014H79.1091V15.7378ZM78.9424 16.2076V15.3672H79.3135C79.388 15.3672 79.4441 15.3749 79.4829 15.39C79.5214 15.4051 79.5524 15.4318 79.5756 15.47C79.5985 15.5082 79.6192 15.5602 79.6192 15.6066C79.6192 15.6666 79.6071 15.7185 79.5689 15.7595C79.5307 15.8005 79.4712 15.8299 79.3914 15.8409C79.4205 15.8551 79.4275 15.8541 79.4422 15.8676C79.4748 15.8972 79.5058 15.9346 79.5339 15.9794L79.6783 16.2076H79.4535C79.3898 16.1122 79.3436 16.0061 79.2749 15.9174C79.2456 15.8803 79.2245 15.8763 79.1823 15.8757H79.1091V16.2076H78.9424Z" fill="#002D6A"/>
<path d="M79.9999 15.8009C79.9999 16.1943 79.6813 16.5125 79.2882 16.5125C78.8948 16.5125 78.5762 16.1943 78.5762 15.8009C78.5762 15.4077 78.8948 15.0891 79.2882 15.0891C79.6813 15.0891 79.9999 15.4077 79.9999 15.8009Z" stroke="#002D6A" stroke-width="0.709207"/>
<defs>
<radialGradient id="paint0_radial" cx="0" cy="0" r="1" gradientUnits="userSpaceOnUse" gradientTransform="translate(45.9402 19.4658) rotate(-0.492731) scale(18.4227)">
<stop stop-color="white"/>
<stop offset="0.270833" stop-color="white"/>
<stop offset="0.649022" stop-color="white"/>
<stop offset="1" stop-color="#D6D7DD"/>
</radialGradient>
<radialGradient id="paint1_radial" cx="0" cy="0" r="1" gradientUnits="userSpaceOnUse" gradientTransform="translate(31.3171 19.5884) rotate(-0.492731) scale(18.4228)">
<stop stop-color="#F7ED1A"/>
<stop offset="0.19" stop-color="#F7ED1A"/>
<stop offset="1" stop-color="#EF7C29"/>
</radialGradient>
<radialGradient id="paint2_radial" cx="0" cy="0" r="1" gradientUnits="userSpaceOnUse" gradientTransform="translate(17.3471 19.7115) rotate(-0.492731) scale(18.4246)">
<stop stop-color="white"/>
<stop offset="0.270833" stop-color="white"/>
<stop offset="0.649022" stop-color="white"/>
<stop offset="1" stop-color="#D6D7DD"/>
</radialGradient>
</defs>
</svg>
