<svg width="69" height="80" viewBox="0 0 69 80" fill="none" xmlns="http://www.w3.org/2000/svg">
<path fill-rule="evenodd" clip-rule="evenodd" d="M0 68.3651H3.99473V79.5914H7.31432V68.3651H11.3095V65.5232H0V68.3651ZM8.27113 79.5914H11.7596L12.7537 76.75H16.823L17.7803 79.5914H21.2126L16.3734 65.5237H12.744L8.27113 79.5914V79.5914ZM15.8647 74.1931H13.4419L14.6596 70.8073L15.8647 74.1931ZM21.4943 79.5914H24.7011V74.5271H27.0087C27.4956 74.5271 28.0609 74.4385 28.3498 74.8344C28.6387 75.2303 28.6116 75.9195 28.6015 76.6319C28.5903 77.3443 28.5937 78.079 28.7554 78.6031C28.9161 79.1273 29.2055 79.5914 29.6251 79.5914H32.5222C32.1895 79.2417 31.9536 78.8113 31.8378 78.3428C31.7236 77.8714 31.7396 77.3579 31.7604 76.7887C31.7812 76.22 31.8059 75.5962 31.7396 75.0846C31.6742 74.5721 31.5194 74.1723 31.2658 73.8558C31.0091 73.539 30.6638 73.3058 30.2741 73.186C30.8858 72.747 31.3988 72.1629 31.711 71.5434C32.0222 70.9244 32.1316 70.2705 32.1732 69.623C32.2148 68.9754 32.1872 68.3346 31.983 67.7258C31.7778 67.117 31.3959 66.5396 30.882 66.1437C30.3627 65.7452 29.7274 65.5275 29.0729 65.5237H21.4938V79.5914H21.4943V79.5914ZM28.4258 68.6366C28.8115 68.8917 29.0467 69.3597 29.0409 69.8335C29.0351 70.0755 28.9725 70.3128 28.8583 70.5262C28.7441 70.7396 28.5813 70.9232 28.3832 71.0623C27.9805 71.3391 27.4399 71.2801 26.9371 71.2801H24.6987V68.5002H27.06C27.5314 68.5002 28.0391 68.3816 28.4258 68.6366V68.6366ZM33.8531 68.0133C33.371 68.7257 33.0158 69.562 32.8227 70.6316C32.6301 71.7012 32.5986 73.0045 32.7724 74.1419C32.9451 75.2797 33.3236 76.251 33.7829 77.0041C34.2422 77.7571 34.7828 78.291 35.3718 78.7469C35.9608 79.2028 36.5958 79.5803 37.3125 79.7923C38.035 80.0011 38.7937 80.0533 39.5379 79.9452C40.2537 79.8387 40.8886 79.5788 41.3837 79.3538C41.8779 79.1282 42.2326 78.9376 42.5651 78.714L43.1285 79.5909H45.211L45.2062 71.7036H39.2417V74.4555H42.0386C42.1474 74.9302 42.0821 75.45 41.8411 75.8827C41.6001 76.3149 41.1824 76.66 40.5905 76.9039C39.9986 77.1473 39.233 77.2891 38.4871 77.0631C37.7423 76.8371 37.0183 76.2433 36.5411 75.5633C36.0648 74.8843 35.835 74.1186 35.7338 73.2712C35.6336 72.4242 35.6622 71.495 35.865 70.6848C36.0678 69.8746 36.4453 69.1826 36.9191 68.6841C37.3934 68.1856 37.9645 67.8811 38.6836 67.751C39.4028 67.6208 40.2696 67.6658 40.8475 67.9881C41.4258 68.3104 41.7153 68.9096 41.8817 69.2905C42.0482 69.6714 42.0928 69.8335 42.0981 70H45.0944C45.0498 69.3776 44.8732 68.7692 44.516 68.0743C44.1579 67.3793 43.6207 66.5986 42.857 66.0483C42.0932 65.4981 41.1035 65.1791 40.1864 65.0581C39.3424 64.9427 38.4838 64.9995 37.6625 65.2251C36.9026 65.4356 36.2265 65.7797 35.5847 66.2453C34.943 66.7123 34.3346 67.3009 33.8531 68.0133V68.0133ZM56.2955 79.5914V76.75H49.6844V73.4861L55.3663 73.4744L55.3672 70.8978H49.6844V68.3656H56.2955V65.5237L46.3769 65.5256L46.3929 79.5914H56.2955V79.5914ZM56.7741 68.3651H60.7698V79.5914H64.0894V68.3651H68.0842V65.5232H56.7741V68.3651V68.3651ZM65.6909 78.9603H65.8734V78.925C65.8467 78.9255 65.81 78.9167 65.794 78.8814L65.6551 78.651C65.7872 78.6089 65.8404 78.4391 65.7035 78.3486C65.644 78.3166 65.5926 78.3118 65.5162 78.3098H65.1789V78.3413C65.2166 78.3321 65.2848 78.3602 65.2703 78.4091C65.2674 78.5722 65.2781 78.7251 65.2626 78.8984C65.234 78.9351 65.22 78.9211 65.1822 78.925V78.9603H65.5123V78.925C65.4765 78.9337 65.4063 78.9066 65.4208 78.8572V78.651H65.5123L65.6909 78.9603ZM65.4204 78.6186V78.3529C65.5007 78.349 65.6256 78.365 65.6256 78.4604C65.6323 78.4986 65.6256 78.6089 65.5312 78.6162C65.4978 78.6215 65.4571 78.6181 65.4204 78.6186V78.6186ZM65.4997 79.2541C65.6159 79.2541 65.7417 79.2217 65.8617 79.136C66.1565 78.8921 66.2 78.5876 66.0016 78.2755C65.7567 77.9778 65.4513 77.9338 65.1348 78.1346C64.8381 78.3781 64.7946 78.6825 64.994 78.9952C65.1358 79.1839 65.3211 79.2521 65.4997 79.2541V79.2541ZM65.4997 79.1863C65.3976 79.1863 65.2853 79.1573 65.1784 79.0813C64.9146 78.8635 64.8749 78.593 65.0535 78.3113C65.2698 78.0485 65.5423 78.0103 65.8211 78.1879C66.0849 78.4047 66.1245 78.6772 65.9469 78.9555C65.8211 79.1234 65.6556 79.1849 65.4997 79.1863V79.1863Z" fill="black"/>
<path fill-rule="evenodd" clip-rule="evenodd" d="M38.1422 16.897C36.9073 16.1845 35.4811 15.8018 34.0548 15.8018C32.6286 15.8018 31.2023 16.1845 29.9675 16.897C28.7258 17.6168 27.694 18.6487 26.9742 19.8903C26.2592 21.1341 25.8816 22.5431 25.8789 23.9777C25.8789 25.4051 26.2616 26.8314 26.9742 28.0662C27.6879 29.3011 28.7314 30.3458 29.9675 31.0584C31.2035 31.7709 32.6286 32.1536 34.0548 32.1536C35.4811 32.1536 36.9073 31.7721 38.1422 31.0584C39.3771 30.3446 40.4218 29.3011 41.1355 28.0662C41.8507 26.8221 42.2283 25.4127 42.2308 23.9777C42.2308 22.5514 41.8492 21.1252 41.1355 19.8903C40.4157 18.6487 39.3838 17.6168 38.1422 16.897V16.897Z" fill="#CA3432"/>
<path fill-rule="evenodd" clip-rule="evenodd" d="M54.7852 11.9997C52.6922 8.37331 49.6267 5.30779 46.0015 3.21476C42.3763 1.12173 38.1879 0 34.0006 0C29.8133 0 25.6273 1.12173 22.0009 3.21476C18.3566 5.32689 15.3281 8.35542 13.216 11.9997C11.1217 15.6261 10 19.8133 10 24.0006C10 28.1879 11.1217 32.3751 13.216 36.0015C15.3274 39.6463 18.3561 42.675 22.0009 44.7864C25.6517 46.8871 29.7886 47.9958 34.0006 48.0024C38.1879 48.0024 42.3751 46.8807 46.0015 44.7864C49.6279 42.6934 52.6922 39.6279 54.7852 36.0015C56.8783 32.3751 58 28.1879 58 24.0006C58 19.8133 56.8783 15.6249 54.7852 11.9997ZM47.7527 31.937C46.3608 34.34 44.3641 36.3367 41.9611 37.7286C39.5535 39.1129 36.8259 39.8435 34.0487 39.8481C31.2889 39.8481 28.5291 39.1092 26.1376 37.7286C23.7473 36.3481 21.7265 34.3273 20.346 31.937C18.9655 29.5467 18.2265 26.7857 18.2265 24.0259C18.2265 21.2649 18.9655 18.5039 20.346 16.1135C21.7265 13.7232 23.7473 11.7012 26.1376 10.3219C28.5446 8.93729 31.2719 8.20659 34.0487 8.2024C36.8098 8.2024 39.5696 8.9414 41.9611 10.3219C44.3638 11.7142 46.3604 13.7108 47.7527 16.1135C49.1378 18.5208 49.869 21.2486 49.8734 24.0259C49.8683 26.8027 49.1372 29.5299 47.7527 31.937V31.937Z" fill="#CA3432"/>
</svg>
