<svg width="80" height="46" viewBox="0 0 80 46" fill="none" xmlns="http://www.w3.org/2000/svg">
<path d="M64.8574 19.2566C61.2997 18.6143 58.4239 15.9855 57.4851 12.5267C57.2775 11.7657 57.0601 9.74969 57.1293 9.22592C57.149 9.0678 57.1886 8.64285 57.2281 8.28709C57.5839 4.58117 60.4596 1.34961 64.3929 0.232889C65.4208 -0.0635845 67.249 -0.0141722 68.3855 0.321831C69.4429 0.63807 70.5992 1.20137 71.4392 1.79432C72.2496 2.3675 73.4453 3.64233 73.9098 4.40328C75.9654 7.79296 75.7677 12.6749 73.4453 15.7681C72.2693 17.3295 70.451 18.5252 68.3954 19.0787C67.6048 19.2961 65.5986 19.395 64.8574 19.2566ZM67.6938 14.4735C69.1761 13.7422 70.0359 11.9535 70.0359 9.57181C70.0359 6.53789 68.6622 4.58117 66.4387 4.4527C65.2824 4.38352 64.3732 4.73929 63.6123 5.56941C62.7921 6.45883 62.4165 7.65461 62.4165 9.39392C62.4165 11.2815 62.9007 12.7441 63.8395 13.673C64.9464 14.7799 66.4486 15.0862 67.6938 14.4735Z" fill="#030303"/>
<path d="M4.11035 9.62119V0.282272H11.7001C19.9223 0.282272 19.9223 0.282272 20.8413 0.825807C21.6814 1.31005 22.1162 1.95241 22.4423 3.1976C22.5708 3.7016 22.5905 4.86773 22.5905 11.3704V18.9601H17.6493V12.0918C17.6493 4.41314 17.679 4.72938 16.9773 4.53173C16.7401 4.46255 15.3072 4.4329 12.7081 4.45267L8.80452 4.48231L8.77487 11.7262L8.7551 18.9601H4.11035V9.62119Z" fill="#030303"/>
<path d="M10.8301 13.0805V7.20044H15.376V18.9606H10.8301V13.0805ZM24.4679 9.62164V0.28272H29.6067V18.9606H24.4679V9.62164ZM37.1174 18.7234C35.7141 18.2392 34.6665 17.5969 33.619 16.5987C32.0872 15.1262 31.2868 13.5153 30.9409 11.2127C30.3479 7.21032 31.6721 4.0084 34.8147 1.87379C35.5954 1.34014 37.0778 0.64837 38.1747 0.312367L39.0445 0.0356584L45.6558 0.006011C50.1227 -0.0137539 52.4352 0.0158935 52.7712 0.0850706C53.5915 0.262955 54.6094 0.80649 55.1825 1.38955C56.151 2.36792 56.4771 3.1684 56.5561 4.72982C56.6649 6.89408 55.8743 8.5148 54.1744 9.62164C53.5419 10.0268 53.453 10.1256 53.6408 10.1454C53.7693 10.1652 54.1152 10.2936 54.4117 10.4419C54.8663 10.6692 54.9947 10.7878 55.2319 11.2424L55.4988 11.7859V18.9606H51.0517V12.952L50.7749 12.4381C50.3005 11.529 50.2313 11.5092 46.7528 11.4499L43.7881 11.4005L43.7583 9.3054L43.7386 7.20044H47.3654C50.8342 7.20044 51.012 7.19055 51.3284 7.00279C51.9806 6.59761 52.0992 5.63901 51.5654 5.00653C51.0713 4.42347 51.1999 4.43335 44.8849 4.43335H39.1037L38.4416 4.77924C36.4848 5.79713 35.4966 7.42773 35.4966 9.67105C35.4867 11.944 36.4354 13.4363 38.3625 14.1873C38.995 14.4344 39.1827 14.4542 40.9023 14.4937L42.7503 14.5332V18.9606H40.2599C37.908 18.9606 37.7202 18.9408 37.1174 18.7234Z" fill="#030303"/>
<path d="M6.37902 45.0118C5.62786 44.8142 4.29373 44.1618 3.56253 43.6381C1.03252 41.8395 -0.291631 38.3708 0.054255 34.4574C0.400141 30.5538 2.52486 27.8163 6.30984 26.413L7.02139 26.1462L15.7476 26.1166L24.4639 26.0869V30.6427H16.7259C10.0947 30.6427 8.90883 30.6625 8.40492 30.791C6.10221 31.3938 4.88667 33.2715 5.02513 36.0287C5.12395 38.0447 5.91455 39.28 7.56491 39.9421C8.04906 40.1398 8.32577 40.1694 10.0652 40.2089L12.012 40.2485V45.1699L9.47223 45.16C7.5748 45.16 6.78421 45.1205 6.37902 45.0118ZM26.1439 35.6334V26.0869L31.4113 26.1166L36.6687 26.1462L37.1825 26.413C37.9435 26.8182 38.7538 27.6582 39.0899 28.3895C39.7223 29.8027 39.7125 29.6644 39.7817 35.9298C39.841 41.464 39.8508 41.6814 40.0584 42.304C40.3055 43.0551 40.7896 43.8951 41.353 44.5473C41.5704 44.8043 41.7286 45.0513 41.6989 45.0909C41.6693 45.1303 40.5427 45.1699 39.1789 45.1699H36.7182L36.3229 44.8043C35.8484 44.3793 35.2457 43.1934 34.9492 42.1064C34.7515 41.4047 34.7417 41.1082 34.7417 36.1275C34.7417 32.1745 34.7119 30.8503 34.6231 30.7613C34.544 30.6823 33.9906 30.6427 32.7948 30.6427H31.0852L31.0654 37.8866L31.0357 45.1205L28.5948 45.1502L26.1439 45.1699V35.6334ZM45.2171 45.1008C45.0787 45.0711 44.6438 44.9031 44.2585 44.7154C43.3493 44.2806 42.6081 43.5592 42.1436 42.65C41.4815 41.3554 41.4518 41.1182 41.4815 37.017L41.5112 33.3605L43.9127 33.3309L46.3041 33.311V36.0089C46.3041 38.9934 46.3832 39.5468 46.8673 39.9223C47.1144 40.12 47.243 40.1299 50.0101 40.1299C52.6783 40.1299 52.9056 40.12 53.0539 39.952C53.2021 39.784 53.2218 39.4085 53.2218 36.5425V33.311H65.0808V37.7581H58.3607V40.5252H65.0808V45.1699L55.2774 45.16C49.8815 45.1502 45.3554 45.1205 45.2171 45.1008Z" fill="#030303"/>
<path d="M73.8564 42.0174L73.8268 38.8649L73.5203 38.4894C72.8681 37.679 73.046 37.7087 69.6168 37.679L66.5632 37.6494V33.311H70.279C73.8861 33.311 74.0145 33.3011 74.3407 33.1035C74.7656 32.8366 74.9633 32.4512 74.9633 31.878C74.9633 31.5025 74.9039 31.3642 74.6273 31.0578L74.2912 30.6921L63.7269 30.6427L53.1725 30.5933L53.1427 28.35L53.123 26.0968H64.0728C76.1393 26.0968 75.5562 26.0672 76.7816 26.7194C78.6693 27.7076 79.697 29.9411 79.3313 32.2832C79.0942 33.815 78.1158 35.159 76.7224 35.8804L76.0603 36.2263L76.6335 36.424C77.513 36.7501 77.8886 37.0169 78.1455 37.5407C78.3729 37.9953 78.3729 38.0645 78.4026 41.5925L78.4322 45.1699H73.8863L73.8564 42.0174Z" fill="#030303"/>
<path d="M13.0996 39.3396V33.6077H24.4644V37.7584H18.0408V40.3278H24.4644V45.0714H13.0996V39.3396ZM41.067 28.37V26.0971H52.1353V30.643H41.067V28.37Z" fill="#030303"/>
</svg>
