<svg width="80" height="48" viewBox="0 0 80 48" fill="none" xmlns="http://www.w3.org/2000/svg">
<path d="M22.5449 17.3745C22.5449 18.359 22.6513 19.1572 22.8376 19.7426C23.0504 20.3279 23.3165 20.9665 23.689 21.6583C23.822 21.8711 23.8752 22.084 23.8752 22.2702C23.8752 22.5363 23.7156 22.8024 23.3697 23.0685L21.6935 24.186C21.454 24.3456 21.2145 24.4254 21.0017 24.4254C20.7356 24.4254 20.4695 24.2924 20.2034 24.0529C19.8309 23.6538 19.5117 23.2281 19.2456 22.8024C18.9795 22.3501 18.7134 21.8445 18.4208 21.2326C16.3454 23.6804 13.7379 24.9044 10.5982 24.9044C8.36323 24.9044 6.58055 24.2658 5.2768 22.9886C3.97304 21.7115 3.30786 20.0086 3.30786 17.8801C3.30786 15.6184 4.10608 13.7825 5.72912 12.399C7.35216 11.0154 9.50734 10.3236 12.2479 10.3236C13.1525 10.3236 14.0838 10.4034 15.0683 10.5365C16.0527 10.6695 17.0638 10.8824 18.1281 11.1218V9.17949C18.1281 7.15734 17.7024 5.74716 16.8775 4.92234C16.0261 4.09751 14.5893 3.6984 12.5406 3.6984C11.6093 3.6984 10.6515 3.80483 9.66699 4.0443C8.68252 4.28376 7.72466 4.57644 6.79341 4.94894C6.36769 5.13519 6.04841 5.24162 5.86215 5.29484C5.6759 5.34805 5.54287 5.37466 5.43644 5.37466C5.06394 5.37466 4.87769 5.10859 4.87769 4.54983V3.24608C4.87769 2.82037 4.9309 2.50108 5.06394 2.31483C5.19697 2.12858 5.43644 1.94233 5.80894 1.75608C6.74019 1.27715 7.8577 0.878038 9.16145 0.558752C10.4652 0.212858 11.8488 0.0532144 13.3122 0.0532144C16.4784 0.0532144 18.7933 0.771609 20.2833 2.2084C21.7467 3.64519 22.4917 5.82698 22.4917 8.75378V17.3745H22.5449ZM11.7424 21.4188C12.6204 21.4188 13.525 21.2592 14.4829 20.9399C15.4408 20.6206 16.2922 20.0352 17.0106 19.237C17.4363 18.7315 17.7556 18.1727 17.9152 17.5342C18.0749 16.8956 18.1813 16.124 18.1813 15.2193V14.1018C17.4097 13.9156 16.5849 13.7559 15.7334 13.6495C14.882 13.5431 14.0572 13.4899 13.2324 13.4899C11.4497 13.4899 10.1459 13.8358 9.26788 14.5542C8.38984 15.2725 7.96413 16.2836 7.96413 17.614C7.96413 18.8645 8.28341 19.7958 8.94859 20.4343C9.58717 21.0995 10.5184 21.4188 11.7424 21.4188V21.4188ZM33.108 24.2924C32.629 24.2924 32.3097 24.2126 32.0969 24.0263C31.884 23.8667 31.6978 23.4942 31.5381 22.9886L25.2854 2.42126C25.1258 1.88911 25.046 1.54322 25.046 1.35697C25.046 0.931253 25.2588 0.691788 25.6845 0.691788H28.292C28.7976 0.691788 29.1435 0.771609 29.3297 0.95786C29.5426 1.1175 29.7022 1.49 29.8619 1.99554L34.3319 19.6095L38.4826 1.99554C38.6156 1.4634 38.7753 1.1175 38.9881 0.95786C39.201 0.798217 39.5735 0.691788 40.0524 0.691788H42.181C42.6866 0.691788 43.0324 0.771609 43.2453 0.95786C43.4582 1.1175 43.6444 1.49 43.7508 1.99554L47.9548 19.8224L52.5578 1.99554C52.7175 1.4634 52.9037 1.1175 53.09 0.95786C53.3028 0.798217 53.6487 0.691788 54.1277 0.691788H56.6021C57.0278 0.691788 57.2673 0.904645 57.2673 1.35697C57.2673 1.49 57.2407 1.62304 57.2141 1.78268C57.1875 1.94233 57.1343 2.15518 57.0278 2.44786L50.6155 23.0152C50.4559 23.5474 50.2696 23.8933 50.0568 24.0529C49.8439 24.2126 49.498 24.319 49.0457 24.319H46.7575C46.2519 24.319 45.906 24.2392 45.6932 24.0529C45.4803 23.8667 45.2941 23.5208 45.1876 22.9886L41.0635 5.82698L36.966 22.962C36.833 23.4942 36.6733 23.8401 36.4605 24.0263C36.2476 24.2126 35.8751 24.2924 35.3962 24.2924H33.108ZM67.2982 25.0108C65.9147 25.0108 64.5311 24.8511 63.2007 24.5319C61.8704 24.2126 60.8327 23.8667 60.1409 23.4676C59.7152 23.2281 59.4225 22.962 59.3161 22.7226C59.2096 22.4831 59.1564 22.217 59.1564 21.9776V20.6206C59.1564 20.0618 59.3693 19.7958 59.7684 19.7958C59.928 19.7958 60.0877 19.8224 60.2473 19.8756C60.407 19.9288 60.6464 20.0352 60.9125 20.1417C61.8171 20.5408 62.8016 20.8601 63.8393 21.0729C64.9036 21.2858 65.9413 21.3922 67.0056 21.3922C68.6818 21.3922 69.9856 21.0995 70.8902 20.5142C71.7949 19.9288 72.2738 19.0774 72.2738 17.9865C72.2738 17.2415 72.0343 16.6295 71.5554 16.124C71.0765 15.6184 70.1718 15.1661 68.8681 14.7404L65.01 13.5431C63.0677 12.9311 61.6309 12.0265 60.7529 10.8291C59.8748 9.65842 59.4225 8.35467 59.4225 6.97109C59.4225 5.85359 59.662 4.86912 60.1409 4.01769C60.6198 3.16626 61.2584 2.42126 62.0566 1.8359C62.8548 1.22393 63.7595 0.771609 64.8238 0.452323C65.8881 0.133036 67.0056 0 68.1763 0C68.7616 0 69.3736 0.0266072 69.959 0.106429C70.5709 0.186251 71.1297 0.292679 71.6884 0.399108C72.2206 0.532144 72.7261 0.665181 73.205 0.824824C73.684 0.984467 74.0565 1.14411 74.3225 1.30375C74.695 1.51661 74.9611 1.72947 75.1208 1.96893C75.2804 2.18179 75.3602 2.47447 75.3602 2.84697V4.09751C75.3602 4.65626 75.1474 4.94894 74.7483 4.94894C74.5354 4.94894 74.1895 4.84251 73.7372 4.62966C72.2206 3.93787 70.5177 3.59197 68.6286 3.59197C67.112 3.59197 65.9147 3.83144 65.0898 4.33698C64.265 4.84251 63.8393 5.61412 63.8393 6.70502C63.8393 7.45002 64.1054 8.0886 64.6375 8.59413C65.1697 9.09967 66.1541 9.60521 67.5643 10.0575L71.3425 11.2549C73.2582 11.8668 74.6418 12.7183 75.4666 13.8091C76.2915 14.9 76.6906 16.1506 76.6906 17.5342C76.6906 18.6783 76.4511 19.716 75.9988 20.6206C75.5199 21.5252 74.8813 22.3235 74.0565 22.962C73.2316 23.6272 72.2472 24.1061 71.1031 24.452C69.9057 24.8245 68.6552 25.0108 67.2982 25.0108V25.0108Z" fill="#252F3E"/>
<path fill-rule="evenodd" clip-rule="evenodd" d="M72.327 37.9419C63.5732 44.4075 50.8549 47.8398 39.9194 47.8398C24.5936 47.8398 10.7844 42.1725 0.354413 32.7535C-0.470411 32.0085 0.274591 30.9974 1.25906 31.5828C12.5405 38.1282 26.4561 42.0926 40.8506 42.0926C50.5622 42.0926 61.2317 40.0705 71.0498 35.9198C72.5132 35.2546 73.7637 36.8776 72.327 37.9419V37.9419Z" fill="#FF9900"/>
<path fill-rule="evenodd" clip-rule="evenodd" d="M75.9721 33.7917C74.8546 32.3549 68.5753 33.0999 65.7283 33.4458C64.8769 33.5523 64.7438 32.8073 65.5154 32.2485C70.5176 28.7364 78.7392 29.7474 79.6971 30.9182C80.655 32.1155 79.431 40.3371 74.7482 44.275C74.0298 44.8869 73.338 44.5677 73.6573 43.7694C74.7215 41.1353 77.0896 35.2019 75.9721 33.7917V33.7917Z" fill="#FF9900"/>
</svg>
