<svg width="80" height="15" viewBox="0 0 80 15" fill="none" xmlns="http://www.w3.org/2000/svg">
<path d="M28.5006 14.1617C25.6026 14.1617 22.9124 13.2879 21.1168 11.6673C19.7602 10.443 19.1083 8.77997 19.1083 7.06833C19.1083 5.37753 19.7883 3.70304 21.1166 2.48517C22.7843 0.957013 25.7285 0 28.5006 0C31.5682 0 34.0235 0.776917 35.9004 2.48937C37.2358 3.70788 37.8814 5.37494 37.8814 7.06849C37.8814 8.71003 37.1963 10.4582 35.9004 11.6673C34.1526 13.2984 31.4059 14.1617 28.5006 14.1617V12.2939C30.0387 12.2939 31.4655 11.7599 32.462 10.763C33.4516 9.77284 33.9126 8.55578 33.9126 7.06833C33.9126 5.64339 33.4153 4.31116 32.462 3.36626C31.4789 2.39261 30.018 1.84473 28.5006 1.84473C26.9785 1.84473 25.5166 2.38696 24.5327 3.36626C23.5846 4.31084 23.0859 5.64694 23.0859 7.06833C23.0859 8.48536 23.5904 9.82065 24.5327 10.7631C25.5174 11.7481 26.9741 12.294 28.5006 12.294V14.1619V14.1617ZM7.3192 0.0067839C5.769 0.0067839 4.00787 0.29833 2.51149 0.970258C1.13044 1.58985 3.27305e-07 2.59193 3.27305e-07 4.25318C-0.000642243 5.74935 0.94506 6.6256 0.919358 6.60137C1.32161 6.97368 1.96916 7.60765 3.66217 7.97996C4.4188 8.14632 6.03647 8.40185 7.64739 8.57112C9.24643 8.74072 10.8201 8.90192 11.461 9.06506C11.9703 9.1954 12.8257 9.37292 12.8257 10.3378C12.8257 11.2989 11.9245 11.5922 11.7679 11.6559C11.6114 11.718 10.5303 12.2168 8.58683 12.2168C7.15197 12.2168 5.42699 11.783 4.79823 11.5568C4.07341 11.2974 3.31309 10.9544 2.60386 10.0833C2.42747 9.86733 2.14924 9.27342 2.14924 8.68532H0.390362V13.6408H2.34538V12.9713C2.34538 12.895 2.44016 12.5815 2.76835 12.7306C3.17671 12.9172 4.37542 13.3971 5.62876 13.6602C6.65639 13.8763 7.31904 14.0312 8.59663 14.0312C10.6811 14.0312 11.801 13.6897 12.5751 13.4675C13.3044 13.2575 14.2056 12.8805 14.9377 12.2935C15.3341 11.9762 16.2035 11.1626 16.2035 9.68578C16.2035 8.26827 15.4469 7.38847 15.1807 7.12082C14.8182 6.75611 14.3753 6.47345 13.9137 6.25556C13.5116 6.06528 12.8771 5.83673 12.3579 5.70897C11.3502 5.46023 9.07165 5.15333 7.98201 5.03865C6.83936 4.91864 4.85719 4.75357 4.06554 4.50725C3.82554 4.43247 3.33623 4.1981 3.33623 3.62696C3.33623 3.22073 3.56 2.87637 4.00225 2.59807C4.70426 2.15582 6.12225 1.88091 7.60032 1.88091C9.34779 1.87445 10.8276 2.27616 11.769 2.69934C12.0892 2.8431 12.4638 3.04952 12.7613 3.29374C13.097 3.56897 13.5684 4.14092 13.7388 4.93867H15.3179V0.625087H13.5547V1.12645C13.5547 1.28829 13.3884 1.49859 13.0741 1.3248C12.285 0.908557 10.054 0.0104989 7.31888 0.0067839H7.3192ZM45.9592 0.790646L54.5603 8.59535L54.472 3.34058C54.4633 2.65153 54.337 2.36386 53.5958 2.36386H51.9786V0.791939H59.3328V2.36386H57.7553C56.9994 2.36386 56.9516 2.60695 56.9425 3.34058L57.0758 13.3812H54.5573L44.6504 4.4911L44.6525 10.8004C44.6612 11.4863 44.6932 11.8093 45.396 11.8093H47.1622V13.3806H39.9398V11.8095H41.6281C42.2588 11.8095 42.2337 11.2049 42.2337 10.7647V3.40034C42.2337 2.92499 42.1674 2.36499 41.1772 2.36499H39.8072V0.790646H45.9592ZM67.7365 11.8064C67.8056 11.8064 68.1124 11.7975 68.1719 11.7793C68.2467 11.7565 68.3156 11.7178 68.3741 11.6656C68.4325 11.6135 68.4789 11.5492 68.5102 11.4772C68.5327 11.4239 68.5439 11.1881 68.5439 11.1369L68.5452 8.65269C68.5452 8.59293 68.5409 8.56709 68.44 8.43399C68.3292 8.28862 63.9348 3.28147 63.7337 3.06099C63.4839 2.78721 63.0453 2.36402 62.379 2.36402H60.8508V0.791454H69.4752V2.36209H68.4355C68.195 2.36209 68.0352 2.59145 68.2406 2.84633C68.2406 2.84633 71.1423 6.33632 71.1698 6.37282C71.1968 6.40997 71.2199 6.41885 71.2569 6.38493C71.2932 6.35021 74.2313 2.87831 74.2545 2.85085C74.3942 2.68254 74.2994 2.36386 73.9982 2.36386H72.9317V0.791454H80V2.36386H78.4209C77.848 2.36386 77.6149 2.47047 77.1839 2.96036C76.9868 3.18455 72.5455 8.28168 72.4247 8.41978C72.3614 8.49198 72.3669 8.59261 72.3669 8.65237V11.1362C72.3669 11.1866 72.3782 11.4228 72.4006 11.4758C72.4319 11.5479 72.4784 11.6122 72.537 11.6644C72.5955 11.7166 72.6646 11.7553 72.7396 11.7778C72.799 11.7962 73.1017 11.8053 73.1706 11.8053H74.7859V13.3775H66.2059V11.8051L67.7369 11.8064H67.7365Z" fill="black"/>
</svg>
