<svg width="78" height="80" viewBox="0 0 78 80" fill="none" xmlns="http://www.w3.org/2000/svg">
<path d="M40.4937 18.5152C41.7825 18.5152 42.8433 17.8451 42.9866 16.9794L44.2589 2.58987C44.2589 1.1676 42.5927 0 40.4978 0C38.4049 0 36.7402 1.16759 36.7402 2.59012L38.0118 16.9794C38.1517 17.8449 39.2126 18.5152 40.498 18.5152H40.4937V18.5152ZM32.7164 23.0097C33.3628 21.895 33.3141 20.6422 32.6327 20.0856L20.8049 11.7889C19.5751 11.0768 17.7312 11.934 16.6848 13.7488C15.6347 15.5613 15.8209 17.5856 17.0473 18.298L30.1441 24.3958C30.9629 24.6992 32.0792 24.1152 32.7205 23.0012L32.7164 23.0097V23.0097ZM48.2779 23.002C48.9233 24.1159 50.034 24.7003 50.8535 24.3966L63.9503 18.2988C65.1844 17.5866 65.3598 15.5621 64.3195 13.7496C63.2679 11.9365 61.4207 11.0775 60.1943 11.7897L48.3657 20.0864C47.6894 20.6422 47.6391 21.896 48.282 23.0105L48.2779 23.002V23.002ZM40.4937 36.49C41.7825 36.49 42.8433 37.1544 42.9866 38.0208L44.2589 52.4083C44.2589 53.835 42.5927 55 40.4978 55C38.4049 55 36.7402 53.835 36.7402 52.4083L38.0118 38.0208C38.1517 37.1544 39.2126 36.49 40.498 36.49H40.4937V36.49ZM48.2779 31.9944C48.9233 30.8774 50.034 30.2982 50.8535 30.6053L63.9503 36.6989C65.1844 37.4119 65.3598 39.4382 64.3195 41.2523C63.2679 43.0594 61.4207 43.9207 60.1943 43.2095L48.3657 34.9206C47.6894 34.3604 47.6391 33.1058 48.282 31.9921H48.2769L48.2779 31.9944ZM32.7164 31.9929C33.3628 33.1058 33.3141 34.3604 32.6327 34.9216L20.8049 43.2103C19.5751 43.9214 17.7312 43.0601 16.6848 41.253C15.6347 39.439 15.8209 37.4126 17.0473 36.6997L30.1441 30.606C30.9629 30.299 32.0792 30.8781 32.7205 31.9954H32.7164" fill="#FDBB30"/>
<path d="M59.4833 75.7919C59.4833 75.9959 59.4652 76.2064 59.4094 76.3912C59.1781 77.1589 58.3849 77.8081 57.3926 77.8081C56.5651 77.8081 55.908 77.3371 55.908 76.3424C55.908 74.8199 57.5802 74.3995 59.4838 74.41L59.4833 75.7918V75.7919ZM62.4691 73.1387C62.4691 70.6283 61.3986 68.4193 57.7816 68.4193C55.9249 68.4193 54.4513 68.9419 53.647 69.4077L54.2361 71.4259C54.9712 70.9608 56.1427 70.5759 57.2514 70.5759C59.0861 70.5708 59.3866 71.617 59.3866 72.2866V72.4451C55.3873 72.4391 52.8592 73.8268 52.8592 76.6537C52.8592 78.381 54.1468 79.9988 56.3851 79.9988C57.7604 79.9988 58.9123 79.4487 59.6017 78.5666H59.6698C59.6698 78.5666 60.1259 80.4817 62.6442 79.749C62.5127 78.9526 62.4695 78.1024 62.4695 77.0801L62.4692 73.1387H62.4691ZM0.15625 65.0005C0.15625 65.0005 2.76968 75.7315 3.18699 77.4731C3.67381 79.5059 4.55119 80.2542 7.07961 79.749L8.71135 73.0961C9.12512 71.4428 9.40203 70.2641 9.66864 68.584H9.71505C9.90222 70.2819 10.1678 71.4479 10.5083 73.1016C10.5083 73.1016 11.1722 76.1221 11.5128 77.708C11.8537 79.2934 12.8027 80.2933 15.2797 79.749L19.168 65H16.0295L14.7015 71.377C14.3444 73.2325 14.0207 74.684 13.7709 76.381H13.7265C13.4996 74.6989 13.2106 73.3066 12.848 71.4984L11.4664 65H8.19577L6.7171 71.3345C6.2986 73.26 5.90614 74.8141 5.65752 76.4547H5.6123C5.35705 74.9098 5.01728 72.9558 4.64957 71.0929C4.64957 71.0929 3.77171 66.5618 3.46296 65L0.15625 65.0005V65.0005ZM25.1047 75.7919C25.1047 75.9959 25.0866 76.2064 25.03 76.3912C24.7992 77.1589 24.0055 77.8081 23.0132 77.8081C22.1856 77.8081 21.5294 77.3371 21.5294 76.3424C21.5294 74.8199 23.2012 74.3995 25.1051 74.41L25.1047 75.7918V75.7919ZM28.0901 73.1387C28.0901 70.6283 27.0197 68.4193 23.4034 68.4193C21.5462 68.4193 20.0714 68.9419 19.2676 69.4077L19.856 71.4259C20.5909 70.9608 21.7625 70.5759 22.8716 70.5759C24.7075 70.5708 25.008 71.617 25.008 72.2866V72.4451C21.0071 72.4391 18.4802 73.8268 18.4802 76.6537C18.4802 78.381 19.7671 79.9988 22.0037 79.9988C23.3809 79.9988 24.5321 79.4487 25.2223 78.5666H25.2895C25.2895 78.5666 25.747 80.4817 28.2646 79.749C28.133 78.9526 28.0901 78.1024 28.0901 77.0801V73.1387V73.1387ZM33.0726 76.6182V65.0005H30.0833V79.7494H33.0726V76.6182ZM72.1782 65.0005V75.8805C72.1782 77.3812 72.4606 78.4315 73.0626 79.0743C73.5901 79.6363 74.4568 80 75.4963 80C76.3804 80 77.2496 79.8309 77.6598 79.6785L77.6212 77.3383C77.316 77.413 76.9656 77.4735 76.4859 77.4735C75.4673 77.4735 75.1267 76.8196 75.1267 75.473V71.3101H77.7298V68.4878H75.1267V65.0005H72.1782V65.0005ZM64.4624 68.6695V79.7494H67.546V74.0763C67.546 73.7696 67.5645 73.5025 67.6129 73.2581C67.8411 72.0691 68.7479 71.3101 70.0505 71.3101C70.4076 71.3101 70.6632 71.349 70.9401 71.3884V68.4878C70.7077 68.4414 70.55 68.4197 70.2609 68.4197C69.1102 68.4197 67.8009 69.1637 67.2515 70.7599H67.1681V68.6695H64.4624ZM35.1657 68.6695V79.7494H38.1701V73.2521C38.1701 72.9473 38.2058 72.6248 38.3112 72.3453C38.5602 71.6911 39.1677 70.925 40.1372 70.925C41.3501 70.925 41.9165 71.952 41.9165 73.4343V79.7486H44.9184V73.1722C44.9184 72.8813 44.9581 72.5306 45.0439 72.2741C45.2904 71.5296 45.9449 70.9242 46.8463 70.9242C48.0753 70.9242 48.6652 71.9332 48.6652 73.6778V79.7483H51.6692V73.2221C51.6692 69.7809 49.9253 68.4186 47.9565 68.4186C47.0854 68.4186 46.3971 68.6372 45.7746 69.0195C45.2519 69.3422 44.7831 69.7994 44.3741 70.4004H44.3297C43.855 69.2063 42.738 68.4192 41.2824 68.4192C39.4124 68.4192 38.572 69.3691 38.0622 70.1746H38.0175V68.6692H35.1657" fill="#1A75CF"/>
</svg>
