<svg width="90" height="18" viewBox="0 0 90 18" fill="none" xmlns="http://www.w3.org/2000/svg">
<path d="M10.0538 6.27519H5.72611V4.93208C5.72611 4.08556 5.68487 3.55554 5.60256 3.34238C5.52024 3.12922 5.32491 3.02265 5.01654 3.02248C4.74924 3.02248 4.56765 3.11395 4.47176 3.29656C4.37587 3.47934 4.32767 3.94826 4.32767 4.70348V11.8026C4.32767 12.4666 4.3757 12.9035 4.47193 13.1138C4.56816 13.324 4.75942 13.4289 5.04743 13.4289C5.36258 13.4289 5.57693 13.3101 5.68996 13.0725C5.80299 12.8349 5.85967 12.3721 5.85967 11.6838V9.92961H4.98582V7.68194H10.0538V15.6216H7.32955L6.92869 14.5618C6.63407 15.0183 6.26223 15.3611 5.81334 15.5897C5.36445 15.8181 4.83494 15.9324 4.22517 15.9324C3.4988 15.9324 2.81859 15.7755 2.18471 15.4619C1.55083 15.1483 1.06936 14.7598 0.740456 14.297C0.411553 13.8342 0.205861 13.3483 0.123551 12.8398C0.0412402 12.331 0 11.5684 0 10.5511V6.15639C0 4.74336 0.0857049 3.71694 0.257115 3.07729C0.428525 2.43765 0.920182 1.85129 1.73226 1.31839C2.54433 0.785492 3.59468 0.519043 4.88297 0.519043C6.1509 0.519043 7.20295 0.750361 8.03895 1.21317C8.87496 1.67648 9.4199 2.22635 9.67362 2.86278C9.92717 3.4992 10.0539 4.42345 10.0539 5.63571V6.27519H10.0538ZM14.9673 8.19345H11.0712V7.38053C11.0712 6.44253 11.1929 5.71904 11.4361 5.21058C11.6795 4.70212 12.1677 4.25272 12.901 3.86306C13.6342 3.47323 14.587 3.2784 15.759 3.2784C17.1637 3.2784 18.4025 3.49903 19.1153 3.94079C19.828 4.38238 20.2564 4.92445 20.4001 5.56698C20.5441 6.20968 20.6158 7.53293 20.616 9.5369V15.6218H16.3961V14.5436C16.1426 14.976 15.8152 15.3003 15.4143 15.5166C15.0135 15.7328 14.5354 15.8407 13.9804 15.8407C13.2541 15.8407 12.5874 15.6596 11.9812 15.2973C11.3745 14.9348 11.0712 14.1414 11.0712 12.9172V11.9214C11.0712 11.0137 11.2324 10.3956 11.5545 10.0664C11.8765 9.73767 12.675 9.35412 13.9497 8.91541C15.3133 8.44021 16.0433 8.12048 16.1392 7.95619C16.2351 7.79191 16.2834 7.4569 16.2834 6.95115C16.2834 6.31779 16.2301 5.90505 16.1239 5.7131C16.0177 5.52133 15.8412 5.42544 15.5946 5.42544C15.3135 5.42544 15.1387 5.50622 15.0703 5.66762C15.0018 5.82884 14.9675 6.2477 14.9675 6.92383V8.19362L14.9673 8.19345ZM16.2833 9.85647C15.6185 10.2889 15.2331 10.6514 15.1268 10.9436C15.0206 11.2359 14.9675 11.6563 14.9675 12.2044C14.9675 12.8319 15.0136 13.237 15.1063 13.4196C15.1988 13.6024 15.3821 13.6937 15.6562 13.6937C15.9165 13.6937 16.0862 13.6221 16.165 13.4788C16.2439 13.3357 16.2833 12.9595 16.2833 12.3506V9.85664V9.85647ZM25.9667 3.49733L25.8948 4.64849C26.2169 4.1918 26.6008 3.84915 27.0461 3.62054C27.4916 3.39211 27.9987 3.27772 28.5676 3.27772C29.6778 3.27772 30.5515 3.73459 31.1889 4.64832C31.5386 4.19163 31.9325 3.84898 32.3712 3.62037C32.8097 3.39194 33.2963 3.27755 33.8309 3.27755C34.5369 3.27755 35.121 3.42996 35.5837 3.73442C36.0463 4.03905 36.3426 4.41208 36.473 4.85368C36.6031 5.29544 36.6681 6.01247 36.6681 7.00546V15.6213H32.6383V7.71826C32.6383 6.68267 32.5989 6.04149 32.5202 5.79507C32.4413 5.54831 32.258 5.42493 31.9703 5.42493C31.6755 5.42493 31.4854 5.54678 31.3997 5.79032C31.314 6.03386 31.2713 6.67656 31.2713 7.71809V15.6211H27.2414V7.9192C27.2414 6.73121 27.2092 6.01875 27.1438 5.78116C27.0785 5.54356 26.899 5.42476 26.6042 5.42476C26.4192 5.42476 26.2613 5.48721 26.1313 5.61212C26.0038 5.73121 25.9266 5.89452 25.9155 6.06865C25.9019 6.24854 25.8951 6.63091 25.8951 7.21557V15.6211H21.7304V3.49682H25.9667V3.4975V3.49733ZM47.5134 9.77416H42.1369V12.3962C42.1369 12.9444 42.1816 13.2979 42.2707 13.4562C42.3596 13.6146 42.531 13.6937 42.7846 13.6937C43.0997 13.6937 43.3107 13.5885 43.4169 13.3785C43.5232 13.1686 43.5761 12.7618 43.5761 12.1588V10.5598H47.5134V11.4553C47.5134 12.2044 47.4603 12.7801 47.3541 13.1822C47.2478 13.584 46.9994 14.0134 46.6087 14.4703C46.218 14.9271 45.7228 15.2696 45.1232 15.4984C44.5236 15.7268 43.7714 15.841 42.8667 15.841C41.9895 15.841 41.2154 15.7284 40.5435 15.503C39.872 15.2776 39.3494 14.9684 38.9759 14.5757C38.6025 14.1828 38.3437 13.7504 38.1998 13.2782C38.0559 12.8062 37.9842 12.1194 37.9842 11.2179V7.68194C37.9842 6.62225 38.1451 5.78625 38.4672 5.17409C38.7894 4.56194 39.317 4.09302 40.0503 3.76701C40.7837 3.44116 41.6266 3.27823 42.579 3.27823C43.7441 3.27823 44.7055 3.47459 45.4626 3.86764C46.2199 4.26036 46.7511 4.78138 47.0562 5.42985C47.361 6.07866 47.5134 6.9907 47.5134 8.1663V9.77433V9.77416ZM43.3501 7.80074V6.9145C43.3501 6.28707 43.3124 5.88197 43.237 5.69935C43.1617 5.51657 43.0074 5.42527 42.7744 5.42527C42.4866 5.42527 42.3084 5.503 42.24 5.65828C42.1714 5.81357 42.1371 6.23242 42.1371 6.9145V7.80074H43.3501V7.80074Z" fill="black"/>
<path d="M58.1733 4.96715H54.1538V3.87081C54.1538 3.35912 54.1024 3.03328 53.9997 2.89309C53.8971 2.75308 53.7257 2.68316 53.4859 2.68299C53.2253 2.68299 53.0283 2.77752 52.8947 2.96624C52.7612 3.15513 52.6941 3.44143 52.6941 3.82499C52.6941 4.31851 52.7695 4.69018 52.9204 4.93983C53.0643 5.18964 53.4721 5.49105 54.1437 5.84423C56.0696 6.86148 57.2825 7.69579 57.7828 8.34749C58.283 8.99953 58.5331 10.05 58.5331 11.4997C58.5331 12.5535 58.3945 13.3301 58.1168 13.8297C57.8393 14.329 57.303 14.7479 56.5081 15.0859C55.7132 15.4237 54.7879 15.5929 53.7326 15.5929C52.5745 15.5929 51.5859 15.398 50.7669 15.0082C49.9479 14.6184 49.4116 14.122 49.158 13.519C48.9045 12.916 48.7779 12.0601 48.7779 10.9517V9.98318H52.7972V11.7828C52.7972 12.3373 52.8537 12.6935 52.9669 12.8518C53.0797 13.0103 53.2803 13.0893 53.5682 13.0893C53.8558 13.0893 54.0702 12.9888 54.2105 12.7879C54.3511 12.5867 54.4213 12.2886 54.4213 11.8926C54.4213 11.0215 54.2876 10.4521 54.0205 10.1841C53.7464 9.91597 53.0712 9.46844 51.9953 8.84101C50.9193 8.20765 50.0716 7.74772 49.722 7.46125C49.3724 7.17477 49.0828 6.779 48.8534 6.2736C48.6238 5.76786 48.509 5.12261 48.509 4.33684C48.509 3.20384 48.672 2.19557 48.9973 1.67184C49.3228 1.14794 49.8489 0.73825 50.5753 0.44295C51.3017 0.14765 52.3142 0 53.3421 0C54.4661 0 55.4238 0.161227 56.2153 0.48436C57.0069 0.807493 57.5313 1.21379 57.7882 1.70409C58.0454 2.19456 58.1737 3.20723 58.1737 4.38283V4.96715H58.1733ZM64.3361 1.54099V3.00086H65.5015V4.91946H64.3361V11.8561C64.3361 12.6541 64.3823 13.0984 64.4748 13.1901C64.5674 13.2814 64.7729 13.3272 65.4515 13.3272V15.2823H63.7759C62.8301 15.2823 62.1551 15.2475 61.7507 15.1774C61.3463 15.1073 60.99 14.9459 60.6815 14.693C60.373 14.4402 60.1812 14.151 60.1057 13.8251C60.0302 13.4993 59.9926 12.7332 59.9926 11.5272V4.91963H59.0983V3.00086H59.9926V1.54099H64.3361V1.54099ZM75.9024 7.4156V10.3851C75.9024 11.4753 75.8408 12.2748 75.7174 12.7834C75.5938 13.2919 75.3301 13.7671 74.9258 14.2085C74.5214 14.6503 74.0026 14.976 73.3684 15.1861C72.7342 15.3962 72.0063 15.5014 71.1838 15.5014C70.2657 15.5014 69.4877 15.4114 68.8503 15.2319C68.213 15.052 67.7178 14.7811 67.365 14.4186C67.012 14.0563 66.7601 13.6176 66.6094 13.103C66.4585 12.5883 66.3832 11.8162 66.3832 10.7869V7.68052C66.3832 6.55363 66.5203 5.6735 66.7944 5.03979C67.0685 4.40608 67.5618 3.89796 68.2748 3.51407C68.9876 3.13052 69.8989 2.93858 71.0092 2.93858C71.9413 2.93858 72.7413 3.06196 73.4096 3.30855C74.078 3.55531 74.5935 3.87675 74.9567 4.27252C75.3199 4.66846 75.5684 5.07662 75.7021 5.49699C75.8355 5.9172 75.9024 6.55685 75.9024 7.4156V7.4156ZM71.7495 6.5022C71.7495 5.88088 71.7115 5.48953 71.6361 5.32813C71.5608 5.16673 71.3997 5.08595 71.153 5.08595C70.9064 5.08595 70.7417 5.16673 70.6596 5.32813C70.5775 5.48953 70.5362 5.88088 70.5362 6.5022V11.9749C70.5362 12.5474 70.5773 12.9202 70.6596 13.0942C70.7417 13.2676 70.903 13.3545 71.1428 13.3545C71.3895 13.3545 71.5523 13.2753 71.631 13.1169C71.71 12.9586 71.7493 12.6176 71.7493 12.0936V6.50237L71.7495 6.5022ZM81.2801 3.15801L81.2081 4.22703C81.5781 3.79461 81.9859 3.47181 82.4314 3.25848C82.8767 3.04532 83.3633 2.93875 83.8911 2.93875C86.3555 2.84948 87.2154 4.19869 87.245 6.5112V11.6185C87.245 12.721 87.1713 13.5052 87.024 13.9711C86.2077 15.5969 83.9756 15.8547 82.4108 15.1817C81.9721 14.9685 81.5713 14.6518 81.2081 14.2313V17.0089H77.0549V3.15801H81.2801ZM82.4623 6.68464C82.4623 5.9357 82.4314 5.48189 82.3698 5.32355C82.308 5.16521 82.1368 5.08595 81.8557 5.08595C81.5816 5.08595 81.4051 5.17743 81.3264 5.36021C81.2475 5.54282 81.2083 5.98458 81.2083 6.68498V11.7098C81.2083 12.4408 81.2493 12.8977 81.3316 13.0803C81.4138 13.263 81.592 13.3544 81.8662 13.3544C82.1334 13.3544 82.2997 13.2707 82.3647 13.1032C82.4297 12.9357 82.4623 12.529 82.4623 11.8833V6.68464V6.68464Z" fill="#FD0000"/>
<path fill-rule="evenodd" clip-rule="evenodd" d="M89.0453 1.71236C88.5776 1.71236 88.1984 2.09152 88.1984 2.55923C88.1984 3.02694 88.5776 3.4061 89.0453 3.4061C89.513 3.4061 89.8922 3.02694 89.8922 2.55923C89.8922 2.09152 89.513 1.71236 89.0453 1.71236ZM88.0903 2.55923C88.0903 2.03181 88.5179 1.60425 89.0453 1.60425C89.5727 1.60425 90.0003 2.03181 90.0003 2.55923C90.0003 3.08665 89.5727 3.51421 89.0453 3.51421C88.5179 3.51421 88.0903 3.08665 88.0903 2.55923Z" fill="#FF0000"/>
<path d="M88.635 3.10693V2.00635H89.1231C89.2212 2.00635 89.2959 2.01619 89.3468 2.03605C89.3979 2.05573 89.4386 2.0907 89.4691 2.14076C89.4997 2.19083 89.515 2.24598 89.515 2.30674C89.515 2.38481 89.4898 2.45066 89.4393 2.50412C89.3887 2.55757 89.3106 2.59186 89.2051 2.60628C89.2436 2.62478 89.273 2.64311 89.293 2.6611C89.3354 2.69996 89.3756 2.74901 89.4138 2.80739L89.6053 3.1071H89.4221L89.2765 2.87799C89.2341 2.8118 89.199 2.76123 89.1715 2.72627C89.144 2.69131 89.1192 2.6667 89.0975 2.65261C89.0771 2.63924 89.0546 2.62932 89.0309 2.62325C89.0041 2.61904 88.9768 2.61733 88.9496 2.61816H88.7808V3.10693H88.635V3.10693ZM88.7806 2.49207H89.0937C89.1604 2.49207 89.2125 2.48511 89.2499 2.47136C89.2851 2.45953 89.3152 2.43622 89.3356 2.40517C89.3551 2.37496 89.3649 2.34204 89.3649 2.30657C89.3649 2.25447 89.3463 2.21153 89.3083 2.1781C89.2702 2.14466 89.2107 2.12786 89.129 2.12786H88.7806V2.49207Z" fill="#FF0000"/>
</svg>
