<svg width="80" height="47" viewBox="0 0 80 47" fill="none" xmlns="http://www.w3.org/2000/svg">
<path d="M0 0.579272V20.7642H10.5677C14.7282 20.7642 18.5719 19.3048 18.5719 15.0163C18.5719 12.1167 16.482 10.7949 14.1874 10.1004C15.5859 9.54038 17.1733 8.35943 17.1733 5.88873C17.1733 2.72354 14.0337 0.579272 9.80601 0.579272H0ZM6.4744 5.28065H8.85549C9.82521 5.28065 10.5645 6.03915 10.5645 6.81044C10.5645 7.52733 9.79641 8.29222 8.85549 8.29222H6.4744V5.28065ZM6.4744 12.4815H9.61719C10.7149 12.4815 11.6334 13.3136 11.6334 14.2674C11.6334 15.2787 10.7725 16.1172 9.42516 16.1172H6.4744V12.4815ZM5.23585 22.966V43.1509H15.8036C19.9641 43.1509 23.8077 41.6915 23.8077 37.403C23.8077 34.5035 21.7179 33.1817 19.4232 32.4872C20.8218 31.9271 22.4092 30.7462 22.4092 28.2755C22.4092 25.1103 19.2696 22.966 15.0419 22.966H5.23585ZM11.7102 27.6674H14.0913C15.0611 27.6674 15.8004 28.4259 15.8004 29.1972C15.8004 29.9141 15.0323 30.679 14.0913 30.679H11.7102V27.6674ZM11.7102 34.8683H14.853C15.9508 34.8683 16.8693 35.7004 16.8693 36.6541C16.8693 37.6655 16.0084 38.504 14.661 38.504H11.7102V34.8683ZM19.0808 20.761V0.576071H35.3612V5.45027H25.536V8.097H33.5145V12.6672H25.536V15.906H35.3612V20.761H19.0808ZM44.1815 21.3402C48.7644 21.3402 52.4289 18.7255 52.4289 14.4914C52.4289 7.65535 43.535 8.70828 43.535 6.57681C43.535 5.75431 44.3991 5.31906 45.2856 5.31906C46.8154 5.31906 47.9195 6.32718 47.9195 6.32718L51.7472 2.68513C50.2174 1.22575 47.8011 0 44.5431 0C39.6529 0 36.4525 2.90276 36.4525 6.40399C36.4525 13.3264 45.2184 12.3215 45.2184 14.4946C45.2184 15.2563 44.4855 16.0212 43.1573 16.0212C41.6499 16.0212 40.453 15.1091 39.5249 14.3378L35.6748 18.0086C37.227 19.5192 39.7137 21.3402 44.1815 21.3402ZM57.4151 20.761V5.43107H52.0832V0.576071H69.2213V5.43107H63.8895V20.761H57.4151ZM24.0318 22.9532H30.487V35.0443C30.487 36.2733 31.7095 37.403 32.9833 37.403C34.1866 37.403 35.3996 36.3821 35.3996 34.9803V22.9532H41.8356V34.8971C41.8356 39.6369 37.8991 43.4166 32.8105 43.4166C27.693 43.4166 24.0286 39.3009 24.0286 34.6379L24.0318 22.9532ZM49.795 43.1381V35.9244L42.2068 22.9532H48.742L53.0338 29.9045L57.3415 22.9532H63.8863L56.2694 36.0012V43.1413H49.795V43.1381Z" fill="#1C252C"/>
<path d="M63.8893 33.9973L60.0808 37.8058V42.9488L63.8893 46.7573H80.0001V33.9973H63.8893Z" fill="#FFED31"/>
</svg>
