<svg width="25" height="30" viewBox="0 0 25 30" fill="none" xmlns="http://www.w3.org/2000/svg">
<path fill-rule="evenodd" clip-rule="evenodd" d="M20.9921 21.4366L12.4287 30L3.3368 20.9019C1.18508 18.5939 0 15.5848 0 12.4289C0 5.57555 5.57555 0 12.4289 0C19.2821 0 24.8577 5.57555 24.8577 12.4289C24.8577 15.5847 23.6726 18.5939 21.5207 20.9019L21.5138 20.9093C21.4989 20.9248 21.1512 21.2849 20.9921 21.4366ZM13.5941 2.98972C13.5941 2.5755 13.9298 2.23972 14.3441 2.23972C16.0173 2.23972 18.0397 3.12178 19.5598 4.41637L19.5599 4.41641C21.5124 6.0795 22.6081 8.35836 22.6081 10.829C22.6081 11.2432 22.2723 11.579 21.8581 11.579C21.4438 11.579 21.1081 11.2432 21.1081 10.829C21.1081 8.82436 20.2258 6.95407 18.5873 5.55835C17.2576 4.42591 15.5673 3.73972 14.3441 3.73972C13.9298 3.73972 13.5941 3.40393 13.5941 2.98972ZM12.4632 18.1488C9.14319 18.1488 6.44211 15.4478 6.44211 12.1279C6.44211 8.80792 9.14319 6.10693 12.4632 6.10693C15.7832 6.10693 18.4843 8.8079 18.4843 12.1278C18.4843 15.4478 15.7832 18.1488 12.4632 18.1488Z" fill="#51ADA6"/>
</svg>
