<svg width="16" height="16" viewBox="0 0 16 16" fill="none" xmlns="http://www.w3.org/2000/svg">
<g clip-path="url(#clip0)">
<path d="M12.249 6.36816H11.7803V4.49316C11.7803 2.42504 10.0984 0.743164 8.03027 0.743164C5.96215 0.743164 4.28027 2.42504 4.28027 4.49316V6.36816H3.81152C3.03652 6.36816 2.40527 6.99879 2.40527 7.77441V14.3369C2.40527 15.1125 3.03652 15.7432 3.81152 15.7432H12.249C13.024 15.7432 13.6553 15.1125 13.6553 14.3369V7.77441C13.6553 6.99879 13.024 6.36816 12.249 6.36816ZM5.53027 4.49316C5.53027 3.11441 6.65152 1.99316 8.03027 1.99316C9.40902 1.99316 10.5303 3.11441 10.5303 4.49316V6.36816H5.53027V4.49316ZM8.65527 11.1944V12.6182C8.65527 12.9632 8.3759 13.2432 8.03027 13.2432C7.68465 13.2432 7.40527 12.9632 7.40527 12.6182V11.1944C7.0334 10.9775 6.78027 10.5788 6.78027 10.1182C6.78027 9.42879 7.3409 8.86816 8.03027 8.86816C8.71965 8.86816 9.28027 9.42879 9.28027 10.1182C9.28027 10.5788 9.02715 10.9775 8.65527 11.1944Z" fill="#ABB2B1"/>
</g>
<defs>
<clipPath id="clip0">
<rect width="15" height="15" fill="white" transform="translate(0.530273 0.743164)"/>
</clipPath>
</defs>
</svg>
