<svg xmlns="http://www.w3.org/2000/svg" viewBox="0 0 64.07 64.1">
  <title>login</title>
  <path d="M37.53,56.1A25,25,0,0,1,25,62.9a25.23,25.23,0,0,0,3.8-27.8l11.4-11.4A25.22,25.22,0,0,1,37.53,56.1Z" fill="#a6d5d0"/>
  <g opacity="0.1">
    <g opacity="0.1">
      <path d="M31.33,44.4A25.44,25.44,0,0,1,25,62.8a23.08,23.08,0,0,0,7-2.7,25.46,25.46,0,0,0,3-13.7,48.18,48.18,0,0,0,9.6-4.5,38.66,38.66,0,0,0,.3-4.8A44.46,44.46,0,0,1,31.33,44.4Z" opacity="0.1" style="isolation: isolate"/>
    </g>
  </g>
  <path d="M7.83,26.4A26,26,0,0,0,1,39a25.23,25.23,0,0,1,27.8-3.8l11.4-11.4A25.09,25.09,0,0,0,7.83,26.4Z" fill="#51ada5" fill-opacity="0.5"/>
  <g opacity="0.1">
    <g opacity="0.1">
      <path d="M19.53,32.6A25.19,25.19,0,0,0,1,39a23.08,23.08,0,0,1,2.7-7,25.46,25.46,0,0,1,13.7-3,48.18,48.18,0,0,1,4.5-9.6,38.66,38.66,0,0,1,4.8-.3A44.64,44.64,0,0,0,19.53,32.6Z" opacity="0.1" style="isolation: isolate"/>
    </g>
  </g>
  <path d="M49.33,33.2a47.61,47.61,0,0,1-23.1,12.7L18,37.7a46,46,0,0,1,12.7-23.1A45.75,45.75,0,0,1,63,.9,45.75,45.75,0,0,1,49.33,33.2Z" fill="#fafdfc"/>
  <g opacity="0.1">
    <g opacity="0.1">
      <path d="M47.23,26.1a5,5,0,0,1-.7.8A6.72,6.72,0,0,1,37,17.4a5,5,0,0,1,.8-.7,6.73,6.73,0,0,0,9.4,9.4Z" opacity="0.1" style="isolation: isolate"/>
    </g>
  </g>
  <path d="M33,16.9A46.79,46.79,0,0,0,20.33,40L18,37.7a46,46,0,0,1,12.7-23.1A45.75,45.75,0,0,1,63,.9V3.2A47,47,0,0,0,33,16.9Z" fill="#a6d5d0"/>
  <g opacity="0.1">
    <g opacity="0.1">
      <path d="M49.33,33.2a46.79,46.79,0,0,1-23.1,12.7l-2.3-2.3A47.61,47.61,0,0,0,47,30.9,46.88,46.88,0,0,0,60.63.9H63A45.75,45.75,0,0,1,49.33,33.2Z" opacity="0.1" style="isolation: isolate"/>
    </g>
  </g>
  <path d="M61.13,13.4a13.14,13.14,0,0,1-7-3.6,12.48,12.48,0,0,1-3.6-7A39.54,39.54,0,0,1,63,.9,39.54,39.54,0,0,1,61.13,13.4Z" fill="#a6d5d0"/>
  <g opacity="0.1">
    <g opacity="0.1">
      <path d="M61.13,13.4a9.77,9.77,0,0,1-2.3-.6,35.26,35.26,0,0,0,1.8-9.6A40.86,40.86,0,0,0,51,5a8.65,8.65,0,0,1-.6-2.3A41.75,41.75,0,0,1,63,.9,39.54,39.54,0,0,1,61.13,13.4Z" opacity="0.1" style="isolation: isolate"/>
    </g>
  </g>
  <path d="M14.46,38.61l2.69-2.69L28,46.74l-2.68,2.68Z" fill="#a6d5d0"/>
  <g opacity="0.1">
    <g opacity="0.1">
      <path d="M15.76,37.26l1.35-1.35L27.92,46.73l-1.34,1.34Z" fill="#a6d5d0" opacity="0.1" style="isolation: isolate"/>
    </g>
  </g>
  <path d="M13.31,43.69l3.19-3.18,6.85,6.86-3.18,3.18Z" fill="#a6d5d0"/>
  <g opacity="0.1">
    <g opacity="0.1">
      <path d="M15.05,41.94,16.4,40.6l6.86,6.85L21.91,48.8Z" fill="#336262" opacity="0.1" style="isolation: isolate"/>
    </g>
  </g>
  <path d="M64,.9a.9.9,0,0,0-.9-.9h-.5c-12.3-.2-27,6.3-36.3,18.2A26.07,26.07,0,0,0,0,38.7a1,1,0,0,0,.5,1.1c.2.1.3.2.5.2a1.08,1.08,0,0,0,.7-.3,23.6,23.6,0,0,1,16.4-6.1,8.33,8.33,0,0,0-.4,1.5c-.2-.1-.3-.2-.5-.2a.91.91,0,0,0-.7.3l-2.7,2.7a1,1,0,0,0,0,1.4l1.3,1.3-2.5,2.5a1,1,0,0,0,0,1.4l6.9,6.9a1,1,0,0,0,1.4,0l2.4-2.4,1.3,1.3a1,1,0,0,0,1.4,0l2.7-2.7a.92.92,0,0,0,.1-1.2c.5-.1,1-.3,1.5-.4a23.7,23.7,0,0,1-6.2,16.4,1,1,0,0,0,.8,1.7h.2a26.29,26.29,0,0,0,20.7-26.3C58.43,27.8,64.63,12.2,64,.9Zm-2,1v.5a46.35,46.35,0,0,1-1.6,9.8,12,12,0,0,1-8.7-8.7A42.48,42.48,0,0,1,62,1.9ZM2.83,36.3a24.26,24.26,0,0,1,21.9-16.2,49,49,0,0,0-6,11.5A24.8,24.8,0,0,0,2.83,36.3Zm17.4,12.9-5.5-5.5,1.7-1.7,5.5,5.5Zm5.1-1.2-9.4-9.4,1.3-1.3,9.4,9.4A15.62,15.62,0,0,1,25.33,48Zm2.3,13.1a26.34,26.34,0,0,0,4.7-16,46.84,46.84,0,0,0,11.5-6A24.17,24.17,0,0,1,27.63,61.1Zm-.4-16.5-7.9-7.9A45.86,45.86,0,0,1,49.83,4.1a14.14,14.14,0,0,0,10.1,10.1A46.38,46.38,0,0,1,27.23,44.6Z" fill="#51ada6"/>
  <path d="M46.53,25.3a5.66,5.66,0,1,1,0-8A5.58,5.58,0,0,1,46.53,25.3Z" fill="#51ada6"/>
  <g opacity="0.4">
    <g opacity="0.4">
      <path d="M47.93,19.7,37,22.7a5.46,5.46,0,0,1,.1-3.1l9-2.5.3.3A3.89,3.89,0,0,1,47.93,19.7Z" fill="#51ada6" fill-opacity="0.5" opacity="0.4" style="isolation: isolate"/>
    </g>
    <g opacity="0.4">
      <path d="M47.93,23.1l-9,2.5-.3-.3a4.44,4.44,0,0,1-.8-1.1l10.5-2.9A11.63,11.63,0,0,1,47.93,23.1Z" fill="#51ada6" fill-opacity="0.5" opacity="0.4" style="isolation: isolate"/>
    </g>
  </g>
  <path d="M42.53,28a6.6,6.6,0,1,1,4.7-1.9A7,7,0,0,1,42.53,28Zm.1-11.3a4.7,4.7,0,1,0,3.3,1.4A5.09,5.09,0,0,0,42.63,16.7Z" fill="#51ada6"/>
</svg>
