<svg width="117" height="23" viewBox="0 0 117 23" fill="none" xmlns="http://www.w3.org/2000/svg">
<path d="M3.072 17.088V9.76796H10.608V17.088H13.68V0.287964H10.608V7.27196H3.072V0.287964H0V17.088H3.072ZM21.624 22.368L29.184 5.18396H25.92L22.44 13.56L19.104 5.18396H15.768L20.4 16.296H21.12L18.36 22.368H21.624ZM34.272 22.368V15.456C34.688 16.064 35.232 16.536 35.904 16.872C36.576 17.208 37.36 17.376 38.256 17.376C39.376 17.376 40.376 17.108 41.256 16.572C42.136 16.036 42.832 15.3 43.344 14.364C43.856 13.428 44.112 12.36 44.112 11.16C44.112 9.95996 43.856 8.88796 43.344 7.94396C42.832 6.99996 42.136 6.25596 41.256 5.71196C40.376 5.16796 39.376 4.89596 38.256 4.89596C37.248 4.89596 36.428 5.09596 35.796 5.49596C35.164 5.89596 34.656 6.35996 34.272 6.88796L33.936 5.18396H31.2V22.368H34.272ZM37.608 14.688C36.616 14.688 35.804 14.356 35.172 13.692C34.54 13.028 34.224 12.176 34.224 11.136C34.224 10.096 34.54 9.24396 35.172 8.57996C35.804 7.91596 36.616 7.58396 37.608 7.58396C38.584 7.58396 39.392 7.91996 40.032 8.59196C40.672 9.26396 40.992 10.12 40.992 11.16C40.992 12.2 40.672 13.048 40.032 13.704C39.392 14.36 38.584 14.688 37.608 14.688ZM52.632 17.376C53.592 17.376 54.452 17.2 55.212 16.848C55.972 16.496 56.612 16.012 57.132 15.396C57.652 14.78 58.024 14.096 58.248 13.344H55.128C54.92 13.792 54.604 14.156 54.18 14.436C53.756 14.716 53.232 14.856 52.608 14.856C51.776 14.856 51.068 14.592 50.484 14.064C49.9 13.536 49.576 12.808 49.512 11.88H58.56C58.576 11.672 58.588 11.472 58.596 11.28C58.604 11.088 58.608 10.904 58.608 10.728C58.608 9.63996 58.356 8.65196 57.852 7.76396C57.348 6.87596 56.648 6.17596 55.752 5.66396C54.856 5.15196 53.824 4.89596 52.656 4.89596C51.408 4.89596 50.324 5.16396 49.404 5.69996C48.484 6.23596 47.764 6.98396 47.244 7.94396C46.724 8.90396 46.464 9.99996 46.464 11.232C46.464 12.448 46.728 13.52 47.256 14.448C47.784 15.376 48.512 16.096 49.44 16.608C50.368 17.12 51.432 17.376 52.632 17.376ZM55.488 9.95996H49.56C49.72 9.09596 50.088 8.45196 50.664 8.02796C51.24 7.60396 51.904 7.39196 52.656 7.39196C53.44 7.39196 54.096 7.62396 54.624 8.08796C55.152 8.55196 55.44 9.17596 55.488 9.95996ZM64.272 17.088V11.664C64.272 10.752 64.42 10.04 64.716 9.52796C65.012 9.01596 65.424 8.65596 65.952 8.44796C66.48 8.23996 67.08 8.13596 67.752 8.13596H68.616V4.89596C67.608 4.89596 66.732 5.12396 65.988 5.57996C65.244 6.03596 64.656 6.64796 64.224 7.41596L63.936 5.18396H61.2V17.088H64.272Z" fill="#00B0A7"/>
<path d="M78.288 17.376C80.208 17.376 81.772 16.92 82.98 16.008C84.188 15.096 84.96 13.832 85.296 12.216H83.064C82.808 13.24 82.284 14.06 81.492 14.676C80.7 15.292 79.632 15.6 78.288 15.6C77.088 15.6 76.04 15.324 75.144 14.772C74.248 14.22 73.556 13.428 73.068 12.396C72.58 11.364 72.336 10.128 72.336 8.688C72.336 7.248 72.58 6.012 73.068 4.98C73.556 3.948 74.248 3.156 75.144 2.604C76.04 2.052 77.088 1.776 78.288 1.776C79.632 1.776 80.7 2.092 81.492 2.724C82.284 3.356 82.808 4.192 83.064 5.232H85.296C84.96 3.584 84.188 2.3 82.98 1.38C81.772 0.46 80.208 0 78.288 0C76.64 0 75.22 0.368 74.028 1.104C72.836 1.84 71.912 2.86 71.256 4.164C70.6 5.468 70.272 6.976 70.272 8.688C70.272 10.416 70.6 11.932 71.256 13.236C71.912 14.54 72.836 15.556 74.028 16.284C75.22 17.012 76.64 17.376 78.288 17.376ZM92.04 17.376C93.128 17.376 93.996 17.14 94.644 16.668C95.292 16.196 95.784 15.624 96.12 14.952L96.24 17.088H98.04V9.768C98.04 8.296 97.62 7.116 96.78 6.228C95.94 5.34 94.688 4.896 93.024 4.896C92.176 4.896 91.376 5.052 90.624 5.364C89.872 5.676 89.244 6.128 88.74 6.72C88.236 7.312 87.944 8.04 87.864 8.904H89.928C90.072 8.152 90.428 7.58 90.996 7.188C91.564 6.796 92.24 6.6 93.024 6.6C93.936 6.6 94.664 6.868 95.208 7.404C95.752 7.94 96.024 8.728 96.024 9.768V9.912H92.808C91.208 9.912 89.944 10.24 89.016 10.896C88.088 11.552 87.624 12.488 87.624 13.704C87.624 14.36 87.784 14.968 88.104 15.528C88.424 16.088 88.912 16.536 89.568 16.872C90.224 17.208 91.048 17.376 92.04 17.376ZM92.352 15.672C91.52 15.672 90.876 15.484 90.42 15.108C89.964 14.732 89.736 14.232 89.736 13.608C89.736 13 89.98 12.492 90.468 12.084C90.956 11.676 91.792 11.472 92.976 11.472H96.024V11.496C96.024 12.2 95.88 12.872 95.592 13.512C95.304 14.152 94.884 14.672 94.332 15.072C93.78 15.472 93.12 15.672 92.352 15.672ZM103.08 17.088V11.088C103.08 10.048 103.256 9.232 103.608 8.64C103.96 8.048 104.432 7.628 105.024 7.38C105.616 7.132 106.264 7.008 106.968 7.008H107.52V4.896C106.416 4.896 105.488 5.128 104.736 5.592C103.984 6.056 103.424 6.68 103.056 7.464L102.888 5.184H101.064V17.088H103.08ZM116.304 17.088V15.36H115.056C114.288 15.36 113.752 15.228 113.448 14.964C113.144 14.7 112.992 14.192 112.992 13.44V6.888H116.496V5.184H112.992V2.328H111.24L110.976 5.184H108.912V6.888H110.976V13.44C110.976 14.816 111.288 15.768 111.912 16.296C112.536 16.824 113.392 17.088 114.48 17.088H116.304Z" fill="#15171F"/>
</svg>
