<svg xmlns="http://www.w3.org/2000/svg" width="143" height="28" viewBox="0 0 143 28"><g><g><g><g><path fill="#00b0a7" d="M0 20.906V.35h3.759v8.546h9.22V.35h3.76v20.556h-3.76V11.95H3.76v8.956zm22.465 6.46l3.377-7.429h-.88L19.293 6.341h4.082l4.081 10.248 4.259-10.248h3.993l-9.25 21.026zm15.711 0V6.342h3.348l.41 2.085c.47-.646 1.092-1.214 1.866-1.704.773-.489 1.776-.734 3.01-.734 1.37 0 2.594.333 3.67.999 1.077.665 1.929 1.576 2.555 2.73.627 1.156.94 2.468.94 3.936s-.313 2.775-.94 3.92c-.626 1.146-1.478 2.046-2.555 2.702-1.076.656-2.3.984-3.67.984-1.097 0-2.056-.206-2.878-.617a5.187 5.187 0 0 1-1.997-1.733v8.458zm10.807-10.6c.783-.803 1.175-1.84 1.175-3.113s-.392-2.32-1.175-3.142c-.783-.823-1.772-1.234-2.966-1.234-1.214 0-2.208.407-2.98 1.219-.774.812-1.16 1.855-1.16 3.127 0 1.273.386 2.316 1.16 3.128.772.812 1.766 1.219 2.98 1.219 1.194 0 2.183-.402 2.966-1.204zm11.511 3.553a6.802 6.802 0 0 1-2.672-2.643c-.646-1.135-.969-2.447-.969-3.935 0-1.508.318-2.849.954-4.023a6.929 6.929 0 0 1 2.643-2.746c1.126-.656 2.452-.984 3.98-.984 1.429 0 2.691.314 3.788.94a6.749 6.749 0 0 1 2.57 2.57c.616 1.086.924 2.295.924 3.626 0 .216-.005.44-.014.676-.01.235-.025.48-.044.734H60.581c.079 1.135.475 2.026 1.19 2.672.714.646 1.58.97 2.599.97.763 0 1.404-.172 1.923-.515a3.185 3.185 0 0 0 1.16-1.336h3.818a6.92 6.92 0 0 1-1.366 2.511 6.73 6.73 0 0 1-2.35 1.777c-.929.43-1.981.646-3.156.646-1.468 0-2.77-.314-3.906-.94zm7.4-8.134c-.058-.96-.41-1.723-1.057-2.291-.646-.568-1.448-.852-2.408-.852-.92 0-1.732.26-2.437.779-.705.518-1.155 1.306-1.35 2.364zm6.99 8.721V6.341h3.348l.352 2.73a6.095 6.095 0 0 1 2.158-2.246c.91-.558 1.983-.837 3.216-.837v3.965h-1.057c-.822 0-1.557.127-2.203.382a2.967 2.967 0 0 0-1.512 1.321c-.362.627-.543 1.498-.543 2.614v6.636z"/></g><g><path fill="#fff" d="M90.576 19.925c-1.459-.89-2.59-2.134-3.392-3.73-.803-1.595-1.204-3.45-1.204-5.564 0-2.095.401-3.94 1.204-5.536.803-1.596 1.933-2.844 3.392-3.744C92.034.45 93.772 0 95.788 0c2.35 0 4.263.563 5.741 1.689 1.479 1.125 2.423 2.696 2.834 4.713h-2.73c-.314-1.273-.955-2.296-1.924-3.069-.97-.773-2.276-1.16-3.92-1.16-1.469 0-2.751.338-3.848 1.013-1.096.676-1.943 1.645-2.54 2.907-.597 1.263-.896 2.776-.896 4.538 0 1.762.3 3.274.896 4.537.597 1.262 1.444 2.232 2.54 2.907 1.097.675 2.379 1.013 3.847 1.013 1.645 0 2.952-.377 3.92-1.13.97-.754 1.61-1.758 1.924-3.01h2.731c-.41 1.977-1.355 3.523-2.834 4.64-1.478 1.115-3.391 1.673-5.74 1.673-2.017 0-3.755-.445-5.213-1.336zm19.014.72c-.802-.412-1.4-.96-1.79-1.645a4.421 4.421 0 0 1-.588-2.232c0-1.488.567-2.633 1.703-3.436 1.135-.802 2.682-1.204 4.64-1.204h3.935v-.176c0-1.272-.333-2.237-.999-2.893-.665-.655-1.556-.983-2.672-.983-.96 0-1.786.24-2.481.72-.695.479-1.13 1.179-1.307 2.099h-2.526c.098-1.057.456-1.948 1.072-2.672a5.99 5.99 0 0 1 2.306-1.66 7.587 7.587 0 0 1 2.936-.572c2.036 0 3.568.543 4.596 1.63 1.028 1.086 1.542 2.53 1.542 4.331v8.957h-2.203l-.147-2.614c-.41.822-1.013 1.522-1.806 2.1-.792.577-1.855.866-3.186.866-1.214 0-2.222-.205-3.025-.617zm5.83-2.203a4.687 4.687 0 0 0 1.541-1.909 5.945 5.945 0 0 0 .529-2.467v-.029h-3.73c-1.448 0-2.471.25-3.068.749-.597.5-.896 1.12-.896 1.865 0 .763.279 1.375.837 1.835.558.46 1.346.69 2.364.69.94 0 1.747-.245 2.423-.734zm8.237 2.467V6.343h2.232l.205 2.79a5.28 5.28 0 0 1 2.056-2.29c.92-.568 2.055-.852 3.406-.852v2.584h-.675c-.862 0-1.654.152-2.379.455-.724.304-1.302.817-1.732 1.542-.431.724-.646 1.723-.646 2.995v7.342zm16.415 0c-1.33 0-2.378-.323-3.142-.97-.763-.645-1.145-1.81-1.145-3.494V8.428h-2.525V6.343h2.525l.323-3.494h2.144v3.494h4.287v2.085h-4.287v8.017c0 .92.186 1.542.558 1.865.372.323 1.028.484 1.967.484h1.527v2.115z"/></g></g></g></g></svg>