<svg width="28" height="20" viewBox="0 0 28 20" fill="none" xmlns="http://www.w3.org/2000/svg">
<path d="M24.9375 0H3.0625C1.37113 0 0 1.37113 0 3.0625V16.1875C0 17.8789 1.37113 19.25 3.0625 19.25H24.9375C26.6289 19.25 28 17.8789 28 16.1875V3.0625C28 1.37113 26.6289 0 24.9375 0Z" fill="#51ADA6"/>
<path d="M26.0543 16.1015L17.8102 9.1884L25.6344 2.62765C25.7216 2.55259 25.7758 2.44618 25.7851 2.33148C25.7945 2.21677 25.7582 2.10301 25.6843 2.01483C25.6103 1.92666 25.5046 1.87118 25.39 1.86041C25.2754 1.84964 25.1612 1.88446 25.0721 1.95731L14 11.2411L2.92795 1.95731C2.83886 1.88446 2.72465 1.84964 2.61007 1.86041C2.49549 1.87118 2.38977 1.92666 2.31581 2.01483C2.24185 2.10301 2.20561 2.21677 2.21494 2.33148C2.22428 2.44618 2.27844 2.55259 2.36568 2.62765L10.1899 9.1884L1.94572 16.1015C1.90074 16.1381 1.86348 16.1833 1.83611 16.2344C1.80875 16.2856 1.79183 16.3417 1.78633 16.3994C1.78084 16.4571 1.78687 16.5154 1.8041 16.5708C1.82132 16.6262 1.84939 16.6776 1.88666 16.722C1.92393 16.7664 1.96966 16.803 2.0212 16.8296C2.07274 16.8562 2.12906 16.8723 2.18687 16.8769C2.24469 16.8816 2.30285 16.8747 2.35797 16.8566C2.41309 16.8386 2.46407 16.8098 2.50795 16.7718L10.8708 9.75934L13.7189 12.1476C13.7977 12.2136 13.8972 12.2498 14 12.2498C14.1029 12.2498 14.2024 12.2136 14.2812 12.1476L17.1293 9.75934L25.4921 16.7718C25.536 16.8098 25.587 16.8386 25.6421 16.8566C25.6972 16.8747 25.7554 16.8816 25.8132 16.8769C25.871 16.8723 25.9273 16.8562 25.9789 16.8296C26.0304 16.803 26.0761 16.7664 26.1134 16.722C26.1507 16.6776 26.1787 16.6262 26.196 16.5708C26.2132 16.5154 26.2192 16.4571 26.2137 16.3994C26.2082 16.3417 26.1913 16.2856 26.1639 16.2344C26.1366 16.1833 26.0993 16.1381 26.0543 16.1015V16.1015Z" fill="white" fill-opacity="0.5"/>
</svg>
