<svg width="28" height="28" viewBox="0 0 28 28" fill="none" xmlns="http://www.w3.org/2000/svg">
<path d="M26.2267 17.9911C28.6072 20.3704 28.5888 24.2435 26.1846 26.6465C18.7975 34.0298 -5.98808 9.13845 1.33934 1.81476C3.74436 -0.589035 7.61869 -0.606609 9.99924 1.77273C12.3798 4.15207 12.3622 8.02519 9.9572 10.4282C9.78443 10.6017 9.43812 10.9294 9.25006 11.0754L16.9162 18.7376C17.0653 18.5518 17.3902 18.2035 17.5637 18.03C19.968 15.6269 23.8461 15.6117 26.2267 17.9911Z" fill="#51ADA6"/>
<path d="M9.38922 6.88898C9.53693 6.74126 9.53693 6.5018 9.38922 6.35416L5.64551 2.61044C5.49795 2.4628 5.25834 2.4628 5.11078 2.61044C4.96307 2.75816 4.96307 2.99762 5.11078 3.14526L8.85449 6.88898C8.92831 6.9628 9.02512 6.99971 9.12185 6.99971C9.21859 6.99971 9.3154 6.9628 9.38922 6.88898V6.88898Z" fill="white"/>
<path d="M21.6455 18.6111C21.498 18.4634 21.2583 18.4634 21.1108 18.6111C20.9631 18.7587 20.9631 18.9982 21.1108 19.1458L24.8545 22.8895C25.002 23.0372 25.2417 23.0372 25.3892 22.8895C25.5369 22.7419 25.5369 22.5024 25.3892 22.3548L21.6455 18.6111Z" fill="white"/>
</svg>
