<svg width="70" height="57" viewBox="0 0 70 57" fill="none" xmlns="http://www.w3.org/2000/svg">
<path d="M2 15.8432L10.4255 55.8H60.9787L68 15.8432L48.3404 28.6865L35.7021 3L21.6596 28.6865L2 15.8432Z" fill="#51ADA6" fill-opacity="0.15"/>
<path d="M2 15.8432L10.4255 55.8H60.9787L68 15.8432L48.3404 28.6865L35.7021 3L21.6596 28.6865L2 15.8432Z" stroke="#51ADA6" stroke-width="2"/>
<path d="M27.5 36L29.2193 40.1336L33.6819 40.4914L30.2818 43.4039L31.3206 47.7586L27.5 45.425L23.6794 47.7586L24.7182 43.4039L21.3181 40.4914L25.7807 40.1336L27.5 36Z" fill="#51ADA6"/>
<path d="M43.5 36L45.2193 40.1336L49.6819 40.4914L46.2818 43.4039L47.3206 47.7586L43.5 45.425L39.6794 47.7586L40.7182 43.4039L37.3181 40.4914L41.7807 40.1336L43.5 36Z" fill="#51ADA6"/>
</svg>
