<svg width="65" height="65" viewBox="0 0 65 65" fill="none" xmlns="http://www.w3.org/2000/svg">
<path d="M37.5254 56.2001C33.9254 59.8001 29.6254 62.0001 25.0254 63.0001C31.9254 55.2001 33.2254 44.2001 28.8254 35.2001L40.2254 23.8C47.2254 33.7 46.3254 47.4001 37.5254 56.2001Z" fill="#336262"/>
<g opacity="0.1">
<g opacity="0.1">
<path opacity="0.1" d="M31.3254 44.5001C31.7254 51.0001 29.6254 57.7001 25.0254 62.9001C27.4254 62.4001 29.8254 61.5001 32.0254 60.2001C34.3254 55.9001 35.3254 51.2001 35.0254 46.5001C38.0254 45.5001 41.3254 44.0001 44.6254 42.0001C44.8254 40.4001 44.9254 38.8001 44.9254 37.2001C40.2254 40.9001 35.5254 43.1001 31.3254 44.5001Z" fill="black"/>
</g>
</g>
<path d="M7.82539 26.5C4.32539 30.1 2.02539 34.5 1.02539 39.1C8.82539 32.2 19.8254 30.9 28.8254 35.3L40.2254 23.9C30.3254 16.8 16.6254 17.7 7.82539 26.5Z" fill="#51ADA5" fill-opacity="0.5"/>
<g opacity="0.1">
<g opacity="0.1">
<path opacity="0.1" d="M19.5254 32.6969C12.9254 32.2969 6.22539 34.3969 1.02539 39.0969C1.52539 36.6969 2.42539 34.2969 3.72539 32.0969C8.02539 29.7969 12.7254 28.7969 17.4254 29.0969C18.4254 26.0969 19.9254 22.7969 21.9254 19.4969C23.5254 19.2969 25.1254 19.1969 26.7254 19.1969C23.1254 23.7969 20.9254 28.4969 19.5254 32.6969Z" fill="black"/>
</g>
</g>
<path d="M49.3254 33.2999C41.4254 41.1999 32.6254 44.4999 26.2254 45.9999L18.0254 37.7999C19.4254 31.3999 22.7254 22.5999 30.7254 14.6999C45.4254 -6.2108e-05 63.0254 0.999938 63.0254 0.999938C63.0254 0.999938 64.0254 18.5999 49.3254 33.2999Z" fill="#112A28"/>
<g opacity="0.1">
<g opacity="0.1">
<path opacity="0.1" d="M47.2252 26.1999C47.0252 26.4999 46.8252 26.6999 46.5252 26.9999C43.9252 29.5999 39.6252 29.5999 37.0252 26.9999C34.4252 24.3999 34.4252 20.0999 37.0252 17.4999C37.3252 17.1999 37.5252 16.9999 37.8252 16.7999C35.9252 19.3999 36.1252 23.0999 38.5252 25.4999C40.9252 27.8999 44.6252 28.0999 47.2252 26.1999Z" fill="black"/>
</g>
</g>
<path d="M33.0254 16.9999C25.1254 24.8999 21.7254 33.6999 20.3254 40.0999L18.0254 37.7999C19.4254 31.3999 22.7254 22.5999 30.7254 14.6999C45.4254 -6.2108e-05 63.0254 0.999938 63.0254 0.999938C63.0254 0.999938 63.0254 1.89994 63.0254 3.29994C57.7254 3.59994 44.4254 5.59994 33.0254 16.9999Z" fill="#1E2E33"/>
<g opacity="0.1">
<g opacity="0.1">
<path opacity="0.1" d="M49.3258 33.3C41.4258 41.2 32.6258 44.6 26.2258 46L23.9258 43.7C30.3258 42.2 39.1258 38.9 47.0258 31C58.4258 19.5 60.3258 6.3 60.6258 1H63.0258C63.0258 1 64.0258 18.6 49.3258 33.3Z" fill="black"/>
</g>
</g>
<path d="M61.1254 13.5C58.5254 13.1 56.1254 11.8 54.1254 9.89998C52.1254 7.89998 50.9254 5.49998 50.5254 2.89998C57.7254 0.699982 63.0254 0.999982 63.0254 0.999982C63.0254 0.999982 63.3254 6.29998 61.1254 13.5Z" fill="#336262"/>
<g opacity="0.1">
<g opacity="0.1">
<path opacity="0.1" d="M61.1258 13.4999C60.3258 13.3999 59.6258 13.1999 58.8258 12.8999C60.6258 7.19992 60.6258 3.29992 60.6258 3.29992C60.6258 3.29992 56.7258 3.39992 51.0258 5.09992C50.7258 4.39992 50.5258 3.59992 50.4258 2.79992C57.7258 0.699922 63.0258 0.999922 63.0258 0.999922C63.0258 0.999922 63.3258 6.29992 61.1258 13.4999Z" fill="black"/>
</g>
</g>
<path d="M14.459 38.7006L17.1456 36.014L27.9627 46.8311L25.2761 49.5177L14.459 38.7006Z" fill="#1E2E33"/>
<g opacity="0.1">
<g opacity="0.1">
<path opacity="0.1" d="M15.7637 37.3514L17.107 36.0081L27.9241 46.8252L26.5808 48.1685L15.7637 37.3514Z" fill="#1E2E33"/>
</g>
</g>
<path d="M13.3145 43.7869L16.496 40.6054L23.3539 47.4633L20.1724 50.6448L13.3145 43.7869Z" fill="#336262"/>
<g opacity="0.1">
<g opacity="0.1">
<path opacity="0.1" d="M15.0537 42.0358L16.397 40.6925L23.2549 47.5504L21.9116 48.8937L15.0537 42.0358Z" fill="#336262"/>
</g>
</g>
<path d="M64.0255 0.999941C64.0255 0.499941 63.6255 0.0999409 63.1255 0.0999409H63.0255C63.0255 0.0999409 62.8255 0.0999409 62.6255 0.0999409C50.3255 -0.100059 35.6255 6.39994 26.3255 18.2999C13.9255 17.8999 2.82548 26.2999 0.0254834 38.7999C-0.0745166 39.1999 0.125483 39.6999 0.525483 39.8999C0.725483 40 0.825483 40.0999 1.02548 40.0999C1.22548 40.0999 1.52548 39.9999 1.72548 39.7999C6.32548 35.6999 12.2255 33.4999 18.1255 33.6999C17.9255 34.1999 17.8255 34.6999 17.7255 35.1999C17.5255 35.0999 17.4255 34.9999 17.2255 34.9999C16.9255 34.9999 16.7255 35.0999 16.5255 35.2999L13.8255 37.9999C13.4255 38.3999 13.4255 39 13.8255 39.3999L15.1255 40.6999L12.6255 43.1999C12.2255 43.5999 12.2255 44.1999 12.6255 44.5999L19.5255 51.5C19.7255 51.6999 19.9255 51.7999 20.2255 51.7999C20.5255 51.7999 20.7255 51.6999 20.9255 51.5L23.3255 49.0999L24.6255 50.4C24.8255 50.5999 25.0255 50.7 25.3255 50.7C25.6255 50.7 25.8255 50.5999 26.0255 50.4L28.7255 47.6999C29.0255 47.3999 29.1255 46.7999 28.8255 46.4999C29.3255 46.3999 29.8255 46.1999 30.3255 46.0999C30.4255 51.9999 28.3255 57.8999 24.1255 62.5C23.8255 62.7999 23.8255 63.2999 24.0255 63.6999C24.2255 63.9999 24.5255 64.1999 24.9255 64.1999H25.1255C37.5255 61.4999 46.1255 50.4 45.8255 37.8999C58.4255 27.8999 64.6255 12.2999 64.0255 0.999941ZM62.0255 1.99994V2.49994C61.9255 4.39994 61.6255 7.89994 60.4255 12.2999C56.1255 11.1999 52.8255 7.89994 51.7255 3.59994C56.5255 2.29994 60.3255 1.99994 62.0255 1.99994ZM2.82548 36.3999C6.12548 26.9999 14.8255 20.5999 24.7255 20.1999C21.9255 24.1999 20.0255 28.0999 18.7255 31.6999C13.1255 31.3999 7.52548 32.9999 2.82548 36.3999ZM20.2255 49.2999L14.7255 43.7999L16.4255 42.0999C16.5255 42.1999 22.2255 47.8999 21.9255 47.5999L20.2255 49.2999ZM25.3255 48.0999C23.6255 46.3999 15.4255 38.1999 15.9255 38.6999C16.0255 38.5999 17.3255 37.2999 17.2255 37.3999L26.6255 46.7999C26.5255 46.9999 25.2255 48.1999 25.3255 48.0999ZM27.6255 61.2C30.9255 56.5 32.5255 50.7999 32.3255 45.1999C36.2255 43.7999 40.2255 41.7999 43.8255 39.1999C43.5255 49.2999 36.9255 57.9 27.6255 61.2ZM27.2255 44.6999L19.3255 36.7999C22.9255 21.9999 34.2255 9.19994 49.8255 4.19994C51.1255 9.09994 54.9255 12.9999 59.9255 14.2999C55.0255 29.0999 42.8255 40.7999 27.2255 44.6999Z" fill="#51ADA6"/>
<path d="M46.525 25.4C44.325 27.6 40.725 27.6 38.525 25.4C36.325 23.2 36.325 19.6 38.525 17.4C40.725 15.2 44.325 15.2 46.525 17.4C48.825 19.7 48.725 23.2 46.525 25.4Z" fill="#51ADA6"/>
<g opacity="0.4">
<g opacity="0.4">
<path opacity="0.4" d="M47.9259 19.7999L37.0259 22.7999C36.7259 21.7999 36.8259 20.6999 37.1259 19.7L46.1259 17.2C46.2259 17.3 46.3259 17.4 46.4259 17.5C47.2259 18.1 47.7259 18.8999 47.9259 19.7999Z" fill="#51ADA6" fill-opacity="0.5"/>
</g>
<g opacity="0.4">
<path opacity="0.4" d="M47.9262 23.2L38.9262 25.7C38.8262 25.6 38.7262 25.5 38.6262 25.4C38.3262 25.1 38.0262 24.7 37.8262 24.3L48.3262 21.4C48.2262 22 48.1262 22.6 47.9262 23.2Z" fill="#51ADA6" fill-opacity="0.5"/>
</g>
</g>
<path d="M42.525 28.1C40.825 28.1 39.125 27.5 37.825 26.2C35.225 23.6 35.225 19.4 37.825 16.8C40.425 14.2 44.625 14.2 47.225 16.8C49.825 19.4 49.825 23.6 47.225 26.2C45.925 27.4 44.225 28.1 42.525 28.1ZM42.625 16.8C41.425 16.8 40.225 17.3 39.325 18.2C37.525 20 37.525 23 39.325 24.8C41.125 26.6 44.025 26.6 45.925 24.8C47.725 23 47.725 20 45.925 18.2C44.925 17.3 43.725 16.8 42.625 16.8Z" fill="#51ADA6"/>
</svg>
