<svg width="68" height="65" viewBox="0 0 68 65" fill="none" xmlns="http://www.w3.org/2000/svg">
<path d="M21.9092 53.5229H21.9402V53.5539L21.9092 53.5229Z" fill="#919191"/>
<path d="M53.8668 17.7737L53.8714 17.7774L59.6799 22.4772V25.7386V56.1931C59.6686 57.1505 59.4691 58.0964 59.0928 58.9769C58.7158 59.8591 58.1688 60.6583 57.4829 61.329C56.797 61.9997 55.9857 62.5288 55.0953 62.8859C54.205 63.2431 53.253 63.4213 52.2937 63.4105V63.4105H52.2825H40.5693C40.4236 63.4105 40.2839 63.3526 40.1809 63.2496C40.0779 63.1465 40.02 63.0068 40.02 62.8611V47.3797C40.0376 46.6175 39.9007 45.8596 39.6175 45.1516C39.335 44.4454 38.9128 43.8035 38.3763 43.2645C37.8654 42.7183 37.2478 42.2828 36.5616 41.985C35.8696 41.6847 35.1229 41.531 34.3685 41.5336L34.3606 41.5336L34.3527 41.5338C33.5946 41.5484 32.8469 41.7122 32.1522 42.0159C31.4575 42.3196 30.8294 42.7571 30.3038 43.3036C29.7783 43.85 29.3655 44.4947 29.0891 45.2007C28.814 45.9035 28.6794 46.6534 28.6929 47.408V62.8921C28.6929 63.0378 28.635 63.1775 28.532 63.2805C28.429 63.3836 28.2892 63.4414 28.1435 63.4414H16.4614H16.454L16.4465 63.4416C15.4809 63.456 14.5219 63.2796 13.6247 62.9225C12.7274 62.5654 11.9094 62.0347 11.2178 61.3608C10.5261 60.6868 9.9743 59.8829 9.59404 58.9953C9.21449 58.1092 9.0133 57.157 9.00195 56.1932V25.6766V22.4767L34.103 2.12862L34.1112 2.12203L34.1191 2.11528C34.2071 2.04084 34.3187 2 34.4339 2C34.5492 2 34.6607 2.04084 34.7487 2.11528L34.7547 2.1204L34.7609 2.12544L53.8668 17.7737Z" fill="#112A28" stroke="#51ADA6" stroke-width="2"/>
<path d="M2 28L34.5 2L66.5 28" stroke="#51ADA6" stroke-width="2.2" stroke-linecap="round" stroke-linejoin="round"/>
</svg>
