<svg width="16" height="16" viewBox="0 0 16 16" fill="none" xmlns="http://www.w3.org/2000/svg">
<path d="M7.60449 0.98584C3.46911 0.98584 0.104492 4.35046 0.104492 8.48584C0.104492 12.6212 3.46911 15.9858 7.60449 15.9858C11.7399 15.9858 15.1045 12.6212 15.1045 8.48584C15.1045 4.35046 11.7399 0.98584 7.60449 0.98584ZM7.60449 12.5243C7.28545 12.5243 7.02757 12.2658 7.02757 11.9474C7.02757 11.6289 7.28545 11.3705 7.60449 11.3705C7.92353 11.3705 8.18142 11.6289 8.18142 11.9474C8.18142 12.2658 7.92353 12.5243 7.60449 12.5243ZM8.18142 8.99007V9.63969C8.18142 9.95815 7.92353 10.2166 7.60449 10.2166C7.28545 10.2166 7.02757 9.95815 7.02757 9.63969V8.48584C7.02757 8.16738 7.28545 7.90892 7.60449 7.90892C8.24084 7.90892 8.75834 7.39142 8.75834 6.75507C8.75834 6.11872 8.24084 5.60122 7.60449 5.60122C6.96815 5.60122 6.45065 6.11872 6.45065 6.75507C6.45065 7.07353 6.19276 7.33199 5.87372 7.33199C5.55468 7.33199 5.2968 7.07353 5.2968 6.75507C5.2968 5.48238 6.3318 4.44738 7.60449 4.44738C8.87718 4.44738 9.91218 5.48238 9.91218 6.75507C9.91218 7.82815 9.17603 8.73276 8.18142 8.99007Z" fill="#ABB2B1"/>
</svg>
