<svg width="43" height="43" viewBox="0 0 43 43" fill="none" xmlns="http://www.w3.org/2000/svg">
<rect width="43" height="43" rx="10" fill="#FFEFD6"/>
<path d="M21.0729 11.2924C21.41 10.4589 22.59 10.4589 22.9271 11.2924L25.1433 16.7725C25.2866 17.1267 25.6191 17.3684 26.0003 17.3952L31.8971 17.8095C32.7939 17.8725 33.1586 18.9947 32.4701 19.5728L27.943 23.3741C27.6503 23.6198 27.5233 24.0108 27.6156 24.3815L29.0438 30.1178C29.261 30.9901 28.3064 31.6837 27.5438 31.2076L22.5296 28.0767C22.2055 27.8743 21.7945 27.8743 21.4704 28.0767L16.4562 31.2076C15.6936 31.6837 14.739 30.9901 14.9562 30.1178L16.3844 24.3815C16.4767 24.0108 16.3497 23.6198 16.057 23.3741L11.5299 19.5728C10.8414 18.9947 11.2061 17.8725 12.1029 17.8095L17.9997 17.3952C18.3809 17.3684 18.7134 17.1267 18.8567 16.7725L21.0729 11.2924Z" fill="#E8B260"/>
</svg>
