<svg xmlns="http://www.w3.org/2000/svg" viewBox="0 0 24 19.53">
  <title>twitter</title>
  <path d="M24,2.31a10.09,10.09,0,0,1-2.82.78A4.77,4.77,0,0,0,23.34.36a10.36,10.36,0,0,1-3.12,1.2A4.92,4.92,0,0,0,11.7,4.92,4.5,4.5,0,0,0,11.82,6,13.85,13.85,0,0,1,1.71.9a4.94,4.94,0,0,0,1.5,6.57A4.72,4.72,0,0,1,1,6.87a5,5,0,0,0,3.93,4.89,5.4,5.4,0,0,1-2.22.09,4.94,4.94,0,0,0,4.59,3.42,9.91,9.91,0,0,1-7.29,2,13.88,13.88,0,0,0,7.56,2.22,13.88,13.88,0,0,0,14-14,4.43,4.43,0,0,0,0-.63A9.77,9.77,0,0,0,24,2.31Z" />
</svg>
