<svg width="198" height="159" viewBox="0 0 198 159" fill="none" xmlns="http://www.w3.org/2000/svg">
<ellipse cx="99" cy="154" rx="99" ry="5" fill="#EDEDED"/>
<path d="M154.435 58.6964L99.0002 94.5659L43.5652 58.6964V3.26143C43.527 1.49873 44.925 0.0389784 46.6877 0.0007651C46.7339 -0.00015202 46.78 -0.00015202 46.8262 0.0007651H151.174C152.937 -0.0374482 154.397 1.36055 154.435 3.12325C154.436 3.16941 154.436 3.21557 154.435 3.26174V58.6964Z" fill="#F1F2F2"/>
<path d="M43.5652 58.6964L24 45.6529L43.5652 26.0876V58.6964Z" fill="#51ADA6"/>
<path d="M174 45.6529L154.435 58.6965V26.0877L174 45.6529Z" fill="#51ADA6"/>
<path d="M154.435 58.4029L174.001 45.6528V136.957C173.994 140.416 172.623 143.732 170.185 146.186L147.914 123.914L112.044 88.0442L111.131 86.6419L154.435 58.4029Z" fill="#60C1B9"/>
<path d="M147.913 123.914L170.185 146.185C167.732 148.623 164.415 149.994 160.957 150.001H37.0438C33.585 149.994 30.2687 148.623 27.8154 146.185L50.0871 123.914L85.9565 88.0442L86.8697 86.642L99.0001 94.5659L111.131 86.642L112.044 88.0442L147.913 123.914Z" fill="#51ADA6"/>
<path d="M86.8694 86.6419L85.9563 88.0442L50.0868 123.914L27.8152 146.185C25.3772 143.732 24.0061 140.416 24 136.957V45.6528L86.8694 86.6419Z" fill="#60C1B9"/>
<path d="M134.87 19.5659H63.1311C61.3302 19.5659 59.8701 18.1059 59.8701 16.305C59.8701 14.5041 61.3302 13.044 63.1311 13.044H134.87C136.671 13.044 138.131 14.5041 138.131 16.305C138.131 18.1059 136.671 19.5659 134.87 19.5659Z" fill="#D1DDDC"/>
<path d="M134.869 35.8701H63.1301C61.3292 35.8701 59.8691 34.4101 59.8691 32.6092C59.8691 30.8083 61.3292 29.3482 63.1301 29.3482H134.869C136.67 29.3482 138.13 30.8083 138.13 32.6092C138.13 34.4101 136.67 35.8701 134.869 35.8701Z" fill="#D1DDDC"/>
<path d="M134.87 52.1744H128.348C126.547 52.1744 125.087 50.7144 125.087 48.9134C125.087 47.1125 126.547 45.6525 128.348 45.6525H134.87C136.67 45.6525 138.13 47.1125 138.13 48.9134C138.13 50.7147 136.67 52.1744 134.87 52.1744Z" fill="#D1DDDC"/>
<path d="M115.304 52.1744H108.782C106.982 52.1744 105.521 50.7144 105.521 48.9134C105.521 47.1125 106.982 45.6525 108.782 45.6525H115.304C117.105 45.6525 118.565 47.1125 118.565 48.9134C118.565 50.7147 117.105 52.1744 115.304 52.1744Z" fill="#D1DDDC"/>
</svg>
