<svg width="313" height="313" viewBox="0 0 313 313" fill="none" xmlns="http://www.w3.org/2000/svg">
<path d="M312.021 156.462C312.021 153.782 308.002 149.226 296.747 144.402C287.636 140.65 276.381 137.97 268.877 137.97L197.596 137.97L125.779 16.3042C120.955 6.12071 112.38 0.224991 103.805 0.22499L96.3015 0.224988L140.785 137.97L120.955 137.97C118.811 137.97 108.092 137.97 100.589 137.97C96.3015 137.97 92.2819 138.238 87.9943 138.774L37.8829 144.938L11.0854 95.0925L0.366447 95.0925L0.366442 217.831L11.0854 217.831L38.1509 167.717L88.2622 173.881C92.5498 174.417 96.5694 174.685 100.857 174.685C108.36 174.685 119.347 174.953 121.223 174.685L141.053 174.685L96.5695 312.43L104.073 312.43C112.648 312.43 121.223 306.534 125.779 296.619L197.864 174.685L268.877 174.953C276.381 174.953 287.904 172.541 296.747 168.521C308.27 163.965 312.021 159.141 312.021 156.462Z" fill="#E2EAFA"/>
</svg>
