<svg width="200" height="200" viewBox="0 0 200 200" fill="none" xmlns="http://www.w3.org/2000/svg">
<path d="M199.352 84.9953C196.667 59.0945 182.928 36.0014 160.695 19.9381C136.81 2.6806 105.885 -3.92499 77.9664 2.2935C51.424 8.20538 28.1307 25.3315 14.0352 49.256C-0.0644676 73.2128 -3.74931 101.941 3.9278 128.105C8.0648 142.223 15.4054 155.489 25.1357 166.503C34.9574 177.609 47.2701 186.479 60.7756 192.164C73.2304 197.4 86.4617 200 99.6804 200C117.707 199.999 135.66 195.17 151.419 185.65L140.278 167.073C118.844 180.021 92.2695 181.916 69.1521 172.189C47.8739 163.207 31.2477 144.449 24.6704 122.008C18.6825 101.57 21.5824 79.0654 32.6596 60.2701C43.711 41.4886 61.9366 28.073 82.6406 23.449C104.638 18.5639 129.096 23.8032 148.064 37.517C165.232 49.9052 175.794 67.5789 177.836 87.2453C179.164 99.9434 178 109.958 174.389 117.02C166.737 131.949 155.623 132.038 151.214 131.387C151.065 131.366 150.963 131.344 150.871 131.325C149.605 129.361 149.766 122.064 149.828 118.895C149.852 117.66 149.873 116.474 149.873 115.366V56.0252H133.314C131.202 54.2894 128.969 52.715 126.619 51.3011C117.599 45.9214 107.15 43.0656 96.3759 43.0656C81.0164 43.0656 66.5802 48.6772 55.7581 58.8588C38.5715 75.0328 33.2402 101.588 42.7898 123.476C47.3208 133.866 54.9731 142.487 64.9094 148.4C74.2119 153.925 85.0778 156.858 96.3225 156.858C109.208 156.858 121.053 153.291 130.582 146.536C131.593 145.825 132.596 145.058 133.553 144.294C136.95 148.957 141.905 151.92 148.06 152.827C156.591 154.102 165.121 152.69 172.772 148.767C181.463 144.308 188.468 136.952 193.605 126.912C199.248 115.902 201.133 102.194 199.352 84.9953ZM128.003 118.652C127.532 119.331 126.825 120.191 126.439 120.666C126.122 121.078 125.831 121.439 125.571 121.763C123.528 124.402 121.03 126.784 118.116 128.846C112.168 133.052 104.831 135.181 96.3236 135.181C81.0222 135.181 68.084 127.37 62.599 114.77C56.6523 101.166 59.9204 84.6632 70.5407 74.6876C77.2491 68.3595 86.6714 64.7405 96.3764 64.7405C103.258 64.7405 109.878 66.5278 115.534 69.9238C119.142 72.0801 122.327 74.8682 124.989 78.2477C125.251 78.5724 125.56 78.9478 125.9 79.3566C126.402 79.9576 127.385 81.1772 128.002 82.0531V118.652H128.003Z" fill="#EFF2F6"/>
</svg>
