<svg width="484" height="200" viewBox="0 0 484 200" fill="none" xmlns="http://www.w3.org/2000/svg">
<rect x="0.5" y="0.5" width="483" height="199" rx="7.5" fill="white"/>
<rect x="0.5" y="0.5" width="483" height="199" rx="7.5" stroke="#ECECEC"/>
<rect x="12.5" y="12.5" width="275" height="55" rx="6.5" fill="white"/>
<rect x="12.5" y="12.5" width="275" height="55" rx="6.5" stroke="#ECECEC"/>
<rect x="24" y="24" width="32" height="32" rx="16" fill="#0066DD" fill-opacity="0.1"/>
<path d="M48.5674 37.0606C48.5609 37.0231 48.5509 36.9863 48.5374 36.9506C48.5374 36.9506 48.5374 36.9406 48.5374 36.9346L46.5374 32.0226C46.4935 31.9099 46.4165 31.8131 46.3165 31.745C46.2166 31.6768 46.0984 31.6404 45.9774 31.6406H34.0274C33.908 31.6406 33.7914 31.6762 33.6923 31.7428C33.5933 31.8094 33.5164 31.9041 33.4714 32.0146L31.4714 36.9266C31.4714 36.9266 31.4714 36.9366 31.4714 36.9426C31.4579 36.9783 31.4479 37.0151 31.4414 37.0526C31.4414 37.0686 31.4414 37.0846 31.4414 37.1006C31.4414 37.1166 31.4414 37.1346 31.4414 37.1526V47.7526C31.4414 47.9118 31.5046 48.0644 31.6171 48.1769C31.7297 48.2894 31.8823 48.3526 32.0414 48.3526H47.9774C48.1365 48.3526 48.2891 48.2894 48.4017 48.1769C48.5142 48.0644 48.5774 47.9118 48.5774 47.7526V37.1526C48.5774 37.1346 48.5774 37.1186 48.5774 37.1006C48.5774 37.0826 48.5694 37.0766 48.5674 37.0606ZM34.4294 32.8406H39.4014V36.5606H32.9174L34.4294 32.8406ZM43.0514 40.9606H36.9514V39.7606H43.0514V40.9606ZM40.6014 36.5606V32.8406H45.5734L47.0854 36.5606H40.6014Z" fill="#0066DD"/>
<path d="M79.136 34.332L75.04 45.5H72.32L68.224 34.332H70.624L73.696 43.212L76.752 34.332H79.136ZM86.239 45.5L83.775 41.148H82.719V45.5H80.479V34.332H84.671C85.535 34.332 86.271 34.4867 86.879 34.796C87.487 35.0947 87.9403 35.5053 88.239 36.028C88.5483 36.54 88.703 37.116 88.703 37.756C88.703 38.492 88.4897 39.1587 88.063 39.756C87.6363 40.3427 87.0017 40.748 86.159 40.972L88.831 45.5H86.239ZM82.719 39.468H84.591C85.199 39.468 85.6523 39.324 85.951 39.036C86.2497 38.7373 86.399 38.3267 86.399 37.804C86.399 37.292 86.2497 36.8973 85.951 36.62C85.6523 36.332 85.199 36.188 84.591 36.188H82.719V39.468ZM99.5335 36.508C100.206 36.508 100.803 36.6573 101.326 36.956C101.848 37.244 102.254 37.676 102.542 38.252C102.84 38.8173 102.99 39.5 102.99 40.3V45.5H100.75V40.604C100.75 39.9 100.574 39.3613 100.222 38.988C99.8695 38.604 99.3895 38.412 98.7815 38.412C98.1628 38.412 97.6722 38.604 97.3095 38.988C96.9575 39.3613 96.7815 39.9 96.7815 40.604V45.5H94.5415V33.66H96.7815V37.74C97.0695 37.356 97.4535 37.0573 97.9335 36.844C98.4135 36.62 98.9468 36.508 99.5335 36.508ZM113.36 40.876C113.36 41.196 113.338 41.484 113.296 41.74H106.816C106.869 42.38 107.093 42.8813 107.488 43.244C107.882 43.6067 108.368 43.788 108.944 43.788C109.776 43.788 110.368 43.4307 110.72 42.716H113.136C112.88 43.5693 112.389 44.2733 111.664 44.828C110.938 45.372 110.048 45.644 108.992 45.644C108.138 45.644 107.37 45.4573 106.688 45.084C106.016 44.7 105.488 44.1613 105.104 43.468C104.73 42.7747 104.544 41.9747 104.544 41.068C104.544 40.1507 104.73 39.3453 105.104 38.652C105.477 37.9587 106 37.4253 106.672 37.052C107.344 36.6787 108.117 36.492 108.992 36.492C109.834 36.492 110.586 36.6733 111.248 37.036C111.92 37.3987 112.437 37.916 112.8 38.588C113.173 39.2493 113.36 40.012 113.36 40.876ZM111.04 40.236C111.029 39.66 110.821 39.2013 110.416 38.86C110.01 38.508 109.514 38.332 108.928 38.332C108.373 38.332 107.904 38.5027 107.52 38.844C107.146 39.1747 106.917 39.6387 106.832 40.236H111.04ZM114.419 41.036C114.419 40.14 114.595 39.3453 114.947 38.652C115.309 37.9587 115.795 37.4253 116.403 37.052C117.021 36.6787 117.709 36.492 118.467 36.492C119.128 36.492 119.704 36.6253 120.195 36.892C120.696 37.1587 121.096 37.4947 121.395 37.9V36.636H123.651V45.5H121.395V44.204C121.107 44.62 120.707 44.9667 120.195 45.244C119.693 45.5107 119.112 45.644 118.451 45.644C117.704 45.644 117.021 45.452 116.403 45.068C115.795 44.684 115.309 44.1453 114.947 43.452C114.595 42.748 114.419 41.9427 114.419 41.036ZM121.395 41.068C121.395 40.524 121.288 40.06 121.075 39.676C120.861 39.2813 120.573 38.9827 120.211 38.78C119.848 38.5667 119.459 38.46 119.043 38.46C118.627 38.46 118.243 38.5613 117.891 38.764C117.539 38.9667 117.251 39.2653 117.027 39.66C116.813 40.044 116.707 40.5027 116.707 41.036C116.707 41.5693 116.813 42.0387 117.027 42.444C117.251 42.8387 117.539 43.1427 117.891 43.356C118.253 43.5693 118.637 43.676 119.043 43.676C119.459 43.676 119.848 43.5747 120.211 43.372C120.573 43.1587 120.861 42.86 121.075 42.476C121.288 42.0813 121.395 41.612 121.395 41.068ZM125.262 41.036C125.262 40.14 125.438 39.3453 125.79 38.652C126.153 37.9587 126.644 37.4253 127.262 37.052C127.881 36.6787 128.569 36.492 129.326 36.492C129.902 36.492 130.452 36.62 130.974 36.876C131.497 37.1213 131.913 37.452 132.222 37.868V33.66H134.494V45.5H132.222V44.188C131.945 44.6253 131.556 44.9773 131.054 45.244C130.553 45.5107 129.972 45.644 129.31 45.644C128.564 45.644 127.881 45.452 127.262 45.068C126.644 44.684 126.153 44.1453 125.79 43.452C125.438 42.748 125.262 41.9427 125.262 41.036ZM132.238 41.068C132.238 40.524 132.132 40.06 131.918 39.676C131.705 39.2813 131.417 38.9827 131.054 38.78C130.692 38.5667 130.302 38.46 129.886 38.46C129.47 38.46 129.086 38.5613 128.734 38.764C128.382 38.9667 128.094 39.2653 127.87 39.66C127.657 40.044 127.55 40.5027 127.55 41.036C127.55 41.5693 127.657 42.0387 127.87 42.444C128.094 42.8387 128.382 43.1427 128.734 43.356C129.097 43.5693 129.481 43.676 129.886 43.676C130.302 43.676 130.692 43.5747 131.054 43.372C131.417 43.1587 131.705 42.86 131.918 42.476C132.132 42.0813 132.238 41.612 132.238 41.068ZM140.074 45.644C139.349 45.644 138.698 45.516 138.122 45.26C137.546 44.9933 137.087 44.636 136.746 44.188C136.415 43.74 136.234 43.244 136.202 42.7H138.458C138.501 43.0413 138.666 43.324 138.954 43.548C139.253 43.772 139.621 43.884 140.058 43.884C140.485 43.884 140.815 43.7987 141.05 43.628C141.295 43.4573 141.418 43.2387 141.418 42.972C141.418 42.684 141.269 42.4707 140.97 42.332C140.682 42.1827 140.218 42.0227 139.578 41.852C138.917 41.692 138.373 41.5267 137.946 41.356C137.53 41.1853 137.167 40.924 136.858 40.572C136.559 40.22 136.41 39.7453 136.41 39.148C136.41 38.6573 136.549 38.2093 136.826 37.804C137.114 37.3987 137.519 37.0787 138.042 36.844C138.575 36.6093 139.199 36.492 139.914 36.492C140.97 36.492 141.813 36.7587 142.442 37.292C143.071 37.8147 143.418 38.524 143.482 39.42H141.338C141.306 39.068 141.157 38.7907 140.89 38.588C140.634 38.3747 140.287 38.268 139.85 38.268C139.445 38.268 139.13 38.3427 138.906 38.492C138.693 38.6413 138.586 38.8493 138.586 39.116C138.586 39.4147 138.735 39.644 139.034 39.804C139.333 39.9533 139.797 40.108 140.426 40.268C141.066 40.428 141.594 40.5933 142.01 40.764C142.426 40.9347 142.783 41.2013 143.082 41.564C143.391 41.916 143.551 42.3853 143.562 42.972C143.562 43.484 143.418 43.9427 143.13 44.348C142.853 44.7533 142.447 45.0733 141.914 45.308C141.391 45.532 140.778 45.644 140.074 45.644ZM153.641 40.876C153.641 41.196 153.62 41.484 153.577 41.74H147.097C147.15 42.38 147.374 42.8813 147.769 43.244C148.164 43.6067 148.649 43.788 149.225 43.788C150.057 43.788 150.649 43.4307 151.001 42.716H153.417C153.161 43.5693 152.67 44.2733 151.945 44.828C151.22 45.372 150.329 45.644 149.273 45.644C148.42 45.644 147.652 45.4573 146.969 45.084C146.297 44.7 145.769 44.1613 145.385 43.468C145.012 42.7747 144.825 41.9747 144.825 41.068C144.825 40.1507 145.012 39.3453 145.385 38.652C145.758 37.9587 146.281 37.4253 146.953 37.052C147.625 36.6787 148.398 36.492 149.273 36.492C150.116 36.492 150.868 36.6733 151.529 37.036C152.201 37.3987 152.718 37.916 153.081 38.588C153.454 39.2493 153.641 40.012 153.641 40.876ZM151.321 40.236C151.31 39.66 151.102 39.2013 150.697 38.86C150.292 38.508 149.796 38.332 149.209 38.332C148.654 38.332 148.185 38.5027 147.801 38.844C147.428 39.1747 147.198 39.6387 147.113 40.236H151.321ZM157.884 38.476V42.764C157.884 43.0627 157.953 43.2813 158.092 43.42C158.241 43.548 158.487 43.612 158.828 43.612H159.868V45.5H158.46C156.572 45.5 155.628 44.5827 155.628 42.748V38.476H154.572V36.636H155.628V34.444H157.884V36.636H159.868V38.476H157.884Z" fill="black" fill-opacity="0.88"/>
<path d="M235.938 41.686C235.938 42.1713 235.812 42.6287 235.56 43.058C235.317 43.478 234.953 43.828 234.468 44.108C233.992 44.3787 233.427 44.5373 232.774 44.584V45.718H231.878V44.57C230.945 44.486 230.193 44.206 229.624 43.73C229.055 43.2447 228.761 42.5913 228.742 41.77H230.842C230.898 42.442 231.243 42.848 231.878 42.988V40.314C231.206 40.146 230.665 39.978 230.254 39.81C229.843 39.642 229.489 39.3713 229.19 38.998C228.891 38.6247 228.742 38.116 228.742 37.472C228.742 36.66 229.031 35.9973 229.61 35.484C230.198 34.9707 230.954 34.6767 231.878 34.602V33.468H232.774V34.602C233.67 34.6767 234.384 34.9473 234.916 35.414C235.457 35.8807 235.761 36.5247 235.826 37.346H233.712C233.684 37.0753 233.586 36.842 233.418 36.646C233.259 36.4407 233.045 36.296 232.774 36.212V38.858C233.474 39.0353 234.025 39.208 234.426 39.376C234.837 39.5347 235.191 39.8007 235.49 40.174C235.789 40.538 235.938 41.042 235.938 41.686ZM230.786 37.374C230.786 37.682 230.879 37.934 231.066 38.13C231.253 38.3167 231.523 38.4707 231.878 38.592V36.17C231.542 36.2167 231.276 36.3427 231.08 36.548C230.884 36.7533 230.786 37.0287 230.786 37.374ZM232.774 43.016C233.129 42.9507 233.404 42.806 233.6 42.582C233.805 42.358 233.908 42.0873 233.908 41.77C233.908 41.462 233.81 41.2147 233.614 41.028C233.418 40.8413 233.138 40.6873 232.774 40.566V43.016ZM237.93 36.982C237.977 36.0487 238.303 35.33 238.91 34.826C239.526 34.3127 240.333 34.056 241.332 34.056C242.013 34.056 242.597 34.1773 243.082 34.42C243.567 34.6533 243.931 34.9753 244.174 35.386C244.426 35.7873 244.552 36.2447 244.552 36.758C244.552 37.346 244.398 37.8453 244.09 38.256C243.791 38.6573 243.432 38.928 243.012 39.068V39.124C243.553 39.292 243.973 39.5907 244.272 40.02C244.58 40.4493 244.734 41 244.734 41.672C244.734 42.232 244.603 42.7313 244.342 43.17C244.09 43.6087 243.712 43.954 243.208 44.206C242.713 44.4487 242.116 44.57 241.416 44.57C240.361 44.57 239.503 44.304 238.84 43.772C238.177 43.24 237.827 42.456 237.79 41.42H239.694C239.713 41.8773 239.867 42.246 240.156 42.526C240.455 42.7967 240.861 42.932 241.374 42.932C241.85 42.932 242.214 42.8013 242.466 42.54C242.727 42.2693 242.858 41.924 242.858 41.504C242.858 40.944 242.681 40.5427 242.326 40.3C241.971 40.0573 241.421 39.936 240.674 39.936H240.268V38.326H240.674C241.999 38.326 242.662 37.8827 242.662 36.996C242.662 36.5947 242.541 36.282 242.298 36.058C242.065 35.834 241.724 35.722 241.276 35.722C240.837 35.722 240.497 35.8433 240.254 36.086C240.021 36.3193 239.885 36.618 239.848 36.982H237.93ZM248.551 41.63C248.626 42.0407 248.794 42.358 249.055 42.582C249.326 42.7967 249.685 42.904 250.133 42.904C250.712 42.904 251.132 42.666 251.393 42.19C251.654 41.7047 251.785 40.8927 251.785 39.754C251.57 40.0527 251.267 40.286 250.875 40.454C250.492 40.622 250.077 40.706 249.629 40.706C249.032 40.706 248.49 40.5847 248.005 40.342C247.529 40.09 247.151 39.7213 246.871 39.236C246.591 38.7413 246.451 38.144 246.451 37.444C246.451 36.408 246.759 35.5867 247.375 34.98C247.991 34.364 248.831 34.056 249.895 34.056C251.22 34.056 252.154 34.4807 252.695 35.33C253.246 36.1793 253.521 37.458 253.521 39.166C253.521 40.3793 253.414 41.3733 253.199 42.148C252.994 42.9227 252.634 43.5107 252.121 43.912C251.617 44.3133 250.926 44.514 250.049 44.514C249.358 44.514 248.77 44.3833 248.285 44.122C247.8 43.8513 247.426 43.5013 247.165 43.072C246.913 42.6333 246.768 42.1527 246.731 41.63H248.551ZM250.035 39.11C250.52 39.11 250.903 38.9607 251.183 38.662C251.463 38.3633 251.603 37.962 251.603 37.458C251.603 36.9073 251.454 36.4827 251.155 36.184C250.866 35.876 250.469 35.722 249.965 35.722C249.461 35.722 249.06 35.8807 248.761 36.198C248.472 36.506 248.327 36.9167 248.327 37.43C248.327 37.9247 248.467 38.3307 248.747 38.648C249.036 38.956 249.466 39.11 250.035 39.11ZM256.139 44.598C255.784 44.598 255.49 44.4907 255.257 44.276C255.033 44.052 254.921 43.7767 254.921 43.45C254.921 43.1233 255.033 42.8527 255.257 42.638C255.49 42.414 255.784 42.302 256.139 42.302C256.484 42.302 256.769 42.414 256.993 42.638C257.217 42.8527 257.329 43.1233 257.329 43.45C257.329 43.7767 257.217 44.052 256.993 44.276C256.769 44.4907 256.484 44.598 256.139 44.598ZM258.711 36.982C258.758 36.0487 259.085 35.33 259.691 34.826C260.307 34.3127 261.115 34.056 262.113 34.056C262.795 34.056 263.378 34.1773 263.863 34.42C264.349 34.6533 264.713 34.9753 264.955 35.386C265.207 35.7873 265.333 36.2447 265.333 36.758C265.333 37.346 265.179 37.8453 264.871 38.256C264.573 38.6573 264.213 38.928 263.793 39.068V39.124C264.335 39.292 264.755 39.5907 265.053 40.02C265.361 40.4493 265.515 41 265.515 41.672C265.515 42.232 265.385 42.7313 265.123 43.17C264.871 43.6087 264.493 43.954 263.989 44.206C263.495 44.4487 262.897 44.57 262.197 44.57C261.143 44.57 260.284 44.304 259.621 43.772C258.959 43.24 258.609 42.456 258.571 41.42H260.475C260.494 41.8773 260.648 42.246 260.937 42.526C261.236 42.7967 261.642 42.932 262.155 42.932C262.631 42.932 262.995 42.8013 263.247 42.54C263.509 42.2693 263.639 41.924 263.639 41.504C263.639 40.944 263.462 40.5427 263.107 40.3C262.753 40.0573 262.202 39.936 261.455 39.936H261.049V38.326H261.455C262.781 38.326 263.443 37.8827 263.443 36.996C263.443 36.5947 263.322 36.282 263.079 36.058C262.846 35.834 262.505 35.722 262.057 35.722C261.619 35.722 261.278 35.8433 261.035 36.086C260.802 36.3193 260.667 36.618 260.629 36.982H258.711ZM267.064 39.264C267.064 37.6493 267.354 36.3847 267.932 35.47C268.52 34.5553 269.491 34.098 270.844 34.098C272.198 34.098 273.164 34.5553 273.742 35.47C274.33 36.3847 274.624 37.6493 274.624 39.264C274.624 40.888 274.33 42.162 273.742 43.086C273.164 44.01 272.198 44.472 270.844 44.472C269.491 44.472 268.52 44.01 267.932 43.086C267.354 42.162 267.064 40.888 267.064 39.264ZM272.692 39.264C272.692 38.5733 272.646 37.9947 272.552 37.528C272.468 37.052 272.291 36.6647 272.02 36.366C271.759 36.0673 271.367 35.918 270.844 35.918C270.322 35.918 269.925 36.0673 269.654 36.366C269.393 36.6647 269.216 37.052 269.122 37.528C269.038 37.9947 268.996 38.5733 268.996 39.264C268.996 39.9733 269.038 40.5707 269.122 41.056C269.206 41.532 269.384 41.9193 269.654 42.218C269.925 42.5073 270.322 42.652 270.844 42.652C271.367 42.652 271.764 42.5073 272.034 42.218C272.305 41.9193 272.482 41.532 272.566 41.056C272.65 40.5707 272.692 39.9733 272.692 39.264Z" fill="black" fill-opacity="0.88"/>
<rect x="12.5" y="72.5" width="275" height="55" rx="6.5" fill="white"/>
<rect x="12.5" y="72.5" width="275" height="55" rx="6.5" stroke="#ECECEC"/>
<rect x="24" y="84" width="32" height="32" rx="16" fill="#0066DD" fill-opacity="0.1"/>
<path d="M48.5674 97.0606C48.5609 97.0231 48.5509 96.9863 48.5374 96.9506C48.5374 96.9506 48.5374 96.9406 48.5374 96.9346L46.5374 92.0226C46.4935 91.9099 46.4165 91.8131 46.3165 91.745C46.2166 91.6768 46.0984 91.6404 45.9774 91.6406H34.0274C33.908 91.6406 33.7914 91.6762 33.6923 91.7428C33.5933 91.8094 33.5164 91.9041 33.4714 92.0146L31.4714 96.9266C31.4714 96.9266 31.4714 96.9366 31.4714 96.9426C31.4579 96.9783 31.4479 97.0151 31.4414 97.0526C31.4414 97.0686 31.4414 97.0846 31.4414 97.1006C31.4414 97.1166 31.4414 97.1346 31.4414 97.1526V107.753C31.4414 107.912 31.5046 108.064 31.6171 108.177C31.7297 108.289 31.8823 108.353 32.0414 108.353H47.9774C48.1365 108.353 48.2891 108.289 48.4017 108.177C48.5142 108.064 48.5774 107.912 48.5774 107.753V97.1526C48.5774 97.1346 48.5774 97.1186 48.5774 97.1006C48.5774 97.0826 48.5694 97.0766 48.5674 97.0606ZM34.4294 92.8406H39.4014V96.5606H32.9174L34.4294 92.8406ZM43.0514 100.961H36.9514V99.7606H43.0514V100.961ZM40.6014 96.5606V92.8406H45.5734L47.0854 96.5606H40.6014Z" fill="#0066DD"/>
<path d="M78.368 95.332V106.5H76.128V101.748H71.344V106.5H69.104V95.332H71.344V99.924H76.128V95.332H78.368ZM79.9967 102.036C79.9967 101.14 80.1727 100.345 80.5247 99.652C80.8874 98.9587 81.3728 98.4253 81.9808 98.052C82.5994 97.6787 83.2874 97.492 84.0448 97.492C84.7061 97.492 85.2821 97.6253 85.7728 97.892C86.2741 98.1587 86.6741 98.4947 86.9728 98.9V97.636H89.2288V106.5H86.9728V105.204C86.6848 105.62 86.2848 105.967 85.7728 106.244C85.2714 106.511 84.6901 106.644 84.0288 106.644C83.2821 106.644 82.5994 106.452 81.9808 106.068C81.3728 105.684 80.8874 105.145 80.5247 104.452C80.1727 103.748 79.9967 102.943 79.9967 102.036ZM86.9728 102.068C86.9728 101.524 86.8661 101.06 86.6528 100.676C86.4394 100.281 86.1514 99.9827 85.7888 99.78C85.4261 99.5667 85.0368 99.46 84.6208 99.46C84.2048 99.46 83.8208 99.5613 83.4688 99.764C83.1168 99.9667 82.8288 100.265 82.6048 100.66C82.3914 101.044 82.2848 101.503 82.2848 102.036C82.2848 102.569 82.3914 103.039 82.6048 103.444C82.8288 103.839 83.1168 104.143 83.4688 104.356C83.8314 104.569 84.2154 104.676 84.6208 104.676C85.0368 104.676 85.4261 104.575 85.7888 104.372C86.1514 104.159 86.4394 103.86 86.6528 103.476C86.8661 103.081 86.9728 102.612 86.9728 102.068ZM92.5525 96.58C92.1578 96.58 91.8272 96.4573 91.5605 96.212C91.3045 95.956 91.1765 95.6413 91.1765 95.268C91.1765 94.8947 91.3045 94.5853 91.5605 94.34C91.8272 94.084 92.1578 93.956 92.5525 93.956C92.9472 93.956 93.2725 94.084 93.5285 94.34C93.7952 94.5853 93.9285 94.8947 93.9285 95.268C93.9285 95.6413 93.7952 95.956 93.5285 96.212C93.2725 96.4573 92.9472 96.58 92.5525 96.58ZM93.6565 97.636V106.5H91.4165V97.636H93.6565ZM98.1096 99.012C98.3976 98.5427 98.771 98.1747 99.2296 97.908C99.699 97.6413 100.232 97.508 100.83 97.508V99.86H100.238C99.5336 99.86 99.0003 100.025 98.6376 100.356C98.2856 100.687 98.1096 101.263 98.1096 102.084V106.5H95.8696V97.636H98.1096V99.012ZM105.575 102.036C105.575 101.14 105.751 100.345 106.103 99.652C106.466 98.9587 106.956 98.4253 107.575 98.052C108.194 97.6787 108.882 97.492 109.639 97.492C110.215 97.492 110.764 97.62 111.287 97.876C111.81 98.1213 112.226 98.452 112.535 98.868V94.66H114.807V106.5H112.535V105.188C112.258 105.625 111.868 105.977 111.367 106.244C110.866 106.511 110.284 106.644 109.623 106.644C108.876 106.644 108.194 106.452 107.575 106.068C106.956 105.684 106.466 105.145 106.103 104.452C105.751 103.748 105.575 102.943 105.575 102.036ZM112.551 102.068C112.551 101.524 112.444 101.06 112.231 100.676C112.018 100.281 111.73 99.9827 111.367 99.78C111.004 99.5667 110.615 99.46 110.199 99.46C109.783 99.46 109.399 99.5613 109.047 99.764C108.695 99.9667 108.407 100.265 108.183 100.66C107.97 101.044 107.863 101.503 107.863 102.036C107.863 102.569 107.97 103.039 108.183 103.444C108.407 103.839 108.695 104.143 109.047 104.356C109.41 104.569 109.794 104.676 110.199 104.676C110.615 104.676 111.004 104.575 111.367 104.372C111.73 104.159 112.018 103.86 112.231 103.476C112.444 103.081 112.551 102.612 112.551 102.068ZM119.235 99.012C119.523 98.5427 119.896 98.1747 120.355 97.908C120.824 97.6413 121.357 97.508 121.955 97.508V99.86H121.363C120.659 99.86 120.125 100.025 119.763 100.356C119.411 100.687 119.235 101.263 119.235 102.084V106.5H116.995V97.636H119.235V99.012ZM131.943 97.636L126.455 110.692H124.071L125.991 106.276L122.439 97.636H124.951L127.239 103.828L129.559 97.636H131.943ZM141.391 101.876C141.391 102.196 141.37 102.484 141.327 102.74H134.847C134.9 103.38 135.124 103.881 135.519 104.244C135.914 104.607 136.399 104.788 136.975 104.788C137.807 104.788 138.399 104.431 138.751 103.716H141.167C140.911 104.569 140.42 105.273 139.695 105.828C138.97 106.372 138.079 106.644 137.023 106.644C136.17 106.644 135.402 106.457 134.719 106.084C134.047 105.7 133.519 105.161 133.135 104.468C132.762 103.775 132.575 102.975 132.575 102.068C132.575 101.151 132.762 100.345 133.135 99.652C133.508 98.9587 134.031 98.4253 134.703 98.052C135.375 97.6787 136.148 97.492 137.023 97.492C137.866 97.492 138.618 97.6733 139.279 98.036C139.951 98.3987 140.468 98.916 140.831 99.588C141.204 100.249 141.391 101.012 141.391 101.876ZM139.071 101.236C139.06 100.66 138.852 100.201 138.447 99.86C138.042 99.508 137.546 99.332 136.959 99.332C136.404 99.332 135.935 99.5027 135.551 99.844C135.178 100.175 134.948 100.639 134.863 101.236H139.071ZM145.266 99.012C145.554 98.5427 145.927 98.1747 146.386 97.908C146.855 97.6413 147.389 97.508 147.986 97.508V99.86H147.394C146.69 99.86 146.157 100.025 145.794 100.356C145.442 100.687 145.266 101.263 145.266 102.084V106.5H143.026V97.636H145.266V99.012Z" fill="black" fill-opacity="0.88"/>
<path d="M239.938 101.686C239.938 102.171 239.812 102.629 239.56 103.058C239.317 103.478 238.953 103.828 238.468 104.108C237.992 104.379 237.427 104.537 236.774 104.584V105.718H235.878V104.57C234.945 104.486 234.193 104.206 233.624 103.73C233.055 103.245 232.761 102.591 232.742 101.77H234.842C234.898 102.442 235.243 102.848 235.878 102.988V100.314C235.206 100.146 234.665 99.978 234.254 99.81C233.843 99.642 233.489 99.3713 233.19 98.998C232.891 98.6247 232.742 98.116 232.742 97.472C232.742 96.66 233.031 95.9973 233.61 95.484C234.198 94.9707 234.954 94.6767 235.878 94.602V93.468H236.774V94.602C237.67 94.6767 238.384 94.9473 238.916 95.414C239.457 95.8807 239.761 96.5247 239.826 97.346H237.712C237.684 97.0753 237.586 96.842 237.418 96.646C237.259 96.4407 237.045 96.296 236.774 96.212V98.858C237.474 99.0353 238.025 99.208 238.426 99.376C238.837 99.5347 239.191 99.8007 239.49 100.174C239.789 100.538 239.938 101.042 239.938 101.686ZM234.786 97.374C234.786 97.682 234.879 97.934 235.066 98.13C235.253 98.3167 235.523 98.4707 235.878 98.592V96.17C235.542 96.2167 235.276 96.3427 235.08 96.548C234.884 96.7533 234.786 97.0287 234.786 97.374ZM236.774 103.016C237.129 102.951 237.404 102.806 237.6 102.582C237.805 102.358 237.908 102.087 237.908 101.77C237.908 101.462 237.81 101.215 237.614 101.028C237.418 100.841 237.138 100.687 236.774 100.566V103.016ZM241.664 96.1V94.294H245.038V104.5H243.022V96.1H241.664ZM248.682 99.096C247.749 98.6107 247.282 97.8593 247.282 96.842C247.282 96.338 247.408 95.8807 247.66 95.47C247.922 95.05 248.309 94.7187 248.822 94.476C249.345 94.224 249.98 94.098 250.726 94.098C251.473 94.098 252.103 94.224 252.616 94.476C253.139 94.7187 253.526 95.05 253.778 95.47C254.04 95.8807 254.17 96.338 254.17 96.842C254.17 97.3553 254.044 97.808 253.792 98.2C253.54 98.5827 253.204 98.8813 252.784 99.096C253.298 99.32 253.699 99.6467 253.988 100.076C254.278 100.505 254.422 101.014 254.422 101.602C254.422 102.237 254.259 102.792 253.932 103.268C253.615 103.735 253.176 104.094 252.616 104.346C252.056 104.598 251.426 104.724 250.726 104.724C250.026 104.724 249.396 104.598 248.836 104.346C248.286 104.094 247.847 103.735 247.52 103.268C247.203 102.792 247.044 102.237 247.044 101.602C247.044 101.014 247.189 100.505 247.478 100.076C247.768 99.6373 248.169 99.3107 248.682 99.096ZM252.266 97.122C252.266 96.6647 252.126 96.31 251.846 96.058C251.576 95.806 251.202 95.68 250.726 95.68C250.26 95.68 249.886 95.806 249.606 96.058C249.336 96.31 249.2 96.6693 249.2 97.136C249.2 97.556 249.34 97.892 249.62 98.144C249.91 98.396 250.278 98.522 250.726 98.522C251.174 98.522 251.543 98.396 251.832 98.144C252.122 97.8827 252.266 97.542 252.266 97.122ZM250.726 99.95C250.194 99.95 249.76 100.085 249.424 100.356C249.098 100.627 248.934 101.014 248.934 101.518C248.934 101.985 249.093 102.367 249.41 102.666C249.737 102.955 250.176 103.1 250.726 103.1C251.277 103.1 251.711 102.951 252.028 102.652C252.346 102.353 252.504 101.975 252.504 101.518C252.504 101.023 252.341 100.641 252.014 100.37C251.688 100.09 251.258 99.95 250.726 99.95ZM257.063 104.598C256.708 104.598 256.414 104.491 256.181 104.276C255.957 104.052 255.845 103.777 255.845 103.45C255.845 103.123 255.957 102.853 256.181 102.638C256.414 102.414 256.708 102.302 257.063 102.302C257.408 102.302 257.693 102.414 257.917 102.638C258.141 102.853 258.253 103.123 258.253 103.45C258.253 103.777 258.141 104.052 257.917 104.276C257.693 104.491 257.408 104.598 257.063 104.598ZM260.223 102.288C261.119 101.541 261.833 100.921 262.365 100.426C262.897 99.922 263.341 99.3993 263.695 98.858C264.05 98.3167 264.227 97.7847 264.227 97.262C264.227 96.786 264.115 96.4127 263.891 96.142C263.667 95.8713 263.322 95.736 262.855 95.736C262.389 95.736 262.029 95.8947 261.777 96.212C261.525 96.52 261.395 96.9447 261.385 97.486H259.481C259.519 96.366 259.85 95.5167 260.475 94.938C261.11 94.3593 261.913 94.07 262.883 94.07C263.947 94.07 264.764 94.3547 265.333 94.924C265.903 95.484 266.187 96.226 266.187 97.15C266.187 97.878 265.991 98.5733 265.599 99.236C265.207 99.8987 264.759 100.477 264.255 100.972C263.751 101.457 263.093 102.045 262.281 102.736H266.411V104.36H259.495V102.904L260.223 102.288ZM267.646 99.264C267.646 97.6493 267.936 96.3847 268.514 95.47C269.102 94.5553 270.073 94.098 271.426 94.098C272.78 94.098 273.746 94.5553 274.324 95.47C274.912 96.3847 275.206 97.6493 275.206 99.264C275.206 100.888 274.912 102.162 274.324 103.086C273.746 104.01 272.78 104.472 271.426 104.472C270.073 104.472 269.102 104.01 268.514 103.086C267.936 102.162 267.646 100.888 267.646 99.264ZM273.274 99.264C273.274 98.5733 273.228 97.9947 273.134 97.528C273.05 97.052 272.873 96.6647 272.602 96.366C272.341 96.0673 271.949 95.918 271.426 95.918C270.904 95.918 270.507 96.0673 270.236 96.366C269.975 96.6647 269.798 97.052 269.704 97.528C269.62 97.9947 269.578 98.5733 269.578 99.264C269.578 99.9733 269.62 100.571 269.704 101.056C269.788 101.532 269.966 101.919 270.236 102.218C270.507 102.507 270.904 102.652 271.426 102.652C271.949 102.652 272.346 102.507 272.616 102.218C272.887 101.919 273.064 101.532 273.148 101.056C273.232 100.571 273.274 99.9733 273.274 99.264Z" fill="black" fill-opacity="0.88"/>
<rect x="12.5" y="132.5" width="275" height="55" rx="6.5" fill="white"/>
<rect x="12.5" y="132.5" width="275" height="55" rx="6.5" stroke="#ECECEC"/>
<rect x="24" y="144" width="32" height="32" rx="16" fill="#0066DD" fill-opacity="0.1"/>
<path d="M48.5674 157.061C48.5609 157.023 48.5509 156.986 48.5374 156.951C48.5374 156.951 48.5374 156.941 48.5374 156.935L46.5374 152.023C46.4935 151.91 46.4165 151.813 46.3165 151.745C46.2166 151.677 46.0984 151.64 45.9774 151.641H34.0274C33.908 151.641 33.7914 151.676 33.6923 151.743C33.5933 151.809 33.5164 151.904 33.4714 152.015L31.4714 156.927C31.4714 156.927 31.4714 156.937 31.4714 156.943C31.4579 156.978 31.4479 157.015 31.4414 157.053C31.4414 157.069 31.4414 157.085 31.4414 157.101C31.4414 157.117 31.4414 157.135 31.4414 157.153V167.753C31.4414 167.912 31.5046 168.064 31.6171 168.177C31.7297 168.289 31.8823 168.353 32.0414 168.353H47.9774C48.1365 168.353 48.2891 168.289 48.4017 168.177C48.5142 168.064 48.5774 167.912 48.5774 167.753V157.153C48.5774 157.135 48.5774 157.119 48.5774 157.101C48.5774 157.083 48.5694 157.077 48.5674 157.061ZM34.4294 152.841H39.4014V156.561H32.9174L34.4294 152.841ZM43.0514 160.961H36.9514V159.761H43.0514V160.961ZM40.6014 156.561V152.841H45.5734L47.0854 156.561H40.6014Z" fill="#0066DD"/>
<path d="M71.312 154.332V161.244C71.312 162.001 71.5093 162.583 71.904 162.988C72.2987 163.383 72.8533 163.58 73.568 163.58C74.2933 163.58 74.8533 163.383 75.248 162.988C75.6427 162.583 75.84 162.001 75.84 161.244V154.332H78.096V161.228C78.096 162.177 77.888 162.983 77.472 163.644C77.0667 164.295 76.5173 164.785 75.824 165.116C75.1413 165.447 74.3787 165.612 73.536 165.612C72.704 165.612 71.9467 165.447 71.264 165.116C70.592 164.785 70.0587 164.295 69.664 163.644C69.2693 162.983 69.072 162.177 69.072 161.228V154.332H71.312ZM84.1163 165.612C83.3376 165.612 82.6336 165.479 82.0043 165.212C81.3856 164.945 80.8949 164.561 80.5323 164.06C80.1696 163.559 79.9829 162.967 79.9723 162.284H82.3723C82.4043 162.743 82.5643 163.105 82.8523 163.372C83.1509 163.639 83.5563 163.772 84.0683 163.772C84.5909 163.772 85.0016 163.649 85.3003 163.404C85.5989 163.148 85.7483 162.817 85.7483 162.412C85.7483 162.081 85.6469 161.809 85.4443 161.596C85.2416 161.383 84.9856 161.217 84.6763 161.1C84.3776 160.972 83.9616 160.833 83.4283 160.684C82.7029 160.471 82.1109 160.263 81.6523 160.06C81.2043 159.847 80.8149 159.532 80.4843 159.116C80.1643 158.689 80.0043 158.124 80.0043 157.42C80.0043 156.759 80.1696 156.183 80.5003 155.692C80.8309 155.201 81.2949 154.828 81.8923 154.572C82.4896 154.305 83.1723 154.172 83.9403 154.172C85.0923 154.172 86.0256 154.455 86.7403 155.02C87.4656 155.575 87.8656 156.353 87.9403 157.356H85.4763C85.4549 156.972 85.2896 156.657 84.9803 156.412C84.6816 156.156 84.2816 156.028 83.7803 156.028C83.3429 156.028 82.9909 156.14 82.7243 156.364C82.4683 156.588 82.3403 156.913 82.3403 157.34C82.3403 157.639 82.4363 157.889 82.6283 158.092C82.8309 158.284 83.0763 158.444 83.3643 158.572C83.6629 158.689 84.0789 158.828 84.6123 158.988C85.3376 159.201 85.9296 159.415 86.3883 159.628C86.8469 159.841 87.2416 160.161 87.5723 160.588C87.9029 161.015 88.0683 161.575 88.0683 162.268C88.0683 162.865 87.9136 163.42 87.6042 163.932C87.2949 164.444 86.8416 164.855 86.2443 165.164C85.6469 165.463 84.9376 165.612 84.1163 165.612ZM96.3463 159.772C96.9756 159.889 97.4929 160.204 97.8983 160.716C98.3036 161.228 98.5063 161.815 98.5063 162.476C98.5063 163.073 98.3569 163.601 98.0583 164.06C97.7703 164.508 97.3489 164.86 96.7943 165.116C96.2396 165.372 95.5836 165.5 94.8263 165.5H90.0103V154.332H94.6183C95.3756 154.332 96.0263 154.455 96.5703 154.7C97.1249 154.945 97.5409 155.287 97.8183 155.724C98.1063 156.161 98.2503 156.657 98.2503 157.212C98.2503 157.863 98.0743 158.407 97.7222 158.844C97.3809 159.281 96.9223 159.591 96.3463 159.772ZM92.2503 158.94H94.2983C94.8316 158.94 95.2423 158.823 95.5303 158.588C95.8183 158.343 95.9623 157.996 95.9623 157.548C95.9623 157.1 95.8183 156.753 95.5303 156.508C95.2423 156.263 94.8316 156.14 94.2983 156.14H92.2503V158.94ZM94.5063 163.676C95.0503 163.676 95.4716 163.548 95.7703 163.292C96.0796 163.036 96.2343 162.673 96.2343 162.204C96.2343 161.724 96.0743 161.351 95.7543 161.084C95.4343 160.807 95.0023 160.668 94.4583 160.668H92.2503V163.676H94.5063ZM103.528 161.036C103.528 160.14 103.704 159.345 104.056 158.652C104.419 157.959 104.909 157.425 105.528 157.052C106.147 156.679 106.835 156.492 107.592 156.492C108.168 156.492 108.717 156.62 109.24 156.876C109.763 157.121 110.179 157.452 110.488 157.868V153.66H112.76V165.5H110.488V164.188C110.211 164.625 109.821 164.977 109.32 165.244C108.819 165.511 108.237 165.644 107.576 165.644C106.829 165.644 106.147 165.452 105.528 165.068C104.909 164.684 104.419 164.145 104.056 163.452C103.704 162.748 103.528 161.943 103.528 161.036ZM110.504 161.068C110.504 160.524 110.397 160.06 110.184 159.676C109.971 159.281 109.683 158.983 109.32 158.78C108.957 158.567 108.568 158.46 108.152 158.46C107.736 158.46 107.352 158.561 107 158.764C106.648 158.967 106.36 159.265 106.136 159.66C105.923 160.044 105.816 160.503 105.816 161.036C105.816 161.569 105.923 162.039 106.136 162.444C106.36 162.839 106.648 163.143 107 163.356C107.363 163.569 107.747 163.676 108.152 163.676C108.568 163.676 108.957 163.575 109.32 163.372C109.683 163.159 109.971 162.86 110.184 162.476C110.397 162.081 110.504 161.612 110.504 161.068ZM118.884 165.644C118.03 165.644 117.262 165.457 116.58 165.084C115.897 164.7 115.358 164.161 114.964 163.468C114.58 162.775 114.388 161.975 114.388 161.068C114.388 160.161 114.585 159.361 114.98 158.668C115.385 157.975 115.934 157.441 116.628 157.068C117.321 156.684 118.094 156.492 118.948 156.492C119.801 156.492 120.574 156.684 121.268 157.068C121.961 157.441 122.505 157.975 122.9 158.668C123.305 159.361 123.508 160.161 123.508 161.068C123.508 161.975 123.3 162.775 122.884 163.468C122.478 164.161 121.924 164.7 121.22 165.084C120.526 165.457 119.748 165.644 118.884 165.644ZM118.884 163.692C119.289 163.692 119.668 163.596 120.02 163.404C120.382 163.201 120.67 162.903 120.884 162.508C121.097 162.113 121.204 161.633 121.204 161.068C121.204 160.225 120.98 159.58 120.532 159.132C120.094 158.673 119.556 158.444 118.916 158.444C118.276 158.444 117.737 158.673 117.3 159.132C116.873 159.58 116.66 160.225 116.66 161.068C116.66 161.911 116.868 162.561 117.284 163.02C117.71 163.468 118.244 163.692 118.884 163.692ZM130.063 156.508C131.119 156.508 131.972 156.844 132.623 157.516C133.274 158.177 133.599 159.105 133.599 160.3V165.5H131.359V160.604C131.359 159.9 131.183 159.361 130.831 158.988C130.479 158.604 129.999 158.412 129.391 158.412C128.772 158.412 128.282 158.604 127.919 158.988C127.567 159.361 127.391 159.9 127.391 160.604V165.5H125.151V156.636H127.391V157.74C127.69 157.356 128.068 157.057 128.527 156.844C128.996 156.62 129.508 156.508 130.063 156.508ZM139.201 156.492C139.862 156.492 140.444 156.625 140.945 156.892C141.446 157.148 141.841 157.484 142.129 157.9V156.636H144.385V165.564C144.385 166.385 144.22 167.116 143.889 167.756C143.558 168.407 143.062 168.919 142.401 169.292C141.74 169.676 140.94 169.868 140.001 169.868C138.742 169.868 137.708 169.575 136.897 168.988C136.097 168.401 135.644 167.601 135.537 166.588H137.761C137.878 166.993 138.129 167.313 138.513 167.548C138.908 167.793 139.382 167.916 139.937 167.916C140.588 167.916 141.116 167.719 141.521 167.324C141.926 166.94 142.129 166.353 142.129 165.564V164.188C141.841 164.604 141.441 164.951 140.929 165.228C140.428 165.505 139.852 165.644 139.201 165.644C138.454 165.644 137.772 165.452 137.153 165.068C136.534 164.684 136.044 164.145 135.681 163.452C135.329 162.748 135.153 161.943 135.153 161.036C135.153 160.14 135.329 159.345 135.681 158.652C136.044 157.959 136.529 157.425 137.137 157.052C137.756 156.679 138.444 156.492 139.201 156.492ZM142.129 161.068C142.129 160.524 142.022 160.06 141.809 159.676C141.596 159.281 141.308 158.983 140.945 158.78C140.582 158.567 140.193 158.46 139.777 158.46C139.361 158.46 138.977 158.561 138.625 158.764C138.273 158.967 137.985 159.265 137.761 159.66C137.548 160.044 137.441 160.503 137.441 161.036C137.441 161.569 137.548 162.039 137.761 162.444C137.985 162.839 138.273 163.143 138.625 163.356C138.988 163.569 139.372 163.676 139.777 163.676C140.193 163.676 140.582 163.575 140.945 163.372C141.308 163.159 141.596 162.86 141.809 162.476C142.022 162.081 142.129 161.612 142.129 161.068ZM148.813 153.66V165.5H146.573V153.66H148.813ZM159.266 160.876C159.266 161.196 159.245 161.484 159.202 161.74H152.722C152.775 162.38 152.999 162.881 153.394 163.244C153.789 163.607 154.274 163.788 154.85 163.788C155.682 163.788 156.274 163.431 156.626 162.716H159.042C158.786 163.569 158.295 164.273 157.57 164.828C156.845 165.372 155.954 165.644 154.898 165.644C154.045 165.644 153.277 165.457 152.594 165.084C151.922 164.7 151.394 164.161 151.01 163.468C150.637 162.775 150.45 161.975 150.45 161.068C150.45 160.151 150.637 159.345 151.01 158.652C151.383 157.959 151.906 157.425 152.578 157.052C153.25 156.679 154.023 156.492 154.898 156.492C155.741 156.492 156.493 156.673 157.154 157.036C157.826 157.399 158.343 157.916 158.706 158.588C159.079 159.249 159.266 160.012 159.266 160.876ZM156.946 160.236C156.935 159.66 156.727 159.201 156.322 158.86C155.917 158.508 155.421 158.332 154.834 158.332C154.279 158.332 153.81 158.503 153.426 158.844C153.053 159.175 152.823 159.639 152.738 160.236H156.946ZM168.105 165.644C167.38 165.644 166.729 165.516 166.153 165.26C165.577 164.993 165.119 164.636 164.777 164.188C164.447 163.74 164.265 163.244 164.233 162.7H166.489C166.532 163.041 166.697 163.324 166.985 163.548C167.284 163.772 167.652 163.884 168.089 163.884C168.516 163.884 168.847 163.799 169.081 163.628C169.327 163.457 169.449 163.239 169.449 162.972C169.449 162.684 169.3 162.471 169.001 162.332C168.713 162.183 168.249 162.023 167.609 161.852C166.948 161.692 166.404 161.527 165.977 161.356C165.561 161.185 165.199 160.924 164.889 160.572C164.591 160.22 164.441 159.745 164.441 159.148C164.441 158.657 164.58 158.209 164.857 157.804C165.145 157.399 165.551 157.079 166.073 156.844C166.607 156.609 167.231 156.492 167.945 156.492C169.001 156.492 169.844 156.759 170.473 157.292C171.103 157.815 171.449 158.524 171.513 159.42H169.369C169.337 159.068 169.188 158.791 168.921 158.588C168.665 158.375 168.319 158.268 167.881 158.268C167.476 158.268 167.161 158.343 166.937 158.492C166.724 158.641 166.617 158.849 166.617 159.116C166.617 159.415 166.767 159.644 167.065 159.804C167.364 159.953 167.828 160.108 168.457 160.268C169.097 160.428 169.625 160.593 170.041 160.764C170.457 160.935 170.815 161.201 171.113 161.564C171.423 161.916 171.583 162.385 171.593 162.972C171.593 163.484 171.449 163.943 171.161 164.348C170.884 164.753 170.479 165.073 169.945 165.308C169.423 165.532 168.809 165.644 168.105 165.644ZM181.672 160.876C181.672 161.196 181.651 161.484 181.608 161.74H175.128C175.181 162.38 175.405 162.881 175.8 163.244C176.195 163.607 176.68 163.788 177.256 163.788C178.088 163.788 178.68 163.431 179.032 162.716H181.448C181.192 163.569 180.701 164.273 179.976 164.828C179.251 165.372 178.36 165.644 177.304 165.644C176.451 165.644 175.683 165.457 175 165.084C174.328 164.7 173.8 164.161 173.416 163.468C173.043 162.775 172.856 161.975 172.856 161.068C172.856 160.151 173.043 159.345 173.416 158.652C173.789 157.959 174.312 157.425 174.984 157.052C175.656 156.679 176.429 156.492 177.304 156.492C178.147 156.492 178.899 156.673 179.56 157.036C180.232 157.399 180.749 157.916 181.112 158.588C181.485 159.249 181.672 160.012 181.672 160.876ZM179.352 160.236C179.341 159.66 179.133 159.201 178.728 158.86C178.323 158.508 177.827 158.332 177.24 158.332C176.685 158.332 176.216 158.503 175.832 158.844C175.459 159.175 175.229 159.639 175.144 160.236H179.352ZM185.915 158.476V162.764C185.915 163.063 185.984 163.281 186.123 163.42C186.272 163.548 186.518 163.612 186.859 163.612H187.899V165.5H186.491C184.603 165.5 183.659 164.583 183.659 162.748V158.476H182.603V156.636H183.659V154.444H185.915V156.636H187.899V158.476H185.915Z" fill="black" fill-opacity="0.88"/>
<path d="M234.938 161.686C234.938 162.171 234.812 162.629 234.56 163.058C234.317 163.478 233.953 163.828 233.468 164.108C232.992 164.379 232.427 164.537 231.774 164.584V165.718H230.878V164.57C229.945 164.486 229.193 164.206 228.624 163.73C228.055 163.245 227.761 162.591 227.742 161.77H229.842C229.898 162.442 230.243 162.848 230.878 162.988V160.314C230.206 160.146 229.665 159.978 229.254 159.81C228.843 159.642 228.489 159.371 228.19 158.998C227.891 158.625 227.742 158.116 227.742 157.472C227.742 156.66 228.031 155.997 228.61 155.484C229.198 154.971 229.954 154.677 230.878 154.602V153.468H231.774V154.602C232.67 154.677 233.384 154.947 233.916 155.414C234.457 155.881 234.761 156.525 234.826 157.346H232.712C232.684 157.075 232.586 156.842 232.418 156.646C232.259 156.441 232.045 156.296 231.774 156.212V158.858C232.474 159.035 233.025 159.208 233.426 159.376C233.837 159.535 234.191 159.801 234.49 160.174C234.789 160.538 234.938 161.042 234.938 161.686ZM229.786 157.374C229.786 157.682 229.879 157.934 230.066 158.13C230.253 158.317 230.523 158.471 230.878 158.592V156.17C230.542 156.217 230.276 156.343 230.08 156.548C229.884 156.753 229.786 157.029 229.786 157.374ZM231.774 163.016C232.129 162.951 232.404 162.806 232.6 162.582C232.805 162.358 232.908 162.087 232.908 161.77C232.908 161.462 232.81 161.215 232.614 161.028C232.418 160.841 232.138 160.687 231.774 160.566V163.016ZM236.93 156.982C236.977 156.049 237.303 155.33 237.91 154.826C238.526 154.313 239.333 154.056 240.332 154.056C241.013 154.056 241.597 154.177 242.082 154.42C242.567 154.653 242.931 154.975 243.174 155.386C243.426 155.787 243.552 156.245 243.552 156.758C243.552 157.346 243.398 157.845 243.09 158.256C242.791 158.657 242.432 158.928 242.012 159.068V159.124C242.553 159.292 242.973 159.591 243.272 160.02C243.58 160.449 243.734 161 243.734 161.672C243.734 162.232 243.603 162.731 243.342 163.17C243.09 163.609 242.712 163.954 242.208 164.206C241.713 164.449 241.116 164.57 240.416 164.57C239.361 164.57 238.503 164.304 237.84 163.772C237.177 163.24 236.827 162.456 236.79 161.42H238.694C238.713 161.877 238.867 162.246 239.156 162.526C239.455 162.797 239.861 162.932 240.374 162.932C240.85 162.932 241.214 162.801 241.466 162.54C241.727 162.269 241.858 161.924 241.858 161.504C241.858 160.944 241.681 160.543 241.326 160.3C240.971 160.057 240.421 159.936 239.674 159.936H239.268V158.326H239.674C240.999 158.326 241.662 157.883 241.662 156.996C241.662 156.595 241.541 156.282 241.298 156.058C241.065 155.834 240.724 155.722 240.276 155.722C239.837 155.722 239.497 155.843 239.254 156.086C239.021 156.319 238.885 156.618 238.848 156.982H236.93ZM250.575 156.842C250.482 156.45 250.318 156.156 250.085 155.96C249.861 155.764 249.534 155.666 249.105 155.666C248.461 155.666 247.985 155.927 247.677 156.45C247.378 156.963 247.224 157.803 247.215 158.97C247.439 158.597 247.766 158.307 248.195 158.102C248.624 157.887 249.091 157.78 249.595 157.78C250.202 157.78 250.738 157.911 251.205 158.172C251.672 158.433 252.036 158.816 252.297 159.32C252.558 159.815 252.689 160.412 252.689 161.112C252.689 161.775 252.554 162.367 252.283 162.89C252.022 163.403 251.634 163.805 251.121 164.094C250.608 164.383 249.996 164.528 249.287 164.528C248.316 164.528 247.551 164.313 246.991 163.884C246.44 163.455 246.053 162.857 245.829 162.092C245.614 161.317 245.507 160.365 245.507 159.236C245.507 157.528 245.801 156.24 246.389 155.372C246.977 154.495 247.906 154.056 249.175 154.056C250.155 154.056 250.916 154.322 251.457 154.854C251.998 155.386 252.311 156.049 252.395 156.842H250.575ZM249.147 159.39C248.652 159.39 248.237 159.535 247.901 159.824C247.565 160.113 247.397 160.533 247.397 161.084C247.397 161.635 247.551 162.069 247.859 162.386C248.176 162.703 248.62 162.862 249.189 162.862C249.693 162.862 250.09 162.708 250.379 162.4C250.678 162.092 250.827 161.677 250.827 161.154C250.827 160.613 250.682 160.183 250.393 159.866C250.113 159.549 249.698 159.39 249.147 159.39ZM255.33 164.598C254.975 164.598 254.681 164.491 254.448 164.276C254.224 164.052 254.112 163.777 254.112 163.45C254.112 163.123 254.224 162.853 254.448 162.638C254.681 162.414 254.975 162.302 255.33 162.302C255.675 162.302 255.96 162.414 256.184 162.638C256.408 162.853 256.52 163.123 256.52 163.45C256.52 163.777 256.408 164.052 256.184 164.276C255.96 164.491 255.675 164.598 255.33 164.598ZM257.791 162.512V160.972L262.369 154.42H264.651V160.804H265.883V162.512H264.651V164.5H262.691V162.512H257.791ZM262.817 156.52L259.947 160.804H262.817V156.52ZM267.131 159.264C267.131 157.649 267.42 156.385 267.999 155.47C268.587 154.555 269.557 154.098 270.911 154.098C272.264 154.098 273.23 154.555 273.809 155.47C274.397 156.385 274.691 157.649 274.691 159.264C274.691 160.888 274.397 162.162 273.809 163.086C273.23 164.01 272.264 164.472 270.911 164.472C269.557 164.472 268.587 164.01 267.999 163.086C267.42 162.162 267.131 160.888 267.131 159.264ZM272.759 159.264C272.759 158.573 272.712 157.995 272.619 157.528C272.535 157.052 272.357 156.665 272.087 156.366C271.825 156.067 271.433 155.918 270.911 155.918C270.388 155.918 269.991 156.067 269.721 156.366C269.459 156.665 269.282 157.052 269.189 157.528C269.105 157.995 269.063 158.573 269.063 159.264C269.063 159.973 269.105 160.571 269.189 161.056C269.273 161.532 269.45 161.919 269.721 162.218C269.991 162.507 270.388 162.652 270.911 162.652C271.433 162.652 271.83 162.507 272.101 162.218C272.371 161.919 272.549 161.532 272.633 161.056C272.717 160.571 272.759 159.973 272.759 159.264Z" fill="black" fill-opacity="0.88"/>
<rect x="296" y="12" width="176" height="176" rx="7" fill="#F7F7F7"/>
<path d="M327.3 30.9016C327.5 30.9016 327.6 31.0016 327.8 31.1016C326.6 31.6016 325.4 32.9016 324.8 35.7016L322.6 36.3016C323.3 34.3016 324.7 30.9016 327.3 30.9016ZM328.4 31.9016C328.6 32.5016 328.8 33.2016 328.8 34.3016C328.8 34.4016 328.8 34.4016 328.8 34.5016L325.9 35.3016C326.5 33.2016 327.5 32.3016 328.4 31.9016ZM331 33.7016L329.7 34.1016C329.7 34.0016 329.7 33.9016 329.7 33.8016C329.7 32.9016 329.6 32.2016 329.4 31.6016C330.1 31.8016 330.7 32.7016 331 33.7016ZM337.5 35.3016C337.5 35.2016 337.4 35.1016 337.3 35.1016C337.1 35.1016 335 34.9016 335 34.9016C335 34.9016 333.5 33.4016 333.3 33.3016C333.1 33.1016 332.8 33.2016 332.7 33.2016C332.7 33.2016 332.4 33.3016 331.9 33.5016C331.4 32.1016 330.5 30.8016 329 30.8016H328.9C328.5 30.2016 327.9 30.0016 327.4 30.0016C323.8 29.9016 322.1 34.4016 321.5 36.7016C320.7 36.9016 319.9 37.2016 319 37.5016C318.2 37.7016 318.2 37.8016 318.1 38.5016C318 39.0016 316 54.8016 316 54.8016L331.9 57.8016L340.5 55.9016C340.5 55.9016 337.5 35.5016 337.5 35.3016Z" fill="#8DB849"/>
<path d="M337.2 35.1031C337.1 35.1031 335 34.9031 335 34.9031C335 34.9031 333.5 33.4031 333.3 33.3031C333.2 33.2031 333.2 33.2031 333.1 33.2031L331.9 57.8031L340.5 55.9031C340.5 55.9031 337.5 35.5031 337.5 35.3031C337.5 35.2031 337.3 35.1031 337.2 35.1031Z" fill="#5A863E"/>
<path d="M328.999 39.8976L327.899 43.0976C327.899 43.0976 326.999 42.5976 325.799 42.5976C324.099 42.5976 323.999 43.5976 323.999 43.8976C323.999 45.2976 327.799 45.8976 327.799 49.2976C327.799 51.9976 326.099 53.6976 323.799 53.6976C321.099 53.6976 319.699 51.9976 319.699 51.9976L320.399 49.5976C320.399 49.5976 321.799 50.7976 322.999 50.7976C323.799 50.7976 324.099 50.1976 324.099 49.6976C324.099 47.7976 320.999 47.6976 320.999 44.5976C320.999 41.9976 322.899 39.4976 326.599 39.4976C328.299 39.3976 328.999 39.8976 328.999 39.8976Z" fill="#FFFFFE"/>
<path d="M358 92H410" stroke="#F7F7F7"/>
<path d="M312.528 133.406V132.273H319.283V133.406H316.56V141H315.247V133.406H312.528ZM319.993 141V134.455H321.225V135.494H321.293C321.412 135.142 321.623 134.865 321.924 134.663C322.228 134.459 322.571 134.357 322.955 134.357C323.034 134.357 323.128 134.359 323.236 134.365C323.347 134.371 323.434 134.378 323.496 134.386V135.605C323.445 135.591 323.354 135.575 323.223 135.558C323.093 135.538 322.962 135.528 322.831 135.528C322.53 135.528 322.262 135.592 322.026 135.72C321.793 135.845 321.608 136.02 321.472 136.244C321.336 136.466 321.267 136.719 321.267 137.003V141H319.993ZM326.445 141.145C326.03 141.145 325.655 141.068 325.32 140.915C324.985 140.759 324.719 140.533 324.523 140.237C324.33 139.942 324.233 139.58 324.233 139.151C324.233 138.781 324.304 138.477 324.446 138.239C324.588 138 324.78 137.811 325.022 137.672C325.263 137.533 325.533 137.428 325.831 137.357C326.13 137.286 326.434 137.232 326.743 137.195C327.135 137.149 327.453 137.112 327.698 137.084C327.942 137.053 328.12 137.003 328.23 136.935C328.341 136.866 328.397 136.756 328.397 136.602V136.572C328.397 136.2 328.292 135.912 328.081 135.707C327.874 135.503 327.564 135.401 327.152 135.401C326.723 135.401 326.385 135.496 326.138 135.686C325.894 135.874 325.725 136.082 325.631 136.312L324.434 136.04C324.576 135.642 324.783 135.321 325.056 135.077C325.331 134.83 325.648 134.651 326.006 134.54C326.364 134.426 326.74 134.369 327.135 134.369C327.397 134.369 327.674 134.401 327.966 134.463C328.262 134.523 328.537 134.634 328.793 134.795C329.051 134.957 329.263 135.189 329.428 135.49C329.593 135.788 329.675 136.176 329.675 136.653V141H328.431V140.105H328.38C328.297 140.27 328.174 140.432 328.009 140.591C327.844 140.75 327.632 140.882 327.374 140.987C327.115 141.092 326.806 141.145 326.445 141.145ZM326.722 140.122C327.074 140.122 327.375 140.053 327.625 139.913C327.878 139.774 328.07 139.592 328.201 139.368C328.334 139.141 328.401 138.898 328.401 138.639V137.795C328.355 137.841 328.267 137.884 328.137 137.923C328.009 137.96 327.863 137.993 327.698 138.021C327.533 138.047 327.373 138.071 327.216 138.094C327.06 138.114 326.929 138.131 326.824 138.145C326.577 138.176 326.351 138.229 326.147 138.303C325.945 138.376 325.783 138.483 325.661 138.622C325.542 138.759 325.482 138.94 325.482 139.168C325.482 139.483 325.598 139.722 325.831 139.884C326.064 140.043 326.361 140.122 326.722 140.122ZM334.129 141.132C333.496 141.132 332.95 140.989 332.493 140.702C332.038 140.412 331.689 140.013 331.445 139.504C331.2 138.996 331.078 138.413 331.078 137.757C331.078 137.092 331.203 136.506 331.453 135.997C331.703 135.486 332.055 135.087 332.51 134.8C332.964 134.513 333.5 134.369 334.116 134.369C334.614 134.369 335.057 134.462 335.446 134.646C335.835 134.828 336.149 135.084 336.388 135.413C336.629 135.743 336.773 136.128 336.818 136.568H335.578C335.51 136.261 335.354 135.997 335.109 135.776C334.868 135.554 334.544 135.443 334.138 135.443C333.783 135.443 333.472 135.537 333.205 135.724C332.94 135.909 332.734 136.173 332.587 136.517C332.439 136.858 332.365 137.261 332.365 137.727C332.365 138.205 332.438 138.616 332.582 138.963C332.727 139.31 332.932 139.578 333.196 139.768C333.463 139.959 333.777 140.054 334.138 140.054C334.379 140.054 334.598 140.01 334.794 139.922C334.993 139.831 335.159 139.702 335.293 139.534C335.429 139.366 335.524 139.165 335.578 138.929H336.818C336.773 139.352 336.635 139.73 336.405 140.062C336.175 140.395 335.866 140.656 335.48 140.847C335.097 141.037 334.646 141.132 334.129 141.132ZM339.353 138.78L339.344 137.224H339.566L342.174 134.455H343.699L340.725 137.608H340.525L339.353 138.78ZM338.181 141V132.273H339.455V141H338.181ZM342.314 141L339.971 137.889L340.848 136.999L343.878 141H342.314ZM349.31 137.114V141H348.036V134.455H349.259V135.52H349.34C349.491 135.173 349.727 134.895 350.048 134.685C350.371 134.474 350.779 134.369 351.271 134.369C351.717 134.369 352.107 134.463 352.442 134.651C352.778 134.835 353.038 135.111 353.222 135.477C353.407 135.844 353.499 136.297 353.499 136.837V141H352.225V136.99C352.225 136.516 352.102 136.145 351.854 135.878C351.607 135.608 351.268 135.473 350.836 135.473C350.54 135.473 350.278 135.537 350.048 135.665C349.82 135.793 349.64 135.98 349.506 136.227C349.376 136.472 349.31 136.767 349.31 137.114ZM359.354 138.286V134.455H360.633V141H359.38V139.866H359.312C359.161 140.216 358.92 140.507 358.587 140.74C358.258 140.97 357.847 141.085 357.356 141.085C356.935 141.085 356.563 140.993 356.239 140.808C355.918 140.621 355.665 140.344 355.481 139.977C355.299 139.611 355.208 139.158 355.208 138.618V134.455H356.482V138.464C356.482 138.911 356.606 139.266 356.853 139.53C357.1 139.794 357.421 139.926 357.816 139.926C358.055 139.926 358.292 139.866 358.528 139.747C358.766 139.628 358.964 139.447 359.12 139.206C359.279 138.964 359.357 138.658 359.354 138.286ZM362.345 141V134.455H363.568V135.52H363.649C363.785 135.159 364.008 134.878 364.318 134.676C364.627 134.472 364.998 134.369 365.43 134.369C365.868 134.369 366.234 134.472 366.529 134.676C366.828 134.881 367.048 135.162 367.19 135.52H367.258C367.414 135.17 367.663 134.892 368.004 134.685C368.345 134.474 368.751 134.369 369.223 134.369C369.816 134.369 370.301 134.555 370.676 134.928C371.054 135.3 371.243 135.861 371.243 136.611V141H369.968V136.73C369.968 136.287 369.848 135.966 369.606 135.767C369.365 135.568 369.076 135.469 368.741 135.469C368.326 135.469 368.004 135.597 367.774 135.852C367.544 136.105 367.429 136.43 367.429 136.828V141H366.159V136.649C366.159 136.294 366.048 136.009 365.826 135.793C365.605 135.577 365.316 135.469 364.961 135.469C364.72 135.469 364.497 135.533 364.292 135.661C364.091 135.786 363.927 135.96 363.802 136.185C363.68 136.409 363.619 136.669 363.619 136.964V141H362.345ZM373.053 141V132.273H374.327V135.516H374.403C374.477 135.379 374.584 135.222 374.723 135.043C374.862 134.864 375.055 134.707 375.303 134.574C375.55 134.438 375.876 134.369 376.283 134.369C376.811 134.369 377.283 134.503 377.697 134.77C378.112 135.037 378.438 135.422 378.673 135.925C378.912 136.428 379.031 137.033 379.031 137.74C379.031 138.447 378.913 139.054 378.678 139.56C378.442 140.062 378.118 140.45 377.706 140.723C377.294 140.993 376.824 141.128 376.295 141.128C375.898 141.128 375.572 141.061 375.32 140.928C375.07 140.794 374.874 140.638 374.732 140.459C374.589 140.28 374.48 140.121 374.403 139.982H374.297V141H373.053ZM374.301 137.727C374.301 138.187 374.368 138.591 374.501 138.938C374.635 139.284 374.828 139.555 375.081 139.751C375.334 139.945 375.643 140.041 376.01 140.041C376.391 140.041 376.709 139.94 376.964 139.739C377.22 139.534 377.413 139.257 377.544 138.908C377.678 138.558 377.744 138.165 377.744 137.727C377.744 137.295 377.679 136.908 377.548 136.564C377.42 136.22 377.227 135.949 376.969 135.75C376.713 135.551 376.393 135.452 376.01 135.452C375.641 135.452 375.328 135.547 375.072 135.737C374.82 135.928 374.628 136.193 374.497 136.534C374.366 136.875 374.301 137.273 374.301 137.727ZM383.283 141.132C382.638 141.132 382.083 140.994 381.617 140.719C381.154 140.44 380.796 140.05 380.543 139.547C380.293 139.041 380.168 138.449 380.168 137.77C380.168 137.099 380.293 136.509 380.543 135.997C380.796 135.486 381.148 135.087 381.6 134.8C382.054 134.513 382.586 134.369 383.194 134.369C383.563 134.369 383.921 134.43 384.267 134.553C384.614 134.675 384.925 134.866 385.201 135.128C385.476 135.389 385.694 135.729 385.853 136.146C386.012 136.561 386.091 137.065 386.091 137.659V138.111H380.888V137.156H384.843C384.843 136.821 384.775 136.524 384.638 136.266C384.502 136.004 384.31 135.798 384.063 135.648C383.819 135.497 383.532 135.422 383.202 135.422C382.844 135.422 382.532 135.51 382.265 135.686C382 135.859 381.796 136.087 381.651 136.368C381.509 136.646 381.438 136.949 381.438 137.276V138.021C381.438 138.459 381.515 138.831 381.668 139.138C381.824 139.445 382.042 139.679 382.32 139.841C382.598 140 382.924 140.08 383.296 140.08C383.537 140.08 383.757 140.045 383.956 139.977C384.155 139.906 384.327 139.801 384.472 139.662C384.617 139.523 384.728 139.351 384.804 139.146L386.01 139.364C385.914 139.719 385.74 140.03 385.49 140.297C385.243 140.561 384.932 140.767 384.557 140.915C384.185 141.06 383.76 141.132 383.283 141.132ZM387.505 141V134.455H388.737V135.494H388.805C388.924 135.142 389.134 134.865 389.435 134.663C389.739 134.459 390.083 134.357 390.467 134.357C390.546 134.357 390.64 134.359 390.748 134.365C390.859 134.371 390.945 134.378 391.008 134.386V135.605C390.957 135.591 390.866 135.575 390.735 135.558C390.604 135.538 390.474 135.528 390.343 135.528C390.042 135.528 389.773 135.592 389.538 135.72C389.305 135.845 389.12 136.02 388.984 136.244C388.847 136.466 388.779 136.719 388.779 137.003V141H387.505Z" fill="#A7A9AE"/>
<path d="M326.68 158.02L326.02 161.1H328.56V163.6H325.48L324.76 167H322.1L322.82 163.6H319.18L318.46 167H315.82L316.54 163.6H313.52V161.1H317.08L317.74 158.02H314.74V155.52H318.28L318.98 152.2H321.62L320.92 155.52H324.56L325.26 152.2H327.92L327.22 155.52H329.78V158.02H326.68ZM324.02 158.02H320.38L319.72 161.1H323.36L324.02 158.02ZM331.794 159.52C331.794 157.213 332.208 155.407 333.034 154.1C333.874 152.793 335.261 152.14 337.194 152.14C339.128 152.14 340.508 152.793 341.334 154.1C342.174 155.407 342.594 157.213 342.594 159.52C342.594 161.84 342.174 163.66 341.334 164.98C340.508 166.3 339.128 166.96 337.194 166.96C335.261 166.96 333.874 166.3 333.034 164.98C332.208 163.66 331.794 161.84 331.794 159.52ZM339.834 159.52C339.834 158.533 339.768 157.707 339.634 157.04C339.514 156.36 339.261 155.807 338.874 155.38C338.501 154.953 337.941 154.74 337.194 154.74C336.448 154.74 335.881 154.953 335.494 155.38C335.121 155.807 334.868 156.36 334.734 157.04C334.614 157.707 334.554 158.533 334.554 159.52C334.554 160.533 334.614 161.387 334.734 162.08C334.854 162.76 335.108 163.313 335.494 163.74C335.881 164.153 336.448 164.36 337.194 164.36C337.941 164.36 338.508 164.153 338.894 163.74C339.281 163.313 339.534 162.76 339.654 162.08C339.774 161.387 339.834 160.533 339.834 159.52ZM344.724 159.52C344.724 157.213 345.137 155.407 345.964 154.1C346.804 152.793 348.191 152.14 350.124 152.14C352.057 152.14 353.437 152.793 354.264 154.1C355.104 155.407 355.524 157.213 355.524 159.52C355.524 161.84 355.104 163.66 354.264 164.98C353.437 166.3 352.057 166.96 350.124 166.96C348.191 166.96 346.804 166.3 345.964 164.98C345.137 163.66 344.724 161.84 344.724 159.52ZM352.764 159.52C352.764 158.533 352.697 157.707 352.564 157.04C352.444 156.36 352.191 155.807 351.804 155.38C351.431 154.953 350.871 154.74 350.124 154.74C349.377 154.74 348.811 154.953 348.424 155.38C348.051 155.807 347.797 156.36 347.664 157.04C347.544 157.707 347.484 158.533 347.484 159.52C347.484 160.533 347.544 161.387 347.664 162.08C347.784 162.76 348.037 163.313 348.424 163.74C348.811 164.153 349.377 164.36 350.124 164.36C350.871 164.36 351.437 164.153 351.824 163.74C352.211 163.313 352.464 162.76 352.584 162.08C352.704 161.387 352.764 160.533 352.764 159.52ZM357.654 159.52C357.654 157.213 358.067 155.407 358.894 154.1C359.734 152.793 361.12 152.14 363.054 152.14C364.987 152.14 366.367 152.793 367.194 154.1C368.034 155.407 368.454 157.213 368.454 159.52C368.454 161.84 368.034 163.66 367.194 164.98C366.367 166.3 364.987 166.96 363.054 166.96C361.12 166.96 359.734 166.3 358.894 164.98C358.067 163.66 357.654 161.84 357.654 159.52ZM365.694 159.52C365.694 158.533 365.627 157.707 365.494 157.04C365.374 156.36 365.12 155.807 364.734 155.38C364.36 154.953 363.8 154.74 363.054 154.74C362.307 154.74 361.74 154.953 361.354 155.38C360.98 155.807 360.727 156.36 360.594 157.04C360.474 157.707 360.414 158.533 360.414 159.52C360.414 160.533 360.474 161.387 360.594 162.08C360.714 162.76 360.967 163.313 361.354 163.74C361.74 164.153 362.307 164.36 363.054 164.36C363.8 164.36 364.367 164.153 364.754 163.74C365.14 163.313 365.394 162.76 365.514 162.08C365.634 161.387 365.694 160.533 365.694 159.52ZM370.583 159.52C370.583 157.213 370.997 155.407 371.823 154.1C372.663 152.793 374.05 152.14 375.983 152.14C377.917 152.14 379.297 152.793 380.123 154.1C380.963 155.407 381.383 157.213 381.383 159.52C381.383 161.84 380.963 163.66 380.123 164.98C379.297 166.3 377.917 166.96 375.983 166.96C374.05 166.96 372.663 166.3 371.823 164.98C370.997 163.66 370.583 161.84 370.583 159.52ZM378.623 159.52C378.623 158.533 378.557 157.707 378.423 157.04C378.303 156.36 378.05 155.807 377.663 155.38C377.29 154.953 376.73 154.74 375.983 154.74C375.237 154.74 374.67 154.953 374.283 155.38C373.91 155.807 373.657 156.36 373.523 157.04C373.403 157.707 373.343 158.533 373.343 159.52C373.343 160.533 373.403 161.387 373.523 162.08C373.643 162.76 373.897 163.313 374.283 163.74C374.67 164.153 375.237 164.36 375.983 164.36C376.73 164.36 377.297 164.153 377.683 163.74C378.07 163.313 378.323 162.76 378.443 162.08C378.563 161.387 378.623 160.533 378.623 159.52Z" fill="black" fill-opacity="0.88"/>
</svg>
