<svg width="406" height="385" viewBox="0 0 406 385" fill="none" xmlns="http://www.w3.org/2000/svg">
<circle cx="203" cy="263.004" r="194.543" stroke="#EFF2F6" stroke-width="1.54706" stroke-dasharray="4.64 4.64"/>
<circle cx="203" cy="263" r="262.226" stroke="#EFF2F6" stroke-width="1.54706" stroke-dasharray="4.64 4.64"/>
<circle cx="201.5" cy="255.5" r="94.5" fill="white"/>
<g filter="url(#filter0_i_3001_14287)">
<path d="M282.163 381.616C309.696 364.104 330.774 338.097 342.206 307.535C353.638 276.972 354.801 243.517 345.52 212.234C336.238 180.951 317.017 153.544 290.767 134.161C264.517 114.778 232.666 104.476 200.037 104.813C167.408 105.15 135.777 116.108 109.933 136.029C84.0888 155.95 65.4383 183.748 56.8051 215.216C48.1718 246.684 50.0258 280.108 62.0864 310.428C74.147 340.748 95.7576 366.313 123.646 383.254L152.667 335.478C135.162 324.845 121.597 308.798 114.027 289.767C106.457 270.736 105.294 249.757 110.712 230.006C116.131 210.254 127.838 192.806 144.059 180.302C160.281 167.799 180.134 160.921 200.615 160.709C221.095 160.497 241.086 166.964 257.563 179.13C274.039 191.296 286.104 208.499 291.929 228.134C297.755 247.769 297.025 268.768 289.849 287.951C282.674 307.134 269.444 323.458 252.163 334.45L282.163 381.616Z" fill="url(#paint0_linear_3001_14287)" fill-opacity="0.2"/>
<path d="M282.163 381.616C309.696 364.104 330.774 338.097 342.206 307.535C353.638 276.972 354.801 243.517 345.52 212.234C336.238 180.951 317.017 153.544 290.767 134.161C264.517 114.778 232.666 104.476 200.037 104.813C167.408 105.15 135.777 116.108 109.933 136.029C84.0888 155.95 65.4383 183.748 56.8051 215.216C48.1718 246.684 50.0258 280.108 62.0864 310.428C74.147 340.748 95.7576 366.313 123.646 383.254L152.667 335.478C135.162 324.845 121.597 308.798 114.027 289.767C106.457 270.736 105.294 249.757 110.712 230.006C116.131 210.254 127.838 192.806 144.059 180.302C160.281 167.799 180.134 160.921 200.615 160.709C221.095 160.497 241.086 166.964 257.563 179.13C274.039 191.296 286.104 208.499 291.929 228.134C297.755 247.769 297.025 268.768 289.849 287.951C282.674 307.134 269.444 323.458 252.163 334.45L282.163 381.616Z" fill="white" fill-opacity="0.5"/>
</g>
<path d="M123.784 383.341C96.1723 366.612 74.6892 341.427 62.5212 311.524C50.3533 281.621 48.1488 248.591 56.2347 217.336C64.3206 186.081 82.2662 158.265 107.409 138.014C132.552 117.763 163.554 106.157 195.814 104.917L197.962 160.775C177.713 161.553 158.254 168.838 142.473 181.549C126.691 194.26 115.428 211.719 110.352 231.337C105.277 250.955 106.661 271.686 114.298 290.455C121.936 309.225 135.42 325.032 152.751 335.533L123.784 383.341Z" fill="url(#paint1_linear_3001_14287)"/>
<path d="M223.557 132.853C223.557 147.874 211.203 160.068 195.943 160.068C180.683 160.068 168.33 147.874 168.33 132.853C168.33 117.832 180.683 105.638 195.943 105.638C211.203 105.638 223.557 117.832 223.557 132.853Z" fill="white" stroke="url(#paint2_linear_3001_14287)" stroke-width="1.40167"/>
<path d="M139.746 263.508V255.702L162.953 222.488H174.521V254.85H180.766V263.508H174.521V273.586H164.585V263.508H139.746ZM165.224 233.133L150.675 254.85H165.224V233.133ZM194.331 246.192C189.6 243.731 187.234 239.923 187.234 234.766C187.234 232.211 187.873 229.892 189.15 227.811C190.475 225.681 192.438 224.002 195.041 222.772C197.69 221.494 200.907 220.855 204.692 220.855C208.477 220.855 211.671 221.494 214.273 222.772C216.923 224.002 218.886 225.681 220.164 227.811C221.489 229.892 222.151 232.211 222.151 234.766C222.151 237.368 221.512 239.662 220.235 241.65C218.957 243.589 217.254 245.103 215.125 246.192C217.727 247.327 219.762 248.983 221.228 251.16C222.695 253.336 223.428 255.914 223.428 258.895C223.428 262.113 222.6 264.928 220.944 267.341C219.336 269.706 217.112 271.528 214.273 272.805C211.435 274.083 208.241 274.721 204.692 274.721C201.144 274.721 197.95 274.083 195.111 272.805C192.32 271.528 190.096 269.706 188.44 267.341C186.832 264.928 186.027 262.113 186.027 258.895C186.027 255.914 186.761 253.336 188.227 251.16C189.694 248.936 191.729 247.28 194.331 246.192ZM212.499 236.185C212.499 233.867 211.789 232.069 210.37 230.791C208.998 229.514 207.105 228.875 204.692 228.875C202.327 228.875 200.434 229.514 199.015 230.791C197.643 232.069 196.957 233.89 196.957 236.256C196.957 238.385 197.666 240.088 199.086 241.366C200.553 242.643 202.421 243.282 204.692 243.282C206.963 243.282 208.832 242.643 210.299 241.366C211.766 240.041 212.499 238.314 212.499 236.185ZM204.692 250.521C201.996 250.521 199.795 251.207 198.092 252.579C196.436 253.951 195.608 255.914 195.608 258.469C195.608 260.835 196.413 262.775 198.021 264.289C199.677 265.756 201.901 266.489 204.692 266.489C207.484 266.489 209.684 265.732 211.293 264.218C212.901 262.704 213.706 260.788 213.706 258.469C213.706 255.962 212.878 254.022 211.222 252.65C209.566 251.23 207.389 250.521 204.692 250.521Z" fill="#242424"/>
<path d="M235.291 254.078L229.67 277.202H227.356L232.956 254.078H235.291ZM237.195 261.111V259.035H241.347V273.586H239.052V261.111H237.195ZM244.074 266.121C244.074 263.819 244.46 262.022 245.232 260.732C246.017 259.427 247.361 258.775 249.263 258.775C251.166 258.775 252.504 259.427 253.275 260.732C254.061 262.022 254.453 263.819 254.453 266.121C254.453 268.45 254.061 270.273 253.275 271.59C252.504 272.894 251.166 273.546 249.263 273.546C247.361 273.546 246.017 272.894 245.232 271.59C244.46 270.273 244.074 268.45 244.074 266.121ZM252.218 266.121C252.218 265.043 252.144 264.131 251.998 263.386C251.865 262.641 251.586 262.036 251.16 261.57C250.734 261.091 250.102 260.851 249.263 260.851C248.425 260.851 247.793 261.091 247.367 261.57C246.941 262.036 246.655 262.641 246.509 263.386C246.376 264.131 246.309 265.043 246.309 266.121C246.309 267.239 246.376 268.177 246.509 268.935C246.642 269.694 246.921 270.306 247.347 270.772C247.786 271.237 248.425 271.47 249.263 271.47C250.102 271.47 250.734 271.237 251.16 270.772C251.599 270.306 251.885 269.694 252.018 268.935C252.151 268.177 252.218 267.239 252.218 266.121ZM256.462 266.121C256.462 263.819 256.848 262.022 257.619 260.732C258.404 259.427 259.748 258.775 261.651 258.775C263.554 258.775 264.892 259.427 265.663 260.732C266.448 262.022 266.841 263.819 266.841 266.121C266.841 268.45 266.448 270.273 265.663 271.59C264.892 272.894 263.554 273.546 261.651 273.546C259.748 273.546 258.404 272.894 257.619 271.59C256.848 270.273 256.462 268.45 256.462 266.121ZM264.605 266.121C264.605 265.043 264.532 264.131 264.386 263.386C264.253 262.641 263.973 262.036 263.548 261.57C263.122 261.091 262.49 260.851 261.651 260.851C260.813 260.851 260.181 261.091 259.755 261.57C259.329 262.036 259.043 262.641 258.897 263.386C258.764 264.131 258.697 265.043 258.697 266.121C258.697 267.239 258.764 268.177 258.897 268.935C259.03 269.694 259.309 270.306 259.735 270.772C260.174 271.237 260.813 271.47 261.651 271.47C262.49 271.47 263.122 271.237 263.548 270.772C263.987 270.306 264.273 269.694 264.406 268.935C264.539 268.177 264.605 267.239 264.605 266.121Z" fill="#939393"/>
<g filter="url(#filter1_d_3001_14287)">
<path d="M80.7812 332.438C80.7812 327.411 84.8562 323.336 89.8828 323.336H315.147C320.174 323.336 324.249 327.411 324.249 332.438V382.496C324.249 387.523 320.174 391.598 315.147 391.598H89.8828C84.8562 391.598 80.7812 387.523 80.7812 382.496V332.438Z" fill="white" shape-rendering="crispEdges"/>
<path d="M81.2812 332.438C81.2812 327.687 85.1323 323.836 89.8828 323.836H315.147C319.897 323.836 323.749 327.687 323.749 332.438V382.496C323.749 387.247 319.897 391.098 315.147 391.098H89.8828C85.1323 391.098 81.2812 387.247 81.2812 382.496V332.438Z" stroke="#ECECEC" shape-rendering="crispEdges"/>
<path d="M103.343 349.853C102.706 349.853 102.132 349.744 101.623 349.526C101.113 349.298 100.712 348.98 100.421 348.57C100.13 348.16 99.9842 347.683 99.9842 347.137H101.65C101.686 347.546 101.845 347.883 102.128 348.147C102.419 348.411 102.824 348.543 103.343 348.543C103.88 348.543 104.298 348.415 104.599 348.16C104.899 347.897 105.049 347.56 105.049 347.15C105.049 346.832 104.954 346.572 104.763 346.372C104.581 346.172 104.348 346.017 104.066 345.908C103.793 345.799 103.411 345.68 102.919 345.553C102.301 345.389 101.795 345.225 101.404 345.061C101.022 344.888 100.694 344.625 100.421 344.27C100.148 343.915 100.012 343.441 100.012 342.85C100.012 342.304 100.148 341.826 100.421 341.416C100.694 341.007 101.076 340.693 101.568 340.474C102.059 340.256 102.628 340.147 103.274 340.147C104.194 340.147 104.945 340.379 105.527 340.843C106.119 341.298 106.446 341.926 106.51 342.727H104.79C104.763 342.381 104.599 342.085 104.298 341.839C103.998 341.594 103.602 341.471 103.111 341.471C102.665 341.471 102.301 341.585 102.018 341.812C101.736 342.04 101.595 342.367 101.595 342.795C101.595 343.086 101.682 343.328 101.855 343.519C102.037 343.701 102.264 343.846 102.537 343.956C102.81 344.065 103.183 344.183 103.657 344.311C104.285 344.483 104.794 344.656 105.186 344.829C105.586 345.002 105.923 345.271 106.196 345.635C106.478 345.99 106.619 346.468 106.619 347.068C106.619 347.551 106.487 348.006 106.223 348.434C105.969 348.861 105.591 349.207 105.09 349.471C104.599 349.726 104.016 349.853 103.343 349.853ZM115.35 345.812C115.35 346.094 115.332 346.349 115.296 346.577H109.548C109.593 347.178 109.816 347.66 110.217 348.024C110.617 348.388 111.109 348.57 111.691 348.57C112.529 348.57 113.12 348.22 113.466 347.519H115.145C114.918 348.211 114.504 348.779 113.903 349.225C113.311 349.662 112.574 349.881 111.691 349.881C110.972 349.881 110.326 349.721 109.753 349.403C109.188 349.075 108.742 348.62 108.415 348.038C108.096 347.446 107.937 346.763 107.937 345.99C107.937 345.216 108.092 344.538 108.401 343.956C108.72 343.364 109.161 342.909 109.725 342.59C110.299 342.272 110.954 342.112 111.691 342.112C112.401 342.112 113.034 342.267 113.589 342.577C114.144 342.886 114.577 343.323 114.886 343.887C115.195 344.442 115.35 345.084 115.35 345.812ZM113.726 345.321C113.716 344.747 113.512 344.288 113.111 343.942C112.711 343.596 112.215 343.423 111.623 343.423C111.086 343.423 110.626 343.596 110.244 343.942C109.862 344.279 109.634 344.738 109.562 345.321H113.726ZM118.438 339.655V349.758H116.882V339.655H118.438ZM122.038 339.655V349.758H120.482V339.655H122.038ZM124.873 341.239C124.591 341.239 124.354 341.143 124.163 340.952C123.972 340.761 123.877 340.524 123.877 340.242C123.877 339.96 123.972 339.723 124.163 339.532C124.354 339.341 124.591 339.245 124.873 339.245C125.146 339.245 125.378 339.341 125.569 339.532C125.761 339.723 125.856 339.96 125.856 340.242C125.856 340.524 125.761 340.761 125.569 340.952C125.378 341.143 125.146 341.239 124.873 341.239ZM125.638 342.235V349.758H124.081V342.235H125.638ZM131.476 342.112C132.068 342.112 132.596 342.235 133.06 342.481C133.533 342.727 133.902 343.091 134.166 343.573C134.43 344.056 134.562 344.638 134.562 345.321V349.758H133.019V345.553C133.019 344.879 132.851 344.365 132.514 344.01C132.177 343.646 131.718 343.464 131.135 343.464C130.553 343.464 130.088 343.646 129.743 344.01C129.406 344.365 129.237 344.879 129.237 345.553V349.758H127.681V342.235H129.237V343.095C129.492 342.786 129.815 342.545 130.207 342.372C130.607 342.199 131.03 342.112 131.476 342.112ZM139.578 342.112C140.16 342.112 140.675 342.231 141.121 342.467C141.576 342.695 141.931 342.982 142.186 343.328V342.235H143.756V349.881C143.756 350.572 143.61 351.187 143.319 351.724C143.027 352.27 142.604 352.698 142.049 353.007C141.503 353.317 140.848 353.471 140.083 353.471C139.064 353.471 138.217 353.23 137.544 352.748C136.87 352.274 136.488 351.628 136.397 350.809H137.94C138.058 351.2 138.308 351.514 138.691 351.751C139.082 351.997 139.546 352.12 140.083 352.12C140.711 352.12 141.216 351.929 141.598 351.546C141.99 351.164 142.186 350.609 142.186 349.881V348.625C141.922 348.98 141.562 349.28 141.107 349.526C140.661 349.762 140.151 349.881 139.578 349.881C138.923 349.881 138.322 349.717 137.776 349.389C137.239 349.052 136.811 348.588 136.492 347.997C136.183 347.396 136.028 346.718 136.028 345.962C136.028 345.207 136.183 344.538 136.492 343.956C136.811 343.373 137.239 342.923 137.776 342.604C138.322 342.276 138.923 342.112 139.578 342.112ZM142.186 345.99C142.186 345.471 142.076 345.02 141.858 344.638C141.649 344.256 141.371 343.965 141.025 343.764C140.679 343.564 140.306 343.464 139.906 343.464C139.505 343.464 139.132 343.564 138.786 343.764C138.44 343.956 138.158 344.242 137.94 344.625C137.73 344.998 137.626 345.444 137.626 345.962C137.626 346.481 137.73 346.936 137.94 347.328C138.158 347.719 138.44 348.019 138.786 348.229C139.141 348.429 139.514 348.529 139.906 348.529C140.306 348.529 140.679 348.429 141.025 348.229C141.371 348.029 141.649 347.737 141.858 347.355C142.076 346.964 142.186 346.509 142.186 345.99Z" fill="black" fill-opacity="0.45"/>
<path d="M99.8477 362.25V359.902H104.235V373.172H101.613V362.25H99.8477ZM106.752 366.364C106.752 364.264 107.128 362.62 107.881 361.431C108.645 360.242 109.907 359.647 111.667 359.647C113.427 359.647 114.683 360.242 115.435 361.431C116.2 362.62 116.582 364.264 116.582 366.364C116.582 368.475 116.2 370.132 115.435 371.333C114.683 372.535 113.427 373.135 111.667 373.135C109.907 373.135 108.645 372.535 107.881 371.333C107.128 370.132 106.752 368.475 106.752 366.364ZM114.07 366.364C114.07 365.466 114.009 364.713 113.888 364.107C113.779 363.488 113.548 362.984 113.196 362.596C112.856 362.208 112.347 362.013 111.667 362.013C110.988 362.013 110.472 362.208 110.12 362.596C109.78 362.984 109.549 363.488 109.428 364.107C109.319 364.713 109.264 365.466 109.264 366.364C109.264 367.286 109.319 368.063 109.428 368.694C109.537 369.313 109.768 369.816 110.12 370.205C110.472 370.581 110.988 370.769 111.667 370.769C112.347 370.769 112.862 370.581 113.214 370.205C113.566 369.816 113.797 369.313 113.906 368.694C114.015 368.063 114.07 367.286 114.07 366.364ZM127.536 373.299C126.65 373.299 125.849 373.148 125.133 372.844C124.429 372.541 123.871 372.104 123.458 371.534C123.046 370.963 122.834 370.29 122.821 369.513H125.552C125.588 370.035 125.77 370.447 126.098 370.751C126.438 371.054 126.899 371.206 127.481 371.206C128.076 371.206 128.543 371.066 128.883 370.787C129.223 370.496 129.393 370.12 129.393 369.659C129.393 369.282 129.277 368.973 129.047 368.73C128.816 368.488 128.525 368.299 128.173 368.166C127.833 368.02 127.36 367.863 126.753 367.693C125.928 367.45 125.255 367.213 124.733 366.983C124.223 366.74 123.78 366.382 123.404 365.909C123.04 365.423 122.858 364.78 122.858 363.979C122.858 363.227 123.046 362.572 123.422 362.013C123.798 361.455 124.326 361.03 125.006 360.739C125.685 360.436 126.462 360.284 127.336 360.284C128.646 360.284 129.708 360.606 130.521 361.249C131.347 361.88 131.802 362.766 131.887 363.906H129.083C129.059 363.47 128.871 363.112 128.519 362.832C128.179 362.541 127.724 362.396 127.154 362.396C126.656 362.396 126.256 362.523 125.952 362.778C125.661 363.033 125.515 363.403 125.515 363.888C125.515 364.228 125.625 364.513 125.843 364.744C126.074 364.962 126.353 365.144 126.68 365.29C127.02 365.423 127.494 365.581 128.1 365.763C128.925 366.006 129.599 366.249 130.121 366.491C130.643 366.734 131.092 367.098 131.468 367.584C131.844 368.069 132.032 368.706 132.032 369.495C132.032 370.174 131.856 370.805 131.504 371.388C131.152 371.97 130.637 372.438 129.957 372.79C129.277 373.129 128.47 373.299 127.536 373.299ZM137.209 365.181V370.059C137.209 370.399 137.288 370.648 137.445 370.805C137.615 370.951 137.894 371.024 138.283 371.024H139.466V373.172H137.864C135.716 373.172 134.642 372.128 134.642 370.041V365.181H133.441V363.087H134.642V360.593H137.209V363.087H139.466V365.181H137.209ZM145.777 373.336C144.806 373.336 143.932 373.123 143.156 372.699C142.379 372.262 141.766 371.649 141.317 370.86C140.88 370.071 140.662 369.161 140.662 368.13C140.662 367.098 140.886 366.188 141.335 365.399C141.796 364.61 142.421 364.004 143.21 363.579C143.999 363.142 144.879 362.923 145.85 362.923C146.82 362.923 147.7 363.142 148.489 363.579C149.278 364.004 149.897 364.61 150.346 365.399C150.807 366.188 151.038 367.098 151.038 368.13C151.038 369.161 150.801 370.071 150.328 370.86C149.866 371.649 149.235 372.262 148.434 372.699C147.646 373.123 146.76 373.336 145.777 373.336ZM145.777 371.115C146.238 371.115 146.669 371.006 147.069 370.787C147.482 370.557 147.81 370.217 148.052 369.768C148.295 369.319 148.416 368.773 148.416 368.13C148.416 367.171 148.161 366.437 147.652 365.927C147.154 365.405 146.541 365.144 145.813 365.144C145.085 365.144 144.472 365.405 143.975 365.927C143.489 366.437 143.247 367.171 143.247 368.13C143.247 369.088 143.483 369.829 143.957 370.35C144.442 370.86 145.049 371.115 145.777 371.115ZM155.455 364.653C155.783 364.119 156.208 363.7 156.73 363.397C157.264 363.093 157.87 362.942 158.55 362.942V365.618H157.876C157.075 365.618 156.469 365.806 156.056 366.182C155.656 366.558 155.455 367.213 155.455 368.148V373.172H152.907V363.087H155.455V364.653ZM169.641 367.911C169.641 368.275 169.617 368.603 169.568 368.894H162.196C162.257 369.622 162.511 370.193 162.96 370.605C163.409 371.018 163.962 371.224 164.617 371.224C165.564 371.224 166.237 370.818 166.638 370.005H169.386C169.095 370.975 168.537 371.776 167.712 372.407C166.886 373.026 165.873 373.336 164.672 373.336C163.701 373.336 162.827 373.123 162.05 372.699C161.286 372.262 160.685 371.649 160.248 370.86C159.823 370.071 159.611 369.161 159.611 368.13C159.611 367.086 159.823 366.17 160.248 365.381C160.673 364.592 161.268 363.985 162.032 363.561C162.797 363.136 163.676 362.923 164.672 362.923C165.63 362.923 166.486 363.13 167.238 363.542C168.003 363.955 168.591 364.544 169.004 365.308C169.429 366.061 169.641 366.928 169.641 367.911ZM167.002 367.183C166.989 366.528 166.753 366.006 166.292 365.618C165.831 365.217 165.266 365.017 164.599 365.017C163.968 365.017 163.434 365.211 162.997 365.599C162.572 365.976 162.311 366.503 162.214 367.183H167.002ZM175.36 373.336C174.535 373.336 173.795 373.19 173.139 372.899C172.484 372.595 171.962 372.189 171.574 371.679C171.198 371.17 170.991 370.605 170.955 369.986H173.522C173.57 370.375 173.758 370.696 174.086 370.951C174.426 371.206 174.844 371.333 175.342 371.333C175.827 371.333 176.204 371.236 176.471 371.042C176.75 370.848 176.889 370.599 176.889 370.296C176.889 369.968 176.719 369.725 176.38 369.568C176.052 369.398 175.524 369.216 174.796 369.022C174.044 368.84 173.425 368.651 172.939 368.457C172.466 368.263 172.053 367.966 171.701 367.565C171.362 367.165 171.192 366.625 171.192 365.945C171.192 365.387 171.349 364.877 171.665 364.416C171.993 363.955 172.454 363.591 173.048 363.324C173.655 363.057 174.365 362.923 175.178 362.923C176.38 362.923 177.338 363.227 178.054 363.834C178.77 364.428 179.165 365.235 179.238 366.255H176.798C176.762 365.854 176.592 365.539 176.289 365.308C175.997 365.065 175.603 364.944 175.105 364.944C174.644 364.944 174.286 365.029 174.031 365.199C173.789 365.369 173.667 365.605 173.667 365.909C173.667 366.249 173.837 366.51 174.177 366.692C174.517 366.861 175.045 367.037 175.761 367.219C176.489 367.401 177.09 367.59 177.563 367.784C178.036 367.978 178.443 368.281 178.782 368.694C179.134 369.094 179.316 369.628 179.329 370.296C179.329 370.878 179.165 371.4 178.837 371.861C178.522 372.322 178.06 372.686 177.454 372.953C176.859 373.208 176.161 373.336 175.36 373.336Z" fill="black"/>
<rect x="202.946" y="337.055" width="1.1377" height="40.8168" rx="0.568849" fill="#EBEDF0"/>
<path d="M271.191 349.853C270.554 349.853 269.98 349.744 269.471 349.526C268.961 349.298 268.561 348.98 268.269 348.57C267.978 348.16 267.832 347.683 267.832 347.137H269.498C269.534 347.546 269.694 347.883 269.976 348.147C270.267 348.411 270.672 348.543 271.191 348.543C271.728 348.543 272.147 348.415 272.447 348.16C272.747 347.897 272.897 347.56 272.897 347.15C272.897 346.832 272.802 346.572 272.611 346.372C272.429 346.172 272.197 346.017 271.915 345.908C271.641 345.799 271.259 345.68 270.768 345.553C270.149 345.389 269.644 345.225 269.252 345.061C268.87 344.888 268.542 344.625 268.269 344.27C267.996 343.915 267.86 343.441 267.86 342.85C267.86 342.304 267.996 341.826 268.269 341.416C268.542 341.007 268.925 340.693 269.416 340.474C269.908 340.256 270.476 340.147 271.123 340.147C272.042 340.147 272.793 340.379 273.375 340.843C273.967 341.298 274.295 341.926 274.358 342.727H272.638C272.611 342.381 272.447 342.085 272.147 341.839C271.846 341.594 271.45 341.471 270.959 341.471C270.513 341.471 270.149 341.585 269.867 341.812C269.585 342.04 269.443 342.367 269.443 342.795C269.443 343.086 269.53 343.328 269.703 343.519C269.885 343.701 270.112 343.846 270.385 343.956C270.658 344.065 271.032 344.183 271.505 344.311C272.133 344.483 272.643 344.656 273.034 344.829C273.434 345.002 273.771 345.271 274.044 345.635C274.326 345.99 274.468 346.468 274.468 347.068C274.468 347.551 274.336 348.006 274.072 348.434C273.817 348.861 273.439 349.207 272.938 349.471C272.447 349.726 271.864 349.853 271.191 349.853ZM275.785 345.99C275.785 345.216 275.94 344.538 276.249 343.956C276.568 343.364 277.005 342.909 277.56 342.59C278.115 342.272 278.752 342.112 279.471 342.112C280.381 342.112 281.132 342.331 281.724 342.768C282.325 343.196 282.73 343.81 282.939 344.611H281.26C281.123 344.238 280.905 343.946 280.604 343.737C280.304 343.528 279.926 343.423 279.471 343.423C278.834 343.423 278.325 343.651 277.942 344.106C277.569 344.552 277.383 345.18 277.383 345.99C277.383 346.8 277.569 347.432 277.942 347.887C278.325 348.343 278.834 348.57 279.471 348.57C280.372 348.57 280.969 348.174 281.26 347.382H282.939C282.721 348.147 282.311 348.757 281.71 349.212C281.11 349.658 280.363 349.881 279.471 349.881C278.752 349.881 278.115 349.721 277.56 349.403C277.005 349.075 276.568 348.62 276.249 348.038C275.94 347.446 275.785 346.763 275.785 345.99ZM287.753 349.881C287.043 349.881 286.401 349.721 285.828 349.403C285.255 349.075 284.804 348.62 284.476 348.038C284.149 347.446 283.985 346.763 283.985 345.99C283.985 345.225 284.153 344.547 284.49 343.956C284.827 343.364 285.286 342.909 285.869 342.59C286.451 342.272 287.102 342.112 287.821 342.112C288.54 342.112 289.191 342.272 289.774 342.59C290.356 342.909 290.816 343.364 291.152 343.956C291.489 344.547 291.658 345.225 291.658 345.99C291.658 346.754 291.485 347.432 291.139 348.024C290.793 348.616 290.32 349.075 289.719 349.403C289.127 349.721 288.472 349.881 287.753 349.881ZM287.753 348.529C288.153 348.529 288.527 348.434 288.872 348.242C289.227 348.051 289.514 347.765 289.733 347.382C289.951 347 290.06 346.536 290.06 345.99C290.06 345.444 289.956 344.984 289.746 344.611C289.537 344.229 289.259 343.942 288.913 343.751C288.568 343.56 288.194 343.464 287.794 343.464C287.393 343.464 287.02 343.56 286.674 343.751C286.338 343.942 286.069 344.229 285.869 344.611C285.669 344.984 285.569 345.444 285.569 345.99C285.569 346.8 285.773 347.428 286.183 347.874C286.602 348.311 287.125 348.529 287.753 348.529ZM294.752 343.328C294.98 342.945 295.28 342.649 295.654 342.44C296.036 342.222 296.486 342.112 297.005 342.112V343.723H296.609C295.999 343.723 295.535 343.878 295.217 344.188C294.907 344.497 294.752 345.034 294.752 345.799V349.758H293.196V342.235H294.752V343.328ZM305.33 345.812C305.33 346.094 305.312 346.349 305.276 346.577H299.528C299.573 347.178 299.796 347.66 300.197 348.024C300.597 348.388 301.089 348.57 301.671 348.57C302.509 348.57 303.1 348.22 303.446 347.519H305.125C304.898 348.211 304.484 348.779 303.883 349.225C303.291 349.662 302.554 349.881 301.671 349.881C300.952 349.881 300.306 349.721 299.733 349.403C299.168 349.075 298.722 348.62 298.395 348.038C298.076 347.446 297.917 346.763 297.917 345.99C297.917 345.216 298.072 344.538 298.381 343.956C298.7 343.364 299.141 342.909 299.705 342.59C300.279 342.272 300.934 342.112 301.671 342.112C302.381 342.112 303.014 342.267 303.569 342.577C304.124 342.886 304.557 343.323 304.866 343.887C305.175 344.442 305.33 345.084 305.33 345.812ZM303.706 345.321C303.696 344.747 303.492 344.288 303.091 343.942C302.691 343.596 302.195 343.423 301.603 343.423C301.066 343.423 300.606 343.596 300.224 343.942C299.842 344.279 299.614 344.738 299.542 345.321H303.706Z" fill="black" fill-opacity="0.45"/>
<path d="M236.455 370.751H231.394L230.557 373.172H227.881L232.45 360.448H235.417L239.986 373.172H237.292L236.455 370.751ZM235.763 368.712L233.925 363.397L232.086 368.712H235.763ZM245.899 370.824L248.447 363.087H251.16L247.428 373.172H244.334L240.62 363.087H243.351L245.899 370.824ZM261.966 367.911C261.966 368.275 261.941 368.603 261.893 368.894H254.521C254.581 369.622 254.836 370.193 255.285 370.605C255.734 371.018 256.286 371.224 256.942 371.224C257.888 371.224 258.562 370.818 258.962 370.005H261.711C261.42 370.975 260.861 371.776 260.036 372.407C259.211 373.026 258.198 373.336 256.996 373.336C256.025 373.336 255.152 373.123 254.375 372.699C253.61 372.262 253.01 371.649 252.573 370.86C252.148 370.071 251.936 369.161 251.936 368.13C251.936 367.086 252.148 366.17 252.573 365.381C252.998 364.592 253.592 363.985 254.357 363.561C255.121 363.136 256.001 362.923 256.996 362.923C257.955 362.923 258.81 363.13 259.563 363.542C260.327 363.955 260.916 364.544 261.329 365.308C261.753 366.061 261.966 366.928 261.966 367.911ZM259.326 367.183C259.314 366.528 259.077 366.006 258.616 365.618C258.155 365.217 257.591 365.017 256.923 365.017C256.292 365.017 255.758 365.211 255.322 365.599C254.897 365.976 254.636 366.503 254.539 367.183H259.326ZM266.374 364.653C266.702 364.119 267.127 363.7 267.649 363.397C268.182 363.093 268.789 362.942 269.469 362.942V365.618H268.795C267.994 365.618 267.388 365.806 266.975 366.182C266.575 366.558 266.374 367.213 266.374 368.148V373.172H263.826V363.087H266.374V364.653ZM270.53 368.093C270.53 367.074 270.73 366.17 271.131 365.381C271.543 364.592 272.095 363.985 272.787 363.561C273.491 363.136 274.274 362.923 275.135 362.923C275.888 362.923 276.543 363.075 277.101 363.379C277.672 363.682 278.127 364.064 278.467 364.525V363.087H281.033V373.172H278.467V371.697C278.139 372.171 277.684 372.565 277.101 372.881C276.531 373.184 275.87 373.336 275.117 373.336C274.268 373.336 273.491 373.117 272.787 372.68C272.095 372.244 271.543 371.631 271.131 370.842C270.73 370.041 270.53 369.125 270.53 368.093ZM278.467 368.13C278.467 367.511 278.345 366.983 278.103 366.546C277.86 366.097 277.532 365.757 277.12 365.527C276.707 365.284 276.264 365.162 275.791 365.162C275.317 365.162 274.881 365.278 274.48 365.508C274.08 365.739 273.752 366.079 273.497 366.528C273.254 366.965 273.133 367.486 273.133 368.093C273.133 368.7 273.254 369.234 273.497 369.695C273.752 370.144 274.08 370.49 274.48 370.733C274.893 370.975 275.33 371.097 275.791 371.097C276.264 371.097 276.707 370.981 277.12 370.751C277.532 370.508 277.86 370.168 278.103 369.731C278.345 369.282 278.467 368.749 278.467 368.13ZM287.472 362.923C288.225 362.923 288.886 363.075 289.456 363.379C290.027 363.67 290.476 364.052 290.803 364.525V363.087H293.37V373.245C293.37 374.179 293.182 375.01 292.806 375.739C292.43 376.479 291.865 377.061 291.113 377.486C290.361 377.923 289.45 378.141 288.382 378.141C286.95 378.141 285.773 377.808 284.851 377.14C283.941 376.473 283.425 375.563 283.304 374.41H285.834C285.968 374.871 286.253 375.235 286.69 375.502C287.139 375.781 287.679 375.921 288.31 375.921C289.05 375.921 289.651 375.696 290.112 375.247C290.573 374.81 290.803 374.143 290.803 373.245V371.679C290.476 372.152 290.021 372.547 289.438 372.862C288.868 373.178 288.213 373.336 287.472 373.336C286.623 373.336 285.846 373.117 285.142 372.68C284.438 372.244 283.88 371.631 283.468 370.842C283.067 370.041 282.867 369.125 282.867 368.093C282.867 367.074 283.067 366.17 283.468 365.381C283.88 364.592 284.432 363.985 285.124 363.561C285.828 363.136 286.611 362.923 287.472 362.923ZM290.803 368.13C290.803 367.511 290.682 366.983 290.439 366.546C290.197 366.097 289.869 365.757 289.456 365.527C289.044 365.284 288.601 365.162 288.128 365.162C287.654 365.162 287.217 365.278 286.817 365.508C286.417 365.739 286.089 366.079 285.834 366.528C285.591 366.965 285.47 367.486 285.47 368.093C285.47 368.7 285.591 369.234 285.834 369.695C286.089 370.144 286.417 370.49 286.817 370.733C287.23 370.975 287.666 371.097 288.128 371.097C288.601 371.097 289.044 370.981 289.456 370.751C289.869 370.508 290.197 370.168 290.439 369.731C290.682 369.282 290.803 368.749 290.803 368.13ZM305.234 367.911C305.234 368.275 305.209 368.603 305.161 368.894H297.789C297.849 369.622 298.104 370.193 298.553 370.605C299.002 371.018 299.554 371.224 300.21 371.224C301.156 371.224 301.83 370.818 302.23 370.005H304.979C304.688 370.975 304.129 371.776 303.304 372.407C302.479 373.026 301.466 373.336 300.264 373.336C299.293 373.336 298.42 373.123 297.643 372.699C296.879 372.262 296.278 371.649 295.841 370.86C295.416 370.071 295.204 369.161 295.204 368.13C295.204 367.086 295.416 366.17 295.841 365.381C296.266 364.592 296.86 363.985 297.625 363.561C298.389 363.136 299.269 362.923 300.264 362.923C301.223 362.923 302.079 363.13 302.831 363.542C303.595 363.955 304.184 364.544 304.597 365.308C305.021 366.061 305.234 366.928 305.234 367.911ZM302.594 367.183C302.582 366.528 302.346 366.006 301.884 365.618C301.423 365.217 300.859 365.017 300.191 365.017C299.56 365.017 299.026 365.211 298.59 365.599C298.165 365.976 297.904 366.503 297.807 367.183H302.594Z" fill="black"/>
</g>
<defs>
<filter id="filter0_i_3001_14287" x="51.4551" y="104.805" width="300.266" height="278.445" filterUnits="userSpaceOnUse" color-interpolation-filters="sRGB">
<feFlood flood-opacity="0" result="BackgroundImageFix"/>
<feBlend mode="normal" in="SourceGraphic" in2="BackgroundImageFix" result="shape"/>
<feColorMatrix in="SourceAlpha" type="matrix" values="0 0 0 0 0 0 0 0 0 0 0 0 0 0 0 0 0 0 127 0" result="hardAlpha"/>
<feOffset/>
<feGaussianBlur stdDeviation="5.6067"/>
<feComposite in2="hardAlpha" operator="arithmetic" k2="-1" k3="1"/>
<feColorMatrix type="matrix" values="0 0 0 0 0 0 0 0 0 0 0 0 0 0 0 0 0 0 0.08 0"/>
<feBlend mode="normal" in2="shape" result="effect1_innerShadow_3001_14287"/>
</filter>
<filter id="filter1_d_3001_14287" x="60.3027" y="305.133" width="284.424" height="109.223" filterUnits="userSpaceOnUse" color-interpolation-filters="sRGB">
<feFlood flood-opacity="0" result="BackgroundImageFix"/>
<feColorMatrix in="SourceAlpha" type="matrix" values="0 0 0 0 0 0 0 0 0 0 0 0 0 0 0 0 0 0 127 0" result="hardAlpha"/>
<feOffset dy="2.2754"/>
<feGaussianBlur stdDeviation="10.2393"/>
<feComposite in2="hardAlpha" operator="out"/>
<feColorMatrix type="matrix" values="0 0 0 0 0 0 0 0 0 0 0 0 0 0 0 0 0 0 0.05 0"/>
<feBlend mode="normal" in2="BackgroundImageFix" result="effect1_dropShadow_3001_14287"/>
<feBlend mode="normal" in="SourceGraphic" in2="effect1_dropShadow_3001_14287" result="shape"/>
</filter>
<linearGradient id="paint0_linear_3001_14287" x1="294.567" y1="380.104" x2="103.051" y2="112.495" gradientUnits="userSpaceOnUse">
<stop stop-color="#FF0000"/>
<stop offset="1" stop-color="#FFD000"/>
</linearGradient>
<linearGradient id="paint1_linear_3001_14287" x1="188.411" y1="106.123" x2="117.296" y2="377.416" gradientUnits="userSpaceOnUse">
<stop stop-color="#FFE100"/>
<stop offset="1" stop-color="#15B822"/>
</linearGradient>
<linearGradient id="paint2_linear_3001_14287" x1="195.943" y1="104.938" x2="195.943" y2="160.769" gradientUnits="userSpaceOnUse">
<stop stop-color="#FFE201"/>
<stop offset="1" stop-color="#D6DB07"/>
</linearGradient>
</defs>
</svg>
