<svg width="104" height="58" viewBox="0 0 104 58" fill="none" xmlns="http://www.w3.org/2000/svg">
<g clip-path="url(#clip0_3021_12242)">
<path opacity="0.2" d="M97.5276 52.6364C97.5276 43.4233 94.7295 34.4274 89.5038 26.8397L70.5902 39.8657C73.1772 43.622 74.5624 48.0754 74.5624 52.6364H97.5276Z" fill="url(#paint0_linear_3021_12242)"/>
<path opacity="0.2" d="M88.9906 26.0954C83.4796 18.5982 75.5009 12.5747 66.6919 9.57812L59.2959 31.3198C63.6568 32.8032 67.4578 35.5886 70.186 39.3001L88.9906 26.0954Z" fill="url(#paint1_linear_3021_12242)"/>
<path opacity="0.2" d="M65.8585 9.32217C56.9771 6.54748 47.2108 6.46449 38.3389 9.2694L45.2617 31.1663C49.6537 29.7777 54.1191 29.672 58.5159 31.0456L65.8585 9.32217Z" fill="url(#paint2_linear_3021_12242)"/>
<path d="M37.3823 9.57812C28.5744 12.5782 20.8987 18.2076 15.3906 25.7069L33.8998 39.3014C36.6265 35.5889 40.1862 32.8983 44.5466 31.4132L37.3823 9.57812Z" fill="url(#paint3_linear_3021_12242)"/>
<path opacity="0.2" d="M14.8618 26.4453C9.50446 34.053 6.60945 43.1209 6.56738 52.4256L29.5323 52.5294C29.5532 47.9231 30.8371 43.6311 33.4892 39.8649L14.8618 26.4453Z" fill="url(#paint4_linear_3021_12242)"/>
<path d="M51.1522 50.4631L30.3232 26.2188L30.6903 25.9034L53.4467 48.4918L52.2995 49.4775L51.1522 50.4631Z" fill="#0A0A0A" stroke="black" stroke-width="0.233831"/>
<path d="M51.1425 50.4709L30.3135 26.2266L29.9464 26.5419L48.848 52.4422L51.1425 50.4709Z" fill="#4B4B4B" stroke="#383838" stroke-width="0.233831"/>
<path d="M49.3339 48.2405C48.3132 49.1174 47.6827 50.3638 47.581 51.7057C47.4793 53.0475 47.9148 54.3747 48.7918 55.3954C49.6687 56.4161 50.9151 57.0467 52.257 57.1484C53.5988 57.25 54.926 56.8145 55.9467 55.9376L52.6403 52.089L49.3339 48.2405Z" fill="#4B4B4B" stroke="#383838" stroke-width="0.233831"/>
<path d="M49.3321 48.2439C50.3528 47.367 51.6801 46.9315 53.0219 47.0331C54.3637 47.1348 55.6102 47.7654 56.4871 48.7861C57.364 49.8068 57.7995 51.134 57.6978 52.4758C57.5962 53.8177 56.9656 55.0641 55.9449 55.941L52.6385 52.0925L49.3321 48.2439Z" fill="#0A0A0A" stroke="black" stroke-width="0.233831"/>
<path d="M48.9585 44.2019L52.0822 47.3012L50.1104 48.9675L47.2857 45.6796L48.9585 44.2019Z" fill="#0A0A0A"/>
<path d="M45.2884 47.3654L47.8861 50.9219L49.8638 49.163L47.0516 45.8897L45.2884 47.3654Z" fill="#4B4B4B"/>
<path d="M30.4023 26.2883L30.2928 26.3823L49.8712 49.1904L49.9903 49.0881L30.4023 26.2883Z" fill="#4B4B4B"/>
<path d="M30.2528 26.1165L30.1434 26.2105L30.2865 26.3965L30.4055 26.2943L30.2528 26.1165Z" fill="#383838"/>
<path d="M30.4056 26.291L30.5247 26.1887L50.1231 48.9795L49.9935 49.0908L30.4056 26.291Z" fill="#0A0A0A"/>
<path d="M30.2543 26.119L30.3733 26.0168L30.5365 26.1856L30.407 26.2968L30.2543 26.119Z" fill="black"/>
<circle cx="52.578" cy="52.1462" r="3.88367" transform="rotate(-40.6668 52.578 52.1462)" fill="url(#paint5_linear_3021_12242)" stroke="url(#paint6_linear_3021_12242)" stroke-width="0.233831"/>
</g>
<defs>
<linearGradient id="paint0_linear_3021_12242" x1="73.7407" y1="47.0672" x2="101.728" y2="37.0005" gradientUnits="userSpaceOnUse">
<stop stop-color="#E5221E"/>
<stop offset="1" stop-color="#A30603"/>
</linearGradient>
<linearGradient id="paint1_linear_3021_12242" x1="83.2716" y1="10.6756" x2="65.8136" y2="34.6722" gradientUnits="userSpaceOnUse">
<stop stop-color="#C35800"/>
<stop offset="1" stop-color="#FF7300"/>
</linearGradient>
<linearGradient id="paint2_linear_3021_12242" x1="52.0987" y1="7.20312" x2="52.0987" y2="31.1663" gradientUnits="userSpaceOnUse">
<stop stop-color="#D9A300"/>
<stop offset="1" stop-color="#FEBF00"/>
</linearGradient>
<linearGradient id="paint3_linear_3021_12242" x1="23.4507" y1="14.5303" x2="38.4001" y2="35.0117" gradientUnits="userSpaceOnUse">
<stop stop-color="#C2D409"/>
<stop offset="1" stop-color="#C8DC00"/>
</linearGradient>
<linearGradient id="paint4_linear_3021_12242" x1="30.5436" y1="45.5881" x2="6.56738" y2="36.5438" gradientUnits="userSpaceOnUse">
<stop stop-color="#78C322"/>
<stop offset="1" stop-color="#549509"/>
</linearGradient>
<linearGradient id="paint5_linear_3021_12242" x1="48.5774" y1="52.1462" x2="56.5786" y2="52.1462" gradientUnits="userSpaceOnUse">
<stop stop-color="#0B0B0B"/>
<stop offset="1" stop-color="#555555"/>
</linearGradient>
<linearGradient id="paint6_linear_3021_12242" x1="48.5774" y1="52.1462" x2="56.5786" y2="52.1462" gradientUnits="userSpaceOnUse">
<stop stop-color="#383737"/>
<stop offset="1" stop-color="#666666"/>
</linearGradient>
<clipPath id="clip0_3021_12242">
<rect width="103.92" height="58.0019" fill="white" transform="translate(0.0390625)"/>
</clipPath>
</defs>
</svg>
