<svg width="375" height="812" viewBox="0 0 375 812" fill="none" xmlns="http://www.w3.org/2000/svg">
<mask id="mask0_17286_77603" style="mask-type:alpha" maskUnits="userSpaceOnUse" x="-231" y="565" width="869" height="556">
<path d="M107.539 565.127H637.37V1103.56L-230.904 1120.59L107.539 565.127Z" fill="#4531FA"/>
</mask>
<g mask="url(#mask0_17286_77603)">
<path fill-rule="evenodd" clip-rule="evenodd" d="M107.539 1009.06C348.799 1009.06 544.379 810.303 544.379 565.127C544.379 319.951 348.799 121.196 107.539 121.196C-133.722 121.196 -329.302 319.951 -329.302 565.127C-329.302 810.303 -133.722 1009.06 107.539 1009.06ZM106.998 763.468C214.789 763.468 302.171 674.668 302.171 565.127C302.171 455.587 214.789 366.787 106.998 366.787C-0.792389 366.787 -88.1741 455.587 -88.1741 565.127C-88.1741 674.668 -0.792389 763.468 106.998 763.468Z" fill="#4531FA"/>
</g>
<mask id="mask1_17286_77603" style="mask-type:alpha" maskUnits="userSpaceOnUse" x="-425" y="29" width="869" height="556">
<path d="M104.831 584.873L-425 584.873L-425 46.442L443.275 29.4101L104.831 584.873Z" fill="#4531FA"/>
</mask>
<g mask="url(#mask1_17286_77603)">
<path fill-rule="evenodd" clip-rule="evenodd" d="M104.832 140.942C-136.428 140.942 -332.009 339.696 -332.009 584.873C-332.009 830.049 -136.428 1028.8 104.832 1028.8C346.092 1028.8 541.673 830.049 541.673 584.873C541.673 339.697 346.092 140.942 104.832 140.942ZM105.372 386.532C-2.4184 386.532 -89.8001 475.332 -89.8001 584.873C-89.8001 694.413 -2.41844 783.213 105.372 783.213C213.163 783.213 300.545 694.413 300.545 584.873C300.545 475.332 213.163 386.532 105.372 386.532Z" fill="#4531FA"/>
</g>
</svg>
