<svg width="40" height="40" viewBox="0 0 40 40" fill="none" xmlns="http://www.w3.org/2000/svg">
<rect width="40" height="40" transform="translate(40) rotate(90)" fill="#4E3CFF" fill-opacity="0.55"/>
<path d="M17.2982 26.8651C17.4649 26.9591 17.6226 27.0519 17.7837 27.1385C18.5274 27.5382 19.3179 27.7908 20.1554 27.9049C21.5402 28.0934 22.8663 27.8964 24.1295 27.3039C25.5084 26.6571 26.5711 25.6625 27.321 24.3373C27.8022 23.4866 28.0931 22.5737 28.1865 21.5994C28.2052 21.4029 28.2256 21.2062 28.2323 21.0093C28.2347 20.9556 28.2431 20.8781 28.2431 20.8781C28.2431 20.8781 28.4211 20.8781 28.444 20.8781C30.7864 20.8781 33.1288 20.8781 35.4712 20.8781C35.57 20.8781 35.6783 20.8779 35.6783 20.8779C35.6783 20.8779 35.6759 20.9761 35.6747 21.0812C35.6506 23.1838 35.1878 25.1865 34.2839 27.0839C32.9882 29.8031 31.0341 31.9241 28.4404 33.452C27.0101 34.2945 25.4732 34.8578 23.842 35.1714C22.7076 35.3896 21.5627 35.4648 20.4132 35.4093C18.4593 35.3151 16.5922 34.8503 14.8314 33.9911C14.3446 33.7536 13.8804 33.4699 13.4033 33.2119C13.2851 33.1478 13.2636 33.0912 13.3432 32.969C14.2767 31.5355 15.2047 30.0983 16.1336 28.6618C16.4932 28.1058 16.8512 27.5488 17.2104 26.9924C17.2373 26.9505 17.267 26.9107 17.2986 26.8653L17.2982 26.8651Z" fill="#6FFFBA"/>
<path d="M20.2665 20.8784L5 20.8784L20.2659 3.60489L20.2659 4.24928L20.2665 20.8784Z" fill="white"/>
</svg>
