<svg width="375" height="380" viewBox="0 0 375 380" fill="none" xmlns="http://www.w3.org/2000/svg">
<g clip-path="url(#clip0_1_16650)">
<path d="M136.912 203.006L168.334 149.337H235.666L204.244 203.006H136.912Z" fill="#EFF2F6"/>
<path d="M276.064 355.068L307.486 296.927H370.329L338.908 355.068H276.064Z" fill="#EFF2F6"/>
<path d="M132.424 355.068L249.133 149.337H379.308L347.886 203.006H276.065L186.289 355.068H132.424Z" fill="#EFF2F6"/>
<path d="M204.244 355.068L285.042 216.423H383.796L343.397 283.509H299.485L258.11 355.068H204.244Z" fill="#EFF2F6"/>
<path d="M327.439 139.082L358.861 80.9401H421.704L390.283 139.082H327.439Z" fill="#EFF2F6"/>
<path d="M183.799 139.082L300.508 -66.6495H430.683L399.261 -12.9805H327.44L237.664 139.082H183.799Z" fill="#EFF2F6"/>
<path d="M255.619 139.082L336.417 0.436707H435.171L394.772 67.5229H350.86L309.485 139.082H255.619Z" fill="#EFF2F6"/>
<path d="M108.043 365.323L76.6214 423.465L13.7782 423.465L45.1998 365.323L108.043 365.323Z" fill="#EFF2F6"/>
<path d="M251.684 365.323L134.975 571.054L4.79982 571.054L36.2214 517.385L108.042 517.385L197.818 365.323L251.684 365.323Z" fill="#EFF2F6"/>
<path d="M179.863 365.323L99.065 503.968L0.311447 503.968L40.7106 436.882L84.6227 436.882L125.998 365.323L179.863 365.323Z" fill="#EFF2F6"/>
</g>
<defs>
<clipPath id="clip0_1_16650">
<rect width="375" height="380" fill="white"/>
</clipPath>
</defs>
</svg>
