<svg width="20" height="20" viewBox="0 0 20 20" fill="none" xmlns="http://www.w3.org/2000/svg">
<path d="M13.4785 7.37036C13.5938 7.37036 13.709 7.37427 13.8223 7.38013C13.3457 4.86645 10.7305 2.94458 7.57422 2.94458C4.08203 2.94458 1.25 5.30005 1.25 8.2063C1.25 9.79028 2.10156 11.218 3.43555 12.1829C3.49057 12.2217 3.53544 12.2732 3.56637 12.333C3.59731 12.3929 3.61339 12.4593 3.61328 12.5266C3.61328 12.5735 3.60352 12.6165 3.5918 12.6614C3.48438 13.0579 3.31445 13.6926 3.30664 13.7219C3.29297 13.7727 3.27344 13.8235 3.27344 13.8762C3.27344 13.9915 3.36719 14.0872 3.48438 14.0872C3.5293 14.0872 3.56641 14.0696 3.60547 14.0481L4.99023 13.2493C5.09375 13.1887 5.20508 13.1516 5.32617 13.1516C5.38867 13.1516 5.45117 13.1614 5.51172 13.179C6.1582 13.3645 6.85547 13.468 7.57617 13.468C7.69336 13.468 7.80859 13.4661 7.92383 13.4602C7.78516 13.05 7.71094 12.6184 7.71094 12.1711C7.71094 9.5188 10.293 7.37036 13.4785 7.37036ZM9.68359 5.68091C10.1484 5.68091 10.5273 6.05786 10.5273 6.5227C10.5273 6.98755 10.1504 7.3645 9.68359 7.3645C9.21875 7.3645 8.83984 6.98755 8.83984 6.5227C8.83984 6.05786 9.21875 5.68091 9.68359 5.68091ZM5.4668 7.3645C5.00195 7.3645 4.62305 6.98755 4.62305 6.5227C4.62305 6.05786 5 5.68091 5.4668 5.68091C5.93359 5.68091 6.31055 6.05786 6.31055 6.5227C6.31055 6.98755 5.93164 7.3645 5.4668 7.3645ZM16.9277 15.4817C18.0391 14.677 18.748 13.4895 18.748 12.1672C18.748 9.74536 16.3887 7.78247 13.4766 7.78247C10.5664 7.78247 8.20508 9.74536 8.20508 12.1672C8.20508 14.5891 10.5645 16.552 13.4766 16.552C14.0781 16.552 14.6602 16.4661 15.1973 16.3118C15.248 16.2961 15.2988 16.2883 15.3516 16.2883C15.4531 16.2883 15.5449 16.3196 15.6309 16.3684L16.7852 17.0325C16.8184 17.052 16.8496 17.0657 16.8867 17.0657C16.9099 17.0659 16.9328 17.0615 16.9543 17.0528C16.9757 17.044 16.9953 17.0312 17.0117 17.0149C17.028 16.9984 17.0409 16.9789 17.0496 16.9575C17.0583 16.936 17.0627 16.913 17.0625 16.8899C17.0625 16.8469 17.0449 16.804 17.0352 16.761C17.0293 16.7375 16.8867 16.2083 16.7969 15.8762C16.7871 15.8391 16.7793 15.802 16.7793 15.7649C16.7813 15.6497 16.8398 15.5461 16.9277 15.4817ZM11.7227 11.468C11.334 11.468 11.0195 11.1536 11.0195 10.7668C11.0195 10.3801 11.334 10.0657 11.7227 10.0657C12.1113 10.0657 12.4258 10.3801 12.4258 10.7668C12.4258 11.1536 12.1094 11.468 11.7227 11.468ZM15.2363 11.468C14.8477 11.468 14.5332 11.1536 14.5332 10.7668C14.5332 10.3801 14.8477 10.0657 15.2363 10.0657C15.625 10.0657 15.9395 10.3801 15.9395 10.7668C15.9385 10.9529 15.8641 11.131 15.7324 11.2623C15.6007 11.3937 15.4223 11.4676 15.2363 11.468Z" fill="#40B27C"/>
</svg>
