<svg width="38" height="38" viewBox="0 0 38 38" fill="none" xmlns="http://www.w3.org/2000/svg">
<path d="M20.7245 16.8438C21.0801 16.258 21.5118 15.8279 22.057 15.5147C22.863 15.0541 23.7299 14.9085 24.6511 14.9813C25.2064 15.0253 25.7466 15.1151 26.263 15.3301C27.3246 15.7737 27.919 16.6102 28.2254 17.6854C28.4743 18.5557 28.5404 19.4497 28.5421 20.3488C28.5437 22.4653 28.5421 24.5835 28.5421 26.7C28.5421 26.9591 28.5421 26.9625 28.283 26.9625C27.2349 26.9625 26.1851 26.9625 25.137 26.9625C24.8559 26.9625 24.8525 26.9591 24.8525 26.6797C24.8525 24.719 24.8627 22.7582 24.8458 20.7975C24.8424 20.3471 24.7848 19.8882 24.6832 19.448C24.5308 18.7826 24.1126 18.3491 23.4099 18.2475C22.7919 18.1595 22.1976 18.2187 21.6862 18.6133C21.2358 18.9621 21.0597 19.4683 20.9768 20.0051C20.9175 20.3894 20.8853 20.7806 20.8837 21.17C20.8735 23.0139 20.8803 24.8561 20.8786 26.7C20.8786 26.9591 20.8786 26.9608 20.6212 26.9608C19.5782 26.9608 18.5369 26.9608 17.4938 26.9608C17.2128 26.9608 17.2026 26.9506 17.2026 26.6814C17.2026 22.9496 17.2026 19.216 17.1992 15.4842C17.1992 15.2979 17.2602 15.237 17.4464 15.2387C18.4556 15.2455 19.4664 15.2455 20.4756 15.2387C20.6635 15.2387 20.7414 15.2776 20.733 15.4859C20.716 15.9193 20.7279 16.3528 20.7279 16.8422L20.7245 16.8438Z" fill="currentColor"/>
<path d="M11.3267 21.1046C11.3267 19.242 11.3267 17.3795 11.3267 15.5153C11.3267 15.2443 11.3267 15.2426 11.5942 15.2426C12.6491 15.2426 13.7039 15.246 14.7605 15.2393C14.9502 15.2393 15.0213 15.285 15.0213 15.4899C15.0162 19.2285 15.0162 22.9671 15.0213 26.7074C15.0213 26.9055 14.962 26.9681 14.7673 26.9665C13.7056 26.9597 12.644 26.9597 11.5823 26.9665C11.3927 26.9665 11.3233 26.9157 11.325 26.7125C11.3318 24.8432 11.3301 22.9739 11.3301 21.1046H11.3267Z" fill="currentColor"/>
<path d="M13.1663 13.7299C11.9759 13.7299 11.043 12.7902 11.043 11.5965C11.043 10.4231 11.9895 9.47998 13.168 9.47998C14.3667 9.47998 15.2963 10.4299 15.2929 11.6575C15.2895 12.7987 14.3329 13.7299 13.1663 13.7299Z" fill="currentColor"/>
</svg>
