<svg width="32" height="32" viewBox="0 0 32 32" fill="none" xmlns="http://www.w3.org/2000/svg">
<path d="M6.00158 21.1402C6.00158 20.2225 6.00158 19.3048 6.00158 18.3871C6.00315 18.3651 6.00631 18.343 6.00631 18.3225C6.00631 16.2884 6.00631 14.2559 6.00631 12.2219C6.00631 12.195 6.00315 12.1682 6 12.1414C6 11.7141 6 11.2884 6 10.8611C6.00315 10.8453 6.00631 10.828 6.00946 10.8122C6.02208 10.7286 6.02838 10.6435 6.04573 10.5615C6.14349 10.1026 6.36897 9.71631 6.71902 9.4041C7.01546 9.14236 7.35447 8.97048 7.74237 8.89953C7.82909 8.88376 7.91582 8.87272 8.00254 8.86011C13.3353 8.86011 18.668 8.86011 23.9992 8.86011C24.0575 8.86641 24.1159 8.87272 24.1758 8.88061C24.5369 8.92791 24.8649 9.05878 25.1582 9.27481C25.5003 9.52552 25.7479 9.85034 25.8929 10.2477C25.9434 10.3849 25.9954 10.5315 25.9954 10.6734C26.0017 14.1093 26.0002 17.5451 25.9986 20.981C25.9986 21.0929 25.9923 21.2049 25.9749 21.3153C25.8961 21.812 25.6769 22.2361 25.3048 22.5751C24.9043 22.941 24.4297 23.1381 23.8857 23.1381C18.6412 23.1381 13.3984 23.1318 8.15391 23.1286C8.0798 23.1286 8.00569 23.1254 7.93158 23.1191C7.61307 23.0923 7.31348 22.9961 7.04227 22.829C6.47777 22.4821 6.13561 21.9807 6.02838 21.3232C6.01892 21.2617 6.00946 21.2002 6 21.1387L6.00158 21.1402ZM8.11449 9.9891C8.13026 10.0049 8.13814 10.0143 8.14603 10.0222C10.6878 12.5593 13.2281 15.0948 15.7699 17.6319C15.7967 17.6587 15.8266 17.6855 15.8597 17.7044C16.0127 17.7943 16.1751 17.7659 16.3154 17.6271C18.8478 15.0964 21.3786 12.5656 23.9109 10.0332C23.9235 10.0206 23.9346 10.008 23.9519 9.9891H8.11449ZM9.16937 22.0658H22.7866C21.224 20.5016 19.6598 18.9375 18.0878 17.3622C18.0783 17.3764 18.0688 17.3938 18.0547 17.408C17.4775 17.9851 16.902 18.5622 16.3233 19.1377C16.2776 19.1834 16.2224 19.226 16.1625 19.2481C16.0095 19.3064 15.8787 19.2575 15.7667 19.144C15.1675 18.5417 14.5683 17.9393 13.9692 17.337C13.955 17.3228 13.9408 17.3102 13.9313 17.3007C12.3403 18.8917 10.7556 20.4796 9.17095 22.0643L9.16937 22.0658ZM24.9295 10.5441C22.9049 12.5703 20.8866 14.5902 18.8667 16.6132C18.873 16.6196 18.8856 16.629 18.8951 16.6401C20.6706 18.4187 22.4461 20.1973 24.2215 21.976C24.2263 21.9807 24.231 21.9886 24.2357 21.9901C24.2531 21.9965 24.272 22.0075 24.2878 22.0028C24.5306 21.9302 24.7103 21.782 24.816 21.5486C24.9106 21.3389 24.9295 21.115 24.9295 20.8895C24.9295 17.46 24.9295 14.0304 24.9295 10.6025V10.5457V10.5441ZM13.1618 16.5486L13.1492 16.5581C11.1656 14.5713 9.18041 12.5861 7.19679 10.5993V10.664C7.19679 14.1361 7.19679 17.6066 7.19679 21.0788C7.19679 21.1923 7.20468 21.3058 7.22202 21.4178C7.26617 21.6795 7.4002 21.8782 7.65407 21.9838C7.69349 22.0012 7.71714 21.9965 7.75025 21.9649C9.5415 20.1721 11.3327 18.3808 13.1256 16.5896C13.1382 16.577 13.1508 16.5628 13.1634 16.5502L13.1618 16.5486Z" fill="currentColor"/>
</svg>
