<?xml version="1.0" encoding="UTF-8"?>
<svg id="a" data-name="Layer 1" xmlns="http://www.w3.org/2000/svg" viewBox="0 0 13 15">
  <path d="m10.2,8.25c0-1.13.51-1.98,1.56-2.61-.58-.83-1.47-1.28-2.63-1.37-1.1-.09-2.31.64-2.75.64-.47,0-1.54-.61-2.38-.61-1.74.03-3.58,1.37-3.58,4.09,0,.8.15,1.64.45,2.49.4,1.13,1.84,3.89,3.33,3.85.78-.02,1.34-.55,2.36-.55s1.5.55,2.38.55c1.51-.02,2.81-2.53,3.19-3.67-2.03-.94-1.92-2.77-1.92-2.82Zm-1.76-5.04c.85-1,.77-1.9.75-2.23-.75.04-1.62.5-2.11,1.07-.54.61-.86,1.36-.8,2.21.81.06,1.55-.35,2.16-1.05Z"/>
</svg>