<?xml version="1.0" encoding="UTF-8"?>
<svg id="a" data-name="Layer 1" xmlns="http://www.w3.org/2000/svg" viewBox="0 0 24.05 8.46">
  <path d="m2.65,8.46c-.72-.03-1.3-.22-1.76-.58-.09-.07-.3-.27-.37-.36-.19-.23-.31-.46-.4-.7C-.13,6.04,0,5.04.51,3.93c.43-.95,1.11-1.88,2.28-3.18.17-.19.69-.75.69-.75,0,0-.03.05-.06.11-.3.5-.56,1.1-.71,1.61-.23.82-.2,1.53.08,2.08.19.38.53.7.9.89.65.32,1.61.34,2.78.08.08-.02,4.07-1.06,8.86-2.32C20.13,1.17,24.05.14,24.05.14c0,0-11.14,4.71-16.92,7.15-.92.39-1.16.48-1.59.63-1.1.38-2.09.56-2.88.53Z"/>
</svg>