<?xml version="1.0" encoding="UTF-8"?>
<svg id="a" data-name="Layer 1" xmlns="http://www.w3.org/2000/svg" viewBox="0 0 13.85 13.82">
  <path d="m11.99,13.82v-.67h-.24v-.14h.64v.14h-.24v.67h-.16Zm.51,0v-.81h.24l.15.55.14-.55h.25v.81h-.15v-.63l-.16.63h-.16l-.16-.63v.63h-.15,0Zm1.34-6.54c0,.18.02.33-.05.51-.38.11-.69-.05-.99-.21-.28-.14-.56-.29-.89-.23l.08.39c.64.02,1.05.64,1.71.61-.09.19.04.68-.38.49-.44-.1-.75-.49-1.23-.49-.06.11-.02.25-.03.38.5.08.86.5,1.37.58-.05.17-.09.36-.24.47-.41-.1-.73-.46-1.16-.45l-.08.36c.41.01.68.38,1.05.48.01.15-.13.29-.2.42-.33-.1-.58-.38-.96-.36,0-.14.08-.3.05-.45-.42.13-.71-.27-1.02-.5,0-.77-.82-1.27-.87-1.99,0-.14.01-.3.08-.46.27-.62.18-1.42-.11-1.99-.09-.15-.25-.27-.39-.36.22.45.48.99.35,1.55-.02.43-.27.85-.27,1.26,0,.15.03.3.12.45.34.61.95,1.19.72,1.96-.06.24-.25.42-.3.66.4.33.78.7,1.31.72.19-.12.08-.65.47-.41l.57.28c-.04.15-.17.29-.28.39-.21-.1-.42-.23-.69-.22-.08.08-.15.18-.14.3.19.03.36.11.52.22-.07.16-.22.25-.35.38l-.44-.16c-.07.1-.23.21-.17.33.1.04.21.1.28.17-.19.21-.44.34-.68.48-.2-.66-.87-1.13-.82-1.89l-.03-.03c-.16.18-.1.46-.09.69.19.48.64.85.71,1.38-.08.14-.26.16-.39.22.02-.95-1.43-1.67-.5-2.63.31-.47.83-.92.64-1.57-.19-.62-.86-1.01-.85-1.71v-.05c.15-.73.61-1.51.24-2.29-.11-.31-.34-.67-.66-.8.48.54.67,1.43.39,2.16-.14.29-.33.64-.35.98h0c-.01.18.03.36.14.52.36.58.99,1.23.63,1.99-.41.61-1.12,1.23-.72,2.03.29.48.73.96.61,1.55l-.47.16c.31-1.1-1.23-1.75-.58-2.85.4-.59,1.11-1.14.71-1.93-.24-.48-.74-.77-.72-1.38l.02-.1c.16-.86.82-1.67.36-2.59-.12-.27-.36-.55-.63-.7l-.02.02c.53.52.7,1.37.41,2.05-.13.4-.43.8-.49,1.23-.03.2,0,.41.11.63.34.54.94,1.11.56,1.8-.39.57-1.05,1.13-.79,1.88.29.65.89,1.27.56,2.08l-.49.11c.39-.79-.19-1.57-.53-2.25-.41-.98.89-1.45.91-2.35,0-.58-.62-.91-.75-1.44-.16-.13-.32-.08-.49-.02-.12.04-.24.08-.37.05-.08.02-.18-.02-.28-.05-.18-.06-.37-.13-.46.13-.17.59-.93,1.02-.6,1.72.32.62,1.09,1.08.83,1.88-.23.75-.99,1.47-.52,2.33-.19-.06-.56.06-.55-.25-.3-1.05.97-1.66.58-2.71-.18-.64-1.02-1-.83-1.77.14-.64.85-1.08.75-1.78,0-.06-.02-.12-.04-.18-.27-.75-.81-1.5-.49-2.38.09-.25.27-.46.42-.69-.52.28-.78.86-.77,1.46-.02.65.46,1.2.53,1.79.03.24-.01.48-.18.74-.34.46-.79.94-.58,1.55.19.61.96.98.91,1.69,0,.84-.99,1.36-.71,2.3l-.49-.16c-.19-.83.7-1.26.71-2.03.13-.89-1.01-1.22-.94-2.08,0-.66.58-1.07.83-1.63.04-.13.06-.26.05-.38-.03-.61-.59-1.09-.49-1.78.03-.51.2-.95.53-1.33-.46.18-.64.7-.77,1.14-.22.7.3,1.33.36,1.96.02.28-.04.55-.31.84-.38.44-.76,1-.49,1.6.29.66,1.2,1.17.8,1.99-.21.52-.73.91-.71,1.52-.14-.06-.28-.12-.39-.22,0-.78,1.11-1.26.58-2.08-.05.16-.06.38-.09.56-.18.48-.58.86-.72,1.35-.25-.09-.5-.29-.71-.5l.28-.17c-.03-.1-.12-.19-.19-.28-.18-.03-.3.09-.46.14-.13-.12-.26-.22-.36-.36.09-.27.83-.05.46-.48-.25-.16-.5.07-.72.17l-.3-.38c.26-.16.51-.38.83-.31.08.14.08.35.24.42.54-.01.92-.42,1.34-.74-.29-.43-.52-1.02-.27-1.53.21-.52.74-.95.76-1.53,0-.13-.02-.27-.07-.41-.28-.73-.38-1.71.16-2.35-.29.08-.47.44-.57.72-.32.71.09,1.36.1,2.04,0,.12,0,.24-.04.37-.28.56-.73,1.05-.8,1.69-.32.2-.58.56-1.04.44-.02.12.02.3.06.44-.36-.02-.61.25-.91.38-.16-.05-.2-.26-.27-.41.36-.12.61-.48,1.02-.47.05-.13-.03-.25-.05-.38-.2-.09-.44.06-.66.2-.36.23-.68.46-.72-.25.51-.03.83-.5,1.34-.55l.02-.37c-.29-.03-.52.1-.75.23-.23.13-.47.26-.75.23l-.12-.5c.66.04,1.05-.55,1.68-.58.08-.11.09-.27.11-.42-.32-.04-.59.1-.86.24-.32.16-.63.32-1.03.2,0,0-.02-.32-.04-.49h0c0-.07,0-.12,0-.12.65.25,1.22-.21,1.78-.45.14-.04.36.03.43-.13,0-.12.21-.26.03-.34-.35-.05-.65.11-.95.27-.39.2-.76.41-1.24.16l-.06-.13C.17,4.18,1.51,1.9,3.73.78,4.62.27,5.74,0,6.86,0c1.36-.01,2.73.34,3.75,1.06.99.61,1.94,1.6,2.45,2.61.49.89.72,1.88.79,2.94-.48.36-.86.13-1.27-.09-.32-.18-.66-.36-1.05-.24.05.14.07.28.17.39.33,0,.61.14.89.28.39.19.76.39,1.24.2v.12s0,0,0,0Zm-7.48-.82l.02.09c.2.14.27.37.55.35.25.01.44-.22.57-.41-.16-.02-.34-.02-.53-.01-.2,0-.41.01-.61-.02Zm.21-.35c.15.03.19.09.3.1.12,0,.11-.03.32-.1.01,0,.03-.04,0-.06-.14-.13-.23-.04-.31-.04-.11,0-.22-.1-.33.03-.02.03-.03.05,0,.07h0Zm5.38-.38c.53.14,1.07.72,1.64.34-.49-.81-1.23-1.57-1.02-2.63.02-.07-.03-.15-.09-.16-.32.13-.57.44-.69.75-.05.18-.08.38-.16.55-.38-.2-.79-.39-1.26-.34-.17.02-.41.03-.44.2.53.28.96.75,1.29,1.25.23-.04.5,0,.74.03h0Zm-6.32-.64c-.01.07,0,.19.11.14.16-.22.45-.05.63-.03v-.06c-.1-.15-.3-.23-.5-.22-.05,0-.09,0-.14.02-.07.02-.12.08-.09.16h0Zm2.25-.16s-.04,0-.06,0c-.11.07-.43.02-.31.27.2-.16.48-.05.68.03.07-.04.06-.11.06-.17-.06-.12-.22-.13-.36-.13h0Zm.32-.51c-.15-.32-.48-.45-.79-.53-.15-.02-.3-.03-.46-.03-.03,0-.06,0-.09,0-.43,0-.84.12-1.09.47-.04.1-.19.24-.05.33.33-.02.71-.06.93.22,0,.25.16.58-.11.7-.12-.11-.25-.08-.38-.05-.12.03-.24.05-.36-.03-.12-.07-.19.01-.24.11-.07.65.27,1.36.88,1.72.25.09.58.17.83.05.62-.29.87-.94.99-1.55-.02-.12-.01-.34-.17-.34-.18.12-.45.05-.64,0-.11.04-.12.2-.25.24l-.08-.06c-.07-.29-.11-.69.16-.89.3-.12.65-.17.96-.08.06-.1-.03-.18-.05-.27h0Zm-4.23-.03c-.54-.35-1.24-.02-1.74.17-.05-.48-.24-.91-.64-1.22-.04-.02-.09-.06-.14-.06-.03,0-.06,0-.08.05.18,1.12-.55,1.9-1.07,2.76.17.14.45.12.66.08.55-.22,1.07-.6,1.73-.47.19-.33.52-.65.79-.91.16-.14.39-.23.5-.39h0Zm2.92-1.96c.25.14.51.32.71.52l-.08.08c-.39-.04-.81.01-1.18.02-.04-.04-.12-.1-.05-.16l.6-.45h0Zm3.27.3c-.39-.02-.71.2-1.07.3-.03-.3.2-.62.25-.92-.58.04-1.03.38-1.51.66-.11-.27-.22-.53-.33-.8l.63-.59.02-.08-.85-.05c-.15-.26-.2-.56-.38-.8-.14.27-.24.55-.38.81l-.85.05v.06l.64.58c-.08.3-.15.62-.35.85-.38-.22-.75-.47-1.16-.63-.1-.03-.24-.08-.33-.02.13.29.31.6.28.91-.17-.03-.31-.14-.47-.19-.19-.05-.43-.16-.61-.09.31.44.57.9.66,1.42,1.04-.5,2.26-.78,3.52-.56.59.09,1.14.33,1.67.53.02-.55.37-1,.61-1.44h0Z" fill-rule="evenodd"/>
</svg>