<?xml version="1.0" encoding="UTF-8"?>
<svg id="a" data-name="Layer 1" xmlns="http://www.w3.org/2000/svg" viewBox="0 0 24.56 24.47">
  <path d="m7.24,1.08c.27-.11.53-.24.81-.34C9.2.31,10.39.08,11.62.02c1.4-.08,2.78.09,4.12.5,1.48.45,2.83,1.16,4.05,2.12,1.06.83,1.95,1.82,2.68,2.94.05.08.13.14.06.26-.03.05,0,.13,0,.2.07-.01.13-.03.21-.04.17.32.34.64.53.98-.17.02-.31.05-.46.06-.04,0-.09-.05-.11-.09-.23-.4-.43-.82-.68-1.21-.21-.33-.47-.64-.72-.95-1.19-1.45-2.64-2.55-4.35-3.31-1.34-.6-2.75-.92-4.22-.98-.81-.03-1.6.03-2.4.14-.53.07-1.04.21-1.55.37-.51.16-1.01.35-1.49.57-.48.23-.95.5-1.41.78-.62.38-1.17.83-1.7,1.33-.35.33-.67.68-.97,1.05-.1.13-.19.19-.35.12-.02-.01-.05,0-.09-.02-.08.12,0,.24,0,.35,0,.03,0,.07-.01.1-.15.22-.3.44-.46.67-.1-.08-.2-.03-.24.06-.02.04.04.13.08.22-.39.67-.75,1.39-.99,2.17-.16.49-.28,1-.41,1.5-.02.08-.07.12-.13.17-.13.12-.28.07-.43.14.05-.24.08-.46.13-.67.37-1.63,1.04-3.13,2.02-4.48.7-.98,1.54-1.83,2.49-2.57.05-.04.11-.08.17-.1.12-.04.25-.05.27-.22,0-.02.03-.03.05-.04.59-.4,1.2-.75,1.85-1.05.03-.01.05-.02.08-.02,0,.01-.01.02-.02.04-.01.04-.02.09-.03.13.04,0,.09.03.13.01.05-.02.08-.08.12-.12-.03-.03-.06-.06-.09-.07-.03,0-.07.01-.11.02h0Zm-1.37,1.16c.1-.11.19-.21.28-.32,0,0-.05-.09-.08-.09-.09-.02-.32.14-.35.24-.04.11.01.17.15.18Zm2.25-1.28c.16.08.31.07.4-.04.03-.04.04-.13.02-.17-.01-.03-.1-.05-.15-.04-.14.02-.22.12-.27.26ZM.51,9.43c.15.04.26,0,.26-.12,0-.05-.05-.12-.1-.14-.07-.03-.16.11-.16.26ZM11.01.43c.04-.06.07-.1.08-.14,0-.02-.07-.07-.09-.06-.04.01-.07.06-.1.09.03.03.06.06.11.11Z" fill="#ff8080"/>
  <path d="m10.09,24.28c.06-.06.11-.1.14-.15.03-.03.03-.08.05-.12-.05-.02-.11-.06-.15-.05-.08.02-.16.07-.22.12-.12.11-.24.13-.4.09-1.56-.36-3-1.01-4.31-1.93-.77-.54-1.47-1.16-2.09-1.86-.01-.01-.02-.03-.03-.04.13-.1.25-.2.37-.29.34.33.69.69,1.06,1.02,1.68,1.47,3.63,2.39,5.84,2.76.14.02.29.04.43.06.09.02.19-.02.22.13.02.07.12.04.19-.01.04-.03.1-.06.15-.06.91.06,1.82.03,2.73-.11.05,0,.12.02.17.04.09.04.17.04.22-.07.01-.02.04-.05.06-.05.26-.07.53-.13.79-.19.03,0,.06-.01.08,0,.08.05.12,0,.19-.05.06-.06.16-.08.24-.1,1.34-.43,2.56-1.08,3.66-1.95,1.53-1.22,2.69-2.73,3.48-4.52.09-.21.17-.42.26-.65.11.04.2,0,.21-.11,0-.05-.06-.11-.09-.17.13-.52.26-1.07.4-1.62,0-.03.06-.07.09-.08.13-.03.27-.04.43-.06-.05.26-.1.5-.15.76-.08-.01-.15-.02-.23-.04-.03.15-.02.28.07.4.02.03.03.09.02.13-.31,1.13-.77,2.19-1.39,3.19-.81,1.31-1.84,2.44-3.08,3.36-1.02.76-2.13,1.37-3.34,1.76-.61.19-1.24.33-1.86.49-.05.01-.1.01-.15.02-.09-.19-.12-.19-.28-.05-.07.06-.16.12-.25.13-1.17.13-2.33.11-3.49-.09-.02,0-.03,0-.07-.02h0Zm11.56-4.73c.16.03.26,0,.26-.13,0-.05-.05-.12-.1-.14-.07-.02-.16.12-.16.26Zm.87-1.53c-.05.1-.09.16-.1.23,0,.02.08.08.08.08.06-.05.11-.11.16-.17,0,0-.06-.06-.14-.13h0Zm-13.17,5.73c-.11.01-.2.04-.21.16,0,.01.09.05.13.04.1-.02.16-.08.08-.2h0Zm7.89-.73l.02.07c.07,0,.13,0,.2,0v-.21s-.04-.01-.06-.02c-.05.05-.11.11-.16.16h0Z" fill="#ff8080"/>
  <path d="m5.32,17.41l-.07-.48c.05-.01.1-.02.15-.03,4.89-.69,9.79-1.38,14.68-2.07.14-.02.18.02.19.15.03.32.04.32-.28.37-4.08.57-8.15,1.15-12.23,1.72-.75.11-1.51.21-2.26.32-.05,0-.11.02-.18.03h0Zm5.15-.74c.17-.18.18-.25.05-.4-.19.11-.21.26-.05.4Zm-2.73.29c.09-.06.21-.09.17-.22,0-.02-.12-.05-.16-.02-.09.06-.1.15,0,.25Zm1.3-.32s.03,0,.05,0c.01-.04.05-.1.03-.12-.02-.03-.08-.04-.13-.06,0,.01-.02.02-.02.03.02.05.05.09.07.14Z" fill="#ff8080"/>
  <path d="m19.22,7.54l-14.99,2.11-.07-.47s.1-.02.15-.03c3.56-.5,7.12-1,10.68-1.5,1.33-.19,2.66-.37,3.98-.57.14-.02.19.02.19.15,0,.1.03.19.04.31Zm-4.22.36c.05-.07.09-.11.13-.16-.04-.02-.08-.07-.1-.06-.05.02-.1.07-.14.11.03.03.06.06.12.11h0Z" fill="#ff8080"/>
  <path d="m21.42,17.34l.03.2s.07,0,.11,0c0,.02,0,.04-.02.05-.37.64-.8,1.24-1.29,1.79-.5.56-1.05,1.07-1.65,1.51-.1.07-.2.14-.3.21-.08.05-.15.14-.28.08-.05-.02-.16.04-.2.1-.34.45-.86.59-1.33.82-.13.06-.28.09-.42.14-.2.08-.39.17-.59.24-.76.25-1.55.41-2.35.46-.33.02-.66.04-.99.04-.34,0-.68-.02-1.02-.06-.33-.03-.67-.09-1-.15-.33-.07-.66-.14-.98-.24-1.33-.4-2.54-1.03-3.63-1.9-.66-.53-1.25-1.12-1.76-1.78-.05-.06-.08-.15-.09-.22-.01-.09-.05-.13-.12-.17-.07-.03-.14-.08-.18-.14-.22-.34-.43-.69-.65-1.03.23-.1.25-.09.35.09,1.26,2.2,3.07,3.76,5.43,4.67,1.78.69,3.62.86,5.5.54,2.17-.37,4.04-1.34,5.62-2.89.08-.08.19-.15.27-.24.18-.21.36-.42.51-.64.32-.46.63-.92.95-1.39.02-.03.03-.05.07-.11h0Z" fill="#ff8080"/>
  <path d="m14.35,20.54c-.29-.11-.54-.19-.79-.3-.13-.05-.23-.05-.34.04-.21.17-.44.33-.69.51,0-.12,0-.22,0-.31.01-.21.03-.43.03-.64,0-.04-.04-.1-.07-.13-.23-.17-.46-.33-.7-.49-.02-.01-.03-.03-.07-.06.29-.08.57-.16.84-.23.13-.03.19-.09.22-.21.08-.27.17-.53.27-.83.13.2.26.38.38.56q.21.31.57.3c.22,0,.44,0,.69,0-.2.24-.37.46-.55.67-.08.09-.11.17-.06.3.09.21.15.43.22.65.02.05.03.1.05.18h0Zm-.44-1.12c.05-.07.09-.11.13-.16-.04-.02-.09-.07-.12-.06-.05.01-.09.07-.13.11.03.03.07.06.12.11h0Z" fill="#ff8080"/>
  <path d="m11.04,3.61c.18.26.35.5.51.74.05.08.1.11.2.11.3-.01.59,0,.93,0-.18.22-.33.43-.5.62-.13.14-.15.26-.08.43.1.23.16.48.25.75-.22-.08-.41-.13-.58-.22-.28-.15-.51-.13-.75.1-.14.14-.31.23-.47.35,0,0,0,0-.03,0,.01-.24,0-.48.04-.72.03-.22-.03-.35-.22-.46-.19-.11-.35-.24-.53-.37-.02-.01-.04-.04-.07-.07.25-.07.48-.15.72-.19.21-.04.33-.13.38-.35.05-.24.15-.46.23-.71h0Zm.5,1.49c.08-.04.16-.08.22-.1.05.05.08.12.11.12.05,0,.12-.04.15-.08.03-.03.04-.1.04-.15,0-.04-.02-.11-.04-.11-.04,0-.1.01-.12.04-.04.09-.11.08-.18.07-.14-.01-.19.05-.17.21h0Z" fill="#ff8080"/>
  <path d="m21.71,7.19c-.24.06-.24.06-.34-.13-.07-.12-.14-.23-.21-.35-.07-.11-.16-.21-.01-.37-.25.05-.3-.12-.39-.24-.21-.27-.43-.55-.62-.8,0-.08.02-.14.02-.21-.06,0-.13,0-.22-.01-.26-.24-.54-.52-.83-.78-.93-.81-1.97-1.45-3.12-1.87-.5-.18-1.02-.31-1.53-.46-.09-.03-.18-.03-.15-.16,0-.02-.03-.05-.05-.07-.02.02-.05.04-.06.06-.01.03-.02.06-.03.11-.16-.06-.35,0-.46-.13-.11,0-.19.02-.28.02-.43-.03-.85-.06-1.28-.09.01-.07.03-.14.05-.22,3.86-.08,7.71,2.22,9.51,5.71h0Z" fill="#ff8080"/>
  <path d="m14.68,3.46c.16.24.31.45.44.66.05.08.1.11.19.1.26,0,.52,0,.81,0-.14.17-.25.34-.4.49-.15.15-.19.29-.1.49.09.18.13.38.2.6-.22-.08-.43-.14-.62-.23-.18-.08-.31-.07-.46.06-.16.14-.34.25-.53.39,0-.16-.01-.29.02-.42.08-.36-.03-.62-.38-.77-.12-.05-.22-.15-.36-.25.26-.07.5-.14.74-.2.11-.03.18-.07.22-.2.06-.23.14-.45.23-.72h0Zm.23,1.71c-.12.06-.2.18-.14.24.02.03.11.04.13.02.09-.07.07-.17.01-.26h0Z" fill="#ff8080"/>
  <path d="m10.92,19.53c-.18.22-.33.42-.5.61-.07.08-.07.15-.04.24.08.23.16.47.25.73-.21-.08-.4-.13-.58-.21-.21-.11-.37-.08-.55.08-.15.13-.32.24-.5.37.01-.26.02-.5.04-.75,0-.04.06-.07.06-.11.01-.06.01-.13.02-.2-.05,0-.1,0-.16,0-.04,0-.09.01-.12,0-.18-.12-.35-.24-.56-.38.21-.06.38-.13.57-.15.25-.04.39-.16.44-.41.03-.17.11-.34.16-.51,0,0,0,0,.03-.03.11.21.31.36.35.62,0,.05.16.11.24.12.27.01.54,0,.84,0h0Z" fill="#ff8080"/>
  <path d="m15.51,18.88c.29-.08.54-.14.79-.22.06-.02.11-.07.14-.13.05-.11.07-.23.12-.34.05-.11.12-.21.2-.33.14.21.26.4.4.58.03.05.11.08.17.09.26,0,.52,0,.82,0-.19.24-.36.45-.53.66-.01.01-.05.02-.07.02-.17-.02-.23.05-.17.22.07-.03.14-.06.22-.1.09.26.17.51.26.78-.21-.07-.4-.12-.57-.21-.21-.11-.38-.08-.55.07-.14.13-.31.23-.47.35-.01,0-.03,0-.04-.01.03-.16.06-.33.08-.49,0-.03,0-.07,0-.1,0-.03-.03-.07-.03-.1.03-.15-.03-.23-.15-.31-.19-.12-.37-.26-.59-.41h0Z" fill="#ff8080"/>
  <path d="m2.99,7.22c-.02-.07-.04-.13-.06-.19-.03.05-.06.11-.1.16-.03.04-.07.07-.13.08.06-.12.13-.24.19-.36.53-.93,1.18-1.75,1.94-2.49.06-.06.11-.09.21-.07.11.02.22.02.28-.12-.04-.03-.09-.06-.16-.11,1.97-1.69,4.25-2.56,6.84-2.64-.1.12-.18.25-.38.26-1.64.08-3.18.55-4.6,1.36-1.04.59-1.95,1.35-2.73,2.26-.04.05-.11.08-.18.12-.08.05-.16.08-.12.2,0,.03-.02.07-.04.09-.23.34-.44.68-.7,1-.11.14-.13.33-.26.45h0Z" fill="#ff8080"/>
  <path d="m7.47,4.48c.16.24.3.43.43.64.06.1.13.12.24.12.25,0,.49,0,.77,0-.19.23-.36.44-.52.65-.2-.13-.27-.13-.43.05-.09.09-.16.19-.24.29.24.11.42.06.65-.18.04.11.07.2.1.28-.03.05-.06.09-.08.13.03.01.07.03.1.04.02.01.05.03.05.05.03.07.05.15.09.26-.21-.08-.41-.13-.59-.22-.2-.1-.36-.07-.53.07-.15.13-.32.24-.5.37.01-.29.03-.55.03-.81,0-.05-.03-.12-.08-.16-.19-.14-.38-.27-.57-.41-.02-.02-.05-.04-.09-.07.26-.07.49-.14.73-.2.11-.03.17-.08.21-.19.07-.24.15-.47.24-.72h0Z" fill="#ff8080"/>
  <path d="m3.25,19.78c-.12.11-.24.21-.36.32-.66-.79-1.22-1.65-1.68-2.61.17-.02.31-.05.46-.06.03,0,.07.03.08.06.41.83.92,1.58,1.5,2.29,0,0,0,0,0,0h0Z" fill="#ff8080"/>
  <path d="m22.77,14.47c-.13.44-.24.85-.37,1.25-.05.17-.12.34-.18.5-.03.06-.08.11-.12.16-.02.03-.06.07-.05.11.02.19-.06.33-.22.44-.13.09-.23.23-.38.37.12-.26.23-.48.34-.7.29-.63.52-1.28.66-1.96.04-.18.16-.14.32-.17h0Z" fill="#ff8080"/>
  <path d="m2.61,7.44c.1.2.17.03.27,0-.06.12-.1.22-.15.31-.05,0-.1,0-.19,0,.16.18.04.32-.01.46-.06.17-.1.35-.2.49-.11.16-.1.34-.16.51-.06.18-.1.36-.15.54-.06.23-.05.23-.31.24.19-.89.48-1.73.89-2.56h0Z" fill="#ff8080"/>
  <path d="m2.21,12.16l.36,2.59-.53.07-1.24-1.35h-.02s.21,1.5.21,1.5l-.63.09-.36-2.59.54-.08,1.23,1.35h.02s-.21-1.5-.21-1.5l.63-.09Zm3.03.9c.04.29.02.54-.06.75-.08.21-.21.39-.38.51-.17.13-.37.21-.61.24-.23.03-.45.01-.65-.07-.2-.08-.37-.21-.51-.39-.14-.18-.23-.42-.27-.7-.04-.29-.02-.53.06-.75.08-.21.21-.39.38-.51.17-.13.37-.21.61-.24.23-.03.45-.01.65.07.2.08.37.21.51.39.14.18.23.42.27.7Zm-.64.09c-.02-.17-.07-.31-.13-.42-.06-.11-.14-.19-.24-.24-.1-.05-.21-.06-.33-.04-.12.02-.23.06-.31.14s-.14.17-.17.29c-.03.12-.03.27-.01.44.02.17.07.31.13.42.06.11.15.19.24.24.1.05.21.06.33.04.12-.02.23-.06.31-.14.08-.07.14-.17.17-.29.03-.12.04-.27.01-.44Zm.69-.9l-.07-.51,2.19-.31.07.51-.79.11.29,2.09-.62.09-.29-2.09-.79.11Zm3.78-1.05l.85,1.82h.02s.31-1.98.31-1.98l.7-.1-.51,2.72-.83.12-1.24-2.47.7-.1Zm2.53,2.29l-.36-2.59,1.81-.25.07.51-1.18.17.07.53,1.09-.15.07.51-1.09.15.07.53,1.18-.17.07.51-1.81.25Zm2.2-.31l-.36-2.59,1.07-.15c.19-.03.37-.02.52.03.15.05.28.13.37.25.1.12.16.27.18.44.03.18,0,.34-.05.48-.06.14-.16.25-.29.33-.14.09-.3.14-.5.17l-.68.1-.07-.49.56-.08c.09-.01.17-.04.23-.07.06-.03.1-.08.13-.13.03-.06.03-.12.02-.2-.01-.08-.04-.14-.08-.19-.04-.05-.09-.08-.16-.1-.07-.02-.15-.02-.24,0l-.31.04.29,2.09-.63.09Zm1.29-1.39l.81,1.09-.68.1-.8-1.1.67-.09Zm1.33-1.62l.36,2.59-.63.09-.36-2.59.63-.09Zm.76,2.54l-.36-2.59,1.77-.25.07.51-1.14.16.07.53,1.03-.14.07.51-1.03.14.15,1.04-.63.09Zm2.35-2.98l.36,2.59-.63.09-.36-2.59.63-.09Zm.76,2.54l-.36-2.59,1.81-.25.07.51-1.18.17.07.53,1.09-.15.07.51-1.09.15.07.53,1.18-.17.07.51-1.81.25Zm3.16-.44l-.96.13-.36-2.59.96-.13c.26-.04.5-.02.7.06.21.08.37.2.51.38.13.18.22.4.25.67.04.27.02.51-.06.72-.08.21-.2.38-.38.51-.18.13-.4.21-.66.25Zm-.41-.49l.31-.04c.15-.02.26-.06.36-.13.09-.06.16-.16.2-.27.04-.12.04-.27.02-.46-.03-.19-.07-.33-.14-.43-.07-.1-.16-.17-.27-.21-.11-.04-.24-.04-.39-.02l-.3.04.21,1.53Z" fill="#ff8080"/>
</svg>