<?xml version="1.0" encoding="UTF-8"?>
<svg id="a" data-name="Layer 1" xmlns="http://www.w3.org/2000/svg" viewBox="0 0 58.88 58">
  <path d="m29.44.63c15.92,0,28.81,12.71,28.81,28.37s-12.89,28.37-28.81,28.37S.63,44.66.63,29,13.52.63,29.44.63Z" fill="#dce161" stroke="#c4cc00" stroke-width="1.27"/>
  <path d="m14.22,21.16l2.04,4.37h.05s.75-4.76.75-4.76l1.69-.24-1.22,6.52-2,.28-2.98-5.93,1.69-.24Zm6.07,5.5l-.88-6.23,4.34-.61.17,1.22-2.84.4.18,1.28,2.62-.37.17,1.23-2.62.37.18,1.28,2.84-.4.17,1.22-4.34.61Zm5.29-.74l-.88-6.23,2.57-.36c.47-.07.88-.04,1.24.08.36.12.66.32.89.61.23.28.37.64.43,1.07.06.43.02.81-.13,1.14-.15.33-.38.59-.71.8-.32.2-.72.34-1.2.41l-1.63.23-.17-1.19,1.35-.19c.23-.03.41-.09.56-.17.15-.08.25-.19.31-.32.06-.13.08-.3.05-.49-.03-.19-.09-.35-.19-.46-.1-.12-.23-.2-.39-.24-.16-.04-.36-.05-.58-.02l-.74.1.71,5.02-1.51.21Zm3.11-3.34l1.95,2.63-1.64.23-1.92-2.63,1.61-.23Zm3.19-3.9l.88,6.23-1.51.21-.88-6.23,1.51-.21Zm1.82,6.1l-.88-6.23,4.25-.6.17,1.22-2.75.38.18,1.28,2.48-.35.17,1.23-2.48.35.35,2.5-1.51.21Zm3.82-6.89l1.68-.24,1.69,2.42h.05s.95-2.8.95-2.8l1.68-.24-1.69,4.47.29,2.08-1.5.21-.29-2.08-2.86-3.83Zm-12.03,13.8l.88,6.23-1.28.18-2.99-3.25h-.04s.51,3.6.51,3.6l-1.51.21-.88-6.23,1.3-.18,2.96,3.25h.05s-.51-3.6-.51-3.6l1.5-.21Zm7.27,2.16c.1.69.05,1.28-.15,1.8s-.5.93-.92,1.24c-.41.31-.9.5-1.46.58-.56.08-1.08.02-1.56-.16-.48-.19-.89-.5-1.22-.94-.33-.44-.54-1-.64-1.68-.1-.69-.05-1.28.15-1.8.2-.51.5-.93.91-1.24.41-.31.9-.5,1.46-.58.56-.08,1.08-.02,1.56.16.49.18.89.5,1.22.94.33.44.54,1,.64,1.69Zm-1.54.22c-.06-.41-.16-.74-.32-1-.15-.26-.35-.45-.58-.57-.23-.11-.5-.15-.8-.11-.3.04-.54.15-.74.32-.19.17-.33.41-.41.7-.07.3-.08.65-.03,1.05.06.41.16.74.32,1,.16.26.35.45.59.57.24.11.5.15.8.11.3-.04.55-.15.74-.32.19-.17.33-.41.4-.7.08-.3.09-.65.03-1.05Zm4.04,2.61l-2.69-5.98,1.66-.23,1.52,3.95h.05s.5-4.24.5-4.24l1.36-.19,1.65,3.94h.05s.37-4.23.37-4.23l1.66-.23-.93,6.48-1.45.2-1.66-3.62h-.05s-.59,3.94-.59,3.94l-1.45.2Z" fill="#fff"/>
  <circle cx="29.12" cy="29.13" r="23.42" fill="none" isolation="isolate" opacity=".6" stroke="#fff" stroke-width="1.27"/>
  <rect x="11.35" y="15.3" width="31.22" height="1.27" rx=".63" ry=".63" transform="translate(-1.82 3.59) rotate(-7.37)" fill="#f1f3c0"/>
  <path d="m16.46,43.19l29.71-3.85c.35-.04.66.2.71.55h0c.04.35-.2.66-.55.71l-29.71,3.85c-.35.04-.66-.2-.71-.55h0c-.04-.35.2-.66.55-.71Z" fill="#f1f3c0"/>
</svg>