<?xml version="1.0" encoding="UTF-8"?>
<svg id="a" data-name="Layer 1" xmlns="http://www.w3.org/2000/svg" xmlns:xlink="http://www.w3.org/1999/xlink" viewBox="0 0 9.64 9.64">
  <defs>
    <clipPath id="b">
      <rect x="0" y="0" width="9.63" height="9.63" fill="none"/>
    </clipPath>
  </defs>
  <g clip-path="url(#b)">
    <path d="m9.44,4.25l-.65-.81c-.1-.13-.17-.29-.19-.46l-.11-1.02c-.02-.2-.11-.39-.26-.54-.15-.15-.34-.24-.54-.26l-1.02-.11c-.18-.02-.34-.1-.47-.2l-.81-.65c-.33-.26-.8-.26-1.13,0l-.81.65c-.13.1-.29.17-.46.19l-1.02.11c-.42.05-.75.38-.8.8l-.11,1.02c-.02.18-.1.34-.2.47l-.65.81c-.26.33-.26.8,0,1.13l.65.81c.1.13.17.29.19.46l.11,1.02c.05.42.38.75.8.8l1.02.11c.18.02.34.1.47.2l.81.65c.33.26.8.26,1.13,0l.81-.65c.13-.1.29-.17.46-.19l1.02-.11c.42-.05.75-.38.8-.8l.11-1.02c.02-.18.1-.34.2-.47l.65-.81c.26-.33.26-.8,0-1.13Zm-5.52,2.97l-2.11-2.11.9-.9,1.2,1.2,3.01-3.01.9.93-3.91,3.88Z" fill="#bbc036" fill-rule="evenodd"/>
  </g>
</svg>