<svg width="112" height="112" viewBox="0 0 112 112" fill="none" xmlns="http://www.w3.org/2000/svg">
<rect width="112" height="112" transform="translate(112) rotate(90)" fill="#4531FA"/>
<path d="M35.3006 81.9996L35.8536 26.532L36.5042 26.498C26.8246 26.3961 18.1076 34.7725 17.9995 45.4075C17.9246 52.7777 17.6169 74.12 17.6377 81.8044" fill="#6FFFBA"/>
<path d="M97.9712 55.4122C97.9301 53.0771 98.1305 51.2592 97.7606 49.4721C96.4557 43.153 93.5531 37.725 88.4569 33.6335C80.0419 26.8843 70.5789 25.1637 60.5457 29.0299C51.4783 32.5223 45.7656 39.3175 43.6901 48.8627C42.1643 55.8935 43.1301 62.6581 46.9728 68.7825C52.2797 77.237 60.0166 81.733 70.1268 81.989C77.9818 82.1888 84.7631 79.5311 90.2241 73.9648C95.3769 68.7057 98.2949 62.4021 97.9764 55.4071" fill="white"/>
</svg>
