<svg width="947" height="930" viewBox="0 0 947 930" fill="none" xmlns="http://www.w3.org/2000/svg">
<rect width="947" height="930" fill=""/>
<path d="M426.324 926.232C436.36 841.281 446.373 756.594 456.412 671.686C462.447 672.046 468.039 672.496 473.634 672.694C500.282 673.622 526.314 669.841 551.164 660.344C615.53 635.735 658.898 590.732 679.746 525.02C692.526 484.725 692.174 443.999 679.966 403.535C677.099 394.047 672.987 384.917 669.077 375.778C668.43 374.262 667.337 372.113 667.337 372.113C667.337 372.113 669.774 370.92 671.144 370.249C745.706 333.825 820.25 297.384 894.737 260.808C896.202 260.091 898.696 258.87 898.696 258.87C898.696 258.87 899.961 261.331 900.754 263.053C920.153 305.114 934.205 348.779 941.055 394.667C950.09 455.189 947.536 515.215 932.841 574.575C912.593 656.38 873.22 727.766 814.498 788.437C792.491 811.178 768.449 831.556 742.077 849.008C727.515 858.641 712.238 867.277 696.912 875.685C685.391 882.007 673.502 887.781 661.387 892.876C629.025 906.471 595.529 916.482 560.896 922.497C517.633 930.008 474.153 931.5 430.485 926.79C429.24 926.655 428.002 926.461 426.334 926.236L426.324 926.232Z" fill="#070919"/>
<path d="M436.594 245.529C364.742 257.002 309.241 292.483 274.587 356.503C239.962 420.473 240.071 486.244 270.001 552.423L47.8077 661.179C24.2676 613.297 9.31437 563.043 3.44492 510.166C-6.19061 423.342 7.57125 340.24 44.843 261.272C121.475 98.9476 273.31 15.5336 406.383 0.680969C416.455 82.2812 426.519 163.885 436.594 245.529Z" fill="#050416"/>
</svg>
