<svg width="1600" height="1038" viewBox="0 0 1600 1038" fill="none" xmlns="http://www.w3.org/2000/svg">
<g clip-path="url(#clip0_0_398)">
<g clip-path="url(#clip1_0_398)">
<g clip-path="url(#clip2_0_398)">
<path d="M743.324 453.232C753.36 368.281 763.373 283.594 773.412 198.686C779.447 199.046 785.039 199.496 790.634 199.694C817.282 200.622 843.314 196.841 868.164 187.344C932.53 162.735 975.898 117.732 996.746 52.0199C1009.53 11.7253 1009.17 -29.0012 996.966 -69.465C994.099 -78.9531 989.987 -88.0832 986.077 -97.2224C985.43 -98.7378 984.337 -100.887 984.337 -100.887C984.337 -100.887 986.774 -102.08 988.144 -102.751C1062.71 -139.175 1137.25 -175.616 1211.74 -212.192C1213.2 -212.909 1215.7 -214.13 1215.7 -214.13C1215.7 -214.13 1216.96 -211.669 1217.75 -209.947C1237.15 -167.886 1251.21 -124.221 1258.05 -78.3332C1267.09 -17.8112 1264.54 42.215 1249.84 101.575C1229.59 183.38 1190.22 254.766 1131.5 315.437C1109.49 338.178 1085.45 358.557 1059.08 376.008C1044.51 385.641 1029.24 394.277 1013.91 402.685C1002.39 409.007 990.502 414.781 978.387 419.876C946.025 433.471 912.529 443.482 877.896 449.497C834.633 457.008 791.153 458.5 747.485 453.79C746.24 453.655 745.002 453.461 743.334 453.236L743.324 453.232Z" fill="#070919"/>
<path d="M753.594 -227.471C681.742 -215.998 626.241 -180.517 591.587 -116.497C556.962 -52.5266 557.071 13.2444 587.001 79.4234L364.808 188.179C341.268 140.297 326.314 90.0431 320.445 37.1658C310.809 -49.6581 324.571 -132.76 361.843 -211.728C438.475 -374.052 590.31 -457.466 723.383 -472.319C733.455 -390.719 743.519 -309.115 753.594 -227.471Z" fill="#050416"/>
</g>
</g>
</g>
<defs>
<clipPath id="clip0_0_398">
<rect width="1600" height="1037" fill="white" transform="translate(0 0.938477)"/>
</clipPath>
<clipPath id="clip1_0_398">
<rect width="941.099" height="939.724" fill="white" transform="matrix(0.89818 -0.439629 0.441325 0.897347 161.234 -225.752)"/>
</clipPath>
<clipPath id="clip2_0_398">
<rect width="941.099" height="939.724" fill="white" transform="matrix(0.89818 -0.439629 0.441325 0.897347 161.234 -225.752)"/>
</clipPath>
</defs>
</svg>
