<svg width="104" height="104" viewBox="0 0 104 104" fill="none" xmlns="http://www.w3.org/2000/svg">
<rect width="104" height="104" transform="translate(104) rotate(90)" fill="#4531FA"/>
<path d="M44.9791 69.8491C45.4124 70.0934 45.8224 70.3346 46.2413 70.5598C48.1749 71.5991 50.2302 72.2559 52.4076 72.5525C56.0082 73.0427 59.4561 72.5303 62.7404 70.9899C66.3255 69.3082 69.0885 66.7223 71.0382 63.2766C72.2895 61.0649 73.0458 58.6912 73.2886 56.1581C73.3373 55.6473 73.3901 55.1359 73.4077 54.624C73.4139 54.4842 73.4357 54.2829 73.4357 54.2829C73.4357 54.2829 73.8985 54.2829 73.958 54.2829C80.0483 54.2829 86.1385 54.2829 92.2288 54.2829C92.4855 54.2829 92.7672 54.2823 92.7672 54.2823C92.7672 54.2823 92.761 54.5375 92.7579 54.8108C92.6952 60.2777 91.4921 65.4847 89.1417 70.4179C85.773 77.4878 80.6923 83.0023 73.9487 86.9748C70.23 89.1653 66.2339 90.6301 61.9929 91.4453C59.0435 92.0126 56.0667 92.2083 53.078 92.0639C47.9978 91.819 43.1433 90.6105 38.5653 88.3765C37.2995 87.759 36.0928 87.0214 34.8523 86.3506C34.5448 86.184 34.4889 86.037 34.696 85.7192C37.123 81.9919 39.536 78.2554 41.9511 74.5204C42.886 73.0748 43.8169 71.6265 44.7508 70.1798C44.8207 70.0711 44.8978 69.9676 44.9801 69.8496L44.9791 69.8491Z" fill="#6FFFBA"/>
<path d="M52.6948 54.2832L13.0018 54.2832L52.6931 9.37203L52.6931 11.0474L52.6948 54.2832Z" fill="white"/>
</svg>
