<svg width="104" height="104" viewBox="0 0 104 104" fill="none" xmlns="http://www.w3.org/2000/svg">
<rect width="104" height="104" transform="translate(104) rotate(90)" fill="#4531FA"/>
<path d="M31.3006 77.9996L31.8536 22.532L32.5042 22.498C22.8246 22.3961 14.1076 30.7725 13.9995 41.4075C13.9246 48.7777 13.6169 70.12 13.6377 77.8044" fill="#6FFFBA"/>
<path d="M93.9712 51.4123C93.9301 49.0772 94.1305 47.2593 93.7606 45.4722C92.4557 39.1531 89.5531 33.7251 84.4569 29.6336C76.0419 22.8844 66.5789 21.1638 56.5457 25.03C47.4783 28.5224 41.7656 35.3177 39.6901 44.8628C38.1643 51.8936 39.1301 58.6582 42.9728 64.7827C48.2797 73.2371 56.0166 77.7331 66.1268 77.9892C73.9818 78.1889 80.7631 75.5312 86.2241 69.9649C91.3769 64.7059 94.2949 58.4022 93.9764 51.4072" fill="white"/>
</svg>
