<svg width="96" height="96" viewBox="0 0 96 96" fill="none" xmlns="http://www.w3.org/2000/svg">
<rect width="96" height="96" transform="translate(96) rotate(90)" fill="#4531FA"/>
<path d="M41.5186 64.4758C41.9186 64.7013 42.2971 64.9239 42.6837 65.1317C44.4686 66.0911 46.3657 66.6974 48.3757 66.9712C51.6993 67.4237 54.882 66.9507 57.9137 65.5288C61.223 63.9765 63.7734 61.5895 65.5731 58.4089C66.7282 56.3673 67.4263 54.1762 67.6505 51.8379C67.6954 51.3664 67.7441 50.8943 67.7604 50.4218C67.7661 50.2928 67.7862 50.1069 67.7862 50.1069C67.7862 50.1069 68.2134 50.1069 68.2684 50.1069C73.8901 50.1069 79.5119 50.1069 85.1337 50.1069C85.3707 50.1069 85.6307 50.1064 85.6307 50.1064C85.6307 50.1064 85.6249 50.342 85.6221 50.5943C85.5642 55.6406 84.4536 60.4471 82.2841 65.0008C79.1745 71.5269 74.4846 76.6172 68.2598 80.2841C64.8272 82.3061 61.1384 83.6582 57.2236 84.4107C54.5011 84.9344 51.7533 85.115 48.9945 84.9817C44.3051 84.7557 39.824 83.6401 35.5982 81.578C34.4298 81.008 33.3158 80.3271 32.1708 79.7079C31.887 79.5541 31.8353 79.4184 32.0265 79.125C34.2668 75.6845 36.4942 72.2354 38.7235 68.7877C39.5865 67.4533 40.4458 66.1165 41.3079 64.7811C41.3724 64.6807 41.4436 64.5852 41.5196 64.4762L41.5186 64.4758Z" fill="#6FFFBA"/>
<path d="M48.6417 50.1074L12.002 50.1074L48.64 8.65095L48.64 10.1975L48.6417 50.1074Z" fill="white"/>
</svg>
