<svg width="142" height="22" viewBox="0 0 142 22" fill="none" xmlns="http://www.w3.org/2000/svg">
<g clip-path="url(#clip0_1_15709)">
<path d="M10.4011 21.3839L10.1305 19.4258C9.13807 20.9883 7.64444 21.7695 5.61952 21.7695C4.72735 21.7695 3.9254 21.5816 3.20364 21.196C2.48189 20.8202 1.9105 20.296 1.47945 19.6335C1.05843 18.9709 0.837891 18.1995 0.837891 17.3194C0.837891 15.658 1.4995 14.3724 2.81269 13.4527C4.12589 12.533 5.8601 12.0781 8.01534 12.0781C8.68698 12.0781 9.39871 12.1374 10.1505 12.2561C10.0703 11.5144 9.74956 10.9507 9.18819 10.5749C8.62683 10.1991 7.93515 10.0013 7.12317 10.0013C6.41144 10.0013 5.68969 10.1299 4.97796 10.3969C4.2562 10.6639 3.56452 10.9804 2.91294 11.3463L1.15867 8.07294C2.15108 7.44992 3.21367 6.96534 4.36647 6.62911C5.51927 6.28299 6.67208 6.10498 7.81485 6.10498C9.19822 6.10498 10.4412 6.34232 11.5539 6.80712C12.6566 7.27191 13.5287 7.98394 14.1603 8.94319C14.7918 9.90245 15.1126 11.1089 15.1126 12.5725V21.3839H10.4011ZM5.8601 16.548C5.8601 16.993 6.03052 17.3589 6.36132 17.6457C6.70215 17.9325 7.1332 18.071 7.66449 18.071C8.37622 18.071 8.97768 17.8336 9.45885 17.3589C9.94002 16.8843 10.1806 16.281 10.1806 15.5591V15.0646C9.64931 14.9657 9.08795 14.9163 8.48649 14.9163C7.73466 14.9163 7.10312 15.0449 6.60191 15.2921C6.11071 15.5492 5.8601 15.9646 5.8601 16.548Z" fill="#009BFF"/>
<path d="M30.8002 17.5761V21.3834H17.4277V18.1991L24.3045 10.2976H17.8688V6.49023H30.5697V9.67457L23.7531 17.5761H30.8002Z" fill="#009BFF"/>
<path d="M40.2941 21.7598C38.7504 21.7598 37.387 21.4334 36.1841 20.7807C34.9912 20.128 34.0389 19.2182 33.3472 18.0414C32.6555 16.8745 32.3047 15.5098 32.3047 13.9473C32.3047 12.3848 32.6455 11.0201 33.3472 9.85312C34.0389 8.68619 34.9812 7.76649 36.1841 7.1138C37.377 6.46111 38.7504 6.13477 40.2941 6.13477C41.6574 6.13477 42.8503 6.382 43.8828 6.87646C44.9153 7.37092 45.8175 8.17195 46.6095 9.25977L43.2012 11.7222C42.9205 11.3167 42.5596 10.9805 42.1186 10.7135C41.6775 10.4465 41.1963 10.3179 40.6851 10.3179C39.7929 10.3179 39.0511 10.6443 38.4597 11.2969C37.8682 11.9496 37.5675 12.8298 37.5675 13.9473C37.5675 15.0549 37.8682 15.9449 38.4597 16.5976C39.0511 17.2503 39.7929 17.5766 40.6851 17.5766C41.1963 17.5766 41.6775 17.4481 42.1186 17.181C42.5596 16.914 42.9205 16.5778 43.2012 16.1723L46.6095 18.6348C45.8175 19.7226 44.9053 20.5236 43.8828 21.0181C42.8604 21.5125 41.6574 21.7598 40.2941 21.7598Z" fill="black" fill-opacity="0.88"/>
<path d="M62.6385 19.8609C61.8867 20.385 60.9344 20.84 59.7715 21.2059C58.6187 21.5718 57.3857 21.7596 56.0826 21.7596C54.2782 21.7596 52.7444 21.4333 51.4713 20.7806C50.1983 20.1279 49.2159 19.2181 48.5342 18.0413C47.8525 16.8744 47.5117 15.5294 47.5117 14.0065C47.5117 12.4638 47.8525 11.099 48.5242 9.91234C49.1958 8.72563 50.1281 7.78615 51.311 7.11368C52.4938 6.44121 53.8772 6.10498 55.461 6.10498C57.0048 6.10498 58.3581 6.43133 59.541 7.08402C60.7138 7.73671 61.6361 8.64652 62.2977 9.80356C62.9593 10.9606 63.2901 12.3253 63.2901 13.8878C63.2901 14.1054 63.2801 14.3229 63.25 14.5603C63.2199 14.7976 63.1898 15.035 63.1497 15.2921H52.6242C53.0953 17.0128 54.3884 17.8633 56.5136 17.8633C57.4659 17.8633 58.2979 17.7149 59.0297 17.4282C59.7615 17.1315 60.373 16.8447 60.8642 16.548L62.6385 19.8609ZM55.5813 9.79367C53.8972 9.79367 52.8948 10.6738 52.554 12.4242H58.308C58.1676 11.4649 57.8368 10.7925 57.3156 10.387C56.7943 9.99145 56.2129 9.79367 55.5813 9.79367Z" fill="black" fill-opacity="0.88"/>
<path d="M70.9877 13.156V21.374H65.8252V6.49066H70.5366L70.8073 8.44873C71.2985 7.74659 71.9401 7.18291 72.732 6.74778C73.5239 6.32254 74.396 6.10498 75.3383 6.10498C76.9823 6.10498 78.2955 6.62911 79.2879 7.68726C80.2803 8.74541 80.7715 10.2486 80.7715 12.2264V21.3839H75.609V12.8099C75.609 11.9297 75.4085 11.2869 75.0175 10.8617C74.6266 10.4464 74.0652 10.2288 73.3535 10.2288C72.6418 10.2288 72.0704 10.4562 71.6293 10.9013C71.2083 11.3562 70.9877 12.1077 70.9877 13.156Z" fill="black" fill-opacity="0.88"/>
<path d="M94.8466 20.4146C94.2351 20.82 93.5334 21.1464 92.7415 21.3936C91.9496 21.6408 91.1176 21.7595 90.2455 21.7595C88.6215 21.7595 87.3384 21.2947 86.376 20.3651C85.4137 19.4355 84.9426 18.1994 84.9426 16.6369V10.288H82.4766V6.48063H85.1731L85.8247 2.32715H90.0951V6.48063H94.0447V10.288H90.0951V15.9941C90.0951 16.4984 90.2454 16.894 90.5562 17.1808C90.867 17.4676 91.2679 17.606 91.7892 17.606C92.0498 17.606 92.3105 17.5566 92.5711 17.4577C92.8418 17.3588 93.0924 17.2401 93.3229 17.1017L94.8466 20.4146Z" fill="black" fill-opacity="0.88"/>
<path d="M102.165 15.6182V21.3836H97.002V6.49039H101.713L102.044 8.97259C102.365 8.17156 102.876 7.52876 103.598 7.02441C104.32 6.52995 105.152 6.28271 106.104 6.28271C106.635 6.28271 107.046 6.35194 107.317 6.49039V11.1383C107.096 11.0592 106.856 10.9999 106.595 10.9603C106.325 10.9208 106.024 10.901 105.693 10.901C104.661 10.901 103.819 11.2768 103.157 12.0284C102.495 12.7799 102.165 13.9765 102.165 15.6182Z" fill="black" fill-opacity="0.88"/>
<path d="M118.193 21.3837L117.922 19.4257C116.93 20.9882 115.426 21.7694 113.412 21.7694C112.519 21.7694 111.717 21.5815 110.996 21.1958C110.274 20.8201 109.702 20.2959 109.271 19.6333C108.85 18.9708 108.63 18.1994 108.63 17.3193C108.63 15.6579 109.291 14.3723 110.605 13.4526C111.918 12.5329 113.652 12.078 115.807 12.078C116.479 12.078 117.191 12.1373 117.943 12.256C117.862 11.5143 117.542 10.9506 116.98 10.5748C116.419 10.199 115.727 10.0012 114.915 10.0012C114.203 10.0012 113.482 10.1298 112.76 10.3968C112.038 10.6638 111.346 10.9803 110.695 11.3462L108.941 8.07282C109.933 7.44979 110.996 6.96522 112.148 6.62899C113.291 6.29275 114.444 6.11475 115.587 6.11475C116.97 6.11475 118.213 6.35209 119.326 6.81688C120.429 7.28168 121.301 7.9937 121.932 8.95296C122.564 9.91221 122.885 11.1187 122.885 12.5823V21.3936H118.193V21.3837ZM113.652 16.5479C113.652 16.9929 113.823 17.3588 114.153 17.6456C114.494 17.9324 114.925 18.0708 115.456 18.0708C116.168 18.0708 116.77 17.8335 117.251 17.3588C117.732 16.8841 117.973 16.2809 117.973 15.559V15.0645C117.441 14.9656 116.88 14.9162 116.278 14.9162C115.527 14.9162 114.895 15.0447 114.394 15.292C113.903 15.5491 113.652 15.9644 113.652 16.5479Z" fill="black" fill-opacity="0.88"/>
<path d="M126.122 21.3837V0.0229492H131.285V21.3837H126.122Z" fill="black" fill-opacity="0.88"/>
<path d="M137.65 21.7005C137.019 21.7005 136.437 21.5522 135.916 21.2456C135.395 20.9391 134.974 20.5336 134.673 20.0194C134.362 19.5051 134.212 18.9315 134.212 18.3085C134.212 17.6855 134.362 17.1119 134.673 16.5977C134.984 16.0834 135.395 15.6681 135.916 15.3714C136.437 15.0648 137.019 14.9165 137.65 14.9165C138.282 14.9165 138.863 15.0648 139.384 15.3714C139.906 15.678 140.327 16.0834 140.628 16.5977C140.938 17.1119 141.089 17.6855 141.089 18.3085C141.089 18.9315 140.938 19.5051 140.628 20.0194C140.317 20.5336 139.906 20.9489 139.384 21.2456C138.863 21.5522 138.282 21.7005 137.65 21.7005Z" fill="#009BFF"/>
</g>
<defs>
<clipPath id="clip0_1_15709">
<rect width="140.823" height="21.3608" fill="white" transform="translate(0.553711 0.319824)"/>
</clipPath>
</defs>
</svg>
