<svg width="120" height="32" viewBox="0 0 120 32" fill="none" xmlns="http://www.w3.org/2000/svg">
<g clip-path="url(#clip0_1_15722)">
<path d="M10.5849 0.258258C8.28584 1.2126 5.75838 3.90875 4.96012 7.293C3.9492 11.581 8.15614 13.3942 8.50119 12.7997C8.90732 12.1011 7.74736 11.8648 7.50859 9.64004C7.2 6.76653 8.54712 3.5557 10.2425 2.14688C10.5577 1.88514 10.5427 2.24944 10.5427 2.92329C10.5427 4.1283 10.4755 14.9457 10.4755 17.2033C10.4755 20.2582 10.3483 21.2228 10.1198 22.176C9.88824 23.142 9.51601 23.7947 9.79806 24.0461C10.1132 24.3274 11.4587 23.6584 12.2376 22.5803C13.1716 21.2873 13.4986 19.7345 13.5573 18.0482C13.6282 16.0154 13.6252 12.7898 13.6282 10.9499C13.631 9.26249 13.6569 4.3213 13.5984 1.35083C13.584 0.622238 11.5464 -0.142165 10.5848 0.257371M92.2254 14.5546C92.1513 16.1427 91.7968 17.3841 91.3568 18.2597C90.5051 19.9547 88.7376 20.4811 87.9872 18.0443C87.5783 16.7161 87.5592 14.4977 87.8532 12.6442C88.1525 10.7559 88.9882 9.32986 90.3719 9.45847C91.7368 9.5856 92.3757 11.3297 92.2254 14.5546ZM69.2157 24.4078C69.1972 27.0465 68.7784 29.3602 67.8803 30.0322C66.6066 30.985 64.8946 30.2703 65.2491 28.3447C65.5627 26.6408 67.0462 24.9007 69.2193 22.7745C69.2193 22.7745 69.2238 23.2594 69.2157 24.4078ZM68.8678 14.5392C68.7899 15.9857 68.4118 17.4388 67.9992 18.2599C67.1477 19.9549 65.3674 20.4848 64.6297 18.0445C64.1252 16.3772 64.246 14.2193 64.4956 12.8596C64.8195 11.0955 65.6045 9.45885 67.0144 9.45885C68.3851 9.45885 69.0611 10.9501 68.8678 14.5392ZM55.5383 14.5171C55.4547 16.0491 55.1534 17.3297 54.6697 18.2599C53.7947 19.9433 52.0636 20.4771 51.3001 18.0445C50.7498 16.2905 50.9371 13.8987 51.1661 12.6067C51.5058 10.6894 52.3566 9.33004 53.6849 9.45885C55.0492 9.59103 55.7124 11.3297 55.5383 14.5171ZM116.625 16.3065C116.291 16.3065 116.139 16.6474 116.013 17.2213C115.576 19.2166 115.117 19.6671 114.525 19.6671C113.864 19.6671 113.269 18.6791 113.117 16.7014C112.997 15.1462 113.016 12.2831 113.169 9.43505C113.201 8.84989 113.038 8.27091 111.455 7.70075C110.774 7.4555 109.784 7.09439 109.291 8.27429C107.899 11.6077 107.354 14.2542 107.226 15.3293C107.219 15.3849 107.15 15.3963 107.138 15.2663C107.057 14.4052 106.874 12.8405 106.851 9.553C106.847 8.91158 106.71 8.3656 105.996 7.91861C105.533 7.62857 104.126 7.11558 103.619 7.72586C103.181 8.22498 102.672 9.56817 102.144 11.1604C101.715 12.4544 101.416 13.3299 101.416 13.3299C101.416 13.3299 101.422 9.83817 101.427 8.51371C101.429 8.01405 101.084 7.84755 100.979 7.81737C100.51 7.68236 99.5862 7.45682 99.1939 7.45682C98.7099 7.45682 98.5913 7.72512 98.5913 8.11605C98.5913 8.16723 98.515 12.7132 98.515 15.8919C98.515 16.03 98.5149 16.1807 98.5164 16.3407C98.2486 17.8017 97.3804 19.7849 96.4362 19.7849C95.4909 19.7849 95.0449 18.9558 95.0449 15.1662C95.0449 12.9555 95.1118 11.9942 95.1447 10.3953C95.1638 9.47432 95.2007 8.76709 95.1986 8.6066C95.1916 8.11443 94.3334 7.86637 93.9341 7.7747C93.5329 7.68225 93.1843 7.64644 92.912 7.66181C92.5267 7.68338 92.254 7.93406 92.254 8.27886C92.254 8.46373 92.2562 8.81528 92.2562 8.81528C91.7599 8.04187 90.9616 7.50357 90.4305 7.34758C89 6.92629 87.5073 7.29958 86.3814 8.86197C85.4866 10.1034 84.9472 11.5094 84.7348 13.5294C84.5796 15.0062 84.6303 16.5038 84.9061 17.7703C84.5728 19.1994 83.954 19.7849 83.2764 19.7849C82.2926 19.7849 81.5795 18.1926 81.6623 15.4388C81.7169 13.6276 82.0824 12.3565 82.4819 10.5175C82.6522 9.73361 82.5138 9.32319 82.1667 8.92983C81.8483 8.5691 81.17 8.3848 80.1947 8.61148C79.5001 8.77309 78.5069 8.94689 77.5982 9.08039C77.5982 9.08039 77.6531 8.86346 77.6981 8.48098C77.9344 6.47518 75.7365 6.63792 75.0352 7.27858C74.6166 7.66107 74.3317 8.11218 74.2236 8.92328C74.0521 10.2104 75.1107 10.8175 75.1107 10.8175C74.7633 12.3941 73.912 14.4538 73.033 15.9428C72.5622 16.7406 72.202 17.3318 71.7371 17.9603C71.7354 17.7262 71.7341 17.4923 71.7333 17.2594C71.7226 13.9447 71.7671 11.3359 71.7868 10.3956C71.8059 9.47464 71.8431 8.78616 71.841 8.62567C71.8358 8.26568 71.6238 8.12975 71.1829 7.95762C70.793 7.80539 70.3321 7.70001 69.8539 7.66326C69.2504 7.61658 68.8868 7.93401 68.8963 8.30937C68.8981 8.38024 68.8981 8.81542 68.8981 8.81542C68.4018 8.042 67.6036 7.50371 67.0725 7.34771C65.642 6.9266 64.1493 7.2999 63.0234 8.8621C62.1287 10.1035 61.5428 11.8455 61.3768 13.5142C61.2221 15.0694 61.2507 16.3911 61.4615 17.5044C61.234 18.6193 60.5801 19.7851 59.8406 19.7851C58.8953 19.7851 58.3574 18.9559 58.3574 15.1664C58.3574 12.9556 58.4243 11.9944 58.4572 10.3956C58.4763 9.47464 58.5132 8.76723 58.5111 8.60692C58.5041 8.11475 57.6459 7.8667 57.2466 7.77483C56.8287 7.67902 56.468 7.64377 56.191 7.66401C55.8255 7.69101 55.5686 8.01557 55.5686 8.25762V8.81542C55.0723 8.042 54.274 7.50371 53.7429 7.34771C52.3125 6.9266 50.8281 7.30591 49.6939 8.8621C48.9542 9.87681 48.3554 11.0018 48.0472 13.4921C47.9582 14.2117 47.9189 14.8856 47.924 15.5155C47.629 17.3042 46.3263 19.3658 45.2607 19.3658C44.6372 19.3658 44.0433 18.1665 44.0433 15.6104C44.0433 12.2055 44.2558 7.35765 44.2918 6.89042C44.2918 6.89042 45.6381 6.86774 45.8989 6.86473C46.5704 6.85741 47.1787 6.87317 48.0731 6.82779C48.5218 6.80511 48.954 5.20841 48.491 5.0108C48.2811 4.92137 46.7979 4.843 46.2099 4.83062C45.7155 4.81951 44.339 4.7185 44.339 4.7185C44.339 4.7185 44.4625 1.50073 44.4912 1.16082C44.5156 0.877512 44.146 0.731647 43.9341 0.643138C43.4187 0.426964 42.9575 0.323461 42.4109 0.211717C41.6558 0.0572305 41.3132 0.208342 41.2463 0.840381C41.1455 1.79961 41.0933 4.60919 41.0933 4.60919C40.5391 4.60919 38.6462 4.50176 38.0918 4.50176C37.5768 4.50176 37.0209 6.69824 37.733 6.72523C38.5522 6.75674 39.9799 6.78393 40.9263 6.81224C40.9263 6.81224 40.8842 11.7399 40.8842 13.2613C40.8842 13.4231 40.8856 13.579 40.8859 13.7302C40.365 16.4226 38.5303 17.877 38.5303 17.877C38.9243 16.0958 38.1194 14.7582 36.6697 13.626C36.1355 13.2087 35.0811 12.4188 33.9013 11.5532C33.9013 11.5532 34.5846 10.8854 35.1906 9.5418C35.6199 8.59009 35.6385 7.50093 34.5846 7.26076C32.8433 6.86364 31.4075 8.13184 30.9792 9.48574C30.6474 10.5346 30.8244 11.3129 31.4744 12.1213C31.5219 12.1804 31.5733 12.2408 31.6264 12.3015C31.2334 13.0528 30.6934 14.0644 30.236 14.8488C28.9666 17.0267 28.0077 18.7494 27.283 18.7494C26.7036 18.7494 26.7114 17.0004 26.7114 15.3629C26.7114 13.9512 26.8165 11.8288 26.9005 9.63142C26.9283 8.9047 26.5618 8.4907 25.9476 8.11572C25.5743 7.88792 24.7778 7.44 24.3165 7.44C23.626 7.44 21.6338 7.53318 19.7514 12.9328C19.5142 13.6134 19.0481 14.8535 19.0481 14.8535L19.0883 8.36021C19.0883 8.20797 19.0065 8.06079 18.8193 7.9601C18.5021 7.7893 17.6549 7.44 16.9015 7.44C16.5426 7.44 16.3635 7.60556 16.3635 7.93554L16.2978 18.0943C16.2978 18.8662 16.3181 19.7666 16.395 20.1605C16.4717 20.5548 16.5959 20.8756 16.7498 21.0665C16.9034 21.2569 17.0811 21.4023 17.3741 21.4622C17.6467 21.5179 19.1399 21.708 19.2175 21.1422C19.3105 20.4641 19.314 19.7306 20.0981 16.995C21.3187 12.7361 22.9101 10.6581 23.6582 9.92016C23.789 9.79117 23.9384 9.78347 23.9312 9.99459C23.8993 10.9283 23.787 13.2615 23.7113 15.2437C23.5087 20.5482 24.4818 21.5314 25.8724 21.5314C26.9363 21.5314 28.436 20.4831 30.0436 17.8296C31.0459 16.1759 32.019 14.5544 32.7182 13.3858C33.2054 13.8331 33.7522 14.3145 34.2986 14.8288C35.5684 16.0239 35.9853 17.1595 35.7087 18.2368C35.4971 19.0604 34.7004 19.9092 33.2824 19.0842C32.8691 18.8435 32.6927 18.6576 32.2771 18.3862C32.0538 18.2405 31.7129 18.1969 31.5085 18.3496C30.9776 18.7466 30.674 19.2515 30.5006 19.8766C30.332 20.4848 30.9463 20.8064 31.583 21.0876C32.1313 21.3296 33.3098 21.549 34.0614 21.574C36.9897 21.6711 39.3354 20.1719 40.9684 16.3047C41.2607 19.6445 42.5048 21.5344 44.6662 21.5344C46.1113 21.5344 47.5601 19.6821 48.1937 17.8599C48.3756 18.6027 48.6448 19.2486 48.9925 19.7948C50.658 22.4117 53.889 21.8485 55.512 19.6263C56.0138 18.9397 56.0901 18.693 56.0901 18.693C56.3268 20.7912 58.0307 21.5243 59.0063 21.5243C60.099 21.5243 61.2271 21.0121 62.0178 19.2468C62.1105 19.4384 62.2116 19.6214 62.322 19.7948C63.9875 22.4116 67.2185 21.8484 68.8415 19.6263C68.9181 19.522 68.9844 19.4275 69.0425 19.3426L69.0901 20.7208C69.0901 20.7208 68.1643 21.5631 67.5959 22.0798C65.0945 24.3556 63.1925 26.0822 63.0526 28.0929C62.873 30.6567 64.9698 31.6095 66.556 31.7344C68.2406 31.8669 69.6832 30.9441 70.57 29.6526C71.3499 28.5159 71.8604 26.0693 71.8229 23.6529C71.808 22.6852 71.7834 21.4549 71.7641 20.136C72.6433 19.1236 73.6338 17.8439 74.5459 16.3461C75.5398 14.7137 76.605 12.5216 77.1505 10.8156C77.1505 10.8156 78.076 10.8234 79.0637 10.7593C79.3796 10.7389 79.4704 10.8028 79.412 11.0325C79.3414 11.31 78.1641 15.8132 79.2386 18.8131C79.9741 20.8667 81.632 21.5274 82.615 21.5274C83.7656 21.5274 84.8664 20.6657 85.4563 19.3861C85.5274 19.5287 85.6017 19.6668 85.6828 19.7942C87.3483 22.4111 90.568 21.8445 92.2023 19.6257C92.5711 19.1251 92.7804 18.6924 92.7804 18.6924C93.1312 20.8639 94.8341 21.5347 95.8095 21.5347C96.8256 21.5347 97.7898 21.1217 98.5722 19.286C98.6049 20.0942 98.6563 20.7551 98.7376 20.9635C98.7872 21.0909 99.0759 21.2509 99.2859 21.3282C100.215 21.67 101.163 21.5083 101.514 21.438C101.757 21.3893 101.946 21.196 101.972 20.6968C102.04 19.3863 101.999 17.1843 102.399 15.5479C103.072 12.8015 103.699 11.7362 103.997 11.2087C104.163 10.9132 104.351 10.8645 104.358 11.1772C104.372 11.81 104.404 13.6683 104.664 16.1649C104.856 18.0011 105.111 19.0865 105.308 19.4299C105.868 20.4122 106.561 20.4587 107.125 20.4587C107.483 20.4587 108.233 20.3605 108.166 19.7354C108.133 19.4307 108.191 17.5477 108.854 14.842C109.287 13.0751 110.009 11.4785 110.269 10.8949C110.365 10.6796 110.41 10.8493 110.408 10.8823C110.353 12.0992 110.23 16.0793 110.73 18.2561C111.408 21.205 113.368 21.535 114.051 21.535C115.509 21.535 116.702 20.4349 117.104 17.5404C117.201 16.8439 117.057 16.306 116.628 16.306" fill="black" fill-opacity="0.88"/>
</g>
<defs>
<clipPath id="clip0_1_15722">
<rect width="119.136" height="31.6456" fill="white" transform="translate(0.863281 0.177246)"/>
</clipPath>
</defs>
</svg>
