<svg width="157" height="26" viewBox="0 0 157 26" fill="none" xmlns="http://www.w3.org/2000/svg">
<g clip-path="url(#clip0_1_15697)">
<path d="M20.999 0.395508L13.6594 13.3481L6.31983 0.395508H6.29352H0.164062V25.6317H6.29352V12.8932L11.397 21.8851L12.3177 23.4908H15.001L16.1585 21.4034L20.999 12.8932V25.6317H27.1284V0.395508H20.999Z" fill="black" fill-opacity="0.88"/>
<path d="M42.2283 16.4785C42.2283 14.5785 41.0445 13.1601 39.3345 13.1601C37.5457 13.1601 36.3356 14.7123 36.3356 16.4785C36.3356 18.3251 37.5457 19.797 39.3345 19.797C41.0445 19.797 42.2283 18.3786 42.2283 16.4785ZM29.8115 16.5321C29.8115 11.0192 33.5208 7.29932 37.2826 7.29932C39.887 7.29932 41.5443 8.66416 42.5177 10.029L43.1227 7.78102H48.6208V25.1493H43.1227L42.5177 22.9013C41.5443 24.2929 39.887 25.631 37.2826 25.631C33.5208 25.6578 29.8115 21.9379 29.8115 16.5321Z" fill="black" fill-opacity="0.88"/>
<path d="M64.5625 8.53035V13.8291C63.3524 13.1333 61.1426 12.4911 59.2748 12.4911C58.1962 12.4911 57.6175 12.7052 57.6175 13.1333C57.6175 13.5615 58.2226 13.8291 59.8799 14.2038C62.8262 14.8461 65.7726 15.9165 65.7726 19.6899C65.7726 23.3295 62.9578 25.631 57.828 25.631C55.1973 25.631 53.0401 25.0155 51.5933 24.2126V18.5392C53.1454 19.5829 55.0131 20.4393 57.5386 20.4393C58.8013 20.4393 59.5379 20.2252 59.5379 19.7435C59.5379 19.1815 58.6171 18.9941 56.5652 18.4589C53.9346 17.7631 51.3828 16.4518 51.3828 13.1869C51.3828 9.78814 54.1187 7.29932 58.9591 7.29932C60.9848 7.29932 63.1419 7.75426 64.5625 8.53035Z" fill="black" fill-opacity="0.88"/>
<path d="M74.7692 9.1196C75.7163 8.10266 77.2947 7.27305 79.1624 7.27305C82.7928 7.27305 85.0552 9.52102 85.0552 13.4282V25.0963H78.5574V15.141C78.5574 13.7226 77.9523 13.1071 76.7685 13.1071C75.5321 13.1071 74.7692 13.9367 74.7692 15.0339V25.0695H68.2715V0.341797H74.7692V9.1196Z" fill="black" fill-opacity="0.88"/>
<path d="M99.6814 16.4785C99.6814 14.5785 98.4976 13.1601 96.7877 13.1601C94.9988 13.1601 93.7887 14.7123 93.7887 16.4785C93.7887 18.3251 94.9988 19.797 96.7877 19.797C98.4976 19.797 99.6814 18.3786 99.6814 16.4785ZM87.2646 16.5321C87.2646 11.0192 90.9739 7.29932 94.7357 7.29932C97.3401 7.29932 98.9974 8.66416 99.9708 10.029L100.576 7.78102H106.074V25.1493H100.576L99.9708 22.9013C98.9974 24.2929 97.3401 25.631 94.7357 25.631C90.9739 25.6578 87.2646 21.9379 87.2646 16.5321Z" fill="black" fill-opacity="0.88"/>
<path d="M115.729 16.4255C115.729 18.3523 116.913 19.7439 118.623 19.7439C120.386 19.7439 121.596 18.2988 121.596 16.4523C121.596 14.6325 120.386 13.1071 118.597 13.1071C116.887 13.1071 115.729 14.5254 115.729 16.4255ZM115.782 9.92244C116.755 8.45056 118.755 7.27305 120.859 7.27305C124.779 7.27305 128.12 10.8591 128.12 16.4255C128.12 21.9919 124.49 25.578 120.57 25.578C118.097 25.578 116.387 24.2131 115.44 22.8483L114.835 25.0963H109.337V0.341797H115.808L115.782 9.92244Z" fill="black" fill-opacity="0.88"/>
<path d="M137.063 0.341797H130.592V25.0963H137.063V0.341797Z" fill="black" fill-opacity="0.88"/>
<path d="M150.48 14.579C150.453 13.3748 149.664 12.3311 148.27 12.3311C147.007 12.3311 145.955 13.1874 145.508 14.579H150.48ZM156.425 18.2186H145.744C146.56 19.8778 148.428 20.6539 150.453 20.6539C152.295 20.6539 153.926 20.0384 155.425 19.3694V24.4006C153.663 25.2569 151.69 25.6851 149.532 25.6851C143.008 25.6851 139.457 21.7779 139.457 16.5326C139.457 11.1 143.271 7.32666 148.296 7.32666C152.847 7.32666 156.556 10.4042 156.556 16.2383C156.583 16.8805 156.53 17.5496 156.425 18.2186Z" fill="black" fill-opacity="0.88"/>
</g>
<defs>
<clipPath id="clip0_1_15697">
<rect width="156.42" height="25.3165" fill="white" transform="translate(0.164062 0.341797)"/>
</clipPath>
</defs>
</svg>
