<svg width="115" height="28" viewBox="0 0 115 28" fill="none" xmlns="http://www.w3.org/2000/svg">
<path d="M9.11061 7.7897H11.8529C13.2993 7.7897 14.3541 8.49507 14.3541 9.93647V10.4578C14.4143 11.7766 13.45 12.8806 12.1542 12.9726C12.0337 12.9726 11.9131 12.9726 11.8227 12.9726H9.14074V7.7897H9.11061ZM35.3882 17.0208H31.5912L33.4294 9.9058L35.3882 17.0208ZM60.5507 13.8313C60.8521 16.4381 58.9837 18.7996 56.4223 19.0756C56.0004 19.1369 55.5785 19.1062 55.1566 19.0449H54.584V9.01643H55.1566C58.6221 9.01643 60.5206 10.4885 60.5206 13.77M79.7767 17.0208H76.8838L78.3303 9.9058L79.7767 17.0208ZM99.4246 7.7897H102.107C103.523 7.7897 104.457 8.4644 104.457 9.93647V10.6112C104.548 11.8379 103.613 12.9113 102.408 13.0033C102.318 13.0033 102.227 13.0033 102.107 13.0033H99.4246V7.7897ZM113.859 27.1106L108.827 18.4009C111.629 16.5915 113.287 13.3713 113.136 9.9978C113.226 7.57502 112.383 5.21358 110.785 3.37349C108.495 1.07338 105.331 -0.06134 102.137 0.245341H90.4445V22.3877L82.6395 0.245341L82.4587 0H74.1717L74.021 0.245341L69.109 14.0767V13.7393C69.3501 10.0898 68.1146 6.50164 65.6737 3.83352C62.7204 1.16539 58.8632 -0.153348 54.9155 0.184001H45.8148V22.3264L37.799 0.245341L37.6483 0H29.2708L29.1503 0.245341L21.044 22.7251L18.5729 18.2782C21.4056 16.4688 23.0932 13.2793 22.9726 9.87513C23.063 7.45235 22.2193 5.0909 20.6221 3.25081C18.3017 0.981373 15.1376 -0.153343 11.9433 0.122671H0.250977V28H8.95994V18.0635L13.902 27.5706V27.9693H28.3969L28.5174 27.54L29.5721 24.2278H36.8346L37.9195 27.54L38.04 27.9693H54.5238C58.5016 28.1533 62.389 26.6813 65.312 23.8905C65.312 23.8905 65.4326 23.6758 65.4928 23.6145L64.2573 27.1413L63.9861 27.9387H73.3279V27.5093L74.3826 24.1972H81.615L82.6998 27.5093V27.9387H99.063V18.0329L103.945 27.54V27.9387H114.251L113.859 27.1106Z" fill="black" fill-opacity="0.88"/>
</svg>
