<svg width="111" height="32" viewBox="0 0 111 32" fill="none" xmlns="http://www.w3.org/2000/svg">
<g clip-path="url(#clip0_1_15688)">
<path d="M21.6141 11.6005C23.6855 13.0604 26.2231 13.9193 28.9639 13.9193V8.7196C28.4452 8.71971 27.9278 8.66638 27.4204 8.56038V12.6533C24.6799 12.6533 22.1426 11.7943 20.0706 10.3346V20.9457C20.0706 26.254 15.706 30.5568 10.3223 30.5568C8.31357 30.5568 6.44649 29.9581 4.89551 28.9312C6.6657 30.7157 9.13437 31.8227 11.8655 31.8227C17.2495 31.8227 21.6143 27.5199 21.6143 22.2114V11.6005H21.6141ZM23.5182 6.35459C22.4596 5.21433 21.7645 3.74076 21.6141 2.11167V1.44287H20.1514C20.5196 3.51345 21.7754 5.28243 23.5182 6.35459ZM8.30069 24.8578C7.70923 24.0932 7.38961 23.1579 7.39104 22.1962C7.39104 19.7684 9.38738 17.7999 11.8503 17.7999C12.3093 17.7998 12.7656 17.8691 13.203 18.006V12.69C12.6918 12.6209 12.1759 12.5916 11.6602 12.6024V16.7401C11.2224 16.6032 10.7659 16.5337 10.3068 16.5341C7.84388 16.5341 5.84765 18.5024 5.84765 20.9305C5.84765 22.6474 6.84549 24.1338 8.30069 24.8578Z" fill="#FF004F"/>
<path d="M20.0707 10.3345C22.1427 11.7942 24.6799 12.6532 27.4204 12.6532V8.56027C25.8907 8.23901 24.5365 7.45086 23.5182 6.35459C21.7754 5.28232 20.5197 3.51334 20.1515 1.44287H16.3094V22.2112C16.3007 24.6324 14.3078 26.5928 11.8502 26.5928C10.4019 26.5928 9.11527 25.9122 8.30042 24.8578C6.84533 24.1337 5.84749 22.6473 5.84749 20.9306C5.84749 18.5027 7.84372 16.5342 10.3067 16.5342C10.7786 16.5342 11.2334 16.6067 11.66 16.7402V12.6025C6.37091 12.7102 2.11719 16.9711 2.11719 22.2113C2.11719 24.8272 3.17646 27.1986 4.89568 28.9313C6.44666 29.9581 8.31374 30.5569 10.3225 30.5569C15.7063 30.5569 20.0708 26.2539 20.0708 20.9457V10.3345H20.0707Z" fill="black" fill-opacity="0.88"/>
<path d="M27.4199 8.55996V7.45327C26.0404 7.45533 24.6881 7.07445 23.5177 6.35417C24.5537 7.47249 25.918 8.24359 27.4199 8.55996ZM20.1509 1.44256C20.1158 1.24468 20.0888 1.0455 20.0701 0.845555V0.176758H14.7653V20.9453C14.7568 23.3661 12.764 25.3266 10.3061 25.3266C9.58451 25.3266 8.9032 25.1577 8.29986 24.8576C9.11471 25.9119 10.4013 26.5924 11.8496 26.5924C14.307 26.5924 16.3003 24.6322 16.3089 22.211V1.44256H20.1509ZM11.6597 12.6022V11.424C11.2164 11.3643 10.7695 11.3343 10.3221 11.3345C4.93783 11.3344 0.573242 15.6375 0.573242 20.9453C0.573242 24.273 2.2886 27.2057 4.89523 28.9308C3.17601 27.1982 2.11674 24.8267 2.11674 22.2109C2.11674 16.9708 6.37035 12.7099 11.6597 12.6022Z" fill="#00F2EA"/>
<path d="M88.8868 26.2057C92.7391 26.2057 95.8621 23.15 95.8621 19.3809C95.8621 15.612 92.7391 12.5557 88.8868 12.5557H87.8359C91.6883 12.5557 94.8113 15.6118 94.8113 19.3809C94.8113 23.15 91.6883 26.2057 87.8359 26.2057H88.8868Z" fill="#FF004F"/>
<path d="M87.7414 12.5557H86.6906C82.8384 12.5557 79.7148 15.6118 79.7148 19.3809C79.7148 23.15 82.8384 26.2057 86.6906 26.2057H87.7414C83.8886 26.2057 80.7656 23.15 80.7656 19.3809C80.7655 15.612 83.8886 12.5557 87.7414 12.5557Z" fill="#00F2EA"/>
<path d="M34.7109 9.4707V12.9301H38.8189V26.1121H42.9285V13.0235H46.2725L47.419 9.47081L34.7109 9.4707ZM68.3446 9.4707V12.9301H72.4525V26.1121H76.5621V13.0235H79.906L81.0524 9.47081L68.3446 9.4707ZM48.1841 11.4339C48.1841 10.3499 49.081 9.4707 50.189 9.4707C51.2981 9.4707 52.196 10.3499 52.196 11.4339C52.196 12.518 51.2986 13.3971 50.189 13.3971C49.081 13.3966 48.1841 12.518 48.1841 11.4339ZM48.1841 14.7999H52.196V26.1121H48.1841V14.7999ZM53.9162 9.4707V26.112H57.9295V21.8118L59.1718 20.689L63.0888 26.2054H67.3882L61.7503 18.1653L66.8146 13.3032H61.9418L57.9295 17.2296V9.4707H53.9162ZM97.1995 9.4707V26.112H101.213V21.8118L102.455 20.689L106.373 26.2054H110.673L105.035 18.1653L110.099 13.3032H105.227L101.213 17.2296V9.4707H97.1995Z" fill="black" fill-opacity="0.88"/>
<path d="M87.8363 26.2057C91.6885 26.2057 94.812 23.15 94.812 19.3809C94.812 15.612 91.6885 12.5557 87.8363 12.5557H87.741C83.8886 12.5557 80.7656 15.6118 80.7656 19.3809C80.7656 23.15 83.8886 26.2057 87.741 26.2057H87.8363ZM84.3965 19.3809C84.3965 17.5475 85.9159 16.0625 87.7895 16.0625C89.6617 16.0625 91.181 17.5475 91.181 19.3809C91.181 21.2143 89.6617 22.7002 87.7895 22.7002C85.9159 22.6999 84.3965 21.2143 84.3965 19.3809Z" fill="black" fill-opacity="0.88"/>
</g>
<defs>
<clipPath id="clip0_1_15688">
<rect width="110.1" height="31.6456" fill="white" transform="translate(0.576172 0.177246)"/>
</clipPath>
</defs>
</svg>
