<svg width="168" height="26" viewBox="0 0 168 26" fill="none" xmlns="http://www.w3.org/2000/svg">
<g clip-path="url(#clip0_1_15678)">
<path d="M25.0164 13C25.0164 19.991 19.4166 25.6583 12.5075 25.6583C5.59978 25.6583 0 19.991 0 13C0 6.00907 5.59978 0.341797 12.5075 0.341797C19.4166 0.341797 25.0164 6.00907 25.0164 13Z" fill="#00ABE6"/>
<path d="M36.7057 18.4327C34.7369 18.4327 33.6381 17.2135 33.6381 15.0628V4.146H28.7578V15.0346C28.7578 19.8157 31.6414 22.5477 36.7057 22.5477C41.7701 22.5477 44.6536 19.8157 44.6536 15.0346V4.146H39.7733V15.0628C39.7733 17.2135 38.6746 18.4327 36.7057 18.4327Z" fill="black" fill-opacity="0.88"/>
<path d="M53.2674 22.5473C57.5453 22.5473 60.3508 20.2386 60.3508 16.8123C60.3508 14.3681 58.9062 12.4828 55.0745 11.4216L53.7359 11.0491C51.8228 10.5185 51.1145 9.93705 51.1145 9.0847C51.1145 8.18155 51.9009 7.67917 53.2897 7.67917C54.9741 7.67917 56.7812 8.63313 58.0417 9.72256L60.4791 6.61797C58.566 4.86247 55.9948 3.80127 53.2674 3.80127C49.1457 3.80127 46.2621 6.05915 46.2621 9.53629C46.2621 12.2175 47.9911 13.973 51.1926 14.8197L52.2969 15.1132C54.6841 15.7511 55.4984 16.2309 55.4984 17.1848C55.4984 18.167 54.6562 18.6694 53.2395 18.6694C51.1424 18.6694 49.4078 17.9017 47.9911 16.626L45.6318 19.629C47.6007 21.4861 50.356 22.5473 53.2674 22.5473Z" fill="black" fill-opacity="0.88"/>
<path d="M74.2786 22.2034H79.2425L72.7057 4.146H67.039L60.5078 22.2034H65.3323L66.4645 18.8335H73.1519L74.2786 22.2034ZM67.6972 15.1644L69.8222 8.84802L71.9193 15.1644H67.6972Z" fill="black" fill-opacity="0.88"/>
<path d="M88.657 22.2034H93.5373V8.13115H98.8415V4.146H83.3584V8.13115H88.657V22.2034Z" fill="black" fill-opacity="0.88"/>
<path d="M107.984 22.5473C113.333 22.5473 117.243 18.6976 117.243 13.1997C117.243 7.7074 113.333 3.80127 107.984 3.80127C102.63 3.80127 98.7197 7.7074 98.7197 13.1997C98.7197 18.6976 102.63 22.5473 107.984 22.5473ZM107.984 18.4605C105.441 18.4605 103.678 16.3325 103.678 13.1997C103.678 10.0669 105.441 7.89368 107.984 7.89368C110.527 7.89368 112.284 10.0669 112.284 13.1997C112.284 16.3325 110.527 18.4605 107.984 18.4605Z" fill="black" fill-opacity="0.88"/>
<path d="M118.93 22.2034H125.957C131.234 22.2034 134.987 18.4835 134.987 13.1775C134.987 7.86585 131.234 4.146 125.957 4.146H118.93V22.2034ZM123.732 18.3029V8.05212H125.957C128.529 8.05212 130.107 10.0955 130.107 13.1775C130.107 16.2539 128.529 18.3029 125.957 18.3029H123.732Z" fill="black" fill-opacity="0.88"/>
<path d="M147.858 22.2034H152.822L146.285 4.146H140.618L134.087 22.2034H138.911L140.044 18.8335H146.731L147.858 22.2034ZM141.276 15.1644L143.401 8.84802L145.498 15.1644H141.276Z" fill="black" fill-opacity="0.88"/>
<path d="M160.771 15.7007L167.09 4.146H161.585L158.305 11.3147L154.998 4.146H149.487L155.812 15.7007V22.2034H160.771V15.7007Z" fill="black" fill-opacity="0.88"/>
</g>
<defs>
<clipPath id="clip0_1_15678">
<rect width="167.089" height="25.3165" fill="white" transform="translate(0 0.341797)"/>
</clipPath>
</defs>
</svg>
