<svg width="375" height="296" viewBox="0 0 375 296" fill="none" xmlns="http://www.w3.org/2000/svg">
<path d="M116.086 226.985C116.086 225.741 114.221 223.627 108.999 221.389C104.771 219.648 99.5484 218.405 96.0668 218.405L62.9915 218.405L29.6675 161.95C27.4294 157.225 23.4504 154.489 19.4714 154.489L15.9898 154.489L36.6308 218.405L27.4294 218.405C26.4346 218.405 21.4609 218.405 17.9793 218.405C15.9898 218.405 14.1246 218.529 12.1351 218.778L-11.117 221.638L-23.5514 198.509L-28.5251 198.509L-28.5251 255.461L-23.5514 255.461L-10.9927 232.207L12.2595 235.067C14.249 235.316 16.1141 235.44 18.1036 235.44C21.5852 235.44 26.6833 235.565 27.5537 235.44L36.7551 235.44L16.1141 299.356L19.5957 299.356C23.5747 299.356 27.5537 296.62 29.6675 292.019L63.1159 235.44L96.0668 235.565C99.5484 235.565 104.895 234.446 108.999 232.58C114.345 230.466 116.086 228.228 116.086 226.985Z" fill="#E2EAFA"/>
<g clip-path="url(#clip0_4150_4466)">
<path d="M485.405 244.553C455.669 238.374 419.29 231.752 393.379 241.78C305.072 275.921 331.553 389.988 331.632 390.259C331.547 389.932 331.53 389.764 331.524 389.708" stroke="#DDEAFB" stroke-width="1.27676" stroke-linecap="round" stroke-linejoin="round"/>
<path d="M262.863 360.706C263.037 312.971 282.087 261.844 295.708 239.302C312.732 211.097 337.009 188.245 367.832 171.323C407.561 149.549 457.414 159.873 497.445 168.197C513.074 171.468 527.858 174.487 539.309 174.95C565.853 175.984 593.756 171.367 620.003 161.623C650.634 150.263 679.023 132.054 703.485 108.03C731.854 80.2488 755.38 44.7026 773.384 2.24962C793.78 -45.7483 807.189 -102.963 813.325 -167.693" stroke="#DDEAFB" stroke-width="1.27676" stroke-linecap="round" stroke-linejoin="round"/>
<path d="M323.884 260.058C323.001 261.408 322.169 262.749 321.342 264.147C310.518 282.099 303.268 302.964 299.842 326.186C293.932 366.425 301.456 399.601 301.541 399.928" stroke="#DDEAFB" stroke-width="1.27676" stroke-linecap="round" stroke-linejoin="round"/>
<path d="M109.095 227.759C111.192 204.539 116.183 181.616 123.887 159.703C131.392 138.337 141.47 118.121 153.828 99.6743C166.052 81.4221 180.418 65.0779 196.568 51.1597C212.813 37.168 230.766 25.8435 249.809 17.6356" stroke="#DDEAFB" stroke-width="1.27676" stroke-linecap="round" stroke-linejoin="round"/>
<path d="M114.646 320.44C116.128 284.846 122.441 249.495 133.4 215.561C143.974 182.833 158.877 151.919 177.655 123.865C196.167 96.2002 218.282 71.7281 243.289 51.4844C268.675 30.947 296.686 15.0264 326.27 4.41835" stroke="#DDEAFB" stroke-width="1.27676" stroke-linecap="round" stroke-linejoin="round"/>
<path d="M150.548 408.933C150.548 408.933 112.204 182.706 273.669 70.3183C392.012 -12.0692 471.897 19.6572 521.572 19.8667C579.943 20.1052 684.509 27.9398 685.461 -174.845" stroke="#DDEAFB" stroke-width="1.27676" stroke-linecap="round" stroke-linejoin="round"/>
<path d="M342.491 70.7371C319.464 79.9787 297.529 92.8495 277.455 108.874C257.626 124.799 240.047 143.696 225.562 165.304C211.121 186.848 199.609 211.987 191.221 239.148C182.833 266.31 177.475 295.567 175.341 325.347C174.116 342.365 173.928 359.405 174.774 376.332" stroke="#DDEAFB" stroke-width="1.27676" stroke-linecap="round" stroke-linejoin="round"/>
<path d="M364.755 329.849C366.533 319.851 370.328 310.073 376.748 300.465C383.08 290.988 390.109 284.296 397.721 279.782C405.334 275.269 413.568 272.813 422.26 271.817C430.953 270.821 440.203 271.266 449.893 272.491C459.582 273.715 469.653 275.671 480.139 277.67C492.821 280.141 505.916 282.655 519.371 284.195C532.825 285.735 546.672 286.123 560.813 284.409" stroke="#DDEAFB" stroke-width="1.27676" stroke-linecap="round" stroke-linejoin="round"/>
<path d="M629.052 200.632C599.453 211.584 567.883 216.838 537.847 215.669C524.19 215.134 508.355 211.842 491.631 208.362C455.886 200.946 402.761 184.693 358.363 223.122" stroke="#DDEAFB" stroke-width="1.27676" stroke-linecap="round" stroke-linejoin="round"/>
<path d="M243.165 283.021C260.834 207.683 309.277 127.799 434.503 122.301C459.191 121.206 482.825 128.217 503.674 132.519" stroke="#DDEAFB" stroke-width="1.27676" stroke-linecap="round" stroke-linejoin="round"/>
<path d="M206.931 428.496C205.478 422.364 201.057 387.054 203.514 343.595C205.039 316.828 208.848 291.373 214.842 267.762C222.548 237.471 233.952 210.299 248.671 186.997C267.249 157.496 292.007 133.363 320.631 116.937" stroke="#DDEAFB" stroke-width="1.27676" stroke-linecap="round" stroke-linejoin="round"/>
<path d="M176.375 198.466C176.244 197.198 175.215 196.331 174.078 196.528C172.94 196.726 172.124 197.914 172.256 199.181C172.387 200.449 173.415 201.317 174.553 201.119C175.69 200.922 176.506 199.734 176.375 198.466Z" fill="#0958D9"/>
<path d="M182.066 183.287C181.935 182.019 180.906 181.152 179.769 181.349C178.632 181.547 177.816 182.734 177.947 184.002C178.078 185.27 179.107 186.138 180.244 185.94C181.382 185.743 182.197 184.555 182.066 183.287Z" fill="#0958D9"/>
<path d="M178.917 190.901C178.786 189.634 177.757 188.766 176.62 188.963C175.482 189.161 174.666 190.349 174.798 191.617C174.929 192.884 175.957 193.752 177.095 193.555C178.232 193.357 179.048 192.169 178.917 190.901Z" fill="#0958D9"/>
<path d="M305.789 50.6064C305.658 49.3386 304.629 48.471 303.492 48.6684C302.354 48.8659 301.538 50.0538 301.67 51.3216C301.801 52.5894 302.829 53.4571 303.967 53.2596C305.104 53.0621 305.92 51.8742 305.789 50.6064Z" fill="#0958D9"/>
<path d="M318.981 43.187C318.85 41.9192 317.822 41.0515 316.684 41.249C315.547 41.4465 314.731 42.6344 314.862 43.9022C314.993 45.17 316.022 46.0377 317.159 45.8402C318.297 45.6427 319.112 44.4548 318.981 43.187Z" fill="#0958D9"/>
<path d="M312.185 46.7031C312.054 45.4353 311.026 44.5676 309.888 44.7651C308.751 44.9626 307.935 46.1505 308.066 47.4183C308.197 48.6861 309.226 49.5538 310.363 49.3563C311.501 49.1588 312.316 47.9709 312.185 46.7031Z" fill="#0958D9"/>
<path d="M251.736 181.886C250.612 181.687 249.526 182.529 249.309 183.766C249.093 185.002 249.828 186.166 250.951 186.365C252.075 186.563 253.161 185.722 253.377 184.485C253.594 183.248 252.859 182.084 251.736 181.886Z" fill="#0958D9"/>
<path d="M260.471 168.723C259.348 168.525 258.261 169.366 258.045 170.603C257.828 171.84 258.563 173.003 259.687 173.202C260.81 173.401 261.896 172.559 262.113 171.322C262.329 170.085 261.594 168.922 260.471 168.723Z" fill="#0958D9"/>
<path d="M255.849 175.268C254.726 175.07 253.639 175.911 253.423 177.148C253.206 178.385 253.941 179.548 255.065 179.747C256.188 179.945 257.274 179.104 257.491 177.867C257.707 176.63 256.972 175.467 255.849 175.268Z" fill="#0958D9"/>
<path d="M369.466 254.23C368.521 253.548 367.244 253.854 366.612 254.914C365.981 255.974 366.235 257.386 367.18 258.069C368.125 258.751 369.402 258.445 370.034 257.385C370.665 256.325 370.411 254.912 369.466 254.23Z" fill="#0958D9"/>
<path d="M375.443 249.77C374.499 249.087 373.221 249.393 372.59 250.453C371.959 251.513 372.213 252.926 373.158 253.609C374.102 254.291 375.38 253.985 376.011 252.925C376.642 251.865 376.388 250.452 375.443 249.77Z" fill="#0958D9"/>
<path d="M302.053 230.161C301.556 229.028 300.337 228.587 299.331 229.175C298.325 229.764 297.912 231.158 298.41 232.291C298.907 233.424 300.126 233.865 301.132 233.277C302.138 232.689 302.551 231.294 302.053 230.161Z" fill="#0958D9"/>
<path d="M293.879 245.604C293.382 244.472 292.163 244.03 291.157 244.619C290.151 245.207 289.738 246.602 290.236 247.734C290.733 248.867 291.952 249.308 292.958 248.72C293.965 248.132 294.377 246.737 293.879 245.604Z" fill="#0958D9"/>
<path d="M297.833 237.788C297.335 236.655 296.116 236.214 295.11 236.802C294.104 237.39 293.692 238.785 294.189 239.918C294.687 241.051 295.905 241.492 296.912 240.904C297.918 240.316 298.33 238.921 297.833 237.788Z" fill="#0958D9"/>
</g>
<defs>
<clipPath id="clip0_4150_4466">
<rect width="417" height="393" fill="white" transform="translate(86 -32)"/>
</clipPath>
</defs>
</svg>
