<svg width="549" height="516" viewBox="0 0 549 516" fill="none" xmlns="http://www.w3.org/2000/svg">
<g clip-path="url(#clip0_4152_13023)">
<path d="M524.878 362.404C485.8 354.306 437.994 345.629 403.943 358.769C287.894 403.509 322.694 552.986 322.798 553.341C322.686 552.912 322.663 552.692 322.656 552.619" stroke="#DDEAFB" stroke-width="2.65024" stroke-linecap="round" stroke-linejoin="round"/>
<path d="M232.426 514.614C232.654 452.06 257.688 385.062 275.589 355.523C297.961 318.562 329.865 288.615 370.37 266.441C422.581 237.907 488.094 251.436 540.702 262.345C561.239 266.631 580.668 270.587 595.716 271.193C630.6 272.548 667.268 266.498 701.761 253.73C742.015 238.843 779.321 214.982 811.468 183.499C848.75 147.094 879.666 100.513 903.326 44.8813C930.13 -18.0167 947.75 -92.9928 955.815 -177.816" stroke="#DDEAFB" stroke-width="2.65024" stroke-linecap="round" stroke-linejoin="round"/>
<path d="M312.617 382.721C311.456 384.491 310.362 386.249 309.275 388.08C295.051 411.605 285.524 438.947 281.021 469.378C273.255 522.109 283.143 565.584 283.255 566.012" stroke="#DDEAFB" stroke-width="2.65024" stroke-linecap="round" stroke-linejoin="round"/>
<path d="M30.3499 340.396C33.1057 309.969 39.6649 279.928 49.7888 251.213C59.6512 223.215 72.8955 196.723 89.1357 172.55C105.201 148.632 124.079 127.214 145.303 108.975C166.652 90.6396 190.244 75.7997 215.269 65.0438" stroke="#DDEAFB" stroke-width="2.65024" stroke-linecap="round" stroke-linejoin="round"/>
<path d="M37.646 461.848C39.5924 415.204 47.8888 368.879 62.2915 324.41C76.1863 281.523 95.7709 241.012 120.449 204.25C144.776 167.997 173.838 135.928 206.702 109.4C240.062 82.4868 276.874 61.6239 315.751 47.7227" stroke="#DDEAFB" stroke-width="2.65024" stroke-linecap="round" stroke-linejoin="round"/>
<path d="M84.8268 577.812C84.8268 577.812 34.4374 281.357 246.626 134.08C402.146 26.1171 507.127 67.6923 572.407 67.9669C649.116 68.2794 786.531 78.5462 787.781 -187.189" stroke="#DDEAFB" stroke-width="2.65024" stroke-linecap="round" stroke-linejoin="round"/>
<path d="M432.251 111.576C465.012 108.668 497.785 111.06 529.558 118.704" stroke="#DDEAFB" stroke-width="2.65024" stroke-linecap="round" stroke-linejoin="round"/>
<path d="M337.068 134.629C306.808 146.74 277.982 163.606 251.601 184.605C225.543 205.473 202.442 230.237 183.406 258.553C164.429 286.785 149.301 319.728 138.278 355.321C127.255 390.914 120.213 429.253 117.408 468.278C115.798 490.58 115.552 512.909 116.664 535.091" stroke="#DDEAFB" stroke-width="2.65024" stroke-linecap="round" stroke-linejoin="round"/>
<path d="M366.326 474.178C368.662 461.077 373.65 448.263 382.087 435.674C390.408 423.254 399.645 414.484 409.649 408.57C419.653 402.655 430.474 399.437 441.897 398.132C453.32 396.826 465.477 397.41 478.21 399.015C490.943 400.619 504.178 403.183 517.958 405.801C534.623 409.04 551.833 412.335 569.514 414.352C587.196 416.37 605.393 416.879 623.976 414.633" stroke="#DDEAFB" stroke-width="2.65024" stroke-linecap="round" stroke-linejoin="round"/>
<path d="M713.652 304.848C674.754 319.201 633.267 326.085 593.796 324.554C575.847 323.852 555.038 319.538 533.061 314.978C486.087 305.26 416.273 283.961 357.927 334.32" stroke="#DDEAFB" stroke-width="2.65024" stroke-linecap="round" stroke-linejoin="round"/>
<path d="M206.539 412.813C229.759 314.087 293.42 209.406 457.985 202.2C490.429 200.765 521.488 209.952 548.886 215.591" stroke="#DDEAFB" stroke-width="2.65024" stroke-linecap="round" stroke-linejoin="round"/>
<path d="M457.566 154.77C504.429 148.524 601.491 197.968 679.007 163.336" stroke="#DDEAFB" stroke-width="2.65024" stroke-linecap="round" stroke-linejoin="round"/>
<path d="M158.921 603.448C157.012 595.413 151.202 549.141 154.431 492.192C156.435 457.114 161.441 423.758 169.318 392.818C179.445 353.122 194.431 317.515 213.774 286.979C238.188 248.321 270.723 216.696 308.339 195.171" stroke="#DDEAFB" stroke-width="2.65024" stroke-linecap="round" stroke-linejoin="round"/>
<path d="M118.767 302.01C118.594 300.348 117.243 299.211 115.748 299.47C114.253 299.729 113.181 301.285 113.354 302.947C113.526 304.608 114.878 305.745 116.372 305.486C117.867 305.228 118.939 303.671 118.767 302.01Z" fill="#0958D9"/>
<path d="M126.245 282.118C126.073 280.457 124.721 279.32 123.226 279.578C121.731 279.837 120.659 281.394 120.832 283.055C121.004 284.717 122.356 285.854 123.851 285.595C125.345 285.336 126.417 283.779 126.245 282.118Z" fill="#0958D9"/>
<path d="M122.106 292.097C121.934 290.435 120.582 289.298 119.088 289.557C117.593 289.816 116.521 291.372 116.693 293.034C116.866 294.695 118.217 295.832 119.712 295.573C121.207 295.315 122.279 293.758 122.106 292.097Z" fill="#0958D9"/>
<path d="M288.835 108.25C288.663 106.589 287.311 105.452 285.816 105.71C284.322 105.969 283.249 107.526 283.422 109.187C283.594 110.848 284.946 111.986 286.441 111.727C287.936 111.468 289.008 109.911 288.835 108.25Z" fill="#0958D9"/>
<path d="M306.172 98.5263C306 96.8649 304.648 95.7279 303.153 95.9867C301.659 96.2455 300.587 97.8021 300.759 99.4635C300.932 101.125 302.283 102.262 303.778 102.003C305.273 101.744 306.345 100.188 306.172 98.5263Z" fill="#0958D9"/>
<path d="M297.242 103.134C297.07 101.473 295.718 100.336 294.223 100.595C292.729 100.853 291.657 102.41 291.829 104.071C292.001 105.733 293.353 106.87 294.848 106.611C296.342 106.352 297.414 104.796 297.242 103.134Z" fill="#0958D9"/>
<path d="M217.801 280.282C216.325 280.022 214.898 281.125 214.613 282.746C214.329 284.366 215.295 285.891 216.771 286.151C218.247 286.412 219.675 285.309 219.959 283.688C220.244 282.067 219.278 280.542 217.801 280.282Z" fill="#0958D9"/>
<path d="M229.28 263.034C227.804 262.773 226.377 263.876 226.092 265.497C225.808 267.118 226.774 268.643 228.25 268.903C229.726 269.163 231.154 268.06 231.438 266.439C231.723 264.819 230.757 263.294 229.28 263.034Z" fill="#0958D9"/>
<path d="M223.207 271.61C221.731 271.35 220.304 272.453 220.019 274.074C219.734 275.694 220.7 277.219 222.177 277.479C223.653 277.74 225.08 276.637 225.365 275.016C225.649 273.395 224.683 271.871 223.207 271.61Z" fill="#0958D9"/>
<path d="M372.517 375.084C371.275 374.19 369.596 374.591 368.767 375.98C367.937 377.37 368.271 379.221 369.513 380.115C370.754 381.009 372.433 380.608 373.263 379.219C374.092 377.83 373.758 375.979 372.517 375.084Z" fill="#0958D9"/>
<path d="M388.917 363.846C387.675 362.951 385.997 363.352 385.167 364.742C384.337 366.131 384.671 367.982 385.913 368.876C387.154 369.771 388.833 369.369 389.663 367.98C390.492 366.591 390.158 364.74 388.917 363.846Z" fill="#0958D9"/>
<path d="M380.373 369.24C379.131 368.345 377.452 368.746 376.623 370.136C375.793 371.525 376.127 373.376 377.369 374.27C378.61 375.165 380.289 374.763 381.118 373.374C381.948 371.985 381.614 370.134 380.373 369.24Z" fill="#0958D9"/>
<path d="M491.511 355.419C491.081 353.828 489.592 352.969 488.186 353.499C486.779 354.03 485.987 355.75 486.417 357.341C486.847 358.932 488.336 359.791 489.743 359.261C491.15 358.73 491.941 357.01 491.511 355.419Z" fill="#0958D9"/>
<path d="M510.078 358.257C509.648 356.666 508.159 355.807 506.753 356.338C505.346 356.869 504.554 358.589 504.984 360.179C505.414 361.77 506.903 362.63 508.31 362.099C509.717 361.568 510.508 359.848 510.078 358.257Z" fill="#0958D9"/>
<path d="M500.688 356.445C500.258 354.854 498.769 353.994 497.362 354.525C495.956 355.056 495.164 356.776 495.594 358.367C496.024 359.958 497.513 360.817 498.92 360.286C500.326 359.756 501.118 358.036 500.688 356.445Z" fill="#0958D9"/>
<path d="M549.943 66.4789C549.77 64.8176 548.419 63.6805 546.924 63.9393C545.429 64.1981 544.357 65.7548 544.529 67.4161C544.702 69.0775 546.053 70.2145 547.548 69.9557C549.043 69.6969 550.115 68.1403 549.943 66.4789Z" fill="#0958D9"/>
<path d="M529.268 64.7553C529.095 63.0939 527.744 61.9569 526.249 62.2157C524.754 62.4745 523.682 64.0311 523.854 65.6925C524.027 67.3538 525.378 68.4909 526.873 68.2321C528.368 67.9733 529.44 66.4166 529.268 64.7553Z" fill="#0958D9"/>
<path d="M539.568 65.5863C539.396 63.925 538.044 62.788 536.55 63.0467C535.055 63.3055 533.983 64.8621 534.155 66.5235C534.327 68.1849 535.679 69.3219 537.174 69.0631C538.669 68.8043 539.741 67.2477 539.568 65.5863Z" fill="#0958D9"/>
<path d="M471.405 247.623C469.944 247.286 468.467 248.348 468.108 249.995C467.748 251.643 468.64 253.251 470.101 253.588C471.562 253.925 473.039 252.863 473.399 251.216C473.759 249.569 472.866 247.96 471.405 247.623Z" fill="#0958D9"/>
<path d="M450.663 246.53C449.202 246.193 447.726 247.255 447.366 248.902C447.006 250.55 447.898 252.158 449.359 252.496C450.82 252.833 452.297 251.771 452.657 250.123C453.017 248.476 452.124 246.867 450.663 246.53Z" fill="#0958D9"/>
<path d="M461.071 246.77C459.609 246.433 458.133 247.495 457.773 249.143C457.413 250.79 458.306 252.399 459.767 252.736C461.228 253.073 462.704 252.011 463.064 250.363C463.424 248.716 462.532 247.107 461.071 246.77Z" fill="#0958D9"/>
<path d="M283.926 343.543C283.272 342.059 281.67 341.481 280.348 342.252C279.026 343.022 278.484 344.85 279.138 346.335C279.791 347.819 281.393 348.397 282.715 347.626C284.037 346.856 284.579 345.028 283.926 343.543Z" fill="#0958D9"/>
<path d="M273.185 363.781C272.531 362.297 270.929 361.719 269.607 362.489C268.285 363.26 267.743 365.088 268.397 366.572C269.051 368.057 270.652 368.635 271.975 367.864C273.297 367.093 273.839 365.265 273.185 363.781Z" fill="#0958D9"/>
<path d="M278.38 353.539C277.727 352.054 276.125 351.476 274.803 352.247C273.481 353.018 272.939 354.846 273.592 356.33C274.246 357.814 275.848 358.392 277.17 357.621C278.492 356.851 279.034 355.023 278.38 353.539Z" fill="#0958D9"/>
</g>
<path d="M737 504.5C737 642.847 623.952 755 484.5 755C345.048 755 232 642.847 232 504.5C232 397.234 306.594 289.682 410.5 256C440.608 246.24 488.5 253 519.5 258.5C657.5 282.984 737 366.153 737 504.5Z" fill="#0066DD" fill-opacity="0.04"/>
<defs>
<clipPath id="clip0_4152_13023">
<rect width="548" height="515" fill="white"/>
</clipPath>
</defs>
</svg>
