<svg width="820" height="517" viewBox="0 0 820 517" fill="none" xmlns="http://www.w3.org/2000/svg">
<g clip-path="url(#clip0_4148_4461)">
<path d="M779.144 596.506C779.514 495.004 820.135 386.289 849.182 338.358C885.484 278.384 937.252 229.791 1002.98 193.81C1087.7 147.51 1194 169.463 1279.36 187.163C1312.69 194.119 1344.22 200.538 1368.63 201.521C1425.24 203.719 1484.74 193.903 1540.71 173.184C1606.02 149.029 1666.56 110.31 1718.72 59.2248C1779.22 0.152706 1829.38 -75.4315 1867.77 -165.702C1911.27 -267.763 1939.86 -389.422 1952.94 -527.06" stroke="#DDEAFB" stroke-width="4.3004" stroke-linecap="round" stroke-linejoin="round"/>
<path d="M451.246 313.812C455.718 264.44 466.361 215.695 482.789 169.1C498.792 123.67 520.282 80.6823 546.634 41.4586C572.702 2.64765 603.335 -32.1059 637.774 -61.7012C672.415 -91.4526 710.698 -115.532 751.304 -132.985" stroke="#DDEAFB" stroke-width="4.30039" stroke-linecap="round" stroke-linejoin="round"/>
<path d="M463.086 510.885C466.244 435.198 479.706 360.03 503.077 287.873C525.623 218.283 557.402 152.548 597.445 92.8962C636.92 34.0699 684.077 -17.9667 737.403 -61.012C791.535 -104.682 851.266 -138.535 914.351 -161.092" stroke="#DDEAFB" stroke-width="4.3004" stroke-linecap="round" stroke-linejoin="round"/>
<path d="M539.643 699.053C539.643 699.053 457.879 218.013 802.186 -20.964C1054.54 -196.15 1224.89 -128.688 1330.81 -128.242C1455.28 -127.735 1678.26 -111.076 1680.29 -542.269" stroke="#DDEAFB" stroke-width="4.30039" stroke-linecap="round" stroke-linejoin="round"/>
<path d="M948.94 -20.073C899.839 -0.422126 853.065 26.9458 810.258 61.0196C767.974 94.8817 730.49 135.063 699.602 181.011C668.808 226.821 644.26 280.275 626.374 338.03C608.488 395.785 597.061 457.996 592.511 521.32C589.898 557.507 589.498 593.74 591.303 629.732" stroke="#DDEAFB" stroke-width="4.3004" stroke-linecap="round" stroke-linejoin="round"/>
<path d="M737.138 431.319C774.815 271.123 878.115 101.262 1145.15 89.5699C1197.79 87.2422 1248.19 102.149 1292.64 111.298" stroke="#DDEAFB" stroke-width="4.3004" stroke-linecap="round" stroke-linejoin="round"/>
<path d="M659.872 740.651C656.774 727.614 647.346 652.53 652.586 560.122C655.838 503.204 663.96 449.079 676.742 398.874C693.174 334.463 717.492 276.685 748.878 227.136C788.493 164.408 841.287 113.092 902.324 78.1646" stroke="#DDEAFB" stroke-width="4.3004" stroke-linecap="round" stroke-linejoin="round"/>
<path d="M594.715 251.525C594.436 248.829 592.243 246.985 589.817 247.404C587.392 247.824 585.652 250.35 585.932 253.046C586.212 255.742 588.405 257.587 590.83 257.167C593.256 256.747 594.995 254.221 594.715 251.525Z" fill="#0958D9"/>
<path d="M606.85 219.248C606.571 216.553 604.377 214.708 601.952 215.128C599.526 215.547 597.787 218.073 598.067 220.769C598.346 223.465 600.54 225.31 602.965 224.89C605.391 224.47 607.13 221.944 606.85 219.248Z" fill="#0958D9"/>
<path d="M600.134 235.44C599.855 232.744 597.662 230.899 595.236 231.319C592.811 231.739 591.071 234.265 591.351 236.961C591.631 239.657 593.824 241.502 596.249 241.082C598.675 240.662 600.414 238.136 600.134 235.44Z" fill="#0958D9"/>
<path d="M755.414 216.27C753.019 215.847 750.702 217.637 750.241 220.267C749.779 222.897 751.346 225.371 753.742 225.793C756.137 226.215 758.453 224.426 758.915 221.796C759.377 219.166 757.809 216.692 755.414 216.27Z" fill="#0958D9"/>
<path d="M774.04 188.281C771.645 187.859 769.328 189.649 768.867 192.278C768.405 194.908 769.972 197.382 772.368 197.805C774.763 198.227 777.079 196.437 777.541 193.808C778.003 191.178 776.436 188.704 774.04 188.281Z" fill="#0958D9"/>
<path d="M764.186 202.198C761.79 201.776 759.474 203.566 759.012 206.195C758.55 208.825 760.118 211.299 762.513 211.722C764.909 212.144 767.225 210.354 767.687 207.725C768.149 205.095 766.581 202.621 764.186 202.198Z" fill="#0958D9"/>
</g>
<path d="M373.021 399.462C373.021 396.782 369.002 392.226 357.747 387.402C348.636 383.65 337.381 380.97 329.877 380.97L258.596 380.97L186.779 259.304C181.955 249.121 173.38 243.225 164.805 243.225L157.301 243.225L201.785 380.97L181.955 380.97C179.811 380.97 169.092 380.97 161.589 380.97C157.301 380.97 153.282 381.238 148.994 381.774L98.8829 387.938L72.0854 338.092L61.3664 338.092L61.3664 460.831L72.0854 460.831L99.1509 410.717L149.262 416.881C153.55 417.417 157.569 417.685 161.857 417.685C169.36 417.685 180.347 417.953 182.223 417.685L202.053 417.685L157.569 555.43L165.073 555.43C173.648 555.43 182.223 549.534 186.779 539.619L258.864 417.685L329.877 417.953C337.381 417.953 348.904 415.541 357.747 411.521C369.27 406.965 373.021 402.141 373.021 399.462Z" fill="#E2EAFA"/>
<defs>
<clipPath id="clip0_4148_4461">
<rect width="516" height="516" fill="white" transform="translate(402)"/>
</clipPath>
</defs>
</svg>
