<svg width="571" height="517" viewBox="0 0 571 517" fill="none" xmlns="http://www.w3.org/2000/svg">
<g clip-path="url(#clip0_3019_11630)">
<path d="M706.877 292.407C667.8 284.309 619.993 275.632 585.942 288.772C469.893 333.512 504.693 482.989 504.797 483.344C504.685 482.915 504.663 482.695 504.655 482.622" stroke="#DDEAFB" stroke-width="2.65024" stroke-linecap="round" stroke-linejoin="round"/>
<path d="M414.426 444.617C414.654 382.063 439.688 315.065 457.589 285.526C479.961 248.565 511.865 218.618 552.37 196.444C604.581 167.91 670.094 181.439 722.702 192.348C743.239 196.634 762.668 200.59 777.716 201.196C812.6 202.551 849.268 196.501 883.761 183.732C924.015 168.846 961.321 144.985 993.468 113.502C1030.75 77.0969 1061.67 30.516 1085.33 -25.1158C1112.13 -88.0137 1129.75 -162.99 1137.81 -247.814" stroke="#DDEAFB" stroke-width="2.65024" stroke-linecap="round" stroke-linejoin="round"/>
<path d="M494.616 312.723C493.456 314.492 492.362 316.25 491.275 318.081C477.051 341.606 467.523 368.949 463.021 399.38C455.255 452.11 465.143 495.585 465.254 496.014" stroke="#DDEAFB" stroke-width="2.65024" stroke-linecap="round" stroke-linejoin="round"/>
<path d="M212.35 270.398C215.105 239.971 221.665 209.931 231.789 181.215C241.651 153.217 254.895 126.725 271.135 102.552C287.201 78.634 306.079 57.2162 327.303 38.9772C348.651 20.642 372.244 5.80213 397.269 -4.95375" stroke="#DDEAFB" stroke-width="2.65024" stroke-linecap="round" stroke-linejoin="round"/>
<path d="M219.646 391.848C221.593 345.204 229.889 298.879 244.292 254.41C258.187 211.523 277.771 171.012 302.449 134.25C326.777 97.9966 355.839 65.9276 388.702 39.3996C422.063 12.4868 458.874 -8.37611 497.752 -22.2773" stroke="#DDEAFB" stroke-width="2.65024" stroke-linecap="round" stroke-linejoin="round"/>
<path d="M266.827 507.814C266.827 507.814 216.438 211.36 428.627 64.0832C584.147 -43.88 689.128 -2.30474 754.408 -2.0302C831.116 -1.71764 968.532 8.54911 969.782 -257.186" stroke="#DDEAFB" stroke-width="2.65024" stroke-linecap="round" stroke-linejoin="round"/>
<path d="M519.068 64.6322C488.808 76.7427 459.982 93.609 433.602 114.608C407.543 135.476 384.442 160.239 365.407 188.556C346.429 216.788 331.301 249.731 320.278 285.324C309.255 320.917 302.213 359.256 299.409 398.281C297.798 420.583 297.552 442.912 298.664 465.094" stroke="#DDEAFB" stroke-width="2.65024" stroke-linecap="round" stroke-linejoin="round"/>
<path d="M548.326 404.18C550.662 391.078 555.65 378.264 564.087 365.675C572.408 353.255 581.645 344.486 591.649 338.571C601.653 332.657 612.474 329.439 623.897 328.133C635.32 326.828 647.477 327.412 660.21 329.016C672.943 330.621 686.178 333.184 699.958 335.803C716.623 339.042 733.833 342.336 751.514 344.354C769.196 346.371 787.393 346.88 805.976 344.634" stroke="#DDEAFB" stroke-width="2.65024" stroke-linecap="round" stroke-linejoin="round"/>
<path d="M895.651 234.848C856.754 249.201 815.266 256.085 775.795 254.554C757.847 253.852 737.037 249.538 715.06 244.978C668.086 235.26 598.272 213.961 539.927 264.32" stroke="#DDEAFB" stroke-width="2.65024" stroke-linecap="round" stroke-linejoin="round"/>
<path d="M388.539 342.816C411.759 244.091 475.42 139.409 639.986 132.203C672.429 130.769 703.488 139.956 730.886 145.594" stroke="#DDEAFB" stroke-width="2.65024" stroke-linecap="round" stroke-linejoin="round"/>
<path d="M340.921 533.451C339.012 525.416 333.202 479.144 336.431 422.195C338.435 387.117 343.441 353.761 351.318 322.82C361.445 283.125 376.431 247.518 395.774 216.982C420.188 178.324 452.723 146.699 490.339 125.174" stroke="#DDEAFB" stroke-width="2.65024" stroke-linecap="round" stroke-linejoin="round"/>
<path d="M300.771 232.012C300.598 230.35 299.247 229.213 297.752 229.472C296.257 229.731 295.185 231.287 295.358 232.949C295.53 234.61 296.882 235.747 298.376 235.488C299.871 235.23 300.943 233.673 300.771 232.012Z" fill="#0958D9"/>
<path d="M308.249 212.121C308.077 210.46 306.725 209.323 305.231 209.581C303.736 209.84 302.664 211.397 302.836 213.058C303.009 214.72 304.36 215.857 305.855 215.598C307.35 215.339 308.422 213.782 308.249 212.121Z" fill="#0958D9"/>
<path d="M304.111 222.101C303.938 220.44 302.587 219.303 301.092 219.562C299.597 219.821 298.525 221.377 298.698 223.039C298.87 224.7 300.222 225.837 301.716 225.578C303.211 225.319 304.283 223.763 304.111 222.101Z" fill="#0958D9"/>
<path d="M470.839 38.2538C470.667 36.5924 469.315 35.4554 467.82 35.7142C466.326 35.973 465.254 37.5296 465.426 39.191C465.599 40.8524 466.95 41.9894 468.445 41.7306C469.94 41.4718 471.012 39.9152 470.839 38.2538Z" fill="#0958D9"/>
<path d="M488.175 28.5272C488.003 26.8659 486.651 25.7289 485.156 25.9877C483.662 26.2465 482.59 27.8031 482.762 29.4644C482.934 31.1258 484.286 32.2629 485.781 32.0041C487.276 31.7453 488.348 30.1886 488.175 28.5272Z" fill="#0958D9"/>
<path d="M479.245 33.1366C479.073 31.4753 477.722 30.3382 476.227 30.597C474.732 30.8558 473.66 32.4125 473.832 34.0739C474.005 35.7352 475.356 36.8722 476.851 36.6134C478.346 36.3546 479.418 34.798 479.245 33.1366Z" fill="#0958D9"/>
<path d="M399.805 210.285C398.329 210.024 396.901 211.127 396.617 212.748C396.332 214.369 397.298 215.894 398.774 216.154C400.251 216.414 401.678 215.311 401.963 213.69C402.247 212.07 401.281 210.545 399.805 210.285Z" fill="#0958D9"/>
<path d="M411.283 193.039C409.807 192.778 408.38 193.881 408.095 195.502C407.811 197.123 408.777 198.647 410.253 198.908C411.729 199.168 413.156 198.065 413.441 196.444C413.726 194.824 412.76 193.299 411.283 193.039Z" fill="#0958D9"/>
<path d="M405.211 201.613C403.735 201.353 402.307 202.455 402.023 204.076C401.738 205.697 402.704 207.222 404.181 207.482C405.657 207.742 407.084 206.639 407.369 205.019C407.653 203.398 406.687 201.873 405.211 201.613Z" fill="#0958D9"/>
<path d="M554.52 305.088C553.278 304.194 551.599 304.595 550.77 305.984C549.94 307.373 550.274 309.225 551.516 310.119C552.757 311.013 554.436 310.612 555.266 309.223C556.095 307.834 555.761 305.983 554.52 305.088Z" fill="#0958D9"/>
<path d="M570.92 293.85C569.679 292.956 568 293.357 567.17 294.746C566.341 296.135 566.675 297.986 567.916 298.881C569.158 299.775 570.837 299.374 571.666 297.985C572.496 296.595 572.162 294.744 570.92 293.85Z" fill="#0958D9"/>
<path d="M562.375 299.244C561.134 298.35 559.455 298.751 558.625 300.141C557.796 301.53 558.13 303.381 559.371 304.275C560.613 305.17 562.292 304.768 563.121 303.379C563.951 301.99 563.617 300.139 562.375 299.244Z" fill="#0958D9"/>
<path d="M465.928 273.545C465.275 272.061 463.673 271.482 462.351 272.253C461.029 273.024 460.487 274.852 461.141 276.336C461.794 277.82 463.396 278.399 464.718 277.628C466.04 276.857 466.582 275.029 465.928 273.545Z" fill="#0958D9"/>
<path d="M455.188 293.783C454.535 292.299 452.933 291.721 451.611 292.491C450.288 293.262 449.747 295.09 450.4 296.574C451.054 298.059 452.656 298.637 453.978 297.866C455.3 297.095 455.842 295.267 455.188 293.783Z" fill="#0958D9"/>
<path d="M460.384 283.541C459.73 282.057 458.128 281.478 456.806 282.249C455.484 283.02 454.942 284.848 455.596 286.332C456.249 287.816 457.851 288.395 459.173 287.624C460.495 286.853 461.037 285.025 460.384 283.541Z" fill="#0958D9"/>
</g>
<defs>
<clipPath id="clip0_3019_11630">
<rect width="571" height="522" fill="white" transform="translate(0 -5)"/>
</clipPath>
</defs>
</svg>
