<svg width="375" height="225" viewBox="0 0 375 225" fill="none" xmlns="http://www.w3.org/2000/svg">
<g clip-path="url(#clip0_3017_11627)">
<path d="M319.749 205.428C294.036 200.154 262.58 194.502 240.174 203.06C163.815 232.198 186.714 329.549 186.782 329.781C186.709 329.501 186.694 329.358 186.689 329.31" stroke="#DDEAFB" stroke-width="1.74849" stroke-linecap="round" stroke-linejoin="round"/>
<path d="M411.568 208.726C395.854 211.516 379.964 212.634 364.165 212.083" stroke="#DDEAFB" stroke-width="1.74849" stroke-linecap="round" stroke-linejoin="round"/>
<path d="M127.433 304.559C127.583 263.819 144.056 220.184 155.835 200.946C170.556 176.874 191.548 157.371 218.201 142.929C252.555 124.346 295.662 133.157 330.277 140.261C343.791 143.053 356.575 145.629 366.477 146.024C389.43 146.906 413.557 142.966 436.253 134.65C462.74 124.955 487.287 109.415 508.44 88.9106C532.971 65.2009 553.314 34.8638 568.883 -1.36785C586.52 -42.3319 598.115 -91.1621 603.422 -146.406" stroke="#DDEAFB" stroke-width="1.74849" stroke-linecap="round" stroke-linejoin="round"/>
<path d="M181.204 218.661C180.44 219.813 179.72 220.958 179.005 222.151C169.646 237.472 163.377 255.28 160.414 275.099C155.303 309.441 161.809 337.755 161.883 338.034" stroke="#DDEAFB" stroke-width="1.74849" stroke-linecap="round" stroke-linejoin="round"/>
<path d="M-4.38672 191.098C-2.57353 171.281 1.74228 151.716 8.40365 133.015C14.8929 114.78 23.6075 97.5265 34.2934 81.7833C44.864 66.2058 57.2856 52.2569 71.2508 40.3782C85.2979 28.437 100.822 18.7721 117.288 11.767" stroke="#DDEAFB" stroke-width="1.74849" stroke-linecap="round" stroke-linejoin="round"/>
<path d="M0 270.195C1.28075 239.817 6.73976 209.647 16.2166 180.686C25.3593 152.754 38.2459 126.37 54.4837 102.428C70.4909 78.8168 89.6138 57.9309 111.238 40.6539C133.189 23.1261 157.41 9.53861 182.991 0.485089" stroke="#DDEAFB" stroke-width="1.74849" stroke-linecap="round" stroke-linejoin="round"/>
<path d="M31.0441 345.719C31.0441 345.719 -2.11292 152.644 137.506 56.7265C239.836 -13.5875 308.913 13.4895 351.867 13.6683C402.341 13.8719 492.759 20.5583 493.581 -152.509" stroke="#DDEAFB" stroke-width="1.74849" stroke-linecap="round" stroke-linejoin="round"/>
<path d="M259.15 42.0713C280.706 40.177 302.271 41.735 323.177 46.7136" stroke="#DDEAFB" stroke-width="1.74849" stroke-linecap="round" stroke-linejoin="round"/>
<path d="M196.284 57.083C176.373 64.9703 157.406 75.9549 140.047 89.6311C122.901 103.222 107.701 119.35 95.1759 137.792C82.689 156.178 72.7347 177.633 65.4818 200.814C58.2289 223.995 53.5955 248.965 51.7504 274.381C50.6909 288.906 50.529 303.448 51.2607 317.895" stroke="#DDEAFB" stroke-width="1.74849" stroke-linecap="round" stroke-linejoin="round"/>
<path d="M216.793 278.227C218.33 269.694 221.612 261.349 227.163 253.149C232.638 245.061 238.716 239.349 245.299 235.497C251.881 231.645 259.001 229.549 266.518 228.699C274.034 227.849 282.033 228.229 290.411 229.274C298.79 230.319 307.499 231.989 316.565 233.694C327.531 235.804 338.855 237.949 350.489 239.263C362.123 240.577 374.097 240.909 386.324 239.446" stroke="#DDEAFB" stroke-width="1.74849" stroke-linecap="round" stroke-linejoin="round"/>
<path d="M443.952 167.943C418.358 177.29 391.059 181.774 365.088 180.776C353.278 180.319 339.585 177.51 325.125 174.54C294.216 168.211 248.279 154.339 209.888 187.137" stroke="#DDEAFB" stroke-width="1.74849" stroke-linecap="round" stroke-linejoin="round"/>
<path d="M111.328 238.258C126.607 173.96 168.497 105.783 276.78 101.09C298.127 100.156 318.564 106.139 336.591 109.811" stroke="#DDEAFB" stroke-width="1.74849" stroke-linecap="round" stroke-linejoin="round"/>
<path d="M276.35 70.2012C307.185 66.1332 371.05 98.3351 422.056 75.7798" stroke="#DDEAFB" stroke-width="1.74849" stroke-linecap="round" stroke-linejoin="round"/>
<path d="M79.62 362.413C78.3639 357.18 74.5406 327.044 76.665 289.954C77.9837 267.109 81.2771 245.385 86.46 225.234C93.1233 199.382 102.984 176.192 115.712 156.304C131.775 131.127 153.184 110.53 177.935 96.5116" stroke="#DDEAFB" stroke-width="1.74849" stroke-linecap="round" stroke-linejoin="round"/>
<path d="M53.1757 166.094C53.0623 165.012 52.173 164.272 51.1894 164.441C50.2059 164.609 49.5005 165.623 49.6139 166.705C49.7274 167.787 50.6167 168.527 51.6002 168.359C52.5838 168.19 53.2892 167.177 53.1757 166.094Z" fill="#0958D9"/>
<path d="M57.5634 153.137C57.45 152.055 56.5607 151.315 55.5771 151.483C54.5935 151.652 53.8881 152.666 54.0016 153.748C54.1151 154.83 55.0044 155.57 55.988 155.402C56.9715 155.233 57.6769 154.22 57.5634 153.137Z" fill="#0958D9"/>
<path d="M56.0898 159.637C55.9764 158.555 55.0871 157.815 54.1035 157.983C53.1199 158.152 52.4146 159.166 52.528 160.248C52.6414 161.33 53.5307 162.07 54.5143 161.902C55.4979 161.733 56.2033 160.719 56.0898 159.637Z" fill="#0958D9"/>
<path d="M164.473 39.8992C164.359 38.8172 163.47 38.0767 162.486 38.2452C161.503 38.4138 160.797 39.4275 160.911 40.5096C161.024 41.5916 161.914 42.3321 162.897 42.1636C163.881 41.995 164.586 40.9812 164.473 39.8992Z" fill="#0958D9"/>
<path d="M176.191 33.5672C176.078 32.4851 175.189 31.7446 174.205 31.9132C173.221 32.0817 172.516 33.0955 172.63 34.1775C172.743 35.2596 173.632 36.0001 174.616 35.8315C175.599 35.663 176.305 34.6492 176.191 33.5672Z" fill="#0958D9"/>
<path d="M170.332 36.5711C170.218 35.4891 169.329 34.7485 168.346 34.9171C167.362 35.0857 166.657 36.0995 166.77 37.1815C166.884 38.2635 167.773 39.004 168.756 38.8354C169.74 38.6669 170.445 37.6531 170.332 36.5711Z" fill="#0958D9"/>
<path d="M119.02 151.941C118.049 151.772 117.109 152.49 116.922 153.545C116.735 154.601 117.37 155.594 118.342 155.763C119.313 155.933 120.252 155.215 120.44 154.159C120.627 153.104 119.991 152.11 119.02 151.941Z" fill="#0958D9"/>
<path d="M126.352 140.711C125.381 140.541 124.441 141.259 124.254 142.315C124.067 143.37 124.702 144.363 125.674 144.533C126.645 144.702 127.584 143.984 127.772 142.929C127.959 141.873 127.323 140.88 126.352 140.711Z" fill="#0958D9"/>
<path d="M121.903 146.293C120.931 146.123 119.992 146.841 119.805 147.897C119.618 148.952 120.253 149.946 121.225 150.115C122.196 150.284 123.135 149.566 123.322 148.511C123.51 147.455 122.874 146.462 121.903 146.293Z" fill="#0958D9"/>
<path d="M220.145 213.685C219.328 213.102 218.223 213.363 217.677 214.268C217.132 215.173 217.351 216.379 218.168 216.961C218.985 217.543 220.09 217.282 220.636 216.377C221.182 215.473 220.962 214.267 220.145 213.685Z" fill="#0958D9"/>
<path d="M230.486 206.368C229.669 205.786 228.564 206.047 228.018 206.952C227.472 207.857 227.692 209.062 228.509 209.645C229.326 210.227 230.431 209.966 230.977 209.061C231.522 208.156 231.303 206.951 230.486 206.368Z" fill="#0958D9"/>
<path d="M224.626 209.876C223.809 209.294 222.705 209.555 222.159 210.46C221.613 211.364 221.833 212.57 222.65 213.152C223.467 213.735 224.571 213.474 225.117 212.569C225.663 211.664 225.443 210.458 224.626 209.876Z" fill="#0958D9"/>
<path d="M298.753 200.876C298.47 199.84 297.49 199.28 296.564 199.626C295.639 199.972 295.118 201.092 295.401 202.128C295.684 203.164 296.663 203.724 297.589 203.378C298.515 203.032 299.036 201.912 298.753 200.876Z" fill="#0958D9"/>
<path d="M310.44 202.724C310.157 201.687 309.178 201.128 308.252 201.473C307.326 201.819 306.805 202.939 307.088 203.976C307.371 205.012 308.351 205.571 309.277 205.226C310.202 204.88 310.723 203.76 310.44 202.724Z" fill="#0958D9"/>
<path d="M304.581 201.544C304.298 200.508 303.318 199.948 302.393 200.294C301.467 200.64 300.946 201.76 301.229 202.796C301.512 203.832 302.492 204.392 303.417 204.046C304.343 203.7 304.864 202.58 304.581 201.544Z" fill="#0958D9"/>
<path d="M337.34 12.6961C337.226 11.6141 336.337 10.8735 335.353 11.0421C334.37 11.2106 333.665 12.2245 333.778 13.3065C333.891 14.3885 334.781 15.129 335.764 14.9604C336.748 14.7919 337.453 13.7781 337.34 12.6961Z" fill="#0958D9"/>
<path d="M322.676 11.575C322.562 10.493 321.673 9.75245 320.689 9.921C319.706 10.0896 319 11.1033 319.114 12.1853C319.227 13.2674 320.117 14.0079 321.1 13.8393C322.084 13.6708 322.789 12.657 322.676 11.575Z" fill="#0958D9"/>
<path d="M330.07 12.1179C329.957 11.0359 329.068 10.2954 328.084 10.464C327.1 10.6325 326.395 11.6463 326.508 12.7283C326.622 13.8103 327.511 14.5509 328.495 14.3823C329.478 14.2138 330.184 13.2 330.07 12.1179Z" fill="#0958D9"/>
<path d="M284.753 130.67C283.791 130.451 282.82 131.143 282.583 132.215C282.346 133.288 282.934 134.336 283.895 134.556C284.856 134.775 285.828 134.083 286.065 133.011C286.301 131.938 285.714 130.89 284.753 130.67Z" fill="#0958D9"/>
<path d="M271.561 129.959C270.6 129.74 269.629 130.432 269.392 131.505C269.155 132.577 269.742 133.625 270.704 133.845C271.665 134.064 272.636 133.372 272.873 132.3C273.11 131.227 272.523 130.179 271.561 129.959Z" fill="#0958D9"/>
<path d="M278.893 130.116C277.932 129.896 276.961 130.588 276.724 131.661C276.487 132.734 277.074 133.781 278.036 134.001C278.997 134.22 279.968 133.529 280.205 132.456C280.442 131.383 279.855 130.335 278.893 130.116Z" fill="#0958D9"/>
<path d="M162.047 193.143C161.617 192.176 160.563 191.8 159.693 192.302C158.823 192.804 158.467 193.994 158.897 194.961C159.327 195.927 160.381 196.304 161.251 195.802C162.121 195.3 162.478 194.109 162.047 193.143Z" fill="#0958D9"/>
<path d="M154.781 206.323C154.351 205.356 153.297 204.979 152.427 205.481C151.557 205.983 151.2 207.174 151.63 208.14C152.06 209.107 153.114 209.484 153.984 208.982C154.854 208.48 155.211 207.289 154.781 206.323Z" fill="#0958D9"/>
<path d="M157.628 199.651C157.198 198.684 156.144 198.307 155.274 198.809C154.404 199.311 154.048 200.502 154.478 201.469C154.908 202.435 155.962 202.812 156.832 202.31C157.702 201.808 158.059 200.617 157.628 199.651Z" fill="#0958D9"/>
</g>
<defs>
<clipPath id="clip0_3017_11627">
<rect width="375" height="225" fill="white"/>
</clipPath>
</defs>
</svg>
