<svg width="457" height="269" viewBox="0 0 457 269" fill="none" xmlns="http://www.w3.org/2000/svg">
<g clip-path="url(#clip0_1538_14747)">
<path d="M427.631 227.317C427.631 201.131 422.473 175.202 412.452 151.009C402.431 126.816 387.743 104.834 369.227 86.3179C350.711 67.8016 328.729 53.1137 304.536 43.0927C280.343 33.0718 254.414 27.9141 228.228 27.9141C202.042 27.9141 176.112 33.0718 151.919 43.0927C127.726 53.1137 105.744 67.8016 87.2281 86.3179C68.7118 104.834 54.0238 126.816 44.0029 151.009C33.9819 175.202 28.8242 201.131 28.8242 227.317L228.228 227.317H427.631Z" fill="white"/>
<path d="M427.738 227.207C427.738 186.791 415.464 147.328 392.54 114.043L309.57 171.185C320.918 187.663 326.995 207.199 326.995 227.207H427.738Z" fill="url(#paint0_linear_1538_14747)"/>
<path d="M390.303 110.786C366.128 77.8974 331.127 51.4736 292.484 38.3281L260.039 133.704C279.169 140.212 295.843 152.431 307.812 168.712L390.303 110.786Z" fill="url(#paint1_linear_1538_14747)"/>
<path d="M288.821 37.2099C249.86 25.0379 207.017 24.6738 168.098 36.9784L198.467 133.035C217.734 126.944 237.322 126.48 256.61 132.506L288.821 37.2099Z" fill="url(#paint2_linear_1538_14747)"/>
<path d="M163.907 38.3516C125.268 51.5122 91.5963 76.2073 67.4336 109.105L148.629 168.742C160.591 152.455 176.207 140.652 195.335 134.137L163.907 38.3516Z" fill="url(#paint3_linear_1538_14747)"/>
<path d="M65.1126 112.336C41.6109 145.709 28.9111 185.488 28.7266 226.306L129.469 226.761C129.56 206.555 135.193 187.726 146.827 171.205L65.1126 112.336Z" fill="url(#paint4_linear_1538_14747)"/>
<g filter="url(#filter0_d_1538_14747)">
<rect x="0.414062" y="226.758" width="455.699" height="42.0198" fill="white"/>
</g>
<g filter="url(#filter1_d_1538_14747)">
<mask id="path-8-inside-1_1538_14747" fill="white">
<path d="M456.056 227.313C456.056 197.395 450.163 167.77 438.714 140.13C427.265 112.489 410.484 87.3745 389.328 66.2193C368.173 45.0642 343.059 28.2831 315.418 16.834C287.778 5.38494 258.153 -0.507814 228.235 -0.507812C198.317 -0.507811 168.692 5.38495 141.052 16.834C113.411 28.2831 88.2963 45.0642 67.1412 66.2194C45.9861 87.3745 29.2049 112.489 17.7559 140.13C6.30682 167.77 0.41406 197.395 0.414063 227.313H28.382C28.382 201.068 33.5514 175.08 43.5949 150.833C53.6384 126.585 68.3595 104.554 86.9175 85.9957C105.476 67.4376 127.507 52.7166 151.754 42.673C176.002 32.6295 201.99 27.4601 228.235 27.4601C254.48 27.4601 280.468 32.6295 304.715 42.673C328.962 52.7166 350.994 67.4376 369.552 85.9957C388.11 104.554 402.831 126.585 412.875 150.833C422.918 175.08 428.088 201.068 428.088 227.313H456.056Z"/>
</mask>
<path d="M456.056 227.313C456.056 197.395 450.163 167.77 438.714 140.13C427.265 112.489 410.484 87.3745 389.328 66.2193C368.173 45.0642 343.059 28.2831 315.418 16.834C287.778 5.38494 258.153 -0.507814 228.235 -0.507812C198.317 -0.507811 168.692 5.38495 141.052 16.834C113.411 28.2831 88.2963 45.0642 67.1412 66.2194C45.9861 87.3745 29.2049 112.489 17.7559 140.13C6.30682 167.77 0.41406 197.395 0.414063 227.313H28.382C28.382 201.068 33.5514 175.08 43.5949 150.833C53.6384 126.585 68.3595 104.554 86.9175 85.9957C105.476 67.4376 127.507 52.7166 151.754 42.673C176.002 32.6295 201.99 27.4601 228.235 27.4601C254.48 27.4601 280.468 32.6295 304.715 42.673C328.962 52.7166 350.994 67.4376 369.552 85.9957C388.11 104.554 402.831 126.585 412.875 150.833C422.918 175.08 428.088 201.068 428.088 227.313H456.056Z" fill="white"/>
<path d="M456.056 227.313C456.056 197.395 450.163 167.77 438.714 140.13C427.265 112.489 410.484 87.3745 389.328 66.2193C368.173 45.0642 343.059 28.2831 315.418 16.834C287.778 5.38494 258.153 -0.507814 228.235 -0.507812C198.317 -0.507811 168.692 5.38495 141.052 16.834C113.411 28.2831 88.2963 45.0642 67.1412 66.2194C45.9861 87.3745 29.2049 112.489 17.7559 140.13C6.30682 167.77 0.41406 197.395 0.414063 227.313H28.382C28.382 201.068 33.5514 175.08 43.5949 150.833C53.6384 126.585 68.3595 104.554 86.9175 85.9957C105.476 67.4376 127.507 52.7166 151.754 42.673C176.002 32.6295 201.99 27.4601 228.235 27.4601C254.48 27.4601 280.468 32.6295 304.715 42.673C328.962 52.7166 350.994 67.4376 369.552 85.9957C388.11 104.554 402.831 126.585 412.875 150.833C422.918 175.08 428.088 201.068 428.088 227.313H456.056Z" stroke="#F5F5F5" stroke-width="2.05153" mask="url(#path-8-inside-1_1538_14747)"/>
</g>
<rect x="0.414062" y="227.359" width="455.64" height="41.0722" fill="white"/>
<path d="M47.3111 242.469V251.332C47.3111 252.303 47.5642 253.048 48.0702 253.568C48.5763 254.074 49.2875 254.327 50.2038 254.327C51.1338 254.327 51.8519 254.074 52.3579 253.568C52.864 253.048 53.117 252.303 53.117 251.332V242.469H56.0097V251.311C56.0097 252.529 55.743 253.561 55.2096 254.409C54.6898 255.244 53.9855 255.873 53.0965 256.297C52.2212 256.721 51.2433 256.933 50.1628 256.933C49.096 256.933 48.1249 256.721 47.2496 256.297C46.388 255.873 45.7041 255.244 45.1981 254.409C44.692 253.561 44.439 252.529 44.439 251.311V242.469H47.3111ZM65.0829 245.259C66.4369 245.259 67.5311 245.69 68.3653 246.552C69.1996 247.4 69.6168 248.59 69.6168 250.122V256.789H66.7446V250.511C66.7446 249.609 66.519 248.918 66.0676 248.439C65.6163 247.947 65.0008 247.701 64.2212 247.701C63.428 247.701 62.7988 247.947 62.3338 248.439C61.8825 248.918 61.6568 249.609 61.6568 250.511V256.789H58.7847V245.424H61.6568V246.839C62.0398 246.347 62.5253 245.964 63.1134 245.69C63.7152 245.403 64.3717 245.259 65.0829 245.259ZM73.8046 244.07C73.2986 244.07 72.8746 243.912 72.5327 243.598C72.2044 243.269 72.0403 242.866 72.0403 242.387C72.0403 241.909 72.2044 241.512 72.5327 241.197C72.8746 240.869 73.2986 240.705 73.8046 240.705C74.3107 240.705 74.7278 240.869 75.0561 241.197C75.398 241.512 75.569 241.909 75.569 242.387C75.569 242.866 75.398 243.269 75.0561 243.598C74.7278 243.912 74.3107 244.07 73.8046 244.07ZM75.2202 245.424V256.789H72.348V245.424H75.2202ZM77.3193 251.086C77.3193 249.951 77.5518 248.945 78.0169 248.07C78.4955 247.181 79.1384 246.49 79.9453 245.998C80.7522 245.506 81.6412 245.259 82.6123 245.259C83.4192 245.259 84.1304 245.417 84.7459 245.731C85.375 246.032 85.8811 246.422 86.264 246.901V245.424H89.1567V262.205H86.264V255.23C85.8811 255.722 85.3682 256.133 84.7254 256.461C84.0826 256.789 83.3577 256.953 82.5507 256.953C81.5934 256.953 80.7112 256.707 79.9043 256.215C79.111 255.709 78.4819 255.011 78.0169 254.122C77.5518 253.233 77.3193 252.221 77.3193 251.086ZM86.264 251.106C86.264 250.409 86.1204 249.807 85.8332 249.301C85.546 248.795 85.1699 248.412 84.7049 248.152C84.2535 247.892 83.768 247.762 83.2483 247.762C82.7422 247.762 82.2567 247.892 81.7917 248.152C81.3403 248.412 80.9711 248.795 80.6838 249.301C80.3966 249.793 80.253 250.388 80.253 251.086C80.253 251.783 80.3966 252.392 80.6838 252.912C80.9711 253.418 81.3403 253.801 81.7917 254.061C82.2567 254.32 82.7422 254.45 83.2483 254.45C83.768 254.45 84.2535 254.32 84.7049 254.061C85.1699 253.801 85.546 253.418 85.8332 252.912C86.1204 252.406 86.264 251.804 86.264 251.106ZM102.691 245.424V256.789H99.7987V255.353C99.4294 255.845 98.9439 256.235 98.3421 256.522C97.754 256.796 97.1112 256.933 96.4137 256.933C95.5247 256.933 94.7382 256.748 94.0544 256.379C93.3706 255.996 92.8303 255.442 92.4337 254.717C92.0507 253.978 91.8593 253.103 91.8593 252.091V245.424H94.7314V251.681C94.7314 252.583 94.9571 253.281 95.4084 253.773C95.8598 254.252 96.4752 254.491 97.2548 254.491C98.0481 254.491 98.6704 254.252 99.1217 253.773C99.573 253.281 99.7987 252.583 99.7987 251.681V245.424H102.691ZM116.091 250.86C116.091 251.27 116.063 251.64 116.009 251.968H107.7C107.768 252.789 108.055 253.431 108.561 253.896C109.068 254.361 109.69 254.594 110.428 254.594C111.495 254.594 112.254 254.136 112.706 253.219H115.803C115.475 254.314 114.846 255.216 113.916 255.927C112.986 256.625 111.844 256.974 110.49 256.974C109.396 256.974 108.411 256.734 107.536 256.256C106.674 255.763 105.997 255.073 105.505 254.184C105.026 253.295 104.787 252.269 104.787 251.106C104.787 249.93 105.026 248.897 105.505 248.008C105.983 247.119 106.654 246.436 107.515 245.957C108.377 245.478 109.368 245.239 110.49 245.239C111.57 245.239 112.535 245.471 113.383 245.936C114.244 246.401 114.908 247.065 115.373 247.926C115.851 248.774 116.091 249.752 116.091 250.86ZM113.116 250.04C113.102 249.301 112.836 248.713 112.316 248.275C111.796 247.824 111.16 247.598 110.408 247.598C109.697 247.598 109.095 247.817 108.603 248.255C108.124 248.679 107.83 249.274 107.72 250.04H113.116Z" fill="#549509"/>
<path d="M332.515 242.469V256.789H329.643V247.475L325.807 256.789H323.632L319.775 247.475V256.789H316.903V242.469H320.165L324.719 253.117L329.274 242.469H332.515ZM334.616 251.065C334.616 249.916 334.842 248.897 335.293 248.008C335.758 247.119 336.38 246.436 337.16 245.957C337.953 245.478 338.835 245.239 339.807 245.239C340.655 245.239 341.393 245.41 342.022 245.752C342.665 246.094 343.178 246.525 343.561 247.044V245.424H346.454V256.789H343.561V255.127C343.192 255.661 342.679 256.105 342.022 256.461C341.379 256.803 340.634 256.974 339.786 256.974C338.829 256.974 337.953 256.728 337.16 256.235C336.38 255.743 335.758 255.052 335.293 254.163C334.842 253.26 334.616 252.228 334.616 251.065ZM343.561 251.106C343.561 250.409 343.424 249.814 343.151 249.321C342.877 248.815 342.508 248.432 342.043 248.173C341.578 247.899 341.078 247.762 340.545 247.762C340.012 247.762 339.519 247.892 339.068 248.152C338.617 248.412 338.247 248.795 337.96 249.301C337.687 249.793 337.55 250.381 337.55 251.065C337.55 251.749 337.687 252.351 337.96 252.871C338.247 253.377 338.617 253.766 339.068 254.04C339.533 254.314 340.025 254.45 340.545 254.45C341.078 254.45 341.578 254.32 342.043 254.061C342.508 253.787 342.877 253.404 343.151 252.912C343.424 252.406 343.561 251.804 343.561 251.106ZM350.715 244.07C350.209 244.07 349.785 243.912 349.443 243.598C349.115 243.269 348.951 242.866 348.951 242.387C348.951 241.909 349.115 241.512 349.443 241.197C349.785 240.869 350.209 240.705 350.715 240.705C351.221 240.705 351.638 240.869 351.967 241.197C352.309 241.512 352.48 241.909 352.48 242.387C352.48 242.866 352.309 243.269 351.967 243.598C351.638 243.912 351.221 244.07 350.715 244.07ZM352.131 245.424V256.789H349.259V245.424H352.131ZM361.267 245.259C362.621 245.259 363.715 245.69 364.549 246.552C365.383 247.4 365.801 248.59 365.801 250.122V256.789H362.928V250.511C362.928 249.609 362.703 248.918 362.251 248.439C361.8 247.947 361.185 247.701 360.405 247.701C359.612 247.701 358.983 247.947 358.518 248.439C358.066 248.918 357.841 249.609 357.841 250.511V256.789H354.969V245.424H357.841V246.839C358.224 246.347 358.709 245.964 359.297 245.69C359.899 245.403 360.556 245.259 361.267 245.259ZM372.881 256.974C371.951 256.974 371.117 256.81 370.378 256.481C369.64 256.139 369.052 255.681 368.614 255.107C368.19 254.532 367.957 253.896 367.916 253.199H370.809C370.864 253.637 371.076 253.999 371.445 254.286C371.828 254.573 372.3 254.717 372.861 254.717C373.408 254.717 373.832 254.608 374.133 254.389C374.447 254.17 374.604 253.89 374.604 253.548C374.604 253.178 374.413 252.905 374.03 252.727C373.661 252.536 373.066 252.33 372.245 252.112C371.397 251.906 370.7 251.694 370.153 251.476C369.619 251.257 369.154 250.922 368.758 250.47C368.375 250.019 368.183 249.41 368.183 248.644C368.183 248.015 368.361 247.441 368.717 246.921C369.086 246.401 369.606 245.991 370.276 245.69C370.96 245.389 371.76 245.239 372.676 245.239C374.03 245.239 375.11 245.581 375.917 246.265C376.724 246.935 377.169 247.844 377.251 248.993H374.502C374.461 248.542 374.269 248.186 373.927 247.926C373.599 247.653 373.155 247.516 372.594 247.516C372.074 247.516 371.671 247.612 371.384 247.803C371.11 247.995 370.973 248.262 370.973 248.603C370.973 248.986 371.165 249.28 371.548 249.486C371.931 249.677 372.526 249.875 373.332 250.081C374.153 250.286 374.83 250.498 375.363 250.717C375.897 250.935 376.355 251.277 376.738 251.742C377.135 252.194 377.34 252.795 377.353 253.548C377.353 254.204 377.169 254.792 376.8 255.312C376.444 255.832 375.924 256.242 375.24 256.543C374.57 256.83 373.784 256.974 372.881 256.974ZM383.055 247.783V253.281C383.055 253.664 383.144 253.944 383.322 254.122C383.513 254.286 383.828 254.368 384.266 254.368H385.599V256.789H383.794C381.373 256.789 380.162 255.613 380.162 253.26V247.783H378.808V245.424H380.162V242.613H383.055V245.424H385.599V247.783H383.055ZM390.537 247.188C390.906 246.586 391.385 246.114 391.973 245.772C392.575 245.43 393.259 245.259 394.025 245.259V248.275H393.266C392.363 248.275 391.679 248.487 391.214 248.911C390.763 249.335 390.537 250.074 390.537 251.127V256.789H387.665V245.424H390.537V247.188ZM406.525 250.86C406.525 251.27 406.497 251.64 406.442 251.968H398.134C398.202 252.789 398.489 253.431 398.995 253.896C399.501 254.361 400.124 254.594 400.862 254.594C401.929 254.594 402.688 254.136 403.14 253.219H406.237C405.909 254.314 405.28 255.216 404.35 255.927C403.42 256.625 402.278 256.974 400.924 256.974C399.83 256.974 398.845 256.734 397.97 256.256C397.108 255.763 396.431 255.073 395.939 254.184C395.46 253.295 395.221 252.269 395.221 251.106C395.221 249.93 395.46 248.897 395.939 248.008C396.417 247.119 397.087 246.436 397.949 245.957C398.811 245.478 399.802 245.239 400.924 245.239C402.004 245.239 402.969 245.471 403.817 245.936C404.678 246.401 405.341 247.065 405.806 247.926C406.285 248.774 406.525 249.752 406.525 250.86ZM403.55 250.04C403.536 249.301 403.269 248.713 402.75 248.275C402.23 247.824 401.594 247.598 400.842 247.598C400.131 247.598 399.529 247.817 399.036 248.255C398.558 248.679 398.264 249.274 398.154 250.04H403.55ZM407.882 251.065C407.882 249.916 408.108 248.897 408.559 248.008C409.024 247.119 409.647 246.436 410.426 245.957C411.22 245.478 412.102 245.239 413.073 245.239C413.921 245.239 414.659 245.41 415.288 245.752C415.931 246.094 416.444 246.525 416.827 247.044V245.424H419.72V256.789H416.827V255.127C416.458 255.661 415.945 256.105 415.288 256.461C414.646 256.803 413.9 256.974 413.052 256.974C412.095 256.974 411.22 256.728 410.426 256.235C409.647 255.743 409.024 255.052 408.559 254.163C408.108 253.26 407.882 252.228 407.882 251.065ZM416.827 251.106C416.827 250.409 416.69 249.814 416.417 249.321C416.143 248.815 415.774 248.432 415.309 248.173C414.844 247.899 414.345 247.762 413.811 247.762C413.278 247.762 412.786 247.892 412.334 248.152C411.883 248.412 411.514 248.795 411.226 249.301C410.953 249.793 410.816 250.381 410.816 251.065C410.816 251.749 410.953 252.351 411.226 252.871C411.514 253.377 411.883 253.766 412.334 254.04C412.799 254.314 413.292 254.45 413.811 254.45C414.345 254.45 414.844 254.32 415.309 254.061C415.774 253.787 416.143 253.404 416.417 252.912C416.69 252.406 416.827 251.804 416.827 251.106ZM436.639 245.259C438.035 245.259 439.156 245.69 440.004 246.552C440.866 247.4 441.296 248.59 441.296 250.122V256.789H438.424V250.511C438.424 249.622 438.199 248.945 437.747 248.48C437.296 248.002 436.68 247.762 435.901 247.762C435.121 247.762 434.499 248.002 434.034 248.48C433.583 248.945 433.357 249.622 433.357 250.511V256.789H430.485V250.511C430.485 249.622 430.259 248.945 429.808 248.48C429.357 248.002 428.741 247.762 427.961 247.762C427.168 247.762 426.539 248.002 426.074 248.48C425.623 248.945 425.397 249.622 425.397 250.511V256.789H422.525V245.424H425.397V246.798C425.766 246.319 426.238 245.943 426.813 245.67C427.401 245.396 428.044 245.259 428.741 245.259C429.63 245.259 430.423 245.451 431.121 245.834C431.818 246.203 432.359 246.737 432.742 247.434C433.111 246.778 433.644 246.251 434.342 245.854C435.053 245.458 435.819 245.259 436.639 245.259Z" fill="#A30603"/>
<path d="M223.137 215.602L130.949 109.953L132.549 108.557L233.136 206.877L228.136 211.24L223.137 215.602Z" fill="#0A0A0A" stroke="black" stroke-width="1.02577"/>
<path d="M223.09 215.641L130.902 109.992L129.303 111.388L213.092 224.366L223.09 215.641Z" fill="#4B4B4B" stroke="#383838" stroke-width="1.02577"/>
<path d="M215.091 205.944C210.643 209.825 207.919 215.314 207.519 221.204C207.118 227.094 209.073 232.901 212.954 237.349C216.835 241.797 222.325 244.521 228.214 244.921C234.104 245.322 239.911 243.367 244.359 239.486L229.725 222.715L215.091 205.944Z" fill="#4B4B4B" stroke="#383838" stroke-width="1.02577"/>
<path d="M215.096 205.946C219.544 202.065 225.352 200.11 231.241 200.511C237.131 200.911 242.62 203.635 246.501 208.083C250.382 212.531 252.338 218.339 251.937 224.228C251.536 230.118 248.812 235.607 244.364 239.488L229.73 222.717L215.096 205.946Z" fill="#0A0A0A" stroke="black" stroke-width="1.02577"/>
<path d="M213.314 188.227L227.121 201.717L218.528 209.093L206.026 194.766L213.314 188.227Z" fill="#0A0A0A"/>
<path d="M197.311 202.201L208.826 217.715L217.442 209.932L204.996 195.668L197.311 202.201Z" fill="#4B4B4B"/>
<path d="M131.312 110.289L130.835 110.706L217.488 210.096L218.007 209.643L131.312 110.289Z" fill="#4B4B4B"/>
<path d="M130.648 109.531L130.171 109.948L130.805 110.76L131.324 110.307L130.648 109.531Z" fill="#383838"/>
<path d="M131.318 110.29L131.837 109.837L218.578 209.151L218.013 209.644L131.318 110.29Z" fill="#0A0A0A"/>
<path d="M130.65 109.524L131.169 109.071L131.891 109.806L131.327 110.299L130.65 109.524Z" fill="black"/>
<circle cx="229.457" cy="222.943" r="17.0369" transform="rotate(-41.1075 229.457 222.943)" fill="url(#paint5_linear_1538_14747)" stroke="url(#paint6_linear_1538_14747)" stroke-width="1.02577"/>
</g>
<defs>
<filter id="filter0_d_1538_14747" x="-7.58692" y="212.048" width="471.7" height="58.0254" filterUnits="userSpaceOnUse" color-interpolation-filters="sRGB">
<feFlood flood-opacity="0" result="BackgroundImageFix"/>
<feColorMatrix in="SourceAlpha" type="matrix" values="0 0 0 0 0 0 0 0 0 0 0 0 0 0 0 0 0 0 127 0" result="hardAlpha"/>
<feOffset dy="-6.70858"/>
<feGaussianBlur stdDeviation="4.00049"/>
<feComposite in2="hardAlpha" operator="out"/>
<feColorMatrix type="matrix" values="0 0 0 0 0 0 0 0 0 0 0 0 0 0 0 0 0 0 0.1 0"/>
<feBlend mode="normal" in2="BackgroundImageFix" result="effect1_dropShadow_1538_14747"/>
<feBlend mode="normal" in="SourceGraphic" in2="effect1_dropShadow_1538_14747" result="shape"/>
</filter>
<filter id="filter1_d_1538_14747" x="-7.58692" y="-0.507812" width="471.644" height="249.156" filterUnits="userSpaceOnUse" color-interpolation-filters="sRGB">
<feFlood flood-opacity="0" result="BackgroundImageFix"/>
<feColorMatrix in="SourceAlpha" type="matrix" values="0 0 0 0 0 0 0 0 0 0 0 0 0 0 0 0 0 0 127 0" result="hardAlpha"/>
<feOffset dy="13.335"/>
<feGaussianBlur stdDeviation="4.00049"/>
<feComposite in2="hardAlpha" operator="out"/>
<feColorMatrix type="matrix" values="0 0 0 0 0 0 0 0 0 0 0 0 0 0 0 0 0 0 0.1 0"/>
<feBlend mode="normal" in2="BackgroundImageFix" result="effect1_dropShadow_1538_14747"/>
<feBlend mode="normal" in="SourceGraphic" in2="effect1_dropShadow_1538_14747" result="shape"/>
</filter>
<linearGradient id="paint0_linear_1538_14747" x1="323.39" y1="202.776" x2="446.166" y2="158.616" gradientUnits="userSpaceOnUse">
<stop stop-color="#E5221E"/>
<stop offset="1" stop-color="#A30603"/>
</linearGradient>
<linearGradient id="paint1_linear_1538_14747" x1="365.216" y1="43.1426" x2="288.631" y2="148.411" gradientUnits="userSpaceOnUse">
<stop stop-color="#C35800"/>
<stop offset="1" stop-color="#FF7300"/>
</linearGradient>
<linearGradient id="paint2_linear_1538_14747" x1="228.459" y1="27.9141" x2="228.459" y2="133.035" gradientUnits="userSpaceOnUse">
<stop stop-color="#D9A300"/>
<stop offset="1" stop-color="#FEBF00"/>
</linearGradient>
<linearGradient id="paint3_linear_1538_14747" x1="102.791" y1="60.0759" x2="168.371" y2="149.923" gradientUnits="userSpaceOnUse">
<stop stop-color="#C2D409"/>
<stop offset="1" stop-color="#C8DC00"/>
</linearGradient>
<linearGradient id="paint4_linear_1538_14747" x1="133.905" y1="196.311" x2="28.7266" y2="156.636" gradientUnits="userSpaceOnUse">
<stop stop-color="#78C322"/>
<stop offset="1" stop-color="#549509"/>
</linearGradient>
<linearGradient id="paint5_linear_1538_14747" x1="211.907" y1="222.943" x2="247.007" y2="222.943" gradientUnits="userSpaceOnUse">
<stop stop-color="#0B0B0B"/>
<stop offset="1" stop-color="#555555"/>
</linearGradient>
<linearGradient id="paint6_linear_1538_14747" x1="211.907" y1="222.943" x2="247.007" y2="222.943" gradientUnits="userSpaceOnUse">
<stop stop-color="#383737"/>
<stop offset="1" stop-color="#666666"/>
</linearGradient>
<clipPath id="clip0_1538_14747">
<rect width="456.214" height="268.126" fill="white"/>
</clipPath>
</defs>
</svg>
