<svg width="500" height="407" viewBox="0 0 500 407" fill="none" xmlns="http://www.w3.org/2000/svg">
<g clip-path="url(#clip0_1_20979)">
<path d="M417.878 362.404C378.8 354.306 330.994 345.629 296.943 358.769C180.894 403.509 215.694 552.986 215.798 553.341C215.686 552.912 215.663 552.692 215.656 552.619" stroke="#DDEAFB" stroke-width="2.65024" stroke-linecap="round" stroke-linejoin="round"/>
<path d="M556.434 367.469C532.552 371.753 508.404 373.469 484.392 372.622" stroke="#DDEAFB" stroke-width="2.65024" stroke-linecap="round" stroke-linejoin="round"/>
<path d="M125.426 514.614C125.654 452.06 150.688 385.062 168.589 355.523C190.961 318.562 222.865 288.615 263.37 266.44C315.581 237.907 381.094 251.436 433.702 262.344C454.239 266.631 473.668 270.587 488.716 271.193C523.6 272.548 560.268 266.498 594.761 253.729C635.015 238.843 672.321 214.981 704.468 183.499C741.75 147.094 772.666 100.513 796.326 44.8811C823.13 -18.0169 840.75 -92.993 848.815 -177.817" stroke="#DDEAFB" stroke-width="2.65024" stroke-linecap="round" stroke-linejoin="round"/>
<path d="M205.617 382.721C204.456 384.491 203.362 386.249 202.275 388.08C188.051 411.605 178.524 438.947 174.021 469.378C166.255 522.109 176.143 565.584 176.255 566.013" stroke="#DDEAFB" stroke-width="2.65024" stroke-linecap="round" stroke-linejoin="round"/>
<path d="M-76.6501 340.396C-73.8943 309.969 -67.3351 279.928 -57.2112 251.213C-47.3488 223.215 -34.1045 196.723 -17.8643 172.55C-1.79925 148.631 17.0789 127.214 38.303 108.975C59.6515 90.6395 83.2444 75.7996 108.269 65.0437" stroke="#DDEAFB" stroke-width="2.65024" stroke-linecap="round" stroke-linejoin="round"/>
<path d="M-69.354 461.848C-67.4076 415.203 -59.1112 368.879 -44.7085 324.41C-30.8137 281.523 -11.2291 241.012 13.4487 204.25C37.776 167.997 66.8385 135.927 99.7016 109.4C133.062 82.4867 169.874 61.6238 208.751 47.7226" stroke="#DDEAFB" stroke-width="2.65024" stroke-linecap="round" stroke-linejoin="round"/>
<path d="M-22.1732 577.811C-22.1732 577.811 -72.5626 281.357 139.626 134.08C295.146 26.117 400.127 67.6923 465.407 67.9668C542.116 68.2794 679.531 78.5461 680.781 -187.189" stroke="#DDEAFB" stroke-width="2.65024" stroke-linecap="round" stroke-linejoin="round"/>
<path d="M325.251 111.577C358.012 108.668 390.785 111.06 422.558 118.705" stroke="#DDEAFB" stroke-width="2.65024" stroke-linecap="round" stroke-linejoin="round"/>
<path d="M230.068 134.629C199.808 146.74 170.982 163.606 144.601 184.605C118.543 205.473 95.4422 230.236 76.4064 258.553C57.429 286.785 42.3005 319.727 31.2776 355.321C20.2546 390.914 13.2127 429.253 10.4084 468.278C8.79805 490.58 8.55187 512.909 9.66382 535.091" stroke="#DDEAFB" stroke-width="2.65024" stroke-linecap="round" stroke-linejoin="round"/>
<path d="M259.326 474.178C261.662 461.076 266.65 448.263 275.087 435.673C283.408 423.253 292.645 414.484 302.649 408.569C312.653 402.655 323.474 399.437 334.897 398.131C346.32 396.826 358.477 397.41 371.21 399.015C383.943 400.619 397.178 403.182 410.958 405.801C427.623 409.04 444.833 412.334 462.514 414.352C480.196 416.369 498.393 416.879 516.976 414.632" stroke="#DDEAFB" stroke-width="2.65024" stroke-linecap="round" stroke-linejoin="round"/>
<path d="M606.652 304.848C567.754 319.201 526.267 326.085 486.796 324.554C468.847 323.852 448.038 319.538 426.061 314.978C379.087 305.26 309.273 283.961 250.927 334.32" stroke="#DDEAFB" stroke-width="2.65024" stroke-linecap="round" stroke-linejoin="round"/>
<path d="M99.5388 412.813C122.759 314.088 186.42 209.406 350.985 202.2C383.429 200.766 414.488 209.953 441.886 215.591" stroke="#DDEAFB" stroke-width="2.65024" stroke-linecap="round" stroke-linejoin="round"/>
<path d="M350.566 154.77C397.429 148.524 494.491 197.968 572.007 163.336" stroke="#DDEAFB" stroke-width="2.65024" stroke-linecap="round" stroke-linejoin="round"/>
<path d="M51.9212 603.447C50.0121 595.413 44.2019 549.141 47.4308 492.192C49.4352 457.114 54.4407 423.758 62.3177 392.817C72.4445 353.122 87.4308 317.515 106.774 286.979C131.188 248.321 163.723 216.696 201.339 195.171" stroke="#DDEAFB" stroke-width="2.65024" stroke-linecap="round" stroke-linejoin="round"/>
<path d="M11.7667 302.01C11.5943 300.348 10.2427 299.211 8.74794 299.47C7.25315 299.729 6.18116 301.285 6.35358 302.947C6.526 304.608 7.87753 305.745 9.37232 305.486C10.8671 305.228 11.9391 303.671 11.7667 302.01Z" fill="#003EB3"/>
<path d="M19.245 282.118C19.0726 280.456 17.7211 279.319 16.2262 279.578C14.7314 279.837 13.6594 281.394 13.8318 283.055C14.0043 284.716 15.3558 285.853 16.8506 285.595C18.3455 285.336 19.4175 283.779 19.245 282.118Z" fill="#003EB3"/>
<path d="M15.1063 292.096C14.9339 290.435 13.5824 289.298 12.0876 289.557C10.5928 289.816 9.52075 291.372 9.69317 293.034C9.86559 294.695 11.2171 295.832 12.7119 295.573C14.2067 295.314 15.2788 293.758 15.1063 292.096Z" fill="#003EB3"/>
<path d="M181.835 108.25C181.663 106.588 180.311 105.451 178.816 105.71C177.322 105.969 176.249 107.526 176.422 109.187C176.594 110.848 177.946 111.985 179.441 111.727C180.936 111.468 182.008 109.911 181.835 108.25Z" fill="#003EB3"/>
<path d="M199.172 98.526C199 96.8646 197.648 95.7276 196.153 95.9864C194.659 96.2452 193.587 97.8018 193.759 99.4632C193.932 101.125 195.283 102.262 196.778 102.003C198.273 101.744 199.345 100.187 199.172 98.526Z" fill="#003EB3"/>
<path d="M190.242 103.134C190.07 101.473 188.718 100.336 187.223 100.594C185.729 100.853 184.657 102.41 184.829 104.071C185.001 105.733 186.353 106.87 187.848 106.611C189.342 106.352 190.414 104.795 190.242 103.134Z" fill="#003EB3"/>
<path d="M110.801 280.282C109.325 280.022 107.898 281.125 107.613 282.745C107.329 284.366 108.295 285.891 109.771 286.151C111.247 286.411 112.675 285.308 112.959 283.688C113.244 282.067 112.278 280.542 110.801 280.282Z" fill="#003EB3"/>
<path d="M122.28 263.034C120.804 262.773 119.377 263.876 119.092 265.497C118.808 267.118 119.774 268.642 121.25 268.903C122.726 269.163 124.154 268.06 124.438 266.439C124.723 264.819 123.757 263.294 122.28 263.034Z" fill="#003EB3"/>
<path d="M116.207 271.61C114.731 271.35 113.304 272.453 113.019 274.073C112.734 275.694 113.7 277.219 115.177 277.479C116.653 277.739 118.08 276.637 118.365 275.016C118.649 273.395 117.683 271.87 116.207 271.61Z" fill="#003EB3"/>
<path d="M265.517 375.084C264.275 374.19 262.596 374.591 261.767 375.98C260.937 377.369 261.271 379.22 262.513 380.115C263.754 381.009 265.433 380.608 266.263 379.219C267.092 377.83 266.758 375.978 265.517 375.084Z" fill="#003EB3"/>
<path d="M281.917 363.845C280.675 362.951 278.997 363.352 278.167 364.741C277.337 366.131 277.671 367.982 278.913 368.876C280.154 369.77 281.833 369.369 282.663 367.98C283.492 366.591 283.158 364.74 281.917 363.845Z" fill="#003EB3"/>
<path d="M273.373 369.239C272.131 368.345 270.452 368.746 269.623 370.136C268.793 371.525 269.127 373.376 270.369 374.27C271.61 375.165 273.289 374.763 274.118 373.374C274.948 371.985 274.614 370.134 273.373 369.239Z" fill="#003EB3"/>
<path d="M384.511 355.419C384.081 353.828 382.592 352.969 381.186 353.499C379.779 354.03 378.987 355.75 379.417 357.341C379.847 358.932 381.336 359.791 382.743 359.261C384.15 358.73 384.941 357.01 384.511 355.419Z" fill="#003EB3"/>
<path d="M403.078 358.257C402.648 356.666 401.159 355.807 399.753 356.338C398.346 356.868 397.554 358.588 397.984 360.179C398.414 361.77 399.903 362.63 401.31 362.099C402.717 361.568 403.508 359.848 403.078 358.257Z" fill="#003EB3"/>
<path d="M393.688 356.444C393.258 354.854 391.769 353.994 390.362 354.525C388.956 355.056 388.164 356.776 388.594 358.367C389.024 359.958 390.513 360.817 391.92 360.286C393.326 359.755 394.118 358.035 393.688 356.444Z" fill="#003EB3"/>
<path d="M442.943 66.4788C442.77 64.8174 441.419 63.6804 439.924 63.9392C438.429 64.198 437.357 65.7546 437.529 67.416C437.702 69.0774 439.053 70.2144 440.548 69.9556C442.043 69.6968 443.115 68.1402 442.943 66.4788Z" fill="#003EB3"/>
<path d="M422.268 64.7554C422.095 63.094 420.744 61.957 419.249 62.2158C417.754 62.4746 416.682 64.0312 416.854 65.6926C417.027 67.354 418.378 68.491 419.873 68.2322C421.368 67.9734 422.44 66.4168 422.268 64.7554Z" fill="#003EB3"/>
<path d="M432.568 65.5863C432.396 63.925 431.044 62.788 429.55 63.0467C428.055 63.3055 426.983 64.8621 427.155 66.5235C427.327 68.1849 428.679 69.3219 430.174 69.0631C431.669 68.8043 432.741 67.2477 432.568 65.5863Z" fill="#003EB3"/>
<path d="M364.405 247.623C362.944 247.285 361.467 248.348 361.108 249.995C360.748 251.642 361.64 253.251 363.101 253.588C364.562 253.925 366.039 252.863 366.399 251.216C366.759 249.568 365.866 247.96 364.405 247.623Z" fill="#003EB3"/>
<path d="M343.663 246.53C342.202 246.193 340.726 247.255 340.366 248.902C340.006 250.55 340.898 252.158 342.359 252.495C343.82 252.833 345.297 251.77 345.657 250.123C346.017 248.476 345.124 246.867 343.663 246.53Z" fill="#003EB3"/>
<path d="M354.071 246.77C352.609 246.433 351.133 247.495 350.773 249.143C350.413 250.79 351.306 252.399 352.767 252.736C354.228 253.073 355.704 252.011 356.064 250.364C356.424 248.716 355.532 247.107 354.071 246.77Z" fill="#003EB3"/>
<path d="M176.926 343.543C176.272 342.059 174.67 341.481 173.348 342.252C172.026 343.022 171.484 344.85 172.138 346.334C172.791 347.819 174.393 348.397 175.715 347.626C177.037 346.855 177.579 345.027 176.926 343.543Z" fill="#003EB3"/>
<path d="M166.185 363.781C165.531 362.297 163.929 361.719 162.607 362.489C161.285 363.26 160.743 365.088 161.397 366.572C162.051 368.056 163.652 368.635 164.975 367.864C166.297 367.093 166.839 365.265 166.185 363.781Z" fill="#003EB3"/>
<path d="M171.38 353.539C170.727 352.054 169.125 351.476 167.803 352.247C166.481 353.018 165.939 354.846 166.592 356.33C167.246 357.814 168.848 358.392 170.17 357.621C171.492 356.851 172.034 355.023 171.38 353.539Z" fill="#003EB3"/>
</g>
<defs>
<clipPath id="clip0_1_20979">
<rect width="500" height="407" fill="white"/>
</clipPath>
</defs>
</svg>
