<svg xmlns="http://www.w3.org/2000/svg" xmlns:xlink="http://www.w3.org/1999/xlink"><defs><style>
    .sprite-symbol-usage {display: none;}
    .sprite-symbol-usage:target {display: inline;}
  </style><symbol viewBox="0 0 57 34.64" id="arrow"><path d="M3 14.32H0v6h3v-6Zm54 3L27 0v34.64l30-17.32Zm-54 3h27v-6H3v6Z" fill="#141313" /></symbol><symbol fill="none" viewBox="0 0 24 24" id="back-arrow"><g clip-path="url(#back-arrow_a)"><path d="M16.62 2.99a1.25 1.25 0 0 0-1.77 0L6.54 11.3a.996.996 0 0 0 0 1.41l8.31 8.31c.49.49 1.28.49 1.77 0s.49-1.28 0-1.77L9.38 12l7.25-7.25c.48-.48.48-1.28-.01-1.76Z" fill="currentColor" /></g><defs></defs></symbol><clipPath id="back-arrow_a"><path fill="currentColor" d="M0 0h24v24H0z" /></clipPath><symbol viewBox="0 0 10.59 8.47" id="email"><path d="M9 0H1.59C1.17 0 .76.17.47.47c-.3.3-.47.7-.47 1.12v5.3c0 .42.17.83.47 1.12.3.3.7.47 1.12.47H9c.42 0 .83-.17 1.12-.47.3-.3.47-.7.47-1.12v-5.3c0-.42-.17-.83-.47-1.12C9.82.17 9.42 0 9 0Zm-.35 1.06L5.3 3.58 1.94 1.06h6.7ZM9 7.42H1.59c-.14 0-.28-.06-.37-.16-.1-.1-.16-.23-.16-.37V1.72l3.92 2.94a.517.517 0 0 0 .64 0l3.92-2.94v5.16c0 .14-.06.28-.16.37-.1.1-.23.16-.37.16Z" fill="#fff" /></symbol><symbol viewBox="0 0 21 21" id="eye-off"><defs></defs><g fill="#040404" clip-path="url(#eye-off_a)"><path d="M4.38 3.27a.8.8 0 0 0-.59-.24.8.8 0 0 0-.59.24c-.16.16-.25.37-.25.59s.09.44.25.59l4.71 4.71c-.3.55-.41 1.19-.32 1.81.09.62.38 1.2.83 1.64a3 3 0 0 0 1.64.83c.62.09 1.26-.02 1.81-.32l4.71 4.71a.8.8 0 0 0 .59.24.8.8 0 0 0 .59-.24.8.8 0 0 0 .24-.59.8.8 0 0 0-.24-.59L4.38 3.27Zm6.09 8.53c-.33 0-.65-.13-.89-.37a1.24 1.24 0 0 1-.37-.89v-.06l1.3 1.3h-.05Z" /><path d="M10.66 14.73c-3.59.08-5.95-3-6.69-4.18.52-.84 1.15-1.6 1.87-2.27L4.62 7.1c-.94.89-1.75 1.91-2.4 3.03-.07.13-.11.27-.11.42s.04.29.11.42c.53.91 3.34 5.43 8.27 5.43h.21c.93-.03 1.84-.22 2.7-.56l-1.32-1.32c-.46.12-.94.19-1.42.21Zm8.07-4.6c-.53-.93-3.49-5.58-8.48-5.43-.93.03-1.84.22-2.7.56l1.32 1.32c.46-.12.94-.19 1.42-.21 3.59-.09 5.94 3 6.69 4.18-.54.84-1.18 1.6-1.91 2.27L16.33 14c.96-.89 1.77-1.91 2.43-3.03.07-.13.1-.28.1-.42 0-.15-.05-.29-.13-.41Z" /></g></symbol><clipPath id="eye-off_a"><path fill="none" d="M.44.52H20.5v20.06H.44z" /></clipPath><symbol fill="none" viewBox="0 0 24 25" id="facebook"><path d="M12 .262c-6.614 0-12 5.385-12 12 0 6.614 5.386 12 12 12s12-5.381 12-12c0-6.62-5.38-12-12-12Zm3.326 7.118c0 .1-.081.183-.182.183h-1.445a.643.643 0 0 0-.643.643v1.512h2.069c.1.01.173.096.163.197l-.182 2.13a.183.183 0 0 1-.183.169h-1.872v7.07c0 .1-.081.183-.182.183h-2.583a.182.182 0 0 1-.182-.183v-7.08H8.813a.182.182 0 0 1-.183-.182V9.89c0-.101.082-.183.183-.183h1.291V7.654a2.593 2.593 0 0 1 2.592-2.592h2.438c.101 0 .183.081.183.182V7.38h.01Z" fill="currentColor" /></symbol><symbol viewBox="0 0 11 11" id="filter"><path d="M2 2.58c0-.43.35-.78.78-.78h5.57c.43 0 .78.35.78.78v1.07c0 .21-.08.41-.23.55L6.83 6.25s-.03.05-.03.08v1.39c0 .3-.17.57-.44.7l-.89.43a.78.78 0 0 1-1.12-.7V6.33s-.01-.06-.03-.08L2.25 4.2l.23-.24-.23.24a.78.78 0 0 1-.23-.55V2.58Zm.78-.11c-.06 0-.11.05-.11.11v1.07s.01.06.03.08l2.07 2.05c.15.15.23.35.23.55v1.82c0 .08.09.14.16.1l.89-.43s.06-.06.06-.1V6.33c0-.21.08-.41.23-.55l2.07-2.05s.03-.05.03-.08V2.58c0-.06-.05-.11-.11-.11H2.78Z" fill="#040404" fill-rule="evenodd" /></symbol><symbol viewBox="0 0 700 289.84" id="imdb"><path d="M160 283.13H97.5V3.12h95l17.5 117.5h2.5L225 3.12h95v280h-62.5v-167.5H255l-22.5 167.5H185l-25-167.5v167.5ZM345 .63c10 0 80-2.5 117.5 2.5 30 2.5 45 27.5 47.5 57.5 2.5 55 2.5 110 2.5 165 0 5 0 12.5-2.5 20-5 22.5-17.5 35-47.5 37.5-37.5 2.5-75 2.5-110 2.5h-5V.63H345Zm75 52.5v180c12.5 0 20-5 20-17.5V68.12c0-12.5-5-17.5-20-15ZM0 283.13V3.12h72.5v280H0ZM697.5 108.13c-2.5-20-15-30-35-35-20-2.5-40 0-57.5 17.5V3.12h-70v280h65c2.5-5 2.5-10 5-12.5h2.5l7.5 7.5c17.5 12.5 37.5 15 57.5 7.5 17.5-7.5 25-22.5 25-40 0-20 2.5-42.5 2.5-65 0-25 0-50-2.5-72.5Zm-70 125c0 5-5 10-10 10s-10-5-10-10v-107.5c0-5 5-10 10-10s10 5 10 10v107.5Z" /></symbol><symbol viewBox="0 0 733.33 733.33" id="instagram"><path d="M366.67 566.67c110.46 0 200-89.54 200-200s-89.54-200-200-200-200 89.54-200 200 89.54 200 200 200Zm0-66.67C440.31 500 500 440.3 500 366.67s-59.7-133.33-133.33-133.33-133.33 59.7-133.33 133.33S293.04 500 366.67 500Z" fill="currentColor" fill-rule="evenodd" /><path d="M566.67 133.33c-18.41 0-33.33 14.92-33.33 33.33s14.92 33.33 33.33 33.33S600 185.07 600 166.66s-14.92-33.33-33.33-33.33Z" fill="currentColor" /><path d="M21.8 109.2C0 151.98 0 207.99 0 320v93.33c0 112.01 0 168.02 21.8 210.8a199.962 199.962 0 0 0 87.4 87.4c42.78 21.8 98.79 21.8 210.8 21.8h93.33c112.01 0 168.02 0 210.8-21.8a199.962 199.962 0 0 0 87.4-87.4c21.8-42.78 21.8-98.79 21.8-210.8V320c0-112.01 0-168.02-21.8-210.8a199.962 199.962 0 0 0-87.4-87.4C581.35 0 525.34 0 413.33 0H320C207.99 0 151.98 0 109.2 21.8a199.962 199.962 0 0 0-87.4 87.4Zm391.53-42.54H320c-57.11 0-95.93.05-125.93 2.5-29.23 2.39-44.17 6.72-54.6 12.03a133.289 133.289 0 0 0-58.27 58.27c-5.31 10.43-9.64 25.37-12.03 54.6-2.45 30.01-2.5 68.83-2.5 125.93v93.33c0 57.11.05 95.92 2.5 125.93 2.39 29.23 6.72 44.18 12.03 54.6a133.34 133.34 0 0 0 58.27 58.27c10.43 5.31 25.37 9.64 54.6 12.03 30.01 2.45 68.83 2.5 125.93 2.5h93.33c57.11 0 95.92-.05 125.93-2.5 29.23-2.39 44.18-6.72 54.6-12.03a133.34 133.34 0 0 0 58.27-58.27c5.31-10.43 9.64-25.37 12.03-54.6 2.45-30.01 2.5-68.82 2.5-125.93v-93.33c0-57.11-.05-95.93-2.5-125.93-2.39-29.23-6.72-44.17-12.03-54.6a133.289 133.289 0 0 0-58.27-58.27c-10.43-5.31-25.37-9.64-54.6-12.03-30.01-2.45-68.82-2.5-125.93-2.5Z" fill="currentColor" fill-rule="evenodd" /></symbol><symbol fill="none" viewBox="0 0 24 24" id="linkedin"><circle cx="12" cy="12" r="12" fill="currentColor" /><path d="M7.36 5C6.54 5 6 5.56 6 6.3c0 .72.52 1.3 1.32 1.3.86 0 1.4-.58 1.38-1.3 0-.74-.52-1.3-1.34-1.3Zm7.68 3.44c-1.38 0-2.22.8-2.56 1.36h-.04l-.12-1.18H10.1c.02.76.06 1.64.06 2.68V17h2.56v-4.82c0-.24.02-.48.08-.66.2-.48.62-.98 1.32-.98.94 0 1.3.74 1.3 1.82V17H18v-4.94c0-2.48-1.28-3.62-2.96-3.62Zm-8.98.18V17h2.56V8.62H6.06Z" fill="#FEFEFE" /></symbol><symbol viewBox="0 0 21 21" id="pencil"><path d="M4.37 14.1v1.98c0 .18.14.33.33.33h1.98c.08 0 .17-.03.23-.1l7.1-7.09-2.44-2.44-7.09 7.09a.29.29 0 0 0-.1.23Zm11.51-6.77c.25-.25.25-.66 0-.92l-1.52-1.52a.658.658 0 0 0-.92 0l-1.19 1.19 2.44 2.44 1.19-1.19Z" fill="#040404" /></symbol><symbol viewBox="0 0 8.64 10.99" id="pin"><g opacity=".8" fill="#040404"><path d="M4.32 10.99c.09 0 .17-.03.24-.09.15-.13 4.08-3.3 4.08-6.59 0-1.15-.45-2.24-1.26-3.05C6.57.45 5.47 0 4.33 0S2.07.46 1.26 1.26 0 3.17 0 4.31c0 3.29 3.93 6.45 4.08 6.59.07.06.15.09.24.09ZM.79 4.32c0-.94.37-1.84 1.03-2.5.66-.66 1.56-1.03 2.5-1.03s1.84.37 2.5 1.03c.66.66 1.03 1.56 1.03 2.5 0 2.47-2.7 5.03-3.53 5.77C3.48 9.35.79 6.8.79 4.32Z" /><path d="M6.28 4.32c0-.39-.12-.77-.33-1.09-.22-.32-.52-.57-.88-.72s-.75-.19-1.13-.11c-.38.08-.73.26-1.01.54s-.46.62-.54 1.01c-.08.38-.04.78.11 1.13.15.36.4.67.72.88.32.22.7.33 1.09.33.52 0 1.02-.21 1.39-.57.37-.37.57-.87.57-1.39Zm-3.14 0c0-.23.07-.46.2-.65s.31-.34.53-.43c.22-.09.45-.11.68-.07.23.05.44.16.6.32.16.16.28.37.32.6.05.23.02.47-.07.68s-.24.4-.43.53-.42.2-.65.2c-.31 0-.61-.12-.83-.34-.22-.22-.34-.52-.34-.83Z" /></g></symbol><symbol viewBox="0 0 11 11" id="refresh"><path d="M9.07 6a.502.502 0 0 0-.34.03c-.1.05-.18.15-.22.26-.21.64-.62 1.2-1.17 1.6-.55.39-1.21.6-1.89.59-.84 0-1.64-.31-2.24-.9-.6-.58-.94-1.38-.95-2.22.01-.84.35-1.64.95-2.22.6-.58 1.41-.91 2.24-.9.76 0 1.49.26 2.07.74l-.97-.16h-.17c-.06.01-.11.04-.16.07-.05.03-.09.08-.12.13s-.05.11-.06.16v.17c.01.06.04.11.07.16.03.05.08.09.13.12s.11.05.16.06L8.29 4h.08c.05 0 .1 0 .15-.03.02 0 .03-.02.04-.03.03-.01.06-.03.09-.05l.04-.05s.04-.04.06-.07c.02-.03 0-.04.02-.06.01-.03.02-.05.03-.08l.33-1.78c.01-.06.01-.12 0-.18s-.04-.11-.07-.16a.374.374 0 0 0-.13-.12.558.558 0 0 0-.16-.07.544.544 0 0 0-.18 0c-.06.01-.11.04-.16.07-.1.07-.17.17-.19.29l-.12.65c-.75-.65-1.7-1-2.69-1-1.07 0-2.11.41-2.87 1.16-.77.75-1.2 1.78-1.22 2.85a4.063 4.063 0 0 0 4.09 4.01c.87.01 1.72-.25 2.43-.76a4.08 4.08 0 0 0 1.5-2.06c.02-.06.02-.12.02-.18s-.02-.12-.05-.17a.374.374 0 0 0-.12-.13.481.481 0 0 0-.16-.08Z" /></symbol><symbol viewBox="0 0 11 12" id="search"><path d="M7.45 7.69 9.2 9.48a.447.447 0 0 1-.32.75.43.43 0 0 1-.31-.12L6.82 8.33a3.333 3.333 0 0 1-4.53-.49c-.55-.64-.84-1.47-.81-2.32.03-.85.39-1.65.99-2.24a3.3 3.3 0 0 1 2.26-.96c.85-.02 1.67.28 2.31.84.63.56 1.03 1.34 1.11 2.19.08.84-.16 1.69-.68 2.36Zm-2.64.41c.65 0 1.27-.26 1.73-.72.46-.46.72-1.08.72-1.73S7 4.38 6.54 3.92c-.46-.46-1.08-.72-1.73-.72s-1.27.26-1.73.72S2.36 5 2.36 5.65s.26 1.27.72 1.73c.46.46 1.08.72 1.73.72Z" fill="#0a0909" fill-rule="evenodd" /></symbol><symbol viewBox="0 0 12 11" id="sort"><path d="M4.33 8.11V1.73h-.54v6.38L2.72 7.08l-.38.37 1.54 1.47c.05.05.12.08.19.08s.14-.03.19-.08L5.8 7.45l-.38-.37-1.07 1.03ZM9.6 3.27 8.06 1.8c-.05-.05-.12-.08-.19-.08s-.14.03-.19.08L6.14 3.27l.38.37 1.07-1.03v6.38h.54V2.61L9.2 3.64l.38-.37Z" fill="#040404" /></symbol><symbol viewBox="0 0 10.65 10.17" id="tel"><path d="m10.21 7.01-.95-.91c-.28-.27-.67-.42-1.07-.42s-.78.15-1.07.41c-.15.15-.35.24-.57.26a.931.931 0 0 1-.61-.15 6.213 6.213 0 0 1-1.79-1.71A.876.876 0 0 1 4 3.9c.02-.21.12-.4.27-.54a1.402 1.402 0 0 0-.01-2.03L3.31.42C3.03.15 2.64 0 2.24 0s-.79.15-1.07.42L.9.68C-.54 2.05-.43 4.91 2.54 7.74c1.79 1.71 3.59 2.42 5.05 2.42.43.01.86-.05 1.26-.2.4-.15.77-.37 1.08-.65l.27-.26c.28-.27.44-.64.44-1.02s-.16-.75-.44-1.02ZM9.6 8.48l-.27.26c-1.12 1.07-3.61.88-6.17-1.57C.58 4.71.38 2.34 1.5 1.26L1.77 1c.12-.12.29-.18.46-.18s.34.07.46.18l.95.91c.12.12.19.27.19.43 0 .16-.06.32-.18.44-.29.28-.47.65-.52 1.04-.04.39.06.79.29 1.12.54.77 1.23 1.43 2.04 1.94.35.22.76.31 1.17.28.41-.04.8-.21 1.09-.49.12-.11.29-.18.46-.18.17 0 .34.07.46.18l.95.91c.06.06.11.13.14.2.03.08.05.16.05.24 0 .08-.02.16-.05.24-.03.08-.08.15-.14.2Z" fill="#fff" /></symbol><symbol fill="none" viewBox="0 0 24 24" id="twitter"><circle cx="12" cy="12" r="12" fill="currentColor" /><path d="M18 8.065a5.24 5.24 0 0 1-1.414.358 2.32 2.32 0 0 0 1.083-1.257 5.174 5.174 0 0 1-1.564.551A2.558 2.558 0 0 0 14.308 7c-1.36 0-2.461 1.017-2.461 2.272 0 .178.021.351.063.518-2.046-.095-3.86-1-5.074-2.374a2.13 2.13 0 0 0-.333 1.142c0 .788.434 1.484 1.095 1.891a2.61 2.61 0 0 1-1.115-.284v.029c0 1.1.848 2.018 1.974 2.227a2.638 2.638 0 0 1-1.112.04c.314.902 1.223 1.559 2.3 1.577a5.206 5.206 0 0 1-3.057.973A5.3 5.3 0 0 1 6 14.98 7.395 7.395 0 0 0 9.774 16c4.527 0 7.004-3.462 7.004-6.464a5.62 5.62 0 0 0-.008-.294A4.82 4.82 0 0 0 18 8.065Z" fill="#fff" /></symbol></defs><use id="arrow-usage" xlink:href="#arrow" class="sprite-symbol-usage" /><use id="back-arrow-usage" xlink:href="#back-arrow" class="sprite-symbol-usage" /><use id="email-usage" xlink:href="#email" class="sprite-symbol-usage" /><use id="eye-off-usage" xlink:href="#eye-off" class="sprite-symbol-usage" /><use id="facebook-usage" xlink:href="#facebook" class="sprite-symbol-usage" /><use id="filter-usage" xlink:href="#filter" class="sprite-symbol-usage" /><use id="imdb-usage" xlink:href="#imdb" class="sprite-symbol-usage" /><use id="instagram-usage" xlink:href="#instagram" class="sprite-symbol-usage" /><use id="linkedin-usage" xlink:href="#linkedin" class="sprite-symbol-usage" /><use id="pencil-usage" xlink:href="#pencil" class="sprite-symbol-usage" /><use id="pin-usage" xlink:href="#pin" class="sprite-symbol-usage" /><use id="refresh-usage" xlink:href="#refresh" class="sprite-symbol-usage" /><use id="search-usage" xlink:href="#search" class="sprite-symbol-usage" /><use id="sort-usage" xlink:href="#sort" class="sprite-symbol-usage" /><use id="tel-usage" xlink:href="#tel" class="sprite-symbol-usage" /><use id="twitter-usage" xlink:href="#twitter" class="sprite-symbol-usage" /></svg>