<svg width="197" height="192" viewBox="0 0 197 192" fill="none" xmlns="http://www.w3.org/2000/svg">
<path d="M24.6189 47.2631L23.0353 46.0333L25.3328 43.0749L34.2817 50.0245L32.9089 51.7922L25.5436 46.0723L24.6189 47.2631Z" fill="black"/>
<path d="M32.2778 41.4221C31.0347 40.1306 30.2924 38.8963 30.0511 37.7192C29.8172 36.5349 30.2415 35.4217 31.324 34.3798C32.4065 33.3379 33.5312 32.96 34.6983 33.2461C35.8728 33.525 37.0816 34.3102 38.3247 35.6017C39.575 36.9007 40.3207 38.146 40.5618 39.3378C40.8103 40.5224 40.3933 41.6356 39.3108 42.6775C38.2284 43.7195 37.0963 44.0972 35.9146 43.8109C34.7404 43.5173 33.5281 42.721 32.2778 41.4221ZM36.7794 37.0891C36.2476 36.5367 35.7648 36.1098 35.3309 35.8084C34.8972 35.4923 34.4572 35.319 34.0107 35.2885C33.5718 35.2508 33.1433 35.4332 32.7252 35.8356C32.3071 36.238 32.1048 36.6628 32.1183 37.1101C32.1392 37.5502 32.2955 37.9965 32.5874 38.4491C32.8795 38.887 33.2914 39.3822 33.8231 39.9346C34.3692 40.502 34.8627 40.9475 35.3035 41.271C35.7372 41.587 36.1772 41.7603 36.6237 41.7908C37.0629 41.8139 37.4916 41.6242 37.9096 41.2218C38.3277 40.8194 38.5336 40.3983 38.5273 39.9585C38.5139 39.5112 38.3575 39.0649 38.0582 38.6195C37.7518 38.1666 37.3255 37.6565 36.7794 37.0891Z" fill="black"/>
<path d="M41.3126 33.2247C40.2754 31.7627 39.725 30.4317 39.6613 29.2318C39.6062 28.0259 40.1913 26.9882 41.4167 26.1189C42.642 25.2495 43.8105 25.0431 44.922 25.4995C46.042 25.95 47.1206 26.9062 48.1578 28.3682C49.2011 29.8387 49.7533 31.1811 49.8144 32.3954C49.884 33.6038 49.3061 34.6427 48.0808 35.512C46.8554 36.3814 45.6797 36.5866 44.5537 36.1277C43.4362 35.6628 42.3558 34.6951 41.3126 33.2247ZM46.4085 29.6093C45.9648 28.984 45.5508 28.49 45.1666 28.1274C44.7847 27.7504 44.3753 27.5136 43.9384 27.417C43.5099 27.3144 43.0591 27.4311 42.5858 27.7668C42.1126 28.1026 41.8493 28.4926 41.7961 28.9369C41.7513 29.3752 41.8396 29.8398 42.0609 30.3308C42.2846 30.8073 42.6183 31.3582 43.0619 31.9836C43.5176 32.6258 43.9394 33.1397 44.3272 33.5252C44.709 33.9022 45.1184 34.139 45.5553 34.2356C45.9863 34.3237 46.4384 34.1999 46.9116 33.8641C47.3849 33.5284 47.6511 33.1426 47.7103 32.7067C47.7635 32.2624 47.6753 31.7978 47.4456 31.3128C47.2099 30.8194 46.8642 30.2516 46.4085 29.6093Z" fill="black"/>
<path d="M52.0083 22.153C51.7116 21.4235 51.6905 20.7666 51.945 20.1821C52.209 19.5937 52.677 19.1629 53.3489 18.8896C54.0208 18.6164 54.6518 18.6002 55.242 18.8412C55.8417 19.0783 56.29 19.5615 56.5866 20.291C56.8872 21.0301 56.9055 21.6938 56.6414 22.2822C56.3869 22.8667 55.9238 23.2955 55.2519 23.5688C54.58 23.842 53.9442 23.8601 53.3444 23.6231C52.7542 23.3821 52.3088 22.8921 52.0083 22.153ZM60.3731 16.2343L58.8137 28.6136L56.8556 29.4099L58.4007 17.0364L60.3731 16.2343ZM53.8263 20.1049C53.2984 20.3196 53.1867 20.8012 53.4912 21.5499C53.7996 22.3082 54.2177 22.58 54.7456 22.3653C55.0048 22.2599 55.1693 22.0867 55.2391 21.8458C55.305 21.5953 55.2599 21.278 55.1037 20.8941C54.7992 20.1454 54.3734 19.8824 53.8263 20.1049ZM60.665 25.3271C60.3644 24.588 60.3433 23.931 60.6017 23.3562C60.8658 22.7678 61.3338 22.3369 62.0056 22.0637C62.6775 21.7904 63.3037 21.7763 63.8843 22.0211C64.4706 22.2525 64.914 22.7377 65.2146 23.4768C65.5152 24.2159 65.5382 24.8776 65.2837 25.4621C65.0389 26.0427 64.5805 26.4696 63.9086 26.7429C63.2271 27.02 62.5913 27.0381 62.0011 26.7971C61.411 26.5562 60.9656 26.0661 60.665 25.3271ZM62.4831 23.2789C61.936 23.5014 61.8147 23.987 62.1191 24.7357C62.4275 25.494 62.8553 25.7618 63.4024 25.5393C63.9399 25.3207 64.0544 24.8323 63.7461 24.074C63.4416 23.3254 63.0206 23.0603 62.4831 23.2789Z" fill="black"/>
<path d="M85.9503 7.54104L87.4512 18.2854L85.2962 18.5864L84.3199 11.598L82.4176 18.9885L80.786 19.2165L76.9159 12.6323L77.8921 19.6207L75.7371 19.9218L74.2362 9.17739L76.6837 8.8355L81.2169 16.3471L83.5182 7.88078L85.9503 7.54104Z" fill="black"/>
<path d="M93.7791 17.6155C92.9501 17.6208 92.2029 17.4442 91.5375 17.0858C90.872 16.717 90.3454 16.1971 89.9577 15.5261C89.5804 14.855 89.3889 14.079 89.3833 13.1983C89.3776 12.3176 89.5644 11.5392 89.9434 10.8633C90.3329 10.1873 90.8632 9.6658 91.5344 9.29885C92.2055 8.92153 92.9555 8.73022 93.7844 8.72492C94.6133 8.71962 95.3657 8.90133 96.0416 9.27004C96.7174 9.62838 97.2492 10.1431 97.6368 10.8141C98.0349 11.4851 98.2367 12.261 98.2423 13.1417C98.248 14.0224 98.0509 14.8008 97.6511 15.4769C97.2617 16.1529 96.7262 16.6796 96.0447 17.057C95.3736 17.4239 94.6183 17.6101 93.7791 17.6155ZM93.7669 15.7193C94.1607 15.7168 94.5279 15.6212 94.8686 15.4325C95.2197 15.2334 95.4976 14.9415 95.7024 14.5568C95.9071 14.1721 96.0078 13.7051 96.0043 13.156C95.999 12.3374 95.7774 11.712 95.3395 11.2796C94.9118 10.8367 94.3871 10.6173 93.7654 10.6213C93.1437 10.6252 92.6219 10.8514 92.1999 11.2996C91.7883 11.7375 91.585 12.3656 91.5903 13.1842C91.5955 14.0028 91.8016 14.6335 92.2085 15.0765C92.6258 15.509 93.1452 15.7233 93.7669 15.7193Z" fill="black"/>
<path d="M106.006 8.76765C107.031 8.80565 107.847 9.16252 108.455 9.83827C109.062 10.5037 109.345 11.4162 109.302 12.5759L109.115 17.6238L106.94 17.5432L107.116 12.7904C107.142 12.107 106.99 11.5778 106.662 11.2027C106.334 10.8173 105.875 10.6136 105.285 10.5918C104.684 10.5695 104.201 10.7382 103.835 11.098C103.48 11.4477 103.29 11.9643 103.265 12.6477L103.088 17.4004L100.914 17.3198L101.233 8.71517L103.407 8.79577L103.368 9.86747C103.671 9.50545 104.05 9.22915 104.503 9.03856C104.966 8.838 105.467 8.7477 106.006 8.76765Z" fill="black"/>
<path d="M120.878 15.7046C120.799 16.0052 120.708 16.2706 120.605 16.5006L114.516 14.9029C114.408 15.5173 114.495 16.0436 114.777 16.4817C115.058 16.9198 115.469 17.2098 116.01 17.3518C116.792 17.557 117.437 17.3672 117.943 16.7825L120.214 17.3782C119.763 18.1169 119.128 18.6574 118.31 18.9997C117.494 19.332 116.59 19.3679 115.598 19.1076C114.796 18.8972 114.121 18.5324 113.571 18.0133C113.034 17.4868 112.671 16.8505 112.481 16.1044C112.301 15.3609 112.323 14.5632 112.547 13.7113C112.773 12.8493 113.147 12.1387 113.669 11.5793C114.19 11.0199 114.813 10.6476 115.537 10.4625C116.26 10.2774 117.033 10.2927 117.854 10.5084C118.646 10.7162 119.308 11.072 119.84 11.5758C120.382 12.0822 120.741 12.6959 120.916 13.4167C121.103 14.1301 121.091 14.8928 120.878 15.7046ZM118.856 14.5312C118.988 13.9874 118.905 13.5051 118.609 13.0845C118.315 12.6538 117.892 12.3661 117.341 12.2215C116.82 12.0847 116.336 12.1293 115.891 12.3554C115.459 12.574 115.129 12.9534 114.902 13.4937L118.856 14.5312Z" fill="black"/>
<path d="M122.198 23.6577C121.947 23.554 121.722 23.4375 121.525 23.3084C121.329 23.1841 121.179 23.0705 121.074 22.9676L122.096 21.7051C122.332 21.8941 122.557 22.0303 122.769 22.1138C122.981 22.1973 123.194 22.2074 123.407 22.144C123.622 22.0854 123.847 21.9312 124.081 21.6815L124.414 21.3231L124.868 12.1502L126.828 12.9576L126.196 19.6216L126.277 19.6553L130.528 14.482L132.493 15.2915L125.733 22.7861C125.416 23.1409 125.076 23.4165 124.712 23.6129C124.347 23.8128 123.957 23.9188 123.542 23.9309C123.13 23.9478 122.682 23.8568 122.198 23.6577Z" fill="black"/>
<path d="M146.448 24.4367C146.89 24.8738 147.135 25.4087 147.182 26.0412C147.23 26.6738 147.073 27.2561 146.713 27.7881C146.388 28.2686 145.98 28.612 145.49 28.8183C145.014 29.0218 144.484 29.0755 143.898 28.9793C143.313 28.8832 142.715 28.6289 142.106 28.2164L138.232 25.5937L144.314 16.6102L148.021 19.1197C148.63 19.5322 149.087 19.9852 149.391 20.4788C149.703 20.9782 149.852 21.4793 149.837 21.9822C149.83 22.4908 149.676 22.9682 149.374 23.4144C149.02 23.9377 148.582 24.2795 148.06 24.4396C147.548 24.6055 147.01 24.6045 146.448 24.4367ZM143.606 21.5368L145.254 22.6521C145.683 22.9425 146.077 23.0718 146.437 23.0399C146.802 22.9994 147.106 22.799 147.35 22.4386C147.594 22.0782 147.667 21.7209 147.569 21.3668C147.471 21.0126 147.208 20.6902 146.779 20.3998L145.131 19.2845L143.606 21.5368ZM142.842 26.575C143.28 26.8712 143.688 26.9977 144.068 26.9545C144.456 26.917 144.778 26.7095 145.034 26.332C145.295 25.9459 145.37 25.5584 145.257 25.1696C145.151 24.7723 144.879 24.4255 144.442 24.1292L142.665 22.9267L141.027 25.3464L142.842 26.575Z" fill="black"/>
<path d="M149.919 27.7524C150.499 27.1032 151.14 26.6412 151.844 26.3666C152.555 26.0988 153.252 26.0264 153.934 26.1492C154.624 26.279 155.243 26.5889 155.792 27.0789C156.271 27.5067 156.602 27.976 156.785 28.4867C156.976 29.0043 157.049 29.5065 157.003 29.9935L157.821 29.0776L159.455 30.5372L153.72 36.96L152.086 35.5004L152.924 34.5613C152.446 34.6764 151.932 34.6688 151.382 34.5385C150.846 34.4074 150.339 34.1279 149.859 33.7C149.318 33.2169 148.948 32.6361 148.748 31.9576C148.556 31.286 148.553 30.5817 148.739 29.8446C148.939 29.1068 149.332 28.4094 149.919 27.7524ZM154.953 32.289C155.305 31.8948 155.528 31.4896 155.622 31.0733C155.723 30.6493 155.707 30.2466 155.576 29.8651C155.451 29.4759 155.238 29.1467 154.936 28.8775C154.635 28.6084 154.291 28.4334 153.905 28.3525C153.519 28.2716 153.117 28.3017 152.699 28.4427C152.296 28.5829 151.922 28.8463 151.577 29.2327C151.232 29.6192 151.006 30.0283 150.898 30.46C150.805 30.8909 150.817 31.2975 150.934 31.6798C151.059 32.069 151.268 32.3948 151.562 32.657C151.863 32.9262 152.211 33.1046 152.605 33.1924C153.005 33.2725 153.407 33.2424 153.81 33.1022C154.22 32.9542 154.601 32.6832 154.953 32.289Z" fill="black"/>
<path d="M158.881 35.8735C159.557 35.2926 160.264 34.9236 161.003 34.7663C161.75 34.6023 162.471 34.6457 163.165 34.8965C163.866 35.1405 164.487 35.5768 165.028 36.2054C165.723 37.0147 166.093 37.8583 166.137 38.7359C166.196 39.6147 165.937 40.4586 165.362 41.2675L163.832 39.4877C164.034 39.1503 164.115 38.8 164.077 38.4371C164.053 38.0752 163.899 37.7293 163.615 37.3993C163.21 36.9278 162.716 36.7032 162.134 36.7253C161.56 36.7408 160.958 37.0186 160.33 37.559C159.709 38.0926 159.344 38.6455 159.234 39.2177C159.133 39.7832 159.285 40.3016 159.69 40.7731C160.264 41.441 160.938 41.6204 161.71 41.3114L163.24 43.0911C162.378 43.5183 161.509 43.6437 160.633 43.4674C159.757 43.291 158.975 42.8021 158.286 42.0006C157.746 41.372 157.403 40.6959 157.26 39.9724C157.124 39.242 157.189 38.5232 157.456 37.8159C157.73 37.1019 158.205 36.4544 158.881 35.8735Z" fill="black"/>
<path d="M165.953 51.2926L167.354 46.8169L164.316 48.8725L163.096 47.0703L172.622 40.6249L173.841 42.427L168.422 46.094L173.067 46.4414L174.652 48.7842L168.949 48.0647L167.538 53.6354L165.953 51.2926Z" fill="black"/>
<path d="M167 96.5723C167 134.404 136.332 165.072 98.5 165.072C60.6685 165.072 30 134.404 30 96.5723C30 58.7408 60.6685 28.0723 98.5 28.0723C136.332 28.0723 167 58.7408 167 96.5723Z" fill="#FFBD00"/>
<path d="M58.6828 169.477C58.7184 168.95 58.6145 168.466 58.3713 168.024C58.128 167.582 57.7575 167.202 57.2597 166.886C56.7086 166.535 56.1404 166.348 55.5554 166.325C54.9703 166.303 54.4106 166.446 53.8765 166.756C53.3423 167.065 52.8828 167.522 52.4982 168.127C52.1022 168.749 51.8771 169.368 51.8229 169.983C51.7777 170.603 51.8936 171.177 52.1708 171.703C52.448 172.229 52.8755 172.676 53.4533 173.043C54.1644 173.496 54.8655 173.68 55.5565 173.595C56.2531 173.501 56.8875 173.162 57.4596 172.577L54.2595 170.54L55.1674 169.113L60.2077 172.321L59.1724 173.948C58.635 174.518 57.9865 174.948 57.2268 175.239C56.4672 175.53 55.6554 175.638 54.7915 175.562C53.9422 175.484 53.1175 175.19 52.3174 174.681C51.4196 174.11 50.7335 173.392 50.2592 172.528C49.7993 171.661 49.5896 170.735 49.6301 169.749C49.6794 168.768 49.9954 167.82 50.5781 166.905C51.1607 165.989 51.8856 165.301 52.7528 164.842C53.6345 164.379 54.5626 164.176 55.5372 164.234C56.5264 164.289 57.4654 164.6 58.3543 165.165C59.4033 165.833 60.1504 166.671 60.5957 167.678C61.0466 168.677 61.1246 169.732 60.8296 170.843L58.6828 169.477Z" fill="black"/>
<path d="M72.6627 174.084L69.2258 182.138L67.1761 181.263L67.6104 180.245C67.1998 180.482 66.7379 180.612 66.2246 180.633C65.7252 180.649 65.2284 180.552 64.7341 180.341C64.1042 180.072 63.6028 179.703 63.2299 179.235C62.8611 178.757 62.6458 178.201 62.584 177.567C62.536 176.928 62.665 176.25 62.9711 175.533L64.9873 170.809L67.0224 171.677L65.1303 176.111C64.8573 176.75 64.8063 177.313 64.9772 177.798C65.1523 178.274 65.516 178.63 66.0684 178.865C66.6305 179.105 67.1438 179.124 67.6083 178.921C68.077 178.709 68.4479 178.283 68.7208 177.643L70.613 173.209L72.6627 174.084Z" fill="black"/>
<path d="M73.8257 178.505C74.064 177.652 74.4428 176.943 74.962 176.377C75.4915 175.814 76.095 175.436 76.7727 175.242C77.4606 175.051 78.1648 175.057 78.8852 175.258C79.5144 175.434 80.0269 175.714 80.4228 176.098C80.8288 176.485 81.12 176.911 81.2963 177.376L81.6325 176.174L83.7787 176.774L81.4214 185.207L79.2752 184.607L79.6198 183.374C79.2352 183.693 78.7625 183.916 78.2016 184.044C77.6538 184.164 77.0652 184.137 76.4361 183.961C75.7257 183.762 75.1273 183.398 74.6409 182.868C74.1646 182.341 73.8461 181.7 73.6855 180.943C73.5379 180.18 73.5846 179.367 73.8257 178.505ZM80.4538 180.39C80.5985 179.873 80.6204 179.403 80.5196 178.981C80.4216 178.549 80.227 178.188 79.9359 177.899C79.6476 177.599 79.3056 177.394 78.9098 177.284C78.5141 177.173 78.1218 177.167 77.733 177.266C77.3443 177.366 76.9908 177.573 76.6728 177.889C76.3677 178.198 76.1442 178.606 76.0024 179.113C75.8606 179.62 75.8372 180.095 75.9324 180.538C76.0405 180.973 76.2337 181.338 76.5118 181.635C76.8001 181.934 77.137 182.138 77.5227 182.246C77.9184 182.357 78.3158 182.364 78.7147 182.267C79.1164 182.161 79.4699 181.953 79.7749 181.645C80.0829 181.326 80.3091 180.908 80.4538 180.39Z" fill="black"/>
<path d="M89.1164 178.874C89.4626 178.454 89.8784 178.146 90.3637 177.948C90.8594 177.751 91.3995 177.694 91.9838 177.776L91.6606 180.077L91.0815 179.996C90.3928 179.899 89.8484 179.987 89.4482 180.261C89.0584 180.536 88.8071 181.075 88.6942 181.879L88.0873 186.199L85.8961 185.891L87.1142 177.22L89.3055 177.528L89.1164 178.874Z" fill="black"/>
<path d="M93.701 182.258C93.7103 181.373 93.8923 180.59 94.2472 179.909C94.6126 179.227 95.0975 178.706 95.702 178.343C96.3169 177.981 96.9985 177.804 97.7465 177.811C98.3998 177.818 98.9673 177.956 99.4493 178.224C99.9417 178.493 100.333 178.829 100.624 179.233L100.637 177.984L102.866 178.007L102.774 186.763L100.545 186.74L100.559 185.459C100.27 185.867 99.8713 186.206 99.3627 186.474C98.8648 186.733 98.2892 186.858 97.6359 186.851C96.8984 186.844 96.2261 186.647 95.6189 186.261C95.0224 185.876 94.5485 185.338 94.1975 184.65C93.8571 183.951 93.6916 183.154 93.701 182.258ZM100.591 182.362C100.597 181.824 100.496 181.365 100.29 180.984C100.083 180.591 99.8016 180.293 99.4455 180.09C99.0895 179.875 98.706 179.766 98.2951 179.761C97.8842 179.757 97.5038 179.853 97.154 180.05C96.8042 180.246 96.5167 180.538 96.2913 180.926C96.0766 181.303 95.9665 181.755 95.961 182.282C95.9555 182.808 96.056 183.273 96.2625 183.676C96.4797 184.068 96.761 184.371 97.1065 184.586C97.4625 184.8 97.8407 184.909 98.2411 184.914C98.652 184.918 99.0376 184.822 99.3979 184.625C99.7584 184.418 100.046 184.126 100.261 183.749C100.475 183.362 100.586 182.899 100.591 182.362Z" fill="black"/>
<path d="M110.83 176.814C111.87 176.731 112.736 176.994 113.43 177.605C114.123 178.205 114.516 179.093 114.61 180.269L115.019 185.39L112.814 185.566L112.428 180.745C112.373 180.052 112.157 179.535 111.781 179.195C111.404 178.845 110.917 178.694 110.318 178.741C109.709 178.79 109.241 179.018 108.914 179.424C108.597 179.82 108.466 180.364 108.521 181.057L108.906 185.878L106.701 186.054L106.003 177.326L108.209 177.15L108.296 178.237C108.56 177.835 108.909 177.512 109.344 177.265C109.788 177.008 110.284 176.857 110.83 176.814Z" fill="black"/>
<path d="M120.212 177.19L121.113 181.328C121.176 181.617 121.289 181.813 121.452 181.918C121.623 182.01 121.873 182.02 122.203 181.949L123.207 181.73L123.604 183.552L122.245 183.848C120.422 184.245 119.318 183.558 118.933 181.787L118.035 177.664L117.015 177.886L116.629 176.11L117.648 175.888L117.187 173.772L119.365 173.298L119.825 175.414L121.74 174.997L122.127 176.773L120.212 177.19Z" fill="black"/>
<path d="M134.217 175.065C134.31 175.367 134.374 175.645 134.408 175.9L128.292 177.788C128.529 178.376 128.886 178.784 129.364 179.011C129.842 179.239 130.353 179.268 130.897 179.101C131.682 178.858 132.137 178.348 132.261 177.571L134.541 176.867C134.548 177.747 134.29 178.555 133.767 179.29C133.241 180.015 132.48 180.531 131.483 180.838C130.678 181.087 129.898 181.135 129.145 180.981C128.399 180.815 127.744 180.46 127.179 179.917C126.625 179.372 126.216 178.671 125.951 177.815C125.684 176.949 125.626 176.135 125.776 175.372C125.926 174.609 126.264 173.953 126.79 173.405C127.315 172.856 127.991 172.455 128.817 172.2C129.612 171.955 130.375 171.907 131.104 172.056C131.844 172.203 132.483 172.54 133.021 173.069C133.567 173.584 133.965 174.25 134.217 175.065ZM131.84 175.137C131.663 174.597 131.333 174.224 130.851 174.02C130.365 173.806 129.846 173.785 129.292 173.955C128.769 174.117 128.375 174.415 128.112 174.849C127.856 175.27 127.775 175.775 127.869 176.363L131.84 175.137Z" fill="black"/>
<path d="M144.104 169.969C144.236 170.257 144.336 170.524 144.404 170.771L138.588 173.446C138.9 173.999 139.308 174.356 139.812 174.519C140.316 174.681 140.827 174.644 141.344 174.406C142.09 174.062 142.474 173.497 142.495 172.711L144.663 171.713C144.785 172.585 144.636 173.419 144.214 174.216C143.788 175.004 143.101 175.616 142.153 176.052C141.387 176.404 140.621 176.553 139.854 176.5C139.092 176.433 138.396 176.168 137.765 175.704C137.144 175.236 136.646 174.595 136.272 173.781C135.893 172.958 135.728 172.158 135.777 171.382C135.826 170.606 136.075 169.911 136.524 169.299C136.973 168.686 137.59 168.2 138.375 167.838C139.131 167.491 139.88 167.343 140.624 167.395C141.376 167.443 142.054 167.694 142.657 168.147C143.265 168.587 143.748 169.194 144.104 169.969ZM141.758 170.353C141.511 169.84 141.135 169.515 140.63 169.376C140.121 169.227 139.603 169.274 139.077 169.516C138.579 169.745 138.228 170.092 138.025 170.557C137.826 171.008 137.812 171.519 137.982 172.09L141.758 170.353Z" fill="black"/>
<path d="M106.778 71.1363L98.2664 91.0723H93.7224L102.298 71.6483H91.3544V67.8083H106.778V71.1363Z" fill="black"/>
<path d="M75.9729 106.32C77.7329 106.32 79.2769 106.664 80.6049 107.352C81.9489 108.04 82.9809 109.024 83.7009 110.304C84.4369 111.568 84.8049 113.04 84.8049 114.72C84.8049 116.4 84.4369 117.872 83.7009 119.136C82.9809 120.384 81.9489 121.352 80.6049 122.04C79.2769 122.728 77.7329 123.072 75.9729 123.072H70.1169V106.32H75.9729ZM75.8529 120.216C77.6129 120.216 78.9729 119.736 79.9329 118.776C80.8929 117.816 81.3729 116.464 81.3729 114.72C81.3729 112.976 80.8929 111.616 79.9329 110.64C78.9729 109.648 77.6129 109.152 75.8529 109.152H73.4769V120.216H75.8529ZM86.4561 116.376C86.4561 115.032 86.7201 113.84 87.2481 112.8C87.7921 111.76 88.5201 110.96 89.4321 110.4C90.3601 109.84 91.3921 109.56 92.5281 109.56C93.5201 109.56 94.3841 109.76 95.1201 110.16C95.8721 110.56 96.4721 111.064 96.9201 111.672V109.776H100.304V123.072H96.9201V121.128C96.4881 121.752 95.8881 122.272 95.1201 122.688C94.3681 123.088 93.4961 123.288 92.5041 123.288C91.3841 123.288 90.3601 123 89.4321 122.424C88.5201 121.848 87.7921 121.04 87.2481 120C86.7201 118.944 86.4561 117.736 86.4561 116.376ZM96.9201 116.424C96.9201 115.608 96.7601 114.912 96.4401 114.336C96.1201 113.744 95.6881 113.296 95.1441 112.992C94.6001 112.672 94.0161 112.512 93.3921 112.512C92.7681 112.512 92.1921 112.664 91.6641 112.968C91.1361 113.272 90.7041 113.72 90.3681 114.312C90.0481 114.888 89.8881 115.576 89.8881 116.376C89.8881 117.176 90.0481 117.88 90.3681 118.488C90.7041 119.08 91.1361 119.536 91.6641 119.856C92.2081 120.176 92.7841 120.336 93.3921 120.336C94.0161 120.336 94.6001 120.184 95.1441 119.88C95.6881 119.56 96.1201 119.112 96.4401 118.536C96.7601 117.944 96.9201 117.24 96.9201 116.424ZM116.306 109.776L108.074 129.36H104.498L107.378 122.736L102.05 109.776H105.818L109.25 119.064L112.73 109.776H116.306ZM123.205 123.288C122.117 123.288 121.141 123.096 120.277 122.712C119.413 122.312 118.725 121.776 118.213 121.104C117.717 120.432 117.445 119.688 117.397 118.872H120.781C120.845 119.384 121.093 119.808 121.525 120.144C121.973 120.48 122.525 120.648 123.181 120.648C123.821 120.648 124.317 120.52 124.669 120.264C125.037 120.008 125.221 119.68 125.221 119.28C125.221 118.848 124.997 118.528 124.549 118.32C124.117 118.096 123.421 117.856 122.461 117.6C121.469 117.36 120.653 117.112 120.013 116.856C119.389 116.6 118.845 116.208 118.381 115.68C117.933 115.152 117.709 114.44 117.709 113.544C117.709 112.808 117.917 112.136 118.333 111.528C118.765 110.92 119.373 110.44 120.157 110.088C120.957 109.736 121.893 109.56 122.965 109.56C124.549 109.56 125.813 109.96 126.757 110.76C127.701 111.544 128.221 112.608 128.317 113.952H125.101C125.053 113.424 124.829 113.008 124.429 112.704C124.045 112.384 123.525 112.224 122.869 112.224C122.261 112.224 121.789 112.336 121.453 112.56C121.133 112.784 120.973 113.096 120.973 113.496C120.973 113.944 121.197 114.288 121.645 114.528C122.093 114.752 122.789 114.984 123.733 115.224C124.693 115.464 125.485 115.712 126.109 115.968C126.733 116.224 127.269 116.624 127.717 117.168C128.181 117.696 128.421 118.4 128.437 119.28C128.437 120.048 128.221 120.736 127.789 121.344C127.373 121.952 126.765 122.432 125.965 122.784C125.181 123.12 124.261 123.288 123.205 123.288Z" fill="black"/>
<path d="M194.736 93.4678L189.777 92.7471L187.56 88.2529C187.5 88.1299 187.4 88.0303 187.277 87.9697C186.968 87.8174 186.593 87.9443 186.439 88.2529L184.222 92.7471L179.263 93.4678C179.127 93.4873 179.002 93.5518 178.906 93.6494C178.79 93.7683 178.726 93.9283 178.729 94.0942C178.731 94.2601 178.799 94.4184 178.918 94.5342L182.505 98.0322L181.658 102.972C181.638 103.087 181.651 103.205 181.694 103.313C181.738 103.421 181.812 103.514 181.906 103.583C182 103.651 182.112 103.692 182.228 103.701C182.345 103.709 182.461 103.684 182.564 103.63L187 101.298L191.435 103.63C191.556 103.694 191.697 103.716 191.832 103.692C192.171 103.634 192.4 103.312 192.341 102.972L191.494 98.0322L195.082 94.5342C195.179 94.4385 195.244 94.3135 195.263 94.1768C195.316 93.835 195.078 93.5186 194.736 93.4678V93.4678Z" fill="#FFBD00"/>
<path d="M17.7359 93.4678L12.7769 92.7471L10.5601 88.2529C10.4996 88.1299 10.4 88.0303 10.2769 87.9697C9.96833 87.8174 9.59333 87.9443 9.43903 88.2529L7.22223 92.7471L2.26325 93.4678C2.12653 93.4873 2.00153 93.5518 1.90583 93.6494C1.79013 93.7683 1.72637 93.9283 1.72857 94.0942C1.73077 94.2601 1.79874 94.4184 1.91755 94.5342L5.50544 98.0322L4.65778 102.972C4.6379 103.087 4.65062 103.205 4.69449 103.313C4.73835 103.421 4.81161 103.514 4.90596 103.583C5.00031 103.651 5.11198 103.692 5.22829 103.701C5.3446 103.709 5.46091 103.684 5.56403 103.63L9.99958 101.298L14.4351 103.63C14.5562 103.694 14.6968 103.716 14.8316 103.692C15.1715 103.634 15.4 103.312 15.3414 102.972L14.4937 98.0322L18.0816 94.5342C18.1793 94.4385 18.2437 94.3135 18.2633 94.1768C18.316 93.835 18.0777 93.5186 17.7359 93.4678V93.4678Z" fill="#FFBD00"/>
</svg>
